<svg width="20" height="20" viewBox="0 0 20 20" fill="none" xmlns="http://www.w3.org/2000/svg">
<g clip-path="url(#clip0_82_13488)">
<path d="M1.4613 -0.0100553C1.49118 -0.010204 1.52107 -0.0103526 1.55186 -0.0105058C1.65283 -0.010911 1.75379 -0.0107557 1.85476 -0.0106058C1.92755 -0.0107796 2.00034 -0.0109871 2.07313 -0.0112257C2.27379 -0.0117814 2.47446 -0.0118445 2.67513 -0.0118273C2.89129 -0.0118916 3.10746 -0.0124017 3.32362 -0.0128505C3.79656 -0.0137443 4.2695 -0.0140526 4.74244 -0.01425C5.03755 -0.014377 5.33267 -0.0146317 5.62778 -0.0149141C6.44434 -0.0156785 7.26089 -0.0163224 8.07745 -0.0164327C8.11664 -0.0164382 8.11664 -0.0164382 8.15662 -0.0164438C8.2625 -0.0164586 8.36838 -0.0164728 8.47427 -0.0164869C8.55396 -0.0164975 8.63366 -0.0165083 8.71335 -0.0165192C8.73969 -0.0165226 8.76602 -0.016526 8.79315 -0.0165296C9.62079 -0.0166431 10.4484 -0.0175064 11.2761 -0.0189224C12.2054 -0.0205124 13.1348 -0.0214381 14.0642 -0.0214506C14.5565 -0.0214735 15.0487 -0.0218078 15.541 -0.0229349C15.9601 -0.0238901 16.3791 -0.0241786 16.7982 -0.0235893C17.0122 -0.0233083 17.2261 -0.0233469 17.4401 -0.0242304C17.6358 -0.0250307 17.8315 -0.0249368 18.0272 -0.0241181C18.0981 -0.0239808 18.1691 -0.0241765 18.24 -0.0247315C18.3362 -0.0254357 18.4323 -0.0249452 18.5285 -0.0241476C18.5701 -0.0248838 18.5701 -0.0248838 18.6127 -0.0256348C18.7638 -0.0229371 18.8237 -0.00339066 18.9419 0.0943925C19.0748 0.259464 19.0679 0.381403 19.0675 0.586306C19.0676 0.61917 19.0677 0.652034 19.0678 0.685894C19.0681 0.797221 19.0681 0.908547 19.0681 1.01987C19.0682 1.10002 19.0683 1.18016 19.0685 1.2603C19.0689 1.48146 19.069 1.70263 19.0691 1.9238C19.0693 2.16196 19.0697 2.40012 19.07 2.63828C19.0707 3.18668 19.0711 3.73508 19.0715 4.28348C19.0716 4.55437 19.0718 4.82525 19.072 5.09614C19.0727 6.02307 19.0733 6.95 19.0736 7.87693C19.0736 7.93514 19.0736 7.99335 19.0737 8.05156C19.0737 8.08043 19.0737 8.1093 19.0737 8.13904C19.0737 8.28531 19.0738 8.43157 19.0738 8.57783C19.0738 8.60686 19.0739 8.63589 19.0739 8.66579C19.0742 9.60714 19.0751 10.5485 19.0764 11.4898C19.0777 12.4847 19.0785 13.4795 19.0786 14.4743C19.0786 14.5834 19.0786 14.6926 19.0786 14.8017C19.0787 14.8286 19.0787 14.8555 19.0787 14.8832C19.0788 15.3162 19.0794 15.7491 19.0802 16.1821C19.081 16.6172 19.0812 17.0522 19.0808 17.4872C19.0806 17.723 19.0807 17.9588 19.0815 18.1946C19.0821 18.4103 19.0821 18.626 19.0815 18.8417C19.0814 18.9199 19.0816 18.998 19.082 19.0762C19.0826 19.1822 19.0823 19.2882 19.0816 19.3942C19.082 19.4248 19.0824 19.4554 19.0828 19.4869C19.0803 19.6892 19.0348 19.8055 18.9061 19.961C18.7896 20.0193 18.6708 20.0056 18.5431 20.0053C18.5133 20.0054 18.4834 20.0055 18.4527 20.0056C18.3516 20.0059 18.2506 20.0059 18.1495 20.0059C18.0768 20.006 18.004 20.0061 17.9313 20.0063C17.7305 20.0067 17.5298 20.0068 17.329 20.0069C17.1128 20.0071 16.8966 20.0075 16.6804 20.0078C16.1579 20.0086 15.6355 20.009 15.113 20.0093C14.8672 20.0095 14.6213 20.0097 14.3755 20.0099C13.5588 20.0106 12.7421 20.0111 11.9254 20.0114C11.8725 20.0114 11.8197 20.0114 11.7669 20.0115C11.7276 20.0115 11.7276 20.0115 11.6875 20.0115C11.5547 20.0115 11.422 20.0116 11.2892 20.0116C11.2497 20.0116 11.2497 20.0116 11.2094 20.0117C10.3549 20.012 9.50042 20.0129 8.64595 20.0142C7.74296 20.0155 6.83998 20.0163 5.93699 20.0164C5.44459 20.0165 4.9522 20.0168 4.45981 20.0178C4.04058 20.0187 3.62136 20.019 3.20214 20.0186C2.98811 20.0184 2.77409 20.0185 2.56007 20.0193C2.36429 20.0199 2.16853 20.0199 1.97275 20.0193C1.90178 20.0192 1.8308 20.0194 1.75983 20.0198C1.66361 20.0204 1.56745 20.0201 1.47124 20.0194C1.44345 20.0198 1.41565 20.0202 1.38702 20.0206C1.24981 20.0187 1.1748 20.0021 1.05774 19.9281C0.909894 19.775 0.93172 19.6093 0.932169 19.409C0.932089 19.3761 0.932009 19.3431 0.931926 19.3092C0.931704 19.1979 0.931762 19.0867 0.931817 18.9754C0.931716 18.8952 0.931598 18.815 0.931465 18.7348C0.931149 18.5136 0.93108 18.2925 0.931051 18.0713C0.930979 17.8331 0.930684 17.5949 0.930421 17.3567C0.929862 16.8083 0.929635 16.2599 0.929456 15.7115C0.929365 15.4406 0.929224 15.1697 0.929078 14.8988C0.928576 13.9719 0.928158 13.045 0.928023 12.118C0.928014 12.0598 0.928006 12.0016 0.927997 11.9434C0.927988 11.8851 0.92798 11.8268 0.927971 11.7684C0.927954 11.6514 0.927936 11.5343 0.927919 11.4173C0.927914 11.3883 0.92791 11.3592 0.927906 11.3293C0.927764 10.388 0.927142 9.44661 0.926232 8.50525C0.925271 7.5104 0.924735 6.51554 0.924688 5.52068C0.924681 5.41153 0.924673 5.30239 0.924663 5.19324C0.924661 5.16636 0.924659 5.13948 0.924657 5.11179C0.924612 4.67878 0.924181 4.24576 0.923613 3.81274C0.923053 3.37775 0.922935 2.94276 0.92324 2.50778C0.923393 2.272 0.923354 2.03622 0.922808 1.80044C0.922313 1.58479 0.922354 1.36915 0.922831 1.1535C0.922908 1.07529 0.922785 0.997091 0.922446 0.918888C0.922017 0.812934 0.922303 0.707006 0.922774 0.601053C0.922477 0.57039 0.922181 0.539727 0.921875 0.508135C0.923578 0.331856 0.9441 0.217586 1.05449 0.0782284C1.1958 -0.0159776 1.29808 -0.0109274 1.4613 -0.0100553Z" fill="#477B9E"/>
<path d="M1.4613 -0.0100553C1.49118 -0.010204 1.52107 -0.0103526 1.55186 -0.0105058C1.65283 -0.010911 1.75379 -0.0107557 1.85476 -0.0106058C1.92755 -0.0107796 2.00034 -0.0109871 2.07313 -0.0112257C2.27379 -0.0117814 2.47446 -0.0118445 2.67513 -0.0118273C2.89129 -0.0118916 3.10746 -0.0124017 3.32362 -0.0128505C3.79656 -0.0137443 4.2695 -0.0140526 4.74244 -0.01425C5.03755 -0.014377 5.33267 -0.0146317 5.62778 -0.0149141C6.44434 -0.0156785 7.26089 -0.0163224 8.07745 -0.0164327C8.11664 -0.0164382 8.11664 -0.0164382 8.15662 -0.0164438C8.2625 -0.0164586 8.36838 -0.0164728 8.47427 -0.0164869C8.55396 -0.0164975 8.63366 -0.0165083 8.71335 -0.0165192C8.73969 -0.0165226 8.76602 -0.016526 8.79315 -0.0165296C9.62079 -0.0166431 10.4484 -0.0175064 11.2761 -0.0189224C12.2054 -0.0205124 13.1348 -0.0214381 14.0642 -0.0214506C14.5565 -0.0214735 15.0487 -0.0218078 15.541 -0.0229349C15.9601 -0.0238901 16.3791 -0.0241786 16.7982 -0.0235893C17.0122 -0.0233083 17.2261 -0.0233469 17.4401 -0.0242304C17.6358 -0.0250307 17.8315 -0.0249368 18.0272 -0.0241181C18.0981 -0.0239808 18.1691 -0.0241765 18.24 -0.0247315C18.3362 -0.0254357 18.4323 -0.0249452 18.5285 -0.0241476C18.5701 -0.0248838 18.5701 -0.0248838 18.6127 -0.0256348C18.7638 -0.0229371 18.8237 -0.00339066 18.9419 0.0943925C19.0748 0.259464 19.0679 0.381403 19.0675 0.586306C19.0676 0.61917 19.0677 0.652034 19.0678 0.685894C19.0681 0.797221 19.0681 0.908547 19.0681 1.01987C19.0682 1.10002 19.0683 1.18016 19.0685 1.2603C19.0689 1.48146 19.069 1.70263 19.0691 1.9238C19.0693 2.16196 19.0697 2.40012 19.07 2.63828C19.0707 3.18668 19.0711 3.73508 19.0715 4.28348C19.0716 4.55437 19.0718 4.82525 19.072 5.09614C19.0727 6.02307 19.0733 6.95 19.0736 7.87693C19.0736 7.93514 19.0736 7.99335 19.0737 8.05156C19.0737 8.08043 19.0737 8.1093 19.0737 8.13904C19.0737 8.28531 19.0738 8.43157 19.0738 8.57783C19.0738 8.60686 19.0739 8.63589 19.0739 8.66579C19.0742 9.60714 19.0751 10.5485 19.0764 11.4898C19.0777 12.4847 19.0785 13.4795 19.0786 14.4743C19.0786 14.5834 19.0786 14.6926 19.0786 14.8017C19.0787 14.8286 19.0787 14.8555 19.0787 14.8832C19.0788 15.3162 19.0794 15.7491 19.0802 16.1821C19.081 16.6172 19.0812 17.0522 19.0808 17.4872C19.0806 17.723 19.0807 17.9588 19.0815 18.1946C19.0821 18.4103 19.0821 18.626 19.0815 18.8417C19.0814 18.9199 19.0816 18.998 19.082 19.0762C19.0826 19.1822 19.0823 19.2882 19.0816 19.3942C19.082 19.4248 19.0824 19.4554 19.0828 19.4869C19.0803 19.6892 19.0348 19.8055 18.9061 19.961C18.7896 20.0193 18.6708 20.0056 18.5431 20.0053C18.5133 20.0054 18.4834 20.0055 18.4527 20.0056C18.3516 20.0059 18.2506 20.0059 18.1495 20.0059C18.0768 20.006 18.004 20.0061 17.9313 20.0063C17.7305 20.0067 17.5298 20.0068 17.329 20.0069C17.1128 20.0071 16.8966 20.0075 16.6804 20.0078C16.1579 20.0086 15.6355 20.009 15.113 20.0093C14.8672 20.0095 14.6213 20.0097 14.3755 20.0099C13.5588 20.0106 12.7421 20.0111 11.9254 20.0114C11.8725 20.0114 11.8197 20.0114 11.7669 20.0115C11.7276 20.0115 11.7276 20.0115 11.6875 20.0115C11.5547 20.0115 11.422 20.0116 11.2892 20.0116C11.2497 20.0116 11.2497 20.0116 11.2094 20.0117C10.3549 20.012 9.50042 20.0129 8.64595 20.0142C7.74296 20.0155 6.83998 20.0163 5.93699 20.0164C5.44459 20.0165 4.9522 20.0168 4.45981 20.0178C4.04058 20.0187 3.62136 20.019 3.20214 20.0186C2.98811 20.0184 2.77409 20.0185 2.56007 20.0193C2.36429 20.0199 2.16853 20.0199 1.97275 20.0193C1.90178 20.0192 1.8308 20.0194 1.75983 20.0198C1.66361 20.0204 1.56745 20.0201 1.47124 20.0194C1.44345 20.0198 1.41565 20.0202 1.38702 20.0206C1.24981 20.0187 1.1748 20.0021 1.05774 19.9281C0.909894 19.775 0.93172 19.6093 0.932169 19.409C0.932089 19.3761 0.932009 19.3431 0.931926 19.3092C0.931704 19.1979 0.931762 19.0867 0.931817 18.9754C0.931716 18.8952 0.931598 18.815 0.931465 18.7348C0.931149 18.5136 0.93108 18.2925 0.931051 18.0713C0.930979 17.8331 0.930684 17.5949 0.930421 17.3567C0.929862 16.8083 0.929635 16.2599 0.929456 15.7115C0.929365 15.4406 0.929224 15.1697 0.929078 14.8988C0.928576 13.9719 0.928158 13.045 0.928023 12.118C0.928014 12.0598 0.928006 12.0016 0.927997 11.9434C0.927988 11.8851 0.92798 11.8268 0.927971 11.7684C0.927954 11.6514 0.927936 11.5343 0.927919 11.4173C0.927914 11.3883 0.92791 11.3592 0.927906 11.3293C0.927764 10.388 0.927142 9.44661 0.926232 8.50525C0.925271 7.5104 0.924735 6.51554 0.924688 5.52068C0.924681 5.41153 0.924673 5.30239 0.924663 5.19324C0.924661 5.16636 0.924659 5.13948 0.924657 5.11179C0.924612 4.67878 0.924181 4.24576 0.923613 3.81274C0.923053 3.37775 0.922935 2.94276 0.92324 2.50778C0.923393 2.272 0.923354 2.03622 0.922808 1.80044C0.922313 1.58479 0.922354 1.36915 0.922831 1.1535C0.922908 1.07529 0.922785 0.997091 0.922446 0.918888C0.922017 0.812934 0.922303 0.707006 0.922774 0.601053C0.922477 0.57039 0.922181 0.539727 0.921875 0.508135C0.923578 0.331856 0.9441 0.217586 1.05449 0.0782284C1.1958 -0.0159776 1.29808 -0.0109274 1.4613 -0.0100553ZM3.4373 2.53917C3.43337 2.6183 3.43225 2.69757 3.43217 2.77679C3.43209 2.80201 3.43201 2.82723 3.43193 2.8532C3.4317 2.93875 3.43176 3.02429 3.43182 3.10983C3.43172 3.17136 3.4316 3.23289 3.43147 3.29441C3.43115 3.46431 3.43108 3.6342 3.43105 3.80409C3.43098 3.987 3.43068 4.16991 3.43042 4.35281C3.42989 4.75311 3.42965 5.15341 3.42948 5.55371C3.42938 5.80343 3.42921 6.05314 3.42903 6.30286C3.42856 6.99359 3.42815 7.68431 3.42802 8.37504C3.42801 8.41928 3.42801 8.46352 3.428 8.5091C3.42799 8.55346 3.42798 8.59781 3.42797 8.6435C3.42795 8.73338 3.42794 8.82326 3.42792 8.91313C3.42791 8.95772 3.4279 9.0023 3.42789 9.04823C3.42774 9.77112 3.42706 10.494 3.42615 11.2169C3.42522 11.9582 3.42473 12.6995 3.42469 13.4408C3.42465 13.8574 3.42443 14.2739 3.42372 14.6905C3.42312 15.0451 3.42292 15.3998 3.42324 15.7544C3.42339 15.9355 3.42335 16.1166 3.42281 16.2977C3.42231 16.4632 3.42235 16.6288 3.42283 16.7943C3.42291 16.8544 3.42278 16.9146 3.42245 16.9747C3.42202 17.056 3.4223 17.1372 3.42277 17.2185C3.42275 17.2638 3.42273 17.3091 3.4227 17.3557C3.42993 17.4078 3.42993 17.4078 3.4373 17.461C3.58268 17.558 3.69371 17.5496 3.86183 17.548C3.89309 17.548 3.92435 17.5481 3.95656 17.5481C4.05991 17.548 4.16326 17.5474 4.26662 17.5468C4.33827 17.5466 4.40991 17.5465 4.48156 17.5465C4.67017 17.5462 4.85878 17.5454 5.04738 17.5445C5.23983 17.5437 5.43228 17.5434 5.62473 17.543C6.00236 17.5421 6.37999 17.5408 6.75762 17.5392C6.75959 17.4885 6.76156 17.4378 6.76359 17.3856C6.76656 17.3183 6.76956 17.2509 6.77257 17.1836C6.77444 17.1337 6.77444 17.1337 6.77636 17.0827C6.78845 16.8237 6.83442 16.6002 6.95293 16.3673C6.9742 16.3171 6.9742 16.3171 6.99591 16.2658C7.07012 16.172 7.07012 16.172 7.20148 16.1467C7.25569 16.1454 7.30993 16.1453 7.36415 16.146C7.39322 16.1459 7.42229 16.1457 7.45224 16.1455C7.51394 16.1453 7.57564 16.1457 7.63733 16.1465C7.73023 16.1475 7.82294 16.1465 7.91583 16.1453C8.41463 16.1441 8.81237 16.2406 9.18315 16.5972C9.42767 16.8683 9.52108 17.1412 9.57012 17.5001C10.4702 17.5019 11.3704 17.5033 12.2705 17.5042C12.6884 17.5046 13.1064 17.5051 13.5243 17.506C13.8884 17.5068 14.2526 17.5073 14.6167 17.5075C14.8096 17.5076 15.0025 17.5078 15.1955 17.5084C15.3769 17.5089 15.5583 17.5091 15.7397 17.5089C15.8064 17.509 15.8731 17.5091 15.9399 17.5094C16.0307 17.5098 16.1215 17.5097 16.2123 17.5095C16.2632 17.5096 16.3141 17.5096 16.3666 17.5097C16.4886 17.5125 16.4886 17.5125 16.5623 17.422C16.5742 17.3121 16.5742 17.3121 16.5721 17.1808C16.5723 17.1431 16.5723 17.1431 16.5725 17.1046C16.5728 17.0196 16.5725 16.9346 16.5722 16.8496C16.5723 16.7883 16.5724 16.7271 16.5726 16.6659C16.5729 16.497 16.5728 16.328 16.5725 16.1591C16.5723 15.9772 16.5726 15.7953 16.5728 15.6134C16.5732 15.2567 16.5731 14.9001 16.5729 14.5435C16.5727 14.2537 16.5727 13.964 16.5728 13.6743C16.5728 13.6125 16.5728 13.6125 16.5728 13.5495C16.5728 13.4659 16.5728 13.3823 16.5729 13.2987C16.5731 12.5138 16.5728 11.729 16.5724 10.9441C16.5721 10.27 16.5721 9.59588 16.5725 8.92176C16.5729 8.1398 16.5731 7.35783 16.5728 6.57586C16.5728 6.49255 16.5728 6.40924 16.5728 6.32592C16.5727 6.28493 16.5727 6.24393 16.5727 6.2017C16.5727 5.91216 16.5728 5.62263 16.573 5.3331C16.5732 4.98048 16.5731 4.62786 16.5727 4.27524C16.5725 4.09517 16.5724 3.9151 16.5727 3.73503C16.5729 3.57042 16.5728 3.40581 16.5724 3.2412C16.5723 3.18142 16.5723 3.12165 16.5725 3.06187C16.5727 2.98106 16.5725 2.90026 16.5721 2.81944C16.5721 2.77442 16.5721 2.7294 16.5721 2.68302C16.573 2.5723 16.573 2.5723 16.4842 2.5001C16.3869 2.48828 16.3869 2.48828 16.2715 2.49038C16.2261 2.4902 16.1806 2.49002 16.1338 2.48984C16.0835 2.49004 16.0331 2.49024 15.9812 2.49045C15.9275 2.49038 15.8738 2.49029 15.8201 2.49016C15.6721 2.48991 15.524 2.49015 15.376 2.49046C15.2165 2.49072 15.057 2.49053 14.8975 2.49039C14.5849 2.49019 14.2724 2.49041 13.9598 2.49077C13.5961 2.49118 13.2324 2.49118 12.8688 2.49116C12.2201 2.49114 11.5715 2.4915 10.9229 2.49206C10.2928 2.49261 9.66267 2.49289 9.03256 2.49287C8.99375 2.49286 8.95493 2.49286 8.91495 2.49286C8.8762 2.49286 8.83746 2.49286 8.79754 2.49286C8.0812 2.49283 7.36485 2.49306 6.6485 2.49341C6.3947 2.49353 6.1409 2.49357 5.8871 2.49359C5.57805 2.49361 5.269 2.49379 4.95996 2.49415C4.80212 2.49433 4.64429 2.49444 4.48645 2.4944C4.3422 2.49435 4.19796 2.49449 4.05371 2.49477C3.9763 2.49488 3.8989 2.49479 3.8215 2.4947C3.77616 2.49482 3.73082 2.49495 3.6841 2.49508C3.62492 2.49512 3.62492 2.49512 3.56453 2.49516C3.47758 2.49021 3.47758 2.49021 3.4373 2.53917Z" fill="#E29B74"/>
<path d="M3.68431 2.49499C3.75233 2.4948 3.75233 2.4948 3.82171 2.49461C3.89738 2.4947 3.89738 2.4947 3.97458 2.49479C4.02821 2.49472 4.08184 2.49463 4.13547 2.49452C4.28355 2.49428 4.43162 2.49429 4.57969 2.49433C4.73911 2.49434 4.89853 2.49413 5.05795 2.49394C5.37054 2.49362 5.68313 2.49351 5.99572 2.49349C6.24967 2.49347 6.50362 2.49339 6.75758 2.49326C7.47677 2.49292 8.19597 2.49274 8.91516 2.49277C8.95397 2.49277 8.99278 2.49277 9.03277 2.49277C9.09106 2.49278 9.09106 2.49278 9.15052 2.49278C9.78058 2.4928 10.4106 2.49242 11.0407 2.49187C11.6868 2.49131 12.333 2.49104 12.9791 2.49107C13.3422 2.49109 13.7053 2.49098 14.0683 2.49056C14.3774 2.4902 14.6865 2.49012 14.9956 2.49038C15.1534 2.49051 15.3113 2.49051 15.4691 2.49017C15.6134 2.48987 15.7577 2.48992 15.902 2.49026C15.9794 2.49035 16.0567 2.49005 16.134 2.48975C16.1795 2.48993 16.2249 2.49011 16.2717 2.49029C16.3112 2.49028 16.3507 2.49027 16.3913 2.49026C16.4844 2.50001 16.4844 2.50001 16.5625 2.57814C16.5723 2.68293 16.5723 2.68293 16.5723 2.81935C16.5725 2.84448 16.5726 2.86961 16.5727 2.8955C16.573 2.98051 16.5727 3.06552 16.5724 3.15053C16.5725 3.21177 16.5726 3.27301 16.5728 3.33425C16.5731 3.50317 16.573 3.67208 16.5727 3.841C16.5726 4.02292 16.5728 4.20484 16.573 4.38676C16.5734 4.74339 16.5733 5.10002 16.5731 5.45666C16.5729 5.74638 16.5729 6.03611 16.573 6.32583C16.573 6.367 16.573 6.40816 16.573 6.45057C16.573 6.53418 16.5731 6.6178 16.5731 6.70141C16.5733 7.48627 16.573 8.27113 16.5726 9.056C16.5723 9.73012 16.5723 10.4042 16.5727 11.0784C16.5731 11.8603 16.5733 12.6423 16.573 13.4243C16.573 13.5076 16.573 13.5909 16.573 13.6742C16.573 13.7152 16.5729 13.7562 16.5729 13.7984C16.5729 14.088 16.573 14.3775 16.5732 14.667C16.5734 15.0196 16.5733 15.3723 16.5729 15.7249C16.5727 15.9049 16.5726 16.085 16.5729 16.2651C16.5731 16.4297 16.573 16.5943 16.5726 16.7589C16.5725 16.8187 16.5725 16.8785 16.5727 16.9382C16.573 17.0191 16.5727 17.0999 16.5723 17.1807C16.5723 17.2257 16.5723 17.2707 16.5723 17.3171C16.5625 17.4219 16.5625 17.4219 16.4844 17.5C16.3859 17.5089 16.3859 17.5089 16.2631 17.5076C16.2193 17.5074 16.1755 17.5071 16.1304 17.5069C16.0845 17.5062 16.0385 17.5056 15.9912 17.5049C15.945 17.5045 15.8988 17.5042 15.8512 17.5038C15.7367 17.5029 15.6223 17.5016 15.5078 17.5C15.5065 17.4667 15.5051 17.4334 15.5038 17.399C15.4391 15.9004 15.2787 14.2081 14.2188 13.0469C14.1683 12.9908 14.1178 12.9346 14.0674 12.8784C14.0418 12.8501 14.0162 12.8217 13.9899 12.7925C13.8727 12.6563 13.7646 12.5137 13.656 12.3705C13.5363 12.2132 13.4121 12.0622 13.2813 11.9141C13.3183 11.8907 13.3554 11.8673 13.3936 11.8433C13.5211 11.765 13.5211 11.765 13.5938 11.6406C13.6057 11.5591 13.6057 11.5591 13.6042 11.4682C13.6045 11.4329 13.6049 11.3976 13.6052 11.3612C13.6052 11.3225 13.6052 11.2839 13.6051 11.2441C13.6054 11.2033 13.6056 11.1625 13.6059 11.1204C13.6067 10.9849 13.6068 10.8495 13.6069 10.714C13.6071 10.6195 13.6074 10.525 13.6077 10.4305C13.6081 10.2319 13.6083 10.0332 13.6082 9.8346C13.6082 9.58178 13.6093 9.32898 13.6106 9.07617C13.6115 8.88061 13.6117 8.68506 13.6116 8.4895C13.6117 8.39643 13.6121 8.30336 13.6127 8.21029C13.6202 6.94564 13.313 5.75498 12.4075 4.82713C11.7593 4.21096 10.8879 3.96844 10.0098 3.96974C9.96524 3.9698 9.92071 3.96987 9.87482 3.96993C9.52841 3.97495 9.23284 4.01964 8.90627 4.14064C8.87102 4.15237 8.83577 4.1641 8.79945 4.17619C8.36932 4.33048 8.01818 4.60442 7.69533 4.92189C7.66799 4.94873 7.64064 4.97556 7.61247 5.00322C7.03959 5.60514 6.78297 6.39864 6.78815 7.21589C6.78814 7.26409 6.78812 7.31229 6.78811 7.36195C6.7881 7.466 6.78822 7.57005 6.78856 7.6741C6.78905 7.83899 6.78877 8.00386 6.78835 8.16875C6.78724 8.63734 6.78675 9.10593 6.78791 9.57452C6.78854 9.83393 6.78834 10.0933 6.78721 10.3527C6.78655 10.5163 6.78689 10.6798 6.78799 10.8434C6.78854 10.9695 6.78754 11.0956 6.78678 11.2216C6.78738 11.2664 6.78798 11.3111 6.7886 11.3572C6.78512 11.6289 6.7357 11.8014 6.58084 12.0261C6.48372 12.167 6.42402 12.3238 6.3598 12.4821C6.28331 12.6571 6.18448 12.7691 6.04636 12.8999C4.85897 14.0714 4.53995 15.9209 4.41408 17.5C4.25864 17.5011 4.10321 17.5018 3.94777 17.5025C3.88119 17.5029 3.88119 17.5029 3.81326 17.5034C3.77109 17.5036 3.72892 17.5037 3.68547 17.5038C3.62686 17.5041 3.62686 17.5041 3.56707 17.5044C3.47658 17.5 3.47658 17.5 3.43752 17.4609C3.43366 17.3818 3.43261 17.3025 3.4326 17.2232C3.43254 17.198 3.43249 17.1728 3.43243 17.1468C3.43228 17.0612 3.43242 16.9756 3.43256 16.89C3.43251 16.8285 3.43245 16.7669 3.43237 16.7054C3.43221 16.5354 3.43229 16.3654 3.43241 16.1954C3.4325 16.0125 3.43236 15.8295 3.43225 15.6465C3.43208 15.2877 3.43212 14.9289 3.43223 14.5701C3.43232 14.2787 3.43233 13.9872 3.43229 13.6957C3.43228 13.6543 3.43228 13.6129 3.43227 13.5703C3.43226 13.4862 3.43224 13.4021 3.43223 13.318C3.43212 12.5286 3.43225 11.7392 3.43246 10.9497C3.43263 10.2715 3.4326 9.59336 3.43242 8.91519C3.43221 8.12867 3.43213 7.34216 3.43225 6.55564C3.43226 6.47186 3.43228 6.38807 3.43229 6.30429C3.43229 6.26306 3.4323 6.22183 3.43231 6.17935C3.43234 5.88806 3.43228 5.59677 3.43219 5.30548C3.43208 4.95076 3.43211 4.59603 3.43232 4.24131C3.43242 4.06013 3.43246 3.87896 3.43233 3.69779C3.43222 3.53222 3.43228 3.36664 3.43249 3.20107C3.43253 3.1409 3.43251 3.08073 3.43242 3.02056C3.4323 2.93931 3.43242 2.85806 3.4326 2.77681C3.43261 2.73152 3.43261 2.68623 3.43262 2.63956C3.44138 2.45973 3.5245 2.4951 3.68431 2.49499Z" fill="#8BC9FE"/>
<path d="M2.9613 -0.00526305C2.98861 -0.00536664 3.01593 -0.00547023 3.04407 -0.00557695C3.13629 -0.00587794 3.2285 -0.00589932 3.32071 -0.00592265C3.38722 -0.00607944 3.45373 -0.0062528 3.52023 -0.00644139C3.70353 -0.00690936 3.88683 -0.00712956 4.07013 -0.00730784C4.2676 -0.00754028 4.46507 -0.00799383 4.66255 -0.00841293C5.13965 -0.00937129 5.61676 -0.00994228 6.09387 -0.0104465C6.22855 -0.0105915 6.36323 -0.0107467 6.49791 -0.0109056C7.33372 -0.0118912 8.16954 -0.0127529 9.00535 -0.0132388C9.19899 -0.0133532 9.39263 -0.0134689 9.58627 -0.0135866C9.6344 -0.0136158 9.68252 -0.0136449 9.73211 -0.0136749C10.5124 -0.0141696 11.2926 -0.0154678 12.0729 -0.0170945C12.8734 -0.0187497 13.6739 -0.0196719 14.4744 -0.0198763C14.9241 -0.0200098 15.3738 -0.0204712 15.8235 -0.0217553C16.2063 -0.0228467 16.5892 -0.0232798 16.972 -0.0228414C17.1674 -0.0226382 17.3629 -0.0227555 17.5583 -0.023719C17.7371 -0.0245931 17.9159 -0.0245722 18.0946 -0.0238282C18.1594 -0.0237182 18.2242 -0.023941 18.289 -0.024524C18.3769 -0.0252667 18.4647 -0.0248125 18.5526 -0.0240528C18.6015 -0.0241058 18.6504 -0.0241588 18.7007 -0.0242134C18.863 0.00671082 18.9203 0.0694857 19.0236 0.195402C19.0852 0.318678 19.0682 0.450933 19.0679 0.586292C19.068 0.619156 19.0681 0.65202 19.0682 0.68588C19.0684 0.797207 19.0684 0.908533 19.0684 1.01986C19.0685 1.1 19.0687 1.18014 19.0688 1.26028C19.0692 1.48145 19.0694 1.70262 19.0695 1.92378C19.0696 2.16195 19.07 2.40011 19.0704 2.63827C19.0711 3.18667 19.0715 3.73506 19.0718 4.28346C19.072 4.55435 19.0722 4.82524 19.0724 5.09613C19.0731 6.02306 19.0737 6.94999 19.074 7.87692C19.074 7.93513 19.074 7.99334 19.074 8.05155C19.074 8.08042 19.074 8.10928 19.074 8.13903C19.0741 8.28529 19.0741 8.43155 19.0742 8.57782C19.0742 8.60684 19.0742 8.63587 19.0742 8.66578C19.0745 9.60713 19.0754 10.5485 19.0767 11.4898C19.0781 12.4846 19.0788 13.4794 19.079 14.4742C19.079 14.5834 19.079 14.6926 19.079 14.8017C19.079 14.8286 19.079 14.8555 19.079 14.8832C19.0791 15.3162 19.0797 15.7491 19.0805 16.1821C19.0813 16.6171 19.0815 17.0522 19.0812 17.4872C19.081 17.723 19.0811 17.9588 19.0818 18.1946C19.0825 18.4103 19.0825 18.626 19.0819 18.8417C19.0818 18.9198 19.0819 18.998 19.0824 19.0762C19.083 19.1822 19.0826 19.2882 19.082 19.3942C19.0824 19.4248 19.0828 19.4554 19.0832 19.4869C19.0806 19.6892 19.0351 19.8055 18.9064 19.961C18.7929 20.0178 18.6941 20.0051 18.5673 20.0052C18.54 20.0053 18.5127 20.0054 18.4846 20.0055C18.3923 20.0057 18.3 20.0056 18.2077 20.0056C18.1413 20.0057 18.0748 20.0058 18.0083 20.0059C17.8249 20.0062 17.6416 20.0063 17.4582 20.0063C17.2607 20.0064 17.0632 20.0067 16.8657 20.007C16.4335 20.0075 16.0013 20.0077 15.5691 20.0079C15.2994 20.008 15.0298 20.0082 14.7601 20.0084C14.0139 20.0088 13.2678 20.0092 12.5216 20.0094C12.4499 20.0094 12.4499 20.0094 12.3768 20.0094C12.305 20.0094 12.305 20.0094 12.2317 20.0094C12.1346 20.0094 12.0375 20.0095 11.9404 20.0095C11.8923 20.0095 11.8441 20.0095 11.7945 20.0095C11.014 20.0097 10.2335 20.0103 9.45297 20.0112C8.65229 20.0122 7.85161 20.0127 7.05093 20.0127C6.60111 20.0127 6.15129 20.013 5.70147 20.0137C5.31848 20.0143 4.9355 20.0145 4.55252 20.0142C4.35701 20.014 4.1615 20.014 3.96599 20.0146C3.78713 20.0151 3.60828 20.015 3.42941 20.0146C3.36459 20.0145 3.29977 20.0146 3.23494 20.0149C3.14703 20.0154 3.05915 20.0151 2.97124 20.0146C2.8979 20.0147 2.8979 20.0147 2.82308 20.0147C2.68341 19.9987 2.61128 19.9676 2.50016 19.8829C2.41041 19.7483 2.4128 19.6989 2.41441 19.5406C2.4146 19.5013 2.4148 19.4619 2.415 19.4214C2.41571 19.3715 2.41642 19.3215 2.41715 19.2701C2.41804 19.1868 2.4189 19.1035 2.41973 19.0202C2.42016 18.9769 2.4206 18.9336 2.42104 18.889C2.42137 18.8561 2.4217 18.8231 2.42204 18.7892C3.34792 18.7598 4.27282 18.7441 5.19915 18.744C5.36709 18.7439 5.53504 18.7436 5.70298 18.7433C5.99207 18.7429 6.28117 18.7426 6.57026 18.7423C7.02722 18.7419 7.48419 18.7411 7.94115 18.7402C8.09828 18.7399 8.2554 18.7397 8.41253 18.7394C8.45176 18.7393 8.49098 18.7392 8.53139 18.7391C8.97468 18.7383 9.41798 18.7376 9.86127 18.7369C9.90166 18.7368 9.94205 18.7368 9.98366 18.7367C10.6421 18.7357 11.3006 18.7349 11.9591 18.7343C12.6376 18.7336 13.316 18.7325 13.9945 18.731C14.4119 18.7301 14.8294 18.7295 15.2468 18.7294C15.5318 18.7294 15.8167 18.7289 16.1017 18.728C16.2661 18.7275 16.4305 18.7273 16.595 18.7275C16.7453 18.7277 16.8955 18.7274 17.0458 18.7266C17.1003 18.7264 17.1549 18.7265 17.2094 18.7267C17.2831 18.727 17.3569 18.7265 17.4307 18.7259C17.4717 18.7259 17.5128 18.7258 17.5551 18.7258C17.6554 18.7176 17.6554 18.7176 17.7282 18.6692C17.7972 18.5547 17.7897 18.4411 17.7883 18.3113C17.7885 18.2822 17.7887 18.2531 17.7889 18.2231C17.7893 18.1247 17.7889 18.0264 17.7885 17.928C17.7886 17.8571 17.7888 17.7862 17.789 17.7153C17.7895 17.5198 17.7893 17.3243 17.7889 17.1289C17.7887 16.9183 17.7891 16.7077 17.7894 16.4972C17.7899 16.0844 17.7898 15.6717 17.7895 15.2589C17.7892 14.9236 17.7892 14.5882 17.7893 14.2529C17.7893 14.2053 17.7893 14.1576 17.7893 14.1085C17.7894 14.0117 17.7894 13.9149 17.7894 13.8181C17.7898 12.9096 17.7894 12.0012 17.7888 11.0927C17.7882 10.3125 17.7883 9.53225 17.7889 8.75203C17.7895 7.84689 17.7897 6.94175 17.7894 6.0366C17.7894 5.94016 17.7893 5.84372 17.7893 5.74727C17.7893 5.67609 17.7893 5.67609 17.7892 5.60346C17.7891 5.26838 17.7893 4.93329 17.7896 4.5982C17.7899 4.19007 17.7898 3.78194 17.7892 3.37381C17.7889 3.16541 17.7888 2.95702 17.7891 2.74862C17.7895 2.55808 17.7893 2.36755 17.7887 2.17701C17.7885 2.10785 17.7886 2.03869 17.7889 1.96953C17.7893 1.87596 17.7889 1.78242 17.7883 1.68886C17.7886 1.66162 17.7889 1.63439 17.7892 1.60633C17.7879 1.50028 17.7836 1.42292 17.7282 1.33102C17.6262 1.27154 17.5485 1.27438 17.4307 1.27423C17.3833 1.27389 17.3359 1.27354 17.2871 1.27318C17.2343 1.27339 17.1814 1.27361 17.1286 1.27384C17.0726 1.27365 17.0167 1.27342 16.9607 1.27314C16.8065 1.27251 16.6524 1.27261 16.4982 1.27282C16.332 1.27292 16.1659 1.27236 15.9997 1.27187C15.7113 1.27111 15.4229 1.27077 15.1345 1.27072C14.716 1.27064 14.2974 1.26988 13.8789 1.26895C13.1978 1.26745 12.5167 1.26644 11.8356 1.26577C11.1775 1.26512 10.5194 1.26433 9.86127 1.26329C9.82093 1.26322 9.78059 1.26316 9.73902 1.26309C9.29686 1.26239 8.8547 1.26163 8.41253 1.26082C8.35388 1.26071 8.35388 1.26071 8.29405 1.2606C8.13753 1.26031 7.981 1.26002 7.82448 1.25973C7.3694 1.25887 6.91431 1.25817 6.45923 1.25778C6.17239 1.25752 5.88555 1.25715 5.59872 1.25668C5.43414 1.25642 5.26957 1.25622 5.10499 1.25619C4.21009 1.25599 3.3165 1.23939 2.42204 1.21103C2.42138 1.17839 2.42073 1.14575 2.42005 1.11213C2.41918 1.06929 2.41832 1.02645 2.41742 0.982309C2.41657 0.939853 2.41571 0.897397 2.41483 0.853655C2.4129 0.764376 2.41054 0.675107 2.40796 0.585845C2.40757 0.546679 2.40718 0.507513 2.40678 0.467161C2.40596 0.427271 2.40514 0.387381 2.4043 0.346282C2.42681 0.204335 2.47821 0.140485 2.57829 0.0391516C2.7136 -0.00595223 2.81848 -0.00499692 2.9613 -0.00526305Z" fill="#E9AD8D"/>
<path d="M1.51637 -0.00758916C1.55002 -0.00747861 1.58367 -0.00736807 1.61834 -0.00725418C1.72581 -0.00681689 1.83326 -0.00583629 1.94072 -0.00484258C2.01358 -0.00445075 2.08644 -0.00409428 2.1593 -0.00377446C2.33791 -0.0029131 2.51651 -0.00156447 2.69512 4.02378e-05C2.66369 0.0242102 2.63227 0.0483801 2.5999 0.0732824C2.49829 0.146198 2.49829 0.146198 2.46074 0.234415C2.45475 0.308037 2.45099 0.381848 2.44838 0.455668C2.44689 0.495126 2.4454 0.534585 2.44387 0.575239C2.44219 0.625512 2.4405 0.675784 2.43877 0.727579C2.43313 0.887101 2.42749 1.04662 2.42168 1.21098C2.89863 1.21098 3.37558 1.21098 3.86699 1.21098C3.81543 1.24965 3.76387 1.28832 3.71074 1.32817C3.68553 1.44887 3.68553 1.44887 3.68694 1.58741C3.68568 1.63814 3.68442 1.68888 3.68312 1.74114C3.68255 1.79473 3.68199 1.84831 3.68144 1.9019C3.68034 1.95594 3.67917 2.00998 3.67793 2.06402C3.67517 2.19634 3.67311 2.32864 3.67168 2.46098C3.60722 2.48676 3.54277 2.51254 3.47637 2.5391C3.47637 7.46332 3.47637 12.3875 3.47637 17.461C3.54082 17.4868 3.60527 17.5125 3.67168 17.5391C3.67204 17.5728 3.67241 17.6065 3.67278 17.6412C3.6745 17.7664 3.67691 17.8915 3.67978 18.0167C3.68089 18.0708 3.68171 18.1249 3.68226 18.1791C3.6831 18.257 3.685 18.3348 3.68694 18.4127C3.68816 18.4829 3.68816 18.4829 3.68942 18.5546C3.70067 18.692 3.70067 18.692 3.86699 18.7891C3.39004 18.7891 2.91308 18.7891 2.42168 18.7891C2.42772 19.026 2.42772 19.026 2.43388 19.2676C2.43534 19.342 2.43534 19.342 2.43683 19.4178C2.43877 19.4767 2.43877 19.4767 2.44075 19.5368C2.44177 19.5769 2.4428 19.617 2.44385 19.6583C2.46306 19.7804 2.49391 19.8327 2.57793 19.9219C2.6166 19.9477 2.65527 19.9735 2.69512 20C2.48173 20.0039 2.26837 20.0067 2.05496 20.0086C1.9824 20.0094 1.90985 20.0105 1.83729 20.0118C1.73286 20.0137 1.62845 20.0146 1.524 20.0153C1.49169 20.0161 1.45937 20.0169 1.42608 20.0177C1.26989 20.0178 1.19068 20.0117 1.05444 19.9283C0.911254 19.7733 0.931723 19.608 0.932169 19.4089C0.932089 19.376 0.932009 19.3431 0.931926 19.3092C0.931704 19.1979 0.931762 19.0866 0.931817 18.9753C0.931716 18.8951 0.931598 18.8149 0.931465 18.7347C0.931149 18.5135 0.93108 18.2924 0.931051 18.0712C0.930979 17.833 0.930684 17.5948 0.930421 17.3566C0.929862 16.8082 0.929635 16.2598 0.929456 15.7114C0.929365 15.4406 0.929224 15.1697 0.929078 14.8988C0.928576 13.9719 0.928158 13.0449 0.928023 12.118C0.928014 12.0598 0.928006 12.0016 0.927997 11.9434C0.927988 11.885 0.92798 11.8267 0.927971 11.7684C0.927954 11.6513 0.927936 11.5343 0.927919 11.4172C0.927914 11.3882 0.92791 11.3592 0.927906 11.3293C0.927764 10.3879 0.927142 9.44655 0.926232 8.50519C0.925271 7.51033 0.924735 6.51548 0.924688 5.52062C0.924681 5.41147 0.924673 5.30232 0.924663 5.19317C0.924661 5.1663 0.924659 5.13942 0.924657 5.11173C0.924612 4.67871 0.924181 4.2457 0.923613 3.81268C0.923053 3.37769 0.922935 2.9427 0.92324 2.50771C0.923393 2.27193 0.923354 2.03616 0.922808 1.80038C0.922313 1.58473 0.922354 1.36908 0.922831 1.15343C0.922908 1.07523 0.922785 0.997027 0.922446 0.918825C0.922017 0.812871 0.922303 0.706943 0.922774 0.60099C0.922477 0.570327 0.922181 0.539664 0.921875 0.508072C0.923578 0.331793 0.9441 0.217523 1.05449 0.0781652C1.20812 -0.0242578 1.33833 -0.00978341 1.51637 -0.00758916Z" fill="#E39B74"/>
<path d="M3.54653 2.49536C3.57697 2.49545 3.60742 2.49553 3.63879 2.49562C3.6904 2.49563 3.6904 2.49563 3.74305 2.49563C3.78045 2.49583 3.81784 2.49604 3.85637 2.49624C3.91351 2.49633 3.91351 2.49633 3.97181 2.49641C4.094 2.49663 4.2162 2.49712 4.33839 2.49762C4.42102 2.49781 4.50365 2.49799 4.58627 2.49815C4.78929 2.49858 4.99231 2.49924 5.19533 2.50006C5.20249 3.98099 5.20799 5.46191 5.21129 6.94285C5.21168 7.11798 5.21208 7.2931 5.21249 7.46823C5.21258 7.50309 5.21266 7.53795 5.21274 7.57387C5.2141 8.1372 5.21656 8.70052 5.21944 9.26384C5.22237 9.84254 5.2241 10.4212 5.22473 10.9999C5.22516 11.3566 5.2265 11.7132 5.22905 12.0698C5.23071 12.3149 5.2312 12.56 5.2308 12.8051C5.2306 12.9461 5.23089 13.0872 5.23258 13.2282C5.23945 13.8302 5.22039 14.319 4.92024 14.8501C4.58094 15.5019 4.52191 16.3406 4.46117 17.0595C4.4479 17.2066 4.43089 17.3533 4.41408 17.5001C4.25864 17.5012 4.10321 17.5019 3.94777 17.5025C3.88119 17.503 3.88119 17.503 3.81326 17.5035C3.77109 17.5036 3.72892 17.5037 3.68547 17.5039C3.62686 17.5042 3.62686 17.5042 3.56707 17.5045C3.47658 17.5001 3.47658 17.5001 3.43752 17.461C3.43366 17.3818 3.43261 17.3025 3.4326 17.2233C3.43254 17.198 3.43249 17.1728 3.43243 17.1468C3.43228 17.0612 3.43242 16.9757 3.43256 16.8901C3.43251 16.8285 3.43245 16.767 3.43237 16.7054C3.43221 16.5354 3.43229 16.3655 3.43241 16.1955C3.4325 16.0125 3.43236 15.8295 3.43225 15.6465C3.43208 15.2877 3.43212 14.929 3.43223 14.5702C3.43232 14.2787 3.43233 13.9872 3.43229 13.6958C3.43228 13.6544 3.43228 13.613 3.43227 13.5703C3.43226 13.4863 3.43224 13.4022 3.43223 13.3181C3.43212 12.5286 3.43225 11.7392 3.43246 10.9498C3.43263 10.2716 3.4326 9.59341 3.43242 8.91524C3.43221 8.12872 3.43213 7.3422 3.43225 6.55568C3.43226 6.4719 3.43228 6.38812 3.43229 6.30433C3.43229 6.26311 3.4323 6.22188 3.43231 6.1794C3.43234 5.88811 3.43228 5.59682 3.43219 5.30553C3.43208 4.9508 3.43211 4.59608 3.43232 4.24135C3.43242 4.06018 3.43246 3.87901 3.43233 3.69784C3.43222 3.53226 3.43228 3.36669 3.43249 3.20111C3.43253 3.14094 3.43251 3.08077 3.43242 3.0206C3.4323 2.93935 3.43242 2.85811 3.4326 2.77686C3.43261 2.73157 3.43261 2.68627 3.43262 2.63961C3.4393 2.50256 3.4393 2.50256 3.54653 2.49536Z" fill="#60B9FD"/>
<path d="M10.42 5.2541C10.8479 5.53544 11.1499 5.92336 11.2718 6.42401C11.3083 6.63633 11.3036 6.8522 11.3058 7.0671C11.3066 7.12174 11.3074 7.17638 11.3083 7.23102C11.3109 7.4095 11.3127 7.58797 11.3143 7.76646C11.3148 7.81218 11.3148 7.81218 11.3152 7.85883C11.3178 8.14685 11.3201 8.43488 11.3216 8.72291C11.3235 9.0898 11.3271 9.45659 11.3331 9.82344C11.3371 10.0823 11.3392 10.3411 11.3398 10.5999C11.3403 10.7542 11.3415 10.9083 11.3449 11.0625C11.3673 12.1231 11.3673 12.1231 11.1159 12.4056C11.0314 12.4834 10.9449 12.5503 10.8483 12.6122C10.7764 12.6592 10.7114 12.7109 10.6454 12.7658C10.099 13.2182 9.53759 13.556 8.80916 13.5328C8.48793 13.4925 8.26033 13.3414 8.06254 13.0886C7.79698 12.6976 7.85488 12.1824 7.93437 11.7357C8.02929 11.3197 8.14161 10.8845 8.44997 10.5754C8.68864 10.3284 8.7501 10.0902 8.77177 9.75575C8.77505 9.7064 8.77832 9.65705 8.78169 9.60621C8.78524 9.54971 8.78524 9.54971 8.78886 9.49207C8.75435 9.47742 8.75435 9.47742 8.71913 9.46247C8.41522 9.29202 8.26983 8.90715 8.16386 8.59364C8.13114 8.45457 8.11936 8.32489 8.11789 8.18217C8.11713 8.11857 8.11713 8.11857 8.11637 8.0537C8.11608 8.00821 8.11579 7.96271 8.11549 7.91584C8.11502 7.84495 8.11502 7.84495 8.11454 7.77263C8.114 7.67262 8.11358 7.57261 8.11327 7.47259C8.11282 7.37076 8.11202 7.26894 8.11087 7.16711C8.10919 7.01955 8.10857 6.87201 8.10817 6.72444C8.10714 6.65691 8.10714 6.65691 8.1061 6.58802C8.10731 6.12821 8.23509 5.76468 8.55449 5.42958C9.07416 4.93633 9.80659 4.91871 10.42 5.2541Z" fill="#FDDDCF"/>
<path d="M2.67523 1.23484C2.70709 1.23506 2.73895 1.23528 2.77178 1.23551C2.87329 1.23638 2.97474 1.23834 3.07623 1.24033C3.14515 1.24112 3.21407 1.24183 3.28299 1.24247C3.45172 1.24419 3.62041 1.24688 3.78912 1.2501C3.76334 1.27588 3.73756 1.30166 3.711 1.32822C3.69643 1.44579 3.69643 1.44579 3.69482 1.58365C3.69331 1.63451 3.6918 1.68537 3.69025 1.73777C3.68902 1.79168 3.6878 1.8456 3.68659 1.89951C3.68509 1.95373 3.68357 2.00795 3.68201 2.06217C3.67831 2.19512 3.67497 2.32807 3.67194 2.46103C3.60748 2.48682 3.54303 2.5126 3.47662 2.53916C3.47662 7.46338 3.47662 12.3876 3.47662 17.461C3.54108 17.4868 3.60553 17.5126 3.67194 17.5392C3.6731 17.59 3.6731 17.59 3.67428 17.6419C3.67733 17.7676 3.68072 17.8932 3.68433 18.0189C3.68583 18.0733 3.68719 18.1277 3.68842 18.1821C3.6902 18.2602 3.6925 18.3384 3.69482 18.4165C3.69605 18.4636 3.69728 18.5106 3.69854 18.5591C3.69964 18.6769 3.69964 18.6769 3.78912 18.7501C3.58615 18.754 3.3832 18.7568 3.1802 18.7587C3.11117 18.7595 3.04213 18.7605 2.9731 18.7619C2.87381 18.7638 2.77454 18.7647 2.67523 18.7654C2.62902 18.7666 2.62902 18.7666 2.58188 18.7678C2.45224 18.7679 2.36486 18.765 2.25751 18.6888C2.16473 18.5628 2.16587 18.4572 2.1679 18.3066C2.16767 18.2775 2.16744 18.2483 2.16721 18.2183C2.16664 18.1201 2.16718 18.0218 2.16772 17.9236C2.16754 17.8527 2.16729 17.7818 2.16698 17.7108C2.16633 17.5155 2.16665 17.3202 2.16714 17.1249C2.16749 16.9145 2.16694 16.704 2.16651 16.4935C2.16582 16.081 2.16597 15.6686 2.16642 15.2561C2.16677 14.921 2.16682 14.5859 2.16665 14.2507C2.16663 14.2031 2.16661 14.1555 2.16658 14.1064C2.16653 14.0096 2.16648 13.9129 2.16643 13.8161C2.16598 12.9081 2.1665 12 2.16733 11.092C2.16803 10.3123 2.16791 9.53256 2.16719 8.75284C2.16636 7.84813 2.16603 6.94341 2.16651 6.0387C2.16656 5.94229 2.1666 5.84588 2.16665 5.74947C2.16668 5.70203 2.1667 5.65459 2.16673 5.60571C2.16686 5.27085 2.16663 4.936 2.16627 4.60115C2.16583 4.19326 2.16594 3.78538 2.16678 3.37749C2.16719 3.16924 2.16735 2.96101 2.16683 2.75276C2.16637 2.56231 2.16662 2.37188 2.16745 2.18144C2.16763 2.11236 2.16754 2.04328 2.16716 1.9742C2.16669 1.88063 2.16717 1.78712 2.1679 1.69356C2.16753 1.66644 2.16717 1.63932 2.16679 1.61138C2.1688 1.48333 2.18074 1.4156 2.25751 1.31138C2.38875 1.21818 2.52051 1.23079 2.67523 1.23484Z" fill="#DD8858"/>
<path d="M12.2876 4.69133C12.6163 4.97545 12.862 5.28799 13.0762 5.66407C13.0904 5.68908 13.1047 5.71408 13.1194 5.73984C13.5697 6.55723 13.6693 7.45336 13.6626 8.37083C13.6626 8.46521 13.6628 8.55959 13.663 8.65397C13.6631 8.84945 13.6625 9.04491 13.6612 9.24038C13.6597 9.49069 13.66 9.74095 13.661 9.99126C13.6616 10.1851 13.6612 10.379 13.6605 10.5728C13.6602 10.6652 13.6603 10.7576 13.6606 10.8499C13.6609 10.9783 13.66 11.1067 13.6587 11.2351C13.6592 11.2918 13.6592 11.2918 13.6597 11.3496C13.6568 11.5201 13.6507 11.6417 13.5425 11.7783C13.4581 11.8561 13.3989 11.9102 13.2948 11.9535C13.2684 11.9649 13.2421 11.9762 13.2149 11.9879C13.187 11.9991 13.1591 12.0104 13.1303 12.022C13.0863 12.0405 13.0863 12.0405 13.0415 12.0595C12.9483 12.0987 12.8548 12.137 12.7612 12.1753C12.6989 12.2014 12.6365 12.2276 12.5742 12.2538C11.7165 12.6132 11.7165 12.6132 11.4844 12.5781C11.3589 12.4854 11.299 12.4271 11.2646 12.2736C11.2503 12.1507 11.2455 12.033 11.2461 11.9093C11.2463 11.8387 11.2463 11.8387 11.2464 11.7667C11.2468 11.7155 11.2471 11.6644 11.2474 11.6117C11.2476 11.5569 11.2478 11.502 11.248 11.4472C11.2484 11.3294 11.2489 11.2117 11.2495 11.0939C11.2504 10.9074 11.2509 10.7208 11.2513 10.5343C11.2526 10.004 11.2542 9.47363 11.2567 8.9433C11.258 8.6502 11.259 8.35709 11.2594 8.06398C11.2598 7.87886 11.2606 7.69375 11.2618 7.50863C11.2624 7.39304 11.2625 7.27745 11.2625 7.16185C11.2627 7.08337 11.2634 7.00489 11.2641 6.92642C11.2629 6.36459 11.1078 5.93115 10.722 5.52079C10.3542 5.1755 9.91743 5.05554 9.42078 5.06624C9.23995 5.0836 9.07562 5.13109 8.90625 5.19532C9.13851 4.65543 9.84014 4.30919 10.3516 4.10157C10.3789 4.08732 10.4061 4.07307 10.4343 4.05839C11.0079 3.79321 11.8631 4.34387 12.2876 4.69133Z" fill="#5895B7"/>
<path d="M9.7267 3.94009C9.77101 3.94004 9.81532 3.93999 9.86097 3.93994C9.9069 3.94009 9.95282 3.94024 10.0001 3.9404C10.069 3.94017 10.069 3.94017 10.1393 3.93994C10.2058 3.94002 10.2058 3.94002 10.2736 3.94009C10.334 3.94016 10.334 3.94016 10.3956 3.94023C10.5023 3.94503 10.5994 3.96031 10.7033 3.98434C10.5861 4.06244 10.4837 4.10277 10.3517 4.15036C9.78768 4.36507 9.361 4.68382 8.94545 5.11716C8.76959 5.2973 8.76959 5.2973 8.68574 5.36267C8.41259 5.57678 8.22918 5.86772 8.1642 6.21091C8.15208 6.37335 8.15139 6.53542 8.15107 6.69827C8.15081 6.74524 8.15055 6.7922 8.15028 6.84058C8.14989 6.9398 8.14971 7.03902 8.14972 7.13824C8.14955 7.28869 8.14813 7.4391 8.14665 7.58954C8.14642 7.68633 8.14626 7.78312 8.14619 7.87991C8.14563 7.92428 8.14507 7.96865 8.14449 8.01437C8.14708 8.47721 8.26665 8.92675 8.55482 9.29684C8.62049 9.34524 8.62049 9.34524 8.68666 9.38474C8.8138 9.51794 8.80816 9.57265 8.81361 9.75339C8.79723 10.0942 8.73376 10.3461 8.47914 10.581C8.2844 10.7617 8.20838 10.9624 8.12513 11.2109C8.11068 11.2533 8.09623 11.2956 8.08134 11.3392C7.99603 11.6114 7.95306 11.8756 7.92704 12.1584C7.90248 12.3878 7.84382 12.598 7.77357 12.8174C7.45698 13.8114 7.5258 14.844 7.99818 15.7763C8.04008 15.8563 8.08229 15.9361 8.12513 16.0156C8.13802 16.0414 8.15091 16.0672 8.1642 16.0937C7.98491 16.0976 7.80564 16.1004 7.62632 16.1023C7.5654 16.1031 7.50448 16.1041 7.44356 16.1055C7.3557 16.1074 7.26788 16.1083 7.18 16.109C7.13952 16.1102 7.13952 16.1102 7.09822 16.1114C6.90139 16.1115 6.79274 16.0598 6.64076 15.9375C6.12471 15.3021 6.0065 14.3461 6.05482 13.5547C6.11493 12.9766 6.29153 12.1461 6.71888 11.7187C6.72277 11.6554 6.72392 11.5919 6.72401 11.5284C6.72417 11.4872 6.72432 11.446 6.72449 11.4035C6.72447 11.3579 6.72444 11.3122 6.72442 11.2652C6.72456 11.2174 6.72469 11.1697 6.72483 11.1205C6.72512 11.0162 6.72534 10.912 6.72547 10.8077C6.7257 10.6423 6.72635 10.4769 6.72709 10.3115C6.72733 10.2548 6.72758 10.1981 6.72783 10.1414C6.72795 10.113 6.72807 10.0846 6.7282 10.0553C6.72984 9.6702 6.73113 9.28508 6.73161 8.89995C6.73194 8.64033 6.73283 8.38072 6.73432 8.1211C6.73509 7.98393 6.73558 7.84676 6.73538 7.70959C6.73382 6.3727 6.73382 6.3727 7.06068 5.76901C7.07416 5.74327 7.08764 5.71753 7.10153 5.69101C7.40753 5.12102 7.83071 4.65175 8.39857 4.33591C8.43024 4.31793 8.46192 4.29995 8.49455 4.28143C8.87105 4.08011 9.29788 3.94056 9.7267 3.94009Z" fill="#477B9E"/>
<path d="M14.1472 12.9023C15.082 13.7755 15.414 15.3389 15.5005 16.5503C15.5086 16.8668 15.5078 17.1835 15.5078 17.5C14.1156 17.5 12.7234 17.5 11.2891 17.5C11.3347 16.7238 11.3347 16.7238 11.377 16.4747C11.382 16.4444 11.387 16.4141 11.3922 16.3829C11.6047 15.153 11.9821 13.8432 13.0469 13.086C13.3453 12.902 13.817 12.7048 14.1472 12.9023Z" fill="#5895B7"/>
<path d="M8.1642 10.8203C8.20521 10.9451 8.20106 11.0158 8.15855 11.1394C8.14825 11.1707 8.13795 11.202 8.12735 11.2343C8.11614 11.2677 8.10494 11.3011 8.09339 11.3354C8.0127 11.5875 7.95123 11.8259 7.92982 12.0898C7.90862 12.3449 7.8516 12.5738 7.77357 12.8174C7.45698 13.8115 7.52581 14.844 7.99818 15.7764C8.04008 15.8563 8.08229 15.9362 8.12513 16.0156C8.13802 16.0414 8.15091 16.0672 8.1642 16.0938C7.98491 16.0976 7.80564 16.1005 7.62632 16.1023C7.5654 16.1031 7.50448 16.1042 7.44356 16.1055C7.3557 16.1074 7.26788 16.1083 7.18 16.109C7.13952 16.1102 7.13952 16.1102 7.09822 16.1115C6.90139 16.1115 6.79274 16.0598 6.64076 15.9375C6.12471 15.3021 6.0065 14.3461 6.05482 13.5547C6.09817 13.1379 6.21226 12.7321 6.36732 12.3438C6.377 12.3186 6.38668 12.2934 6.39665 12.2675C6.57094 11.8317 6.80743 11.6373 7.21388 11.4179C7.3829 11.3236 7.54467 11.2176 7.70765 11.1133C7.77015 11.0738 7.83266 11.0343 7.89518 10.9949C7.98567 10.9377 8.07512 10.8797 8.1642 10.8203Z" fill="#3F6D8E"/>
<path d="M10.3908 5.23436C10.7687 5.46474 11.0492 5.80075 11.2111 6.21092C11.244 6.34921 11.2554 6.47807 11.2564 6.62005C11.2568 6.66191 11.2572 6.70377 11.2576 6.74691C11.2577 6.79179 11.2579 6.83667 11.2581 6.88292C11.2583 6.92949 11.2585 6.97607 11.2588 7.02406C11.2591 7.12256 11.2594 7.22106 11.2595 7.31957C11.2599 7.46959 11.2611 7.61959 11.2624 7.76961C11.2626 7.86548 11.2628 7.96136 11.263 8.05723C11.2634 8.1018 11.2639 8.14637 11.2644 8.19229C11.2632 8.63956 11.144 8.98446 10.8473 9.32127C10.8127 9.35189 10.778 9.3825 10.7423 9.41405C10.7181 9.4356 10.6938 9.45715 10.6688 9.47935C10.6423 9.50131 10.6158 9.52326 10.5885 9.54588C10.5517 9.57655 10.5517 9.57655 10.5142 9.60783C10.3921 9.66656 10.3238 9.64784 10.1955 9.60936C9.84883 9.37115 9.60152 9.03928 9.49234 8.6328C9.44578 8.3784 9.44561 8.12598 9.44397 7.86787C9.44365 7.82063 9.44334 7.77339 9.44301 7.72472C9.44247 7.62501 9.44205 7.5253 9.44174 7.42559C9.44129 7.32403 9.44049 7.22246 9.43934 7.12091C9.43767 6.97357 9.43704 6.82626 9.43664 6.67891C9.43596 6.63393 9.43527 6.58896 9.43457 6.54262C9.4357 6.11743 9.55729 5.78515 9.8439 5.46873C10.1577 5.16802 10.1577 5.16802 10.3908 5.23436Z" fill="#FEEDE4"/>
<path d="M8.78909 9.53125C8.81784 9.5449 8.8466 9.55854 8.87622 9.5726C8.91434 9.59038 8.95245 9.60815 8.99173 9.62646C9.02934 9.64414 9.06696 9.66181 9.10571 9.68002C9.31097 9.76451 9.4994 9.7708 9.71927 9.76807C9.74633 9.76789 9.7734 9.76771 9.80128 9.76753C9.86753 9.76708 9.93378 9.76637 10 9.76562C9.94987 10.0816 9.83528 10.2951 9.62832 10.5383C9.1994 11.053 9.08944 11.8102 9.13152 12.4603C9.15917 12.6987 9.24354 12.9143 9.41302 13.0858C9.53594 13.1816 9.6648 13.2524 9.80472 13.3203C9.75031 13.3458 9.69576 13.371 9.64114 13.396C9.5956 13.4171 9.5956 13.4171 9.54913 13.4386C9.24966 13.5571 8.86602 13.5705 8.55639 13.483C8.26695 13.3505 8.08646 13.1473 7.93216 12.8735C7.72719 12.2242 7.96183 11.4118 8.24222 10.8203C8.30615 10.7298 8.37211 10.6538 8.45019 10.5756C8.68223 10.3354 8.74923 10.1007 8.772 9.77539C8.77527 9.72967 8.77855 9.68395 8.78192 9.63684C8.78547 9.58457 8.78547 9.58457 8.78909 9.53125Z" fill="#FDCDBE"/>
<path d="M7.20612 16.103C7.26012 16.1017 7.31416 16.1018 7.36816 16.1029C7.39718 16.1028 7.42619 16.1027 7.45608 16.1025C7.51755 16.1026 7.57902 16.1032 7.64048 16.1043C7.73304 16.1058 7.82537 16.1051 7.91794 16.1041C8.4389 16.1043 8.83 16.2175 9.21371 16.5883C9.46895 16.8684 9.57031 17.1173 9.57031 17.4999C8.64219 17.4999 7.71406 17.4999 6.75781 17.4999C6.75781 16.6584 6.75781 16.6584 6.91406 16.3671C6.93472 16.3271 6.95538 16.2872 6.97666 16.246C7.07031 16.1327 7.07031 16.1327 7.20612 16.103Z" fill="#FEDDCE"/>
<path d="M6.09375 14.6875C6.17188 14.7266 6.17188 14.7266 6.21399 14.8506C6.22941 14.9044 6.24466 14.9583 6.25977 15.0122C6.33423 15.2656 6.42833 15.4947 6.55334 15.7283C6.60156 15.8203 6.60156 15.8203 6.64062 15.9375C6.73716 15.9826 6.73716 15.9826 6.83594 16.0156C6.84883 16.0285 6.86172 16.0414 6.875 16.0547C6.97907 16.0609 7.08225 16.0648 7.18643 16.067C7.23317 16.0683 7.23317 16.0683 7.28085 16.0695C7.38075 16.0721 7.48066 16.0744 7.58057 16.0767C7.64814 16.0783 7.71571 16.0801 7.78328 16.0818C7.94927 16.086 8.11526 16.0899 8.28125 16.0938C8.28125 16.1066 8.28125 16.1195 8.28125 16.1328C7.68184 16.1521 7.68184 16.1521 7.07031 16.1719C6.7871 16.7383 6.79462 16.8397 6.75781 17.5391C5.70078 17.5391 4.64375 17.5391 3.55469 17.5391C3.55469 17.5262 3.55469 17.5133 3.55469 17.5C4.225 17.5 4.89531 17.5 5.58594 17.5C5.58594 17.3195 5.58594 17.1391 5.58594 16.9531C5.60225 16.7433 5.63259 16.5361 5.66406 16.3281C5.66783 16.3018 5.6716 16.2755 5.67549 16.2483C5.75269 15.7168 5.88327 15.183 6.09375 14.6875Z" fill="#5B94B5"/>
<path d="M8.20294 8.71094C8.2653 8.80448 8.31695 8.89499 8.36896 8.99414C8.47082 9.17913 8.59423 9.39486 8.78888 9.49219C8.80883 9.87688 8.81552 10.215 8.55542 10.5203C8.47933 10.5975 8.40135 10.6705 8.32013 10.7422C8.29435 10.768 8.26856 10.7938 8.242 10.8203C8.20294 10.7812 8.20294 10.7812 8.19824 10.698C8.19833 10.6613 8.19842 10.6246 8.19851 10.5868C8.19851 10.5453 8.19851 10.5039 8.19851 10.4612C8.19872 10.4161 8.19892 10.371 8.19912 10.3246C8.19918 10.2787 8.19924 10.2328 8.19929 10.1855C8.19951 10.0382 8.2 9.89093 8.2005 9.74365C8.20069 9.64409 8.20087 9.54453 8.20103 9.44496C8.20146 9.20029 8.20212 8.95561 8.20294 8.71094Z" fill="#5995B7"/>
</g>
<defs>
<clipPath id="clip0_82_13488">
<rect width="20" height="20" fill="white"/>
</clipPath>
</defs>
</svg>
