<svg width="20" height="20" viewBox="0 0 20 20" fill="none" xmlns="http://www.w3.org/2000/svg">
<g clip-path="url(#clip0_82_13472)">
<path d="M9.10893 -0.0062978C9.15585 -0.00649174 9.20278 -0.00668568 9.25112 -0.0068855C9.37915 -0.00735623 9.50717 -0.00764927 9.6352 -0.00782342C9.71556 -0.00793855 9.79592 -0.00809902 9.87628 -0.0082728C10.1288 -0.00880626 10.3813 -0.00918413 10.6338 -0.00933537C10.9232 -0.00950979 11.2126 -0.0101927 11.5021 -0.0113276C11.7271 -0.0121785 11.9521 -0.0125664 12.1771 -0.0126182C12.3108 -0.0126587 12.4446 -0.01288 12.5784 -0.0135877C13.1502 -0.0161632 13.698 -0.0063375 14.2578 0.117184C14.2949 0.125131 14.3319 0.133078 14.3701 0.141266C14.4508 0.159299 14.5299 0.179871 14.6094 0.202633C14.6379 0.210728 14.6664 0.218822 14.6957 0.227162C15.8009 0.556858 16.8918 1.24834 17.6172 2.14843C17.6472 2.18529 17.6773 2.22215 17.7083 2.26013C18.4972 3.24502 19.0649 4.52129 19.068 5.79869C19.0681 5.83998 19.0681 5.83998 19.0683 5.88211C19.0687 5.97342 19.0687 6.06474 19.0688 6.15606C19.069 6.22193 19.0692 6.2878 19.0694 6.35367C19.0699 6.53205 19.0701 6.71044 19.0703 6.88883C19.0704 7.00059 19.0706 7.11236 19.0708 7.22413C19.0713 7.57473 19.0717 7.92534 19.0718 8.27594C19.072 8.67893 19.0727 9.08192 19.0738 9.48491C19.0747 9.79749 19.0751 10.1101 19.0751 10.4227C19.0751 10.6088 19.0754 10.795 19.0761 10.9811C19.0767 11.1567 19.0768 11.3322 19.0765 11.5077C19.0764 11.5715 19.0766 11.6353 19.077 11.6992C19.0802 12.2626 19.0155 12.8159 18.8598 13.3594C18.8518 13.3879 18.8437 13.4164 18.8353 13.4457C18.5718 14.3292 18.0875 15.1377 17.4626 15.8104C17.4363 15.8394 17.4099 15.8685 17.3828 15.8984C17.3558 15.9254 17.3287 15.9524 17.3009 15.9803C17.1994 16.1352 17.2052 16.2536 17.2077 16.4349C17.2075 16.4858 17.2075 16.4858 17.2072 16.5378C17.207 16.6113 17.2071 16.6848 17.2076 16.7583C17.2082 16.8747 17.208 16.9911 17.2074 17.1076C17.2062 17.3967 17.2068 17.6858 17.2072 17.975C17.2075 18.2194 17.2072 18.4638 17.2061 18.7082C17.2058 18.8227 17.2065 18.9373 17.2071 19.0518C17.2069 19.1223 17.2066 19.1927 17.2063 19.2631C17.2068 19.2949 17.2072 19.3266 17.2077 19.3593C17.2055 19.5651 17.1658 19.6795 17.0312 19.8437C16.882 19.9855 16.7624 20.0121 16.5625 20.0195C16.3626 20.0121 16.2429 19.9855 16.0937 19.8437C15.9189 19.6367 15.915 19.4724 15.9173 19.2136C15.9169 19.1546 15.9169 19.1546 15.9164 19.0945C15.9158 18.965 15.9162 18.8356 15.9167 18.7061C15.9166 18.6159 15.9165 18.5257 15.9163 18.4355C15.9161 18.2466 15.9164 18.0578 15.9171 17.8689C15.918 17.6269 15.9175 17.385 15.9166 17.143C15.916 16.9568 15.9162 16.7707 15.9166 16.5845C15.9167 16.4953 15.9166 16.4061 15.9162 16.3168C15.9158 16.1921 15.9164 16.0674 15.9173 15.9427C15.917 15.9059 15.9166 15.8691 15.9163 15.8312C15.9197 15.566 15.977 15.4414 16.1555 15.2444C16.1751 15.2262 16.1947 15.208 16.2149 15.1892C16.2371 15.1681 16.2592 15.147 16.2821 15.1253C16.3053 15.1033 16.3286 15.0813 16.3525 15.0586C17.3265 14.107 17.7519 12.8208 17.7756 11.4772C17.7791 11.1416 17.779 10.8059 17.7787 10.4702C17.7786 10.3228 17.7787 10.1753 17.7787 10.0279C17.7788 9.78047 17.7787 9.53304 17.7785 9.28562C17.7783 9.00124 17.7784 8.71687 17.7786 8.4325C17.7788 8.18652 17.7788 7.94055 17.7787 7.69458C17.7786 7.54846 17.7786 7.40235 17.7787 7.25623C17.7988 6.23058 17.7988 6.23058 17.6684 5.21728C17.6583 5.17115 17.6583 5.17115 17.6479 5.12409C17.4364 4.20895 17.0121 3.45612 16.3672 2.77343C16.3404 2.74413 16.3136 2.71482 16.286 2.68463C15.4008 1.75023 14.1475 1.34265 12.8906 1.28906C12.6192 1.28196 12.3476 1.2826 12.0761 1.2825C11.9983 1.28237 11.9206 1.28224 11.8428 1.2821C11.6805 1.28187 11.5183 1.2818 11.3561 1.28182C11.1506 1.28182 10.9451 1.28129 10.7396 1.28062C10.5791 1.28018 10.4186 1.2801 10.2582 1.28013C10.1825 1.28008 10.1069 1.27991 10.0312 1.2796C8.41584 1.27366 6.99452 1.60638 5.81297 2.76367C5.13818 3.44513 4.7246 4.28553 4.51903 5.21728C4.5128 5.24486 4.50657 5.27244 4.50015 5.30086C4.41469 5.72133 4.4111 6.14955 4.41755 6.57679C4.42029 6.76007 4.42129 6.94335 4.42231 7.12664C4.42331 7.22045 4.42514 7.31424 4.42784 7.40801C4.4469 8.11434 4.32551 8.57784 3.9294 9.16494C3.84751 9.28716 3.77471 9.41298 3.70146 9.54055C3.65424 9.61969 3.60694 9.69879 3.55956 9.77783C3.32343 10.174 3.09095 10.5721 2.86147 10.9721C2.75375 11.1598 2.64557 11.347 2.53417 11.5324C2.51583 11.563 2.4975 11.5937 2.47861 11.6252C2.44535 11.6805 2.41186 11.7357 2.37809 11.7906C2.29799 11.9239 2.25249 12.0349 2.22655 12.1875C2.24805 12.1872 2.26955 12.1868 2.29171 12.1864C2.51603 12.183 2.74035 12.1806 2.96469 12.1789C3.04835 12.1781 3.13201 12.1771 3.21566 12.1757C3.3361 12.1738 3.4565 12.1729 3.57695 12.1722C3.61419 12.1714 3.65143 12.1706 3.6898 12.1698C3.91186 12.1697 4.04717 12.1885 4.21874 12.3437C4.39758 12.5437 4.39743 12.7182 4.39604 12.9735C4.3965 13.0116 4.39697 13.0498 4.39744 13.0891C4.39881 13.2109 4.39917 13.3328 4.3994 13.4546C4.39286 14.7466 4.39286 14.7466 4.99999 15.8594C5.36461 16.2142 5.81568 16.4459 6.3217 16.5005C6.34916 16.5036 6.37661 16.5066 6.4049 16.5097C6.45984 16.5155 6.51486 16.5206 6.56993 16.525C6.7632 16.5445 6.88251 16.5945 7.03124 16.7187C7.16635 16.8903 7.20712 17.0023 7.2077 17.2198C7.20798 17.2454 7.20825 17.271 7.20853 17.2973C7.20922 17.3812 7.20877 17.465 7.20824 17.5488C7.20834 17.6075 7.2085 17.6661 7.20869 17.7248C7.20892 17.8475 7.20859 17.9701 7.20786 18.0928C7.20697 18.2496 7.20748 18.4064 7.20842 18.5633C7.20898 18.6843 7.2088 18.8054 7.2084 18.9264C7.20829 18.9842 7.20842 19.042 7.20878 19.0998C7.20918 19.1808 7.20857 19.2617 7.2077 19.3426C7.20758 19.3886 7.20746 19.4346 7.20733 19.4819C7.17644 19.6803 7.07655 19.8007 6.93358 19.9365C6.73182 20.0302 6.54685 20.0294 6.32811 20C6.13426 19.91 6.03673 19.7969 5.93749 19.6094C5.91651 19.4676 5.91927 19.3279 5.92223 19.1849C5.92245 19.1445 5.92267 19.104 5.9229 19.0624C5.92377 18.9338 5.92573 18.8053 5.92772 18.6768C5.9285 18.5894 5.92922 18.502 5.92986 18.4146C5.93158 18.2009 5.93419 17.9872 5.93749 17.7734C5.90837 17.7685 5.87925 17.7635 5.84924 17.7584C5.81084 17.7516 5.77243 17.7449 5.73287 17.738C5.69488 17.7314 5.6569 17.7248 5.61777 17.718C5.46741 17.687 5.33418 17.635 5.1953 17.5708C5.16862 17.5587 5.14194 17.5465 5.11446 17.5341C4.24527 17.1296 3.62207 16.4394 3.28124 15.5469C3.12476 15.0738 3.10522 14.6348 3.11522 14.1406C3.11601 14.072 3.11672 14.0033 3.11736 13.9346C3.11905 13.7689 3.12173 13.6032 3.12499 13.4375C3.08917 13.4383 3.05335 13.4391 3.01644 13.44C2.88175 13.4427 2.74709 13.4446 2.61239 13.4461C2.55442 13.4469 2.49646 13.4479 2.43851 13.4493C1.99483 13.4595 1.61057 13.4308 1.27074 13.1134C1.0171 12.8313 0.923474 12.5346 0.922838 12.1606C0.921882 12.1318 0.920925 12.1029 0.919939 12.0731C0.917591 11.618 1.1531 11.241 1.37694 10.8594C1.40471 10.8115 1.43245 10.7635 1.46017 10.7156C1.67437 10.3459 1.89241 9.97849 2.11096 9.61139C2.38864 9.14471 2.65973 8.67431 2.92967 8.20312C2.97149 8.14534 2.97149 8.14534 3.01416 8.0864C3.13372 7.87535 3.10713 7.63343 3.10561 7.39791C3.1059 7.34569 3.10627 7.29347 3.10672 7.24124C3.10797 7.07603 3.10796 6.91082 3.1079 6.7456C3.10871 5.17118 3.10871 5.17118 3.3496 4.40918C3.35963 4.37681 3.36966 4.34445 3.37999 4.3111C3.72839 3.21929 4.37529 2.16915 5.27342 1.44531C5.31028 1.41525 5.34714 1.38519 5.38512 1.35421C6.44226 0.507411 7.74906 -0.00494193 9.10893 -0.0062978Z" fill="#694AE1"/>
<path d="M15.3083 4.16965C15.6343 4.36402 15.837 4.63306 15.9376 5.00003C15.9766 5.43362 15.9512 5.80997 15.6739 6.16458C15.4864 6.36536 15.2635 6.48945 15.0001 6.56253C14.925 6.56326 14.8499 6.56384 14.7749 6.56179C14.2822 6.55533 13.9855 6.76747 13.6375 7.09544C13.0147 7.71987 13.0291 8.51371 13.0266 9.34013C13.0271 9.61956 13.0331 9.8988 13.0402 10.1781C13.0482 10.5048 13.0492 10.8314 13.0499 11.1581C13.0513 11.7408 13.0577 12.3233 13.0676 12.9059C13.0772 13.4703 13.0847 14.0347 13.0892 14.5992C13.0894 14.6342 13.0897 14.6691 13.09 14.705C13.0928 15.0523 13.0952 15.3995 13.0976 15.7468C13.0986 15.8818 13.0995 16.0168 13.1005 16.1518C13.101 16.2184 13.1014 16.285 13.1019 16.3516C13.1051 16.806 13.1105 17.2604 13.1173 17.7147C13.1199 17.896 13.1222 18.0772 13.1244 18.2584C13.1265 18.4265 13.1292 18.5945 13.1325 18.7626C13.1348 18.8883 13.136 19.0141 13.1374 19.1398C13.1386 19.1843 13.1397 19.2289 13.1408 19.2748C13.1424 19.5174 13.1326 19.66 12.9688 19.8438C12.8196 19.9855 12.7 20.0121 12.5001 20.0196C12.3002 20.0121 12.1805 19.9855 12.0313 19.8438C11.832 19.6228 11.8531 19.4014 11.8552 19.1142C11.855 19.0637 11.8547 19.0133 11.8545 18.9613C11.8538 18.8216 11.8542 18.6818 11.8546 18.5421C11.855 18.3912 11.8544 18.2404 11.854 18.0896C11.8533 17.7942 11.8535 17.4989 11.8539 17.2035C11.8543 16.9635 11.8543 16.7235 11.8542 16.4834C11.8541 16.4493 11.8541 16.4151 11.8541 16.3799C11.854 16.3105 11.854 16.2411 11.8539 16.1717C11.8535 15.521 11.854 14.8702 11.8548 14.2195C11.8555 13.6611 11.8554 13.1027 11.8547 12.5443C11.8539 11.8959 11.8535 11.2475 11.854 10.5991C11.8541 10.5299 11.8541 10.4608 11.8542 10.3916C11.8542 10.3576 11.8542 10.3236 11.8542 10.2886C11.8544 10.0488 11.8541 9.80904 11.8538 9.56929C11.8533 9.27711 11.8534 8.98495 11.8543 8.69278C11.8547 8.5437 11.8548 8.39463 11.8543 8.24554C11.8538 8.08398 11.8544 7.92244 11.8552 7.76088C11.8549 7.71369 11.8545 7.66651 11.8542 7.61789C11.857 7.31352 11.8946 7.17808 12.1017 6.95566C12.1256 6.9339 12.1494 6.91213 12.1739 6.88971C12.2148 6.85189 12.2148 6.85189 12.2565 6.81331C12.2854 6.7867 12.3144 6.76009 12.3443 6.73267C12.406 6.67424 12.4676 6.61572 12.5291 6.55711C12.6254 6.46569 12.7219 6.37485 12.82 6.28544C13.2597 5.90893 13.2597 5.90893 13.4553 5.3888C13.4561 5.30569 13.4528 5.22461 13.4464 5.14178C13.4299 4.87609 13.5407 4.66568 13.7012 4.46048C14.1035 4.02978 14.7773 3.91482 15.3083 4.16965Z" fill="#7033DC"/>
<path d="M9.05828 4.16957C9.38331 4.36339 9.58873 4.63325 9.68755 4.99995C9.68285 5.07278 9.67805 5.14561 9.67156 5.21829C9.65705 5.47391 9.69966 5.65061 9.86377 5.85088C10.0475 6.05126 10.2466 6.23485 10.4468 6.41841C10.5492 6.5151 10.6511 6.61224 10.7529 6.70948C10.8161 6.76952 10.8797 6.82915 10.9437 6.8883C10.9725 6.91508 11.0013 6.94186 11.031 6.96945C11.0564 6.99278 11.0818 7.01611 11.1079 7.04014C11.2349 7.17741 11.2598 7.29218 11.2601 7.47693C11.2604 7.52009 11.2606 7.56326 11.2609 7.60773C11.2607 7.67885 11.2607 7.67885 11.2605 7.75141C11.2607 7.80178 11.2609 7.85216 11.261 7.90406C11.2615 8.04399 11.2615 8.18392 11.2614 8.32386C11.2614 8.47473 11.2618 8.6256 11.2622 8.77648C11.2628 9.07211 11.2631 9.36774 11.2631 9.66336C11.2631 9.90363 11.2633 10.1439 11.2635 10.3841C11.2642 11.0651 11.2646 11.7461 11.2645 12.427C11.2645 12.4638 11.2645 12.5005 11.2645 12.5383C11.2645 12.5751 11.2645 12.6118 11.2645 12.6497C11.2645 13.2457 11.2652 13.8417 11.2663 14.4376C11.2675 15.0493 11.268 15.661 11.2679 16.2728C11.2679 16.6163 11.2681 16.9598 11.269 17.3033C11.2697 17.5958 11.2698 17.8882 11.2693 18.1807C11.2691 18.3299 11.2691 18.4792 11.2697 18.6284C11.2705 18.7901 11.27 18.9518 11.2694 19.1136C11.2698 19.1608 11.2702 19.2081 11.2706 19.2567C11.2685 19.5034 11.2619 19.6574 11.0938 19.8437C10.9446 19.9854 10.8249 20.0121 10.6251 20.0195C10.4252 20.0121 10.3055 19.9854 10.1563 19.8437C9.96203 19.6257 9.98068 19.4221 9.98766 19.1397C9.9882 19.092 9.98873 19.0443 9.98928 18.9951C9.99056 18.8905 9.99212 18.7859 9.99417 18.6814C9.99751 18.5111 9.99973 18.3409 10.0018 18.1706C10.0041 17.9871 10.0065 17.8036 10.0092 17.6201C10.0161 17.164 10.0207 16.708 10.0239 16.2519C10.0244 16.1849 10.0249 16.118 10.0254 16.0511C10.0263 15.9155 10.0273 15.78 10.0282 15.6445C10.0306 15.296 10.0332 14.9476 10.0359 14.5992C10.0364 14.5467 10.0364 14.5467 10.0368 14.4932C10.0414 13.929 10.0497 13.365 10.0593 12.8008C10.069 12.22 10.0742 11.6393 10.0754 11.0584C10.0762 10.7328 10.0791 10.4076 10.0874 10.0821C10.1851 8.5277 10.1851 8.5277 9.56594 7.17385C9.23093 6.83795 8.92244 6.57677 8.43206 6.55986C8.37802 6.56036 8.32399 6.56128 8.26997 6.56267C7.97539 6.56223 7.73349 6.437 7.5208 6.23836C7.23199 5.91712 7.16482 5.57673 7.17534 5.15575C7.19387 4.82818 7.335 4.55453 7.57818 4.33589C7.99766 4.02044 8.57687 3.93856 9.05828 4.16957Z" fill="#7033DC"/>
<path d="M16.2457 8.23218C16.5717 8.42655 16.7744 8.6956 16.875 9.06256C16.914 9.49615 16.8887 9.8725 16.6113 10.2271C16.4171 10.4351 16.1498 10.6086 15.8603 10.6311C15.7464 10.6337 15.6326 10.6353 15.5187 10.6335C15.3645 10.637 15.2635 10.6538 15.1481 10.7608C15.0047 10.9139 15.0066 11.0537 15.0105 11.2558C15.0102 11.2914 15.01 11.327 15.0097 11.3637C15.0092 11.4828 15.0103 11.6019 15.0114 11.721C15.0113 11.8065 15.0111 11.892 15.0109 11.9775C15.0105 12.1614 15.0109 12.3454 15.0118 12.5293C15.0133 12.8202 15.0131 13.111 15.0126 13.4019C15.0122 13.8096 15.0124 14.2173 15.0133 14.625C15.0134 14.6638 15.0134 14.6638 15.0135 14.7034C15.0137 14.8081 15.0139 14.9129 15.0142 15.0177C15.0148 15.3061 15.0153 15.5945 15.0156 15.8829C15.0157 15.9217 15.0157 15.9217 15.0157 15.9612C15.0163 16.3919 15.0162 16.8227 15.0157 17.2534C15.0154 17.5426 15.016 17.8317 15.0172 18.1209C15.0178 18.3007 15.0178 18.4805 15.0176 18.6604C15.0176 18.7438 15.0179 18.8272 15.0185 18.9106C15.0193 19.0245 15.0191 19.1383 15.0187 19.2521C15.0192 19.2852 15.0196 19.3182 15.0201 19.3523C15.0181 19.561 14.981 19.6775 14.8438 19.8438C14.6946 19.9855 14.5749 20.0122 14.375 20.0196C14.1751 20.0122 14.0555 19.9855 13.9063 19.8438C13.7365 19.6404 13.7277 19.4862 13.7302 19.2329C13.7298 19.1763 13.7298 19.1763 13.7294 19.1187C13.7288 18.9925 13.7293 18.8664 13.7298 18.7403C13.7296 18.6498 13.7293 18.5593 13.729 18.4689C13.7283 18.2232 13.7285 17.9775 13.729 17.7319C13.7294 17.4748 13.7291 17.2178 13.7288 16.9608C13.7285 16.5015 13.729 16.0423 13.7298 15.583C13.7305 15.1667 13.7304 14.7504 13.7296 14.3342C13.7288 13.8506 13.7285 13.367 13.729 12.8834C13.7292 12.6274 13.7292 12.3715 13.7287 12.1156C13.7283 11.875 13.7286 11.6344 13.7295 11.3938C13.7297 11.3055 13.7296 11.2171 13.7293 11.1288C13.7289 11.0083 13.7294 10.8878 13.7302 10.7673C13.7298 10.7322 13.7295 10.6972 13.7291 10.6611C13.7318 10.4476 13.764 10.3256 13.9063 10.1563C13.9796 10.0928 14.0537 10.0301 14.1284 9.96833C14.2932 9.81873 14.3595 9.70279 14.3718 9.47916C14.3726 9.39282 14.3724 9.30653 14.372 9.22019C14.3711 8.9221 14.498 8.67366 14.6991 8.45832C15.1131 8.08614 15.7397 7.98937 16.2457 8.23218Z" fill="#7521D4"/>
<path d="M8.12078 8.23207C8.44421 8.42493 8.65415 8.69601 8.75005 9.06245C8.74919 9.13946 8.74822 9.2165 8.74501 9.29344C8.73879 9.52241 8.74811 9.69789 8.90172 9.87727C8.9899 9.96758 9.08323 10.0499 9.17959 10.1313C9.3011 10.238 9.36459 10.3077 9.38493 10.4688C9.38499 10.4966 9.38504 10.5245 9.3851 10.5531C9.38535 10.5854 9.3856 10.6177 9.38586 10.6509C9.38568 10.7038 9.38568 10.7038 9.3855 10.7578C9.38567 10.7954 9.38585 10.833 9.38603 10.8718C9.38653 10.9981 9.38646 11.1245 9.3864 11.2509C9.38663 11.3413 9.3869 11.4318 9.3872 11.5223C9.38789 11.7682 9.38807 12.0142 9.38812 12.2602C9.38819 12.4655 9.38848 12.6707 9.38876 12.8759C9.38936 13.3323 9.38959 13.7887 9.38954 14.2452C9.38953 14.2726 9.38953 14.3 9.38953 14.3282C9.38953 14.3556 9.38952 14.383 9.38952 14.4113C9.38949 14.8557 9.39023 15.3001 9.39134 15.7445C9.39246 16.2008 9.39298 16.6571 9.39293 17.1135C9.39291 17.3697 9.39313 17.6259 9.39396 17.882C9.39471 18.123 9.39472 18.3639 9.39415 18.6048C9.39407 18.6933 9.39426 18.7817 9.39473 18.8702C9.39533 18.9909 9.39497 19.1115 9.39437 19.2322C9.39477 19.2673 9.39517 19.3024 9.39558 19.3385C9.39322 19.5525 9.36077 19.6737 9.2188 19.8437C9.06961 19.9854 8.94994 20.0121 8.75005 20.0195C8.55016 20.0121 8.43049 19.9854 8.2813 19.8437C8.11662 19.6441 8.10289 19.4995 8.10636 19.252C8.10623 19.2164 8.1061 19.1808 8.10597 19.1441C8.10573 19.025 8.10659 18.9059 8.10745 18.7868C8.10749 18.7013 8.10746 18.6159 8.10736 18.5304C8.10729 18.3464 8.1077 18.1624 8.10846 17.9785C8.10963 17.6876 8.10953 17.3968 8.10921 17.1059C8.10888 16.6982 8.10892 16.2905 8.10945 15.8828C8.10948 15.857 8.10952 15.8311 8.10955 15.8045C8.10993 15.5159 8.11044 15.2274 8.11108 14.9389C8.11132 14.8342 8.11155 14.7296 8.11178 14.6249C8.11183 14.5991 8.11189 14.5733 8.11195 14.5467C8.11287 14.1159 8.11288 13.6852 8.1122 13.2544C8.11179 12.9653 8.11247 12.6761 8.11396 12.3869C8.11464 12.2071 8.11436 12.0273 8.1138 11.8475C8.11373 11.764 8.11408 11.6806 8.11485 11.5972C8.11584 11.4833 8.1154 11.3696 8.11461 11.2557C8.11556 11.2061 8.11556 11.2061 8.11654 11.1555C8.11373 10.9854 8.09525 10.887 7.97666 10.7605C7.83969 10.6338 7.7087 10.6352 7.52935 10.6396C7.15745 10.6327 6.86253 10.5616 6.5833 10.3009C6.29449 9.97962 6.22732 9.63923 6.23784 9.21825C6.25637 8.89068 6.3975 8.61703 6.64068 8.39839C7.06016 8.08294 7.63937 8.00106 8.12078 8.23207Z" fill="#7521D4"/>
</g>
<defs>
<clipPath id="clip0_82_13472">
<rect width="20" height="20" fill="white"/>
</clipPath>
</defs>
</svg>
