<svg width="30" height="30" viewBox="0 0 30 30" fill="none" xmlns="http://www.w3.org/2000/svg">
<g clip-path="url(#clip0_82_14663)">
<path d="M14.3491 4.72226C14.6341 4.9123 14.8697 5.18999 15 5.50779C15.0453 5.73826 15.066 5.95673 15.0661 6.19138C15.0663 6.25649 15.0665 6.3216 15.0667 6.38869C15.0666 6.45962 15.0665 6.53054 15.0664 6.60362C15.0666 6.67944 15.0667 6.75526 15.0668 6.83337C15.0672 7.04345 15.0672 7.25352 15.0671 7.4636C15.0671 7.69031 15.0674 7.91702 15.0677 8.14373C15.0682 8.58775 15.0683 9.03176 15.0684 9.47578C15.0684 9.8367 15.0685 10.1976 15.0687 10.5585C15.0692 11.5819 15.0695 12.6053 15.0695 13.6287C15.0694 13.7115 15.0694 13.7115 15.0694 13.7959C15.0694 13.8511 15.0694 13.9063 15.0694 13.9632C15.0694 14.8584 15.07 15.7536 15.0708 16.6488C15.0716 17.5681 15.072 18.4874 15.072 19.4067C15.072 19.9228 15.0721 20.4388 15.0728 20.9549C15.0733 21.3942 15.0734 21.8336 15.073 22.2729C15.0728 22.497 15.0728 22.7211 15.0733 22.9452C15.0739 23.1883 15.0735 23.4314 15.0731 23.6744C15.0734 23.7451 15.0737 23.8157 15.074 23.8886C15.0715 24.4801 15.0038 24.978 14.5898 25.4297C14.2472 25.6918 13.9098 25.7552 13.4855 25.7558C13.0205 25.6723 12.6824 25.4407 12.3413 25.1257C12.2649 25.0574 12.1885 24.9891 12.112 24.9209C12.0565 24.871 12.0565 24.871 12 24.8202C11.7572 24.6046 11.5025 24.4032 11.25 24.1992C10.8723 23.8924 10.4982 23.582 10.1274 23.267C9.82121 23.0074 9.51072 22.7532 9.19921 22.5C8.82165 22.1931 8.44744 21.8828 8.0766 21.5678C7.77043 21.3081 7.45994 21.054 7.14843 20.8008C6.73525 20.4649 6.32621 20.1247 5.92048 19.7799C5.83222 19.7052 5.83222 19.7052 5.74218 19.6289C5.689 19.5782 5.63583 19.5274 5.58104 19.4752C5.38539 19.3133 5.23368 19.2996 4.97812 19.3001C4.91859 19.2996 4.91859 19.2996 4.85785 19.2991C4.72748 19.2983 4.59721 19.2995 4.46685 19.3007C4.37548 19.3003 4.28412 19.2999 4.19275 19.2992C3.95254 19.2979 3.71236 19.2981 3.47214 19.2989C3.08858 19.3 2.70504 19.2994 2.32148 19.2974C2.18834 19.297 2.05524 19.2978 1.92211 19.2987C1.32253 19.2992 0.797172 19.2675 0.326378 18.8665C0.0272674 18.4878 -0.0345323 18.1412 -0.0312644 17.6672C-0.0317692 17.6075 -0.0322741 17.5477 -0.0327942 17.4862C-0.0341184 17.2899 -0.0337276 17.0937 -0.0331956 16.8974C-0.0335026 16.7602 -0.0338704 16.623 -0.0342962 16.4859C-0.0349052 16.1987 -0.0346395 15.9116 -0.0337821 15.6244C-0.0327758 15.2575 -0.0341511 14.8905 -0.0362131 14.5235C-0.0375033 14.2403 -0.0374157 13.9571 -0.0369301 13.6739C-0.0368823 13.5387 -0.0372816 13.4034 -0.038147 13.2682C-0.039174 13.0786 -0.0383131 12.8891 -0.0369865 12.6995C-0.0376716 12.6443 -0.0383567 12.589 -0.0390625 12.5321C-0.0333492 12.1285 0.0748784 11.8246 0.292961 11.4843C0.430748 11.3523 0.430748 11.3523 0.563957 11.2756C0.608218 11.2489 0.652479 11.2223 0.698082 11.1948C0.942314 11.0709 1.13388 11.0681 1.40477 11.0705C1.49053 11.0711 1.57629 11.0716 1.66205 11.0721C1.7075 11.0725 1.75294 11.0729 1.79976 11.0733C2.04124 11.0748 2.28273 11.0743 2.52422 11.074C2.83116 11.0736 3.13804 11.0739 3.44496 11.0772C3.69329 11.0798 3.9415 11.0798 4.18983 11.0781C4.28404 11.0779 4.37825 11.0787 4.47245 11.0804C4.94274 11.0885 5.3049 11.0902 5.6746 10.7584C5.7569 10.6694 5.83817 10.5795 5.91796 10.4883C5.98494 10.4311 6.0534 10.3755 6.12373 10.3225C6.52838 10.014 6.91759 9.69283 7.30051 9.35769C7.61506 9.08262 7.93666 8.81724 8.26171 8.55466C8.60634 8.27471 8.94869 7.99247 9.2871 7.70505C9.67678 7.37409 10.0723 7.05066 10.469 6.72818C10.7611 6.49016 11.0507 6.24969 11.3379 6.00583C13.4045 4.25334 13.4045 4.25334 14.3491 4.72226Z" fill="#F79831"/>
<path d="M25.3124 3.22255C25.6752 3.46439 25.9242 3.82003 26.1913 4.16005C26.2624 4.24933 26.2624 4.24933 26.3348 4.34041C28.5493 7.14752 29.9946 10.7997 30.0118 14.3982C30.0122 14.4559 30.0127 14.5136 30.0131 14.5731C30.0141 14.7581 30.0145 14.9431 30.0146 15.1281C30.0146 15.1912 30.0147 15.2544 30.0147 15.3195C30.0138 16.2223 29.9944 17.0991 29.8242 17.9882C29.8141 18.0441 29.804 18.1001 29.7937 18.1578C29.2657 21.0679 28.06 23.8316 26.1913 26.1327C26.1475 26.1884 26.1036 26.244 26.0584 26.3014C25.7426 26.6813 25.4472 26.8954 24.9533 26.9725C24.4966 26.9966 24.1263 26.8 23.7787 26.5234C23.4262 26.2011 23.2865 25.8579 23.2397 25.382C23.2559 24.8588 23.5533 24.4426 23.8769 24.0563C24.8785 22.8119 25.5951 21.4213 26.1327 19.9218C26.15 19.8737 26.1672 19.8257 26.1849 19.7762C27.4513 16.1734 27.1023 12.1928 25.4804 8.7659C24.9557 7.69143 24.2903 6.70584 23.5185 5.79518C23.4475 5.71089 23.4475 5.71089 23.3752 5.62489C23.3334 5.57655 23.2916 5.52821 23.2486 5.47841C22.9777 5.09737 22.9842 4.66879 23.0273 4.21864C23.1304 3.82782 23.4172 3.52436 23.7304 3.28114C24.2625 2.98048 24.7573 2.96784 25.3124 3.22255Z" fill="#F79831"/>
<path d="M20.625 7.91023C21.7128 8.59185 22.4542 10.3203 22.8516 11.4845C22.8643 11.5214 22.877 11.5584 22.8901 11.5965C23.8355 14.3981 23.5654 17.4819 22.2828 20.125C21.3725 21.9091 21.3725 21.9091 20.603 22.1925C20.1253 22.3349 19.7727 22.2526 19.3359 22.0313C19.004 21.8221 18.7783 21.5145 18.6145 21.1634C18.4609 20.4513 18.7137 20.0082 19.0869 19.4239C20.1841 17.6981 20.6296 15.6258 20.2128 13.6046C20.1943 13.5228 20.1755 13.4411 20.1562 13.3595C20.1421 13.2984 20.1421 13.2984 20.1277 13.2361C19.8924 12.2597 19.4559 11.3583 18.8672 10.547C18.7913 10.4409 18.7156 10.3347 18.6401 10.2283C18.6077 10.1837 18.5752 10.1391 18.5417 10.0931C18.3095 9.73092 18.2905 9.38575 18.3398 8.96492C18.5001 8.42272 18.8838 8.07099 19.3616 7.79305C19.7986 7.67038 20.2245 7.6871 20.625 7.91023Z" fill="#F79831"/>
</g>
<defs>
<clipPath id="clip0_82_14663">
<rect width="30" height="30" fill="white"/>
</clipPath>
</defs>
</svg>
