<svg width="20" height="20" viewBox="0 0 20 20" fill="none" xmlns="http://www.w3.org/2000/svg">
<g clip-path="url(#clip0_82_13481)">
<path d="M14.5716 0.0817327C14.8324 0.229621 14.9841 0.40316 15.0902 0.681098C15.1456 0.967705 15.1378 1.22328 14.9999 1.48432C14.9172 1.58709 14.8294 1.68182 14.7381 1.77698C14.6112 1.91553 14.5134 2.06782 14.414 2.22651C14.5863 2.43271 14.7678 2.6248 14.9582 2.81427C14.9884 2.84441 15.0185 2.87454 15.0495 2.9056C15.1484 3.00439 15.2473 3.10304 15.3463 3.2017C15.4151 3.27049 15.484 3.33928 15.5528 3.40809C15.7335 3.58856 15.9142 3.76891 16.095 3.94924C16.2796 4.13351 16.4642 4.3179 16.6488 4.50228C17.0105 4.86359 17.3724 5.22478 17.7343 5.58588C17.7773 5.56189 17.8203 5.5379 17.8646 5.51318C17.8888 5.49968 17.913 5.48618 17.9379 5.47228C18.038 5.41111 18.1186 5.33496 18.203 5.25385C18.4724 5.00499 18.7101 4.86733 19.0816 4.87162C19.3687 4.90426 19.6385 5.03929 19.8205 5.2627C20.0026 5.53285 19.9973 5.81711 19.9608 6.13276C19.8411 6.62213 19.2515 6.98452 18.852 7.2317C18.3995 7.50242 17.844 7.82644 17.3046 7.77338C17.2069 7.71479 17.2069 7.71479 17.1483 7.61713C17.1248 7.50749 17.1145 7.41222 17.1483 7.30463C17.3017 7.14563 17.4752 7.09704 17.6806 7.03608C18.2883 6.84365 18.8042 6.50397 19.2577 6.05463C19.3161 5.93784 19.3013 5.83196 19.2968 5.70307C19.2839 5.6644 19.271 5.62573 19.2577 5.58588C19.0379 5.53725 19.0379 5.53725 18.8305 5.60297C18.7649 5.65788 18.6997 5.71353 18.6375 5.77219C17.9393 6.42401 17.0386 6.66556 16.101 6.65766C16.0599 6.6576 16.0599 6.6576 16.0179 6.65754C15.4731 6.65587 14.9492 6.58776 14.414 6.48432C14.472 6.81303 14.472 6.81303 14.5312 7.14838C15.0566 7.22245 15.5755 7.27976 16.1066 7.28982C16.1436 7.29073 16.1806 7.29164 16.2188 7.29258C16.2513 7.29306 16.2838 7.29354 16.3172 7.29404C16.4153 7.30572 16.4784 7.33157 16.5624 7.38276C16.6437 7.4873 16.6404 7.5436 16.6357 7.67817C16.6015 7.81245 16.6015 7.81245 16.5346 7.87854C16.4254 7.94099 16.3565 7.94421 16.2311 7.94382C16.1892 7.94385 16.1472 7.94388 16.104 7.94391C16.0372 7.94288 16.0372 7.94288 15.9691 7.94184C15.9238 7.94148 15.8785 7.94113 15.8317 7.94076C14.9178 7.92766 14.9178 7.92766 14.6874 7.81245C14.6917 7.83382 14.6961 7.85519 14.7005 7.87721C14.7208 7.97845 14.7407 8.07977 14.7607 8.1811C14.7674 8.21466 14.7742 8.24822 14.7813 8.2828C14.8912 8.84693 14.9369 9.40421 14.934 9.97797C14.9339 10.0227 14.9339 10.0227 14.9338 10.0682C14.932 10.5106 14.915 10.937 14.8046 11.3671C14.7981 11.3929 14.7916 11.4186 14.7849 11.4451C14.4747 12.6383 13.6901 13.7102 12.6227 14.3396C11.7925 14.8161 10.9285 15.0087 9.9755 15.0122C9.93216 15.0123 9.93216 15.0123 9.88794 15.0125C9.1612 15.0136 8.44233 14.9333 7.73428 14.7656C7.74637 14.8155 7.75845 14.8655 7.77091 14.9169C7.86858 15.3207 7.86091 15.7395 7.86124 16.1523C7.86126 16.1818 7.86129 16.2114 7.86132 16.2418C7.86069 16.6842 7.84376 17.1086 7.73428 17.539C7.72454 17.5777 7.72454 17.5777 7.7146 17.6171C7.48322 18.5069 7.00654 19.3357 6.30011 19.9334C6.1265 20.0234 5.98153 20.0268 5.78848 20.0244C5.75364 20.0241 5.71879 20.0238 5.68289 20.0235C5.45124 20.0158 5.28081 19.9877 5.09985 19.8323C4.88531 19.5973 4.78304 19.3495 4.79544 19.027C4.83108 18.7086 4.96448 18.5295 5.18363 18.301C5.31052 18.1625 5.40831 18.0102 5.50772 17.8515C5.33543 17.6453 5.15388 17.4532 4.96346 17.2637C4.93333 17.2336 4.90319 17.2035 4.87215 17.1724C4.77333 17.0736 4.67437 16.975 4.57541 16.8763C4.50655 16.8075 4.4377 16.7387 4.36885 16.6699C4.18823 16.4895 4.00749 16.3091 3.82673 16.1288C3.64205 15.9445 3.45749 15.7601 3.27292 15.5757C2.91119 15.2144 2.54934 14.8532 2.18741 14.4921C2.14438 14.5161 2.10135 14.5401 2.05701 14.5648C2.03281 14.5783 2.00861 14.5918 1.98367 14.6057C1.88404 14.6667 1.80467 14.743 1.7211 14.8242C1.45824 15.0674 1.19357 15.2098 0.828615 15.2037C0.556809 15.1773 0.345556 15.0766 0.15616 14.8828C0.000750009 14.6601 -0.0265202 14.4899 -0.0245042 14.2211C-0.025763 14.1877 -0.0270219 14.1543 -0.0283189 14.1199C-0.0287261 13.8529 0.0564236 13.7094 0.234285 13.5156C0.254716 13.4923 0.275147 13.4691 0.296197 13.4451C1.00011 12.6636 2.1473 12.2499 3.16397 12.1484C3.37792 12.1401 3.59197 12.1408 3.80606 12.1411C3.85049 12.141 3.85049 12.141 3.89582 12.141C4.98653 12.1417 4.98653 12.1417 5.23428 12.2656C5.22996 12.2442 5.22564 12.2228 5.22118 12.2008C4.87924 10.497 4.87924 10.497 5.08292 10.1855C5.21678 10.104 5.27596 10.0851 5.4296 10.1171C5.55479 10.2037 5.61195 10.2584 5.64778 10.4078C5.66271 10.5306 5.67246 10.653 5.68106 10.7763C5.7599 11.6306 5.94824 12.4592 6.13855 13.2941C6.57309 15.2008 6.57309 15.2008 6.5795 16.1791C6.57976 16.2058 6.58002 16.2326 6.58029 16.2601C6.58581 17.216 6.28552 18.0244 5.66397 18.7499C5.54182 18.8954 5.46866 18.9839 5.46866 19.1796C5.52105 19.2972 5.52105 19.2972 5.62491 19.3749C5.75656 19.4108 5.75656 19.4108 5.89835 19.3749C6.55247 18.943 6.93345 18.0507 7.1036 17.3169C7.17666 16.9489 7.20653 16.5971 7.2045 16.2206C7.20528 16.1712 7.20606 16.1217 7.20686 16.0707C7.21255 15.1244 6.98475 14.1892 6.77603 13.2714C6.72136 13.0308 6.66736 12.7901 6.61368 12.5492C6.60794 12.5235 6.6022 12.4978 6.59629 12.4713C6.42814 11.7152 6.28184 10.9676 6.27959 10.1914C6.27921 10.1132 6.27799 10.0351 6.27676 9.95692C6.27308 9.02195 6.57453 8.12327 7.23517 7.45096C7.27097 7.41557 7.30677 7.38017 7.34366 7.3437C7.37503 7.31192 7.4064 7.28015 7.43872 7.24741C8.13028 6.58311 9.05604 6.34168 9.99259 6.35004C10.0203 6.35014 10.0479 6.35023 10.0764 6.35032C10.6206 6.35315 11.1457 6.41697 11.6796 6.52338C11.7176 6.53089 11.7557 6.53839 11.7949 6.54612C12.0045 6.58795 12.2133 6.63242 12.4218 6.67963C12.4133 6.6387 12.4049 6.59776 12.3961 6.55558C12.3852 6.50172 12.3742 6.44785 12.3632 6.39399C12.3576 6.36702 12.352 6.34006 12.3463 6.31228C12.3231 6.19818 12.3046 6.09326 12.3046 5.97651C12.2563 5.97167 12.2079 5.96684 12.1581 5.96186C11.8911 5.93219 11.6272 5.88403 11.3625 5.83826C10.9402 5.76627 10.5326 5.73387 10.1043 5.73275C10.0181 5.73237 9.93194 5.73116 9.84572 5.72993C9.344 5.72617 8.85243 5.7872 8.37882 5.96186C8.35169 5.97174 8.32456 5.98163 8.29661 5.99181C7.76645 6.19371 7.32893 6.49231 6.91397 6.87495C6.88809 6.89766 6.86221 6.92036 6.83554 6.94376C6.14728 7.5792 5.82349 8.49642 5.65894 9.39295C5.61783 9.51276 5.57852 9.54865 5.46866 9.60932C5.31844 9.6281 5.2315 9.63072 5.10001 9.55317C4.96669 9.33453 5.04059 9.04889 5.09449 8.81067C5.10276 8.77693 5.11102 8.7432 5.11954 8.70844C5.12821 8.67277 5.13687 8.6371 5.1458 8.60034C5.45158 7.40389 6.25441 6.36877 7.30897 5.73573C8.14385 5.25095 9.01041 5.06922 9.96817 5.06586C9.99805 5.06574 10.0279 5.06561 10.0587 5.06547C10.7795 5.06448 11.4848 5.14756 12.1874 5.31245C12.1693 5.23752 12.1693 5.23752 12.1508 5.16108C12.0531 4.75734 12.0608 4.33853 12.0605 3.92573C12.0604 3.89618 12.0604 3.86664 12.0604 3.8362C12.061 3.39377 12.0779 2.96941 12.1874 2.53901C12.1939 2.51323 12.2004 2.48746 12.2071 2.4609C12.4374 1.57517 12.9454 0.571313 13.7499 0.0780706C14.0024 -0.00610942 14.3205 -0.00874539 14.5716 0.0817327ZM13.3675 1.37263C12.3955 2.86683 12.642 4.63112 12.9905 6.2784C13.0477 6.54673 13.1071 6.81456 13.1676 7.08216C13.1949 7.2027 13.2222 7.32324 13.2494 7.44379C13.2561 7.47323 13.2627 7.50267 13.2696 7.533C13.3866 8.05252 13.4841 8.57341 13.5546 9.10151C13.5586 9.12999 13.5625 9.15847 13.5666 9.18782C13.7049 10.2746 13.5889 11.4012 12.9296 12.3046C12.3182 13.0736 11.5225 13.5438 10.5468 13.6718C10.3515 13.6845 10.1565 13.687 9.96085 13.6865C9.93376 13.6865 9.90668 13.6865 9.87878 13.6865C9.32382 13.6851 8.78748 13.6186 8.2421 13.5156C8.20212 13.5081 8.16215 13.5006 8.12096 13.4928C7.90027 13.4509 7.68074 13.4056 7.46085 13.3593C7.51241 13.6042 7.56397 13.8492 7.6171 14.1015C7.7733 14.1327 7.92955 14.1636 8.08585 14.1943C8.12905 14.2029 8.17225 14.2116 8.21677 14.2205C8.7764 14.3299 9.32284 14.3912 9.89249 14.3896C9.93435 14.3896 9.93435 14.3896 9.97706 14.3895C11.0176 14.3859 11.9661 14.119 12.7733 13.4374C12.8046 13.4114 12.8359 13.3854 12.8681 13.3586C13.6789 12.6587 14.1637 11.7218 14.2968 10.664C14.3058 10.4881 14.3073 10.3122 14.3083 10.136C14.3088 10.0809 14.3095 10.0259 14.3107 9.97081C14.3316 8.99399 14.107 8.03602 13.8891 7.08979C13.7562 6.50927 13.6267 5.92923 13.5215 5.34296C13.5135 5.29852 13.5055 5.25408 13.4972 5.20829C13.2888 4.01463 13.2999 2.75255 13.9777 1.7051C14.0818 1.55799 14.2058 1.42937 14.3319 1.30091C14.4445 1.17736 14.4942 1.10576 14.4872 0.937446C14.4469 0.799242 14.4157 0.745347 14.2968 0.664008C13.8722 0.574188 13.5813 1.06459 13.3675 1.37263ZM14.1015 2.89057C13.7922 3.77706 13.9833 4.894 14.2187 5.7812C14.8599 5.92338 15.4669 6.02189 16.1254 6.02534C16.1981 6.02588 16.1981 6.02588 16.2722 6.02644C16.5476 6.02548 16.803 6.00528 17.0702 5.93745C17.082 5.82323 17.082 5.82323 17.0246 5.76008C17.003 5.73859 16.9815 5.71709 16.9593 5.69494C16.9347 5.67013 16.9101 5.64532 16.8847 5.61976C16.8574 5.59278 16.8301 5.56581 16.8019 5.53802C16.7734 5.50943 16.7449 5.48083 16.7155 5.45138C16.6209 5.35661 16.5258 5.26228 16.4307 5.16794C16.3651 5.10245 16.2995 5.03693 16.234 4.97139C16.0964 4.83399 15.9586 4.69678 15.8207 4.55972C15.6434 4.38356 15.4665 4.20707 15.2897 4.03045C15.1542 3.89515 15.0187 3.75997 14.8831 3.62482C14.8178 3.55975 14.7525 3.49466 14.6872 3.42955C14.5962 3.33882 14.5051 3.24821 14.4139 3.15765C14.3867 3.13044 14.3594 3.10323 14.3313 3.07519C14.3066 3.05071 14.2819 3.02623 14.2565 3.001C14.2241 2.96883 14.2241 2.96883 14.1911 2.936C14.147 2.88622 14.147 2.88622 14.1015 2.89057ZM10.039 6.99213C10.2007 7.18485 10.3686 7.36651 10.5468 7.54403C10.573 7.57036 10.5993 7.59669 10.6263 7.62382C10.7123 7.70993 10.7984 7.79591 10.8845 7.88187C10.9445 7.94191 11.0045 8.00195 11.0645 8.06199C11.1897 8.18731 11.3151 8.31256 11.4404 8.43776C11.6015 8.59863 11.7625 8.75968 11.9233 8.92077C12.0469 9.04453 12.1706 9.16819 12.2944 9.29182C12.3538 9.35121 12.4132 9.41063 12.4725 9.47008C12.5551 9.55275 12.6378 9.63529 12.7205 9.7178C12.7576 9.75496 12.7576 9.75496 12.7954 9.79287C12.887 9.90697 12.887 9.90697 13.0077 9.96088C13.0187 9.56421 12.9924 9.19534 12.9223 8.80366C12.9136 8.75337 12.9049 8.70309 12.896 8.65128C12.8204 8.224 12.726 7.80267 12.6171 7.38276C11.3439 7.05912 11.3439 7.05912 10.039 6.99213ZM8.08585 7.53901C8.06007 7.57768 8.03428 7.61635 8.00772 7.6562C9.43858 9.08706 10.8694 10.5179 12.3437 11.9921C12.6509 11.6849 12.8228 11.3633 12.9296 10.9374C12.9147 10.7718 12.8637 10.6957 12.7475 10.5792C12.7014 10.5325 12.7014 10.5325 12.6544 10.4848C12.6204 10.4512 12.5865 10.4175 12.5515 10.3829C12.5159 10.3471 12.4804 10.3112 12.4437 10.2743C12.3463 10.1761 12.2483 10.0784 12.1503 9.98087C12.0477 9.87871 11.9455 9.77618 11.8433 9.6737C11.6716 9.50172 11.4996 9.33007 11.3274 9.1586C11.1282 8.96028 10.9296 8.7614 10.7313 8.56222C10.561 8.39125 10.3904 8.22058 10.2196 8.05017C10.1176 7.94838 10.0157 7.84648 9.914 7.7443C9.80073 7.63049 9.68682 7.51733 9.57284 7.40423C9.53913 7.3702 9.50542 7.33617 9.47069 7.30111C9.43963 7.2705 9.40858 7.23988 9.37659 7.20834C9.3497 7.18152 9.32282 7.15469 9.29512 7.12706C8.9949 6.90404 8.33167 7.3469 8.08585 7.53901ZM7.53897 8.08588C7.28067 8.37195 7.06208 8.75955 6.9921 9.14057C7.00823 9.30581 7.05769 9.38217 7.17342 9.49903C7.20397 9.53025 7.23452 9.56147 7.266 9.59364C7.29977 9.62733 7.33353 9.66103 7.36832 9.69574C7.4037 9.73165 7.43908 9.76755 7.47553 9.80455C7.5725 9.90289 7.66997 10.0007 7.76757 10.0984C7.82854 10.1595 7.88939 10.2207 7.9502 10.2819C8.16236 10.4955 8.37493 10.7087 8.58788 10.9216C8.78637 11.12 8.98397 11.3192 9.18118 11.5189C9.35057 11.6903 9.52057 11.8611 9.69104 12.0315C9.79283 12.1333 9.89436 12.2352 9.9953 12.3378C10.1079 12.4522 10.2216 12.5652 10.3355 12.6782C10.3855 12.7295 10.3855 12.7295 10.4364 12.7818C10.6141 12.965 10.6141 12.965 10.855 13.0111C10.8951 12.9971 10.9352 12.9831 10.9765 12.9687C11.0174 12.9565 11.0583 12.9443 11.1005 12.9318C11.3808 12.8264 11.6551 12.7093 11.8749 12.4999C11.8873 12.3803 11.8873 12.3803 11.8079 12.3012C11.7605 12.2539 11.7605 12.2539 11.712 12.2055C11.6759 12.1692 11.6399 12.1329 11.6027 12.0955C11.5621 12.0553 11.5216 12.0152 11.4811 11.975C11.4388 11.9327 11.3965 11.8903 11.3543 11.848C11.2393 11.7328 11.124 11.618 11.0085 11.5032C10.888 11.3833 10.7678 11.2631 10.6476 11.1429C10.4457 10.9411 10.2435 10.7395 10.0412 10.5381C9.7812 10.2792 9.52153 10.0199 9.26197 9.76054C9.03926 9.53798 8.81638 9.31559 8.59347 9.09323C8.52161 9.02152 8.44977 8.9498 8.37793 8.87807C8.26526 8.76559 8.1525 8.65322 8.03965 8.54093C7.99812 8.49958 7.95662 8.4582 7.91516 8.41678C7.85882 8.3605 7.80234 8.30436 7.74586 8.24822C7.71421 8.21669 7.68256 8.18515 7.64995 8.15266C7.58962 8.08145 7.58962 8.08145 7.53897 8.08588ZM6.91397 10.1171C6.90295 10.5138 6.92928 10.8827 6.99942 11.2744C7.00809 11.3246 7.01676 11.3749 7.02569 11.4267C7.10126 11.854 7.19568 12.2753 7.3046 12.6953C8.57777 13.0189 8.57777 13.0189 9.88272 13.0859C9.72104 12.8932 9.55305 12.7115 9.37494 12.534C9.34868 12.5077 9.32242 12.4813 9.29536 12.4542C9.20942 12.3681 9.12333 12.2821 9.03723 12.1961C8.97723 12.1361 8.91722 12.0761 8.85723 12.016C8.73197 11.8907 8.60663 11.7655 8.48125 11.6403C8.32016 11.4794 8.15924 11.3183 7.99837 11.1572C7.87476 11.0335 7.75106 10.9098 7.62732 10.7862C7.56791 10.7268 7.50852 10.6674 7.44916 10.6079C7.36659 10.5253 7.2839 10.4427 7.20117 10.3602C7.17648 10.3354 7.15178 10.3107 7.12634 10.2851C7.03467 10.171 7.03467 10.171 6.91397 10.1171ZM0.62491 14.0234C0.562824 14.1476 0.569606 14.2381 0.585847 14.3749C0.696162 14.501 0.763215 14.5653 0.932527 14.58C1.07693 14.5223 1.16085 14.4445 1.27402 14.3397C1.99647 13.7037 2.85215 13.4681 3.79874 13.4643C3.82688 13.4641 3.85501 13.464 3.884 13.4638C4.44941 13.4624 4.99068 13.5283 5.54678 13.6328C5.50533 13.2418 5.50533 13.2418 5.35147 12.8906C5.22752 12.8375 5.10412 12.8267 4.97061 12.8149C4.93158 12.8107 4.89255 12.8065 4.85234 12.8022C3.27158 12.6526 1.79986 12.8581 0.62491 14.0234ZM2.85147 14.1406C2.83965 14.2548 2.83965 14.2548 2.89723 14.3179C2.91883 14.3394 2.94044 14.3609 2.96269 14.3831C2.99967 14.4203 2.99967 14.4203 3.03739 14.4583C3.07849 14.4987 3.07849 14.4987 3.12041 14.54C3.14898 14.5686 3.17756 14.5972 3.207 14.6266C3.30184 14.7214 3.39709 14.8157 3.49234 14.9101C3.55805 14.9756 3.62374 15.0411 3.68939 15.1066C3.86253 15.2793 4.03601 15.4516 4.20956 15.6239C4.3865 15.7996 4.56311 15.9757 4.73975 16.1518C5.08656 16.4973 5.43373 16.8425 5.78116 17.1874C5.86566 17.1566 5.86566 17.1566 5.8834 17.078C5.94064 16.7918 5.95391 16.5121 5.9545 16.2206C5.95462 16.1703 5.95474 16.12 5.95487 16.0681C5.95043 15.4868 5.88718 14.8492 5.70303 14.2968C5.54682 14.2649 5.39056 14.2332 5.23428 14.2016C5.19033 14.1926 5.14637 14.1836 5.10108 14.1744C4.67076 14.0876 4.272 14.0553 3.83292 14.0551C3.78171 14.0546 3.7305 14.0542 3.67774 14.0537C3.39262 14.0532 3.12798 14.0686 2.85147 14.1406Z" fill="#00BBFF"/>
</g>
<defs>
<clipPath id="clip0_82_13481">
<rect width="20" height="20" fill="white"/>
</clipPath>
</defs>
</svg>
