<svg width="30" height="30" viewBox="0 0 30 30" fill="none" xmlns="http://www.w3.org/2000/svg">
<path d="M2.8125 15.95C2.8125 17.95 4.21625 19.6925 6.19625 19.9838C7.53125 20.18 8.88125 20.3325 10.2437 20.4388C10.8262 20.485 11.36 20.79 11.685 21.2775L15 26.25L18.315 21.2775C18.64 20.79 19.1738 20.485 19.7563 20.44C21.1188 20.3325 22.4687 20.18 23.8037 19.9838C25.7837 19.6925 27.1875 17.9513 27.1875 15.9488V8.42625C27.1875 6.42375 25.7837 4.6825 23.8037 4.39125C20.8887 3.9634 17.9463 3.74907 15 3.75C12.01 3.75 9.07 3.96875 6.19625 4.39125C4.21625 4.6825 2.8125 6.425 2.8125 8.42625V15.9488V15.95Z" stroke="#F79831" stroke-width="1.5" stroke-linecap="round" stroke-linejoin="round"/>
</svg>
