<svg width="18" height="20" viewBox="0 0 18 20" fill="none" xmlns="http://www.w3.org/2000/svg">
<path d="M14.2182 -0.00973335C14.2532 -0.010539 14.2882 -0.0113447 14.3242 -0.0121748C14.9195 -0.0156134 15.4292 0.256011 15.8515 0.664095C16.1363 1.00473 16.2946 1.37801 16.4204 1.79935C16.4332 1.84191 16.4461 1.88448 16.4593 1.92833C16.4961 2.05126 16.5324 2.1743 16.5686 2.29741C16.5958 2.38988 16.6232 2.48228 16.6506 2.57469C16.7013 2.74573 16.7513 2.91698 16.8008 3.08836C16.8205 3.15645 16.8405 3.22448 16.8606 3.29246C16.889 3.38884 16.9167 3.4854 16.9442 3.58203C16.9528 3.61072 16.9614 3.63942 16.9703 3.66898C17.0211 3.85092 17.0375 3.99334 16.9843 4.17972C16.8361 4.38553 16.6555 4.43249 16.4219 4.49664C16.3832 4.50784 16.3445 4.51904 16.3047 4.53058C16.2164 4.55608 16.1279 4.5813 16.0395 4.60628C15.8783 4.65195 15.7175 4.69865 15.5567 4.74557C15.2004 4.84942 14.8439 4.95229 14.4873 5.05506C14.3074 5.10692 14.1276 5.15886 13.9478 5.21079C13.8744 5.23197 13.8011 5.25314 13.7278 5.27431C13.6914 5.28482 13.655 5.29532 13.6175 5.30615C13.5071 5.33803 13.3967 5.36991 13.2862 5.40178C12.6402 5.58825 11.9944 5.77529 11.3486 5.96256C11.2111 6.00246 11.0735 6.04235 10.9359 6.08223C10.7173 6.14562 10.4986 6.20902 10.28 6.27242C9.72752 6.43264 9.17502 6.5928 8.62253 6.75296C8.58306 6.7644 8.58306 6.7644 8.54279 6.77608C7.62454 7.04226 6.70622 7.30819 5.78787 7.574C5.61781 7.62322 5.44775 7.67245 5.27769 7.72168C4.94814 7.81707 4.61859 7.91246 4.28903 8.00784C4.31648 8.0079 4.34393 8.00795 4.37221 8.00801C5.99828 8.01115 7.62435 8.01471 9.25041 8.01878C9.44556 8.01927 9.6407 8.01976 9.83584 8.02024C9.89412 8.02039 9.89412 8.02039 9.95357 8.02053C10.583 8.02209 11.2125 8.02337 11.842 8.02454C12.4876 8.02576 13.1333 8.02727 13.7789 8.02905C14.1775 8.03014 14.5761 8.031 14.9746 8.03157C15.2478 8.03198 15.5209 8.03267 15.794 8.03359C15.9517 8.03412 16.1094 8.03451 16.2671 8.03457C16.4114 8.03463 16.5557 8.03504 16.7 8.03574C16.7771 8.03602 16.8541 8.03592 16.9312 8.0358C16.9769 8.03609 17.0226 8.03638 17.0697 8.03668C17.1091 8.03677 17.1485 8.03686 17.1892 8.03695C17.3515 8.05196 17.4589 8.09589 17.5813 8.20304C17.6785 8.37287 17.6699 8.52032 17.668 8.7129C17.6682 8.75278 17.6684 8.79265 17.6686 8.83373C17.6692 8.96754 17.6686 9.10131 17.668 9.23512C17.6682 9.33098 17.6684 9.42685 17.6686 9.52271C17.6691 9.75625 17.6689 9.98978 17.6683 10.2233C17.6676 10.4956 17.6678 10.7678 17.6679 11.04C17.6681 11.5261 17.6676 12.0122 17.6666 12.4983C17.6657 12.9694 17.6654 13.4404 17.6658 13.9114C17.6663 14.4246 17.6664 14.9379 17.6658 15.4511C17.6657 15.5059 17.6657 15.5608 17.6656 15.6156C17.6656 15.6426 17.6656 15.6696 17.6655 15.6973C17.6653 15.8868 17.6654 16.0762 17.6656 16.2657C17.6658 16.5212 17.6654 16.7768 17.6645 17.0324C17.6643 17.1259 17.6643 17.2195 17.6645 17.3131C17.6659 18.1016 17.6126 18.7656 17.037 19.3653C16.5475 19.8344 16.0434 20.0116 15.375 20.012C15.3234 20.0123 15.2719 20.0127 15.2188 20.013C15.078 20.0138 14.9373 20.0142 14.7966 20.0144C14.7086 20.0145 14.6205 20.0148 14.5325 20.0151C14.2253 20.016 13.9181 20.0165 13.611 20.0167C13.3248 20.0168 13.0387 20.018 12.7526 20.0196C12.5066 20.021 12.2606 20.0216 12.0146 20.0216C11.8678 20.0216 11.721 20.022 11.5742 20.0231C11.4107 20.0243 11.2472 20.0239 11.0836 20.0234C11.0351 20.024 10.9865 20.0246 10.9365 20.0252C10.5715 20.0221 10.5715 20.0221 10.4513 19.9079C10.3702 19.7858 10.3437 19.7172 10.3437 19.5703C10.4004 19.4004 10.4277 19.3191 10.5781 19.2188C10.6676 19.2088 10.6676 19.2088 10.7747 19.2084C10.8153 19.2081 10.8559 19.2078 10.8978 19.2075C10.9423 19.2075 10.9869 19.2075 11.0328 19.2076C11.0798 19.2073 11.1267 19.207 11.1751 19.2068C11.2773 19.2062 11.3794 19.2058 11.4816 19.2057C11.6435 19.2054 11.8055 19.2046 11.9674 19.2036C12.3116 19.2017 12.6558 19.2005 13 19.1993C13.3705 19.198 13.7411 19.1965 14.1116 19.1944C14.246 19.1936 14.3804 19.193 14.5148 19.1928C14.6651 19.1925 14.8154 19.1918 14.9658 19.1909C15.0317 19.191 15.0317 19.191 15.0989 19.1911C15.5568 19.1875 16.0139 19.144 16.3696 18.8277C17.7381 17.3782 16.8279 12.5652 16.8281 12.5391C11.7879 12.5391 6.74763 12.5391 1.55466 12.5391C1.08722 15.8965 1.08722 15.8965 1.96481 18.7451C1.99704 18.7725 2.02927 18.7999 2.06247 18.8282C2.09067 18.8547 2.11887 18.8813 2.14792 18.9087C2.54415 19.1817 2.97393 19.1855 3.43793 19.1853C3.4849 19.1854 3.53188 19.1855 3.58028 19.1857C3.68186 19.186 3.78344 19.1862 3.88502 19.1863C4.04574 19.1865 4.20646 19.1872 4.36718 19.1879C4.42235 19.1882 4.47752 19.1884 4.53269 19.1887C4.5741 19.1889 4.5741 19.1889 4.61635 19.189C4.99011 19.1907 5.36386 19.192 5.73762 19.1925C5.99037 19.1928 6.24311 19.1937 6.49586 19.1952C6.62942 19.1959 6.76296 19.1964 6.89652 19.1962C7.04529 19.1961 7.19403 19.197 7.3428 19.1981C7.3869 19.1978 7.431 19.1976 7.47644 19.1973C7.77485 19.2009 7.77485 19.2009 7.92874 19.2933C8.041 19.4221 8.05203 19.5147 8.05048 19.686C8.03268 19.8099 7.97055 19.8758 7.88278 19.961C7.78248 20.0111 7.71083 20.0053 7.59848 20.0058C7.53286 20.0062 7.53286 20.0062 7.46592 20.0066C7.39357 20.0068 7.39357 20.0068 7.31976 20.0069C7.24382 20.0073 7.24382 20.0073 7.16634 20.0077C6.998 20.0085 6.82966 20.009 6.66132 20.0093C6.60326 20.0095 6.54521 20.0097 6.48715 20.0098C6.21407 20.0106 5.94099 20.0111 5.66791 20.0114C5.35353 20.0118 5.03915 20.0129 4.72477 20.0144C4.48136 20.0156 4.23796 20.0162 3.99455 20.0163C3.84941 20.0164 3.70428 20.0168 3.55914 20.0177C3.39666 20.0188 3.2342 20.0187 3.07172 20.0184C3.02435 20.0189 2.97699 20.0194 2.92819 20.0199C2.31548 20.0162 1.809 19.7982 1.36316 19.3822C0.710262 18.7026 0.722259 17.8372 0.731808 16.9558C0.732469 16.8661 0.733086 16.7764 0.733662 16.6867C0.734929 16.494 0.736385 16.3014 0.737953 16.1088C0.740324 15.8018 0.741493 15.4948 0.742343 15.1878C0.742417 15.1618 0.742491 15.1358 0.742568 15.109C0.742948 14.976 0.743316 14.843 0.743674 14.71C0.744411 14.4365 0.745178 14.163 0.746094 13.8895C0.746186 13.8621 0.746277 13.8348 0.746371 13.8065C0.747897 13.367 0.751403 12.9274 0.75561 12.4879C0.759913 12.0324 0.761701 11.577 0.76142 11.1216C0.761334 10.8675 0.762352 10.6136 0.76621 10.3596C0.787269 8.91215 0.57496 7.70286 0.0982572 6.33988C-0.0539831 5.85091 -0.0331029 5.22592 0.18747 4.76566C0.204943 4.7285 0.222416 4.69133 0.240418 4.65305C0.511812 4.11899 0.942994 3.75155 1.51153 3.55459C1.64667 3.51262 1.78223 3.47254 1.91812 3.43311C1.9699 3.41786 2.02167 3.40259 2.07344 3.3873C2.21105 3.34675 2.34878 3.30659 2.48655 3.26656C2.56883 3.24264 2.65109 3.21865 2.73335 3.19463C3.10509 3.08613 3.47709 2.97854 3.84916 2.87117C4.00999 2.82475 4.1708 2.77825 4.33161 2.73176C4.56658 2.66383 4.80154 2.59593 5.03652 2.52805C5.64289 2.35287 6.24917 2.17738 6.85544 2.00185C7.01005 1.95709 7.16465 1.91233 7.31925 1.86758C8.12002 1.63579 8.92075 1.40388 9.72144 1.17182C9.83279 1.13955 9.94415 1.10728 10.0555 1.07502C10.6424 0.904975 11.2292 0.734717 11.8158 0.563872C11.9858 0.514364 12.1558 0.464894 12.3259 0.415422C12.4864 0.368696 12.647 0.321896 12.8075 0.275039C12.9286 0.239713 13.0497 0.204492 13.1709 0.169252C13.2143 0.156557 13.2577 0.143862 13.3024 0.130782C13.3423 0.119197 13.3822 0.107612 13.4233 0.0956763C13.4577 0.0856285 13.4922 0.0755807 13.5277 0.0652284C13.7611 0.00254265 13.9778 -0.00837758 14.2182 -0.00973335ZM13.013 1.06639C12.8694 1.10879 12.7254 1.15005 12.5813 1.19113C12.4899 1.21752 12.3985 1.24396 12.3071 1.27048C12.264 1.28289 12.221 1.29531 12.1766 1.3081C12.1173 1.32568 12.1173 1.32568 12.0568 1.34363C12.0219 1.35386 11.9871 1.3641 11.9512 1.37464C11.8605 1.40219 11.8605 1.40219 11.789 1.48441C11.8995 1.59607 12.0103 1.70749 12.1211 1.81888C12.152 1.85012 12.1829 1.88137 12.2148 1.91356C12.3805 2.08003 12.5492 2.23921 12.7274 2.3923C12.8999 2.54564 13.0588 2.71367 13.2205 2.8783C13.3507 3.00998 13.4814 3.13792 13.6224 3.25809C13.7437 3.3623 13.8546 3.47268 13.9645 3.5889C13.9957 3.62168 14.027 3.65446 14.0592 3.68823C14.1236 3.7562 14.1875 3.82467 14.2508 3.89362C14.282 3.926 14.3132 3.95837 14.3453 3.99173C14.373 4.02129 14.4007 4.05085 14.4292 4.0813C14.5232 4.15295 14.5232 4.15295 14.6532 4.13539C14.7987 4.10115 14.9422 4.06422 15.0857 4.02225C15.112 4.01459 15.1383 4.00694 15.1654 3.99905C15.2205 3.98299 15.2755 3.96683 15.3306 3.95059C15.4149 3.9257 15.4994 3.90109 15.5838 3.87653C15.8405 3.80845 15.8405 3.80845 16.0859 3.71097C16.0244 3.36139 15.9292 3.02315 15.8312 2.68243C15.8029 2.58366 15.7752 2.48471 15.7476 2.38574C15.5283 1.59981 15.5283 1.59981 14.9775 1.02786C14.9239 0.9938 14.9239 0.9938 14.8692 0.959047C14.2709 0.633697 13.6175 0.887919 13.013 1.06639ZM10.3671 1.81934C10.325 1.83175 10.2829 1.84417 10.2395 1.85696C10.1054 1.8968 9.9719 1.93837 9.83835 1.98001C9.74742 2.00737 9.65645 2.0346 9.56545 2.06172C9.34268 2.12838 9.1204 2.19647 8.89841 2.26566C8.88611 2.38344 8.88611 2.38344 8.95799 2.45635C8.98546 2.48346 9.01293 2.51056 9.04123 2.53848C9.0867 2.58365 9.0867 2.58365 9.13309 2.62973C9.18128 2.67671 9.18128 2.67671 9.23044 2.72464C9.27682 2.77072 9.27682 2.77072 9.32413 2.81772C9.46598 2.95771 9.60919 3.09447 9.76022 3.22452C9.96105 3.39761 10.1442 3.5877 10.3298 3.77674C10.4606 3.90892 10.5917 4.03714 10.7334 4.15759C10.8512 4.2586 10.9566 4.36554 11.0612 4.48017C11.0901 4.51136 11.1191 4.54255 11.1489 4.57469C11.2084 4.63912 11.267 4.70435 11.3247 4.77031C11.3683 4.81642 11.3683 4.81642 11.4128 4.86347C11.4382 4.89159 11.4636 4.91972 11.4898 4.9487C11.6599 5.03271 11.8077 4.97085 11.9843 4.92191C12.0162 4.91342 12.048 4.90494 12.0807 4.89619C12.1785 4.86924 12.2757 4.84073 12.3728 4.81174C12.4078 4.80145 12.4428 4.79115 12.4789 4.78055C12.5891 4.74807 12.6993 4.71536 12.8095 4.68265C12.8849 4.66041 12.9603 4.63818 13.0357 4.61597C13.2191 4.56188 13.4025 4.50757 13.5859 4.45316C13.5989 4.32544 13.5989 4.32544 13.4858 4.22305C13.4413 4.17901 13.3966 4.13528 13.3515 4.09183C13.3191 4.05973 13.3191 4.05973 13.2861 4.02698C13.1693 3.91232 13.0495 3.80251 12.9255 3.69571C12.723 3.52019 12.5375 3.32849 12.3498 3.13739C12.2191 3.00522 12.0878 2.87659 11.9467 2.75546C11.7336 2.5722 11.5405 2.36914 11.3446 2.16785C11.3152 2.13799 11.2858 2.10813 11.2554 2.07736C11.2294 2.05067 11.2034 2.02398 11.1765 1.99647C11.1466 1.96929 11.1167 1.9421 11.0859 1.91409C11.0675 1.89524 11.0491 1.87638 11.0301 1.85695C10.8104 1.66029 10.6286 1.73549 10.3671 1.81934ZM7.65915 2.62836C7.60167 2.64478 7.60167 2.64478 7.54304 2.66154C7.50158 2.6735 7.46011 2.68546 7.41739 2.69779C7.37502 2.70992 7.33264 2.72206 7.28898 2.73457C7.15323 2.77348 7.01752 2.81254 6.88181 2.85159C6.78995 2.87795 6.69809 2.9043 6.60623 2.93064C6.38068 2.99533 6.15515 3.06014 5.92966 3.12503C5.99083 3.25387 6.05666 3.33977 6.15823 3.44074C6.1883 3.47072 6.21836 3.50071 6.24933 3.5316C6.2808 3.5626 6.31227 3.59359 6.3447 3.62552C6.37526 3.65606 6.40583 3.6866 6.43732 3.71807C6.57776 3.85746 6.71931 3.99369 6.86929 4.1228C7.07027 4.2959 7.25348 4.48606 7.43921 4.67517C7.57055 4.80795 7.70225 4.93636 7.84494 5.05695C7.95921 5.15476 8.05679 5.25785 8.15378 5.3728C8.17991 5.40259 8.20605 5.43237 8.23297 5.46306C8.28629 5.52421 8.33808 5.58672 8.38831 5.65044C8.47734 5.74851 8.54202 5.80679 8.66403 5.85941C8.85504 5.84699 9.02284 5.7941 9.20305 5.73205C9.31762 5.69355 9.43363 5.66167 9.55011 5.62954C9.66687 5.59714 9.78308 5.56297 9.89933 5.52877C9.98904 5.50244 10.0789 5.47653 10.1687 5.45062C10.2261 5.43381 10.2836 5.41698 10.341 5.40012C10.381 5.38864 10.381 5.38864 10.4218 5.37693C10.5372 5.3426 10.6088 5.3209 10.6953 5.23441C10.6173 5.15534 10.5391 5.07643 10.4609 4.99759C10.4285 4.9647 10.4285 4.9647 10.3954 4.93114C10.2789 4.8139 10.1602 4.70153 10.0349 4.59369C9.83214 4.41851 9.6468 4.22688 9.45917 4.03583C9.32797 3.90319 9.19612 3.77409 9.05466 3.65238C8.85288 3.47877 8.669 3.28812 8.48261 3.09833C8.2148 2.82423 8.2148 2.82423 7.92185 2.57816C7.82637 2.57816 7.7511 2.60195 7.65915 2.62836ZM4.68511 3.4833C4.64759 3.49425 4.61006 3.5052 4.57139 3.51649C4.53119 3.52865 4.49098 3.54081 4.44956 3.55335C4.40816 3.56554 4.36676 3.57773 4.32411 3.5903C4.19186 3.62934 4.05979 3.66893 3.9277 3.70853C3.8381 3.73509 3.74848 3.76161 3.65884 3.7881C3.4391 3.85313 3.21949 3.9186 2.99997 3.98441C3.06441 4.12104 3.13803 4.21017 3.24564 4.3172C3.27922 4.35071 3.31281 4.38422 3.34741 4.41875C3.38261 4.45347 3.41781 4.48819 3.45407 4.52396C3.48836 4.55822 3.52265 4.59249 3.55798 4.62779C3.73231 4.80095 3.90945 4.9676 4.09576 5.1277C4.26789 5.28073 4.42634 5.44842 4.58765 5.61267C4.71364 5.74005 4.83952 5.86446 4.97629 5.98026C5.24413 6.20956 5.48678 6.46807 5.73435 6.71878C6.00487 6.64262 6.27531 6.56613 6.54568 6.48942C6.6377 6.46336 6.72973 6.43737 6.82179 6.41145C6.954 6.37422 7.08614 6.33672 7.21826 6.29917C7.25953 6.28761 7.30079 6.27605 7.3433 6.26414C7.38161 6.2532 7.41993 6.24225 7.4594 6.23098C7.51001 6.21667 7.51001 6.21667 7.56165 6.20206C7.65784 6.17269 7.65784 6.17269 7.7656 6.09378C7.70062 6.02773 7.6355 5.96184 7.57028 5.89603C7.55241 5.87783 7.53453 5.85962 7.51611 5.84087C7.41005 5.73408 7.30114 5.63296 7.18698 5.53485C6.97419 5.35061 6.77964 5.14873 6.58243 4.94815C6.42204 4.78611 6.25864 4.63195 6.08576 4.48337C5.91294 4.32983 5.75388 4.16162 5.59198 3.99677C5.2103 3.54814 5.2103 3.54814 4.68511 3.4833ZM1.21088 4.71225C0.923548 5.02153 0.831525 5.33977 0.83367 5.75921C0.860945 6.15586 1.00896 6.54544 1.12253 6.92386C1.14861 7.0129 1.17463 7.10196 1.20058 7.19104C1.24792 7.35271 1.29544 7.51432 1.34377 7.6757C1.3534 7.70788 1.36303 7.74006 1.37295 7.77321C1.39676 7.85316 1.39676 7.85316 1.43747 7.92972C1.62067 7.90669 1.79267 7.87197 1.96994 7.82057C1.99424 7.81358 2.01855 7.80658 2.04359 7.79938C2.12323 7.77642 2.20279 7.7532 2.28235 7.72998C2.33845 7.71376 2.39455 7.69755 2.45065 7.68135C2.59812 7.63874 2.74553 7.59591 2.89293 7.55303C3.04121 7.50993 3.18954 7.46703 3.33788 7.42412C3.50561 7.37559 3.67333 7.32703 3.84101 7.27833C4.1724 7.18208 4.50402 7.08674 4.83591 6.99222C4.67786 6.80109 4.51163 6.62911 4.3281 6.46243C4.09972 6.25249 3.87778 6.03757 3.6609 5.81576C3.55046 5.70358 3.43782 5.59691 3.31842 5.49426C3.10595 5.31069 2.91198 5.10918 2.71524 4.90909C2.55027 4.74242 2.38254 4.58249 2.20422 4.43012C2.1552 4.38768 2.10832 4.34276 2.06247 4.29691C1.71033 4.29691 1.45857 4.47506 1.21088 4.71225ZM1.55466 8.86722C1.55466 9.80824 1.55466 10.7493 1.55466 11.7188C1.83745 11.7309 2.12023 11.743 2.41159 11.7554C2.50016 11.7607 2.58873 11.7661 2.67998 11.7716C3.04896 11.7959 3.04896 11.7959 3.38139 11.6671C3.49916 11.5317 3.56711 11.376 3.63221 11.2102C3.67904 11.0964 3.74209 10.9942 3.80594 10.8892C3.85147 10.8101 3.89694 10.731 3.94235 10.6519C3.9927 10.5644 4.04306 10.4768 4.09342 10.3893C4.11898 10.3448 4.14455 10.3003 4.17089 10.2545C4.25161 10.1143 4.33271 9.9742 4.41385 9.83417C4.44065 9.78788 4.46745 9.74158 4.49424 9.69529C4.54512 9.60741 4.59605 9.51956 4.64702 9.43175C4.67008 9.39188 4.69313 9.35202 4.71689 9.31095C4.73709 9.27609 4.7573 9.24123 4.77812 9.20532C4.83988 9.09446 4.89635 8.98072 4.9531 8.86722C3.83161 8.86722 2.71013 8.86722 1.55466 8.86722ZM5.8906 8.86722C5.79956 9.02674 5.70852 9.18626 5.61472 9.35062C5.39647 9.73268 5.17774 10.1144 4.95798 10.4956C4.93393 10.5374 4.90988 10.5791 4.8851 10.6221C4.77646 10.8103 4.66728 10.9981 4.55621 11.1849C4.5377 11.216 4.51919 11.2472 4.50012 11.2793C4.46627 11.3361 4.43226 11.3928 4.39808 11.4494C4.3162 11.5753 4.3162 11.5753 4.28903 11.7188C4.98513 11.7188 5.68122 11.7188 6.39841 11.7188C6.47736 11.577 6.55632 11.4352 6.63767 11.2891C6.96302 10.7069 7.29764 10.1304 7.63941 9.55768C7.66304 9.51799 7.68668 9.47829 7.71104 9.43739C7.75628 9.36152 7.80167 9.28574 7.84724 9.21006C7.87737 9.15954 7.87737 9.15954 7.90811 9.108C7.9348 9.06356 7.9348 9.06356 7.96203 9.01822C8.00598 8.94749 8.00598 8.94749 7.99997 8.86722C7.30388 8.86722 6.60778 8.86722 5.8906 8.86722ZM8.7854 9.12793C8.77113 9.15791 8.75686 9.18789 8.74216 9.21878C8.71274 9.27067 8.68309 9.32243 8.65305 9.37396C8.62404 9.42715 8.59515 9.48041 8.56638 9.53372C8.40978 9.81966 8.24782 10.1021 8.08298 10.3833C7.89945 10.6968 7.71672 11.0106 7.5361 11.3257C7.51587 11.3609 7.49563 11.396 7.47478 11.4323C7.45645 11.4643 7.43811 11.4964 7.41922 11.5294C7.40306 11.5576 7.38691 11.5858 7.37026 11.6149C7.33286 11.6732 7.33286 11.6732 7.33591 11.7188C8.032 11.7188 8.7281 11.7188 9.44528 11.7188C9.52988 11.5722 9.61447 11.4255 9.70163 11.2744C9.73017 11.225 9.75871 11.1755 9.78812 11.1245C9.92059 10.8949 10.0531 10.6653 10.1855 10.4357C10.2102 10.3929 10.2349 10.3501 10.2603 10.306C10.3092 10.2211 10.3581 10.1363 10.407 10.0515C10.5205 9.85447 10.6344 9.6577 10.7495 9.46155C10.7697 9.42695 10.7899 9.39236 10.8108 9.35671C10.8483 9.29252 10.886 9.22841 10.9239 9.16439C11.0144 9.02514 11.0144 9.02514 11.0468 8.86722C10.7563 8.8583 10.4658 8.85215 10.1752 8.84791C10.0764 8.84614 9.97754 8.84374 9.87875 8.8407C9.73658 8.83643 9.59453 8.83444 9.4523 8.83289C9.40823 8.83107 9.36415 8.82926 9.31874 8.82739C9.03494 8.82721 8.92193 8.87427 8.7854 9.12793ZM11.7092 9.15098C11.6333 9.32037 11.5731 9.49003 11.5217 9.66838C11.4436 9.90416 11.3102 10.1065 11.1811 10.3174C11.1324 10.4016 11.0838 10.4858 11.0356 10.5703C10.8706 10.8557 10.7027 11.1394 10.5335 11.4224C10.5037 11.4725 10.5037 11.4725 10.4733 11.5236C10.4469 11.5676 10.4469 11.5676 10.4201 11.6125C10.3796 11.6726 10.3796 11.6726 10.3828 11.7188C10.6774 11.7317 10.972 11.7406 11.2668 11.7467C11.367 11.7492 11.4672 11.7527 11.5674 11.7571C12.0814 11.8043 12.0814 11.8043 12.5644 11.6756C12.6947 11.5459 12.7455 11.3808 12.8047 11.211C12.8518 11.1256 12.9007 11.0412 12.9513 10.9578C13.001 10.8705 13.0506 10.7832 13.1001 10.6958C13.1543 10.6003 13.2087 10.5049 13.263 10.4094C13.2767 10.3854 13.2904 10.3613 13.3045 10.3365C13.4011 10.1669 13.4985 9.99764 13.5963 9.82868C13.6097 9.80554 13.6231 9.78241 13.6368 9.75858C13.7007 9.64826 13.7646 9.538 13.8287 9.4278C13.8515 9.38833 13.8744 9.34886 13.898 9.3082C13.9179 9.27384 13.9379 9.23948 13.9584 9.20408C14.0202 9.09343 14.0769 8.98092 14.1328 8.86722C12.8053 8.6649 12.8053 8.6649 11.7092 9.15098ZM15.0703 8.86722C14.9978 8.99613 14.9253 9.12503 14.8506 9.25784C14.6666 9.58395 14.4804 9.90868 14.2915 10.232C14.2581 10.2892 14.2581 10.2892 14.224 10.3475C14.1029 10.5545 13.9813 10.7613 13.8595 10.9679C13.8341 11.011 13.8088 11.0542 13.7827 11.0986C13.7337 11.1819 13.6846 11.265 13.6354 11.3481C13.6135 11.3854 13.5916 11.4226 13.5691 11.4609C13.5497 11.4938 13.5303 11.5267 13.5102 11.5606C13.4627 11.6372 13.4627 11.6372 13.4687 11.7188C14.5773 11.7188 15.6859 11.7188 16.8281 11.7188C16.8281 10.7778 16.8281 9.83675 16.8281 8.86722C16.248 8.86722 15.6679 8.86722 15.0703 8.86722Z" fill="#034B3B"/>
</svg>
