<svg width="20" height="20" viewBox="0 0 20 20" fill="none" xmlns="http://www.w3.org/2000/svg">
<g clip-path="url(#clip0_82_13412)">
<path d="M13.9062 0.117253C13.9363 0.123956 13.9663 0.13066 13.9973 0.137566C15.283 0.429748 16.4268 1.01239 17.4219 1.87507C17.443 1.89331 17.4642 1.91156 17.486 1.93036C17.7181 2.13197 17.9288 2.34178 18.125 2.57819C18.1537 2.61082 18.1824 2.64345 18.212 2.67707C19.0229 3.61412 19.5656 4.73237 19.8437 5.93757C19.8552 5.98535 19.8552 5.98535 19.8669 6.0341C20.1122 7.09365 20.1024 8.31959 19.8437 9.37506C19.8312 9.42727 19.8312 9.42727 19.8184 9.48052C19.4408 11.0061 18.6123 12.4739 17.3828 13.4766C17.3426 13.5109 17.3023 13.5452 17.2621 13.5795C16.1729 14.4936 14.8456 15.0759 13.4375 15.2735C13.3894 15.2803 13.3412 15.2871 13.2916 15.2941C13.1228 15.3148 12.9556 15.3202 12.7856 15.3219C12.7539 15.3223 12.7222 15.3226 12.6895 15.323C11.9883 15.3297 11.3102 15.3243 10.625 15.1563C10.5902 15.1479 10.5554 15.1396 10.5195 15.1309C9.62691 14.91 8.83238 14.5345 8.04686 14.0626C8.01783 14.0918 7.98879 14.121 7.95888 14.1511C7.25193 14.8624 6.54442 15.5731 5.83631 16.2832C5.49389 16.6267 5.15165 16.9703 4.80984 17.3143C4.51187 17.6142 4.21355 17.9138 3.91481 18.213C3.7567 18.3714 3.59876 18.5299 3.44123 18.6888C3.29282 18.8386 3.14396 18.9879 2.99474 19.1368C2.94018 19.1914 2.88579 19.2462 2.83158 19.3011C2.42399 19.7141 2.08705 20.0068 1.48192 20.0123C1.06153 20.0131 0.696925 19.9119 0.390608 19.6094C0.0422577 19.198 -0.0415223 18.8109 -0.00776114 18.2813C0.0532043 17.6661 0.651806 17.2333 1.06406 16.8222C1.11954 16.7667 1.17501 16.7112 1.23047 16.6557C1.37999 16.5062 1.52963 16.3568 1.67929 16.2074C1.83608 16.0509 1.99275 15.8942 2.14943 15.7376C2.44567 15.4415 2.74201 15.1455 3.03839 14.8495C3.376 14.5123 3.71351 14.175 4.051 13.8377C4.74481 13.1443 5.43875 12.451 6.1328 11.7579C6.11437 11.7119 6.11437 11.7119 6.09557 11.665C6.07185 11.6056 6.0483 11.5461 6.02522 11.4864C5.98937 11.4093 5.95694 11.3512 5.89842 11.2891C5.81611 11.2629 5.81611 11.2629 5.72508 11.2525C5.56313 11.2285 5.56313 11.2285 5.49222 11.1522C5.37106 10.9453 5.27814 10.7352 5.1953 10.5103C5.18192 10.4745 5.16854 10.4386 5.15475 10.4016C4.44448 8.46926 4.48714 6.35046 5.33201 4.46296C5.78916 3.4794 6.45851 2.52457 7.30467 1.836C7.34719 1.80035 7.38971 1.76469 7.43223 1.72904C7.77495 1.445 8.13097 1.20025 8.51561 0.976628C8.53914 0.962743 8.56268 0.948858 8.58692 0.934552C9.21613 0.566868 9.91638 0.319817 10.625 0.156315C10.6568 0.148655 10.6887 0.140995 10.7215 0.133103C11.716 -0.0971227 12.9091 -0.11652 13.9062 0.117253Z" fill="#FAFAFA"/>
<path d="M13.9062 0.117253C13.9363 0.123956 13.9663 0.13066 13.9973 0.137566C15.283 0.429748 16.4268 1.01239 17.4219 1.87507C17.443 1.89331 17.4642 1.91156 17.486 1.93036C17.7181 2.13197 17.9288 2.34178 18.125 2.57819C18.1537 2.61082 18.1824 2.64345 18.212 2.67707C19.0229 3.61412 19.5656 4.73237 19.8437 5.93757C19.8552 5.98535 19.8552 5.98535 19.8669 6.0341C20.1122 7.09365 20.1024 8.31959 19.8437 9.37506C19.8312 9.42727 19.8312 9.42727 19.8184 9.48052C19.4408 11.0061 18.6123 12.4739 17.3828 13.4766C17.3426 13.5109 17.3023 13.5452 17.2621 13.5795C16.1729 14.4936 14.8456 15.0759 13.4375 15.2735C13.3894 15.2803 13.3412 15.2871 13.2916 15.2941C13.1228 15.3148 12.9556 15.3202 12.7856 15.3219C12.7539 15.3223 12.7222 15.3226 12.6895 15.323C11.9883 15.3297 11.3102 15.3243 10.625 15.1563C10.5902 15.1479 10.5554 15.1396 10.5195 15.1309C9.62691 14.91 8.83238 14.5345 8.04686 14.0626C8.01783 14.0918 7.98879 14.121 7.95888 14.1511C7.25193 14.8624 6.54442 15.5731 5.83631 16.2832C5.49389 16.6267 5.15165 16.9703 4.80984 17.3143C4.51187 17.6142 4.21355 17.9138 3.91481 18.213C3.7567 18.3714 3.59876 18.5299 3.44123 18.6888C3.29282 18.8386 3.14396 18.9879 2.99474 19.1368C2.94018 19.1914 2.88579 19.2462 2.83158 19.3011C2.42399 19.7141 2.08705 20.0068 1.48192 20.0123C1.06153 20.0131 0.696925 19.9119 0.390608 19.6094C0.0422577 19.198 -0.0415223 18.8109 -0.00776114 18.2813C0.0532797 17.6654 0.653864 17.2311 1.06641 16.8192C1.12215 16.7634 1.17787 16.7076 1.23359 16.6518C1.38384 16.5014 1.53421 16.3511 1.68461 16.2008C1.84223 16.0433 1.99975 15.8857 2.15729 15.7281C2.42145 15.4639 2.68569 15.1997 2.94997 14.9356C3.25575 14.63 3.56139 14.3243 3.86695 14.0186C4.12956 13.7558 4.39224 13.4931 4.65499 13.2304C4.81182 13.0736 4.96864 12.9168 5.12538 12.76C5.27243 12.6128 5.41957 12.4657 5.56679 12.3188C5.6209 12.2647 5.67498 12.2106 5.72902 12.1565C5.80252 12.0829 5.87614 12.0094 5.9498 11.9359C5.97137 11.9143 5.99294 11.8926 6.01517 11.8703C6.19999 11.6864 6.19999 11.6864 6.35985 11.6651C6.59435 11.6927 6.72541 11.9276 6.86766 12.1021C8.06237 13.534 9.73199 14.4614 11.5924 14.6717C13.3983 14.8346 15.2528 14.3692 16.6804 13.2238C16.8813 13.0535 17.0753 12.8774 17.2656 12.6954C17.3023 12.6608 17.3389 12.6262 17.3767 12.5906C18.1 11.8906 18.6502 10.9862 18.9844 10.0391C18.9943 10.0111 19.0043 9.98312 19.0146 9.95427C19.507 8.53822 19.5326 6.93285 19.0625 5.50788C19.0528 5.4781 19.0432 5.44832 19.0332 5.41764C18.4583 3.67492 17.1818 2.19862 15.5469 1.36725C13.7637 0.497574 11.8125 0.395395 9.93605 1.02424C9.59257 1.14929 9.26799 1.31388 8.9453 1.48444C8.92125 1.49709 8.89721 1.50973 8.87243 1.52276C8.36042 1.79495 7.91984 2.1403 7.49998 2.53913C7.47939 2.55844 7.45881 2.57776 7.43759 2.59766C6.52531 3.45841 5.90486 4.54342 5.54686 5.74225C5.53573 5.77821 5.5246 5.81416 5.51314 5.8512C5.06314 7.45272 5.27433 9.21989 5.99364 10.7056C6.05797 10.8488 6.0722 10.9417 6.01561 11.0938C5.93184 11.2117 5.88719 11.2447 5.74461 11.272C5.58163 11.2421 5.53673 11.1806 5.42967 11.0548C5.36891 10.9461 5.32204 10.8334 5.27586 10.7178C5.2559 10.6689 5.2559 10.6689 5.23554 10.619C4.46894 8.70228 4.45628 6.58008 5.24367 4.66452C5.70006 3.60148 6.40179 2.57073 7.30467 1.836C7.34719 1.80035 7.38971 1.76469 7.43223 1.72904C7.77495 1.445 8.13097 1.20025 8.51561 0.976628C8.53914 0.962743 8.56268 0.948858 8.58692 0.934552C9.21613 0.566868 9.91638 0.319817 10.625 0.156315C10.6568 0.148655 10.6887 0.140995 10.7215 0.133103C11.716 -0.0971227 12.9091 -0.11652 13.9062 0.117253Z" fill="#010101"/>
<path d="M16.7969 2.14832C16.9576 2.28694 17.1124 2.43123 17.2657 2.578C17.2854 2.59664 17.3051 2.61527 17.3254 2.63446C18.082 3.35294 18.6928 4.2812 19.0235 5.27332C19.033 5.30165 19.0425 5.32998 19.0523 5.35917C19.2004 5.80638 19.3049 6.24858 19.3647 6.71593C19.3744 6.79178 19.3855 6.86744 19.3967 6.94309C19.6049 8.65067 19.0914 10.5063 18.0469 11.8724C17.8665 12.0973 17.6762 12.3119 17.4771 12.5202C17.4405 12.5585 17.4041 12.5971 17.368 12.6358C16.175 13.9121 14.4163 14.6779 12.6749 14.74C12.1001 14.751 11.5409 14.7205 10.9766 14.6093C10.9479 14.6038 10.9193 14.5984 10.8897 14.5928C10.2022 14.4591 9.55949 14.1999 8.94537 13.8671C8.90454 13.845 8.8637 13.823 8.82162 13.8002C8.29984 13.5066 7.85018 13.1502 7.42193 12.7343C7.38935 12.7032 7.38935 12.7032 7.35611 12.6715C7.08563 12.4134 6.84496 12.152 6.62924 11.8462C6.57032 11.7543 6.57032 11.7543 6.48443 11.7186C6.43609 11.7251 6.38776 11.7315 6.33795 11.7382C6.25403 11.74 6.25403 11.74 6.17193 11.7186C6.03176 11.5729 5.94778 11.3908 5.85943 11.2108C5.88602 11.1834 5.91261 11.156 5.94 11.1278C6.02642 11.0239 6.02642 11.0239 6.01019 10.9134C5.96679 10.7424 5.89911 10.5881 5.8277 10.4271C5.46202 9.57795 5.25721 8.6651 5.26129 7.73914C5.26137 7.7129 5.26146 7.68666 5.26155 7.65962C5.27083 5.84158 5.92185 4.12943 7.18756 2.81238C7.21733 2.78048 7.21733 2.78048 7.2477 2.74793C7.99329 1.95086 8.92232 1.32583 9.961 0.976442C9.99027 0.966491 10.0195 0.95654 10.0497 0.946287C10.4954 0.797385 10.9377 0.694796 11.4038 0.635265C11.4787 0.625622 11.5534 0.614479 11.628 0.603212C13.4518 0.380782 15.3933 0.969587 16.7969 2.14832ZM7.73443 3.08582C7.70654 3.1117 7.67864 3.13758 7.6499 3.16425C7.04293 3.7422 6.61606 4.5095 6.28912 5.27332C6.27361 5.30947 6.2581 5.34563 6.24213 5.38288C5.73834 6.66633 5.67714 8.26767 6.13287 9.57019C6.14192 9.59747 6.15097 9.62475 6.1603 9.65286C6.48826 10.6393 7.00798 11.4848 7.73443 12.2264C7.77885 12.2738 7.77885 12.2738 7.82416 12.3221C8.57422 13.1064 9.62138 13.6707 10.6641 13.9452C10.7064 13.9567 10.7486 13.9682 10.7921 13.98C12.4111 14.3882 14.203 14.1117 15.6382 13.2665C16.0561 13.01 16.4377 12.7159 16.7969 12.3827C16.8346 12.3478 16.8723 12.3129 16.9111 12.2769C17.3347 11.8682 17.6772 11.409 17.9688 10.8983C17.9817 10.8761 17.9947 10.854 18.008 10.8311C18.8509 9.37717 19.055 7.594 18.6348 5.97301C18.1625 4.26809 17.01 2.83595 15.4799 1.96313C14.8473 1.61445 14.1984 1.39095 13.4878 1.26577C13.4126 1.25239 13.3376 1.23777 13.2627 1.22287C11.22 0.860455 9.19122 1.68153 7.73443 3.08582Z" fill="#CCC9C9"/>
<path d="M14.4923 1.52333C14.519 1.53335 14.5457 1.54337 14.5732 1.55369C16.24 2.18709 17.5554 3.4186 18.2981 5.04299C18.3321 5.11953 18.3656 5.1963 18.3985 5.27332C18.414 5.30948 18.4296 5.34563 18.4455 5.38288C19.0672 6.96665 18.9344 8.75408 18.2835 10.3012C18.0366 10.862 17.7096 11.3761 17.3048 11.8358C17.2754 11.8695 17.246 11.9032 17.2157 11.9379C17.1294 12.0353 17.0418 12.1312 16.9532 12.2264C16.9294 12.2524 16.9055 12.2784 16.8809 12.3052C15.7539 13.4849 14.0716 14.1191 12.4626 14.1568C11.4354 14.1631 10.4555 13.969 9.53135 13.5155C9.50732 13.5039 9.4833 13.4924 9.45854 13.4805C8.82426 13.1721 8.27592 12.7576 7.77354 12.2655C7.74196 12.2359 7.71039 12.2063 7.67786 12.1758C6.9276 11.4583 6.40099 10.4757 6.09385 9.49207C6.08277 9.45748 6.07169 9.42289 6.06028 9.38725C5.63412 7.88916 5.81918 6.23676 6.48447 4.84364C6.50336 4.80409 6.50336 4.80409 6.52262 4.76374C6.70681 4.38533 6.93213 4.04461 7.1876 3.71082C7.2157 3.67392 7.24379 3.63701 7.27274 3.59898C8.31993 2.2737 9.86823 1.4181 11.5389 1.19853C12.5258 1.08925 13.56 1.17078 14.4923 1.52333ZM11.8952 1.76136C10.3697 1.83166 8.95984 2.6205 7.92979 3.71815C7.03463 4.72678 6.50439 5.99578 6.44541 7.34364C6.44391 7.37621 6.4424 7.40878 6.44085 7.44234C6.37939 9.00835 6.93688 10.4884 7.9835 11.6454C8.56342 12.2683 9.22259 12.7383 10.0001 13.0858C10.0245 13.0968 10.0489 13.1078 10.074 13.1191C11.4111 13.7098 13.0129 13.7087 14.3751 13.203C14.4146 13.1889 14.4146 13.1889 14.4548 13.1745C15.9044 12.6529 17.0424 11.5171 17.7027 10.1439C18.3695 8.70236 18.434 7.07936 17.8907 5.58582C17.6437 4.93335 17.2968 4.35238 16.836 3.82801C16.794 3.77884 16.794 3.77884 16.751 3.72868C15.7031 2.5281 14.2682 1.88598 12.6954 1.7577C12.4278 1.74275 12.1629 1.75416 11.8952 1.76136Z" fill="#030303"/>
<path d="M13.3203 2.46101C13.3679 2.47385 13.4155 2.48669 13.4645 2.49992C14.4443 2.7952 15.2022 3.44971 15.7031 4.33601C15.7216 4.36808 15.7401 4.40016 15.7591 4.43321C15.9805 4.84356 16.1357 5.33702 16.1397 5.8033C16.1405 5.87995 16.1405 5.87995 16.1412 5.95814C16.1416 6.01359 16.1418 6.06904 16.1421 6.12449C16.1423 6.15256 16.1424 6.18063 16.1426 6.20955C16.1434 6.3579 16.144 6.50624 16.1443 6.65459C16.1448 6.80771 16.1461 6.96081 16.1477 7.11392C16.1487 7.23185 16.149 7.34977 16.1491 7.4677C16.1493 7.52415 16.1498 7.58061 16.1505 7.63706C16.1515 7.71596 16.1513 7.79487 16.1512 7.87377C16.1514 7.91863 16.1516 7.9635 16.1519 8.00972C16.1286 8.15049 16.0892 8.19628 15.9766 8.28132C15.8594 8.30085 15.8594 8.30085 15.7422 8.28132C15.6522 8.20839 15.5985 8.15021 15.5469 8.04695C15.5432 7.97227 15.542 7.89747 15.5419 7.82271C15.5418 7.77559 15.5416 7.72847 15.5415 7.67992C15.5415 7.62858 15.5414 7.57723 15.5414 7.52433C15.5409 7.44339 15.5403 7.36246 15.5397 7.28152C15.5382 7.08209 15.537 6.88267 15.5371 6.68324C15.537 5.67686 15.4402 4.86054 14.7656 4.06257C14.7354 4.0246 14.7052 3.98664 14.6741 3.94752C14.2052 3.38695 13.4068 3.04863 12.6953 2.96882C11.7134 2.91088 10.8937 3.17721 10.1391 3.81385C9.64662 4.26884 9.22793 4.99962 9.17214 5.67754C9.16904 5.77992 9.16823 5.88206 9.16833 5.98449C9.16807 6.02316 9.1678 6.06182 9.16753 6.10166C9.16679 6.22885 9.16664 6.35603 9.16655 6.48323C9.1663 6.57236 9.16604 6.6615 9.16577 6.75064C9.1653 6.93741 9.16515 7.12417 9.1652 7.31094C9.16521 7.54874 9.16414 7.78652 9.1628 8.02432C9.16192 8.20851 9.16177 8.3927 9.16181 8.57689C9.16172 8.66447 9.16138 8.75205 9.16077 8.83962C9.15686 9.45929 9.18308 10.0448 9.48485 10.6031C9.49829 10.6289 9.51173 10.6548 9.52557 10.6814C9.63673 10.8893 9.76727 11.072 9.92186 11.2501C9.94656 11.2838 9.94656 11.2838 9.97176 11.3181C10.3849 11.8631 11.1534 12.2092 11.8066 12.3278C12.2842 12.38 12.7857 12.3885 13.2422 12.2266C13.2837 12.2124 13.3253 12.1982 13.3681 12.1836C14.2432 11.8663 14.8552 11.333 15.2539 10.4848C15.2732 10.4409 15.2926 10.3969 15.3125 10.3516C15.3286 10.3153 15.3447 10.279 15.3613 10.2416C15.4741 9.95005 15.4969 9.65759 15.5099 9.3476C15.5207 9.17082 15.529 9.0858 15.6396 8.94172C15.7422 8.86726 15.7422 8.86726 15.8618 8.84529C16.0057 8.87283 16.0444 8.90763 16.1328 9.02351C16.2612 9.88476 15.9001 10.7732 15.4008 11.4588C14.807 12.2384 13.8944 12.8172 12.915 12.9562C12.0236 13.0359 11.2073 12.9163 10.4297 12.461C10.3914 12.4398 10.3531 12.4185 10.3137 12.3966C9.44658 11.8858 8.87314 10.9998 8.61227 10.0419C8.55554 9.80996 8.5431 9.59075 8.54333 9.35264C8.54307 9.31289 8.5428 9.27314 8.54253 9.23218C8.54179 9.10159 8.54164 8.971 8.54155 8.8404C8.5413 8.74879 8.54104 8.65717 8.54077 8.56555C8.5403 8.37367 8.54015 8.18178 8.5402 7.9899C8.54021 7.74567 8.53914 7.50145 8.5378 7.25723C8.53692 7.06794 8.53677 6.87866 8.53681 6.68937C8.53672 6.59942 8.53638 6.50948 8.53577 6.41954C8.52865 5.26035 8.82749 4.27209 9.65224 3.42887C10.1351 2.95652 10.7119 2.62583 11.3672 2.46101C11.4287 2.44356 11.4287 2.44356 11.4915 2.42576C12.0897 2.27286 12.7272 2.29912 13.3203 2.46101Z" fill="#050505"/>
<path d="M13.164 3.63272C13.2019 3.64601 13.2399 3.6593 13.2789 3.673C14.0258 3.95533 14.4945 4.50736 14.828 5.20941C14.9407 5.50179 14.9726 5.77992 14.9729 6.0916C14.9732 6.12875 14.9735 6.1659 14.9739 6.20417C14.9748 6.32608 14.9751 6.44797 14.9754 6.56988C14.9757 6.65546 14.9761 6.74104 14.9765 6.82662C14.9771 7.0058 14.9774 7.18497 14.9775 7.36415C14.9777 7.59219 14.9792 7.8202 14.981 8.04823C14.9822 8.22501 14.9824 8.40179 14.9825 8.57859C14.9826 8.66257 14.9831 8.74655 14.9839 8.83052C14.9913 9.64653 14.8544 10.3504 14.2709 10.963C14.2257 11.0084 14.2257 11.0084 14.1797 11.0546C14.1528 11.0824 14.1259 11.1102 14.0982 11.1388C13.575 11.6445 12.8874 11.8154 12.1818 11.8047C11.4621 11.7819 10.8791 11.4444 10.3906 10.9374C10.356 10.9046 10.356 10.9046 10.3207 10.8712C10.1759 10.7233 10.0864 10.5437 9.99264 10.3612C9.97961 10.3361 9.96658 10.311 9.95316 10.2851C9.75366 9.87939 9.70857 9.4916 9.70959 9.04303C9.70941 8.98972 9.7092 8.93641 9.70897 8.88309C9.70862 8.7723 9.70871 8.66151 9.7091 8.55071C9.70956 8.40889 9.70876 8.26711 9.70762 8.12529C9.70691 8.01561 9.70692 7.90594 9.70714 7.79625C9.70715 7.71861 9.70649 7.64097 9.70582 7.56334C9.70619 7.51625 9.70655 7.46916 9.70693 7.42065C9.70694 7.37926 9.70694 7.33788 9.70695 7.29525C9.73148 7.16013 9.77509 7.11397 9.88278 7.03116C9.99996 7.01162 9.99996 7.01162 10.1172 7.03116C10.2071 7.10409 10.2608 7.16227 10.3125 7.26553C10.3159 7.33563 10.3169 7.40586 10.3168 7.47604C10.3168 7.52016 10.3168 7.56428 10.3168 7.60974C10.3167 7.68181 10.3167 7.68181 10.3166 7.75534C10.3171 7.85727 10.3177 7.9592 10.3183 8.06112C10.3193 8.22165 10.3199 8.38216 10.3193 8.54269C10.3127 9.63311 10.3127 9.63311 10.8593 10.5468C10.8816 10.5706 10.904 10.5944 10.9269 10.619C11.2787 10.9602 11.7893 11.1836 12.2778 11.1815C12.8775 11.1704 13.3842 10.9884 13.8209 10.5639C14.3314 9.99408 14.3602 9.38815 14.358 8.66201C14.3582 8.57813 14.3585 8.49424 14.3588 8.41036C14.3592 8.2353 14.359 8.06025 14.3584 7.88519C14.3577 7.66205 14.3587 7.43894 14.36 7.2158C14.3609 7.04281 14.3608 6.86982 14.3605 6.69682C14.3605 6.6146 14.3607 6.53237 14.3613 6.45015C14.3655 5.7523 14.2631 5.24972 13.7848 4.71197C13.3683 4.29762 12.8286 4.12973 12.2523 4.12807C11.988 4.13244 11.7651 4.18777 11.5234 4.29678C11.4927 4.31048 11.462 4.32417 11.4303 4.33828C10.9144 4.59715 10.5627 5.04838 10.379 5.58935C10.3381 5.75852 10.3286 5.92603 10.3231 6.09961C10.3124 6.21124 10.2961 6.27442 10.2343 6.36709C10.098 6.45801 10.0432 6.46487 9.88278 6.44522C9.79824 6.38327 9.79824 6.38327 9.72653 6.28897C9.63852 5.71239 9.82305 5.14717 10.1417 4.67032C10.568 4.10064 11.157 3.64718 11.874 3.52652C12.3108 3.48589 12.7495 3.47431 13.164 3.63272Z" fill="#050505"/>
<path d="M13.1739 4.93169C13.4756 5.15829 13.6819 5.41443 13.7891 5.7813C13.8255 6.05583 13.8157 6.33508 13.8137 6.61137C13.8137 6.69206 13.8138 6.77274 13.814 6.85342C13.8141 7.02192 13.8135 7.1904 13.8125 7.3589C13.8111 7.57391 13.8114 7.78888 13.8121 8.00388C13.8125 8.17031 13.8121 8.33673 13.8116 8.50315C13.8114 8.58239 13.8114 8.66162 13.8116 8.74086C13.8127 9.2894 13.7972 9.77528 13.3985 10.1954C13.1159 10.4648 12.795 10.6302 12.4 10.6397C12.3291 10.6364 12.2582 10.6315 12.1876 10.625C12.1387 10.6209 12.1387 10.6209 12.0888 10.6167C11.7085 10.5632 11.3889 10.3383 11.1498 10.0437C10.9379 9.73066 10.8581 9.39873 10.8985 9.02348C10.962 8.9185 10.962 8.9185 11.0548 8.86723C11.1719 8.8477 11.1719 8.8477 11.2891 8.86723C11.3791 8.94017 11.4328 8.99835 11.4844 9.10161C11.4875 9.15448 11.4898 9.20738 11.4918 9.2603C11.5194 9.51654 11.6395 9.70609 11.8365 9.87019C12.0614 10.0136 12.2775 10.0446 12.5391 10C12.796 9.92269 12.967 9.8039 13.1132 9.57854C13.2314 9.28763 13.1974 8.95426 13.1953 8.64507C13.1954 8.56584 13.1956 8.48661 13.1959 8.40738C13.1963 8.24176 13.1958 8.07617 13.1947 7.91055C13.1934 7.69893 13.1941 7.48739 13.1955 7.27578C13.1964 7.1123 13.1961 6.94884 13.1955 6.78537C13.1953 6.70738 13.1955 6.62938 13.1961 6.55139C13.2144 6.02369 13.2144 6.02369 12.989 5.56388C12.7986 5.3839 12.5852 5.30267 12.3243 5.28569C12.0821 5.29838 11.9018 5.39067 11.7188 5.54692C11.5426 5.75839 11.4799 5.95146 11.4789 6.22456C11.4786 6.26628 11.4784 6.30799 11.4781 6.35097C11.4779 6.39582 11.4777 6.44066 11.4776 6.48686C11.4767 6.58177 11.4757 6.67668 11.4748 6.77159C11.4734 6.92127 11.4722 7.07094 11.4717 7.22062C11.4711 7.36505 11.4695 7.50944 11.4678 7.65385C11.4679 7.6987 11.468 7.74354 11.468 7.78974C11.4674 7.83146 11.4668 7.87317 11.4661 7.91615C11.4659 7.95281 11.4656 7.98946 11.4654 8.02723C11.4393 8.15474 11.3902 8.20168 11.2891 8.2813C11.1719 8.30083 11.1719 8.30083 11.0548 8.2813C10.9498 8.19971 10.904 8.15277 10.8779 8.02096C10.8774 7.98132 10.8769 7.94168 10.8764 7.90084C10.8756 7.85569 10.8747 7.81054 10.8738 7.76403C10.8737 7.71528 10.8737 7.66654 10.8736 7.61632C10.8732 7.56581 10.8728 7.51531 10.8723 7.46328C10.8716 7.35616 10.8714 7.24906 10.8717 7.14194C10.8719 7.03304 10.8711 6.92422 10.8693 6.81533C10.8495 5.59377 10.8495 5.59377 11.2597 5.13664C11.7807 4.61739 12.5597 4.52374 13.1739 4.93169Z" fill="#040404"/>
<path d="M15.1172 2.46094C16.3971 3.03843 17.3766 4.27293 17.8801 5.55878C18.0078 5.89993 18.102 6.24214 18.1641 6.60156C18.1721 6.64396 18.1801 6.68636 18.1883 6.73004C18.4344 8.23342 18.0654 9.80983 17.1875 11.0547C17.1364 11.1206 17.0842 11.1856 17.0312 11.25C17.0147 11.2703 16.9982 11.2906 16.9812 11.3116C16.4773 11.9294 15.924 12.4127 15.2344 12.8125C15.2344 12.6953 15.2344 12.6953 15.2931 12.635C15.3197 12.6138 15.3462 12.5926 15.3735 12.5708C16.4782 11.6381 17.1762 9.96873 17.3047 8.55469C17.3222 8.2709 17.324 7.98688 17.3242 7.70264C17.3244 7.66772 17.3246 7.63281 17.3247 7.59684C17.3261 6.91431 17.2656 6.23341 17.063 5.57861C17.0512 5.53964 17.0395 5.50067 17.0273 5.46051C16.9143 5.09761 16.7731 4.75306 16.6016 4.41406C16.5882 4.38751 16.5748 4.36096 16.561 4.33361C16.233 3.69448 15.7767 2.98891 15.1732 2.58423C15.1547 2.56932 15.1362 2.55442 15.1172 2.53906C15.1172 2.51328 15.1172 2.4875 15.1172 2.46094Z" fill="#C1ECFC"/>
<path d="M5.03906 13.7109C5.20317 13.7904 5.31302 13.8911 5.44189 14.0186C5.46387 14.0393 5.48585 14.0599 5.5085 14.0813C5.57083 14.1428 5.57083 14.1428 5.66406 14.2578C5.65438 14.3984 5.58603 14.4679 5.48937 14.5651C5.46029 14.5946 5.43121 14.6241 5.40125 14.6546C5.36913 14.6866 5.337 14.7186 5.30391 14.7516C5.27024 14.7856 5.23658 14.8195 5.2019 14.8546C5.10954 14.9477 5.01693 15.0405 4.92417 15.1332C4.84679 15.2106 4.76958 15.2881 4.69237 15.3657C4.51028 15.5485 4.32788 15.731 4.14529 15.9133C3.95676 16.1016 3.76882 16.2905 3.58114 16.4796C3.42006 16.6418 3.25861 16.8037 3.09686 16.9653C3.00022 17.0619 2.90373 17.1586 2.80761 17.2557C2.70051 17.3638 2.59265 17.4711 2.48469 17.5784C2.45281 17.6108 2.42092 17.6432 2.38807 17.6766C2.34396 17.7201 2.34396 17.7201 2.29895 17.7644C2.27351 17.7899 2.24806 17.8153 2.22185 17.8416C2.14844 17.8906 2.14844 17.8906 2.06493 17.8822C1.97888 17.846 1.9308 17.8036 1.86584 17.7367C1.83223 17.7025 1.83223 17.7025 1.79794 17.6676C1.77503 17.6437 1.75212 17.6198 1.72852 17.5952C1.69324 17.5591 1.69324 17.5591 1.65726 17.5224C1.59936 17.4631 1.54183 17.4034 1.48438 17.3438C1.53983 17.2177 1.60662 17.1337 1.70388 17.0367C1.74792 16.9925 1.74792 16.9925 1.79285 16.9474C1.82508 16.9155 1.8573 16.8835 1.89051 16.8506C1.92443 16.8167 1.95835 16.7828 1.9933 16.7478C2.0862 16.6549 2.17928 16.5623 2.27244 16.4696C2.36981 16.3728 2.46696 16.2757 2.56413 16.1786C2.74811 15.9948 2.93228 15.8113 3.11653 15.6278C3.3263 15.4189 3.53586 15.2098 3.74539 15.0007C4.17637 14.5705 4.60762 14.1406 5.03906 13.7109Z" fill="#454241"/>
<path d="M5.66406 14.2969C5.88521 14.4804 6.08798 14.6776 6.28906 14.8828C6.23361 15.0089 6.16682 15.0929 6.06956 15.1898C6.0402 15.2193 6.01084 15.2488 5.98059 15.2791C5.94836 15.3111 5.91613 15.343 5.88293 15.3759C5.83205 15.4268 5.83205 15.4268 5.78014 15.4788C5.68723 15.5716 5.59416 15.6643 5.501 15.7569C5.40363 15.8538 5.30648 15.9509 5.20931 16.048C5.02533 16.2317 4.84116 16.4153 4.65691 16.5987C4.44713 16.8076 4.23758 17.0167 4.02804 17.2259C3.59707 17.656 3.16581 18.0859 2.73438 18.5156C2.62085 18.4611 2.54019 18.409 2.45178 18.3188C2.42937 18.2961 2.40697 18.2735 2.38388 18.2501C2.36097 18.2266 2.33806 18.203 2.31445 18.1787C2.29094 18.1548 2.26742 18.131 2.24319 18.1064C2.18539 18.0477 2.12783 17.9887 2.07031 17.9297C2.24525 17.7547 2.4204 17.5799 2.59556 17.4051C2.92835 17.0729 3.26104 16.7407 3.59367 16.4084C3.79489 16.2073 3.99616 16.0063 4.1975 15.8054C4.37357 15.6298 4.54957 15.454 4.72549 15.2782C4.81851 15.1852 4.91156 15.0923 5.0047 14.9994C5.10832 14.8961 5.21182 14.7926 5.31528 14.6891C5.36173 14.6429 5.36173 14.6429 5.40912 14.5957C5.43716 14.5676 5.46519 14.5396 5.49408 14.5106C5.51857 14.4862 5.54305 14.4617 5.56827 14.4365C5.62863 14.3768 5.62863 14.3768 5.66406 14.2969Z" fill="#282726"/>
<path d="M6.32812 12.4219C6.46257 12.554 6.59162 12.6901 6.71922 12.8288C7.00305 13.1378 7.00305 13.1378 7.31461 13.4183C7.40728 13.4975 7.49192 13.5857 7.57812 13.6719C7.30742 13.9426 7.03672 14.2133 6.75781 14.4922C6.6329 14.4297 6.57561 14.3978 6.48342 14.3048C6.46154 14.2829 6.43965 14.261 6.4171 14.2385C6.39398 14.2149 6.37086 14.1914 6.34705 14.1672C6.32299 14.143 6.29893 14.1188 6.27415 14.0939C6.19755 14.0169 6.12124 13.9396 6.04492 13.8623C5.99296 13.8099 5.94098 13.7576 5.88898 13.7053C5.76171 13.5772 5.6347 13.4488 5.50781 13.3203C5.56694 13.181 5.64864 13.0923 5.75592 12.9865C5.78915 12.9535 5.82239 12.9205 5.85663 12.8865C5.89137 12.8524 5.92612 12.8183 5.96191 12.7832C5.99696 12.7485 6.03201 12.7138 6.06812 12.6781C6.15461 12.5925 6.24129 12.5071 6.32812 12.4219Z" fill="#B7B3B2"/>
<path d="M12.4609 5.85931C12.5451 5.91888 12.5451 5.91888 12.6171 6.01556C12.6325 6.12614 12.6385 6.22151 12.6373 6.33203C12.6376 6.36381 12.6379 6.39558 12.6382 6.42832C12.6389 6.53326 12.6384 6.63816 12.6379 6.7431C12.638 6.81607 12.6381 6.88904 12.6383 6.96201C12.6386 7.1149 12.6382 7.26778 12.6375 7.42067C12.6366 7.61666 12.6371 7.81262 12.6381 8.00861C12.6386 8.15928 12.6384 8.30994 12.638 8.4606C12.6379 8.53287 12.6381 8.60513 12.6384 8.6774C12.6388 8.7784 12.6382 8.87935 12.6373 8.98035C12.6377 9.01022 12.638 9.0401 12.6383 9.07088C12.6361 9.2068 12.6273 9.28311 12.5451 9.3935C12.43 9.47491 12.3645 9.47606 12.2265 9.45306C12.1423 9.3935 12.1423 9.3935 12.0702 9.29681C12.0548 9.18624 12.0489 9.09087 12.05 8.98035C12.0498 8.94857 12.0495 8.9168 12.0492 8.88406C12.0485 8.77912 12.049 8.67422 12.0495 8.56928C12.0494 8.49631 12.0492 8.42334 12.049 8.35037C12.0488 8.19748 12.0491 8.0446 12.0499 7.89171C12.0508 7.69572 12.0503 7.49976 12.0493 7.30377C12.0488 7.1531 12.0489 7.00244 12.0493 6.85178C12.0494 6.77951 12.0493 6.70725 12.049 6.63498C12.0486 6.53398 12.0492 6.43303 12.05 6.33203C12.0497 6.30216 12.0494 6.27228 12.0491 6.2415C12.0512 6.10558 12.06 6.02926 12.1423 5.91888C12.2574 5.83747 12.3229 5.83631 12.4609 5.85931Z" fill="#010101"/>
<path d="M1.01568 17.7344C1.12543 17.7844 1.20529 17.8362 1.29007 17.9218C1.3229 17.9546 1.3229 17.9546 1.35639 17.9881C1.37951 18.0116 1.40263 18.0352 1.42645 18.0594C1.4505 18.0836 1.47456 18.1077 1.49934 18.1326C1.57594 18.2096 1.65226 18.2869 1.72857 18.3643C1.78053 18.4166 1.83252 18.469 1.88452 18.5213C2.01178 18.6494 2.13879 18.7778 2.26568 18.9062C2.16 19.1296 1.98319 19.2819 1.76275 19.3921C1.49467 19.4403 1.25345 19.451 1.01126 19.3124C0.806116 19.1604 0.632061 18.9669 0.585993 18.7109C0.55727 18.441 0.582235 18.2315 0.742243 18.0078C0.828508 17.9108 0.91918 17.8211 1.01568 17.7344Z" fill="#CDCACA"/>
<path d="M6.32812 12.4219C6.46706 12.5588 6.60011 12.6994 6.73096 12.8442C6.76545 12.8824 6.79994 12.9205 6.83548 12.9597C6.86141 12.9885 6.88734 13.0173 6.91406 13.0469C6.74851 13.2448 6.57523 13.4297 6.3916 13.6108C6.36658 13.6357 6.34155 13.6605 6.31577 13.6861C6.25487 13.7466 6.19389 13.8069 6.13281 13.8672C6.0227 13.8171 5.94327 13.7652 5.85876 13.6789C5.83812 13.658 5.81747 13.6371 5.7962 13.6156C5.77516 13.5939 5.75411 13.5722 5.73242 13.5498C5.71077 13.5278 5.68912 13.5058 5.66681 13.4831C5.61363 13.429 5.5607 13.3747 5.50781 13.3203C5.56694 13.181 5.64864 13.0923 5.75592 12.9865C5.78915 12.9535 5.82239 12.9205 5.85663 12.8865C5.89137 12.8524 5.92612 12.8183 5.96191 12.7832C5.99696 12.7485 6.03201 12.7138 6.06812 12.6781C6.15461 12.5925 6.24129 12.5071 6.32812 12.4219Z" fill="#CECBCB"/>
<path d="M1.64062 18.3203C1.86177 18.5038 2.06454 18.7011 2.26562 18.9062C2.16888 19.1303 1.97808 19.2844 1.7627 19.3921C1.48036 19.4429 1.25587 19.4404 0.999756 19.3034C0.9375 19.2578 0.9375 19.2578 0.859375 19.1406C0.881654 19.1186 0.903932 19.0965 0.926886 19.0737C1.02737 18.9741 1.1277 18.8742 1.22803 18.7744C1.2631 18.7397 1.29817 18.7049 1.3343 18.6691C1.36766 18.6359 1.40102 18.6027 1.43539 18.5684C1.46628 18.5377 1.49717 18.5071 1.529 18.4754C1.60366 18.4036 1.60366 18.4036 1.64062 18.3203Z" fill="#B5B1B0"/>
</g>
<defs>
<clipPath id="clip0_82_13412">
<rect width="20" height="20" fill="white"/>
</clipPath>
</defs>
</svg>
