<svg width="30" height="30" viewBox="0 0 30 30" fill="none" xmlns="http://www.w3.org/2000/svg">
<path d="M2.95114 25.7661C3.01473 25.7658 3.01473 25.7658 3.0796 25.7655C3.22169 25.7649 3.36378 25.7652 3.50587 25.7655C3.60876 25.7653 3.71165 25.765 3.81453 25.7647C4.09732 25.764 4.38009 25.764 4.66288 25.7641C4.96784 25.7642 5.27279 25.7635 5.57775 25.763C6.17524 25.762 6.77272 25.7617 7.37021 25.7616C7.85582 25.7615 8.34144 25.7613 8.82705 25.7609C10.2036 25.7599 11.5801 25.7594 12.9566 25.7594C13.068 25.7594 13.068 25.7594 13.1815 25.7595C13.2559 25.7595 13.3302 25.7595 13.4067 25.7595C14.6113 25.7595 15.8158 25.7584 17.0203 25.7567C18.2568 25.7551 19.4933 25.7543 20.7298 25.7544C21.4242 25.7544 22.1185 25.7541 22.8128 25.7528C23.4039 25.7517 23.995 25.7515 24.5862 25.7523C24.8878 25.7527 25.1894 25.7527 25.491 25.7517C25.7672 25.7507 26.0433 25.7509 26.3195 25.7519C26.4193 25.7521 26.5192 25.7519 26.619 25.7512C27.7071 25.7446 27.7071 25.7446 28.1149 26.112C28.4004 26.4078 28.5403 26.7492 28.5571 27.1581C28.5397 27.599 28.3789 27.9296 28.0664 28.2421C27.7139 28.4901 27.4307 28.5424 27.0064 28.5428C26.9643 28.5429 26.9222 28.543 26.8788 28.5431C26.7371 28.5435 26.5954 28.5434 26.4537 28.5433C26.3513 28.5435 26.249 28.5436 26.1466 28.5438C25.8648 28.5443 25.583 28.5444 25.3012 28.5445C24.9975 28.5446 24.6937 28.545 24.39 28.5454C23.7256 28.5462 23.0613 28.5465 22.3969 28.5468C21.9822 28.547 21.5675 28.5472 21.1527 28.5475C20.0049 28.5482 18.8571 28.5488 17.7092 28.549C17.599 28.549 17.599 28.549 17.4866 28.549C17.4129 28.549 17.3392 28.5491 17.2634 28.5491C17.1141 28.5491 16.9648 28.5491 16.8155 28.5492C16.7415 28.5492 16.6675 28.5492 16.5912 28.5492C15.3912 28.5494 14.1911 28.5504 12.9911 28.5518C11.7596 28.5532 10.528 28.5539 9.29648 28.554C8.60482 28.5541 7.91315 28.5544 7.22148 28.5555C6.63256 28.5564 6.04365 28.5567 5.45472 28.5562C5.15419 28.5559 4.85367 28.556 4.55314 28.5568C4.27802 28.5576 4.00291 28.5575 3.72778 28.5568C3.62826 28.5567 3.52873 28.5569 3.42921 28.5574C2.40258 28.5623 2.40258 28.5623 1.91895 28.2275C1.62088 27.9294 1.46138 27.6035 1.44653 27.1801C1.45333 26.8043 1.55845 26.4708 1.80679 26.1845C2.15849 25.8597 2.4715 25.7666 2.95114 25.7661Z" fill="#F79831"/>
<path d="M3.07188 1.74281C3.11394 1.74262 3.156 1.74244 3.19934 1.74224C3.33997 1.74176 3.48058 1.7421 3.62121 1.74245C3.72318 1.74227 3.82515 1.74204 3.92712 1.74177C4.2071 1.74117 4.48707 1.74129 4.76705 1.74155C5.06909 1.74169 5.37113 1.74116 5.67317 1.74072C6.26481 1.73998 6.85645 1.73987 7.4481 1.74001C7.92896 1.74011 8.40983 1.74001 8.89069 1.73976C8.95911 1.73973 9.02753 1.73969 9.09802 1.73965C9.237 1.73958 9.37599 1.73951 9.51497 1.73944C10.8186 1.7388 12.1223 1.73893 13.426 1.73929C14.6187 1.73959 15.8115 1.73893 17.0043 1.73782C18.2289 1.73668 19.4535 1.7362 20.6781 1.73642C21.3657 1.73653 22.0532 1.73638 22.7408 1.73556C23.3261 1.73486 23.9115 1.73478 24.4968 1.73549C24.7954 1.73583 25.0941 1.73589 25.3927 1.73519C25.6662 1.73456 25.9396 1.73474 26.2131 1.73556C26.3119 1.73571 26.4108 1.73557 26.5096 1.73511C27.5755 1.73041 27.5755 1.73041 28.0554 2.03971C28.3647 2.34901 28.5341 2.68309 28.5571 3.12003C28.5459 3.49178 28.4396 3.82723 28.1911 4.10834C27.8484 4.42061 27.5807 4.52619 27.1127 4.5267C27.0701 4.52691 27.0276 4.52711 26.9838 4.52733C26.8408 4.52787 26.6979 4.52758 26.5549 4.5273C26.4516 4.52752 26.3482 4.52779 26.2448 4.5281C25.9605 4.52882 25.6761 4.5288 25.3917 4.52867C25.0852 4.52864 24.7786 4.52929 24.4721 4.52985C23.8714 4.53082 23.2706 4.53114 22.6699 4.53121C22.1817 4.53126 21.6935 4.5315 21.2053 4.53187C19.8216 4.53291 18.438 4.53345 17.0543 4.53336C16.9424 4.53335 16.9424 4.53335 16.8282 4.53334C16.7161 4.53334 16.7161 4.53334 16.6018 4.53333C15.3908 4.53328 14.1798 4.5344 12.9688 4.53606C11.7258 4.53774 10.4829 4.53855 9.23997 4.53845C8.54194 4.53841 7.84393 4.53873 7.14591 4.53999C6.55163 4.54106 5.95735 4.54132 5.36307 4.54052C5.05981 4.54014 4.75656 4.54013 4.4533 4.54115C4.17568 4.54206 3.89808 4.5419 3.62046 4.54088C3.52003 4.5407 3.4196 4.54091 3.31918 4.54156C2.31984 4.54762 2.31984 4.54762 1.87568 4.18112C1.58235 3.82462 1.42646 3.47386 1.44424 3.00582C1.50463 2.6106 1.68908 2.30833 1.99218 2.05069C2.02844 2.01806 2.06469 1.98543 2.10205 1.95182C2.40266 1.76614 2.72628 1.74305 3.07188 1.74281Z" fill="#F79831"/>
<path d="M6.52587 9.99036C6.59883 9.98854 6.67179 9.98673 6.74697 9.98486C7.21639 10.0572 7.54391 10.3891 7.86833 10.7159C7.90812 10.7553 7.94791 10.7947 7.98891 10.8352C8.11912 10.9644 8.24869 11.0942 8.37821 11.224C8.46905 11.3146 8.55992 11.4052 8.65081 11.4957C8.84066 11.685 9.03018 11.8747 9.21948 12.0646C9.46177 12.3075 9.70499 12.5496 9.94847 12.7913C10.1361 12.9779 10.3232 13.1651 10.5102 13.3523C10.5996 13.4418 10.6893 13.5311 10.7791 13.6202C10.9046 13.7448 11.0294 13.8702 11.1539 13.9958C11.1909 14.0322 11.2279 14.0686 11.266 14.1061C11.5715 14.4168 11.7431 14.7159 11.748 15.1649C11.7508 15.2471 11.7508 15.2471 11.7535 15.3309C11.6235 16.0656 11.0463 16.5338 10.54 17.034C10.452 17.1218 10.3641 17.2098 10.2762 17.2978C10.0926 17.4813 9.90842 17.6644 9.72389 17.847C9.48791 18.0807 9.25299 18.3154 9.01839 18.5504C8.83717 18.7318 8.6555 18.9128 8.47369 19.0936C8.38691 19.1799 8.30024 19.2664 8.21369 19.353C8.09258 19.474 7.97091 19.5944 7.84906 19.7147C7.81374 19.7502 7.77842 19.7857 7.74202 19.8223C7.39651 20.161 7.04348 20.3947 6.54784 20.4054C6.12458 20.3985 5.79097 20.2567 5.48102 19.968C5.19766 19.6402 5.13034 19.2892 5.12511 18.8655C5.24421 18.1999 5.70084 17.8195 6.16698 17.3695C6.30036 17.2396 6.43356 17.1096 6.56678 16.9795C6.63298 16.9149 6.69919 16.8503 6.7654 16.7858C6.81446 16.7379 6.86351 16.69 6.91405 16.6407C6.83543 16.6402 6.83543 16.6402 6.75521 16.6397C6.25956 16.6363 5.76392 16.6321 5.26828 16.6269C5.01351 16.6243 4.75875 16.622 4.50397 16.6204C4.25777 16.6189 4.01159 16.6165 3.76541 16.6136C3.67181 16.6126 3.57821 16.612 3.48461 16.6116C2.25065 16.6063 2.25065 16.6063 1.81639 16.172C1.52377 15.7874 1.4048 15.4202 1.46483 14.9415C1.57274 14.4949 1.78326 14.1976 2.16796 13.9454C2.41226 13.8248 2.6353 13.8104 2.90297 13.8096C2.96818 13.8087 2.96818 13.8087 3.03471 13.8078C3.17769 13.806 3.32067 13.805 3.46366 13.804C3.56308 13.8029 3.6625 13.8017 3.76192 13.8005C4.02306 13.7975 4.2842 13.7952 4.54534 13.793C4.81203 13.7907 5.07872 13.7877 5.34541 13.7848C5.86828 13.7791 6.39116 13.7741 6.91405 13.7697C6.87298 13.7295 6.83192 13.6894 6.78961 13.648C6.63572 13.4973 6.48244 13.346 6.32933 13.1946C6.26328 13.1294 6.19708 13.0644 6.13072 12.9996C5.15426 12.0451 5.15426 12.0451 5.14159 11.382C5.14926 10.9072 5.28688 10.617 5.6243 10.2858C5.91557 10.0624 6.16039 9.99337 6.52587 9.99036Z" fill="#F79831"/>
<path d="M16.5254 13.7543C16.5718 13.7541 16.6182 13.7539 16.666 13.7536C16.8209 13.753 16.9758 13.7532 17.1307 13.7535C17.242 13.7532 17.3533 13.7529 17.4645 13.7526C17.7665 13.7518 18.0684 13.7518 18.3703 13.7519C18.6225 13.752 18.8747 13.7517 19.1269 13.7514C19.722 13.7507 20.317 13.7507 20.9121 13.7511C21.5257 13.7514 22.1392 13.7507 22.7528 13.7495C23.2798 13.7484 23.8069 13.7481 24.334 13.7483C24.6487 13.7484 24.9633 13.7482 25.278 13.7474C25.5739 13.7467 25.8699 13.7468 26.1659 13.7475C26.2743 13.7477 26.3828 13.7475 26.4913 13.747C26.6397 13.7464 26.788 13.7469 26.9364 13.7476C26.979 13.7472 27.0216 13.7468 27.0656 13.7463C27.5369 13.7513 27.9063 13.9023 28.2423 14.2383C28.5059 14.6131 28.5753 14.9605 28.5352 15.4102C28.4495 15.804 28.2398 16.1227 27.9119 16.3579C27.4374 16.6071 26.9001 16.5558 26.3793 16.5529C26.2674 16.5531 26.1555 16.5534 26.0436 16.5538C25.7408 16.5547 25.4381 16.554 25.1353 16.553C24.818 16.5522 24.5006 16.5526 24.1833 16.5528C23.6505 16.553 23.1177 16.5522 22.5849 16.5508C21.9694 16.5493 21.354 16.5492 20.7385 16.5498C20.1457 16.5505 19.5529 16.5501 18.9601 16.5493C18.7081 16.5489 18.4562 16.549 18.2042 16.5492C17.9074 16.5495 17.6106 16.5489 17.3138 16.5477C17.2051 16.5473 17.0964 16.5473 16.9876 16.5476C16.8388 16.5479 16.6901 16.5472 16.5413 16.5462C16.4986 16.5465 16.4559 16.5469 16.4119 16.5473C16.0406 16.5427 15.7224 16.4587 15.4285 16.2195C15.3838 16.1651 15.3391 16.1108 15.293 16.0547C15.2657 16.0243 15.2384 15.9939 15.2102 15.9625C14.96 15.6404 14.9573 15.3138 14.9719 14.916C15.0305 14.4811 15.267 14.2368 15.5894 13.9586C15.8841 13.7725 16.1857 13.7525 16.5254 13.7543Z" fill="#F79831"/>
<path d="M16.4101 7.77734C16.4574 7.77707 16.5047 7.77681 16.5534 7.77653C16.7117 7.77579 16.87 7.77589 17.0284 7.77598C17.1419 7.77563 17.2555 7.77523 17.3691 7.77479C17.6776 7.77376 17.986 7.77348 18.2945 7.77341C18.4873 7.77332 18.68 7.77307 18.8728 7.77276C19.5454 7.77168 20.218 7.7712 20.8906 7.77129C21.5174 7.77136 22.1441 7.77013 22.7709 7.76827C23.3092 7.76674 23.8474 7.76611 24.3857 7.76619C24.7071 7.76622 25.0285 7.76589 25.3499 7.76464C25.6523 7.76351 25.9547 7.7635 26.257 7.76435C26.3678 7.76448 26.4787 7.7642 26.5895 7.76349C26.7411 7.76258 26.8927 7.76313 27.0443 7.76403C27.1096 7.76313 27.1096 7.76313 27.1763 7.76221C27.5444 7.76703 27.8402 7.88903 28.1244 8.12351C28.4172 8.47938 28.5758 8.83175 28.5549 9.29951C28.4882 9.75378 28.2601 10.0329 27.9264 10.3343C27.5916 10.5433 27.2151 10.5642 26.8293 10.5622C26.7838 10.5624 26.7383 10.5626 26.6914 10.5629C26.5403 10.5635 26.3891 10.5632 26.2379 10.563C26.129 10.5633 26.0201 10.5636 25.9112 10.5639C25.6163 10.5647 25.3214 10.5647 25.0265 10.5646C24.78 10.5645 24.5335 10.5648 24.287 10.5651C23.7053 10.5657 23.1236 10.5658 22.5419 10.5654C21.9425 10.5651 21.343 10.5658 20.7436 10.567C20.2282 10.5681 19.7129 10.5684 19.1976 10.5682C18.8901 10.5681 18.5826 10.5683 18.2751 10.5691C17.9859 10.5698 17.6967 10.5697 17.4075 10.5689C17.3017 10.5688 17.1958 10.569 17.0899 10.5694C15.798 10.5749 15.798 10.5749 15.2733 10.0702C14.9656 9.72562 14.9685 9.37574 14.9799 8.92849C15.0236 8.4988 15.2084 8.25293 15.5345 7.98206C15.8176 7.79727 16.079 7.77597 16.4101 7.77734Z" fill="#F79831"/>
<path d="M16.7443 19.7383C16.789 19.7381 16.8337 19.738 16.8798 19.7379C17.029 19.7375 17.1782 19.7376 17.3275 19.7376C17.4347 19.7374 17.5419 19.7372 17.6492 19.737C17.9401 19.7365 18.231 19.7363 18.5219 19.7363C18.7038 19.7363 18.8856 19.7361 19.0674 19.736C19.7021 19.7354 20.3367 19.7352 20.9713 19.7353C21.5625 19.7353 22.1537 19.7347 22.7448 19.7337C23.2528 19.733 23.7607 19.7327 24.2686 19.7327C24.5718 19.7327 24.875 19.7326 25.1782 19.7319C25.4634 19.7314 25.7486 19.7314 26.0338 19.7318C26.1383 19.7318 26.2428 19.7317 26.3473 19.7314C26.4903 19.7309 26.6332 19.7312 26.7762 19.7316C26.8378 19.7312 26.8378 19.7312 26.9006 19.7307C27.3912 19.7341 27.804 19.8396 28.1622 20.1917C28.4581 20.5155 28.5627 20.8142 28.5495 21.2524C28.5033 21.6892 28.2854 22.0436 27.9493 22.3242C27.6448 22.4794 27.3952 22.5255 27.0526 22.5227C26.9815 22.5232 26.9815 22.5232 26.9089 22.5237C26.751 22.5245 26.593 22.5241 26.4351 22.5237C26.3215 22.524 26.2079 22.5244 26.0943 22.5249C25.7863 22.526 25.4783 22.5259 25.1703 22.5256C24.913 22.5254 24.6557 22.5257 24.3984 22.5261C23.7914 22.5269 23.1843 22.5268 22.5773 22.5262C21.9514 22.5255 21.3255 22.5263 20.6996 22.5279C20.1618 22.5292 19.624 22.5296 19.0862 22.5292C18.7652 22.529 18.4442 22.5292 18.1232 22.5302C17.8213 22.5311 17.5194 22.5308 17.2175 22.5297C17.1069 22.5295 16.9963 22.5297 16.8856 22.5303C16.7343 22.5311 16.583 22.5304 16.4317 22.5294C16.3882 22.5299 16.3447 22.5305 16.2999 22.5311C15.9311 22.5259 15.6304 22.405 15.3503 22.1633C15.3242 22.1306 15.298 22.0979 15.2711 22.0642C15.2441 22.0317 15.217 21.9991 15.1892 21.9656C14.9413 21.5858 14.9608 21.1812 15.0001 20.7422C15.0972 20.3732 15.3356 20.1338 15.6446 19.9219C15.9902 19.7449 16.3627 19.7374 16.7443 19.7383Z" fill="#F79831"/>
</svg>
