<svg width="20" height="20" viewBox="0 0 20 20" fill="none" xmlns="http://www.w3.org/2000/svg">
<g clip-path="url(#clip0_82_13396)">
<path d="M7.06547 -0.0145657C7.09908 -0.0145444 7.13269 -0.0145232 7.16733 -0.0145013C7.70797 -0.0129329 8.22435 0.0208148 8.75004 0.156333C8.80076 0.169201 8.80076 0.169201 8.8525 0.18233C9.30641 0.30084 9.73318 0.462836 10.1563 0.664145C10.2254 0.696019 10.2254 0.696019 10.2959 0.728537C10.9973 1.06313 11.5854 1.54097 12.1485 2.0704C12.1733 2.09316 12.1982 2.11592 12.2239 2.13936C12.4613 2.36428 12.6549 2.63058 12.8516 2.89071C12.8767 2.92379 12.9018 2.95687 12.9276 2.99096C13.9207 4.35597 14.2238 5.96152 14.235 7.61681C14.2357 7.68746 14.2365 7.7581 14.2373 7.82874C14.2392 8.01156 14.2408 8.19437 14.2423 8.37719C14.2438 8.56499 14.2458 8.75279 14.2478 8.94059C14.2515 9.30677 14.2548 9.67296 14.2578 10.0391C14.2786 10.0041 14.2993 9.96914 14.3207 9.93308C14.3993 9.80041 14.478 9.66777 14.5567 9.53513C14.5904 9.47824 14.6242 9.42136 14.6579 9.36446C14.8804 8.98902 15.1048 8.61485 15.3321 8.24227C15.585 7.82719 15.8342 7.41003 16.0818 6.99173C16.3866 6.47689 16.6962 5.9651 17.0079 5.45438C17.0502 5.3847 17.0908 5.31387 17.1296 5.24213C17.1875 5.15633 17.1875 5.15633 17.3079 5.13177C17.9535 5.14326 18.4957 5.3186 18.9757 5.76394C19.3725 6.20045 19.6381 6.77301 19.8169 7.32918C19.8264 7.35853 19.8359 7.38787 19.8456 7.4181C19.9799 7.85799 20.0137 8.29188 20.0124 8.7493C20.0122 8.83732 20.0132 8.92529 20.0142 9.0133C20.018 9.83477 19.7813 10.5567 19.4424 11.2983C19.1812 11.8716 18.9472 12.4481 18.75 13.047C18.7355 13.0905 18.7355 13.0905 18.7206 13.1349C18.2795 14.4677 18.1248 15.8797 18.1127 17.2764C18.1119 17.3553 18.1111 17.4342 18.1102 17.5131C18.1081 17.719 18.1061 17.9249 18.1042 18.1308C18.1019 18.3788 18.0993 18.6268 18.0968 18.8748C18.093 19.2499 18.0895 19.625 18.086 20.0001C17.4286 20.0001 16.7711 20.0001 16.0938 20.0001C16.0934 19.8007 16.0931 19.6013 16.0927 19.3959C16.0914 18.7386 16.0892 18.0813 16.0866 17.4239C16.085 17.0252 16.0838 16.6266 16.0832 16.2279C16.0827 15.8804 16.0816 15.533 16.0799 15.1856C16.079 15.0016 16.0784 14.8175 16.0785 14.6335C16.0785 14.4604 16.0778 14.2873 16.0766 14.1142C16.0762 14.0506 16.0762 13.9869 16.0764 13.9233C16.0766 13.8366 16.0759 13.7499 16.075 13.6632C16.0749 13.6147 16.0747 13.5661 16.0746 13.516C16.0653 13.3961 16.0653 13.3961 15.9845 13.3226C15.8574 13.2616 15.7595 13.2919 15.625 13.3204C15.6147 13.348 15.6043 13.3756 15.5936 13.4041C15.5446 13.5213 15.4872 13.6287 15.4248 13.7394C15.4007 13.7825 15.3765 13.8257 15.3516 13.8701C15.3388 13.8927 15.3261 13.9154 15.313 13.9387C15.2459 14.0579 15.1794 14.1775 15.113 14.2971C15.0997 14.3209 15.0865 14.3446 15.0729 14.3691C15.0356 14.4362 14.9983 14.5033 14.961 14.5704C14.9416 14.6052 14.9222 14.6401 14.9022 14.676C14.5405 15.3288 14.2633 16.0163 13.9894 16.7097C12.9648 19.3021 12.9648 19.3021 11.836 19.8499C11.4695 20.0044 11.1071 20.0172 10.7156 20.0159C10.6549 20.0161 10.5943 20.0164 10.5337 20.0167C10.3702 20.0174 10.2066 20.0173 10.0431 20.0171C9.90598 20.017 9.76884 20.0172 9.6317 20.0175C9.30773 20.018 8.98376 20.018 8.65979 20.0175C8.32711 20.0171 7.99444 20.0176 7.66176 20.0187C7.37483 20.0195 7.08789 20.0198 6.80095 20.0196C6.63016 20.0194 6.45937 20.0195 6.28858 20.0202C6.12772 20.0208 5.96687 20.0206 5.806 20.0199C5.7475 20.0198 5.68899 20.0199 5.63048 20.0203C4.8458 20.0254 4.15817 19.8113 3.55472 19.297C3.49551 19.2535 3.49551 19.2535 3.4351 19.2091C3.14787 18.966 2.91692 18.6173 2.87861 18.241C2.8643 17.87 2.93787 17.5854 3.16898 17.2926C3.44723 17.0054 3.8265 16.9112 4.2017 16.8092C4.78212 16.6448 5.35887 16.4443 5.89848 16.172C5.87199 16.1719 5.8455 16.1718 5.81821 16.1718C5.17297 16.1703 4.52774 16.168 3.88251 16.1648C3.57048 16.1632 3.25845 16.162 2.94641 16.1614C2.67436 16.1609 2.40232 16.1598 2.13028 16.1581C1.9863 16.1572 1.84233 16.1566 1.69835 16.1567C1.53741 16.1567 1.37649 16.1555 1.21555 16.1542C1.1681 16.1544 1.12064 16.1546 1.07174 16.1548C0.799403 16.1515 0.623351 16.1203 0.390662 15.9766C0.356019 15.9557 0.321375 15.9348 0.285682 15.9132C-0.0838244 15.5337 -0.0274651 15.0574 -0.0246152 14.5636C-0.0248161 14.4752 -0.0251007 14.3869 -0.0254622 14.2986C-0.0261843 14.0592 -0.0256807 13.8199 -0.0249121 13.5806C-0.0242701 13.3292 -0.0246163 13.0779 -0.0248149 12.8265C-0.0249914 12.404 -0.0243764 11.9814 -0.0232801 11.5589C-0.0221569 11.126 -0.0218755 10.6931 -0.022479 10.2602C-0.0232078 9.73672 -0.0231329 9.21325 -0.0223926 8.68978C-0.022126 8.49076 -0.0221625 8.29173 -0.0224528 8.0927C-0.0227553 7.85736 -0.0222682 7.62203 -0.0212088 7.38668C-0.0209431 7.301 -0.0209326 7.21531 -0.0212172 7.12963C-0.0258176 5.56218 0.45678 4.0637 1.40629 2.81258C1.42859 2.78197 1.4509 2.75135 1.47388 2.71981C1.76612 2.32727 2.11471 1.94328 2.50004 1.64071C2.52131 1.62391 2.54259 1.60712 2.56451 1.58982C3.5318 0.831174 4.60895 0.310674 5.82035 0.0782078C5.85567 0.0712526 5.891 0.0642975 5.92739 0.0571316C6.30672 -0.00990411 6.68149 -0.015479 7.06547 -0.0145657ZM4.33597 1.28915C4.29388 1.30888 4.25178 1.32862 4.20841 1.34896C2.72323 2.06489 1.61221 3.38085 1.03901 4.91204C0.794882 5.61325 0.655317 6.32682 0.6641 7.0704C0.87035 7.0704 1.0766 7.0704 1.2891 7.0704C1.29247 7.01551 1.29585 6.96062 1.29932 6.90407C1.35166 6.14921 1.46853 5.41482 1.79691 4.72665C1.81722 4.68371 1.81722 4.68371 1.83794 4.6399C2.51775 3.22579 3.68951 2.14483 5.17216 1.61599C5.79451 1.40807 6.40994 1.31897 7.06303 1.31844C7.09194 1.31842 7.12085 1.31839 7.15064 1.31836C7.82348 1.31934 8.42912 1.41075 9.06254 1.64071C9.08926 1.65037 9.11599 1.66003 9.14352 1.66999C9.87202 1.93899 10.5949 2.34325 11.1223 2.92275C11.1702 2.9777 11.1702 2.9777 11.25 2.96883C11.2596 2.99089 11.2691 3.01294 11.2789 3.03567C11.3374 3.14176 11.4085 3.21777 11.4917 3.30575C12.451 4.35831 12.7927 5.69241 12.9297 7.0704C13.1231 7.0704 13.3164 7.0704 13.5157 7.0704C13.5522 6.10328 13.3105 5.16458 12.8907 4.29696C12.8786 4.27208 12.8666 4.24721 12.8542 4.22158C12.132 2.75316 10.7971 1.55755 9.24684 1.0241C8.80095 0.876389 8.35572 0.768325 7.89066 0.703208C7.85416 0.698072 7.81765 0.692936 7.78004 0.687644C7.67347 0.675531 7.56814 0.66872 7.46098 0.664145C7.43617 0.663082 7.41136 0.662018 7.38581 0.660922C6.31682 0.621893 5.2992 0.826462 4.33597 1.28915ZM3.7891 3.16415C3.75128 3.19672 3.71347 3.2293 3.67451 3.26287C3.03195 3.8278 2.56821 4.51414 2.26566 5.31258C2.25625 5.33733 2.24684 5.36207 2.23715 5.38756C2.03764 5.92765 1.95316 6.49614 1.95316 7.0704C5.3434 7.0704 8.73363 7.0704 12.2266 7.0704C12.2266 5.96252 11.9027 4.95761 11.25 4.06258C11.2252 4.02819 11.2004 3.9938 11.1748 3.95837C10.3487 2.87401 9.14864 2.2085 7.81254 1.99227C7.78293 1.98713 7.75332 1.982 7.72282 1.97671C6.3291 1.77683 4.84547 2.25146 3.7891 3.16415ZM17.4984 5.95685C17.4715 6.00228 17.4455 6.04819 17.4201 6.09444C17.4057 6.1192 17.3913 6.14395 17.3765 6.16946C17.3291 6.25131 17.2828 6.33369 17.2364 6.4161C17.2033 6.47352 17.1702 6.53089 17.137 6.58822C17.086 6.67618 17.0351 6.76417 16.9845 6.85231C16.8289 7.12322 16.6672 7.38998 16.5039 7.65633C16.2665 8.04518 16.0329 8.43614 15.8008 8.82821C15.5688 9.22028 15.3349 9.61109 15.0977 10.0001C14.8743 10.3665 14.6536 10.7343 14.435 11.1036C12.0106 15.1976 12.0106 15.1976 10.2582 15.7023C9.66454 15.8398 8.90621 15.8793 8.33851 15.6187C8.21132 15.5755 8.13628 15.5881 8.00785 15.6251C7.91766 15.6863 7.91766 15.6863 7.83207 15.7691C6.8498 16.6082 5.61218 17.1247 4.38389 17.4778C4.23647 17.5211 4.09057 17.5675 3.94535 17.6177C3.9104 17.6298 3.87546 17.6419 3.83945 17.6543C3.70456 17.7163 3.65355 17.7967 3.59379 17.9298C3.52945 18.1136 3.56432 18.1539 3.63285 18.3595C4.14847 18.3595 4.6641 18.3595 5.19535 18.3595C5.19535 18.5915 5.19535 18.8235 5.19535 19.0626C4.96332 19.0626 4.73129 19.0626 4.49222 19.0626C4.64202 19.1749 4.75658 19.221 4.93308 19.264C4.9607 19.2708 4.98833 19.2775 5.01679 19.2845C5.30259 19.3496 5.58375 19.3578 5.8761 19.3556C5.93329 19.3558 5.99047 19.356 6.04766 19.3563C6.20083 19.3568 6.35399 19.3564 6.50716 19.3557C6.66849 19.3552 6.82981 19.3554 6.99113 19.3556C7.26161 19.3557 7.53208 19.3552 7.80256 19.3542C8.11437 19.3532 8.42617 19.3531 8.73798 19.3536C9.03948 19.354 9.34099 19.3538 9.6425 19.3532C9.77017 19.353 9.89784 19.353 10.0255 19.3532C10.1759 19.3534 10.3263 19.353 10.4767 19.3521C10.5315 19.3519 10.5864 19.3519 10.6413 19.3521C11.1929 19.3538 11.6426 19.2426 12.0581 18.8624C12.2295 18.6816 12.3433 18.46 12.461 18.2423C12.2797 18.3007 12.1003 18.3619 11.9228 18.431C10.7385 18.8887 9.54764 19.024 8.28754 19.0359C8.21481 19.0367 8.14209 19.0375 8.06936 19.0383C7.87999 19.0405 7.69061 19.0424 7.50124 19.0443C7.30718 19.0463 7.11312 19.0485 6.91906 19.0506C6.5398 19.0548 6.16055 19.0587 5.78129 19.0626C5.78129 18.8306 5.78129 18.5985 5.78129 18.3595C5.88565 18.3601 5.99002 18.3607 6.09755 18.3613C6.44585 18.3633 6.79415 18.3646 7.14246 18.3655C7.35324 18.3661 7.56401 18.367 7.77479 18.3683C7.97894 18.3696 8.18307 18.3703 8.38722 18.3706C8.46436 18.3708 8.54149 18.3712 8.61863 18.3718C9.97775 18.3827 11.2945 18.0839 12.5047 17.4578C12.5782 17.422 12.5782 17.422 12.7169 17.3699C13.0762 17.2099 13.1733 16.965 13.313 16.6114C13.3663 16.4705 13.4178 16.3292 13.4682 16.1873C13.5342 16.003 13.6061 15.8213 13.6792 15.6397C13.6918 15.6082 13.7044 15.5768 13.7173 15.5443C14.0295 14.7677 14.4353 14.0375 14.8609 13.318C14.8798 13.2857 14.8987 13.2534 14.9181 13.2201C15.0493 13.0015 15.1861 12.8035 15.42 12.6856C15.4431 12.6733 15.4663 12.6611 15.4901 12.6484C15.586 12.6173 15.586 12.6173 15.6636 12.6206C15.7679 12.6226 15.8395 12.6153 15.9375 12.5782C16.0678 12.4399 16.1579 12.2808 16.2525 12.1168C16.3042 12.0311 16.3559 11.9453 16.4077 11.8597C16.4331 11.8169 16.4585 11.7741 16.4847 11.73C16.678 11.4112 16.8914 11.1049 17.107 10.8009C17.1271 10.7725 17.1472 10.7441 17.1679 10.7149C17.7161 9.94353 18.3025 9.19735 18.9252 8.48493C18.966 8.43825 19.0065 8.39131 19.0466 8.34408C19.0942 8.28975 19.1455 8.23864 19.1973 8.18825C19.2899 8.03196 19.2583 7.90662 19.2188 7.73446C19.1852 7.61213 19.1442 7.49413 19.0992 7.37557C19.0872 7.34354 19.0752 7.3115 19.0628 7.2785C18.8853 6.82042 18.6551 6.33043 18.2251 6.06454C18.1897 6.04218 18.1543 6.01982 18.1179 5.99679C17.7915 5.81948 17.7915 5.81948 17.4984 5.95685ZM0.6641 7.77352C0.6641 8.52118 0.6641 9.26883 0.6641 10.0391C0.936852 10.1315 0.936852 10.1315 1.21164 10.209C1.24619 10.2177 1.28075 10.2264 1.31635 10.2354C1.35295 10.2444 1.38955 10.2535 1.42726 10.2629C1.48658 10.2778 1.48658 10.2778 1.54711 10.2929C1.67668 10.3254 1.8063 10.3577 1.93592 10.3899C2.02631 10.4125 2.11671 10.4351 2.2071 10.4578C2.3959 10.505 2.58473 10.5521 2.77358 10.5991C3.01606 10.6595 3.25849 10.7201 3.50091 10.7808C3.68724 10.8274 3.87359 10.8739 4.05995 10.9204C4.1494 10.9427 4.23885 10.9651 4.32829 10.9874C4.45282 11.0186 4.57738 11.0496 4.70195 11.0806C4.7391 11.0899 4.77626 11.0992 4.81454 11.1088C4.84832 11.1172 4.8821 11.1256 4.9169 11.1342C4.94633 11.1415 4.97576 11.1489 5.00609 11.1564C5.0786 11.1747 5.0786 11.1747 5.15629 11.172C5.15629 10.6692 5.15629 10.1665 5.15629 9.64852C6.44535 9.64852 7.73441 9.64852 9.06254 9.64852C9.06254 10.1513 9.06254 10.654 9.06254 11.172C9.62755 11.0472 9.62755 11.0472 10.1897 10.9119C10.2264 10.9027 10.2631 10.8936 10.3009 10.8841C10.4188 10.8546 10.5367 10.825 10.6546 10.7954C10.7377 10.7746 10.8208 10.7538 10.9039 10.733C11.12 10.6789 11.3362 10.6246 11.5523 10.5704C11.813 10.505 12.0737 10.4397 12.3343 10.3744C12.7281 10.2758 13.1219 10.177 13.5157 10.0782C13.5157 9.31766 13.5157 8.55711 13.5157 7.77352C9.27465 7.77352 5.03363 7.77352 0.6641 7.77352ZM19.2969 9.06258C19.2319 9.13483 19.1688 9.20779 19.1065 9.28231C19.0871 9.30535 19.0678 9.32838 19.0478 9.35212C18.8385 9.60268 18.6371 9.85891 18.4375 10.1173C18.4139 10.1477 18.3903 10.1781 18.3659 10.2095C17.8263 10.9051 17.3266 11.6242 16.856 12.3683C16.814 12.4341 16.771 12.4993 16.7273 12.564C16.7051 12.598 16.6829 12.6321 16.66 12.6672C16.6395 12.6978 16.619 12.7285 16.5979 12.7601C16.5524 12.8504 16.5524 12.8504 16.5882 12.9413C16.6142 12.9936 16.6142 12.9936 16.6407 13.047C16.7821 13.3408 16.7751 13.6224 16.7747 13.9436C16.7751 14.0025 16.7755 14.0614 16.7759 14.1203C16.777 14.2796 16.7774 14.4388 16.7776 14.598C16.778 14.7647 16.779 14.9313 16.78 15.098C16.7817 15.4133 16.7828 15.7285 16.7837 16.0438C16.7847 16.4029 16.7865 16.762 16.7882 17.121C16.7919 17.8594 16.7946 18.5977 16.7969 19.336C16.9903 19.336 17.1836 19.336 17.3828 19.336C17.3836 19.2748 17.3844 19.2135 17.3852 19.1504C17.4286 15.8267 17.4286 15.8267 17.6563 14.6095C17.6652 14.5614 17.6741 14.5133 17.6833 14.4638C17.8893 13.3803 18.2169 12.3336 18.6719 11.3282C19.0177 10.5618 19.2678 9.90425 19.336 9.06258C19.3231 9.06258 19.3102 9.06258 19.2969 9.06258ZM5.82035 10.3516C5.82035 10.545 5.82035 10.7384 5.82035 10.9376C6.65824 10.9376 7.49613 10.9376 8.35941 10.9376C8.35941 10.7442 8.35941 10.5509 8.35941 10.3516C7.52152 10.3516 6.68363 10.3516 5.82035 10.3516ZM0.6641 10.7813C0.662275 11.3592 0.660897 11.9372 0.660052 12.5151C0.659649 12.7834 0.6591 13.0518 0.658206 13.3201C0.657344 13.5789 0.65689 13.8378 0.656687 14.0966C0.656543 14.1955 0.656261 14.2944 0.65584 14.3932C0.655275 14.5315 0.655194 14.6697 0.655231 14.8079C0.65495 14.849 0.654669 14.8901 0.654379 14.9324C0.654487 14.9701 0.654594 15.0078 0.654705 15.0466C0.654633 15.0793 0.654561 15.112 0.654487 15.1457C0.66543 15.2467 0.685227 15.3065 0.742225 15.3907C0.87122 15.4827 0.993721 15.4795 1.14885 15.4814C1.17391 15.4818 1.19896 15.4822 1.22478 15.4826C1.30866 15.4838 1.39255 15.4845 1.47644 15.4851C1.53664 15.4859 1.59684 15.4867 1.65704 15.4875C1.85482 15.4899 2.05261 15.4915 2.2504 15.4929C2.301 15.4933 2.301 15.4933 2.35261 15.4937C2.67118 15.4961 2.98976 15.4982 3.30834 15.4995C3.71467 15.5012 4.12091 15.5045 4.52721 15.51C4.81347 15.5137 5.09972 15.5155 5.38601 15.5161C5.55667 15.5165 5.72724 15.5177 5.89787 15.5208C6.79235 15.5666 6.79235 15.5666 7.56373 15.1815C7.60318 15.1416 7.64188 15.1009 7.67965 15.0594C7.7686 14.9631 7.86437 14.8841 7.96879 14.8048C8.12114 14.8069 8.2506 14.8775 8.38871 14.939C9.03737 15.2129 9.72736 15.2109 10.3894 14.9731C10.9466 14.7326 11.3739 14.3269 11.7578 13.8673C11.7918 13.8289 11.8257 13.7906 11.8607 13.7512C12.3282 13.2221 12.7271 12.6484 13.0959 12.047C13.1613 11.9406 13.2287 11.8373 13.3019 11.7361C13.5312 11.4069 13.5546 11.1724 13.5157 10.7813C13.2329 10.8298 12.9546 10.8879 12.6763 10.9574C12.6378 10.9668 12.5994 10.9763 12.5598 10.9861C12.4344 11.017 12.3091 11.0482 12.1837 11.0793C12.0961 11.101 12.0084 11.1227 11.9208 11.1444C11.7379 11.1897 11.5551 11.235 11.3722 11.2804C11.1375 11.3387 10.9028 11.3968 10.668 11.4549C10.4874 11.4995 10.3069 11.5443 10.1263 11.5891C10.0397 11.6106 9.95306 11.632 9.86645 11.6534C9.7459 11.6832 9.62539 11.7132 9.50488 11.7432C9.46894 11.752 9.43301 11.7609 9.39598 11.7701C9.3633 11.7782 9.33062 11.7864 9.29695 11.7948C9.25425 11.8054 9.25425 11.8054 9.21069 11.8162C9.13751 11.8346 9.13751 11.8346 9.06254 11.8751C9.06176 11.8969 9.06099 11.9187 9.06019 11.9412C9.05642 12.0421 9.05216 12.1429 9.04789 12.2437C9.04668 12.2781 9.04547 12.3124 9.04423 12.3477C9.02739 12.7279 8.98902 13.043 8.71097 13.3204C8.40991 13.5347 8.11405 13.5439 7.75486 13.5403C7.70099 13.5403 7.64712 13.5404 7.59326 13.5406C7.48103 13.5407 7.36884 13.5401 7.25662 13.539C7.11354 13.5377 6.97052 13.5379 6.82744 13.5387C6.71644 13.5391 6.60545 13.5387 6.49446 13.5381C6.41631 13.5378 6.33816 13.5381 6.26001 13.5384C5.93468 13.5342 5.71086 13.5031 5.45933 13.2827C5.43828 13.2573 5.41723 13.2318 5.39555 13.2056C5.37389 13.1803 5.35224 13.155 5.32993 13.1289C5.21666 12.9645 5.18526 12.8167 5.17918 12.6189C5.17767 12.5755 5.17615 12.5321 5.1746 12.4873C5.17339 12.4424 5.17218 12.3975 5.17094 12.3512C5.16943 12.3055 5.16791 12.2598 5.16636 12.2127C5.16268 12.1002 5.15934 11.9876 5.15629 11.8751C4.40883 11.6853 3.66133 11.4957 2.91374 11.3064C2.85195 11.2908 2.79016 11.2751 2.72837 11.2595C2.69852 11.2519 2.66868 11.2444 2.63793 11.2366C2.45882 11.1912 2.27973 11.1458 2.10066 11.1003C1.91228 11.0525 1.72387 11.0048 1.53541 10.9573C1.47082 10.941 1.40625 10.9246 1.34169 10.9082C1.25447 10.886 1.1672 10.864 1.0799 10.8421C1.03291 10.8302 0.985922 10.8183 0.937509 10.806C0.814824 10.776 0.814824 10.776 0.6641 10.7813ZM5.82035 11.6407C5.71461 12.5658 5.71461 12.5658 5.9766 12.8516C6.09279 12.8904 6.16979 12.8959 6.29107 12.8964C6.33123 12.8966 6.37138 12.8969 6.41275 12.8971C6.45609 12.8972 6.49942 12.8972 6.54407 12.8973C6.6109 12.8975 6.6109 12.8975 6.67907 12.8977C6.77334 12.8979 6.86762 12.898 6.96189 12.8979C7.10626 12.898 7.25061 12.8987 7.39498 12.8995C7.48651 12.8996 7.57804 12.8997 7.66956 12.8997C7.73445 12.9001 7.73445 12.9001 7.80064 12.9006C7.84092 12.9004 7.8812 12.9003 7.9227 12.9002C7.97577 12.9003 7.97577 12.9003 8.02992 12.9004C8.1333 12.8899 8.19444 12.8691 8.28129 12.8126C8.49845 12.4868 8.35941 12.0322 8.35941 11.6407C7.52152 11.6407 6.68363 11.6407 5.82035 11.6407Z" fill="#C86400"/>
</g>
<defs>
<clipPath id="clip0_82_13396">
<rect width="20" height="20" fill="white"/>
</clipPath>
</defs>
</svg>
