<svg width="20" height="20" viewBox="0 0 20 20" fill="none" xmlns="http://www.w3.org/2000/svg">
<g clip-path="url(#clip0_82_13509)">
<path d="M2.32544 1.04346C2.36404 1.04307 2.36404 1.04307 2.40343 1.04266C2.48847 1.04192 2.5735 1.04177 2.65854 1.04169C2.71764 1.04144 2.77675 1.04117 2.83586 1.0409C2.95972 1.04043 3.08357 1.04029 3.20744 1.04033C3.36625 1.04034 3.52505 1.03927 3.68386 1.03793C3.80591 1.03706 3.92795 1.0369 4.05 1.03694C4.10856 1.03685 4.16712 1.0365 4.22567 1.0359C4.30751 1.03514 4.38929 1.03536 4.47113 1.03583C4.5177 1.03572 4.56428 1.03561 4.61226 1.03549C4.72641 1.05481 4.72641 1.05481 4.80001 1.1242C4.84568 1.21522 4.85841 1.26878 4.85876 1.36975C4.85913 1.40052 4.8595 1.43128 4.85988 1.46298C4.85964 1.49586 4.85941 1.52874 4.85916 1.56262C4.85927 1.59671 4.85939 1.6308 4.8595 1.66592C4.85958 1.73789 4.85936 1.80987 4.85887 1.88184C4.85825 1.99192 4.85887 2.10195 4.85962 2.21204C4.85954 2.28202 4.85939 2.35201 4.85916 2.422C4.8594 2.45488 4.85964 2.48776 4.85988 2.52164C4.85832 2.65166 4.85212 2.75226 4.80356 2.87366C4.72641 2.92981 4.72641 2.92981 4.41391 2.92981C4.41391 3.32942 4.41391 3.72903 4.41391 4.14075C4.5686 4.14075 4.72328 4.14075 4.88266 4.14075C5.21518 4.23575 5.46314 4.40429 5.66391 4.68762C5.81709 4.96607 5.82572 5.23327 5.82397 5.54288C5.82389 5.59839 5.82389 5.59839 5.82381 5.65502C5.82359 5.77282 5.8231 5.89062 5.8226 6.00842C5.8224 6.08845 5.82223 6.16849 5.82207 6.24852C5.82164 6.44437 5.82096 6.64021 5.82016 6.83606C5.84136 6.82523 5.86256 6.81441 5.8844 6.80325C5.91234 6.7891 5.94029 6.77495 5.96908 6.76038C5.99673 6.74633 6.02437 6.73228 6.05286 6.7178C6.31746 6.59183 6.70925 6.58592 6.98868 6.67844C7.07992 6.72375 7.07992 6.72375 7.15622 6.77045C7.22772 6.80604 7.22772 6.80604 7.30606 6.76953C7.38058 6.72025 7.4407 6.66866 7.50473 6.60657C7.79053 6.36004 8.08833 6.30116 8.46069 6.31329C8.83698 6.35563 9.07606 6.53727 9.33578 6.797C9.5389 6.59488 9.74185 6.3926 9.94471 6.19022C10.0137 6.12142 10.0827 6.05265 10.1518 5.98392C10.2512 5.88501 10.3504 5.78598 10.4497 5.68692C10.4805 5.65631 10.5113 5.62571 10.543 5.59417C10.6836 5.45365 10.8153 5.31361 10.9373 5.15637C11.0304 5.09034 11.0719 5.07634 11.1858 5.08633C11.4404 5.16281 11.6042 5.43662 11.7285 5.65915C11.8746 5.93663 11.9993 6.21672 12.0702 6.52356C12.0925 6.50609 12.1148 6.48861 12.1378 6.47061C12.7373 6.02358 13.3681 5.95097 14.0933 6.03238C14.2737 6.07206 14.3504 6.09657 14.4554 6.25256C14.4759 6.32535 14.4759 6.32535 14.492 6.40637C14.4998 6.43593 14.5075 6.46549 14.5155 6.49594C14.6216 6.94052 14.5607 7.33432 14.453 7.77356C14.487 7.76419 14.5211 7.75483 14.5561 7.74518C14.9987 7.63501 15.3632 7.64433 15.7686 7.86725C16.0533 8.06377 16.2479 8.33535 16.328 8.672C16.3502 8.85424 16.3617 9.03539 16.367 9.21887C16.4033 9.21243 16.4395 9.20598 16.4769 9.19934C16.8414 9.14967 17.2341 9.1539 17.578 9.297C17.8197 9.61994 17.8031 10.0447 17.7733 10.4298C17.7281 10.736 17.627 10.99 17.4608 11.2501C17.5236 11.2465 17.5236 11.2465 17.5877 11.2428C17.7342 11.2501 17.7342 11.2501 17.8204 11.2887C17.9288 11.4103 17.9118 11.5398 17.9076 11.6945C17.9071 11.727 17.9066 11.7595 17.9062 11.7929C17.8925 12.3084 17.7994 12.8167 17.6952 13.3204C17.7193 13.305 17.7435 13.2896 17.7684 13.2737C17.9125 13.1837 18.02 13.1278 18.1908 13.1105C18.3847 13.191 18.4569 13.3359 18.5545 13.5157C18.5764 13.556 18.5764 13.556 18.5988 13.5971C18.6559 13.7234 18.6538 13.809 18.6327 13.9454C18.4576 14.1474 18.2041 14.2891 17.9822 14.4334C17.947 14.4565 17.9119 14.4796 17.8756 14.5033C17.7643 14.5763 17.6528 14.6491 17.5414 14.7218C17.4654 14.7715 17.3895 14.8213 17.3136 14.871C17.1284 14.9924 16.9431 15.1135 16.7577 15.2345C17.2831 15.1456 17.8081 15.0557 18.3315 14.9553C18.4074 14.9408 18.4834 14.9263 18.5594 14.9118C18.6727 14.8902 18.7859 14.8684 18.8991 14.8462C19.0059 14.8252 19.1128 14.8048 19.2197 14.7844C19.2516 14.7779 19.2835 14.7715 19.3165 14.7649C19.51 14.7285 19.6955 14.6996 19.8729 14.8073C20.0087 15.0177 20.0488 15.3419 19.9998 15.5861C19.8772 15.7424 19.769 15.7717 19.5767 15.806C19.5502 15.811 19.5237 15.8159 19.4964 15.8209C19.4091 15.837 19.3217 15.8521 19.2343 15.8673C19.1735 15.8783 19.1127 15.8894 19.0519 15.9005C18.8921 15.9296 18.7321 15.958 18.5721 15.9862C18.3777 16.0206 18.1834 16.0558 17.989 16.091C17.8378 16.1183 17.6867 16.1455 17.5354 16.1723C17.4937 16.1797 17.4937 16.1797 17.4512 16.1873C17.3761 16.2006 17.3011 16.2139 17.2261 16.2272C17.1078 16.2478 17.1078 16.2478 16.992 16.2892C17.0171 16.2949 17.0422 16.3006 17.0681 16.3065C17.3292 16.3658 17.5903 16.4254 17.8513 16.4852C17.9487 16.5074 18.0462 16.5296 18.1437 16.5518C18.2837 16.5836 18.4237 16.6156 18.5637 16.6478C18.6073 16.6576 18.6509 16.6675 18.6959 16.6776C18.7365 16.687 18.7772 16.6964 18.8191 16.706C18.8727 16.7183 18.8727 16.7183 18.9274 16.7307C19.0503 16.7656 19.1493 16.7979 19.2299 16.8995C19.2711 17.0373 19.2518 17.1649 19.2332 17.3048C19.2305 17.3326 19.2277 17.3604 19.2249 17.389C19.2094 17.513 19.1852 17.608 19.12 17.715C18.8321 17.8894 18.379 17.7292 18.0649 17.671C18.0067 17.6605 17.9485 17.65 17.8904 17.6395C17.7383 17.612 17.5863 17.5842 17.4344 17.5563C17.2788 17.5278 17.1233 17.4996 16.9677 17.4714C16.6632 17.4162 16.3589 17.3606 16.0545 17.3048C16.0608 17.3406 16.067 17.3764 16.0735 17.4133C16.1314 17.7759 16.1525 18.1637 15.9373 18.4767C15.7442 18.7217 15.5018 18.8817 15.1952 18.9454C15.1237 18.949 15.0521 18.9505 14.9805 18.9506C14.9366 18.9507 14.8927 18.9509 14.8475 18.951C14.7993 18.951 14.751 18.951 14.7013 18.9509C14.6501 18.951 14.5988 18.9512 14.546 18.9513C14.4037 18.9516 14.2613 18.9517 14.1189 18.9517C13.9654 18.9518 13.8119 18.9521 13.6584 18.9523C13.3225 18.9528 12.9867 18.9531 12.6508 18.9533C12.441 18.9534 12.2312 18.9535 12.0213 18.9537C11.44 18.9542 10.8587 18.9546 10.2775 18.9547C10.2402 18.9547 10.203 18.9547 10.1647 18.9547C10.1087 18.9548 10.1087 18.9548 10.0517 18.9548C9.97608 18.9548 9.9005 18.9548 9.82491 18.9548C9.78742 18.9548 9.74993 18.9548 9.7113 18.9548C9.10459 18.955 8.49787 18.9557 7.89116 18.9566C7.26784 18.9575 6.64451 18.958 6.02119 18.958C5.67139 18.9581 5.3216 18.9583 4.9718 18.959C4.67375 18.9596 4.3757 18.9598 4.07764 18.9595C3.92575 18.9593 3.77387 18.9594 3.62198 18.9599C3.48252 18.9604 3.34307 18.9604 3.20361 18.9599C3.13011 18.9598 3.05661 18.9603 2.98311 18.9607C2.11456 18.9558 1.35544 18.6646 0.717925 18.0681C0.159759 17.4733 -0.0259209 16.8001 -0.0125128 16.0026C-0.00210119 15.7382 0.0487121 15.517 0.156097 15.2736C0.171153 15.2385 0.186209 15.2035 0.201721 15.1674C0.304167 14.9472 0.433911 14.759 0.585784 14.5704C0.612371 14.535 0.638958 14.4995 0.666351 14.463C0.742034 14.3751 0.742034 14.3751 0.842926 14.3144C0.963853 14.1921 0.960635 14.1257 0.962852 13.9591C0.962328 13.9239 0.961805 13.8887 0.961266 13.8525C0.961482 13.8149 0.961698 13.7774 0.961921 13.7387C0.962413 13.6126 0.961513 13.4866 0.960626 13.3605C0.9607 13.2702 0.960863 13.1799 0.961106 13.0896C0.96145 12.895 0.961185 12.7004 0.960456 12.5058C0.959321 12.198 0.959623 11.8903 0.960139 11.5825C0.960751 11.1509 0.960736 10.7193 0.960187 10.2877C0.960153 10.2603 0.960118 10.2329 0.960082 10.2047C0.95994 10.0938 0.959795 9.9828 0.959646 9.87184C0.959238 9.56681 0.958916 9.26177 0.958661 8.95673C0.958638 8.92944 0.958615 8.90214 0.958592 8.87402C0.958229 8.41834 0.958488 7.96267 0.959142 7.50699C0.959531 7.20112 0.959136 6.89526 0.95813 6.58939C0.957654 6.3989 0.957819 6.20841 0.958153 6.01792C0.958174 5.92969 0.957927 5.84146 0.95739 5.75323C0.956691 5.63258 0.956956 5.51197 0.957451 5.39133C0.957015 5.35659 0.956578 5.32185 0.956129 5.28606C0.959404 4.95803 1.07338 4.68004 1.29486 4.43646C1.61684 4.16282 1.92739 4.14075 2.3436 4.14075C2.3436 3.74114 2.3436 3.34153 2.3436 2.92981C2.24047 2.92981 2.13735 2.92981 2.0311 2.92981C1.93721 2.83592 1.94301 2.81441 1.94224 2.68628C1.94168 2.63505 1.94168 2.63505 1.94111 2.58279C1.94115 2.54584 1.94119 2.50889 1.94122 2.47082C1.94106 2.43297 1.94089 2.39512 1.94072 2.35612C1.94049 2.276 1.94047 2.19587 1.94064 2.11575C1.94076 1.9928 1.93985 1.86989 1.93886 1.74695C1.93877 1.66923 1.93874 1.59151 1.93878 1.51379C1.93842 1.47685 1.93806 1.4399 1.93769 1.40183C1.93793 1.36768 1.93818 1.33353 1.93843 1.29834C1.9384 1.26821 1.93838 1.23809 1.93835 1.20705C1.94318 1.18259 1.948 1.15813 1.95297 1.13293C2.0936 1.03918 2.15818 1.04453 2.32544 1.04346Z" fill="#F6931E"/>
<path d="M2.3255 1.04346C2.36411 1.04307 2.36411 1.04307 2.40349 1.04266C2.48853 1.04192 2.57356 1.04177 2.6586 1.04169C2.71771 1.04144 2.77681 1.04117 2.83592 1.0409C2.95978 1.04043 3.08364 1.04029 3.2075 1.04033C3.36632 1.04034 3.52511 1.03927 3.68392 1.03793C3.80597 1.03706 3.92801 1.0369 4.05006 1.03694C4.10862 1.03685 4.16718 1.0365 4.22574 1.0359C4.30757 1.03514 4.38935 1.03536 4.47119 1.03583C4.51777 1.03572 4.56434 1.03561 4.61233 1.03549C4.72647 1.05481 4.72647 1.05481 4.80007 1.1242C4.84575 1.21522 4.85847 1.26878 4.85882 1.36975C4.85919 1.40052 4.85956 1.43128 4.85994 1.46298C4.8597 1.49586 4.85947 1.52874 4.85922 1.56262C4.85934 1.59671 4.85945 1.6308 4.85956 1.66592C4.85964 1.73789 4.85943 1.80987 4.85894 1.88184C4.85831 1.99192 4.85893 2.10195 4.85968 2.21204C4.8596 2.28202 4.85945 2.35201 4.85922 2.422C4.85946 2.45488 4.8597 2.48776 4.85994 2.52164C4.85838 2.65166 4.85218 2.75226 4.80362 2.87366C4.72647 2.92981 4.72647 2.92981 4.41397 2.92981C4.41397 3.32942 4.41397 3.72903 4.41397 4.14075C4.56866 4.14075 4.72335 4.14075 4.88272 4.14075C5.21524 4.23575 5.46321 4.40429 5.66397 4.68762C5.81715 4.96607 5.82578 5.23327 5.82404 5.54288C5.82398 5.57988 5.82393 5.61689 5.82387 5.65502C5.82365 5.77282 5.82316 5.89062 5.82266 6.00842C5.82247 6.08845 5.82229 6.16849 5.82213 6.24852C5.8217 6.44437 5.82103 6.64021 5.82022 6.83606C5.84142 6.82523 5.86262 6.81441 5.88446 6.80325C5.91241 6.7891 5.94035 6.77495 5.96915 6.76038C5.99679 6.74633 6.02444 6.73228 6.05292 6.7178C6.31752 6.59183 6.70932 6.58592 6.98874 6.67844C7.07999 6.72375 7.07999 6.72375 7.15628 6.77045C7.22778 6.80604 7.22778 6.80604 7.30612 6.76953C7.38064 6.72025 7.44076 6.66866 7.50479 6.60657C7.79059 6.36004 8.0884 6.30116 8.46076 6.31329C8.83705 6.35563 9.07612 6.53727 9.33585 6.797C9.53896 6.59488 9.74192 6.3926 9.94477 6.19022C10.0138 6.12142 10.0828 6.05265 10.1519 5.98392C10.2513 5.88501 10.3505 5.78598 10.4497 5.68692C10.4805 5.65631 10.5114 5.62571 10.5431 5.59417C10.6836 5.45365 10.8154 5.31361 10.9374 5.15637C11.0304 5.09034 11.0719 5.07634 11.1858 5.08633C11.4405 5.16281 11.6043 5.43662 11.7286 5.65915C11.8747 5.93663 11.9994 6.21672 12.0702 6.52356C12.0925 6.50609 12.1148 6.48861 12.1378 6.47061C12.7374 6.02358 13.3682 5.95097 14.0934 6.03238C14.2738 6.07206 14.3504 6.09657 14.4555 6.25256C14.4759 6.32535 14.4759 6.32535 14.4921 6.40637C14.4999 6.43593 14.5076 6.46549 14.5156 6.49594C14.6216 6.94052 14.5608 7.33432 14.453 7.77356C14.4871 7.76419 14.5211 7.75483 14.5562 7.74518C14.9988 7.63501 15.3632 7.64433 15.7686 7.86725C16.0534 8.06377 16.2479 8.33535 16.328 8.672C16.3503 8.85424 16.3618 9.03539 16.3671 9.21887C16.4034 9.21243 16.4396 9.20598 16.477 9.19934C16.8415 9.14967 17.2342 9.1539 17.578 9.297C17.8405 9.64775 17.8128 10.1455 17.7552 10.5607C17.729 10.6805 17.7026 10.7848 17.6562 10.8986C17.644 10.93 17.6318 10.9615 17.6192 10.9939C17.5639 11.1107 17.5121 11.1963 17.4218 11.2892C17.2434 11.3474 17.0662 11.3403 16.8805 11.3362C16.8245 11.3363 16.7686 11.3367 16.7126 11.3372C16.559 11.338 16.4055 11.3365 16.2519 11.3345C16.0863 11.3328 15.9206 11.3334 15.7549 11.3337C15.4679 11.3339 15.181 11.3327 14.894 11.3305C14.479 11.3273 14.0641 11.3263 13.6492 11.3258C12.976 11.3249 12.3028 11.3223 11.6296 11.3187C10.9757 11.3151 10.3217 11.3123 9.66778 11.3106C9.60732 11.3105 9.60732 11.3105 9.54563 11.3103C9.34341 11.3098 9.14119 11.3093 8.93897 11.3088C7.26135 11.3048 5.58376 11.2979 3.90616 11.2892C3.90504 11.227 3.90424 11.1648 3.90357 11.1026C3.9031 11.0679 3.90262 11.0333 3.90212 10.9976C3.90755 10.8645 3.94596 10.7626 4.00137 10.6422C4.01905 10.6027 4.03672 10.5632 4.05493 10.5224C4.10147 10.4298 4.10147 10.4298 4.14053 10.3907C3.09639 10.3779 2.05225 10.365 0.976472 10.3517C0.970175 9.02382 0.970175 9.02382 0.968843 8.46654C0.967916 8.08205 0.966828 7.69756 0.964684 7.31308C0.963124 7.03303 0.962118 6.75299 0.961771 6.47295C0.961567 6.32475 0.961092 6.17657 0.959952 6.02838C0.958885 5.88868 0.958565 5.749 0.958799 5.6093C0.958736 5.53402 0.957898 5.45875 0.957031 5.38348C0.958801 5.0085 1.03914 4.71775 1.29492 4.43646C1.6169 4.16282 1.92745 4.14075 2.34366 4.14075C2.34366 3.74114 2.34366 3.34153 2.34366 2.92981C2.24053 2.92981 2.13741 2.92981 2.03116 2.92981C1.93727 2.83592 1.94307 2.81441 1.94231 2.68628C1.94175 2.63505 1.94175 2.63505 1.94118 2.58279C1.94121 2.54584 1.94125 2.50889 1.94129 2.47082C1.94112 2.43297 1.94095 2.39512 1.94078 2.35612C1.94055 2.276 1.94053 2.19587 1.9407 2.11575C1.94083 1.9928 1.93991 1.86989 1.93892 1.74695C1.93883 1.66923 1.9388 1.59151 1.93884 1.51379C1.93848 1.47685 1.93812 1.4399 1.93775 1.40183C1.938 1.36768 1.93824 1.33353 1.93849 1.29834C1.93847 1.26821 1.93844 1.23809 1.93842 1.20705C1.94324 1.18259 1.94806 1.15813 1.95303 1.13293C2.09366 1.03918 2.15824 1.04453 2.3255 1.04346Z" fill="#ED504F"/>
<path d="M0.976562 10.3516C2.03359 10.3516 3.09063 10.3516 4.17969 10.3516C4.12812 10.4547 4.07656 10.5578 4.02344 10.6641C3.96272 10.8111 3.9385 10.9442 3.9238 11.1014C3.91879 11.1541 3.91879 11.1541 3.91368 11.2079C3.91 11.2481 3.91 11.2481 3.90625 11.2891C3.95005 11.2889 3.95005 11.2889 3.99474 11.2887C5.7242 11.2812 7.45367 11.2743 9.18314 11.2681C9.39065 11.2674 9.59816 11.2667 9.80568 11.2659C9.84699 11.2658 9.88831 11.2656 9.93087 11.2655C10.6004 11.2631 11.2699 11.2603 11.9395 11.2573C12.6261 11.2543 13.3128 11.2517 13.9995 11.2495C14.4234 11.2481 14.8473 11.2464 15.2713 11.2443C15.5617 11.2428 15.8521 11.2418 16.1426 11.2411C16.3103 11.2407 16.4781 11.2402 16.6458 11.2391C16.7992 11.238 16.9527 11.2376 17.1061 11.2376C17.1617 11.2374 17.2174 11.2371 17.273 11.2366C17.3484 11.2359 17.4238 11.236 17.4992 11.2362C17.5411 11.236 17.5831 11.2359 17.6263 11.2357C17.7502 11.2521 17.804 11.2777 17.8906 11.3672C17.906 11.482 17.9109 11.5797 17.9077 11.6943C17.9072 11.7269 17.9067 11.7594 17.9062 11.793C17.8968 12.1399 17.857 12.4864 17.7921 12.8273C17.7717 12.9318 17.7717 12.9318 17.7612 13.0471C17.7324 13.2368 17.7018 13.3574 17.5564 13.4884C17.422 13.5749 17.2854 13.6499 17.1436 13.7231C17.0928 13.7508 17.0421 13.7787 16.9915 13.8067C16.8875 13.8641 16.7833 13.9208 16.6788 13.9771C16.4366 14.1089 16.2021 14.2534 15.9668 14.397C15.8861 14.446 15.8053 14.4948 15.7245 14.5436C15.6742 14.5741 15.6742 14.5741 15.623 14.6052C15.5469 14.6484 15.5469 14.6484 15.5078 14.6484C15.5025 14.6163 15.4972 14.5842 15.4918 14.5511C15.4244 14.2018 15.324 13.901 15.0267 13.6839C14.7385 13.5173 14.4718 13.4807 14.1406 13.5156C13.9335 13.5713 13.7365 13.6489 13.5376 13.728C13.4784 13.7509 13.4191 13.7737 13.3598 13.7964C13.2319 13.8455 13.1042 13.895 12.9766 13.9447C12.7672 14.0261 12.557 14.1055 12.3466 14.1844C12.2734 14.2119 12.2002 14.2394 12.1269 14.2669C12.0903 14.2807 12.0537 14.2944 12.016 14.3086C11.4547 14.5197 10.8945 14.7335 10.335 14.9494C9.80019 15.1557 9.26496 15.3609 8.7286 15.5632C8.65871 15.5896 8.58885 15.616 8.51901 15.6425C8.42254 15.6791 8.32597 15.7155 8.22937 15.7518C8.20064 15.7628 8.17191 15.7737 8.1423 15.785C8.02674 15.8281 7.93695 15.8594 7.8125 15.8594C7.80525 15.8146 7.80525 15.8146 7.79785 15.7689C7.66292 15.0681 7.27536 14.5076 6.69189 14.1016C6.55121 14.008 6.41503 13.9284 6.25977 13.8623C6.21787 13.8381 6.17598 13.814 6.13281 13.7891C6.12959 13.7456 6.12637 13.7021 6.12305 13.6572C6.10951 13.5097 6.10951 13.5097 5.99487 13.4473C5.72303 13.31 5.50018 13.2373 5.19531 13.237C5.151 13.2369 5.10669 13.2369 5.06104 13.2368C4.99215 13.2371 4.99215 13.2371 4.92188 13.2373C4.87595 13.2372 4.83003 13.237 4.78271 13.2368C4.7384 13.2369 4.69409 13.2369 4.64844 13.237C4.58801 13.2371 4.58801 13.2371 4.52637 13.2371C4.41969 13.2419 4.32262 13.2572 4.21875 13.2812C4.21638 13.2375 4.21402 13.1937 4.21158 13.1487C4.20828 13.0911 4.20497 13.0336 4.20166 12.9761C4.20012 12.9472 4.19859 12.9184 4.19701 12.8887C4.18969 12.7644 4.18019 12.6577 4.14062 12.5391C4.08454 12.5348 4.02836 12.5318 3.97217 12.5293C3.9409 12.5275 3.90963 12.5257 3.87741 12.5238C3.78534 12.5311 3.78534 12.5311 3.72663 12.6004C3.65306 12.7279 3.65179 12.8322 3.64502 12.9785C3.64245 13.0279 3.63988 13.0772 3.63724 13.1281C3.63578 13.1657 3.63432 13.2034 3.63281 13.2422C3.59956 13.2416 3.56631 13.241 3.53206 13.2403C3.40662 13.2383 3.28119 13.2369 3.15574 13.2358C3.10183 13.2352 3.04793 13.2344 2.99403 13.2333C2.58546 13.2258 2.11581 13.2206 1.79688 13.5156C1.76931 13.5891 1.76931 13.5891 1.74805 13.6694C1.71375 13.779 1.69289 13.8191 1.59683 13.8849C1.53235 13.9159 1.46705 13.9453 1.40091 13.9726C1.25203 14.0403 1.11523 14.1321 0.976562 14.2188C0.976562 12.9426 0.976562 11.6664 0.976562 10.3516Z" fill="#E5E8EC"/>
<path d="M2.3255 1.04346C2.36411 1.04307 2.36411 1.04307 2.40349 1.04266C2.48853 1.04192 2.57356 1.04177 2.6586 1.04169C2.71771 1.04144 2.77681 1.04117 2.83592 1.0409C2.95978 1.04043 3.08364 1.04029 3.2075 1.04033C3.36632 1.04034 3.52511 1.03927 3.68392 1.03793C3.80597 1.03706 3.92801 1.0369 4.05006 1.03694C4.10862 1.03685 4.16718 1.0365 4.22574 1.0359C4.30758 1.03514 4.38935 1.03536 4.47119 1.03583C4.51777 1.03572 4.56434 1.03561 4.61233 1.03549C4.72647 1.05481 4.72647 1.05481 4.80007 1.1242C4.84575 1.21522 4.85847 1.26878 4.85882 1.36975C4.85919 1.40052 4.85956 1.43128 4.85994 1.46298C4.85971 1.49586 4.85947 1.52874 4.85922 1.56262C4.85934 1.59671 4.85945 1.6308 4.85956 1.66592C4.85964 1.73789 4.85943 1.80987 4.85894 1.88184C4.85831 1.99192 4.85893 2.10195 4.85968 2.21204C4.8596 2.28202 4.85945 2.35201 4.85922 2.422C4.85946 2.45488 4.8597 2.48776 4.85994 2.52164C4.85838 2.65166 4.85218 2.75226 4.80362 2.87366C4.72647 2.92981 4.72647 2.92981 4.41397 2.92981C4.41397 3.32942 4.41397 3.72903 4.41397 4.14075C4.56866 4.14075 4.72335 4.14075 4.88272 4.14075C5.21524 4.23575 5.46321 4.40429 5.66397 4.68762C5.87251 5.0667 5.83149 5.49265 5.8339 5.9114C5.83455 5.99399 5.83561 6.07658 5.8371 6.15916C5.83924 6.2786 5.8401 6.398 5.84067 6.51746C5.84155 6.55428 5.84244 6.59111 5.84335 6.62906C5.84252 6.88675 5.84252 6.88675 5.72663 7.02931C5.69306 7.05577 5.65949 7.08223 5.62491 7.1095C5.44834 7.35164 5.38203 7.51068 5.40157 7.8064C5.42746 8.22956 5.42746 8.22956 5.31943 8.38116C5.22696 8.44739 5.22696 8.44739 5.12991 8.50262C4.93807 8.61271 4.8304 8.81662 4.76553 9.02356C4.75549 9.13364 4.75639 9.2427 4.75821 9.35315C4.75824 9.38198 4.75826 9.4108 4.75829 9.44051C4.7596 9.60496 4.77252 9.76006 4.8046 9.922C4.78239 9.93338 4.76019 9.94476 4.73731 9.95648C4.70714 9.97249 4.67698 9.98851 4.64591 10.005C4.61645 10.0204 4.58699 10.0358 4.55664 10.0517C4.46625 10.1089 4.40575 10.1631 4.33016 10.2369C4.17367 10.3716 4.05586 10.3841 3.85452 10.3783C3.82324 10.3783 3.79195 10.3784 3.75972 10.3784C3.65718 10.3782 3.55474 10.3764 3.45221 10.3746C3.38079 10.3741 3.30936 10.3738 3.23794 10.3736C3.0506 10.3727 2.8633 10.3704 2.67597 10.3678C2.48457 10.3654 2.29315 10.3643 2.10173 10.3631C1.72663 10.3606 1.35155 10.3566 0.976472 10.3517C0.972817 9.66 0.970064 8.96832 0.968376 8.27663C0.967572 7.95544 0.966475 7.63426 0.964684 7.31308C0.963124 7.03303 0.962118 6.75299 0.961771 6.47295C0.961567 6.32475 0.961092 6.17657 0.959952 6.02838C0.958885 5.88868 0.958565 5.749 0.958799 5.6093C0.958736 5.53402 0.957898 5.45875 0.957031 5.38348C0.958801 5.0085 1.03914 4.71775 1.29492 4.43646C1.6169 4.16282 1.92745 4.14075 2.34366 4.14075C2.34366 3.74114 2.34366 3.34153 2.34366 2.92981C2.24053 2.92981 2.13741 2.92981 2.03116 2.92981C1.93727 2.83592 1.94307 2.81441 1.94231 2.68628C1.94175 2.63505 1.94175 2.63505 1.94118 2.58279C1.94121 2.54584 1.94125 2.50889 1.94129 2.47082C1.94112 2.43297 1.94095 2.39512 1.94078 2.35612C1.94055 2.276 1.94053 2.19587 1.9407 2.11575C1.94083 1.9928 1.93991 1.86989 1.93892 1.74695C1.93883 1.66923 1.9388 1.59151 1.93884 1.51379C1.93848 1.47685 1.93812 1.4399 1.93775 1.40183C1.938 1.36768 1.93824 1.33353 1.93849 1.29834C1.93847 1.26821 1.93844 1.23809 1.93842 1.20705C1.94324 1.18259 1.94806 1.15813 1.95303 1.13293C2.09366 1.03918 2.15824 1.04453 2.3255 1.04346Z" fill="#A1DEF8"/>
<path d="M3.92563 12.478C4.08674 12.5039 4.12396 12.5256 4.2186 12.6562C4.22995 12.7693 4.23351 12.8664 4.22836 12.9785C4.22766 13.0076 4.22695 13.0367 4.22623 13.0667C4.22439 13.1382 4.22159 13.2098 4.2186 13.2812C4.24613 13.2686 4.27367 13.256 4.30203 13.2429C4.49903 13.1728 4.70241 13.1903 4.90951 13.1909C4.97594 13.19 4.97594 13.19 5.04372 13.189C5.42264 13.1888 5.84454 13.2408 6.13266 13.5156C6.14837 13.5821 6.14837 13.5821 6.1644 13.6499C6.2204 13.8179 6.2537 13.8256 6.4061 13.9038C6.44457 13.9227 6.48304 13.9417 6.52267 13.9612C6.7125 14.0615 6.87007 14.1951 7.0311 14.3359C7.06848 14.3684 7.06848 14.3684 7.10663 14.4016C7.46348 14.7338 7.73053 15.2123 7.81489 15.6911C7.82522 15.7493 7.82522 15.7493 7.83575 15.8087C7.84092 15.8383 7.84609 15.8679 7.85141 15.8984C7.82651 15.9078 7.80162 15.9171 7.77597 15.9268C7.51481 16.0249 7.25371 16.1232 6.99263 16.2215C6.89543 16.2581 6.79821 16.2946 6.70099 16.3312C6.56055 16.3839 6.42015 16.4368 6.27975 16.4897C6.23689 16.5058 6.19402 16.5219 6.14986 16.5384C5.94121 16.6172 5.73329 16.6975 5.52654 16.7811C5.48957 16.796 5.45261 16.811 5.41452 16.8263C5.17997 16.9381 4.97328 17.1199 4.86801 17.361C4.78717 17.6919 4.79773 18.0851 4.94568 18.394C5.12059 18.6606 5.37155 18.7973 5.66391 18.9062C5.66391 18.9191 5.66391 18.932 5.66391 18.9453C5.27167 18.948 4.87944 18.9501 4.4872 18.9514C4.30501 18.952 4.12282 18.9528 3.94063 18.9542C3.76435 18.9554 3.58807 18.9561 3.41178 18.9564C3.345 18.9566 3.27821 18.9571 3.21143 18.9577C2.25328 18.9665 1.43564 18.7395 0.717925 18.0679C0.159759 17.4732 -0.0259209 16.7999 -0.0125128 16.0025C-0.00210119 15.7381 0.0487121 15.5169 0.156097 15.2734C0.178681 15.2209 0.178681 15.2209 0.201721 15.1672C0.304074 14.9473 0.433553 14.7584 0.585784 14.5703C0.608595 14.5391 0.631405 14.508 0.654907 14.4759C0.757601 14.357 0.872934 14.2691 1.00082 14.1797C1.02485 14.1625 1.04889 14.1454 1.07365 14.1277C1.21525 14.0287 1.35474 13.9491 1.51352 13.8794C1.60604 13.8398 1.60604 13.8398 1.67953 13.7891C1.73385 13.6527 1.73385 13.6527 1.75766 13.5156C1.90736 13.3523 2.09695 13.3005 2.30453 13.2422C2.3279 13.2354 2.35128 13.2285 2.37535 13.2215C2.47331 13.2004 2.56277 13.1981 2.66296 13.1979C2.70176 13.1979 2.74056 13.1978 2.78053 13.1978C2.84099 13.198 2.84099 13.198 2.90268 13.1982C2.96246 13.198 2.96246 13.198 3.02345 13.1978C3.23074 13.1981 3.42848 13.2059 3.63266 13.2422C3.63085 13.205 3.62903 13.1678 3.62717 13.1294C3.62576 13.0804 3.62435 13.0314 3.62289 12.981C3.62108 12.9325 3.61927 12.884 3.6174 12.834C3.64075 12.6217 3.71134 12.5125 3.92563 12.478Z" fill="#EE504F"/>
<path d="M14.3021 6.09012C14.3998 6.14735 14.4455 6.21642 14.4761 6.32526C14.4841 6.36536 14.4841 6.36536 14.4923 6.40628C14.5039 6.45062 14.5039 6.45062 14.5158 6.49585C14.6218 6.94043 14.5609 7.33423 14.4532 7.77347C14.4872 7.7641 14.5213 7.75474 14.5563 7.74509C14.9989 7.63492 15.3634 7.64424 15.7688 7.86716C16.0535 8.06368 16.2481 8.33526 16.3282 8.67191C16.3504 8.85415 16.362 9.0353 16.3673 9.21878C16.4035 9.21234 16.4398 9.20589 16.4771 9.19925C16.8416 9.14958 17.2344 9.15381 17.5782 9.29691C17.8407 9.64766 17.813 10.1454 17.7554 10.5606C17.6972 10.8271 17.608 11.0841 17.422 11.2891C17.2734 11.3451 17.1331 11.3387 16.9758 11.3334C16.9312 11.3335 16.8866 11.3336 16.8406 11.3336C16.6934 11.3333 16.5465 11.3303 16.3993 11.3272C16.2972 11.3265 16.195 11.326 16.0929 11.3256C15.8517 11.3244 15.6107 11.3212 15.3695 11.3172C15.0949 11.3129 14.8203 11.3107 14.5457 11.3088C13.981 11.3047 13.4163 11.2978 12.8516 11.2891C12.8623 11.2678 12.8729 11.2465 12.8839 11.2246C12.9049 11.1826 12.9049 11.1826 12.9264 11.1398C12.9472 11.0982 12.9472 11.0982 12.9684 11.0558C13.2149 10.561 13.3744 10.1312 13.3204 9.57034C13.2157 9.46562 13.1488 9.47711 13.003 9.4678C12.9602 9.46488 12.9174 9.46196 12.8733 9.45895C12.8239 9.45608 12.8239 9.45608 12.7735 9.45316C12.7701 9.42667 12.7668 9.40018 12.7633 9.3729C12.7043 8.98194 12.5874 8.66997 12.2733 8.41678C12.1357 8.32467 11.99 8.26258 11.836 8.20316C11.8102 8.19027 11.7845 8.17738 11.7579 8.16409C11.6913 8.15526 11.6246 8.14812 11.5577 8.14212C11.5221 8.13885 11.4866 8.13558 11.45 8.1322C11.4227 8.12984 11.3954 8.12747 11.3673 8.12503C11.3323 7.67965 11.5059 7.27347 11.7579 6.91409C11.7813 6.88066 11.8046 6.84722 11.8287 6.81278C12.3739 6.08284 13.4363 5.79138 14.3021 6.09012Z" fill="#89C846"/>
<path d="M0.976562 6.21094C2.575 6.21094 4.17344 6.21094 5.82031 6.21094C5.82031 6.44297 5.82031 6.675 5.82031 6.91406C5.75586 6.97852 5.69141 7.04297 5.625 7.10938C5.44843 7.35152 5.38212 7.51056 5.40166 7.80628C5.42755 8.22943 5.42755 8.22943 5.31952 8.38104C5.22705 8.44727 5.22705 8.44727 5.13 8.5025C4.93816 8.61259 4.83049 8.81649 4.76562 9.02344C4.75558 9.13352 4.75648 9.24258 4.7583 9.35303C4.75833 9.38186 4.75835 9.41068 4.75838 9.44038C4.75969 9.60484 4.77261 9.75994 4.80469 9.92188C4.78248 9.93325 4.76028 9.94463 4.7374 9.95636C4.70723 9.97237 4.67707 9.98838 4.646 10.0049C4.61654 10.0203 4.58708 10.0357 4.55673 10.0516C4.46634 10.1088 4.40584 10.163 4.33025 10.2368C4.17376 10.3715 4.05595 10.384 3.85461 10.3782C3.82283 10.3782 3.79104 10.3782 3.7583 10.3783C3.65626 10.3781 3.55432 10.3763 3.4523 10.3745C3.38898 10.3741 3.32565 10.3739 3.26232 10.3737C3.02855 10.3725 2.79479 10.3692 2.56104 10.3662C1.77672 10.359 1.77672 10.359 0.976562 10.3516C0.976562 8.98516 0.976562 7.61875 0.976562 6.21094Z" fill="#046698"/>
<path d="M9.06094 6.53051C9.31102 6.71467 9.43545 7.01698 9.53137 7.30474C9.53291 7.39587 9.53309 7.48705 9.53137 7.57818C9.57648 7.5814 9.6216 7.58462 9.66809 7.58794C9.99399 7.63048 10.2231 7.79735 10.4298 8.04693C10.5156 8.16562 10.5778 8.27709 10.6056 8.42291C10.5789 8.5495 10.5127 8.61201 10.4298 8.71099C10.3202 8.88328 10.2639 9.04775 10.2299 9.24902C10.22 9.30652 10.22 9.30652 10.2099 9.36519C10.2028 9.40875 10.2028 9.40875 10.1954 9.45318C10.1698 9.45341 10.1441 9.45364 10.1176 9.45387C9.85085 9.45637 9.58409 9.45966 9.31733 9.46343C9.21772 9.46473 9.11811 9.46583 9.01849 9.46671C8.87546 9.46802 8.73246 9.47006 8.58944 9.47225C8.52242 9.47263 8.52242 9.47263 8.45405 9.47301C8.4126 9.47378 8.37116 9.47456 8.32847 9.47535C8.29195 9.47579 8.25543 9.47622 8.21781 9.47667C8.1086 9.49502 8.07308 9.52126 8.00793 9.60943C7.99381 9.69862 7.99381 9.69862 8.0006 9.79253C8.00166 9.82411 8.00272 9.85568 8.00381 9.88821C8.00585 9.92424 8.00585 9.92424 8.00793 9.96099C7.98708 9.94634 7.96624 9.93169 7.94476 9.91659C7.39481 9.53886 6.82944 9.32565 6.15734 9.4483C6.03431 9.47354 5.92614 9.50103 5.82043 9.57037C5.66426 9.85678 5.67645 10.2296 5.66418 10.5469C5.34029 10.5134 5.1659 10.3759 4.94885 10.1417C4.70135 9.82874 4.68914 9.48565 4.71709 9.10076C4.75716 8.77802 4.95605 8.57914 5.19589 8.37881C5.27355 8.32037 5.27355 8.32037 5.35168 8.2813C5.34941 8.23226 5.34715 8.18321 5.34481 8.13268C5.32301 7.45882 5.32301 7.45882 5.54699 7.14849C5.57036 7.11304 5.59372 7.07759 5.61779 7.04107C5.86621 6.78555 6.10969 6.63369 6.47515 6.6259C6.50159 6.62594 6.52804 6.62599 6.55529 6.62603C6.5828 6.62592 6.6103 6.62582 6.63864 6.62571C6.83943 6.62945 6.98608 6.66609 7.15649 6.77038C7.22799 6.80597 7.22799 6.80597 7.30633 6.76946C7.38085 6.72018 7.44097 6.6686 7.505 6.6065C7.95715 6.21648 8.56472 6.23139 9.06094 6.53051Z" fill="#368C0E"/>
<path d="M3.92563 12.478C4.08674 12.5039 4.12396 12.5256 4.2186 12.6562C4.22995 12.7693 4.23351 12.8664 4.22836 12.9785C4.22766 13.0076 4.22695 13.0367 4.22623 13.0667C4.22439 13.1382 4.22159 13.2098 4.2186 13.2812C4.24613 13.2686 4.27367 13.256 4.30203 13.2429C4.49903 13.1728 4.70241 13.1903 4.90951 13.1909C4.97594 13.19 4.97594 13.19 5.04372 13.189C5.429 13.1888 5.83609 13.2443 6.13266 13.5156C6.18393 13.6328 6.18393 13.6328 6.17172 13.75C5.97501 14.0143 5.65206 14.0836 5.35141 14.1797C5.38034 14.2094 5.38034 14.2094 5.40985 14.2398C5.52408 14.3625 5.61319 14.4603 5.67123 14.6191C5.66391 14.7266 5.66391 14.7266 5.59845 14.81C5.45838 14.9223 5.34638 14.9066 5.17227 14.9002C4.78511 14.8497 4.4485 14.6767 4.12186 14.4708C4.00111 14.4003 4.00111 14.4003 3.86703 14.375C3.78244 14.416 3.78244 14.416 3.70102 14.48C3.32276 14.7461 2.93565 14.8938 2.46826 14.8984C2.35987 14.8787 2.30575 14.8413 2.22641 14.7656C2.19955 14.6411 2.19955 14.6411 2.22641 14.4922C2.30736 14.3773 2.3997 14.278 2.49985 14.1797C2.27295 14.1797 2.18726 14.2993 2.0311 14.4531C1.50779 14.985 1.31605 15.6249 1.31285 16.3566C1.32429 17.0987 1.66835 17.6519 2.1875 18.163C2.6635 18.6005 3.24235 18.7911 3.86703 18.9062C3.86703 18.9191 3.86703 18.932 3.86703 18.9453C3.69418 18.9483 3.52134 18.9504 3.34847 18.9517C3.28995 18.9523 3.23144 18.9531 3.17292 18.9542C2.2308 18.9703 1.42045 18.7253 0.717925 18.0679C0.159759 17.4732 -0.0259209 16.7999 -0.0125128 16.0025C-0.00210119 15.7381 0.0487121 15.5169 0.156097 15.2734C0.178681 15.2209 0.178681 15.2209 0.201721 15.1672C0.304074 14.9473 0.433553 14.7584 0.585784 14.5703C0.608595 14.5391 0.631405 14.508 0.654907 14.4759C0.757601 14.357 0.872934 14.2691 1.00082 14.1797C1.02485 14.1625 1.04889 14.1454 1.07365 14.1277C1.21525 14.0287 1.35474 13.9491 1.51352 13.8794C1.60604 13.8398 1.60604 13.8398 1.67953 13.7891C1.73385 13.6527 1.73385 13.6527 1.75766 13.5156C1.90736 13.3523 2.09695 13.3005 2.30453 13.2422C2.3279 13.2354 2.35128 13.2285 2.37535 13.2215C2.47331 13.2004 2.56277 13.1981 2.66296 13.1979C2.70176 13.1979 2.74056 13.1978 2.78053 13.1978C2.84099 13.198 2.84099 13.198 2.90268 13.1982C2.96246 13.198 2.96246 13.198 3.02345 13.1978C3.23074 13.1981 3.42848 13.2059 3.63266 13.2422C3.63085 13.205 3.62903 13.1678 3.62717 13.1294C3.62576 13.0804 3.62435 13.0314 3.62289 12.981C3.62108 12.9325 3.61927 12.884 3.6174 12.834C3.64075 12.6217 3.71134 12.5125 3.92563 12.478Z" fill="#D74848"/>
<path d="M18.3205 13.1641C18.4162 13.2717 18.4864 13.3894 18.5549 13.5156C18.5695 13.5425 18.5841 13.5693 18.5992 13.597C18.6563 13.7233 18.6542 13.8089 18.633 13.9453C18.458 14.1473 18.2045 14.289 17.9826 14.4333C17.9474 14.4564 17.9122 14.4795 17.876 14.5032C17.7647 14.5762 17.6532 14.649 17.5417 14.7217C17.4658 14.7714 17.3899 14.8212 17.314 14.8709C17.1288 14.9923 16.9435 15.1134 16.758 15.2344C17.2835 15.1455 17.8084 15.0556 18.3318 14.9552C18.4078 14.9407 18.4838 14.9262 18.5598 14.9117C18.6731 14.8901 18.7863 14.8683 18.8995 14.8461C19.0063 14.8251 19.1131 14.8047 19.22 14.7843C19.268 14.7746 19.268 14.7746 19.3168 14.7648C19.5104 14.7284 19.6959 14.6995 19.8733 14.8071C20.0091 15.0176 20.0492 15.3418 20.0002 15.586C19.8776 15.7423 19.7694 15.7716 19.5771 15.8059C19.5506 15.8109 19.5241 15.8158 19.4968 15.8208C19.4095 15.8369 19.3221 15.852 19.2347 15.8672C19.1739 15.8782 19.1131 15.8893 19.0523 15.9004C18.8925 15.9295 18.7325 15.9579 18.5725 15.9861C18.3781 16.0205 18.1837 16.0557 17.9894 16.0909C17.8382 16.1182 17.687 16.1454 17.5358 16.1722C17.508 16.1771 17.4802 16.1821 17.4515 16.1872C17.3765 16.2005 17.3015 16.2138 17.2265 16.2271C17.1082 16.2477 17.1082 16.2477 16.9924 16.2891C17.0175 16.2948 17.0426 16.3005 17.0685 16.3064C17.3296 16.3657 17.5907 16.4253 17.8517 16.4851C17.9491 16.5073 18.0466 16.5295 18.144 16.5517C18.2841 16.5835 18.4241 16.6155 18.5641 16.6477C18.6295 16.6624 18.6295 16.6624 18.6963 16.6775C18.7369 16.6869 18.7776 16.6963 18.8195 16.7059C18.8552 16.7141 18.8909 16.7222 18.9278 16.7306C19.0507 16.7655 19.1497 16.7978 19.2303 16.8994C19.2715 17.0372 19.2521 17.1648 19.2336 17.3047C19.2309 17.3325 19.2281 17.3603 19.2252 17.3889C19.2097 17.5129 19.1856 17.6079 19.1204 17.7149C18.8339 17.8884 18.3812 17.7305 18.068 17.6737C18.01 17.6633 17.952 17.653 17.894 17.6427C17.7732 17.6212 17.6524 17.5994 17.5317 17.5775C17.3768 17.5494 17.2218 17.5219 17.0668 17.4945C16.9474 17.4733 16.828 17.4519 16.7086 17.4303C16.6515 17.4201 16.5943 17.4099 16.5371 17.3998C16.4575 17.3857 16.378 17.3712 16.2985 17.3566C16.2532 17.3485 16.2079 17.3403 16.1613 17.3319C16.0549 17.3047 16.0549 17.3047 15.9768 17.2266C15.9526 17.1228 15.9325 17.0209 15.9148 16.9159C15.9093 16.8845 15.9038 16.8531 15.898 16.8207C15.8801 16.7184 15.8625 16.6161 15.845 16.5137C15.8328 16.4438 15.8206 16.374 15.8083 16.3041C15.7901 16.2001 15.7719 16.0961 15.7539 15.9921C15.7207 15.8009 15.6865 15.6099 15.6507 15.4192C15.6434 15.3799 15.636 15.3407 15.6284 15.3003C15.6153 15.2311 15.6021 15.1618 15.5888 15.0927C15.5803 15.0473 15.5803 15.0473 15.5717 15.0011C15.5669 14.976 15.5621 14.9509 15.5571 14.9251C15.5538 14.8983 15.5505 14.8714 15.5471 14.8438C15.5422 14.8049 15.5373 14.766 15.5322 14.726C15.5471 14.6094 15.5471 14.6094 15.6356 14.5311C15.6768 14.5083 15.7181 14.4854 15.7606 14.4618C15.7943 14.4426 15.7943 14.4426 15.8288 14.423C15.9029 14.3809 15.9777 14.3402 16.0525 14.2993C16.1039 14.2704 16.1553 14.2413 16.2067 14.2122C16.3122 14.1523 16.4179 14.0929 16.5237 14.0336C16.7591 13.9013 16.9905 13.7623 17.2219 13.6231C17.2617 13.5994 17.3016 13.5756 17.3426 13.5512C17.5034 13.4549 17.6616 13.3583 17.813 13.2477C17.9935 13.1186 18.1077 13.0991 18.3205 13.1641Z" fill="#89C947"/>
<path d="M0.976562 10.3516C2.03359 10.3516 3.09063 10.3516 4.17969 10.3516C4.12812 10.4547 4.07656 10.5578 4.02344 10.6641C3.9391 10.8682 3.92264 11.0708 3.90625 11.2891C3.86108 11.2919 3.86108 11.2919 3.815 11.2949C3.75624 11.2992 3.75624 11.2992 3.69629 11.3037C3.63783 11.3078 3.63783 11.3078 3.57819 11.312C3.4705 11.3189 3.4705 11.3189 3.39844 11.4062C3.35573 11.8261 3.42043 12.2421 3.48618 12.6559C3.51691 12.8507 3.53713 13.0459 3.55469 13.2422C3.5238 13.2416 3.49292 13.241 3.4611 13.2403C3.31896 13.2379 3.17682 13.2364 3.03467 13.2349C2.96182 13.2334 2.96182 13.2334 2.8875 13.2319C2.51058 13.2289 2.08828 13.2461 1.79688 13.5156C1.76931 13.5891 1.76931 13.5891 1.74805 13.6694C1.71375 13.779 1.69289 13.8191 1.59683 13.8849C1.53235 13.9159 1.46705 13.9453 1.40091 13.9726C1.25203 14.0403 1.11523 14.1321 0.976562 14.2188C0.976562 12.9426 0.976562 11.6664 0.976562 10.3516Z" fill="#90C7DF"/>
<path d="M11.2891 5.1173C11.6157 5.37593 11.7949 5.75782 11.9531 6.13293C11.9718 6.17648 11.9904 6.22004 12.0096 6.26491C12.0509 6.38481 12.0759 6.47491 12.0703 6.60168C12.0081 6.70386 11.9358 6.77514 11.8492 6.85757C11.5178 7.20449 11.4295 7.66785 11.3672 8.12511C11.3913 8.1233 11.4154 8.12149 11.4403 8.11962C11.7957 8.10447 12.0635 8.21967 12.3438 8.43761C12.5499 8.63965 12.6825 8.86782 12.7734 9.14074C12.7734 9.24386 12.7734 9.34699 12.7734 9.45324C11.9227 9.45324 11.0719 9.45324 10.1953 9.45324C10.1953 9.10047 10.1953 9.10047 10.2637 8.96007C10.2778 8.93097 10.292 8.90186 10.3065 8.87188C10.3747 8.7467 10.4454 8.61721 10.5469 8.51574C10.541 8.22856 10.4051 8.05746 10.2036 7.86205C10.0007 7.69342 9.78667 7.63176 9.53125 7.57824C9.52551 7.54206 9.52551 7.54206 9.51965 7.50515C9.51381 7.47207 9.50797 7.43898 9.50195 7.4049C9.49651 7.37272 9.49108 7.34055 9.48547 7.30739C9.45617 7.19889 9.41914 7.10642 9.37298 7.00435C9.35877 6.9728 9.34456 6.94125 9.32992 6.90874C9.31901 6.88475 9.30811 6.86077 9.29688 6.83605C9.31512 6.81789 9.33337 6.79973 9.35218 6.78101C9.5424 6.59166 9.73248 6.40216 9.92249 6.21259C9.99338 6.14189 10.0643 6.07123 10.1353 6.0006C10.2374 5.89898 10.3393 5.79723 10.4413 5.69546C10.4888 5.64826 10.4888 5.64826 10.5372 5.60012C10.6798 5.45761 10.8139 5.31594 10.9375 5.15636C11.0654 5.06563 11.1413 5.07292 11.2891 5.1173Z" fill="#EE4F4F"/>
<path d="M15.9476 8.00695C16.2929 8.36755 16.3531 8.73126 16.3672 9.2188C16.4034 9.21236 16.4397 9.20591 16.4771 9.19927C16.8416 9.1496 17.2343 9.15383 17.5781 9.29693C17.8406 9.64768 17.8129 10.1454 17.7553 10.5607C17.7291 10.6805 17.7027 10.7848 17.6562 10.8985C17.6472 10.9314 17.6381 10.9643 17.6287 10.9982C17.5763 11.1327 17.5358 11.1986 17.4219 11.2891C17.1529 11.3577 16.8614 11.3255 16.5869 11.3135C16.5089 11.3116 16.431 11.3098 16.353 11.3082C16.1623 11.3039 15.9718 11.2972 15.7812 11.2891C15.7907 11.2442 15.7907 11.2442 15.8003 11.1983C15.8667 10.852 15.8429 10.5018 15.6569 10.198C15.4833 9.96928 15.2257 9.82888 14.9438 9.78277C14.8438 9.72661 14.8438 9.72661 14.8091 9.62606C14.7897 9.54237 14.7713 9.45843 14.7539 9.37429C14.6947 9.12222 14.5403 8.97642 14.3359 8.82818C14.158 8.74084 13.9798 8.68346 13.7891 8.63286C13.8859 8.28434 14.1136 8.01916 14.4092 7.81255C14.8984 7.54084 15.5333 7.64429 15.9476 8.00695Z" fill="#89C947"/>
<path d="M7.85156 9.80459C8.02543 9.93919 8.05275 10.088 8.10059 10.2929C8.17818 10.5987 8.28311 10.8565 8.4375 11.1327C8.47617 11.2101 8.47617 11.2101 8.51562 11.289C6.99453 11.289 5.47344 11.289 3.90625 11.289C3.90625 10.8696 3.97023 10.5287 4.26514 10.2161C4.42918 10.0772 4.62368 9.92177 4.84375 9.92177C4.8996 9.98464 4.8996 9.98464 4.95605 10.0683C5.1378 10.3221 5.35728 10.4762 5.66406 10.5468C5.6627 10.509 5.66134 10.4712 5.65994 10.4323C5.64749 9.83338 5.64749 9.83338 5.78125 9.57021C6.29104 9.07587 7.37224 9.45654 7.85156 9.80459Z" fill="#89C847"/>
<path d="M3.92566 12.478C4.08678 12.5039 4.12399 12.5256 4.21863 12.6562C4.22998 12.7693 4.23354 12.8664 4.22839 12.9785C4.22769 13.0076 4.22698 13.0367 4.22626 13.0667C4.22442 13.1382 4.22162 13.2098 4.21863 13.2812C4.24616 13.2686 4.2737 13.256 4.30207 13.2429C4.49907 13.1728 4.70244 13.1903 4.90955 13.1909C4.97598 13.19 4.97598 13.19 5.04375 13.189C5.42903 13.1888 5.83612 13.2443 6.13269 13.5156C6.18396 13.6328 6.18396 13.6328 6.17175 13.75C5.97504 14.0143 5.65209 14.0836 5.35144 14.1797C5.38037 14.2094 5.38037 14.2094 5.40988 14.2398C5.52411 14.3625 5.61322 14.4603 5.67127 14.6191C5.66394 14.7266 5.66394 14.7266 5.59848 14.81C5.45841 14.9223 5.34641 14.9066 5.1723 14.9002C4.78514 14.8497 4.44853 14.6767 4.12189 14.4708C4.00114 14.4003 4.00114 14.4003 3.86707 14.375C3.78247 14.416 3.78247 14.416 3.70105 14.48C3.32279 14.7461 2.93568 14.8938 2.46829 14.8984C2.35991 14.8787 2.30578 14.8413 2.22644 14.7656C2.19959 14.6411 2.19959 14.6411 2.22644 14.4922C2.30739 14.3773 2.39973 14.278 2.49988 14.1797C2.47813 14.173 2.45637 14.1664 2.43396 14.1595C1.88327 13.9847 1.88327 13.9847 1.71863 13.7891C1.69666 13.6768 1.69666 13.6768 1.71863 13.5547C1.88534 13.3709 2.06868 13.3057 2.30457 13.2422C2.32791 13.2354 2.35125 13.2286 2.3753 13.2216C2.4733 13.2004 2.56274 13.1981 2.66299 13.1979C2.70179 13.1979 2.74059 13.1978 2.78056 13.1978C2.84103 13.198 2.84103 13.198 2.90271 13.1982C2.96249 13.198 2.96249 13.198 3.02348 13.1978C3.23077 13.1981 3.42851 13.2059 3.63269 13.2422C3.63088 13.205 3.62907 13.1678 3.6272 13.1294C3.62579 13.0804 3.62438 13.0314 3.62293 12.981C3.62111 12.9325 3.6193 12.884 3.61743 12.834C3.64079 12.6217 3.71137 12.5125 3.92566 12.478Z" fill="#378B0F"/>
<path d="M14.3848 8.81834C14.6908 9.0687 14.8337 9.33385 14.8828 9.72654C14.9074 9.73228 14.932 9.73802 14.9573 9.74393C15.3385 9.84383 15.5611 10.0131 15.7762 10.3419C15.8604 10.5093 15.8655 10.6744 15.8667 10.8594C15.8673 10.8988 15.8678 10.9383 15.8684 10.979C15.8594 11.0937 15.8594 11.0937 15.7812 11.289C14.8145 11.289 13.8477 11.289 12.8516 11.289C12.9031 11.1859 12.9547 11.0828 13.0078 10.9765C13.2363 10.5066 13.3712 10.0992 13.3203 9.57029C13.2156 9.46556 13.1488 9.47706 13.0029 9.46775C12.9601 9.46483 12.9173 9.46191 12.8732 9.4589C12.8403 9.45699 12.8074 9.45507 12.7734 9.4531C12.7605 9.32419 12.7477 9.19529 12.7344 9.06248C12.773 9.07537 12.8117 9.08826 12.8516 9.10154C12.8781 9.07334 12.9047 9.04514 12.9321 9.01609C13.3638 8.58691 13.8482 8.52943 14.3848 8.81834Z" fill="#378C0F"/>
<path d="M2.32574 1.04346C2.36434 1.04307 2.36434 1.04307 2.40373 1.04266C2.48877 1.04192 2.57379 1.04177 2.65884 1.04169C2.71794 1.04144 2.77705 1.04117 2.83615 1.0409C2.96001 1.04043 3.08387 1.04029 3.20773 1.04033C3.36655 1.04034 3.52534 1.03927 3.68416 1.03793C3.8062 1.03706 3.92824 1.0369 4.05029 1.03694C4.10885 1.03685 4.16741 1.0365 4.22597 1.0359C4.30781 1.03514 4.38959 1.03536 4.47143 1.03583C4.518 1.03572 4.56458 1.03561 4.61256 1.03549C4.72671 1.05481 4.72671 1.05481 4.80031 1.1242C4.84598 1.21522 4.85871 1.26878 4.85906 1.36975C4.85943 1.40052 4.8598 1.43128 4.86018 1.46298C4.85994 1.49586 4.8597 1.52874 4.85946 1.56262C4.85957 1.59671 4.85968 1.6308 4.8598 1.66592C4.85988 1.73789 4.85966 1.80987 4.85917 1.88184C4.85854 1.99192 4.85917 2.10195 4.85992 2.21204C4.85984 2.28202 4.85969 2.35201 4.85946 2.422C4.8597 2.45488 4.85993 2.48776 4.86018 2.52164C4.85962 2.56779 4.85962 2.56779 4.85906 2.61487C4.85896 2.64181 4.85887 2.66875 4.85878 2.6965C4.83789 2.80468 4.80728 2.85411 4.72671 2.92981C4.61082 2.94912 4.61082 2.94912 4.46722 2.94879C4.42795 2.94901 4.42795 2.94901 4.38789 2.94924C4.30138 2.94953 4.21492 2.94869 4.12841 2.94781C4.06833 2.94772 4.00826 2.94769 3.94818 2.94771C3.82231 2.94758 3.69646 2.94694 3.5706 2.94589C3.40906 2.94456 3.24755 2.94426 3.08601 2.94432C2.96199 2.9443 2.83797 2.94387 2.71395 2.94331C2.65438 2.94306 2.59481 2.9429 2.53523 2.94284C2.45209 2.94268 2.36896 2.94199 2.28582 2.94116C2.23847 2.94086 2.19111 2.94056 2.14232 2.94026C2.03139 2.92981 2.03139 2.92981 1.95327 2.85168C1.94309 2.77756 1.94309 2.77756 1.94254 2.68628C1.94217 2.65213 1.9418 2.61797 1.94141 2.58279C1.94145 2.54584 1.94148 2.50889 1.94152 2.47082C1.94135 2.43297 1.94119 2.39512 1.94101 2.35612C1.94079 2.276 1.94077 2.19587 1.94094 2.11575C1.94106 1.9928 1.94015 1.86989 1.93915 1.74695C1.93907 1.66923 1.93904 1.59151 1.93908 1.51379C1.93872 1.47685 1.93836 1.4399 1.93799 1.40183C1.93823 1.36768 1.93847 1.33353 1.93873 1.29834C1.9387 1.26821 1.93868 1.23809 1.93865 1.20705C1.94348 1.18259 1.9483 1.15813 1.95327 1.13293C2.09389 1.03918 2.15847 1.04453 2.32574 1.04346Z" fill="#046699"/>
<path d="M2.34375 2.92969C3.02695 2.92969 3.71016 2.92969 4.41406 2.92969C4.41406 3.34219 4.41406 3.75469 4.41406 4.17969C4.26859 4.18052 4.26859 4.18052 4.12018 4.18137C4.02502 4.18257 3.92986 4.18409 3.83471 4.18565C3.76917 4.18655 3.70363 4.18711 3.6381 4.18733C3.22828 4.18891 2.87255 4.19032 2.5478 4.47486C2.08845 4.9615 2.21034 5.50953 2.1875 6.17188C3.38633 6.17188 4.58516 6.17188 5.82031 6.17188C5.82031 6.18477 5.82031 6.19766 5.82031 6.21094C4.22188 6.21094 2.62344 6.21094 0.976562 6.21094C0.976562 4.78655 0.976562 4.78655 1.29501 4.43634C1.61699 4.16269 1.92754 4.14062 2.34375 4.14062C2.34375 3.74102 2.34375 3.34141 2.34375 2.92969Z" fill="#8FC8E0"/>
<path d="M0.976562 6.21094C1.37617 6.21094 1.77578 6.21094 2.1875 6.21094C2.1875 7.57734 2.1875 8.94375 2.1875 10.3516C1.78789 10.3516 1.38828 10.3516 0.976562 10.3516C0.976562 8.98516 0.976562 7.61875 0.976562 6.21094Z" fill="#045C89"/>
<path d="M2.1875 10.3906C2.83203 10.3906 3.47656 10.3906 4.14062 10.3906C4.07617 10.5582 4.01172 10.7258 3.94531 10.8984C3.92645 11.0334 3.90958 11.155 3.90625 11.2891C3.86108 11.2919 3.86108 11.2919 3.815 11.2949C3.77583 11.2978 3.73665 11.3007 3.69629 11.3037C3.63783 11.3078 3.63783 11.3078 3.57819 11.312C3.4705 11.3189 3.4705 11.3189 3.39844 11.4062C3.35573 11.8261 3.42043 12.2421 3.48618 12.6559C3.51691 12.8507 3.53713 13.0459 3.55469 13.2422C3.50714 13.2419 3.50714 13.2419 3.45862 13.2416C3.31405 13.2408 3.16948 13.2402 3.0249 13.2397C2.97503 13.2394 2.92515 13.2391 2.87376 13.2388C2.8253 13.2386 2.77683 13.2385 2.7269 13.2384C2.68251 13.2382 2.63812 13.238 2.59238 13.2378C2.43663 13.2406 2.43663 13.2406 2.1875 13.2812C2.1875 12.3273 2.1875 11.3734 2.1875 10.3906Z" fill="#A1DEF8"/>
<path d="M11.0937 14.6484C11.1277 14.7752 11.1609 14.9022 11.1938 15.0293C11.2083 15.0832 11.2083 15.0832 11.2231 15.1382C11.232 15.173 11.2409 15.2077 11.2502 15.2435C11.2585 15.2754 11.2669 15.3074 11.2756 15.3402C11.2905 15.4393 11.2854 15.4926 11.25 15.5859C11.1393 15.6404 11.035 15.6834 10.9193 15.7245C10.8848 15.7373 10.8503 15.7502 10.8147 15.7634C10.7004 15.8057 10.5858 15.8472 10.4712 15.8887C10.3919 15.9179 10.3127 15.9471 10.2335 15.9764C10.1107 16.0218 9.98796 16.0672 9.8651 16.1123C9.58392 16.2156 9.30369 16.3211 9.02405 16.4285C8.98691 16.4428 8.94978 16.457 8.91151 16.4717C8.76831 16.5267 8.62513 16.5818 8.482 16.6369C7.8084 16.8964 7.8084 16.8964 7.46094 16.9922C7.38452 16.7811 7.32705 16.5739 7.28104 16.3541C7.27075 16.3052 7.26047 16.2563 7.24988 16.206C7.24219 16.169 7.23449 16.1319 7.22656 16.0938C7.27122 16.0769 7.31588 16.0601 7.36189 16.0427C8.1696 15.738 8.97718 15.433 9.78397 15.1259C9.85416 15.0991 9.92435 15.0724 9.99455 15.0457C10.093 15.0083 10.1914 14.9708 10.2898 14.9333C10.3198 14.9219 10.3499 14.9104 10.3809 14.8986C10.5712 14.8259 10.7604 14.7511 10.9484 14.6727C11.0156 14.6484 11.0156 14.6484 11.0937 14.6484Z" fill="#DF851C"/>
<path d="M15.9476 8.00695C16.2309 8.30278 16.3406 8.58077 16.3379 8.98931C16.3354 9.07885 16.3324 9.16839 16.3281 9.25786C16.2932 9.27398 16.2582 9.29009 16.2222 9.30669C15.9433 9.43876 15.703 9.5769 15.4683 9.78124C15.3906 9.8438 15.3906 9.8438 15.2734 9.88286C15.134 9.86478 15.0085 9.82907 14.8828 9.76568C14.8291 9.64605 14.8291 9.64605 14.8047 9.49224C14.7181 9.19271 14.5963 9.00338 14.3359 8.82818C14.1592 8.73824 13.9799 8.68349 13.7891 8.63286C13.8859 8.28434 14.1136 8.01916 14.4092 7.81255C14.8984 7.54084 15.5333 7.64429 15.9476 8.00695Z" fill="#FDC402"/>
<path d="M15 13.6328C15.1962 13.7532 15.3299 13.935 15.4297 14.1406C15.4577 14.2714 15.4682 14.3976 15.4688 14.5312C15.4244 14.5054 15.3801 14.4797 15.3345 14.4531C14.712 14.1873 14.0942 14.4788 13.5132 14.7119C13.4312 14.7439 13.3492 14.7758 13.2671 14.8076C13.0038 14.9099 12.7411 15.0135 12.4785 15.1176C12.3906 15.1523 12.3026 15.1865 12.2145 15.2206C12.1893 15.2307 12.164 15.2408 12.138 15.2512C11.9665 15.3169 11.9665 15.3169 11.8359 15.2734C11.8047 15.2069 11.8047 15.2069 11.7818 15.1213C11.7691 15.0749 11.7691 15.0749 11.7562 15.0277C11.7479 14.9952 11.7395 14.9627 11.731 14.9292C11.7222 14.8971 11.7134 14.8651 11.7043 14.8321C11.665 14.6846 11.6406 14.5685 11.6406 14.414C11.9581 14.2909 12.276 14.1686 12.5942 14.0473C12.742 13.991 12.8897 13.9344 13.0371 13.8771C13.1797 13.8217 13.3226 13.7671 13.4657 13.713C13.5199 13.6923 13.5741 13.6714 13.6281 13.6502C14.1106 13.461 14.5253 13.3809 15 13.6328Z" fill="#DF861C"/>
<path d="M11.9531 8.19326C12.0059 8.22126 12.0581 8.25047 12.1094 8.28115C12.1505 8.30451 12.1916 8.32788 12.2339 8.35195C12.5023 8.56071 12.6665 8.81965 12.7734 9.14052C12.7734 9.24365 12.7734 9.34678 12.7734 9.45302C11.9227 9.45302 11.0719 9.45302 10.1953 9.45302C10.1953 9.07129 10.2935 8.7733 10.5675 8.4937C10.9412 8.15384 11.4668 7.98162 11.9531 8.19326Z" fill="#F5931E"/>
<path d="M2.34375 2.92969C3.02695 2.92969 3.71016 2.92969 4.41406 2.92969C4.41406 3.3293 4.41406 3.72891 4.41406 4.14062C3.73086 4.14062 3.04766 4.14062 2.34375 4.14062C2.34375 3.74102 2.34375 3.34141 2.34375 2.92969Z" fill="#48C0E0"/>
<path d="M3.76134 11.2775C3.80271 11.2778 3.80271 11.2778 3.84492 11.278C3.93289 11.2787 4.02082 11.2802 4.10879 11.2816C4.16847 11.2822 4.22816 11.2828 4.28785 11.2833C4.43407 11.2845 4.58026 11.2866 4.72646 11.289C4.71357 11.3148 4.70068 11.3405 4.6874 11.3671C4.64288 11.9718 4.6995 12.5691 4.80459 13.164C4.93349 13.164 5.0624 13.164 5.19521 13.164C5.19521 13.1769 5.19521 13.1898 5.19521 13.203C5.17257 13.204 5.14992 13.205 5.12659 13.206C5.02332 13.2106 4.92006 13.2153 4.81679 13.2201C4.78117 13.2217 4.74554 13.2232 4.70884 13.2248C4.67422 13.2264 4.6396 13.2281 4.60393 13.2297C4.57223 13.2312 4.54052 13.2326 4.50785 13.2341C4.40922 13.2425 4.31529 13.26 4.21865 13.2812C4.21628 13.2374 4.21392 13.1936 4.21148 13.1486C4.20818 13.091 4.20487 13.0335 4.20156 12.976C4.20002 12.9472 4.19849 12.9183 4.19691 12.8886C4.18959 12.7643 4.18009 12.6577 4.14052 12.539C4.08444 12.5347 4.02826 12.5317 3.97207 12.5292C3.9408 12.5274 3.90953 12.5256 3.87731 12.5237C3.78506 12.5316 3.78506 12.5316 3.7206 12.6C3.6551 12.7277 3.65153 12.8355 3.64492 12.9784C3.64235 13.0278 3.63978 13.0771 3.63714 13.128C3.63568 13.1656 3.63422 13.2033 3.63271 13.2421C3.60693 13.2421 3.58115 13.2421 3.55459 13.2421C3.52906 13.1136 3.50395 12.985 3.4789 12.8564C3.47178 12.8205 3.46465 12.7847 3.45731 12.7477C3.38998 12.4 3.35225 12.0558 3.34951 11.7016C3.3487 11.6745 3.3479 11.6474 3.34707 11.6196C3.34559 11.428 3.34559 11.428 3.40086 11.3399C3.51489 11.2631 3.62876 11.2745 3.76134 11.2775Z" fill="#CDD1D4"/>
<path d="M6.71874 16.3281C6.74623 16.4476 6.77285 16.5673 6.79931 16.687C6.80709 16.7208 6.81487 16.7545 6.82288 16.7893C6.83364 16.8386 6.83364 16.8386 6.84463 16.8889C6.85138 16.919 6.85813 16.949 6.86508 16.98C6.87766 17.0946 6.88216 17.1583 6.83593 17.2656C6.73101 17.3206 6.63803 17.3597 6.52694 17.3975C6.48001 17.4146 6.48001 17.4146 6.43214 17.432C6.3318 17.4684 6.23112 17.5038 6.13036 17.5391C6.03064 17.5745 5.93101 17.6101 5.83151 17.6461C5.76961 17.6685 5.70758 17.6905 5.64538 17.712C5.32886 17.8253 5.0974 17.9519 4.92187 18.2422C4.89608 18.2422 4.8703 18.2422 4.84374 18.2422C4.75336 17.954 4.74229 17.5357 4.8828 17.2632C5.09524 16.9652 5.35093 16.7981 5.69091 16.6748C5.742 16.6554 5.742 16.6554 5.79412 16.6356C5.86217 16.6098 5.93032 16.5842 5.99856 16.559C6.08395 16.5271 6.16873 16.4941 6.25335 16.4603C6.58557 16.3281 6.58557 16.3281 6.71874 16.3281Z" fill="#DF841B"/>
<path d="M4.84375 9.92188C4.8996 9.98474 4.8996 9.98474 4.95605 10.0684C5.13951 10.3231 5.34109 10.4281 5.625 10.5469C5.70312 10.5859 5.70312 10.5859 5.75348 10.7237C5.77118 10.7811 5.78856 10.8385 5.80566 10.896C5.81911 10.9395 5.81911 10.9395 5.83282 10.9838C5.89844 11.1992 5.89844 11.1992 5.89844 11.2891C5.24102 11.2891 4.58359 11.2891 3.90625 11.2891C3.90625 10.8697 3.97023 10.5288 4.26514 10.2162C4.42918 10.0773 4.62368 9.92188 4.84375 9.92188Z" fill="#FCC405"/>
<path d="M2.26989 1.04698C2.30828 1.04723 2.34668 1.04748 2.38624 1.04774C2.42624 1.04839 2.46625 1.04905 2.50747 1.04972C2.54793 1.05008 2.58839 1.05043 2.63007 1.05079C2.73 1.05171 2.82991 1.053 2.92983 1.05461C2.89116 1.11261 2.89116 1.11261 2.85171 1.17179C2.84044 1.253 2.84044 1.253 2.84284 1.34287C2.84284 1.37728 2.84285 1.41168 2.84286 1.44712C2.84326 1.48411 2.84366 1.5211 2.84408 1.55921C2.84424 1.61619 2.84424 1.61619 2.84441 1.67432C2.84485 1.79571 2.84583 1.9171 2.84682 2.03849C2.84722 2.12076 2.84757 2.20303 2.84789 2.2853C2.84875 2.48706 2.8501 2.6888 2.85171 2.89054C2.71665 2.89934 2.58156 2.90724 2.44643 2.91496C2.38873 2.91873 2.38873 2.91873 2.32986 2.92259C2.2931 2.9246 2.25634 2.92662 2.21847 2.92869C2.18451 2.93074 2.15055 2.93278 2.11557 2.93489C2.03139 2.92961 2.03139 2.92961 1.95327 2.85148C1.94309 2.77736 1.94309 2.77736 1.94254 2.68608C1.94217 2.65192 1.9418 2.61777 1.94141 2.58258C1.94145 2.54564 1.94148 2.50869 1.94152 2.47062C1.94135 2.43277 1.94119 2.39492 1.94101 2.35591C1.94079 2.27579 1.94077 2.19567 1.94094 2.11555C1.94106 1.9926 1.94015 1.86969 1.93915 1.74675C1.93907 1.66903 1.93904 1.59131 1.93908 1.51359C1.93872 1.47664 1.93836 1.4397 1.93799 1.40163C1.93823 1.36748 1.93847 1.33332 1.93873 1.29814C1.9387 1.26801 1.93868 1.23789 1.93865 1.20685C1.94348 1.18239 1.9483 1.15793 1.95327 1.13273C2.08229 1.04672 2.12025 1.04525 2.26989 1.04698Z" fill="#035C8A"/>
<path d="M7.33636 7.46579C7.64226 7.64572 7.64226 7.64572 7.73431 7.7734C7.756 7.89924 7.73484 7.9588 7.69525 8.0859C7.63177 8.16647 7.63177 8.16647 7.539 8.20309C7.39657 8.198 7.30133 8.19197 7.18744 8.10299C7.06814 8.01725 6.97853 8.02901 6.83588 8.04684C6.68591 8.14682 6.64319 8.27991 6.59021 8.4451C6.56244 8.51559 6.56244 8.51559 6.48431 8.59372C6.20838 8.62 6.20838 8.62 6.09369 8.53756C6.01323 8.3314 6.02468 8.12703 6.11322 7.92477C6.37383 7.46104 6.83921 7.31908 7.33636 7.46579Z" fill="#87C745"/>
<path d="M8.9003 8.26572C9.09001 8.38921 9.22867 8.54416 9.29917 8.7598C9.29654 8.87536 9.2878 8.93121 9.2186 9.02348C9.13624 9.08028 9.06672 9.10057 8.96958 9.12357C8.84517 9.09692 8.83044 9.06559 8.75473 8.96732C8.65959 8.84443 8.64265 8.83058 8.4813 8.79154C8.42087 8.79033 8.42087 8.79033 8.35923 8.7891C8.34603 8.80839 8.33284 8.82767 8.31925 8.84754C8.30183 8.87257 8.2844 8.89759 8.26645 8.92338C8.24923 8.9483 8.23201 8.97323 8.21427 8.99891C8.16391 9.06254 8.16391 9.06254 8.08579 9.1016C7.95395 9.11625 7.95395 9.11625 7.81235 9.1016C7.71469 9.02104 7.71469 9.02104 7.6561 8.90629C7.64545 8.71808 7.69961 8.61141 7.81479 8.46928C8.12631 8.14254 8.49027 8.06287 8.9003 8.26572Z" fill="#86C745"/>
<path d="M14.2566 17.323C14.3743 17.3537 14.4158 17.4054 14.4924 17.5C14.5243 17.6059 14.548 17.7034 14.5674 17.8116C14.5733 17.8415 14.5791 17.8715 14.5851 17.9023C14.6036 17.9976 14.6212 18.093 14.6388 18.1885C14.6512 18.253 14.6637 18.3175 14.6762 18.382C14.7658 18.8479 14.7658 18.8479 14.7658 18.9453C14.5595 18.9453 14.3533 18.9453 14.1408 18.9453C14.1072 18.7835 14.0737 18.6216 14.0407 18.4597C14.0294 18.4047 14.018 18.3497 14.0065 18.2947C13.99 18.2154 13.9738 18.1359 13.9577 18.0565C13.943 17.985 13.943 17.985 13.9279 17.9121C13.9008 17.7371 13.8772 17.5712 13.9455 17.4048C14.0456 17.3266 14.1318 17.3249 14.2566 17.323Z" fill="#FEC302"/>
<path d="M13.2422 7.14843C13.335 7.18749 13.335 7.18749 13.3984 7.26561C13.4215 7.39265 13.4303 7.45641 13.3984 7.57811C13.301 7.71363 13.1819 7.82221 13.0591 7.93456C12.9954 7.9948 12.9317 8.05512 12.8682 8.11553C12.8382 8.14374 12.8082 8.17195 12.7773 8.20102C12.6759 8.30018 12.5875 8.4041 12.5 8.51561C12.3787 8.49215 12.3022 8.45399 12.2046 8.3789C12.1161 8.31106 12.0615 8.27831 11.9531 8.24218C12.0149 8.09061 12.1181 7.98841 12.2327 7.87551C12.2523 7.85588 12.272 7.83625 12.2922 7.81603C12.3336 7.77474 12.3751 7.73354 12.4167 7.69243C12.4805 7.6294 12.5439 7.56606 12.6073 7.50266C12.6476 7.46254 12.6879 7.42243 12.7283 7.38234C12.7473 7.36338 12.7663 7.34442 12.7859 7.32489C12.942 7.17099 13.0201 7.13066 13.2422 7.14843Z" fill="#D3E861"/>
<path d="M9.64826 17.4219C9.75293 17.4812 9.79636 17.5177 9.83956 17.631C9.84667 17.6667 9.85379 17.7024 9.86112 17.7391C9.86925 17.7789 9.87738 17.8187 9.88576 17.8597C9.89359 17.9014 9.90142 17.943 9.90949 17.9858C9.92191 18.0462 9.92191 18.0462 9.93459 18.1078C9.98987 18.3867 10.0196 18.6617 10.0389 18.9453C9.84552 18.9453 9.65217 18.9453 9.45295 18.9453C9.41998 18.7834 9.3875 18.6215 9.35529 18.4595C9.34597 18.414 9.33666 18.3685 9.32706 18.3216C9.20533 17.7043 9.20533 17.7043 9.29914 17.478C9.41684 17.3907 9.50609 17.4044 9.64826 17.4219Z" fill="#FEC302"/>
<path d="M11.6406 14.4531C11.6866 14.6239 11.732 14.7948 11.7773 14.9658C11.7903 15.0142 11.8034 15.0625 11.8168 15.1123C11.8291 15.1591 11.8415 15.206 11.8542 15.2542C11.8714 15.3186 11.8714 15.3186 11.8889 15.3844C11.9232 15.5531 11.9501 15.6873 11.853 15.835C11.7203 15.9234 11.6405 15.9235 11.4843 15.8984C11.2953 15.7278 11.2579 15.4916 11.1987 15.2539C11.1879 15.2136 11.1771 15.1732 11.1659 15.1317C11.0775 14.7863 11.0775 14.7863 11.1328 14.6094C11.2179 14.5561 11.2179 14.5561 11.3232 14.519C11.3577 14.5063 11.3923 14.4936 11.4279 14.4804C11.5234 14.4531 11.5234 14.4531 11.6406 14.4531Z" fill="#FEC303"/>
<path d="M12.6391 17.6587C12.7734 17.6954 12.808 17.7082 12.8906 17.8125C12.9176 17.892 12.9176 17.892 12.9349 17.9825C12.9413 18.0158 12.9478 18.0491 12.9545 18.0834C12.9608 18.1181 12.9671 18.1528 12.9736 18.1885C12.9802 18.2223 12.9868 18.2561 12.9936 18.2909C13.035 18.5084 13.064 18.725 13.0859 18.9453C12.8926 18.9453 12.6992 18.9453 12.5 18.9453C12.4604 18.7762 12.4213 18.6069 12.3828 18.4375C12.374 18.4004 12.3653 18.3633 12.3562 18.3251C12.316 18.1445 12.2836 17.993 12.3437 17.8125C12.436 17.6741 12.4707 17.6558 12.6391 17.6587Z" fill="#FEC303"/>
<path d="M6.94315 10.3638C7.14139 10.4057 7.24117 10.5235 7.3826 10.6641C7.41788 10.6986 7.41788 10.6986 7.45388 10.7339C7.58709 10.8644 7.71973 10.9955 7.85135 11.1276C7.87391 11.1502 7.89647 11.1728 7.91971 11.1961C7.96854 11.25 7.96854 11.25 7.96854 11.2891C7.23341 11.3696 7.23341 11.3696 6.98938 11.1943C6.82006 11.0427 6.68877 10.9087 6.66406 10.6738C6.67947 10.5469 6.67947 10.5469 6.74295 10.4517C6.83572 10.3906 6.83572 10.3906 6.94315 10.3638Z" fill="#D3E862"/>
<path d="M7.26575 16.1328C7.29227 16.2426 7.31822 16.3524 7.34387 16.4624C7.35132 16.493 7.35878 16.5236 7.36646 16.5551C7.4143 16.7627 7.45334 16.9744 7.422 17.1875C7.33899 17.29 7.33899 17.29 7.22668 17.3438C7.10706 17.3486 7.10706 17.3486 6.99231 17.3047C6.76753 17.0799 6.72278 16.6953 6.71582 16.3892C6.71683 16.3561 6.71783 16.3231 6.71887 16.2891C6.78058 16.2627 6.84246 16.2367 6.90442 16.2109C6.93886 16.1964 6.9733 16.1819 7.00879 16.167C7.1095 16.1328 7.1095 16.1328 7.26575 16.1328Z" fill="#FEC302"/>
<path d="M16.6016 10.2345C16.6968 10.2979 16.6968 10.2979 16.7578 10.3907C16.7746 10.4986 16.7746 10.4986 16.7578 10.6251C16.6908 10.7156 16.6291 10.7884 16.5503 10.8668C16.5308 10.8871 16.5113 10.9074 16.4912 10.9284C16.4374 10.9841 16.3828 11.039 16.3281 11.0938C16.2947 11.1299 16.2947 11.1299 16.2605 11.1666C16.2109 11.211 16.2109 11.211 16.1328 11.211C16.1328 11.2368 16.1328 11.2626 16.1328 11.2892C16.0168 11.2892 15.9008 11.2892 15.7812 11.2892C15.7906 10.947 15.7992 10.6851 16.0547 10.4322C16.245 10.2665 16.3442 10.2123 16.6016 10.2345Z" fill="#D2E761"/>
<path d="M12.2266 9.90471C12.2544 9.90393 12.2822 9.90315 12.3108 9.90234C12.4465 9.90247 12.5249 9.91141 12.6355 9.99245C12.7231 10.1178 12.7166 10.2023 12.6953 10.3515C12.6353 10.4368 12.6353 10.4368 12.5391 10.5077C12.4291 10.5245 12.3385 10.5314 12.229 10.5297C12.2015 10.5306 12.1741 10.5316 12.1458 10.5325C11.9916 10.5321 11.92 10.5123 11.7969 10.4176C11.7188 10.3124 11.7188 10.3124 11.7163 10.1708C11.7997 9.90596 11.9739 9.90219 12.2266 9.90471Z" fill="#C1282D"/>
<path d="M9.1433 9.89998C9.18473 9.89934 9.18473 9.89934 9.227 9.89868C9.36165 9.90058 9.44028 9.91231 9.54964 9.9929C9.6376 10.118 9.63091 10.2025 9.60961 10.3516C9.5498 10.4371 9.5498 10.4371 9.45336 10.5079C9.34279 10.5236 9.25088 10.5298 9.14086 10.5274C9.11307 10.528 9.08527 10.5286 9.05663 10.5293C8.9206 10.5282 8.84281 10.5189 8.7333 10.4357C8.65211 10.3242 8.63022 10.2556 8.63305 10.1173C8.78017 9.92187 8.90918 9.89204 9.1433 9.89998Z" fill="#C1282D"/>
<path d="M11.1328 5.93751C11.2478 6.01616 11.2822 6.06617 11.3159 6.20118C11.2665 6.43477 11.0814 6.57648 10.9155 6.73829C10.793 6.81371 10.7272 6.82394 10.5859 6.79689C10.4642 6.69385 10.4328 6.63349 10.4175 6.47462C10.5257 6.16542 10.7952 5.90375 11.1328 5.93751Z" fill="#C0272D"/>
<path d="M10.9765 7.0116C11.0043 7.01099 11.032 7.01039 11.0607 7.00977C11.1962 7.01078 11.2751 7.02098 11.3854 7.10193C11.4731 7.22718 11.4665 7.31172 11.4452 7.46082C11.3854 7.54626 11.3854 7.54626 11.289 7.61707C11.1784 7.63273 11.0865 7.63899 10.9765 7.6366C10.9487 7.6372 10.9209 7.63781 10.8922 7.63843C10.7568 7.63742 10.6778 7.62722 10.5675 7.54626C10.4798 7.42102 10.4864 7.33647 10.5077 7.18738C10.633 7.00833 10.7726 7.00717 10.9765 7.0116Z" fill="#C1272D"/>
<path d="M11.6406 10.547C11.7514 10.6228 11.7514 10.6228 11.8506 10.7252C11.8839 10.7583 11.9173 10.7914 11.9516 10.8255C12.0457 10.9579 12.063 11.05 12.0703 11.211C12.0574 11.2368 12.0445 11.2626 12.0312 11.2892C11.5904 11.3309 11.5904 11.3309 11.4302 11.231C11.3065 11.1058 11.2181 11.0038 11.1987 10.8253C11.2109 10.7032 11.2109 10.7032 11.272 10.6105C11.4037 10.5227 11.4844 10.5306 11.6406 10.547Z" fill="#C1292F"/>
<path d="M9.96094 10.5468C10.0869 10.6296 10.1126 10.6829 10.1465 10.83C10.1094 11.0154 10.0423 11.1015 9.90509 11.2287C9.72684 11.3357 9.53624 11.3265 9.33594 11.289C9.25781 11.2108 9.25781 11.2108 9.25049 11.0912C9.28688 10.8696 9.48596 10.7247 9.64844 10.5858C9.75941 10.5303 9.83808 10.5345 9.96094 10.5468Z" fill="#C1292F"/>
<path d="M3.92578 12.478C4.0869 12.5039 4.12411 12.5256 4.21875 12.6562C4.2301 12.7693 4.23367 12.8664 4.22852 12.9785C4.22781 13.0076 4.22711 13.0367 4.22638 13.0667C4.22455 13.1382 4.22174 13.2098 4.21875 13.2812C4.01711 13.4024 4.01711 13.4024 3.86749 13.3842C3.83033 13.372 3.79317 13.3598 3.75488 13.3472C3.71712 13.3352 3.67935 13.3233 3.64044 13.311C3.61214 13.3012 3.58384 13.2914 3.55469 13.2812C3.58047 13.2684 3.60625 13.2555 3.63281 13.2422C3.631 13.205 3.62919 13.1678 3.62732 13.1294C3.62591 13.0804 3.6245 13.0314 3.62305 12.981C3.62123 12.9325 3.61942 12.884 3.61755 12.834C3.64091 12.6217 3.7115 12.5125 3.92578 12.478Z" fill="#8AC84A"/>
<path d="M10.8203 10.8204C10.9155 10.8814 10.9155 10.8814 10.9766 10.9766C10.9766 11.0669 10.9766 11.1571 10.9766 11.2501C10.7832 11.2501 10.5898 11.2501 10.3906 11.2501C10.3906 10.9766 10.3906 10.9766 10.4517 10.8814C10.5837 10.7968 10.6664 10.7984 10.8203 10.8204Z" fill="#C1272D"/>
<path d="M10.5078 7.77338C10.611 7.84616 10.611 7.84616 10.7129 7.94184C10.7639 7.98874 10.7639 7.98874 10.816 8.03659C10.8984 8.12494 10.8984 8.12494 10.9375 8.24213C10.8215 8.31947 10.7055 8.39682 10.5859 8.4765C10.5722 8.43139 10.5585 8.38627 10.5444 8.33979C10.471 8.14026 10.3416 8.00221 10.1953 7.8515C10.3235 7.76606 10.3592 7.75117 10.5078 7.77338Z" fill="#C02B2E"/>
</g>
<defs>
<clipPath id="clip0_82_13509">
<rect width="20" height="20" fill="white"/>
</clipPath>
</defs>
</svg>
