<svg width="20" height="20" viewBox="0 0 20 20" fill="none" xmlns="http://www.w3.org/2000/svg">
<g clip-path="url(#clip0_82_13576)">
<path d="M9.96351 -0.0122208C10.0024 -0.0121496 10.0413 -0.0120784 10.0814 -0.012005C10.6475 -0.010259 11.2014 0.00416836 11.7579 0.117174C11.7931 0.124085 11.8283 0.130996 11.8645 0.138116C12.1174 0.188857 12.3676 0.247884 12.6173 0.312486C12.6494 0.320675 12.6814 0.328864 12.7144 0.337301C14.3956 0.776972 15.8892 1.70747 17.1095 2.92967C17.1466 2.96492 17.1836 3.00017 17.2218 3.03649C18.526 4.286 19.4131 6.05484 19.7999 7.80516C19.8069 7.83672 19.8139 7.86829 19.8211 7.90081C19.8443 8.01428 19.8641 8.12789 19.8829 8.24217C19.8878 8.27146 19.8926 8.30074 19.8976 8.33091C19.9869 8.88499 20.0208 9.42697 20.0172 9.98778C20.0171 10.0267 20.017 10.0657 20.0169 10.1059C20.0143 10.734 19.9751 11.3371 19.8439 11.9531C19.8366 11.9892 19.8293 12.0253 19.8217 12.0625C19.5354 13.4559 18.9525 14.8063 18.0861 15.9375C18.069 15.9601 18.052 15.9826 18.0344 16.0059C17.7828 16.3382 17.5156 16.6525 17.2267 16.9531C17.2045 16.9763 17.1824 16.9996 17.1595 17.0235C16.8468 17.3496 16.5257 17.6484 16.1626 17.9175C16.0929 17.9694 16.0242 18.0224 15.9555 18.0755C15.5795 18.363 15.181 18.6018 14.7658 18.8281C14.74 18.8422 14.7142 18.8564 14.6876 18.871C13.4136 19.5606 11.9309 20.0003 10.477 20.0079C10.4418 20.0082 10.4066 20.0085 10.3704 20.0088C10.2575 20.0094 10.1447 20.0097 10.0319 20.0098C9.9933 20.0098 9.95473 20.0098 9.91499 20.0098C9.34892 20.0092 8.79934 19.9915 8.24232 19.8828C8.20728 19.8765 8.17224 19.8702 8.13614 19.8637C6.20097 19.5136 4.46416 18.5763 3.04701 17.2265C3.02361 17.2043 3.00021 17.182 2.97611 17.159C2.6502 16.8464 2.35156 16.5254 2.08257 16.1625C2.03068 16.0928 1.97772 16.024 1.92457 15.9553C1.49708 15.3962 1.15602 14.7779 0.859506 14.1406C0.846785 14.1135 0.834065 14.0864 0.820958 14.0584C0.314046 12.9623 -0.00202571 11.7122 -0.00780366 10.5012C-0.00802632 10.4639 -0.00824898 10.4265 -0.00847838 10.3881C-0.00884554 10.3092 -0.00910196 10.2303 -0.00925324 10.1514C-0.00962808 10.0338 -0.0108401 9.91624 -0.0120761 9.79865C-0.0149616 9.27067 0.0299042 8.76272 0.117318 8.24217C0.12467 8.19778 0.132022 8.15339 0.139596 8.10766C0.157793 8.00623 0.178057 7.90576 0.200326 7.80516C0.20832 7.76899 0.216314 7.73282 0.22455 7.69556C0.577879 6.17601 1.2923 4.74219 2.30482 3.55467C2.38294 3.51561 2.38294 3.51561 2.52454 3.5327C2.64007 3.5348 2.68502 3.52345 2.7786 3.45305C2.85839 3.3722 2.93319 3.28861 3.00794 3.20311C3.07279 3.13775 3.1379 3.07265 3.20326 3.0078C3.2314 2.97829 3.25955 2.94878 3.28855 2.91838C3.43289 2.76879 3.57361 2.62937 3.74082 2.50594C3.7658 2.48741 3.79078 2.46889 3.81652 2.4498C3.86581 2.41389 3.91566 2.37875 3.96611 2.34448C4.04517 2.28976 4.04517 2.28976 4.14076 2.18749C4.14298 2.09637 4.14301 2.00517 4.14076 1.91405C5.02998 0.789245 7.13727 0.280737 8.47669 0.0781112C8.52062 0.0711844 8.56456 0.0642576 8.60982 0.0571209C9.06114 -0.0073871 9.50813 -0.0139479 9.96351 -0.0122208Z" fill="#23A7FC"/>
<path d="M13.6328 1.28906C13.9148 1.37416 14.1663 1.49069 14.4263 1.62842C14.4861 1.65995 14.4861 1.65995 14.5471 1.69212C14.8282 1.84215 15.0945 1.9986 15.3516 2.1875C15.3758 2.20502 15.3999 2.22253 15.4249 2.24058C15.7553 2.48029 16.0682 2.72932 16.3672 3.00781C16.4215 3.05521 16.4761 3.10242 16.5308 3.14941C17.7722 4.23384 18.63 5.78151 19.1016 7.34375C19.1112 7.37513 19.1208 7.4065 19.1308 7.43883C19.5254 8.75456 19.5845 10.2527 19.3359 11.6016C19.3296 11.6373 19.3234 11.6731 19.3169 11.7099C19.0995 12.9174 18.627 14.0832 17.9688 15.1172C17.9476 15.1521 17.9265 15.1871 17.9047 15.2231C17.8122 15.3638 17.7397 15.4391 17.5769 15.4889C17.5301 15.5033 17.5301 15.5033 17.4824 15.5181C17.3137 15.5669 17.1447 15.6138 16.9751 15.6592C16.8985 15.6799 16.8219 15.7006 16.7453 15.7213C16.7076 15.7314 16.6699 15.7416 16.6311 15.7521C16.4527 15.8004 16.2746 15.8497 16.0966 15.8996C15.9193 15.9493 15.7416 15.9977 15.5637 16.0454C15.4742 16.0696 15.3848 16.0939 15.2954 16.1182C15.2525 16.1295 15.2097 16.1408 15.1655 16.1524C15.1054 16.1688 15.1054 16.1688 15.0441 16.1856C15.0083 16.1952 14.9725 16.2048 14.9355 16.2147C14.8378 16.2523 14.79 16.2845 14.7266 16.3672C14.7005 16.481 14.7005 16.481 14.7266 16.6016C14.7898 16.6708 14.8531 16.7335 14.9219 16.7969C14.9443 16.8179 14.9666 16.839 14.9897 16.8606C15.0645 16.9308 15.1396 17.0006 15.2148 17.0703C15.3805 17.2239 15.5446 17.3781 15.7031 17.5391C15.3671 17.8038 15.0203 18.0312 14.6484 18.2422C14.6232 18.2567 14.598 18.2712 14.572 18.2861C13.5077 18.8939 12.3048 19.2548 11.0938 19.4141C11.067 19.418 11.0403 19.422 11.0127 19.4261C9.26984 19.6603 7.42847 19.27 5.85938 18.5156C5.83237 18.5027 5.80537 18.4897 5.77755 18.4763C5.12192 18.1564 4.49129 17.7504 3.94531 17.2656C3.91278 17.2369 3.88026 17.2081 3.84674 17.1785C3.78134 17.12 3.71622 17.0612 3.65143 17.0021C3.58584 16.9424 3.5197 16.8833 3.45306 16.8248C3.2485 16.6446 3.06426 16.4599 2.89062 16.25C2.85611 16.2087 2.82157 16.1675 2.78702 16.1263C2.69102 16.0115 2.59543 15.8965 2.5 15.7812C3.13774 15.0215 3.71636 14.3835 4.67977 14.0665C4.89879 13.9943 5.11257 13.9111 5.32669 13.8255C5.39661 13.7978 5.46653 13.77 5.53646 13.7423C5.5882 13.7217 5.5882 13.7217 5.64098 13.7008C5.67518 13.6872 5.70939 13.6736 5.74463 13.6597C5.77849 13.6462 5.81235 13.6328 5.84723 13.6189C5.94352 13.5809 6.04003 13.5435 6.13663 13.5063C6.16555 13.4948 6.19447 13.4833 6.22426 13.4714C6.46119 13.3811 6.46119 13.3811 6.60156 13.4375C6.67607 13.5037 6.67607 13.5037 6.75441 13.5907C6.78409 13.6231 6.81377 13.6556 6.84436 13.6891C6.89238 13.742 6.89238 13.742 6.94138 13.7961C7.01106 13.8703 7.08088 13.9444 7.1508 14.0184C7.26055 14.1346 7.3696 14.2513 7.47615 14.3705C7.9007 14.8438 8.23028 15.1558 8.88492 15.1957C8.99644 15.1986 9.10724 15.1974 9.21875 15.1953C9.25254 15.1962 9.28633 15.1971 9.32114 15.1981C9.51586 15.2042 9.51586 15.2042 9.6875 15.1172C9.70039 15.0785 9.71328 15.0398 9.72656 15C10.023 15.0258 10.3195 15.0516 10.625 15.0781C10.6508 15.1555 10.6766 15.2328 10.7031 15.3125C10.814 15.3513 10.9018 15.374 11.0156 15.3906C11.0688 15.4027 11.0688 15.4027 11.123 15.415C11.4724 15.4713 11.4724 15.4713 11.7891 15.3754C11.8388 15.3125 11.8388 15.3125 11.875 15.2344C12.1715 15.2602 12.468 15.2859 12.7734 15.3125C12.7992 15.3898 12.825 15.4672 12.8516 15.5469C12.9567 15.6231 13.0571 15.6377 13.1847 15.6497C13.2189 15.653 13.2531 15.6563 13.2883 15.6596C13.3239 15.6627 13.3594 15.6658 13.396 15.6689C13.4472 15.674 13.4472 15.674 13.4995 15.6792C13.5711 15.6857 13.6429 15.6912 13.7146 15.6958C13.791 15.7007 13.8673 15.7076 13.9433 15.7163C14.3638 15.7463 14.6821 15.5691 15.0488 15.3882C15.1157 15.3561 15.1827 15.3241 15.2497 15.2922C15.3863 15.227 15.5227 15.1615 15.659 15.0957C15.9602 14.951 16.2651 14.8146 16.5698 14.6777C16.7181 14.6111 16.8661 14.5442 17.0136 14.4759C17.1042 14.4344 17.1954 14.3942 17.2871 14.3552C17.5314 14.2559 17.5314 14.2559 17.6721 14.0486C17.6535 13.8818 17.615 13.739 17.5586 13.5815C17.4538 13.271 17.3638 12.9585 17.2803 12.6416C17.2013 12.3437 17.1209 12.0476 17.0276 11.7538C16.9709 11.5726 16.92 11.3897 16.8684 11.207C16.8462 11.1297 16.8223 11.0529 16.7969 10.9766C16.7452 10.9497 16.6931 10.9237 16.6406 10.8984C16.5854 10.8403 16.5854 10.8403 16.5352 10.7719C16.5163 10.7466 16.4975 10.7212 16.478 10.695C16.4584 10.6679 16.4387 10.6408 16.4185 10.6128C16.398 10.5851 16.3775 10.5573 16.3564 10.5288C16.1951 10.309 16.0401 10.0851 15.8884 9.85855C15.8289 9.76247 15.8289 9.76247 15.7422 9.72656C15.6471 9.72129 15.5532 9.71826 15.4581 9.71725C15.4159 9.71678 15.4159 9.71678 15.3728 9.7163C15.3133 9.71576 15.2537 9.71534 15.1941 9.71503C15.1032 9.71436 15.0122 9.71265 14.9213 9.71092C14.8634 9.71053 14.8055 9.71019 14.7476 9.70993C14.7205 9.70925 14.6933 9.70856 14.6654 9.70786C14.5379 9.70843 14.464 9.71906 14.3581 9.79196C14.2832 9.90314 14.2759 9.96973 14.2731 10.1031C14.2718 10.1449 14.2706 10.1867 14.2693 10.2298C14.2687 10.2732 14.2681 10.3166 14.2676 10.3613C14.2664 10.4053 14.2653 10.4493 14.2641 10.4947C14.2613 10.6032 14.2592 10.7117 14.2578 10.8203C14.1957 10.7673 14.1337 10.7142 14.0719 10.6608C14.0103 10.6081 13.9481 10.5559 13.8855 10.5042C13.7745 10.4109 13.6671 10.3144 13.5596 10.2173C13.522 10.1867 13.4844 10.1562 13.4457 10.1247C13.1714 9.87032 13.1714 9.87032 13.1576 9.67302C13.1605 9.60254 13.1641 9.53209 13.1683 9.46168C13.1901 9.093 13.1552 8.85438 12.9076 8.56703C12.7181 8.35829 12.5125 8.16573 12.3053 7.97481C12.2193 7.89456 12.1353 7.81227 12.0514 7.72982C11.9506 7.63093 11.8486 7.53321 11.7465 7.43561C11.7274 7.41718 11.7083 7.39875 11.6886 7.37976C11.6342 7.32768 11.5789 7.27654 11.5235 7.22544C11.4923 7.19631 11.4611 7.16719 11.429 7.13718C11.3032 7.05376 11.2042 7.03997 11.0547 7.03125C10.9754 7.0646 10.9754 7.0646 10.9155 7.13135C10.89 7.15612 10.8646 7.1809 10.8383 7.20642C10.8066 7.23885 10.7749 7.27128 10.7422 7.30469C10.6956 7.35054 10.6489 7.39631 10.6021 7.44202C10.5036 7.53892 10.4053 7.63599 10.3078 7.73392C10.2767 7.76506 10.2767 7.76506 10.245 7.79683C10.1724 7.87685 10.1563 7.92906 10.1398 8.03687C10.1624 8.21164 10.2554 8.28865 10.3798 8.40225C10.4024 8.424 10.4251 8.44575 10.4484 8.46816C10.5206 8.53747 10.5934 8.60597 10.6665 8.67432C10.7628 8.76443 10.8584 8.85529 10.9535 8.94669C10.9871 8.97739 10.9871 8.97739 11.0215 9.00872C11.0831 9.068 11.0831 9.068 11.1719 9.17969C11.1694 9.28003 11.1694 9.28003 11.1328 9.375C11.1242 9.40598 11.1157 9.43697 11.1069 9.46889C11.0924 9.51645 11.0924 9.51645 11.0777 9.56497C11.0673 9.59959 11.0568 9.63421 11.0461 9.66988C11.0352 9.7055 11.0244 9.74113 11.0132 9.77783C11.0022 9.81421 10.9912 9.85059 10.9798 9.88808C10.9528 9.97749 10.9257 10.0669 10.8984 10.1562C10.7668 10.0493 10.644 9.94712 10.5347 9.81689C10.4298 9.69396 10.3233 9.57296 10.2148 9.45312C10.1105 9.33755 10.0069 9.22151 9.90479 9.104C9.76235 8.94041 9.61598 8.7805 9.46976 8.6203C9.38741 8.52934 9.3064 8.43747 9.22607 8.34473C9.19375 8.30802 9.19375 8.30802 9.16077 8.27057C9.10714 8.20948 9.05426 8.14774 9.00146 8.08594C8.91189 7.99888 8.91189 7.99888 8.79382 7.99069C8.63045 8.01363 8.59959 8.07489 8.50052 8.20358C8.37966 8.33203 8.31809 8.39242 8.1423 8.42112C8.00997 8.41692 7.87936 8.40907 7.74755 8.3974C7.31803 8.36525 6.95898 8.39275 6.61079 8.66951C6.24115 9.02385 6.11216 9.34859 6.10117 9.84836C6.10092 10.0691 6.11243 10.2879 6.13281 10.5078C5.84791 10.6067 5.56004 10.6871 5.26855 10.7642C5.17974 10.7878 5.09094 10.8114 5.00214 10.8351C4.96037 10.8461 4.91861 10.8572 4.87558 10.8685C4.79381 10.8908 4.71267 10.9154 4.63196 10.9412C4.20962 11.0481 3.70164 11.1415 3.28125 10.9766C2.82976 10.7055 2.47734 10.2472 2.14844 9.84375C2.40612 9.31437 2.6862 8.7977 2.96875 8.28125C2.99497 8.28137 3.02119 8.28149 3.04821 8.28161C3.32199 8.28257 3.59572 8.28162 3.8695 8.27958C3.97156 8.27907 4.07363 8.27904 4.1757 8.2795C4.32274 8.28009 4.46967 8.27893 4.6167 8.27744C4.66208 8.27799 4.70746 8.27855 4.75422 8.27912C5.02675 8.2743 5.17499 8.23579 5.36733 8.03842C5.38791 8.01543 5.40849 7.99244 5.42969 7.96875C5.46012 7.93998 5.49056 7.91121 5.52192 7.88157C5.54622 7.85732 5.57052 7.83307 5.59555 7.80807C5.62257 7.78111 5.64958 7.75415 5.67741 7.72636C5.70443 7.6992 5.73144 7.67203 5.75928 7.64404C5.78735 7.61612 5.81542 7.5882 5.84435 7.55943C5.87101 7.53272 5.89767 7.50601 5.92514 7.47849C5.94913 7.45445 5.97312 7.43042 5.99784 7.40565C6.07243 7.32443 6.09253 7.27204 6.11328 7.16309C6.06757 6.85452 5.72063 6.61578 5.50442 6.40425C5.45278 6.35352 5.40208 6.30184 5.35156 6.25C5.35156 6.23711 5.35156 6.22422 5.35156 6.21094C5.37896 6.21129 5.40635 6.21164 5.43457 6.21201C5.47163 6.21085 5.50869 6.20969 5.54688 6.2085C5.58313 6.20804 5.61938 6.20759 5.65674 6.20712C5.96723 6.11923 6.21814 5.77935 6.44043 5.55557C6.47207 5.52388 6.50371 5.49219 6.5363 5.45953C6.63627 5.35934 6.73611 5.25902 6.83594 5.15869C6.90414 5.0903 6.97234 5.02191 7.04056 4.95354C7.20683 4.78684 7.37299 4.62002 7.53906 4.45312C7.81137 4.63091 7.9011 4.77513 8.01758 5.07568C8.19087 5.59243 8.19087 5.59243 8.51562 5.97656C8.64563 6.00919 8.64563 6.00919 8.78906 5.97656C9.02654 5.76056 9.13969 5.37977 9.26437 5.09003C9.27657 5.06171 9.28876 5.0334 9.30132 5.00422C9.3237 4.95099 9.34536 4.89745 9.36613 4.84357C9.42289 4.69924 9.4718 4.61648 9.59961 4.52881C9.85142 4.32494 10.006 3.98397 10.0781 3.67188C10.1265 3.67459 10.1748 3.67731 10.2246 3.68011C10.7951 3.70181 11.2907 3.59696 11.8359 3.4375C11.9003 3.41917 11.9647 3.40086 12.0291 3.38257C12.1397 3.35089 12.2497 3.31807 12.3596 3.28415C12.4468 3.25809 12.5347 3.23417 12.6233 3.21365C12.6583 3.20535 12.6934 3.19704 12.7295 3.18848C12.7584 3.18253 12.7873 3.17659 12.8171 3.17047C12.941 3.09388 12.975 2.98703 13.0078 2.85156C13.0331 2.61494 13.0443 2.37679 13.0513 2.13898C13.0766 1.77375 13.0766 1.77375 13.223 1.60748C13.3301 1.52008 13.4389 1.44263 13.5547 1.36719C13.5805 1.34141 13.6062 1.31563 13.6328 1.28906Z" fill="#89FEC6"/>
<path d="M9.97816 -0.0147013C10.0356 -0.0144481 10.0356 -0.0144481 10.0943 -0.0141899C10.6556 -0.0112955 11.2061 0.00508532 11.7579 0.117135C11.7931 0.124046 11.8283 0.130957 11.8645 0.138077C12.1174 0.188818 12.3676 0.247845 12.6173 0.312447C12.6494 0.320636 12.6814 0.328825 12.7144 0.337262C14.3956 0.776933 15.8892 1.70743 17.1095 2.92963C17.1466 2.96488 17.1836 3.00013 17.2218 3.03645C18.526 4.28596 19.4131 6.0548 19.7999 7.80512C19.8069 7.83669 19.8139 7.86825 19.8211 7.90077C19.8443 8.01424 19.8641 8.12785 19.8829 8.24214C19.8878 8.27142 19.8926 8.3007 19.8976 8.33087C19.9869 8.88495 20.0208 9.42693 20.0172 9.98774C20.0171 10.0267 20.017 10.0657 20.0169 10.1058C20.0143 10.7339 19.9751 11.3371 19.8439 11.9531C19.8366 11.9892 19.8293 12.0252 19.8217 12.0624C19.5354 13.4559 18.9525 14.8062 18.0861 15.9374C18.069 15.96 18.052 15.9826 18.0344 16.0059C17.7828 16.3382 17.5156 16.6525 17.2267 16.9531C17.2045 16.9763 17.1824 16.9995 17.1595 17.0235C16.8468 17.3496 16.5257 17.6484 16.1626 17.9175C16.0929 17.9694 16.0242 18.0224 15.9555 18.0755C15.5795 18.363 15.181 18.6018 14.7658 18.8281C14.74 18.8422 14.7142 18.8563 14.6876 18.8709C13.4136 19.5605 11.9309 20.0003 10.477 20.0079C10.4418 20.0082 10.4066 20.0084 10.3704 20.0087C10.2575 20.0094 10.1447 20.0096 10.0319 20.0097C9.9933 20.0097 9.95473 20.0098 9.91499 20.0098C9.34892 20.0092 8.79934 19.9915 8.24232 19.8828C8.20728 19.8765 8.17224 19.8702 8.13614 19.8637C6.20097 19.5135 4.46416 18.5762 3.04701 17.2265C3.02361 17.2042 3.00021 17.182 2.97611 17.159C2.6502 16.8464 2.35156 16.5253 2.08257 16.1624C2.03068 16.0928 1.97772 16.024 1.92457 15.9553C1.49708 15.3962 1.15602 14.7779 0.859506 14.1406C0.846785 14.1135 0.834065 14.0863 0.820958 14.0584C0.314046 12.9623 -0.00202571 11.7122 -0.00780366 10.5012C-0.00802632 10.4639 -0.00824898 10.4265 -0.00847838 10.388C-0.00884554 10.3091 -0.00910196 10.2302 -0.00925324 10.1514C-0.00962808 10.0338 -0.0108401 9.9162 -0.0120761 9.79861C-0.0149616 9.27063 0.0299042 8.76268 0.117318 8.24214C0.12467 8.19774 0.132022 8.15335 0.139596 8.10762C0.157793 8.00619 0.178057 7.90573 0.200326 7.80512C0.20832 7.76895 0.216314 7.73278 0.22455 7.69552C0.577879 6.17598 1.2923 4.74215 2.30482 3.55463C2.41711 3.49849 2.49306 3.50066 2.61732 3.51557C2.71253 3.59614 2.71253 3.59614 2.77357 3.71088C2.76677 3.9395 2.68959 4.06623 2.54408 4.23335C1.76577 5.18061 1.22532 6.32217 0.898568 7.49995C0.885879 7.54189 0.87319 7.58384 0.860116 7.62705C0.527951 8.81135 0.456464 10.1926 0.664193 11.4062C0.670812 11.4486 0.670812 11.4486 0.677564 11.4919C0.887494 12.8144 1.40167 14.1224 2.14857 15.2343C2.31882 15.1713 2.42127 15.0386 2.53935 14.9073C3.09682 14.3043 3.56153 13.8627 4.35932 13.6131C4.57821 13.5414 4.79027 13.4526 5.00334 13.3654C5.04523 13.3484 5.08712 13.3313 5.13028 13.3137C5.30083 13.2442 5.47135 13.1747 5.64178 13.1049C5.7619 13.0559 5.8823 13.0077 6.00279 12.9597C6.03884 12.9448 6.07489 12.93 6.11204 12.9146C6.53736 12.7466 6.53736 12.7466 6.71888 12.8124C6.86161 12.9239 6.97633 13.057 7.09547 13.1928C7.13166 13.2321 7.16801 13.2712 7.2045 13.3102C7.35857 13.4751 7.51141 13.6409 7.66033 13.8104C8.07367 14.279 8.40979 14.6319 9.07179 14.6745C9.20395 14.677 9.33494 14.6782 9.46702 14.673C9.60206 14.6919 9.64527 14.7365 9.72669 14.8437C9.74681 14.987 9.75871 15.074 9.67054 15.1928C9.55111 15.2423 9.44962 15.2378 9.32181 15.2357C9.25221 15.2348 9.18258 15.2352 9.11299 15.2369C8.62851 15.2443 8.26288 15.1815 7.89759 14.847C7.72965 14.6787 7.56816 14.5059 7.41029 14.3282C7.28364 14.1865 7.15374 14.0477 7.02357 13.9092C6.95486 13.8357 6.88704 13.7614 6.82023 13.6861C6.77454 13.6362 6.77454 13.6362 6.72793 13.5853C6.70156 13.5558 6.67518 13.5262 6.64801 13.4957C6.56399 13.4258 6.56399 13.4258 6.44766 13.4432C6.33795 13.4738 6.23339 13.5072 6.12745 13.5489C6.08935 13.5638 6.05125 13.5787 6.01199 13.594C5.95101 13.6183 5.95101 13.6183 5.8888 13.643C5.84621 13.6597 5.80362 13.6764 5.75974 13.6937C5.66961 13.7291 5.57951 13.7647 5.48946 13.8004C5.35335 13.8543 5.21711 13.9078 5.08085 13.9614C4.90742 14.0295 4.73441 14.0986 4.56161 14.1683C4.43324 14.22 4.30525 14.2694 4.17385 14.3127C3.7311 14.47 3.44712 14.7994 3.13001 15.1318C3.07236 15.191 3.01463 15.2502 2.95683 15.3092C2.81675 15.4527 2.67771 15.5971 2.53919 15.7421C2.57636 15.7921 2.61358 15.842 2.65083 15.8919C2.67155 15.9197 2.69228 15.9475 2.71363 15.9762C2.78612 16.0711 2.86364 16.1596 2.94447 16.2475C3.0594 16.373 3.17243 16.4997 3.28382 16.6284C3.40212 16.7613 3.52485 16.8809 3.66102 16.9953C3.7263 17.0502 3.79045 17.1065 3.85389 17.1635C4.43043 17.6768 5.09722 18.0841 5.78138 18.4374C5.80497 18.4497 5.82855 18.462 5.85285 18.4747C7.15423 19.1442 8.59321 19.4162 10.0441 19.4238C10.0737 19.424 10.1033 19.4242 10.1338 19.4244C12.1228 19.435 14.0756 18.7181 15.6642 17.539C15.5057 17.378 15.3416 17.2238 15.1759 17.0703C15.0779 16.9795 14.9803 16.8883 14.8829 16.7968C14.8628 16.7782 14.8427 16.7596 14.8219 16.7404C14.7277 16.6509 14.6898 16.6134 14.6657 16.4819C14.6928 16.34 14.7347 16.303 14.8439 16.2109C14.937 16.1718 14.937 16.1718 15.0412 16.1441C15.0801 16.1334 15.1191 16.1228 15.1592 16.1118C15.201 16.101 15.2427 16.0902 15.2858 16.079C15.3291 16.0674 15.3724 16.0557 15.4171 16.0437C15.5514 16.0077 15.6859 15.9724 15.8204 15.9374C15.8813 15.9215 15.8813 15.9215 15.9435 15.9053C16.096 15.8656 16.2485 15.8259 16.401 15.7865C16.6842 15.7131 16.9656 15.6354 17.2449 15.5485C17.3829 15.5078 17.3829 15.5078 17.4881 15.4902C17.6792 15.454 17.7641 15.3686 17.8776 15.211C17.9661 15.0789 18.0462 14.9426 18.1251 14.8046C18.1494 14.7629 18.1494 14.7629 18.1741 14.7203C18.7334 13.746 19.1317 12.6458 19.3019 11.5356C19.3085 11.4941 19.3151 11.4526 19.3219 11.4098C19.3404 11.2915 19.358 11.1731 19.3751 11.0546C19.3794 11.0262 19.3836 10.9978 19.3879 10.9685C19.5558 9.68912 19.3712 8.32866 18.9845 7.10932C18.9741 7.07636 18.9637 7.0434 18.953 7.00943C18.5588 5.79414 17.9004 4.65011 17.0296 3.715C16.9606 3.64066 16.8959 3.56426 16.8312 3.48628C16.4328 3.03204 15.9626 2.64967 15.4689 2.30463C15.4432 2.28668 15.4176 2.26872 15.3912 2.25022C15.051 2.015 14.6971 1.81117 14.3312 1.6186C14.2742 1.58854 14.2742 1.58854 14.2161 1.55787C14.1137 1.50511 14.0108 1.4547 13.9064 1.4062C13.8802 1.39392 13.8541 1.38165 13.8271 1.369C13.7503 1.33581 13.7503 1.33581 13.6329 1.32807C13.5389 1.39014 13.4803 1.43809 13.4059 1.5185C13.3393 1.58644 13.272 1.65284 13.2033 1.7187C13.1775 1.7187 13.1517 1.7187 13.1251 1.7187C13.1232 1.76593 13.1213 1.81316 13.1193 1.86182C13.0707 2.96527 13.0707 2.96527 12.8908 3.16401C12.8074 3.20095 12.8074 3.20095 12.7122 3.22535C12.6601 3.23934 12.6601 3.23934 12.6069 3.25362C12.5717 3.26272 12.5364 3.27182 12.5001 3.2812C12.4367 3.29961 12.3733 3.31822 12.31 3.33704C12.1003 3.39787 11.8901 3.45689 11.6798 3.51557C11.6452 3.52539 11.6105 3.53521 11.5748 3.54533C11.0659 3.68827 10.6068 3.77249 10.0783 3.67182C10.0738 3.70576 10.0694 3.7397 10.0648 3.77467C10.0067 4.07291 9.87216 4.33663 9.62904 4.52143C9.44287 4.67161 9.3821 4.84135 9.3094 5.06096C9.23774 5.27373 9.14483 5.46437 9.03333 5.65913C9.01813 5.68584 9.00292 5.71255 8.98725 5.74008C8.92783 5.8422 8.87308 5.93169 8.78919 6.01557C8.65736 6.03022 8.65736 6.03022 8.51576 6.01557C8.37248 5.90022 8.29186 5.75388 8.20814 5.59321C8.1946 5.56776 8.18106 5.54231 8.16711 5.5161C8.04913 5.2891 7.95942 5.05561 7.8758 4.8141C7.79783 4.65778 7.71778 4.59455 7.57826 4.49213C7.36191 4.67217 7.16257 4.86417 6.9647 5.06419C6.93319 5.09584 6.90168 5.1275 6.86922 5.16011C6.76937 5.26044 6.66965 5.36089 6.56996 5.46137C6.43798 5.59439 6.30587 5.72728 6.17368 5.86009C6.12815 5.9061 6.12815 5.9061 6.0817 5.95305C6.05366 5.98122 6.02561 6.0094 5.99671 6.03843C5.97203 6.06331 5.94736 6.0882 5.92193 6.11383C5.81377 6.21431 5.7248 6.21997 5.58119 6.23286C5.54564 6.23613 5.51009 6.2394 5.47346 6.24278C5.44617 6.24514 5.41888 6.24751 5.39076 6.24995C5.41185 6.27084 5.43295 6.29173 5.45468 6.31325C5.54985 6.40761 5.64486 6.50212 5.73988 6.59663C5.77309 6.62951 5.80629 6.66239 5.84051 6.69627C5.87211 6.72774 5.9037 6.75921 5.93626 6.79163C5.98014 6.83521 5.98014 6.83521 6.0249 6.87966C6.10738 6.96744 6.12991 7.01528 6.15247 7.13374C6.1062 7.44607 5.73177 7.71181 5.51527 7.92719C5.48548 7.95713 5.4557 7.98706 5.42501 8.01791C5.39654 8.04633 5.36806 8.07476 5.33872 8.10404C5.31305 8.12967 5.28738 8.1553 5.26093 8.1817C5.14497 8.28872 5.06519 8.28598 4.91123 8.28563C4.84672 8.28563 4.84672 8.28563 4.7809 8.28562C4.73431 8.28542 4.68772 8.28522 4.63972 8.28501C4.59214 8.28496 4.54457 8.2849 4.49555 8.28484C4.3431 8.28463 4.19066 8.28413 4.03822 8.28364C3.93507 8.28344 3.83192 8.28327 3.72877 8.2831C3.47547 8.28267 3.22218 8.28202 2.96888 8.2812C2.9585 8.31504 2.94812 8.34889 2.93743 8.38376C2.8912 8.51432 2.83538 8.62823 2.76899 8.74964C2.73342 8.81513 2.73342 8.81513 2.69712 8.88194C2.6724 8.927 2.64767 8.97207 2.6222 9.0185C2.57343 9.10789 2.5247 9.19731 2.47602 9.28675C2.45443 9.32617 2.43283 9.36559 2.41058 9.40621C2.33347 9.5507 2.26019 9.69688 2.18763 9.8437C2.76707 10.6132 2.76707 10.6132 3.59205 11.0183C3.89827 11.0342 4.19235 10.9968 4.49232 10.9374C4.53523 10.9293 4.57813 10.9212 4.62234 10.9128C4.84983 10.8666 5.07024 10.8069 5.29098 10.7353C5.42156 10.6931 5.55317 10.6549 5.68496 10.6167C5.76802 10.5925 5.85075 10.5674 5.93351 10.5422C6.05482 10.5078 6.05482 10.5078 6.13294 10.5078C6.12844 10.4744 6.12394 10.441 6.11931 10.4067C6.06271 9.92138 6.00714 9.41356 6.27897 8.98478C6.50882 8.69648 6.77758 8.4263 7.15324 8.36564C7.38042 8.34155 7.60485 8.34273 7.83215 8.3636C8.1319 8.39432 8.1319 8.39432 8.39834 8.27319C8.50121 8.16743 8.50121 8.16743 8.5853 8.05449C8.67201 7.9687 8.67201 7.9687 8.79396 7.95142C8.95188 7.97569 8.9974 8.04446 9.10169 8.16401C9.14539 8.20739 9.18935 8.25051 9.23353 8.2934C9.3531 8.41297 9.46487 8.5376 9.57533 8.66557C9.71457 8.82599 9.85777 8.98292 10.0001 9.14057C10.2909 9.46254 10.5774 9.78758 10.8595 10.1171C10.9066 9.9839 10.9527 9.85036 10.9987 9.71674C11.012 9.67893 11.0254 9.64111 11.0392 9.60215C11.0579 9.54739 11.0579 9.54739 11.0769 9.49152C11.0886 9.45798 11.1003 9.42443 11.1123 9.38986C11.1362 9.2822 11.1399 9.24082 11.0939 9.14057C11.0233 9.06277 10.9529 8.99152 10.8764 8.91993C10.8321 8.87702 10.7877 8.83409 10.7433 8.79115C10.6732 8.72397 10.603 8.657 10.5324 8.59034C10.4643 8.52575 10.3969 8.46045 10.3296 8.39503C10.3083 8.37537 10.2871 8.35571 10.2652 8.33545C10.1633 8.23566 10.1193 8.18032 10.1016 8.0368C10.1188 7.91926 10.1365 7.87997 10.2174 7.79536C10.242 7.76958 10.2667 7.74379 10.292 7.71723C10.3246 7.6842 10.3572 7.65117 10.3908 7.61714C10.4371 7.56753 10.4835 7.51789 10.5298 7.46821C10.581 7.41444 10.6323 7.36072 10.6837 7.30708C10.7083 7.28069 10.7328 7.25431 10.7581 7.22713C10.8726 7.1101 10.9585 7.03844 11.1122 6.97733C11.2632 6.99353 11.2847 7.01004 11.3913 7.10819C11.4187 7.13317 11.4461 7.15815 11.4744 7.1839C11.5181 7.22433 11.5181 7.22433 11.5626 7.26557C11.5921 7.2921 11.6216 7.31863 11.6519 7.34596C11.8608 7.53415 12.0652 7.72673 12.2683 7.92111C12.3428 7.99162 12.4181 8.0613 12.4942 8.13012C13.1722 8.74511 13.1722 8.74511 13.2038 9.10015C13.2054 9.21682 13.2009 9.3317 13.1945 9.44818C13.1853 9.68595 13.2055 9.8213 13.3612 10.0058C13.4733 10.1206 13.5912 10.2258 13.7135 10.3295C13.7625 10.3742 13.8112 10.419 13.8598 10.464C13.9774 10.5723 14.0972 10.6775 14.2189 10.7812C14.219 10.755 14.2192 10.7288 14.2194 10.7018C14.2207 10.5826 14.2234 10.4634 14.2262 10.3442C14.2265 10.2824 14.2265 10.2824 14.2269 10.2193C14.228 10.1794 14.2292 10.1395 14.2303 10.0984C14.2309 10.0617 14.2316 10.0251 14.2322 9.98741C14.2692 9.83717 14.3303 9.77971 14.4533 9.68745C14.5597 9.66787 14.6414 9.65993 14.7474 9.66151C14.7753 9.66132 14.8032 9.66113 14.8319 9.66094C14.8906 9.66081 14.9493 9.66117 15.008 9.66198C15.0976 9.66303 15.1869 9.66199 15.2765 9.66074C15.3337 9.66087 15.3909 9.66112 15.4481 9.66151C15.4747 9.66111 15.5013 9.66072 15.5287 9.66031C15.6743 9.66387 15.7372 9.68321 15.8508 9.77669C15.9225 9.86432 15.9929 9.95084 16.0582 10.0433C16.0791 10.0726 16.1 10.1019 16.1215 10.1321C16.143 10.1626 16.1645 10.1931 16.1867 10.2246C16.2316 10.2876 16.2766 10.3505 16.3217 10.4135C16.3431 10.4434 16.3645 10.4733 16.3865 10.5041C16.5695 10.771 16.5695 10.771 16.7961 10.9982C16.9214 11.1496 16.9542 11.326 17.0045 11.5136C17.0283 11.5987 17.0521 11.6838 17.0759 11.7689C17.0879 11.8125 17.1 11.856 17.1123 11.9009C17.1687 12.1036 17.2284 12.3054 17.2877 12.5073C17.3103 12.5847 17.3328 12.6622 17.3553 12.7397C17.3998 12.8929 17.4448 13.0459 17.4899 13.199C17.5112 13.2719 17.5325 13.3449 17.5538 13.4179C17.5685 13.4673 17.5685 13.4673 17.5835 13.5176C17.6097 13.6077 17.6338 13.6979 17.6564 13.789C17.6636 13.8173 17.6708 13.8455 17.6782 13.8746C17.6945 13.9562 17.6945 13.9562 17.6954 14.1015C17.5601 14.2678 17.4058 14.3545 17.213 14.4392C17.1848 14.452 17.1567 14.4647 17.1278 14.4779C17.0356 14.5197 16.9432 14.5608 16.8507 14.602C16.7863 14.6311 16.7219 14.6602 16.6576 14.6893C16.5241 14.7497 16.3904 14.8099 16.2567 14.8699C16.0599 14.9584 15.8637 15.048 15.6676 15.1379C15.6212 15.1591 15.6212 15.1591 15.5739 15.1808C15.5131 15.2087 15.4523 15.2366 15.3914 15.2645C15.2013 15.3517 15.0111 15.4387 14.8207 15.5252C14.7399 15.562 14.6594 15.5993 14.5793 15.6375C14.3186 15.76 14.1155 15.7612 13.8283 15.7421C13.7953 15.74 13.7623 15.7379 13.7284 15.7357C13.6184 15.7281 13.5085 15.7195 13.3986 15.7104C13.3453 15.7063 13.3453 15.7063 13.291 15.7021C13.107 15.6849 12.9589 15.6706 12.8126 15.5468C12.7718 15.4065 12.7498 15.3203 12.8172 15.1873C12.8908 15.1171 12.8908 15.1171 13.0009 15.1005C13.0435 15.102 13.0861 15.1034 13.13 15.1049C13.1984 15.107 13.1984 15.107 13.2681 15.109C13.3718 15.1155 13.4738 15.124 13.5768 15.1367C13.6346 15.1433 13.6923 15.1498 13.7501 15.1562C13.7813 15.1605 13.8125 15.1648 13.8446 15.1692C14.2546 15.1997 14.5718 15.0167 14.9293 14.8413C14.9961 14.8093 15.0629 14.7775 15.1297 14.7458C15.2664 14.6808 15.4029 14.6154 15.5393 14.5498C15.8231 14.4139 16.1097 14.2842 16.3965 14.1548C16.5074 14.1047 16.6181 14.0545 16.7288 14.0043C16.8296 13.9585 16.9305 13.9128 17.0314 13.8671C17.0103 13.705 16.9847 13.5503 16.9383 13.3935C16.9275 13.3567 16.9167 13.3198 16.9055 13.2819C16.8939 13.243 16.8822 13.2041 16.8702 13.164C16.8582 13.1233 16.8462 13.0825 16.8337 13.0406C16.7957 12.9124 16.7574 12.7843 16.7189 12.6562C16.7002 12.594 16.7002 12.594 16.6812 12.5305C16.5796 12.1923 16.5796 12.1923 16.4756 11.8548C16.4559 11.7913 16.4368 11.7277 16.4184 11.6639C16.355 11.4533 16.2663 11.2975 16.1305 11.1254C15.9963 10.9535 15.8729 10.7865 15.7719 10.5926C15.6389 10.3719 15.6389 10.3719 15.4248 10.2506C15.3303 10.2412 15.2381 10.2385 15.1431 10.2389C15.1105 10.2381 15.078 10.2373 15.0444 10.2365C14.9645 10.2348 14.8847 10.2344 14.8048 10.2343C14.806 10.2991 14.806 10.2991 14.8073 10.3651C14.8101 10.5252 14.8119 10.6853 14.8134 10.8454C14.8142 10.9147 14.8153 10.984 14.8166 11.0533C14.8185 11.1529 14.8194 11.2524 14.8201 11.352C14.8209 11.383 14.8217 11.414 14.8225 11.446C14.8226 11.6578 14.8226 11.6578 14.7404 11.7587C14.6216 11.808 14.5423 11.8097 14.4142 11.7968C14.3195 11.7306 14.3195 11.7306 14.2268 11.6367C14.1918 11.6018 14.1567 11.5668 14.1206 11.5308C14.0831 11.4922 14.0456 11.4537 14.0082 11.415C13.9692 11.3758 13.9302 11.3366 13.8912 11.2974C13.7888 11.1943 13.6871 11.0905 13.5855 10.9865C13.5024 10.9017 13.4187 10.8173 13.335 10.733C13.2353 10.6326 13.1359 10.5319 13.0365 10.4312C13.008 10.4023 13.008 10.4023 12.9789 10.3728C12.9253 10.3184 12.8719 10.2638 12.8185 10.2092C12.788 10.1782 12.7576 10.1471 12.7262 10.1151C12.6499 10.032 12.6161 9.99477 12.6202 9.88128C12.6246 9.8325 12.6246 9.8325 12.6291 9.78273C12.6505 9.38289 12.6372 9.07725 12.3646 8.76655C12.2128 8.61189 12.0543 8.46655 11.8922 8.3227C11.8263 8.26114 11.7606 8.19937 11.6952 8.13738C11.5359 7.98754 11.3745 7.84043 11.2111 7.69526C11.0962 7.75021 11.0162 7.80314 10.9279 7.89546C10.8924 7.93252 10.857 7.96958 10.8204 8.00776C10.8815 8.15876 10.9771 8.24651 11.0956 8.35627C11.1347 8.39346 11.1738 8.43069 11.2128 8.46797C11.2742 8.52617 11.3357 8.58405 11.398 8.64123C11.7429 8.95894 11.7429 8.95894 11.7784 9.11089C11.7698 9.19001 11.7698 9.19001 11.7189 9.33589C11.7071 9.3802 11.6954 9.42451 11.6833 9.47016C11.5923 9.75144 11.5923 9.75144 11.5564 9.86052C11.5187 9.97585 11.482 10.0915 11.4453 10.2072C11.4177 10.2927 11.3901 10.3783 11.3624 10.4638C11.3493 10.5054 11.3361 10.547 11.3226 10.5899C11.3099 10.6287 11.2971 10.6676 11.284 10.7076C11.2728 10.7425 11.2615 10.7774 11.25 10.8134C11.2111 10.8984 11.2111 10.8984 11.0939 10.9765C10.9238 10.9767 10.8202 10.9526 10.7008 10.8335C10.6619 10.7898 10.6237 10.7455 10.5861 10.7006C10.5657 10.6775 10.5454 10.6543 10.5245 10.6305C10.4663 10.564 10.4089 10.4969 10.3517 10.4296C10.3037 10.3751 10.2557 10.3205 10.2077 10.2661C10.1869 10.242 10.1661 10.218 10.1446 10.1933C10.0074 10.0358 9.86666 9.88151 9.72669 9.72651C9.51648 9.49372 9.30763 9.25996 9.10169 9.02339C9.05044 8.96478 8.99917 8.90619 8.94789 8.8476C8.90801 8.80203 8.86813 8.75646 8.82826 8.71089C8.70162 8.7255 8.66979 8.75241 8.58183 8.85005C8.4007 9.00853 8.15677 8.95539 7.93127 8.94732C7.3783 8.92579 7.3783 8.92579 6.89955 9.15766C6.61644 9.45903 6.66971 9.97277 6.67793 10.3599C6.67852 10.3889 6.67911 10.4178 6.67971 10.4477C6.68117 10.5028 6.68327 10.558 6.68611 10.613C6.69004 10.7299 6.68599 10.8085 6.63107 10.9129C6.55406 10.9845 6.50449 11.0068 6.40302 11.0321C6.37052 11.0405 6.33802 11.049 6.30453 11.0577C6.26885 11.0664 6.23318 11.075 6.19642 11.0839C6.11755 11.1036 6.03872 11.1235 5.95991 11.1434C5.91798 11.1541 5.87604 11.1647 5.83284 11.1756C5.70227 11.2112 5.57486 11.2523 5.4466 11.2954C4.88252 11.4793 4.36837 11.5554 3.77699 11.56C3.74475 11.5606 3.71251 11.5613 3.67929 11.5619C3.58659 11.5633 3.49416 11.5626 3.40147 11.5611C3.37421 11.5615 3.34695 11.5619 3.31886 11.5623C3.0697 11.553 2.94308 11.4211 2.77357 11.2499C2.74983 11.2271 2.7261 11.2042 2.70165 11.1807C2.62964 11.1111 2.55876 11.0406 2.48808 10.9696C2.44986 10.9315 2.44986 10.9315 2.41088 10.8926C2.35769 10.8394 2.30455 10.7862 2.25146 10.7329C2.16993 10.6512 2.08819 10.5697 2.00643 10.4882C1.95457 10.4363 1.90271 10.3844 1.85087 10.3324C1.82642 10.3081 1.80197 10.2837 1.77677 10.2586C1.56894 10.0496 1.56894 10.0496 1.54768 9.8823C1.55139 9.6761 1.66159 9.51703 1.76283 9.34321C1.80566 9.26746 1.84843 9.19167 1.89115 9.11585C1.91387 9.07586 1.93658 9.03587 1.95999 8.99466C2.03515 8.8604 2.10804 8.72503 2.18015 8.58912C2.19242 8.56605 2.20469 8.54298 2.21732 8.51921C2.27747 8.40602 2.33744 8.29275 2.39723 8.17937C2.41915 8.1383 2.44108 8.09723 2.46366 8.05491C2.48298 8.01844 2.50229 7.98198 2.52219 7.94441C2.57601 7.85523 2.61385 7.79814 2.69544 7.73432C2.79065 7.72216 2.79065 7.72216 2.90508 7.72549C2.96947 7.72679 2.96947 7.72679 3.03517 7.72812C3.10493 7.73013 3.10493 7.73013 3.1761 7.73219C3.27487 7.73322 3.37364 7.73413 3.47242 7.73493C3.62801 7.73669 3.78331 7.73918 3.93884 7.74382C4.60644 7.78914 4.60644 7.78914 5.18124 7.51053C5.27501 7.40801 5.35414 7.30406 5.42982 7.18745C5.36735 7.02798 5.25252 6.92666 5.13044 6.81193C5.08616 6.76921 5.04191 6.72646 4.99769 6.68368C4.92811 6.61676 4.85836 6.55008 4.78807 6.48391C4.72009 6.41972 4.65301 6.35468 4.58601 6.28947C4.56489 6.27001 4.54378 6.25055 4.52202 6.2305C4.41365 6.12366 4.3763 6.06288 4.35463 5.91056C4.37513 5.7812 4.37513 5.7812 4.4213 5.71399C4.52319 5.64229 4.589 5.65964 4.71169 5.67243C5.19234 5.70324 5.56438 5.69885 5.9436 5.37556C6.11099 5.21499 6.26945 5.04833 6.42398 4.87539C6.49585 4.79629 6.57025 4.71981 6.64484 4.64328C6.73423 4.55135 6.82219 4.45809 6.91007 4.36472C6.95906 4.31289 6.95906 4.31289 7.00903 4.26001C7.03835 4.22731 7.06767 4.19461 7.09788 4.16091C7.12381 4.13241 7.14975 4.1039 7.17647 4.07453C7.24472 3.95196 7.22029 3.88352 7.18763 3.74995C7.15817 3.23501 7.21277 2.86688 7.53919 2.46088C7.78727 2.18451 8.09764 2.01625 8.46845 1.97611C8.96754 1.96461 9.34818 2.08981 9.71449 2.43159C9.89079 2.61596 10.025 2.83492 10.0783 3.08588C10.136 3.09264 10.1938 3.09908 10.2516 3.10542C10.2838 3.10904 10.3159 3.11267 10.3491 3.1164C10.6732 3.13953 10.939 3.10596 11.2526 3.01753C11.3318 2.99604 11.4111 2.97458 11.4903 2.95313C11.529 2.94252 11.5676 2.93191 11.6075 2.92098C11.7638 2.87831 11.9206 2.8376 12.0778 2.7978C12.1259 2.78541 12.1739 2.77302 12.2235 2.76026C12.3439 2.73432 12.3439 2.73432 12.5001 2.73432C12.502 2.68664 12.504 2.63895 12.5059 2.58982C12.5502 1.57381 12.5502 1.57381 12.7052 1.36713C12.7407 1.34135 12.7761 1.31557 12.8126 1.28901C12.8542 1.25513 12.8955 1.22095 12.9365 1.18647C12.973 1.15586 13.0094 1.12524 13.047 1.0937C11.3769 0.523456 9.57639 0.388113 7.85169 0.82026C7.82441 0.826793 7.79713 0.833327 7.76903 0.840058C6.64289 1.11039 5.59282 1.57953 4.63819 2.23612C4.53138 2.30463 4.53138 2.30463 4.43128 2.32661C4.28486 2.29282 4.22783 2.22969 4.14076 2.10932C4.12122 1.97993 4.12122 1.97993 4.17982 1.83588C4.30683 1.70833 4.45664 1.61666 4.60951 1.52338C4.63816 1.50579 4.66682 1.4882 4.69635 1.47007C5.78789 0.80788 6.97883 0.325883 8.24232 0.117135C8.27165 0.112283 8.30099 0.107431 8.33121 0.102431C8.88234 0.0135241 9.42038 -0.0193982 9.97816 -0.0147013Z" fill="#232122"/>
<path d="M9.0771 2.61713C9.30251 2.7447 9.4189 2.92033 9.54585 3.13959C9.61477 3.42906 9.58543 3.66754 9.44346 3.92924C9.36679 4.0346 9.28393 4.10355 9.18208 4.18452C8.91872 4.40352 8.84943 4.68401 8.74995 4.99995C8.72462 5.06533 8.6989 5.13058 8.67182 5.19526C8.53848 5.08938 8.49321 4.94421 8.43501 4.78999C8.42501 4.7642 8.41502 4.73842 8.40472 4.71186C8.36239 4.60262 8.32076 4.49361 8.28333 4.38258C8.23431 4.28053 8.18858 4.24848 8.09321 4.1894C7.91172 4.05882 7.80353 3.92519 7.73432 3.71088C7.69811 3.44937 7.69783 3.1919 7.83579 2.96015C8.1512 2.55953 8.59409 2.40011 9.0771 2.61713Z" fill="#4E65CD"/>
<path d="M17.1484 16.211C17.0184 16.3458 16.8878 16.48 16.7565 16.6137C16.7119 16.6592 16.6675 16.705 16.6233 16.7509C16.5597 16.8168 16.4956 16.882 16.4313 16.9472C16.4116 16.9679 16.3919 16.9886 16.3716 17.01C16.3147 17.0668 16.3147 17.0668 16.2109 17.1485C16.0729 17.1431 16.0026 17.0742 15.9033 16.9825C15.8764 16.958 15.8495 16.9336 15.8218 16.9085C15.7956 16.8845 15.7693 16.8606 15.7422 16.836C15.6647 16.7701 15.5863 16.7054 15.5078 16.6407C15.5933 16.5552 15.6268 16.5456 15.7411 16.519C15.7727 16.5115 15.8044 16.5039 15.837 16.4961C15.8709 16.4882 15.9049 16.4803 15.9399 16.4722C16.2383 16.401 16.5323 16.3219 16.8244 16.228C17.0188 16.1677 17.0188 16.1677 17.1484 16.211Z" fill="#23A4F7"/>
<path d="M11.3671 14.8829C11.4062 14.8884 11.4453 14.8939 11.4855 14.8996C11.7736 14.9483 11.7736 14.9483 11.8749 15.0782C11.892 15.193 11.892 15.193 11.8749 15.3126C11.7941 15.4167 11.7487 15.4635 11.6174 15.4869C10.8933 15.4655 10.8933 15.4655 10.664 15.3126C10.6151 15.1507 10.6071 15.0734 10.686 14.922C10.906 14.794 11.1223 14.8475 11.3671 14.8829Z" fill="#242325"/>
<path d="M8.75527 3.14913C8.86712 3.16409 8.86712 3.16409 8.99407 3.22756C9.06243 3.32034 9.06243 3.32034 9.0844 3.43752C9.05712 3.58301 9.02302 3.62162 8.90618 3.71096C8.77541 3.73034 8.77541 3.73034 8.6303 3.72805C8.55832 3.72798 8.55832 3.72798 8.48488 3.7279C8.3593 3.71096 8.3593 3.71096 8.28484 3.65969C8.21125 3.54615 8.22607 3.45098 8.24212 3.32034C8.38868 3.12642 8.52701 3.14077 8.75527 3.14913Z" fill="#272323"/>
</g>
<defs>
<clipPath id="clip0_82_13576">
<rect width="20" height="20" fill="white"/>
</clipPath>
</defs>
</svg>
