<svg width="20" height="20" viewBox="0 0 20 20" fill="none" xmlns="http://www.w3.org/2000/svg">
<path d="M7.58992 1.23956C7.62291 1.23938 7.65589 1.2392 7.68987 1.23902C7.80058 1.23853 7.91127 1.23859 8.02198 1.23866C8.10129 1.23842 8.1806 1.23816 8.25991 1.23786C8.47558 1.23717 8.69125 1.23699 8.90691 1.23694C9.04174 1.23688 9.17656 1.23672 9.31138 1.23651C9.782 1.23578 10.2526 1.23547 10.7232 1.23553C11.1614 1.23557 11.5996 1.23475 12.0378 1.23352C12.4143 1.23249 12.7907 1.23208 13.1672 1.23213C13.3919 1.23215 13.6166 1.23193 13.8413 1.2311C14.0529 1.23034 14.2645 1.23034 14.4762 1.2309C14.5536 1.23098 14.631 1.2308 14.7084 1.23033C15.389 1.22643 15.8824 1.33196 16.3967 1.80909C16.8169 2.25308 16.893 2.73916 16.8904 3.32986C16.8905 3.3898 16.8907 3.44975 16.891 3.50969C16.8916 3.67358 16.8914 3.83747 16.8911 4.00136C16.8909 4.17844 16.8914 4.35551 16.8918 4.53259C16.8925 4.87918 16.8925 5.22577 16.8923 5.57236C16.8921 5.85414 16.8922 6.13593 16.8924 6.41771C16.8924 6.45785 16.8925 6.49799 16.8925 6.53935C16.8926 6.6209 16.8926 6.70245 16.8927 6.78401C16.8932 7.54839 16.893 8.31278 16.8926 9.07717C16.8922 9.77602 16.8927 10.4749 16.8936 11.1737C16.8946 11.8918 16.8949 12.6099 16.8947 13.328C16.8945 13.731 16.8946 14.1339 16.8953 14.5369C16.8959 14.8799 16.8959 15.2229 16.8952 15.566C16.8949 15.7409 16.8948 15.9157 16.8954 16.0906C16.896 16.251 16.8958 16.4113 16.895 16.5716C16.8949 16.6294 16.895 16.6872 16.8954 16.745C16.8995 17.3661 16.7394 17.8152 16.3161 18.2715C15.921 18.6455 15.4697 18.7682 14.9377 18.7651C14.8937 18.7654 14.8497 18.7656 14.8043 18.7658C14.6576 18.7663 14.5109 18.7661 14.3642 18.7658C14.2587 18.766 14.1532 18.7663 14.0477 18.7666C13.7913 18.7673 13.535 18.7673 13.2786 18.7671C13.0702 18.7669 12.8617 18.767 12.6532 18.7672C12.6235 18.7672 12.5937 18.7673 12.5631 18.7673C12.5027 18.7674 12.4423 18.7674 12.3818 18.7675C11.816 18.768 11.2501 18.7678 10.6842 18.7674C10.1672 18.767 9.65024 18.7675 9.13326 18.7684C8.60161 18.7694 8.06996 18.7697 7.53831 18.7695C7.24016 18.7693 6.942 18.7694 6.64385 18.7701C6.39003 18.7707 6.13622 18.7707 5.8824 18.77C5.75306 18.7697 5.62374 18.7697 5.49441 18.7702C5.3538 18.7707 5.21323 18.7703 5.07262 18.7696C5.0323 18.77 4.99199 18.7703 4.95045 18.7707C4.41155 18.7653 3.99367 18.5527 3.60372 18.1909C3.21512 17.7803 3.10719 17.3199 3.11006 16.7694C3.10985 16.7208 3.10964 16.6721 3.10943 16.622C3.10897 16.4879 3.10903 16.3538 3.10932 16.2198C3.1095 16.0748 3.10901 15.9299 3.10861 15.7849C3.10794 15.5014 3.10791 15.2178 3.10811 14.9343C3.10827 14.7039 3.10821 14.4735 3.108 14.243C3.10798 14.2102 3.10795 14.1774 3.10792 14.1435C3.10786 14.0768 3.1078 14.0101 3.10774 13.9434C3.1072 13.3185 3.10741 12.6936 3.10786 12.0687C3.10825 11.497 3.10774 10.9253 3.10681 10.3536C3.10586 9.76627 3.10548 9.17892 3.10574 8.59156C3.10588 8.26193 3.10579 7.9323 3.10511 7.60267C3.10453 7.32223 3.1045 7.04179 3.10519 6.76134C3.10552 6.61827 3.1056 6.47521 3.105 6.33214C3.10437 6.17709 3.10494 6.02206 3.10563 5.86701C3.10507 5.79912 3.10507 5.79912 3.10449 5.72987C3.10764 5.38787 3.20373 5.22432 3.44453 4.98326C3.49283 4.93464 3.49283 4.93464 3.5421 4.88502C3.59458 4.83278 3.59458 4.83278 3.64813 4.77948C3.68563 4.74187 3.72311 4.70425 3.76058 4.66661C3.86193 4.56491 3.96352 4.46345 4.06516 4.36205C4.17167 4.25575 4.27797 4.14926 4.38432 4.04279C4.56281 3.86416 4.74146 3.68569 4.92021 3.50731C5.12681 3.30114 5.33312 3.0947 5.53929 2.8881C5.71649 2.71054 5.89386 2.53312 6.07134 2.35584C6.17727 2.25003 6.28315 2.14418 6.38888 2.03818C6.48823 1.93861 6.58777 1.83923 6.68745 1.74C6.74141 1.68619 6.79518 1.63219 6.84894 1.57818C6.89724 1.53022 6.89724 1.53022 6.94651 1.48128C6.9744 1.45342 7.00228 1.42557 7.03101 1.39687C7.20808 1.24196 7.36029 1.23866 7.58992 1.23956ZM8.12521 2.5C8.12506 2.52735 8.12492 2.55469 8.12478 2.58286C8.12329 2.84256 8.12106 3.10224 8.11802 3.36192C8.11649 3.49538 8.11523 3.62882 8.11462 3.76229C8.11391 3.91629 8.11195 4.07026 8.10995 4.22425C8.1099 4.27139 8.10985 4.31852 8.1098 4.36709C8.10074 4.90018 7.94194 5.32308 7.57437 5.71183C7.14191 6.1206 6.69611 6.2217 6.11852 6.22712C6.06862 6.22787 6.01872 6.22863 5.96731 6.22941C5.83547 6.23134 5.70364 6.23296 5.5718 6.23441C5.43693 6.23598 5.30208 6.23798 5.16721 6.23993C4.90322 6.24368 4.63922 6.247 4.37521 6.25C4.37252 7.59758 4.37046 8.94516 4.36922 10.2927C4.36908 10.4519 4.36892 10.611 4.36877 10.7702C4.36874 10.8019 4.36871 10.8335 4.36868 10.8662C4.36817 11.379 4.36724 11.8918 4.36617 12.4046C4.36507 12.9309 4.36442 13.4572 4.36418 13.9835C4.36402 14.3081 4.36351 14.6328 4.36256 14.9575C4.36194 15.1802 4.36175 15.4029 4.36191 15.6257C4.36198 15.7541 4.3618 15.8825 4.36124 16.011C4.36065 16.1504 4.3608 16.2899 4.36112 16.4294C4.36077 16.4697 4.36043 16.51 4.36008 16.5515C4.36166 16.8063 4.37606 17.0817 4.5422 17.2886C4.79214 17.5173 5.09229 17.5114 5.41036 17.5102C5.47159 17.5104 5.47159 17.5104 5.53406 17.5106C5.67059 17.511 5.80711 17.5109 5.94364 17.5107C6.04163 17.5109 6.13962 17.5111 6.23761 17.5113C6.476 17.5118 6.71439 17.5119 6.95279 17.5118C7.14662 17.5117 7.34045 17.5118 7.53428 17.512C7.5757 17.512 7.5757 17.512 7.61796 17.5121C7.67407 17.5121 7.73017 17.5121 7.78628 17.5122C8.31214 17.5126 8.838 17.5125 9.36386 17.5123C9.84455 17.5121 10.3252 17.5125 10.8059 17.5133C11.2999 17.514 11.7939 17.5144 12.2879 17.5142C12.5651 17.5141 12.8423 17.5142 13.1194 17.5148C13.3801 17.5153 13.6408 17.5152 13.9014 17.5147C13.997 17.5146 14.0926 17.5147 14.1882 17.515C14.3189 17.5154 14.4495 17.5151 14.5801 17.5146C14.6178 17.5149 14.6555 17.5152 14.6944 17.5155C14.9429 17.5135 15.2124 17.4945 15.4139 17.333C15.6744 17.0477 15.6365 16.6829 15.6354 16.3225C15.6355 16.2658 15.6357 16.2091 15.6358 16.1524C15.6362 15.9969 15.6362 15.8414 15.636 15.686C15.6359 15.5181 15.6362 15.3503 15.6365 15.1825C15.637 14.8539 15.6371 14.5253 15.637 14.1966C15.6369 13.9295 15.637 13.6624 15.6372 13.3952C15.6372 13.3382 15.6372 13.3382 15.6373 13.28C15.6373 13.2028 15.6373 13.1255 15.6374 13.0483C15.6378 12.3239 15.6377 11.5996 15.6375 10.8752C15.6373 10.2126 15.6377 9.55007 15.6385 8.8875C15.6392 8.20706 15.6396 7.52661 15.6394 6.84616C15.6393 6.4642 15.6394 6.08223 15.64 5.70026C15.6405 5.37509 15.6405 5.04991 15.64 4.72474C15.6398 4.55887 15.6398 4.39301 15.6402 4.22714C15.6407 4.0752 15.6405 3.92326 15.64 3.77131C15.6399 3.71645 15.64 3.66159 15.6403 3.60673C15.6508 3.13247 15.6508 3.13247 15.4582 2.71187C15.244 2.51422 14.9857 2.49021 14.7063 2.49061C14.678 2.49054 14.6497 2.49048 14.6205 2.49041C14.5264 2.49028 14.4322 2.49071 14.3381 2.49114C14.2703 2.49116 14.2025 2.49115 14.1347 2.4911C13.9512 2.49108 13.7677 2.49154 13.5842 2.49208C13.3923 2.49257 13.2003 2.49262 13.0084 2.49271C12.6451 2.49295 12.2818 2.49359 11.9185 2.49438C11.5048 2.49525 11.0912 2.49568 10.6775 2.49607C9.82673 2.49689 8.97597 2.49826 8.12521 2.5Z" fill="#910000"/>
<path d="M12.2656 8.20314C13.0329 8.84796 13.6312 9.68248 13.75 10.7031C13.8284 11.8119 13.6372 12.7828 12.9236 13.658C12.2856 14.3892 11.4275 14.9232 10.4449 15.0089C10.3396 15.0149 10.2348 15.0181 10.1294 15.0195C10.0803 15.0206 10.0803 15.0206 10.0303 15.0217C9.81925 15.0196 9.69889 14.9826 9.53125 14.8438C9.38952 14.6946 9.36289 14.5749 9.35547 14.375C9.36289 14.1751 9.38952 14.0555 9.53125 13.9063C9.73494 13.7373 9.9146 13.7202 10.1733 13.6963C10.8831 13.6135 11.4559 13.3461 11.9241 12.7855C12.3796 12.1819 12.473 11.5586 12.4219 10.8203C12.3954 10.6414 12.3375 10.4781 12.2656 10.3125C12.2515 10.2783 12.2373 10.2441 12.2227 10.2089C11.9531 9.6156 11.4528 9.17866 10.8545 8.93556C10.1876 8.71203 9.50548 8.76901 8.86719 9.06252C8.451 9.29528 8.12217 9.58146 7.89062 10C7.92174 9.99821 7.95286 9.99639 7.98492 9.99452C8.32276 9.98302 8.32276 9.98302 8.49609 10.0635C8.68416 10.2422 8.75983 10.3636 8.76953 10.625C8.76158 10.8259 8.73843 10.9455 8.59375 11.0938C8.33482 11.2676 8.06003 11.4121 7.78275 11.5542C7.73104 11.5808 7.67954 11.6079 7.62825 11.6354C7.31497 11.803 7.00575 11.9628 6.64062 11.875C6.45585 11.7703 6.31224 11.6363 6.16394 11.4868C6.14191 11.4649 6.11989 11.4429 6.0972 11.4203C6.05101 11.3742 6.00493 11.328 5.95894 11.2816C5.88861 11.2109 5.81786 11.1406 5.74707 11.0703C5.70208 11.0252 5.65712 10.9802 5.61218 10.9351C5.58057 10.9037 5.58057 10.9037 5.54831 10.8717C5.36756 10.6887 5.30112 10.5742 5.29785 10.3174C5.30181 10.114 5.32424 9.99588 5.46875 9.84377C5.61794 9.70204 5.73761 9.67541 5.9375 9.66799C6.14582 9.67419 6.24877 9.71115 6.40625 9.84377C6.43203 9.84377 6.45781 9.84377 6.48438 9.84377C6.50285 9.80409 6.52133 9.76441 6.54037 9.72353C7.01242 8.73165 7.75307 8.02483 8.78906 7.65627C8.81367 7.6475 8.83828 7.63873 8.86364 7.6297C9.97878 7.2554 11.3312 7.4958 12.2656 8.20314Z" fill="#910000"/>
</svg>
