<svg width="30" height="30" viewBox="0 0 30 30" fill="none" xmlns="http://www.w3.org/2000/svg">
<g clip-path="url(#clip0_82_14286)">
<path d="M20.7014 14.9896C20.7664 14.9889 20.8313 14.9881 20.8982 14.9874C20.9686 14.9869 21.0391 14.9865 21.1116 14.9861C21.1837 14.9856 21.2558 14.9851 21.3301 14.9846C21.4829 14.9838 21.6357 14.9832 21.7885 14.9827C21.9453 14.9822 22.102 14.981 22.2587 14.9791C22.4843 14.9766 22.7098 14.9757 22.9354 14.9751C23.0055 14.974 23.0757 14.973 23.1481 14.972C23.2134 14.9721 23.2787 14.9723 23.3459 14.9725C23.4034 14.9721 23.4608 14.9718 23.5199 14.9714C23.7144 15.008 23.783 15.0831 23.9063 15.2344C23.9888 15.4365 23.9707 15.6485 23.9685 15.8643C23.968 15.9329 23.9675 16.0014 23.9669 16.0721C23.9659 16.1505 23.9659 16.1505 23.9649 16.2305C24.0938 16.276 24.2229 16.3199 24.3533 16.3614C24.4606 16.3961 24.5665 16.4351 24.6716 16.4758C24.9303 16.4593 25.0249 16.2955 25.1944 16.1108C25.3685 15.9417 25.4827 15.9061 25.7227 15.8789C25.9412 15.9465 26.0794 16.0373 26.2416 16.1965C26.3046 16.2579 26.3046 16.2579 26.3689 16.3205C26.4134 16.3647 26.4578 16.409 26.5036 16.4546C26.5499 16.5002 26.5962 16.5459 26.6438 16.593C26.7414 16.6896 26.8387 16.7865 26.9357 16.8836C27.0843 17.0319 27.2343 17.1786 27.3844 17.3253C27.479 17.4195 27.5737 17.5138 27.6682 17.6081C27.7355 17.6736 27.7355 17.6736 27.8043 17.7404C27.9989 17.9376 28.1121 18.0597 28.1886 18.3304C28.1819 18.5788 28.107 18.6771 27.9492 18.8672C27.8847 18.926 27.82 18.9846 27.7551 19.043C27.6105 19.1815 27.6105 19.1815 27.594 19.3836C27.6146 19.4452 27.6351 19.5068 27.6563 19.5703C27.6709 19.6163 27.6856 19.6623 27.7007 19.7097C27.7426 19.8398 27.7865 19.9688 27.8321 20.0977C27.8731 20.0963 27.9142 20.095 27.9566 20.0936C28.3084 20.0869 28.6113 20.0995 28.9453 20.2149C29.0764 20.4114 29.0777 20.4781 29.0795 20.7081C29.0803 20.773 29.081 20.8379 29.0818 20.9048C29.0819 20.975 29.0821 21.0451 29.0822 21.1173C29.0828 21.2254 29.0828 21.2254 29.0834 21.3356C29.084 21.488 29.0843 21.6405 29.0842 21.7929C29.0842 22.0265 29.0866 22.26 29.0888 22.4935C29.0892 22.6415 29.0894 22.7894 29.0895 22.9374C29.0904 23.0074 29.0912 23.0774 29.0921 23.1496C29.0917 23.2147 29.0914 23.2798 29.091 23.3469C29.0912 23.4041 29.0913 23.4613 29.0915 23.5203C29.0544 23.7145 28.9803 23.7842 28.8281 23.9063C28.7101 23.9329 28.7101 23.9329 28.5874 23.9292C28.5432 23.9284 28.499 23.9276 28.4535 23.9269C28.4079 23.9249 28.3624 23.9229 28.3154 23.9209C28.269 23.9199 28.2225 23.9188 28.1747 23.9177C28.0604 23.915 27.9462 23.9108 27.8321 23.9063C27.8243 23.9599 27.8166 24.0135 27.8087 24.0688C27.7735 24.2578 27.7735 24.2578 27.6782 24.4702C27.5872 24.6916 27.5872 24.6916 27.6563 24.9024C27.7469 25.0098 27.7469 25.0098 27.8577 25.1074C28.0063 25.2439 28.121 25.3525 28.1836 25.5469C28.1876 25.8423 28.1238 25.982 27.9259 26.2017C27.838 26.2918 27.7492 26.381 27.6595 26.4693C27.6124 26.5167 27.5653 26.5641 27.5169 26.6129C27.4173 26.7127 27.3173 26.8121 27.2169 26.911C27.0635 27.0625 26.9122 27.2157 26.7609 27.3692C26.6638 27.4661 26.5666 27.5628 26.4693 27.6595C26.4242 27.7053 26.379 27.7511 26.3326 27.7984C25.9758 28.146 25.9758 28.146 25.7312 28.1891C25.4837 28.1817 25.3849 28.1065 25.1953 27.9492C25.1365 27.8847 25.0779 27.82 25.0196 27.7551C24.881 27.6104 24.881 27.6104 24.679 27.594C24.6173 27.6146 24.5557 27.6351 24.4922 27.6563C24.4462 27.6709 24.4002 27.6856 24.3528 27.7007C24.2228 27.7426 24.0937 27.7865 23.9649 27.832C23.9669 27.8823 23.9689 27.9325 23.971 27.9843C23.9872 28.6686 23.9872 28.6686 23.7891 29.0039C23.6387 29.0791 23.5295 29.0712 23.3611 29.0729C23.2637 29.074 23.2637 29.074 23.1644 29.0752C23.0939 29.0756 23.0235 29.076 22.9509 29.0765C22.8788 29.0769 22.8067 29.0774 22.7324 29.0779C22.5796 29.0787 22.4268 29.0793 22.274 29.0798C22.1173 29.0803 21.9605 29.0816 21.8038 29.0834C21.5782 29.0859 21.3527 29.0869 21.1272 29.0875C21.0219 29.089 21.0219 29.089 20.9145 29.0906C20.8492 29.0904 20.7839 29.0902 20.7166 29.0901C20.6305 29.0906 20.6305 29.0906 20.5426 29.0911C20.3481 29.0545 20.2795 28.9794 20.1563 28.8281C20.0738 28.626 20.0919 28.414 20.094 28.1983C20.0945 28.1297 20.0951 28.0611 20.0956 27.9904C20.0963 27.9382 20.097 27.8859 20.0977 27.832C19.9687 27.7865 19.8396 27.7426 19.7093 27.7011C19.6019 27.6665 19.496 27.6275 19.3909 27.5867C19.1321 27.6032 19.0292 27.762 18.8631 27.9504C18.7451 28.0714 18.6768 28.134 18.5156 28.1836C18.1487 28.1882 17.9877 28.0494 17.73 27.7984C17.6849 27.7525 17.6397 27.7067 17.5932 27.6595C17.5458 27.6124 17.4984 27.5653 17.4496 27.5168C17.3498 27.4173 17.2505 27.3173 17.1515 27.2169C17 27.0635 16.8468 26.9122 16.6933 26.7609C16.5964 26.6638 16.4997 26.5666 16.4031 26.4693C16.3343 26.4016 16.3343 26.4016 16.2642 26.3326C15.9166 25.9758 15.9166 25.9758 15.8734 25.7312C15.8808 25.4837 15.956 25.3849 16.1133 25.1953C16.1778 25.1365 16.2425 25.0779 16.3074 25.0195C16.4521 24.881 16.4521 24.881 16.4685 24.679C16.448 24.6173 16.4274 24.5557 16.4063 24.4922C16.3916 24.4462 16.377 24.4002 16.3619 24.3528C16.3199 24.2228 16.276 24.0937 16.2305 23.9649C16.1894 23.9662 16.1483 23.9676 16.106 23.969C15.7541 23.9757 15.4512 23.9631 15.1172 23.8477C14.9862 23.6511 14.9848 23.5844 14.983 23.3544C14.9819 23.2571 14.9819 23.2571 14.9807 23.1577C14.9806 23.0876 14.9805 23.0174 14.9803 22.9452C14.9797 22.8372 14.9797 22.8372 14.9792 22.7269C14.9786 22.5745 14.9783 22.422 14.9783 22.2696C14.9783 22.0361 14.9759 21.8026 14.9737 21.569C14.9734 21.4211 14.9731 21.2731 14.973 21.1251C14.9722 21.0551 14.9713 20.9851 14.9705 20.913C14.9708 20.8479 14.9712 20.7827 14.9716 20.7157C14.9714 20.6584 14.9712 20.6012 14.971 20.5422C15.0082 20.348 15.0823 20.2783 15.2344 20.1563C15.3524 20.1297 15.3524 20.1297 15.4752 20.1334C15.5194 20.1341 15.5635 20.1349 15.6091 20.1357C15.6546 20.1376 15.7002 20.1396 15.7471 20.1416C15.8168 20.1432 15.8168 20.1432 15.8879 20.1448C16.0021 20.1476 16.1163 20.1518 16.2305 20.1563C16.2382 20.1026 16.2459 20.049 16.2538 19.9938C16.2891 19.8047 16.2891 19.8047 16.3843 19.5923C16.4754 19.3709 16.4754 19.3709 16.4063 19.1602C16.3156 19.0527 16.3156 19.0527 16.2049 18.9551C16.0563 18.8186 15.9416 18.7101 15.8789 18.5156C15.875 18.2202 15.9387 18.0805 16.1367 17.8608C16.2245 17.7707 16.3134 17.6815 16.4031 17.5932C16.4501 17.5458 16.4972 17.4984 16.5457 17.4496C16.6452 17.3498 16.7453 17.2504 16.8457 17.1515C16.999 17 17.1504 16.8468 17.3017 16.6933C17.3987 16.5964 17.4959 16.4997 17.5932 16.4031C17.6384 16.3572 17.6835 16.3114 17.73 16.2642C18.0867 15.9166 18.0867 15.9166 18.3314 15.8734C18.5789 15.8808 18.6777 15.956 18.8672 16.1133C18.926 16.1778 18.9846 16.2425 19.043 16.3074C19.1815 16.4521 19.1815 16.4521 19.3836 16.4685C19.4452 16.448 19.5068 16.4274 19.5703 16.4063C19.6393 16.3843 19.6393 16.3843 19.7097 16.3619C19.8398 16.3199 19.9688 16.276 20.0977 16.2305C20.0946 16.1551 20.0946 16.1551 20.0915 16.0783C20.0753 15.394 20.0753 15.394 20.2735 15.0586C20.4239 14.9834 20.533 14.9913 20.7014 14.9896ZM21.0938 15.9375C21.0744 16.1502 21.0551 16.3629 21.0352 16.582C20.8734 16.9618 20.5742 17.071 20.2149 17.2266C20.1561 17.2541 20.0973 17.2816 20.0368 17.3099C19.3302 17.6283 19.3302 17.6283 18.9185 17.4724C18.7032 17.3703 18.5323 17.2537 18.3399 17.1094C17.9338 17.5154 17.5278 17.9215 17.1094 18.3399C17.2254 18.5139 17.3414 18.6879 17.461 18.8672C17.6194 19.3425 17.4682 19.7043 17.2742 20.1416C17.2515 20.1962 17.2288 20.2508 17.2054 20.3071C17.0572 20.6487 16.9248 20.8638 16.582 21.0352C16.263 21.0642 16.263 21.0642 15.9375 21.0938C15.9375 21.7125 15.9375 22.3313 15.9375 22.9688C16.1502 22.9881 16.3629 23.0074 16.582 23.0274C16.9618 23.1891 17.071 23.4883 17.2266 23.8477C17.2541 23.9064 17.2816 23.9652 17.3099 24.0257C17.6283 24.7323 17.6283 24.7323 17.4724 25.1441C17.3703 25.3593 17.2537 25.5302 17.1094 25.7227C17.7185 26.3318 17.7185 26.3318 18.3399 26.9531C18.5139 26.8371 18.6879 26.7211 18.8672 26.6016C19.3425 26.4431 19.7043 26.5943 20.1416 26.7883C20.2235 26.8224 20.2235 26.8224 20.3071 26.8571C20.6487 27.0054 20.8638 27.1378 21.0352 27.4805C21.0642 27.7995 21.0642 27.7995 21.0938 28.125C21.7125 28.125 22.3313 28.125 22.9688 28.125C22.9881 27.9123 23.0074 27.6996 23.0274 27.4805C23.1891 27.1007 23.4883 26.9915 23.8477 26.836C23.9064 26.8085 23.9652 26.781 24.0257 26.7526C24.7323 26.4342 24.7323 26.4342 25.1441 26.5901C25.3593 26.6922 25.5302 26.8088 25.7227 26.9531C26.1287 26.5471 26.5348 26.141 26.9531 25.7227C26.8371 25.5486 26.7211 25.3746 26.6016 25.1953C26.4431 24.72 26.5943 24.3582 26.7883 23.9209C26.811 23.8663 26.8337 23.8117 26.8571 23.7554C27.0054 23.4138 27.1378 23.1987 27.4805 23.0274C27.6932 23.008 27.9059 22.9887 28.125 22.9688C28.125 22.35 28.125 21.7313 28.125 21.0938C27.9123 21.0744 27.6996 21.0551 27.4805 21.0352C27.1007 20.8734 26.9915 20.5742 26.836 20.2149C26.8085 20.1561 26.781 20.0973 26.7526 20.0368C26.4342 19.3302 26.4342 19.3302 26.5901 18.9185C26.6922 18.7032 26.8088 18.5323 26.9531 18.3399C26.5471 17.9338 26.141 17.5277 25.7227 17.1094C25.5487 17.2254 25.3746 17.3414 25.1953 17.461C24.72 17.6194 24.3582 17.4682 23.9209 17.2742C23.8663 17.2515 23.8117 17.2288 23.7554 17.2054C23.4138 17.0572 23.1987 16.9248 23.0274 16.582C22.9984 16.263 22.9984 16.263 22.9688 15.9375C22.35 15.9375 21.7313 15.9375 21.0938 15.9375Z" fill="#F79831"/>
<path d="M8.25026 18.736C8.30156 18.7355 8.35286 18.7351 8.40571 18.7346C8.51437 18.7338 8.62302 18.7331 8.73168 18.7327C8.89785 18.7317 9.06395 18.7291 9.2301 18.7265C9.33561 18.7259 9.44113 18.7254 9.54664 18.725C9.62118 18.7235 9.62118 18.7235 9.69722 18.7219C9.92115 18.7227 10.0401 18.7233 10.2271 18.8545C10.3557 19.0501 10.3375 19.2425 10.3271 19.4678C10.3261 19.5114 10.325 19.5551 10.3239 19.6C10.3212 19.7073 10.317 19.8146 10.3125 19.9219C10.5037 19.9743 10.5037 19.9743 10.7226 19.9804C10.8809 19.8739 10.8809 19.8739 11.0119 19.7204C11.3318 19.4113 11.3318 19.4113 11.5503 19.3945C12.0426 19.4762 12.4638 20.072 12.7991 20.4089C12.8468 20.4564 12.8944 20.5039 12.9436 20.5528C13.0115 20.6208 13.0115 20.6208 13.0808 20.6902C13.1217 20.7312 13.1626 20.7721 13.2047 20.8143C13.3617 20.9836 13.3954 21.1386 13.3967 21.3702C13.3299 21.6094 13.1251 21.7414 12.9455 21.9031C12.823 22.0189 12.823 22.0189 12.81 22.1557C12.8267 22.2814 12.8267 22.2814 12.8906 22.4414C12.9533 22.4393 12.9533 22.4393 13.0172 22.4373C13.3501 22.431 13.6346 22.433 13.9453 22.5586C14.0989 22.789 14.0815 22.9884 14.0822 23.256C14.0827 23.3328 14.0827 23.3328 14.0833 23.4112C14.0839 23.5195 14.0842 23.6278 14.0842 23.7361C14.0845 23.9018 14.0866 24.0673 14.0888 24.233C14.0891 24.3382 14.0894 24.4435 14.0895 24.5487C14.0903 24.5982 14.0912 24.6477 14.092 24.6987C14.0903 24.922 14.0888 25.0406 13.9579 25.227C13.7624 25.3558 13.57 25.3375 13.3447 25.3271C13.3011 25.3261 13.2574 25.325 13.2124 25.3239C13.1051 25.3212 12.9978 25.317 12.8906 25.3125C12.8381 25.5037 12.8381 25.5037 12.832 25.7226C12.9385 25.8809 12.9385 25.8809 13.092 26.0119C13.4012 26.3318 13.4012 26.3318 13.4179 26.5503C13.3363 27.0426 12.7404 27.4638 12.4035 27.7991C12.3561 27.8468 12.3086 27.8944 12.2597 27.9436C12.1917 28.0115 12.1917 28.0115 12.1222 28.0808C12.0813 28.1217 12.0403 28.1626 11.9981 28.2047C11.8288 28.3617 11.6738 28.3954 11.4422 28.3967C11.203 28.3299 11.071 28.1251 10.9094 27.9455C10.7936 27.823 10.7936 27.823 10.6567 27.81C10.5311 27.8267 10.5311 27.8267 10.3711 27.8906C10.3741 27.9596 10.3741 27.9596 10.3773 28.03C10.3868 28.4023 10.3834 28.6783 10.1953 29.0039C9.99908 29.102 9.77809 29.0746 9.56221 29.0764C9.48526 29.0772 9.48526 29.0772 9.40675 29.0779C9.2981 29.0787 9.18944 29.0793 9.08078 29.0798C8.91461 29.0808 8.74851 29.0834 8.58236 29.0859C8.47685 29.0865 8.37133 29.087 8.26582 29.0874C8.21613 29.0885 8.16644 29.0895 8.11525 29.0905C7.89131 29.0897 7.77235 29.0891 7.58538 28.958C7.45677 28.7624 7.47498 28.57 7.48533 28.3447C7.48639 28.301 7.48745 28.2574 7.48854 28.2124C7.49129 28.1051 7.49549 27.9978 7.49998 27.8906C7.30881 27.8381 7.30881 27.8381 7.08982 27.832C6.9316 27.9385 6.9316 27.9385 6.80052 28.092C6.48069 28.4012 6.48069 28.4012 6.26219 28.4179C5.76984 28.3363 5.34866 27.7404 5.01341 27.4035C4.96571 27.3561 4.91801 27.3086 4.86887 27.2597C4.80095 27.1917 4.80095 27.1917 4.73165 27.1222C4.69076 27.0813 4.64986 27.0403 4.60773 26.9981C4.45081 26.8288 4.41706 26.6738 4.4158 26.4422C4.48257 26.203 4.68733 26.071 4.86692 25.9094C4.98946 25.7936 4.98946 25.7936 5.00242 25.6567C4.98577 25.5311 4.98577 25.5311 4.92186 25.3711C4.85286 25.3741 4.85286 25.3741 4.78247 25.3773C4.4102 25.3868 4.13418 25.3834 3.80857 25.1953C3.71047 24.9991 3.73789 24.7781 3.73602 24.5622C3.73555 24.5109 3.73507 24.4596 3.73459 24.4068C3.73377 24.2981 3.73315 24.1894 3.73269 24.0808C3.73168 23.9146 3.72911 23.7485 3.72652 23.5824C3.72593 23.4768 3.72543 23.3713 3.72503 23.2658C3.72349 23.1913 3.72349 23.1913 3.72192 23.1152C3.72275 22.8913 3.72333 22.7723 3.85448 22.5854C4.05007 22.4568 4.2425 22.475 4.46775 22.4853C4.51141 22.4864 4.55507 22.4874 4.60005 22.4885C4.70735 22.4913 4.81461 22.4955 4.92186 22.5C4.97435 22.3088 4.97435 22.3088 4.98045 22.0898C4.87395 21.9316 4.87395 21.9316 4.72044 21.8005C4.41125 21.4807 4.41125 21.4807 4.39451 21.2622C4.4762 20.7698 5.07201 20.3487 5.40892 20.0134C5.45639 19.9657 5.50386 19.918 5.55277 19.8689C5.59812 19.8236 5.64348 19.7783 5.69021 19.7317C5.73117 19.6908 5.77213 19.6499 5.81434 19.6077C5.98365 19.4508 6.13865 19.4171 6.37022 19.4158C6.60944 19.4826 6.74142 19.6873 6.90306 19.8669C7.0189 19.9895 7.0189 19.9895 7.15574 20.0024C7.28136 19.9858 7.28136 19.9858 7.44139 19.9219C7.43833 19.8529 7.43833 19.8529 7.43521 19.7825C7.42561 19.4102 7.42904 19.1342 7.61717 18.8086C7.81338 18.7105 8.03437 18.7379 8.25026 18.736ZM8.43748 19.6875C8.43265 19.7769 8.42781 19.8663 8.42283 19.9585C8.39096 20.2449 8.35202 20.4126 8.14451 20.625C7.70254 20.9233 7.27167 21.0731 6.73826 20.9765C6.60094 20.912 6.50649 20.838 6.3867 20.7422C6.15557 20.7174 6.15557 20.7174 6.0269 20.8447C5.98611 20.8882 5.94532 20.9317 5.9033 20.9765C5.84121 21.0418 5.84121 21.0418 5.77787 21.1084C5.74675 21.1422 5.71564 21.1761 5.68357 21.2109C5.7474 21.3419 5.81205 21.4624 5.89231 21.5845C6.05109 21.8744 6.05573 22.1112 5.96418 22.4286C5.84717 22.7576 5.72276 23.0513 5.46751 23.2947C5.20337 23.4093 4.97474 23.422 4.68748 23.4375C4.68748 23.7469 4.68748 24.0562 4.68748 24.375C4.77691 24.3798 4.86634 24.3846 4.95848 24.3896C5.24488 24.4215 5.41265 24.4604 5.62498 24.6679C5.85715 25.0438 6.10625 25.4642 6.0047 25.917C5.93348 26.1542 5.87172 26.3174 5.68357 26.4844C5.7661 26.6727 5.86542 26.7962 6.01316 26.9385C6.05017 26.9744 6.08718 27.0104 6.12532 27.0474C6.15356 27.0743 6.18181 27.1012 6.21092 27.1289C6.34188 27.0651 6.46245 27.0004 6.58445 26.9201C6.87439 26.7614 7.1112 26.7567 7.42857 26.8483C7.7576 26.9653 8.05128 27.0897 8.29466 27.345C8.40928 27.6091 8.42195 27.8377 8.43748 28.125C8.74686 28.125 9.05623 28.125 9.37498 28.125C9.37981 28.0356 9.38465 27.9461 9.38963 27.854C9.4215 27.5676 9.46044 27.3998 9.66795 27.1875C10.0438 26.9553 10.4642 26.7062 10.917 26.8078C11.1542 26.879 11.3174 26.9407 11.4844 27.1289C11.6727 27.0464 11.7962 26.947 11.9385 26.7993C11.9744 26.7623 12.0104 26.7253 12.0474 26.6871C12.0743 26.6589 12.1012 26.6306 12.1289 26.6015C12.0654 26.471 12.0016 26.3523 11.9201 26.2317C11.7624 25.9368 11.7576 25.692 11.8432 25.3747C11.9571 25.0352 12.1036 24.7356 12.3742 24.4958C12.6222 24.4021 12.8608 24.3926 13.125 24.375C13.125 24.0656 13.125 23.7562 13.125 23.4375C13.0356 23.4326 12.9461 23.4278 12.854 23.4228C12.5676 23.391 12.3998 23.352 12.1875 23.1445C11.9553 22.7687 11.7062 22.3483 11.8078 21.8955C11.879 21.6582 11.9407 21.4951 12.1289 21.3281C12.0464 21.1397 11.947 21.0163 11.7993 20.874C11.7623 20.8381 11.7253 20.8021 11.6871 20.7651C11.6589 20.7382 11.6306 20.7113 11.6015 20.6836C11.4697 20.7471 11.3487 20.813 11.2264 20.8939C10.9508 21.0435 10.6753 21.0211 10.3711 20.9765C10.0365 20.8616 9.75862 20.7178 9.51048 20.4638C9.40468 20.2019 9.39022 19.9695 9.37498 19.6875C9.06561 19.6875 8.75623 19.6875 8.43748 19.6875Z" fill="#F79831"/>
<path d="M15.2344 4.21873C15.3845 4.33958 15.3845 4.33958 15.5273 4.5117C15.5927 4.57693 15.6587 4.64159 15.7251 4.70579C15.9043 4.88499 16.0718 5.07174 16.2373 5.26357C16.3603 5.40516 16.4856 5.54443 16.6113 5.68357C16.8026 5.89549 16.9915 6.10919 17.179 6.32444C17.3011 6.46343 17.4249 6.60089 17.5488 6.73826C17.7402 6.9503 17.9293 7.16405 18.1167 7.37959C18.2371 7.5164 18.3599 7.6509 18.4827 7.78562C18.5719 7.8856 18.661 7.9857 18.75 8.08592C18.7955 8.13577 18.8409 8.18562 18.8878 8.23698C19.2478 8.65175 19.2478 8.65175 19.2627 8.9282C19.2188 9.1406 19.2188 9.1406 18.9844 9.37498C18.443 9.37498 17.9016 9.37498 17.3438 9.37498C17.3438 11.3859 17.3438 13.3969 17.3438 15.4687C17.0344 15.4687 16.725 15.4687 16.4062 15.4687C16.4008 14.5866 16.3966 13.7044 16.3941 12.8223C16.3929 12.4127 16.3913 12.0031 16.3886 11.5935C16.386 11.1984 16.3846 10.8033 16.384 10.4081C16.3836 10.2572 16.3827 10.1063 16.3815 9.95539C16.3798 9.74438 16.3795 9.53341 16.3796 9.32239C16.3788 9.25968 16.378 9.19697 16.3771 9.13235C16.3794 8.71173 16.3794 8.71173 16.5109 8.51624C16.7059 8.39789 16.9021 8.39785 17.124 8.39353C17.1677 8.3918 17.2113 8.39006 17.2563 8.38827C17.3636 8.38414 17.4708 8.38138 17.5781 8.37889C17.5321 8.32934 17.4861 8.27979 17.4387 8.22874C17.1435 7.91018 16.8491 7.59156 16.5649 7.26309C16.4451 7.12582 16.3232 6.99064 16.2012 6.85545C16.0093 6.64276 15.8194 6.42851 15.6313 6.21252C15.4418 5.9959 15.2501 5.78124 15.0586 5.56639C14.8092 5.66042 14.6567 5.8489 14.4836 6.04246C14.4367 6.09416 14.4367 6.09416 14.3888 6.1469C14.1938 6.36228 14.0011 6.57965 13.811 6.79937C13.6912 6.93663 13.5693 7.07182 13.4473 7.20701C13.0995 7.59257 12.7591 7.98409 12.4219 8.37889C12.4868 8.3804 12.5518 8.38191 12.6187 8.38346C12.7045 8.38676 12.7902 8.39012 12.876 8.39353C12.9187 8.39436 12.9615 8.3952 13.0055 8.39605C13.1978 8.40479 13.3311 8.41703 13.489 8.53122C13.6313 8.72225 13.6226 8.84561 13.6219 9.08264C13.6221 9.124 13.6223 9.16535 13.6225 9.20796C13.6229 9.34653 13.6216 9.48504 13.6204 9.6236C13.6203 9.72293 13.6203 9.82225 13.6205 9.92158C13.6205 10.1913 13.6191 10.461 13.6175 10.7307C13.6161 11.0125 13.6159 11.2944 13.6156 11.5762C13.6149 12.1099 13.613 12.6436 13.6106 13.1774C13.608 13.785 13.6067 14.3926 13.6055 15.0002C13.6031 16.2501 13.5989 17.5001 13.5938 18.75C13.2844 18.75 12.975 18.75 12.6562 18.75C12.6562 15.6562 12.6562 12.5625 12.6562 9.37498C12.1148 9.37498 11.5734 9.37498 11.0156 9.37498C10.7812 9.1406 10.7812 9.1406 10.7336 8.93186C10.7568 8.55028 11.0613 8.29263 11.3086 8.02732C11.3412 7.99196 11.3739 7.95659 11.4075 7.92015C11.5838 7.72921 11.7613 7.53935 11.9396 7.35029C12.1119 7.1673 12.2791 6.98068 12.4432 6.79022C12.5613 6.65408 12.6819 6.52044 12.8027 6.3867C12.9603 6.21205 13.117 6.03675 13.2715 5.85935C13.426 5.68196 13.5826 5.50666 13.7402 5.33201C14.1554 4.87402 14.1554 4.87402 14.5496 4.39817C14.732 4.17515 14.962 4.1728 15.2344 4.21873Z" fill="#F79831"/>
<path d="M25.0781 0.937479C25.2283 1.05833 25.2283 1.05833 25.3711 1.23045C25.4365 1.29568 25.5024 1.36034 25.5688 1.42454C25.748 1.60374 25.9156 1.79049 26.0811 1.98232C26.204 2.12391 26.3294 2.26318 26.4551 2.40232C26.6463 2.61424 26.8352 2.82794 27.0227 3.04319C27.1449 3.18218 27.2686 3.31964 27.3926 3.45701C27.5839 3.66905 27.773 3.8828 27.9604 4.09834C28.0809 4.23515 28.2037 4.36965 28.3264 4.50437C28.4157 4.60435 28.5048 4.70445 28.5938 4.80467C28.6392 4.85452 28.6847 4.90437 28.7315 4.95573C29.0916 5.3705 29.0916 5.3705 29.1064 5.64695C29.0625 5.85935 29.0625 5.85935 28.8281 6.09373C28.2867 6.09373 27.7453 6.09373 27.1875 6.09373C27.1875 8.41404 27.1875 10.7344 27.1875 13.125C26.8781 13.125 26.5687 13.125 26.25 13.125C26.2446 12.1206 26.2404 11.1162 26.2379 10.1118C26.2366 9.64546 26.235 9.17911 26.2323 8.71277C26.23 8.30633 26.2285 7.8999 26.2279 7.49346C26.2276 7.27822 26.2269 7.06299 26.2252 6.84776C26.2233 6.60756 26.2233 6.3674 26.2234 6.1272C26.2225 6.05572 26.2217 5.98424 26.2208 5.9106C26.2212 5.8452 26.2215 5.7798 26.2218 5.71242C26.2216 5.6556 26.2214 5.59878 26.2212 5.54023C26.2588 5.34487 26.328 5.276 26.4844 5.15623C26.6523 5.12993 26.7997 5.11555 26.9678 5.11228C27.0114 5.11055 27.0551 5.10881 27.1001 5.10702C27.2073 5.10289 27.3146 5.10013 27.4219 5.09764C27.3759 5.04809 27.3299 4.99854 27.2825 4.94749C26.9873 4.62893 26.6928 4.31031 26.4086 3.98184C26.2889 3.84457 26.167 3.70939 26.0449 3.5742C25.853 3.36151 25.6632 3.14726 25.475 2.93127C25.2855 2.71465 25.0938 2.49999 24.9023 2.28514C24.653 2.37917 24.5005 2.56765 24.3274 2.76121C24.2805 2.81291 24.2805 2.81291 24.2326 2.86565C24.0375 3.08103 23.8448 3.2984 23.6547 3.51812C23.535 3.65538 23.4131 3.79057 23.291 3.92576C22.9432 4.31132 22.6028 4.70284 22.2656 5.09764C22.3306 5.09915 22.3955 5.10066 22.4625 5.10221C22.5482 5.10551 22.634 5.10887 22.7197 5.11228C22.7625 5.11311 22.8052 5.11395 22.8493 5.1148C23.0437 5.12364 23.1749 5.1351 23.3328 5.25331C23.4672 5.42959 23.4664 5.52765 23.4657 5.74801C23.466 5.8213 23.4663 5.89458 23.4667 5.97009C23.4658 6.05115 23.465 6.13221 23.4641 6.21326C23.464 6.29873 23.4641 6.3842 23.4642 6.46967C23.4643 6.70162 23.4629 6.93353 23.4613 7.16547C23.4598 7.40789 23.4597 7.65031 23.4594 7.89274C23.4587 8.35176 23.4567 8.81077 23.4544 9.26979C23.4518 9.79238 23.4505 10.315 23.4493 10.8376C23.4468 11.9125 23.4427 12.9875 23.4375 14.0625C23.1281 14.0625 22.8187 14.0625 22.5 14.0625C22.5 11.4328 22.5 8.8031 22.5 6.09373C21.9586 6.09373 21.4172 6.09373 20.8594 6.09373C20.625 5.85935 20.625 5.85935 20.5774 5.65061C20.6005 5.26903 20.905 5.01138 21.1523 4.74607C21.185 4.71071 21.2176 4.67534 21.2512 4.6389C21.4276 4.44796 21.605 4.2581 21.7834 4.06904C21.9557 3.88605 22.1229 3.69943 22.2869 3.50897C22.405 3.37283 22.5257 3.23919 22.6465 3.10545C22.8041 2.9308 22.9607 2.7555 23.1152 2.5781C23.2697 2.40071 23.4264 2.22541 23.584 2.05076C23.9991 1.59277 23.9991 1.59277 24.3933 1.11692C24.5758 0.893895 24.8057 0.891555 25.0781 0.937479Z" fill="#F79831"/>
<path d="M5.39062 7.96873C5.54077 8.08958 5.54077 8.08958 5.68359 8.2617C5.74898 8.32693 5.81494 8.39159 5.88135 8.45579C6.06055 8.63499 6.22809 8.82174 6.39359 9.01357C6.51655 9.15516 6.64186 9.29443 6.76758 9.43357C6.95882 9.64549 7.14773 9.85919 7.33521 10.0744C7.45735 10.2134 7.58111 10.3509 7.70508 10.4883C7.89643 10.7003 8.08553 10.9141 8.27293 11.1296C8.39336 11.2664 8.51616 11.4009 8.63892 11.5356C8.72816 11.6356 8.81727 11.7357 8.90625 11.8359C8.95172 11.8858 8.99719 11.9356 9.04404 11.987C9.4041 12.4017 9.4041 12.4017 9.41895 12.6782C9.375 12.8906 9.375 12.8906 9.14062 13.125C8.59922 13.125 8.05781 13.125 7.5 13.125C7.5 14.6719 7.5 16.2187 7.5 17.8125C7.19063 17.8125 6.88125 17.8125 6.5625 17.8125C6.55707 17.1137 6.55291 16.4149 6.55036 15.7161C6.54913 15.3916 6.54747 15.0671 6.54482 14.7427C6.54227 14.4296 6.54087 14.1166 6.54026 13.8035C6.53983 13.684 6.53898 13.5645 6.53772 13.445C6.53602 13.2777 6.53578 13.1105 6.53589 12.9433C6.53505 12.8937 6.53421 12.8442 6.53334 12.7931C6.5349 12.5722 6.53674 12.4582 6.6671 12.2743C6.86013 12.1452 7.05526 12.1479 7.28027 12.1435C7.32393 12.1418 7.36759 12.1401 7.41257 12.1383C7.5198 12.1341 7.62709 12.1314 7.73438 12.1289C7.68838 12.0793 7.64238 12.0298 7.59499 11.9787C7.29976 11.6602 7.00533 11.3416 6.72112 11.0131C6.60139 10.8758 6.47948 10.7406 6.35742 10.6054C6.16552 10.3928 5.97567 10.1785 5.78751 9.96252C5.59802 9.7459 5.40632 9.53124 5.21484 9.31639C4.96548 9.41042 4.81295 9.5989 4.63989 9.79246C4.59295 9.84416 4.59295 9.84416 4.54506 9.8969C4.35005 10.1123 4.15733 10.3297 3.96721 10.5494C3.84748 10.6866 3.72558 10.8218 3.60352 10.957C3.25574 11.3426 2.91535 11.7341 2.57812 12.1289C2.64308 12.1304 2.70804 12.1319 2.77496 12.1335C2.86072 12.1368 2.94647 12.1401 3.03223 12.1435C3.07498 12.1444 3.11773 12.1452 3.16177 12.1461C3.35766 12.155 3.48744 12.1659 3.6453 12.2868C3.77415 12.453 3.77898 12.5352 3.77818 12.7437C3.77851 12.8091 3.77883 12.8745 3.77916 12.9418C3.77832 13.0133 3.77748 13.0848 3.77661 13.1585C3.77664 13.2339 3.77668 13.3094 3.77671 13.3872C3.77678 13.5939 3.7754 13.8007 3.77376 14.0074C3.7723 14.2236 3.77216 14.4397 3.77188 14.6559C3.77115 15.0651 3.76923 15.4743 3.76688 15.8835C3.76426 16.3494 3.76297 16.8153 3.76179 17.2812C3.75934 18.2396 3.75518 19.1979 3.75 20.1562C3.44062 20.1562 3.13125 20.1562 2.8125 20.1562C2.8125 17.8359 2.8125 15.5156 2.8125 13.125C2.27109 13.125 1.72969 13.125 1.17188 13.125C0.9375 12.8906 0.9375 12.8906 0.889893 12.6819C0.91304 12.3003 1.21754 12.0426 1.46484 11.7773C1.49747 11.742 1.5301 11.7066 1.56372 11.6701C1.74007 11.4792 1.91751 11.2893 2.09587 11.1003C2.26818 10.9173 2.43539 10.7307 2.59941 10.5402C2.7175 10.4041 2.83819 10.2704 2.95898 10.1367C3.11659 9.96205 3.27323 9.78675 3.42773 9.60935C3.58224 9.43196 3.73888 9.25666 3.89648 9.08201C4.31163 8.62402 4.31163 8.62402 4.70581 8.14817C4.88829 7.92515 5.11825 7.9228 5.39062 7.96873Z" fill="#F79831"/>
<path d="M23.496 18.5157C23.5587 18.5435 23.6214 18.5713 23.686 18.5999C24.6535 19.0734 25.2893 19.8532 25.664 20.8594C25.916 21.6748 25.904 22.716 25.5468 23.4962C25.519 23.5588 25.4912 23.6215 25.4626 23.6861C24.9925 24.6466 24.209 25.3022 23.2031 25.6641C22.1825 25.9604 21.0589 25.8423 20.1317 25.3395C19.227 24.8158 18.6405 23.9865 18.3332 22.9922C18.1525 22.2299 18.1886 21.2808 18.5156 20.5665C18.5573 20.4724 18.5573 20.4724 18.5998 20.3765C19.0733 19.409 19.8531 18.7732 20.8593 18.3985C21.6746 18.1465 22.7159 18.1585 23.496 18.5157ZM19.898 20.2186C19.3213 20.9197 19.1914 21.6754 19.2773 22.5587C19.4144 23.2851 19.8695 23.9266 20.4675 24.3549C21.1754 24.8062 21.9416 24.9017 22.7623 24.7468C23.5253 24.518 24.148 23.9855 24.5338 23.2954C24.8635 22.637 24.9052 21.8294 24.6936 21.1231C24.4038 20.3854 23.8563 19.7963 23.1445 19.4532C22.7842 19.3049 22.4601 19.2467 22.0715 19.2518C21.9987 19.2525 21.9987 19.2525 21.9244 19.2532C21.1063 19.2756 20.4572 19.6277 19.898 20.2186Z" fill="#F79831"/>
<path d="M10.2199 21.8852C10.7357 22.2567 11.1233 22.7481 11.2501 23.3789C11.3285 24.1065 11.2662 24.7493 10.829 25.3564C10.4298 25.8302 9.94317 26.1951 9.31236 26.2631C8.55584 26.3155 7.92488 26.2238 7.32821 25.7211C6.82911 25.2446 6.56245 24.7378 6.53502 24.0448C6.52594 23.3115 6.69101 22.7477 7.20713 22.207C8.01456 21.4362 9.26406 21.2892 10.2199 21.8852ZM7.74775 23.1537C7.51735 23.5 7.51776 23.8548 7.55869 24.2578C7.66261 24.6472 7.93643 24.9125 8.26182 25.1367C8.61332 25.309 9.01667 25.3183 9.39341 25.2177C9.75252 25.0592 10.0337 24.7612 10.2055 24.4107C10.3172 24.0588 10.3164 23.6424 10.1661 23.302C9.96219 22.9544 9.64254 22.6798 9.25791 22.5586C8.57096 22.475 8.18521 22.6356 7.74775 23.1537Z" fill="#F79831"/>
</g>
<defs>
<clipPath id="clip0_82_14286">
<rect width="30" height="30" fill="white"/>
</clipPath>
</defs>
</svg>
