<svg width="30" height="35" viewBox="0 0 30 35" fill="none" xmlns="http://www.w3.org/2000/svg">
<path d="M15.4199 17.3748C15.4651 17.3728 15.5104 17.3708 15.557 17.3688C15.7791 17.3658 15.9039 17.3777 16.0856 17.5207C16.2276 17.7409 16.2139 17.8937 16.1835 18.1558C16.0709 18.3757 16.0237 18.4204 15.7997 18.5009C15.6858 18.5141 15.5719 18.527 15.4579 18.5385C14.2279 18.6691 13.4581 19.3501 12.595 20.2399C12.2814 20.5625 11.9636 20.88 11.6419 21.1933C11.5604 21.2735 11.5604 21.2735 11.4773 21.3553C10.3628 22.3916 9.13421 22.1597 7.67605 22.1597C7.67605 25.1668 7.67605 28.1739 7.67605 31.2722C8.22488 31.2722 8.77371 31.2722 9.33917 31.2722C10.6983 31.409 12.0052 31.7047 13.3006 32.1693C14.0457 32.4273 14.8124 32.4663 15.5895 32.4647C15.6797 32.465 15.77 32.4653 15.8602 32.4658C16.1023 32.4667 16.3444 32.4667 16.5865 32.4665C16.7893 32.4665 16.9922 32.4668 17.1951 32.4671C17.6735 32.4679 18.1518 32.4679 18.6302 32.4675C19.1229 32.4671 19.6155 32.468 20.1081 32.4694C20.5326 32.4706 20.9571 32.471 21.3816 32.4708C21.6346 32.4707 21.8875 32.4709 22.1404 32.4718C22.3777 32.4727 22.615 32.4726 22.8523 32.4717C22.9806 32.4714 23.1088 32.4722 23.2371 32.473C23.3138 32.4725 23.3905 32.4721 23.4696 32.4716C23.536 32.4716 23.6024 32.4716 23.6708 32.4716C23.9449 32.434 24.1602 32.3251 24.3592 32.1178C24.466 31.8993 24.4912 31.7261 24.4991 31.4793C24.4017 31.1917 24.2987 31.0117 24.0513 30.8579C23.8442 30.787 23.6524 30.7796 23.4358 30.778C23.3636 30.7773 23.2915 30.7766 23.2171 30.7759C23.1395 30.7754 23.0619 30.7749 22.9819 30.7744C22.8177 30.7724 22.6536 30.7704 22.4894 30.7684C22.2304 30.7655 21.9714 30.7629 21.7124 30.7612C21.4626 30.7595 21.2128 30.7561 20.963 30.7528C20.8853 30.7526 20.8077 30.7523 20.7277 30.7521C20.6556 30.751 20.5834 30.7498 20.5091 30.7486C20.4139 30.7478 20.4139 30.7478 20.3169 30.7469C20.1218 30.7154 20.0343 30.66 19.8935 30.5128C19.8184 30.2642 19.8086 30.1483 19.9095 29.9087C20.0325 29.738 20.1326 29.6266 20.3378 29.5981C20.3852 29.598 20.4327 29.598 20.4816 29.598C20.5362 29.5976 20.5908 29.5972 20.647 29.5969C20.7366 29.5973 20.7366 29.5973 20.828 29.5977C20.9226 29.5973 20.9226 29.5973 21.019 29.597C21.1561 29.5965 21.2932 29.5963 21.4302 29.5964C21.6472 29.5965 21.8642 29.5956 22.0811 29.5944C22.698 29.5912 23.315 29.5895 23.9319 29.5891C24.3091 29.5887 24.6863 29.587 25.0636 29.5845C25.2073 29.5839 25.3511 29.5837 25.4949 29.5841C25.6961 29.5846 25.8972 29.5834 26.0984 29.5818C26.1578 29.5824 26.2171 29.5829 26.2782 29.5835C26.6426 29.5785 26.8412 29.5261 27.1217 29.2702C27.2874 29.0345 27.2772 28.7985 27.2496 28.5108C27.114 28.2338 27.0081 28.0727 26.7379 27.9585C26.5878 27.9385 26.5878 27.9385 26.4262 27.942C26.3336 27.9416 26.3336 27.9416 26.2392 27.9412C26.173 27.9415 26.1068 27.9418 26.0385 27.9421C25.898 27.941 25.7574 27.9399 25.6169 27.9387C25.3955 27.9376 25.1741 27.937 24.9528 27.9375C24.739 27.9376 24.5252 27.9357 24.3114 27.9335C24.2453 27.9342 24.1792 27.9349 24.1111 27.9356C23.6524 27.9289 23.6524 27.9289 23.4019 27.7271C23.2837 27.5443 23.2837 27.5443 23.2437 27.3372C23.2978 27.0575 23.4002 26.9645 23.6036 26.785C23.8021 26.7422 23.8021 26.7422 24.0272 26.7427C24.0684 26.7423 24.1097 26.742 24.1521 26.7416C24.2877 26.7406 24.4232 26.7421 24.5588 26.7434C24.6535 26.7431 24.7482 26.7425 24.8429 26.7418C25.0919 26.7402 25.3409 26.7405 25.5898 26.7413C25.9881 26.7426 26.3863 26.7419 26.7845 26.7396C26.9232 26.7391 27.0619 26.74 27.2006 26.7411C27.2862 26.7409 27.3718 26.7406 27.4574 26.7403C27.5688 26.7407 27.5688 26.7407 27.6826 26.7411C27.9615 26.7071 28.1691 26.5965 28.3893 26.4109C28.5387 26.1954 28.5418 25.9422 28.5289 25.6804C28.4042 25.3776 28.2637 25.2245 27.9785 25.1006C27.6601 25.0145 27.3303 25.0313 27.0039 25.0329C26.8649 25.0335 26.7259 25.0328 26.5869 25.0317C26.1919 25.029 25.797 25.0289 25.402 25.029C25.1597 25.0291 24.9174 25.0277 24.675 25.0256C24.5383 25.0249 24.4015 25.0257 24.2647 25.0266C24.1817 25.0259 24.0986 25.0252 24.013 25.0245C23.94 25.0245 23.8669 25.0245 23.7916 25.0245C23.5632 24.9827 23.4882 24.9088 23.3477 24.714C23.3024 24.5132 23.326 24.3728 23.3477 24.1617C23.4636 23.9771 23.5318 23.9574 23.7315 23.8856C23.8305 23.8793 23.9298 23.8769 24.029 23.8769C24.0893 23.8766 24.1495 23.8763 24.2115 23.8761C24.2765 23.876 24.3414 23.8759 24.4084 23.8759C24.5459 23.8746 24.6835 23.8732 24.821 23.8718C25.0379 23.8698 25.2548 23.8683 25.4716 23.8683C25.681 23.868 25.8902 23.8657 26.0995 23.8629C26.1641 23.8634 26.2286 23.8639 26.2952 23.8644C26.5856 23.859 26.8003 23.8534 27.0336 23.654C27.2153 23.4357 27.2457 23.3218 27.2656 23.0313C27.2482 22.7587 27.2186 22.6442 27.0577 22.4359C26.7167 22.1963 26.4167 22.199 26.0237 22.2011C25.9592 22.2006 25.8947 22.2001 25.8282 22.1996C25.6155 22.1983 25.4029 22.1983 25.1902 22.1983C25.0422 22.1975 24.8942 22.1966 24.7462 22.1955C24.357 22.193 23.9679 22.1916 23.5787 22.1906C22.9552 22.1889 22.3318 22.1861 21.7084 22.1822C21.4906 22.181 21.2727 22.1808 21.0549 22.1806C20.9216 22.1799 20.7884 22.1792 20.6551 22.1785C20.5944 22.1786 20.5337 22.1788 20.4712 22.179C20.3876 22.1783 20.3876 22.1783 20.3022 22.1776C20.2297 22.1774 20.2297 22.1774 20.1558 22.1772C19.9999 22.1569 19.8985 22.1112 19.7656 22.0217C19.667 21.8342 19.6359 21.7151 19.6457 21.4996C19.7186 21.2805 19.7842 21.1964 19.9575 21.0552C20.1425 21.0178 20.3255 21.0205 20.5132 21.0207C21.0023 21.0047 21.4268 20.9908 21.7895 20.5957C22.01 20.2768 22.0498 19.9711 22.0311 19.5791C21.9754 19.2021 21.8355 18.9879 21.5527 18.7512C21.2462 18.5682 20.9896 18.5589 20.6476 18.5554C20.5419 18.5535 20.4361 18.5515 20.3303 18.5495C20.1638 18.5466 19.9974 18.5441 19.8309 18.5423C19.67 18.5404 19.5092 18.5372 19.3483 18.5338C19.2988 18.5336 19.2493 18.5334 19.1983 18.5332C18.9085 18.5261 18.7164 18.4888 18.4863 18.2938C18.3874 18.0804 18.4035 17.9077 18.4223 17.6725C18.5146 17.5211 18.5146 17.5211 18.6782 17.3964C18.8749 17.3554 19.0685 17.3577 19.2684 17.3597C19.3261 17.3595 19.3839 17.3592 19.4434 17.3589C19.5656 17.3587 19.6879 17.3593 19.8102 17.3604C19.9955 17.3619 20.1807 17.3604 20.366 17.3587C21.2092 17.3573 21.8754 17.4413 22.5161 18.0867C22.9566 18.6063 23.1568 19.1773 23.1558 19.8816C23.1126 20.3087 22.9944 20.6617 22.836 21.0552C22.885 21.0546 22.9341 21.054 22.9847 21.0533C23.4495 21.0478 23.9143 21.0436 24.3791 21.0409C24.618 21.0394 24.8569 21.0375 25.0958 21.0344C25.3268 21.0313 25.5578 21.0297 25.7889 21.029C25.8765 21.0285 25.9642 21.0275 26.0519 21.026C26.7925 21.0138 27.3596 21.1274 27.909 21.6857C28.258 22.1015 28.3463 22.5032 28.349 23.0528C28.3499 23.1361 28.3508 23.2193 28.3518 23.305C28.3376 23.5307 28.2991 23.6832 28.2091 23.8856C28.2728 23.9181 28.2728 23.9181 28.3378 23.9514C28.9513 24.2723 29.2785 24.5846 29.5724 25.249C29.7056 25.9287 29.6288 26.5232 29.2903 27.1148C29.026 27.4947 28.6195 27.7373 28.2091 27.8895C28.2296 27.9482 28.2502 28.007 28.2713 28.0675C28.4148 28.5832 28.4176 29.1528 28.2051 29.6455C27.8914 30.2215 27.5244 30.5334 26.9298 30.7199C26.671 30.7586 26.4152 30.7677 26.1542 30.7717C26.0869 30.7737 26.0196 30.7758 25.9503 30.7779C25.7864 30.7827 25.6225 30.7863 25.4586 30.7889C25.4792 30.8619 25.4998 30.9349 25.521 31.01C25.6724 31.6162 25.6047 32.1661 25.3306 32.7219C24.9839 33.216 24.5521 33.5165 23.9874 33.6193C23.8566 33.6257 23.7257 33.6286 23.5948 33.629C23.5158 33.6294 23.4369 33.6298 23.3555 33.6302C23.2685 33.6303 23.1814 33.6303 23.0944 33.6304C23.0023 33.6307 22.9102 33.6311 22.8182 33.6315C22.5682 33.6324 22.3182 33.6328 22.0683 33.6331C21.9116 33.6333 21.755 33.6336 21.5983 33.6339C21.1068 33.6348 20.6154 33.6355 20.1239 33.6358C19.5592 33.6361 18.9945 33.6373 18.4298 33.6393C17.9918 33.6408 17.5539 33.6415 17.1159 33.6416C16.8551 33.6417 16.5943 33.642 16.3335 33.6433C14.9348 33.6496 13.6754 33.5593 12.3296 33.1059C10.7792 32.6033 9.28637 32.4496 7.67605 32.3767C7.66979 32.4183 7.66352 32.46 7.65706 32.5029C7.59839 32.8413 7.5562 33.0563 7.29226 33.2741C7.2474 33.3126 7.20255 33.351 7.15633 33.3906C6.96719 33.5335 6.8544 33.5596 6.62608 33.5636C6.56755 33.5647 6.50902 33.5658 6.44872 33.5669C6.17997 33.57 5.91122 33.5728 5.64245 33.5744C5.501 33.5756 5.35955 33.5774 5.21811 33.5801C5.01379 33.5839 4.80954 33.5854 4.60519 33.5864C4.54247 33.588 4.47975 33.5895 4.41513 33.5911C4.05789 33.59 3.80789 33.5356 3.50255 33.3333C3.04305 32.8084 3.09798 32.1844 3.10137 31.5089C3.10102 31.3927 3.10057 31.2766 3.10001 31.1604C3.09885 30.8461 3.09929 30.5317 3.10011 30.2174C3.10076 29.8878 3.10015 29.5582 3.09975 29.2286C3.09929 28.6752 3.0999 28.1219 3.10112 27.5685C3.10251 26.9294 3.10206 26.2904 3.10065 25.6514C3.09949 25.1019 3.09933 24.5525 3.1 24.003C3.10039 23.6752 3.10045 23.3474 3.0996 23.0195C3.09886 22.7113 3.09938 22.4031 3.10086 22.0948C3.10119 21.9819 3.1011 21.8691 3.10053 21.7562C3.09569 20.6926 3.09569 20.6926 3.39034 20.2268C3.6461 19.9642 3.84465 19.874 4.19374 19.8694C4.25268 19.8685 4.31161 19.8676 4.37234 19.8667C4.46769 19.866 4.46769 19.866 4.56496 19.8652C4.63051 19.8646 4.69606 19.8641 4.76359 19.8635C4.90237 19.8625 5.04115 19.8618 5.17993 19.8612C5.39179 19.8601 5.60358 19.857 5.81542 19.854C5.95031 19.8533 6.08519 19.8527 6.22008 19.8522C6.31485 19.8504 6.31485 19.8504 6.41153 19.8486C6.79245 19.8499 6.99886 19.891 7.29226 20.1578C7.33975 20.1962 7.38725 20.2346 7.43618 20.2742C7.55611 20.4453 7.57986 20.5475 7.61908 20.7545C7.62995 20.8107 7.64081 20.867 7.652 20.9249C7.66391 20.9894 7.66391 20.9894 7.67605 21.0552C7.95473 21.0521 8.23331 21.0473 8.51194 21.0409C8.6064 21.0389 8.70087 21.0375 8.79535 21.0365C9.50836 21.0287 10.1873 20.9786 10.7544 20.4555C10.8065 20.4076 10.8586 20.3597 10.9123 20.3104C11.1163 20.1081 11.3118 19.8984 11.5053 19.6845C11.6674 19.5089 11.8376 19.3477 12.0125 19.1872C12.1192 19.0859 12.2228 18.9807 12.3248 18.8739C13.1806 17.978 14.2044 17.3929 15.4199 17.3748ZM4.15793 21.0552C4.15159 21.2009 4.14985 21.3469 4.14981 21.4928C4.14971 21.5391 4.14961 21.5853 4.14951 21.633C4.14925 21.789 4.14945 21.9451 4.14965 22.1012C4.14957 22.2126 4.14945 22.3241 4.14931 22.4355C4.14902 22.739 4.14914 23.0425 4.14934 23.3461C4.1495 23.663 4.14935 23.9799 4.14925 24.2968C4.14913 24.8291 4.14929 25.3614 4.14959 25.8937C4.14994 26.51 4.14983 27.1263 4.14947 27.7426C4.14918 28.2708 4.14914 28.799 4.14931 29.3271C4.14941 29.643 4.14942 29.9589 4.14921 30.2748C4.14903 30.5717 4.14915 30.8686 4.14953 31.1655C4.14961 31.2748 4.14958 31.3841 4.14944 31.4934C4.14927 31.6419 4.14949 31.7905 4.14981 31.939C4.14983 32.0224 4.14986 32.1057 4.14988 32.1916C4.1384 32.3711 4.1384 32.3711 4.2219 32.4457C4.39635 32.4527 4.56914 32.4554 4.74362 32.4549C4.82205 32.455 4.82205 32.455 4.90207 32.4551C5.01284 32.4551 5.12362 32.455 5.23439 32.4547C5.40454 32.4544 5.57468 32.4547 5.74483 32.4552C5.85219 32.4551 5.95955 32.455 6.06691 32.4549C6.11815 32.455 6.16939 32.4552 6.22218 32.4553C6.4566 32.4783 6.4566 32.4783 6.6526 32.3767C6.65894 32.2309 6.66068 32.085 6.66072 31.939C6.66082 31.8928 6.66092 31.8466 6.66102 31.7989C6.66128 31.6428 6.66108 31.4868 6.66088 31.3307C6.66096 31.2192 6.66108 31.1078 6.66122 30.9964C6.66151 30.6928 6.66139 30.3893 6.66119 30.0858C6.66103 29.7689 6.66118 29.452 6.66128 29.1351C6.6614 28.6028 6.66124 28.0705 6.66094 27.5382C6.66059 26.9219 6.6607 26.3056 6.66106 25.6892C6.66135 25.1611 6.66139 24.6329 6.66122 24.1047C6.66112 23.7888 6.66111 23.473 6.66132 23.1571C6.6615 22.8602 6.66137 22.5633 6.661 22.2664C6.66092 22.1571 6.66094 22.0478 6.66109 21.9385C6.66126 21.7899 6.66104 21.6414 6.66072 21.4928C6.6607 21.4095 6.66067 21.3262 6.66065 21.2403C6.67213 21.0608 6.67213 21.0608 6.58863 20.9862C6.41418 20.9792 6.24139 20.9765 6.06691 20.977C6.01462 20.9769 5.96233 20.9769 5.90846 20.9768C5.79769 20.9767 5.68691 20.9769 5.57614 20.9772C5.40599 20.9775 5.23585 20.9772 5.0657 20.9767C4.95834 20.9768 4.85098 20.9769 4.74362 20.977C4.69238 20.9768 4.64114 20.9767 4.58835 20.9766C4.35393 20.9536 4.35393 20.9536 4.15793 21.0552Z" fill="#F79831"/>
<path d="M17.2467 1.72144C17.5825 1.83553 17.7302 2.06757 17.9006 2.38885C17.9502 2.48129 17.9502 2.48129 18.0009 2.57559C18.0356 2.64113 18.0704 2.70667 18.1062 2.7742C18.368 3.26082 18.6349 3.74102 18.9218 4.21096C19.1374 4.56588 19.3478 4.92269 19.5455 5.28961C19.5851 5.36311 19.6248 5.43662 19.6656 5.51235C19.9765 6.1901 20.0173 7.07217 19.7933 7.79207C19.7448 7.91171 19.6928 8.02975 19.6374 8.14587C19.6093 8.20558 19.5812 8.26529 19.5522 8.32681C19.1523 9.07971 18.5173 9.743 17.8464 10.2169C17.8041 10.2169 17.7619 10.2169 17.7184 10.2169C17.7395 10.7181 17.7606 11.2192 17.7824 11.7356C17.8813 11.6516 17.9803 11.5676 18.0822 11.4811C19.2471 10.5692 20.724 10.5611 22.0961 10.7907C22.1448 10.7988 22.1936 10.8069 22.2438 10.8153C22.5969 10.8819 22.944 10.9749 23.2195 11.2351C23.3149 11.4668 23.2665 11.6278 23.2195 11.8737C22.5394 13.47 21.3487 15.0267 19.8113 15.6816C19.5065 15.7832 19.208 15.8202 18.8898 15.8258C18.8004 15.8285 18.8004 15.8285 18.7091 15.8312C18.3936 15.7992 18.0882 15.6915 17.7824 15.6015C17.7613 17.5379 17.7402 19.4743 17.7184 21.4693C17.9295 21.4921 18.1406 21.5149 18.3581 21.5384C19.0186 21.7624 19.4768 22.2715 19.9572 22.781C20.5285 23.378 21.0891 23.8155 21.8322 24.1314C22.2887 24.3298 22.6519 24.5928 22.8574 25.0912C22.9726 25.5684 22.9896 26.1539 22.8037 26.6123C22.5307 27.0885 22.1234 27.4119 21.6203 27.5443C21.2989 27.5746 20.9778 27.5727 20.6554 27.5711C20.5579 27.5714 20.4605 27.5717 20.363 27.5722C20.0995 27.5731 19.836 27.5728 19.5724 27.5721C19.2959 27.5716 19.0194 27.5721 18.7429 27.5724C18.2786 27.5728 17.8143 27.5723 17.35 27.5713C16.8142 27.5702 16.2784 27.5705 15.7426 27.5717C15.2816 27.5726 14.8206 27.5727 14.3596 27.5722C14.0847 27.5719 13.8098 27.5718 13.5349 27.5725C13.2763 27.5731 13.0177 27.5727 12.7592 27.5715C12.6646 27.5712 12.5701 27.5713 12.4755 27.5718C11.8067 27.5747 11.2238 27.555 10.7144 27.0435C10.3896 26.6365 10.2764 26.1631 10.2851 25.6364C10.3279 25.11 10.5747 24.7128 10.938 24.3687C11.6451 23.867 12.4738 23.777 13.2958 23.6972C14.1024 23.6068 14.615 23.2913 15.1435 22.6337C15.5458 22.1359 15.906 21.7592 16.5031 21.5384C16.5664 21.5384 16.6297 21.5384 16.695 21.5384C16.695 19.5564 16.695 17.5745 16.695 15.5325C16.4206 15.6236 16.1461 15.7147 15.8634 15.8086C14.872 15.885 14.0386 15.5528 13.2808 14.8653C12.4637 14.0806 11.167 12.7378 11.082 11.4897C11.1299 11.2524 11.1299 11.2524 11.2511 11.1092C11.5288 10.9234 11.7976 10.8767 12.1174 10.8209C12.2145 10.8036 12.2145 10.8036 12.3136 10.7858C13.6525 10.5654 15.0069 10.597 16.1832 11.3904C16.3371 11.5232 16.4852 11.6617 16.631 11.8046C16.7464 10.9926 16.7464 10.9926 16.5576 10.2342C16.3378 10.0128 16.0646 9.8813 15.7994 9.73364C15.1128 9.14343 14.6841 8.28719 14.5501 7.35792C14.3963 5.65689 15.1159 4.13774 16.0553 2.83029C16.1065 2.75874 16.1577 2.68719 16.2105 2.61348C16.8627 1.72858 16.8627 1.72858 17.2467 1.72144ZM17.0788 3.24449C16.5767 3.90722 16.1811 4.60109 15.8634 5.38453C15.8343 5.45465 15.8052 5.52477 15.7752 5.59702C15.52 6.29948 15.4871 7.11945 15.7315 7.8309C15.9178 8.24799 16.1836 8.5973 16.5031 8.90524C16.5664 8.92802 16.6297 8.9508 16.695 8.97427C16.6959 8.90844 16.6968 8.8426 16.6978 8.77477C16.7015 8.53043 16.7064 8.28614 16.7118 8.04183C16.7139 7.93611 16.7157 7.83038 16.7171 7.72464C16.7193 7.57261 16.7226 7.42066 16.7262 7.26866C16.7266 7.22141 16.727 7.17415 16.7274 7.12547C16.733 6.93075 16.7402 6.79503 16.8429 6.63153C17.0244 6.50804 17.1909 6.53808 17.3986 6.5581C17.5905 6.69616 17.5905 6.69616 17.6545 6.90326C17.6641 7.05076 17.6704 7.19853 17.6747 7.34632C17.6774 7.43286 17.6801 7.5194 17.6828 7.60857C17.6853 7.69902 17.6878 7.78948 17.6904 7.88268C17.6932 7.97486 17.696 8.06704 17.6988 8.15922C17.7056 8.38487 17.7121 8.61053 17.7184 8.8362C18.2611 8.35115 18.7916 7.78007 18.894 6.99333C18.9254 6.21008 18.5288 5.62707 18.1502 4.98758C18.0644 4.84127 17.9786 4.69493 17.8928 4.54857C17.8313 4.44386 17.8313 4.44386 17.7685 4.33702C17.5841 4.02145 17.4054 3.70224 17.2272 3.38255C17.1854 3.31421 17.1854 3.31421 17.1427 3.24449C17.1216 3.24449 17.1005 3.24449 17.0788 3.24449ZM12.4732 11.9427C12.8085 12.9836 13.72 13.9677 14.6041 14.4783C15.1201 14.7414 15.5693 14.77 16.1093 14.5614C16.3031 14.4708 16.4617 14.3567 16.631 14.2208C16.5124 13.4935 16.2631 12.9163 15.7355 12.4259C14.7507 11.7604 13.596 11.6093 12.4732 11.9427ZM18.2941 12.7711C17.9838 13.2188 17.8275 13.6778 17.7184 14.2208C18.1646 14.5485 18.5704 14.764 19.1257 14.7041C20.0697 14.4315 20.779 13.7713 21.3525 12.9394C21.3882 12.8891 21.424 12.8387 21.4608 12.7869C21.6507 12.5155 21.8108 12.2529 21.9402 11.9427C20.6995 11.6188 19.2085 11.6919 18.2941 12.7711ZM16.1193 23.1261C16.028 23.2493 15.9374 23.373 15.8474 23.4972C15.2603 24.2859 14.4616 24.6813 13.5407 24.8024C13.3915 24.8171 13.2422 24.8303 13.0929 24.8434C12.1509 24.9347 12.1509 24.9347 11.3858 25.4733C11.3019 25.7336 11.3099 25.8522 11.3978 26.1118C11.5217 26.3147 11.5649 26.3577 11.7696 26.4398C11.9562 26.4607 11.9562 26.4607 12.1649 26.4578C12.2461 26.4582 12.3272 26.4587 12.4108 26.4592C12.5006 26.4591 12.5904 26.4589 12.6802 26.4587C12.7749 26.459 12.8696 26.4594 12.9643 26.4598C13.2213 26.4607 13.4784 26.4607 13.7354 26.4606C13.95 26.4605 14.1646 26.4608 14.3792 26.4612C14.8855 26.4619 15.3918 26.462 15.898 26.4615C16.4203 26.4611 16.9426 26.462 17.4649 26.4634C17.9133 26.4647 18.3618 26.4651 18.8102 26.4649C19.078 26.4647 19.3458 26.4649 19.6137 26.4659C19.8655 26.4667 20.1174 26.4666 20.3692 26.4657C20.4616 26.4655 20.554 26.4657 20.6464 26.4663C20.7726 26.467 20.8988 26.4663 21.025 26.4656C21.0956 26.4656 21.1662 26.4656 21.239 26.4656C21.4558 26.436 21.5739 26.373 21.7483 26.2327C21.9082 25.9737 21.9105 25.8489 21.8762 25.5423C21.6935 25.2356 21.4819 25.1595 21.1686 25.0375C20.325 24.7077 19.6766 24.0863 19.0657 23.3937C18.6189 22.9026 18.1249 22.5656 17.4826 22.5566C16.927 22.5622 16.5128 22.6758 16.1193 23.1261Z" fill="#F79831"/>
</svg>
