<svg width="20" height="20" viewBox="0 0 20 20" fill="none" xmlns="http://www.w3.org/2000/svg">
<g clip-path="url(#clip0_82_13446)">
<path d="M1.98851 -0.00579076C2.03768 -0.00607026 2.08686 -0.00634976 2.13752 -0.00663774C2.19233 -0.00674869 2.24714 -0.00685462 2.30194 -0.00695603C2.35943 -0.00720071 2.41692 -0.00746035 2.47441 -0.00773387C2.66361 -0.00855661 2.8528 -0.00896076 3.042 -0.00934975C3.10716 -0.00950786 3.17233 -0.00966868 3.2375 -0.00983218C3.54384 -0.0105768 3.85019 -0.0111324 4.15654 -0.0114576C4.50977 -0.0118388 4.86299 -0.0128653 5.21622 -0.014446C5.48941 -0.0156263 5.76261 -0.0162027 6.0358 -0.0163319C6.19886 -0.0164235 6.36191 -0.0167708 6.52497 -0.0177562C6.67862 -0.0186696 6.83225 -0.0188293 6.9859 -0.0184295C7.04205 -0.0184103 7.0982 -0.0186546 7.15435 -0.0191935C7.60508 -0.0232746 7.94802 0.0358301 8.28125 0.351521C8.41677 0.286472 8.5392 0.208715 8.66425 0.125691C8.85087 0.0220842 9.02285 -0.0098422 9.23465 -0.0104882C9.28421 -0.0108214 9.33377 -0.0111546 9.38482 -0.0114979C9.43925 -0.0114706 9.49368 -0.0114345 9.5481 -0.0113906C9.60581 -0.0116245 9.66351 -0.0118904 9.72121 -0.0121857C9.87754 -0.0128744 10.0339 -0.0130589 10.1902 -0.0131088C10.288 -0.0131645 10.3857 -0.0133314 10.4834 -0.0135383C10.8247 -0.0142605 11.1659 -0.0145802 11.5071 -0.0145187C11.8249 -0.0144717 12.1426 -0.0152965 12.4604 -0.0165299C12.7335 -0.0175522 13.0066 -0.0179705 13.2797 -0.0179206C13.4427 -0.0179007 13.6057 -0.018122 13.7687 -0.0189501C13.922 -0.0197078 14.0753 -0.0197117 14.2286 -0.0191441C14.2847 -0.0190626 14.3408 -0.019246 14.397 -0.0197192C14.9276 -0.023901 14.9276 -0.023901 15.1563 0.156208C15.3204 0.36356 15.3571 0.512158 15.354 0.771443C15.3537 0.809913 15.3533 0.848383 15.3529 0.88802C15.3523 0.931828 15.3523 0.931828 15.3516 0.976521C15.3837 0.974708 15.4158 0.972895 15.4489 0.971027C15.7924 0.959921 16.0704 0.9795 16.3394 1.20906C16.6935 1.57735 16.6961 1.96719 16.6904 2.4552C16.6901 2.51748 16.6899 2.57976 16.6897 2.64204C16.6892 2.77562 16.6884 2.90919 16.6874 3.04276C16.6858 3.25445 16.6854 3.46613 16.6853 3.67782C16.6847 4.27961 16.6834 4.88138 16.679 5.48316C16.6767 5.81594 16.6757 6.1487 16.6763 6.4815C16.6765 6.65724 16.676 6.83292 16.6738 7.00866C16.6717 7.17416 16.6715 7.33957 16.6726 7.50509C16.6726 7.56539 16.6721 7.62571 16.6707 7.686C16.6622 8.10004 16.7536 8.35643 17.0136 8.67213C17.1435 8.8307 17.2381 9.00043 17.3315 9.18209C17.3583 9.23386 17.3583 9.23386 17.3856 9.28668C17.7444 10.003 17.9827 10.8363 18.0078 11.6406C18.0086 11.6654 18.0094 11.6902 18.0102 11.7158C18.0454 12.9888 17.7171 14.1478 17.071 15.2426C17.0289 15.3167 16.9906 15.3921 16.9531 15.4687C17.2004 15.7749 17.2004 15.7749 17.5276 15.969C17.5898 15.9707 17.6521 15.9706 17.7142 15.9682C18.0326 15.9951 18.3111 16.3402 18.5234 16.5533C18.5562 16.5859 18.5889 16.6184 18.6227 16.652C18.6915 16.7205 18.7601 16.7892 18.8286 16.858C18.9327 16.9625 19.0376 17.0662 19.1425 17.1699C19.2096 17.237 19.2767 17.304 19.3437 17.3712C19.3747 17.4017 19.4057 17.4323 19.4377 17.4638C19.8104 17.8412 20.0171 18.2105 20.0142 18.7455C20.0024 19.2039 19.7967 19.4672 19.48 19.7753C19.1234 20.0076 18.7745 20.0409 18.3594 20C17.9095 19.8987 17.5787 19.5439 17.2636 19.2285C17.2316 19.1966 17.1995 19.1646 17.1664 19.1318C17.0992 19.0648 17.0321 18.9977 16.9651 18.9305C16.8627 18.828 16.7599 18.7261 16.657 18.6242C16.5915 18.5587 16.5259 18.4932 16.4604 18.4277C16.4299 18.3975 16.3993 18.3673 16.3678 18.3362C15.9873 17.9524 15.9873 17.9524 15.9692 17.7168C15.9717 17.6879 15.9741 17.6591 15.9766 17.6294C15.9637 17.3608 15.7563 17.2121 15.5699 17.0419C15.5365 17.0126 15.5031 16.9833 15.4688 16.9531C15.4445 16.9664 15.4203 16.9797 15.3954 16.9934C15.3206 17.0343 15.2457 17.075 15.1707 17.1156C15.0821 17.164 14.9939 17.2131 14.9062 17.263C13.5141 18.0453 11.8787 18.2046 10.3455 17.7891C9.35762 17.5089 8.50938 16.9993 7.77344 16.289C7.74016 16.2582 7.70687 16.2274 7.67258 16.1956C7.30647 15.8474 7.0175 15.44 6.76758 15.0024C6.75476 14.9801 6.74194 14.9578 6.72874 14.9349C6.62688 14.7498 6.54336 14.5574 6.45932 14.3639C6.44667 14.3349 6.43403 14.3059 6.421 14.276C6.39 14.2048 6.35906 14.1336 6.32813 14.0625C6.28694 14.0623 6.28694 14.0623 6.24492 14.0621C5.57588 14.0589 4.90683 14.0553 4.23779 14.0512C3.91424 14.0493 3.5907 14.0475 3.26715 14.046C2.98504 14.0447 2.70294 14.0431 2.42084 14.0413C2.27156 14.0403 2.12228 14.0394 1.973 14.0389C1.83227 14.0384 1.69156 14.0375 1.55084 14.0364C1.47501 14.0359 1.39917 14.0357 1.32334 14.0356C0.908668 14.0316 0.555644 13.9954 0.234378 13.7109C0.0797448 13.5161 -0.00469494 13.338 -0.00534946 13.0873C-0.00554768 13.047 -0.00574589 13.0068 -0.00595012 12.9653C-0.00596957 12.9209 -0.00598895 12.8765 -0.00600898 12.8308C-0.00618016 12.7837 -0.00635132 12.7367 -0.00652769 12.6882C-0.00696012 12.5574 -0.0072158 12.4266 -0.00739419 12.2958C-0.00762684 12.1548 -0.00808033 12.0138 -0.00849926 11.8728C-0.00945732 11.5321 -0.0100286 11.1915 -0.0105328 10.8508C-0.0106778 10.7546 -0.010833 10.6583 -0.0109919 10.5621C-0.0119778 9.96444 -0.0128392 9.36679 -0.013325 8.76913C-0.0134394 8.63069 -0.0135552 8.49224 -0.0136729 8.35379C-0.0137021 8.31938 -0.0137313 8.28497 -0.0137613 8.24952C-0.0142554 7.6923 -0.0155529 7.13509 -0.0171808 6.57788C-0.0188387 6.00571 -0.0197586 5.43355 -0.0199626 4.86139C-0.0200958 4.54017 -0.020554 4.21897 -0.0218416 3.89775C-0.0229367 3.62414 -0.0233645 3.35054 -0.0229278 3.07692C-0.0227255 2.93739 -0.0228358 2.79788 -0.0238053 2.65835C-0.0248492 2.50684 -0.024368 2.35536 -0.0237473 2.20385C-0.0242896 2.16008 -0.0248319 2.11631 -0.0253906 2.07121C-0.0222027 1.75485 0.048355 1.49538 0.260854 1.25347C0.500709 1.02044 0.770828 0.970256 1.09619 0.969196C1.17352 0.971057 1.25085 0.973296 1.32813 0.976521C1.32632 0.939762 1.3245 0.903004 1.32263 0.865131C1.31107 0.46628 1.31107 0.46628 1.39405 0.288044C1.5896 0.0872088 1.7086 -0.00470202 1.98851 -0.00579076ZM2.03125 0.703083C2.03125 4.41558 2.03125 8.12808 2.03125 11.9531C3.33321 11.9531 4.63516 11.9531 5.97657 11.9531C6.01524 11.605 6.05391 11.257 6.09375 10.8984C6.34555 9.69696 6.90278 8.37687 7.91442 7.60847C7.99657 7.50347 7.98351 7.41671 7.98363 7.28478C7.98391 7.24588 7.98391 7.24588 7.98419 7.20619C7.98466 7.1191 7.98428 7.03204 7.98392 6.94495C7.98407 6.88258 7.98428 6.82021 7.98454 6.75785C7.98507 6.58827 7.98487 6.41871 7.98449 6.24914C7.9842 6.07173 7.98447 5.89433 7.98466 5.71692C7.98487 5.41884 7.98459 5.12077 7.98403 4.8227C7.98339 4.47821 7.9836 4.13374 7.98424 3.78925C7.98478 3.49354 7.98485 3.19782 7.98454 2.9021C7.98436 2.72547 7.98434 2.54884 7.98472 2.37221C7.98506 2.20603 7.98483 2.03986 7.98415 1.87368C7.984 1.81274 7.98404 1.7518 7.9843 1.69086C7.98462 1.60754 7.98422 1.52426 7.98363 1.44095C7.98359 1.39437 7.98355 1.34778 7.9835 1.29978C7.96401 1.13064 7.90837 0.998307 7.7916 0.873219C6.26567 -0.293664 3.95221 0.703083 2.03125 0.703083ZM8.86719 0.859333C8.7144 1.05635 8.66697 1.19691 8.66718 1.44298C8.66713 1.49146 8.66707 1.53994 8.66702 1.58988C8.66716 1.64369 8.6673 1.6975 8.66744 1.75131C8.66745 1.8079 8.66745 1.86449 8.66743 1.92108C8.66741 2.07482 8.66764 2.22856 8.66792 2.38229C8.66816 2.54292 8.66818 2.70354 8.66823 2.86416C8.66835 3.16838 8.66867 3.47259 8.66906 3.77681C8.6695 4.12312 8.66972 4.46944 8.66991 4.81575C8.67032 5.5282 8.67101 6.24064 8.67188 6.95308C8.74708 6.91559 8.82227 6.87808 8.89746 6.84055C8.93933 6.81966 8.98121 6.79877 9.02435 6.77725C9.11059 6.73383 9.19623 6.68984 9.28131 6.64425C10.6185 5.93939 12.2413 5.83062 13.6858 6.24309C14.0121 6.34839 14.3301 6.4742 14.6484 6.60152C14.6484 4.65504 14.6484 2.70855 14.6484 0.703083C13.7453 0.69986 12.8421 0.696638 11.9116 0.693318C11.6266 0.691895 11.3415 0.690472 11.0478 0.689007C10.792 0.688484 10.792 0.688484 10.5363 0.68817C10.4225 0.688025 10.3086 0.68744 10.1948 0.686587C10.0495 0.685513 9.90415 0.685194 9.7588 0.685416C9.68049 0.685348 9.60219 0.684511 9.52389 0.683641C9.25798 0.684869 9.08043 0.694003 8.86719 0.859333ZM0.74219 1.79683C0.694539 1.89213 0.698103 1.95327 0.697885 2.05983C0.697711 2.09908 0.697537 2.13832 0.697357 2.17876C0.697364 2.2222 0.697371 2.26564 0.697379 2.3104C0.697235 2.35629 0.697092 2.40219 0.696944 2.44948C0.696587 2.57727 0.696407 2.70505 0.696303 2.83284C0.696151 2.97051 0.695777 3.10818 0.695436 3.24584C0.694663 3.57848 0.69427 3.91111 0.693923 4.24374C0.693752 4.40027 0.693542 4.5568 0.693338 4.71333C0.692673 5.23347 0.692107 5.7536 0.691824 6.27373C0.691749 6.40875 0.691674 6.54377 0.691598 6.67879C0.691579 6.71235 0.69156 6.74591 0.691541 6.78048C0.691216 7.32447 0.690226 7.86846 0.688958 8.41244C0.687667 8.97057 0.686963 9.52869 0.686838 10.0868C0.686753 10.4003 0.68641 10.7139 0.685413 11.0274C0.684567 11.2943 0.68425 11.5612 0.684631 11.8282C0.684809 11.9644 0.684731 12.1007 0.683976 12.2369C0.68329 12.3845 0.683559 12.532 0.684075 12.6796C0.683647 12.7229 0.683218 12.7661 0.682777 12.8107C0.683112 12.8502 0.683447 12.8896 0.683792 12.9303C0.683754 12.9643 0.683716 12.9984 0.683677 13.0335C0.709832 13.1565 0.763033 13.203 0.859378 13.2812C0.979451 13.3212 1.06067 13.3251 1.18641 13.325C1.25173 13.325 1.25173 13.325 1.31837 13.3251C1.36616 13.325 1.41395 13.3248 1.4632 13.3247C1.51351 13.3247 1.56381 13.3247 1.61565 13.3247C1.75365 13.3247 1.89165 13.3245 2.02964 13.3242C2.17385 13.324 2.31805 13.324 2.46225 13.3239C2.73534 13.3238 3.00842 13.3235 3.28151 13.3231C3.5924 13.3226 3.90329 13.3224 4.21418 13.3222C4.85373 13.3218 5.49327 13.3211 6.13282 13.3203C6.09414 13.1011 6.05547 12.882 6.01563 12.6562C5.9364 12.656 5.9364 12.656 5.85556 12.6558C5.35781 12.6543 4.86007 12.6521 4.36232 12.649C4.10642 12.6475 3.85053 12.6462 3.59463 12.6456C3.34768 12.645 3.10074 12.6437 2.8538 12.6418C2.75957 12.6412 2.66535 12.6409 2.57113 12.6409C2.43916 12.6408 2.30724 12.6398 2.17528 12.6385C2.13631 12.6387 2.09733 12.6389 2.05718 12.6391C1.83442 12.6357 1.69534 12.6167 1.52344 12.4609C1.34141 12.2505 1.34488 12.0692 1.34692 11.7979C1.34662 11.7547 1.34633 11.7114 1.34603 11.6668C1.34524 11.5218 1.34555 11.3768 1.34587 11.2317C1.34552 11.1278 1.34512 11.0239 1.34464 10.9199C1.34373 10.6961 1.34339 10.4723 1.34344 10.2485C1.3435 9.92492 1.34271 9.60134 1.3417 9.27776C1.3401 8.75275 1.33919 8.22774 1.33871 7.70273C1.33825 7.19278 1.33746 6.68283 1.33623 6.17288C1.33616 6.14144 1.33608 6.11 1.336 6.0776C1.33562 5.91987 1.33524 5.76213 1.33484 5.60439C1.33161 4.29614 1.3295 2.9879 1.32813 1.67965C1.26552 1.67819 1.20291 1.67715 1.14029 1.67629C1.10543 1.67567 1.07056 1.67504 1.03463 1.6744C0.909906 1.68114 0.837412 1.71697 0.74219 1.79683ZM15.3516 1.67965C15.3397 2.36487 15.3307 3.05007 15.3253 3.73537C15.3226 4.05361 15.3191 4.37179 15.3133 4.68999C15.3082 4.96748 15.3049 5.24494 15.3038 5.52248C15.3031 5.66933 15.3016 5.81605 15.2979 5.96286C15.2497 6.59684 15.2497 6.59684 15.4639 7.16063C15.615 7.30633 15.7773 7.39449 15.9766 7.4609C15.9793 6.74614 15.9814 6.03139 15.9826 5.31663C15.9832 4.98475 15.9841 4.65288 15.9854 4.32101C15.9866 4.03175 15.9873 3.7425 15.9876 3.45324C15.9877 3.30008 15.9881 3.14692 15.989 2.99376C15.9898 2.84957 15.99 2.7054 15.9898 2.56121C15.9899 2.48311 15.9905 2.40501 15.9911 2.32692C15.991 2.2803 15.9908 2.23369 15.9907 2.18567C15.9908 2.14523 15.9909 2.1048 15.991 2.06313C15.9741 1.93403 15.9364 1.86201 15.8594 1.75777C15.7299 1.67148 15.6897 1.67086 15.5396 1.67476C15.4868 1.67582 15.4868 1.67582 15.4329 1.6769C15.3926 1.67826 15.3926 1.67826 15.3516 1.67965ZM9.41407 7.34371C9.39106 7.35671 9.36805 7.36972 9.34435 7.38311C9.04689 7.55364 8.77604 7.74612 8.51563 7.96871C8.46978 8.00738 8.46978 8.00738 8.42301 8.04683C7.41526 8.91693 6.78258 10.2403 6.67969 11.5625C6.62578 12.6302 6.82281 13.6328 7.34375 14.5703C7.37261 14.6235 7.37261 14.6235 7.40204 14.6778C7.81882 15.4113 8.43523 16.0287 9.14063 16.4843C9.1719 16.5057 9.20317 16.527 9.23538 16.549C10.4165 17.3161 11.8669 17.4349 13.2155 17.1697C14.1992 16.9605 15.0277 16.4301 15.7422 15.7421C15.7722 15.7151 15.8021 15.6881 15.833 15.6602C16.7713 14.7859 17.2566 13.4356 17.3134 12.1769C17.3542 10.7527 16.8437 9.39991 15.871 8.35842C15.5557 8.02978 15.2301 7.74146 14.8438 7.49996C14.8078 7.47726 14.8078 7.47726 14.7712 7.45411C13.158 6.45003 11.0662 6.4066 9.41407 7.34371ZM16.3475 16.1096C16.3076 16.1498 16.2678 16.1901 16.228 16.2304C16.2077 16.2509 16.1874 16.2714 16.1665 16.2925C16.1161 16.3434 16.0659 16.3943 16.0156 16.4453C16.0522 16.4885 16.0888 16.5316 16.1255 16.5747C16.1459 16.5987 16.1663 16.6227 16.1873 16.6474C16.245 16.713 16.3047 16.7749 16.3672 16.8359C16.502 16.7782 16.5879 16.7016 16.6895 16.5966C16.7308 16.5542 16.7308 16.5542 16.7731 16.5109C16.7938 16.4892 16.8146 16.4676 16.8359 16.4453C16.7811 16.3208 16.7157 16.2374 16.6187 16.1425C16.5944 16.1186 16.5702 16.0946 16.5453 16.0699C16.4441 15.9797 16.4545 16.0068 16.3475 16.1096ZM17.4912 16.7621C17.4533 16.8 17.4155 16.8381 17.3778 16.8762C17.3579 16.8961 17.338 16.9161 17.3175 16.9366C17.2537 17.0006 17.1901 17.0647 17.1265 17.1289C17.0834 17.1722 17.0403 17.2154 16.9972 17.2587C16.8912 17.3651 16.7854 17.4715 16.6797 17.5781C16.8481 17.7788 17.0238 17.9685 17.208 18.1547C17.2355 18.1826 17.263 18.2104 17.2914 18.2391C17.3493 18.2976 17.4073 18.356 17.4653 18.4143C17.5243 18.4737 17.5831 18.5333 17.6417 18.5931C17.727 18.6801 17.8129 18.7666 17.8989 18.853C17.9247 18.8795 17.9506 18.906 17.9772 18.9334C18.1755 19.1307 18.3705 19.2761 18.6523 19.3164C18.8876 19.2828 19.0478 19.2081 19.1968 19.021C19.2913 18.8432 19.3133 18.7163 19.2969 18.5156C19.1835 18.2325 19.0095 18.0507 18.7935 17.8393C18.76 17.8059 18.7265 17.7726 18.692 17.7382C18.6215 17.6681 18.5509 17.5983 18.4801 17.5286C18.3712 17.4214 18.2628 17.3137 18.1545 17.2059C18.086 17.1379 18.0174 17.0699 17.9488 17.0019C17.9161 16.9696 17.8835 16.9372 17.8499 16.9039C17.8199 16.8744 17.7899 16.8449 17.759 16.8145C17.7325 16.7884 17.706 16.7623 17.6787 16.7354C17.5824 16.6481 17.5914 16.667 17.4912 16.7621Z" fill="#00DD30"/>
<path d="M15.1793 8.53244C16.055 9.33174 16.6252 10.4898 16.6795 11.6797C16.7256 13.024 16.3097 14.2406 15.3976 15.2398C14.5473 16.1398 13.3713 16.6369 12.1392 16.6846C10.848 16.708 9.67213 16.2422 8.72753 15.3655C7.84389 14.5089 7.35074 13.3822 7.29793 12.1518C7.29084 10.8036 7.73846 9.64934 8.67168 8.67192C8.7031 8.6368 8.7031 8.6368 8.73516 8.60097C9.39064 7.89469 10.3621 7.50987 11.2889 7.3438C11.3178 7.33861 11.3467 7.33343 11.3765 7.32808C12.7641 7.13101 14.1478 7.6088 15.1793 8.53244ZM9.33575 9.02349C9.30015 9.05551 9.26455 9.08754 9.22787 9.12053C8.47296 9.83227 8.06797 10.8112 7.99969 11.8381C7.98046 12.9948 8.41895 14.0198 9.20879 14.8511C9.96515 15.5769 10.9358 15.9553 11.9822 15.9888C13.1249 15.9642 14.1565 15.499 14.945 14.6773C15.6226 13.905 16.0084 12.9243 15.9861 11.8886C15.897 10.6953 15.4181 9.71117 14.5311 8.9063C13.0494 7.67155 10.7532 7.70841 9.33575 9.02349Z" fill="#00DD30"/>
<path d="M3.26492 3.95902C3.30655 3.95868 3.34817 3.95834 3.39106 3.95799C3.52857 3.95713 3.66604 3.9577 3.80356 3.95836C3.89915 3.95822 3.99474 3.95803 4.09033 3.95779C4.29064 3.9575 4.49093 3.95792 4.69124 3.95883C4.94805 3.95994 5.20482 3.9593 5.46163 3.95813C5.65901 3.95743 5.85638 3.95765 6.05376 3.95816C6.14846 3.95829 6.24315 3.95813 6.33784 3.95767C6.47017 3.95718 6.60244 3.95793 6.73477 3.95902C6.77394 3.95863 6.81311 3.95823 6.85347 3.95782C7.03508 3.96059 7.12111 3.96412 7.27041 4.07499C7.36698 4.21304 7.37016 4.28777 7.3436 4.45305C7.27346 4.5606 7.22436 4.62985 7.10922 4.68742C7.05315 4.69117 6.99691 4.69252 6.94072 4.69264C6.88765 4.69289 6.88765 4.69289 6.83351 4.69315C6.79459 4.69313 6.75567 4.69311 6.71556 4.69309C6.67466 4.69323 6.63375 4.69336 6.5916 4.69349C6.45581 4.69386 6.32002 4.69394 6.18423 4.69398C6.09014 4.69411 5.99604 4.69424 5.90194 4.69438C5.70445 4.69461 5.50696 4.69468 5.30947 4.69466C5.05612 4.69465 4.80278 4.69519 4.54943 4.69586C4.355 4.69629 4.16058 4.69637 3.96615 4.69635C3.87273 4.6964 3.77932 4.69657 3.6859 4.69687C3.55534 4.69726 3.4248 4.69715 3.29424 4.69691C3.25548 4.69713 3.21671 4.69735 3.17677 4.69757C3.14117 4.69741 3.10557 4.69725 3.0689 4.69708C3.0226 4.69711 3.0226 4.69711 2.97537 4.69714C2.87772 4.68596 2.81699 4.66203 2.73422 4.6093C2.65172 4.48554 2.64315 4.40882 2.63428 4.26292C2.71798 3.94334 2.99438 3.95629 3.26492 3.95902Z" fill="#00DD30"/>
<path d="M9.91012 1.96321C9.95219 1.96293 9.99426 1.96264 10.0376 1.96235C10.1766 1.96171 10.3155 1.96278 10.4545 1.96392C10.551 1.96396 10.6476 1.96392 10.7441 1.9638C10.9465 1.96381 11.1488 1.96462 11.3511 1.96603C11.6106 1.96781 11.8701 1.96785 12.1296 1.96732C12.329 1.96706 12.5283 1.96758 12.7277 1.96835C12.8234 1.96865 12.9191 1.96874 13.0148 1.96861C13.1484 1.96859 13.282 1.96957 13.4157 1.97084C13.4752 1.97055 13.4752 1.97055 13.5359 1.97025C13.8031 1.97432 13.8031 1.97432 13.93 2.06475C14.0024 2.17581 14.021 2.25009 14.0237 2.38292C13.9475 2.59145 13.9475 2.59145 13.8349 2.66242C13.7418 2.69871 13.674 2.70544 13.5743 2.70587C13.5393 2.7062 13.5042 2.70654 13.4681 2.70688C13.4109 2.70683 13.4109 2.70683 13.3525 2.70677C13.3121 2.70704 13.2717 2.7073 13.23 2.70757C13.0963 2.70831 12.9626 2.70846 12.8289 2.70855C12.736 2.7088 12.643 2.70906 12.5501 2.70933C12.3553 2.7098 12.1604 2.70995 11.9655 2.7099C11.7159 2.70989 11.4662 2.71096 11.2166 2.7123C11.0246 2.71317 10.8327 2.71333 10.6407 2.71329C10.5487 2.71338 10.4566 2.71373 10.3646 2.71433C10.2358 2.7151 10.1071 2.71487 9.97834 2.7144C9.92134 2.71506 9.92134 2.71506 9.8632 2.71573C9.63683 2.71363 9.50904 2.6892 9.33615 2.53917C9.29785 2.4638 9.29785 2.4638 9.28976 2.38781C9.28599 2.36293 9.28221 2.33806 9.27832 2.31243C9.3547 1.96344 9.60924 1.95867 9.91012 1.96321Z" fill="#00DD30"/>
<path d="M3.06386 5.97124C3.11701 5.97099 3.11701 5.97099 3.17123 5.97073C3.22941 5.97076 3.22941 5.97076 3.28875 5.97079C3.32967 5.97066 3.37058 5.97053 3.41274 5.97039C3.54831 5.97002 3.68389 5.96994 3.81946 5.9699C3.91351 5.96978 4.00755 5.96964 4.1016 5.96951C4.29885 5.96927 4.49611 5.9692 4.69336 5.96922C4.94641 5.96923 5.19944 5.96869 5.45248 5.96802C5.64674 5.96759 5.841 5.96751 6.03526 5.96753C6.12856 5.96748 6.22187 5.96731 6.31518 5.96701C6.44554 5.96663 6.5759 5.96674 6.70627 5.96697C6.74497 5.96675 6.78367 5.96653 6.82355 5.96631C6.87686 5.96655 6.87686 5.96655 6.93125 5.96681C6.96207 5.96678 6.99288 5.96676 7.02463 5.96674C7.12089 5.97778 7.18324 6.0043 7.26566 6.05459C7.35573 6.18068 7.35643 6.29348 7.34379 6.44521C7.30982 6.5471 7.28749 6.58816 7.19559 6.64416C7.10062 6.6832 7.03411 6.6895 6.93178 6.68977C6.89635 6.69005 6.86092 6.69032 6.82441 6.69061C6.78583 6.69051 6.74725 6.69042 6.70751 6.69032C6.66665 6.69052 6.62579 6.69072 6.5837 6.69092C6.44852 6.69147 6.31335 6.69143 6.17817 6.69134C6.08427 6.69149 5.99038 6.69166 5.89649 6.69184C5.69963 6.69214 5.50277 6.69212 5.30591 6.69192C5.05353 6.69169 4.80116 6.69235 4.54878 6.69326C4.35485 6.69384 4.16093 6.69387 3.967 6.69375C3.87395 6.69377 3.78089 6.69397 3.68783 6.69437C3.55776 6.69485 3.4277 6.69458 3.29762 6.69413C3.25912 6.69443 3.22062 6.69473 3.18095 6.69504C2.98855 6.69355 2.84962 6.69168 2.69535 6.5624C2.63314 6.43799 2.641 6.3072 2.65629 6.17178C2.75319 5.99182 2.86984 5.97165 3.06386 5.97124Z" fill="#00DD30"/>
<path d="M9.94109 3.96409C9.98234 3.96382 10.0236 3.96355 10.0661 3.96326C10.2023 3.96258 10.3385 3.96303 10.4748 3.96356C10.5695 3.96345 10.6642 3.9633 10.7589 3.96311C10.9574 3.96288 11.1558 3.96321 11.3543 3.96394C11.6087 3.96483 11.8632 3.96432 12.1176 3.96338C12.3132 3.96282 12.5087 3.963 12.7043 3.9634C12.7981 3.96351 12.8919 3.96338 12.9858 3.96301C13.1169 3.96262 13.2479 3.96322 13.379 3.96409C13.4373 3.96362 13.4373 3.96362 13.4966 3.96313C13.6652 3.96521 13.7628 3.96862 13.9098 4.05668C14.0069 4.16598 14.0234 4.22907 14.0234 4.37494C13.9472 4.58344 13.9472 4.58344 13.8346 4.65445C13.7414 4.69077 13.6736 4.69736 13.5738 4.69762C13.5387 4.6979 13.5036 4.69817 13.4674 4.69846C13.4292 4.69836 13.391 4.69826 13.3516 4.69816C13.3111 4.69836 13.2706 4.69856 13.2289 4.69877C13.095 4.69931 12.9611 4.69928 12.8272 4.69919C12.7342 4.69934 12.6412 4.69951 12.5482 4.69969C12.3531 4.69998 12.1581 4.69997 11.9631 4.69977C11.7131 4.69954 11.4631 4.7002 11.2131 4.70111C11.0209 4.70168 10.8288 4.70172 10.6367 4.7016C10.5445 4.70162 10.4523 4.70182 10.3602 4.70221C10.2313 4.7027 10.1025 4.70243 9.9736 4.70198C9.9164 4.70243 9.9164 4.70243 9.85804 4.70288C9.66534 4.70138 9.53057 4.69748 9.37491 4.57025C9.29343 4.46654 9.29684 4.41136 9.29923 4.27728C9.38841 3.94434 9.64854 3.96171 9.94109 3.96409Z" fill="#00DD30"/>
<path d="M3.26499 1.96684C3.30662 1.96649 3.34824 1.96615 3.39113 1.9658C3.52864 1.96494 3.66611 1.96551 3.80363 1.96617C3.89922 1.96604 3.99481 1.96585 4.0904 1.9656C4.29071 1.96531 4.491 1.96573 4.69131 1.96664C4.94812 1.96776 5.20489 1.96712 5.4617 1.96595C5.65908 1.96524 5.85645 1.96547 6.05383 1.96597C6.14852 1.9661 6.24322 1.96594 6.33791 1.96549C6.47024 1.96499 6.60251 1.96575 6.73484 1.96684C6.77401 1.96644 6.81318 1.96604 6.85354 1.96564C7.03515 1.9684 7.12118 1.97193 7.27048 2.0828C7.36705 2.22085 7.37023 2.29558 7.34367 2.46086C7.2602 2.59326 7.21955 2.64546 7.07023 2.69523C7.01366 2.69893 6.95694 2.7005 6.90026 2.70072C6.84818 2.70105 6.84818 2.70105 6.79505 2.70139C6.75706 2.70144 6.71907 2.70148 6.67993 2.70153C6.61979 2.70182 6.61979 2.70182 6.55844 2.70211C6.42559 2.70269 6.29274 2.70295 6.15989 2.70317C6.06769 2.70339 5.97549 2.70362 5.88329 2.70384C5.68988 2.70425 5.49646 2.70448 5.30305 2.70462C5.05509 2.70483 4.80714 2.70577 4.55918 2.70688C4.36871 2.70761 4.17824 2.70781 3.98776 2.70787C3.89634 2.70799 3.80492 2.7083 3.7135 2.70882C3.58566 2.70948 3.45785 2.70941 3.33001 2.70916C3.29218 2.70952 3.25435 2.70988 3.21537 2.71025C2.97201 2.70873 2.83305 2.67681 2.65617 2.49992C2.62522 2.23028 2.62522 2.23028 2.72934 2.08605C2.90499 1.95095 3.04895 1.96465 3.26499 1.96684Z" fill="#00DD30"/>
<path d="M3.19035 7.96233C3.22129 7.96214 3.25223 7.96195 3.28411 7.96175C3.38673 7.96117 3.48936 7.96091 3.59199 7.96069C3.66322 7.96047 3.73446 7.96024 3.8057 7.96002C3.95521 7.95961 4.10472 7.95938 4.25423 7.95924C4.44575 7.95903 4.63725 7.95809 4.82877 7.95698C4.97598 7.95625 5.12319 7.95605 5.27041 7.95599C5.34101 7.95587 5.4116 7.95556 5.4822 7.95504C5.58104 7.95438 5.67986 7.95445 5.7787 7.9547C5.80782 7.95434 5.83695 7.95398 5.86696 7.95361C6.04031 7.955 6.15126 7.97859 6.28898 8.08582C6.35066 8.20917 6.36005 8.34389 6.32804 8.47644C6.21971 8.6156 6.16217 8.66678 5.98599 8.69655C5.92815 8.69771 5.87029 8.6978 5.81245 8.69703C5.78073 8.69737 5.74901 8.69771 5.71633 8.69806C5.61178 8.69892 5.5073 8.69835 5.40275 8.69769C5.32993 8.69782 5.25711 8.69801 5.18429 8.69826C5.03179 8.69855 4.87932 8.69813 4.72682 8.69722C4.53149 8.6961 4.3362 8.69674 4.14087 8.69791C3.99053 8.69862 3.84021 8.69839 3.68988 8.69789C3.61786 8.69776 3.54585 8.69792 3.47384 8.69837C3.37311 8.69887 3.27248 8.69811 3.17176 8.69703C3.14209 8.69742 3.11242 8.69782 3.08184 8.69822C2.92572 8.69511 2.85826 8.67725 2.73534 8.57764C2.65751 8.47816 2.63003 8.44101 2.6342 8.31775C2.65617 8.16394 2.65617 8.16394 2.72941 8.06873C2.88216 7.95641 3.00658 7.96261 3.19035 7.96233Z" fill="#00DD30"/>
<path d="M12.2657 8.75011C12.3565 8.88636 12.3569 8.94157 12.3438 9.10167C12.2967 9.23225 12.2688 9.25586 12.1485 9.33605C12.068 9.35258 12.068 9.35258 11.9755 9.36245C11.9414 9.36647 11.9074 9.37049 11.8723 9.37463C11.8362 9.37881 11.8 9.383 11.7628 9.38732C11.1857 9.46251 10.6772 9.64228 10.2491 10.0514C10.1394 10.1525 10.0608 10.2168 9.91219 10.2418C9.75818 10.2341 9.68871 10.2141 9.57039 10.1173C9.5056 9.98772 9.50303 9.86571 9.53133 9.72667C9.80925 9.2268 10.5262 8.9079 11.0487 8.75859C11.9722 8.50996 11.9722 8.50996 12.2657 8.75011Z" fill="#00DD30"/>
<path d="M3.137 9.95459C3.17937 9.95422 3.22174 9.95384 3.2654 9.95346C3.33407 9.95321 3.33407 9.95321 3.40412 9.95295C3.45118 9.95273 3.49824 9.95251 3.54672 9.95228C3.64634 9.95191 3.74597 9.95165 3.84559 9.9515C3.99803 9.95112 4.15044 9.94991 4.30286 9.94868C4.3996 9.94843 4.49634 9.94822 4.59308 9.94807C4.6387 9.94759 4.68432 9.94711 4.73132 9.94661C4.77394 9.94673 4.81656 9.94684 4.86048 9.94696C4.91655 9.94675 4.91655 9.94675 4.97375 9.94653C5.09934 9.96383 5.17144 10.0036 5.27332 10.0781C5.36469 10.2151 5.36758 10.2683 5.35145 10.4296C5.26298 10.6106 5.26298 10.6106 5.15613 10.664C5.08379 10.6686 5.01128 10.6706 4.9388 10.6715C4.87054 10.6725 4.87054 10.6725 4.80091 10.6734C4.5927 10.6752 4.38451 10.6768 4.1763 10.6777C4.06637 10.6782 3.95647 10.6793 3.84656 10.6809C3.68834 10.6832 3.53016 10.6839 3.37192 10.6845C3.32276 10.6853 3.27361 10.6862 3.22296 10.6871C2.8436 10.6862 2.8436 10.6862 2.7228 10.5702C2.61908 10.4123 2.62954 10.3424 2.65613 10.1562C2.78947 9.97689 2.92309 9.95612 3.137 9.95459Z" fill="#00DD30"/>
</g>
<defs>
<clipPath id="clip0_82_13446">
<rect width="20" height="20" fill="white"/>
</clipPath>
</defs>
</svg>
