<svg width="20" height="20" viewBox="0 0 20 20" fill="none" xmlns="http://www.w3.org/2000/svg">
<path d="M8.35942 3.43744C8.78369 3.78782 8.99777 4.22431 9.06254 4.76557C9.06802 4.8896 9.06815 5.01346 9.06803 5.1376C9.06815 5.17432 9.06826 5.21104 9.06838 5.24888C9.06872 5.37155 9.06878 5.49421 9.06884 5.61687C9.06902 5.70499 9.06921 5.79311 9.06943 5.88122C9.06994 6.12037 9.07019 6.35952 9.07036 6.59866C9.07048 6.74821 9.07064 6.89775 9.07081 7.04729C9.07129 7.46194 9.07169 7.87659 9.07182 8.29125C9.07184 8.331 9.07184 8.331 9.07185 8.37156C9.07186 8.39813 9.07187 8.42469 9.07188 8.45206C9.07189 8.50588 9.07191 8.55971 9.07193 8.61353C9.07194 8.65358 9.07194 8.65358 9.07195 8.69443C9.07211 9.12665 9.07279 9.55886 9.0737 9.99108C9.07463 10.4356 9.0751 10.8802 9.07516 11.3247C9.0752 11.574 9.07543 11.8233 9.07613 12.0726C9.07677 12.3072 9.07685 12.5418 9.07651 12.7765C9.07648 12.8623 9.07665 12.9481 9.07704 13.034C9.07974 13.6699 9.04393 14.1716 8.71098 14.7265C8.9559 14.7394 9.20082 14.7523 9.45317 14.7656C9.45302 14.708 9.45288 14.6504 9.45273 14.5911C9.44935 13.2251 9.44677 11.859 9.44519 10.4929C9.44499 10.3248 9.44479 10.1567 9.44458 9.98861C9.44454 9.95515 9.4445 9.92168 9.44446 9.8872C9.44378 9.34516 9.44255 8.80311 9.44111 8.26107C9.43965 7.70498 9.43878 7.14889 9.43847 6.59279C9.43825 6.24959 9.43757 5.90639 9.43631 5.56319C9.43548 5.32792 9.43523 5.09265 9.43543 4.85738C9.43553 4.72159 9.43538 4.58581 9.43454 4.45002C9.43377 4.30281 9.43395 4.15563 9.43438 4.00843C9.43392 3.96549 9.43347 3.92255 9.433 3.87831C9.43521 3.59702 9.47411 3.45953 9.67183 3.25602C9.91832 3.05948 10.1245 3.06091 10.4292 3.09441C11.7491 3.26518 12.9526 3.96598 13.7891 4.99994C14.6445 6.11755 15.0109 7.48297 14.8327 8.87629C14.6899 9.8704 14.2963 10.7676 13.6329 11.5234C13.6063 11.5547 13.5797 11.586 13.5523 11.6183C13.407 11.7868 13.2553 11.9363 13.0861 12.0806C12.2752 12.7825 11.9342 13.7288 11.7969 14.7656C11.8321 14.7686 11.8321 14.7686 11.868 14.7716C12.1813 14.8017 12.4263 14.8934 12.6563 15.1171C12.9007 15.4482 12.9704 15.7622 12.9297 16.1718C12.892 16.2988 12.8398 16.409 12.7735 16.5234C12.7509 16.5629 12.7284 16.6023 12.7051 16.643C12.689 16.668 12.6729 16.693 12.6563 16.7187C12.6797 16.7453 12.703 16.7719 12.7271 16.7993C12.96 17.112 12.9711 17.4116 12.9155 17.7925C12.8382 18.0886 12.6231 18.3313 12.3703 18.4968C12.0984 18.6238 11.8178 18.609 11.5235 18.5937C11.5229 18.6202 11.5224 18.6467 11.5218 18.674C11.5012 19.0751 11.3535 19.4132 11.0547 19.6874C10.7916 19.8857 10.5417 19.9727 10.2107 19.9722C10.1819 19.9725 10.1531 19.9728 10.1234 19.973C10.0287 19.9738 9.93406 19.9739 9.83937 19.974C9.77311 19.9743 9.70685 19.9745 9.64059 19.9748C9.50186 19.9753 9.36314 19.9754 9.22441 19.9754C9.04736 19.9753 8.87033 19.9764 8.69328 19.9778C8.55645 19.9786 8.41962 19.9788 8.28279 19.9787C8.21755 19.9788 8.15232 19.9792 8.08708 19.9798C7.43706 19.9853 7.43706 19.9853 7.14848 19.8046C7.12314 19.7899 7.0978 19.7751 7.07169 19.7599C6.80673 19.5996 6.6405 19.3135 6.54133 19.0258C6.50952 18.8822 6.51435 18.7398 6.52348 18.5937C6.48481 18.5951 6.44614 18.5964 6.40629 18.5978C5.9867 18.6084 5.70132 18.5788 5.38395 18.2852C5.15271 18.0193 5.06556 17.7143 5.06962 17.3695C5.09142 17.1044 5.19486 16.8904 5.35161 16.6796C5.33182 16.6506 5.33182 16.6506 5.31163 16.6209C5.1276 16.3406 5.04152 16.0787 5.07817 15.7421C5.15592 15.3988 5.32757 15.117 5.62504 14.9218C5.70245 14.8937 5.78051 14.8673 5.85942 14.8437C5.84013 14.8145 5.82085 14.7853 5.80098 14.7552C5.77595 14.7167 5.75093 14.6783 5.72514 14.6386C5.70022 14.6005 5.67529 14.5625 5.64961 14.5233C5.59545 14.4303 5.56463 14.3625 5.54692 14.2578C5.51897 14.2596 5.49103 14.2614 5.46223 14.2632C4.91724 14.283 4.43608 14.0984 4.01249 13.756C3.614 13.3821 3.33754 12.8589 3.31379 12.3089C3.31322 12.2521 3.31298 12.1954 3.31303 12.1386C3.31301 12.1092 3.31298 12.0798 3.31296 12.0495C3.31496 11.8381 3.3392 11.649 3.39848 11.4453C3.36706 11.438 3.33564 11.4308 3.30327 11.4233C2.85018 11.2405 2.48541 10.8159 2.26567 10.3906C1.99657 9.74306 1.91975 9.02412 2.17904 8.35907C2.41617 7.80089 2.77764 7.35757 3.32036 7.07026C3.34614 7.07026 3.37192 7.07026 3.39848 7.07026C3.38589 7.02564 3.3733 6.98103 3.36033 6.93506C3.22503 6.39024 3.30951 5.79076 3.58159 5.30268C3.93428 4.7657 4.39157 4.42582 5.0179 4.27347C5.1283 4.256 5.23257 4.25397 5.34428 4.25531C5.3824 4.25567 5.42052 4.25602 5.45979 4.25638C5.50292 4.25706 5.50292 4.25706 5.54692 4.25776C5.55779 4.21183 5.55779 4.21183 5.56889 4.16498C5.73136 3.75528 6.028 3.43915 6.42338 3.24945C7.0757 2.97706 7.77102 3.03253 8.35942 3.43744ZM6.28911 4.21869C6.23872 4.32236 6.23872 4.32236 6.21098 4.41401C6.25003 4.43259 6.25003 4.43259 6.28987 4.45154C6.6648 4.64137 7.06621 4.90764 7.22661 5.31244C7.24614 5.45893 7.24614 5.45893 7.22661 5.58588C7.13781 5.69599 7.07612 5.70223 6.93608 5.7226C6.7371 5.69467 6.67013 5.59705 6.55125 5.44214C6.33746 5.17341 6.04496 4.98075 5.70317 4.92182C5.28775 4.88301 4.91414 4.95541 4.57524 5.20746C4.5205 5.2543 4.4667 5.30227 4.41411 5.35151C4.39205 5.37195 4.37 5.39239 4.34727 5.41346C4.03898 5.73427 3.96223 6.11879 3.96992 6.54886C3.98361 6.67236 4.00976 6.76323 4.06254 6.87494C4.11249 6.87333 4.16245 6.87172 4.21391 6.87006C4.67776 6.87151 5.12133 7.01989 5.46711 7.3353C5.66271 7.53553 5.66271 7.53553 5.66899 7.72699C5.60264 7.91498 5.60264 7.91498 5.50786 7.96869C5.34644 7.98522 5.26265 7.98766 5.12608 7.89591C5.09255 7.86434 5.05901 7.83276 5.02446 7.80024C4.77091 7.57994 4.53652 7.4719 4.19697 7.48667C3.71631 7.55358 3.32508 7.79419 3.02983 8.17621C2.74869 8.59043 2.65664 9.03661 2.69536 9.53119C2.79703 10.0349 3.02004 10.4376 3.43754 10.7421C3.54023 10.8024 3.64063 10.8506 3.75004 10.8984C3.77824 10.8605 3.80644 10.8226 3.83549 10.7836C4.09648 10.4794 4.54362 10.1549 4.94801 10.104C5.2063 10.0943 5.2063 10.0943 5.30232 10.1722C5.36261 10.2482 5.38212 10.2937 5.39067 10.3906C5.35364 10.5102 5.3234 10.575 5.23442 10.664C5.16914 10.6886 5.10308 10.7111 5.03666 10.7324C4.65319 10.8687 4.31458 11.095 4.12953 11.4684C3.95279 11.8992 3.92362 12.2974 4.08894 12.7412C4.25443 13.0941 4.51926 13.324 4.856 13.5082C5.04606 13.5694 5.23112 13.5833 5.42973 13.5937C5.43829 13.5578 5.44685 13.522 5.45567 13.4851C5.56112 13.077 5.70478 12.7869 6.05473 12.539C6.25158 12.4449 6.39282 12.4639 6.60161 12.4999C6.61034 12.5552 6.61833 12.6106 6.62602 12.666C6.63055 12.6968 6.63508 12.7276 6.63975 12.7593C6.64083 12.868 6.62363 12.9183 6.56254 13.0078C6.49067 13.0602 6.49067 13.0602 6.40873 13.1054C6.2396 13.2053 6.15675 13.2876 6.09379 13.4765C6.05496 13.8235 6.13926 14.1237 6.3477 14.4042C6.58602 14.6551 6.88896 14.7792 7.23149 14.79C7.58491 14.7732 7.87657 14.6683 8.12504 14.414C8.35595 14.1091 8.41026 13.825 8.40866 13.4505C8.40881 13.4132 8.40896 13.3759 8.40912 13.3375C8.40952 13.2128 8.40936 13.0882 8.40921 12.9635C8.40938 12.874 8.40958 12.7845 8.40981 12.695C8.41034 12.452 8.41036 12.2091 8.41026 11.9662C8.41022 11.7633 8.41041 11.5604 8.4106 11.3575C8.41106 10.8515 8.41102 10.3454 8.41077 9.83937C8.41057 9.40035 8.41101 8.96134 8.41175 8.52232C8.41251 8.07106 8.41282 7.6198 8.41268 7.16853C8.41261 6.91537 8.41272 6.66222 8.41326 6.40906C8.41375 6.17097 8.41367 5.93288 8.41316 5.69478C8.41307 5.6075 8.41318 5.52021 8.4135 5.43293C8.41391 5.31358 8.41359 5.19425 8.4131 5.07489C8.41339 5.04054 8.41367 5.00618 8.41397 4.97079C8.41078 4.60365 8.31263 4.3306 8.05958 4.06305C7.78932 3.82868 7.48617 3.73547 7.13459 3.74216C6.77198 3.76948 6.52686 3.94813 6.28911 4.21869ZM10.0782 3.78901C10.0744 3.84765 10.0733 3.90647 10.0734 3.96524C10.0733 4.00355 10.0732 4.04186 10.0731 4.08134C10.0732 4.12393 10.0734 4.16653 10.0735 4.21042C10.0734 4.25527 10.0734 4.30013 10.0734 4.34635C10.0733 4.47141 10.0734 4.59647 10.0736 4.72153C10.0738 4.85619 10.0737 4.99084 10.0737 5.1255C10.0737 5.35898 10.0738 5.59247 10.074 5.82595C10.0744 6.16353 10.0745 6.50112 10.0745 6.8387C10.0746 7.38635 10.0749 7.934 10.0752 8.48165C10.0756 9.01377 10.0759 9.5459 10.076 10.078C10.076 10.1108 10.076 10.1436 10.0761 10.1773C10.0761 10.3418 10.0762 10.5062 10.0762 10.6706C10.0766 12.0356 10.0773 13.4006 10.0782 14.7656C10.4262 14.7656 10.7743 14.7656 11.1329 14.7656C11.1482 14.6431 11.1635 14.5206 11.1792 14.3945C11.2522 13.8603 11.3965 13.3731 11.6407 12.8906C11.6578 12.8558 11.675 12.8211 11.6927 12.7853C11.9723 12.2446 12.3668 11.8383 12.8011 11.423C13.1928 11.047 13.5224 10.6552 13.7598 10.1611C13.7725 10.1352 13.7851 10.1093 13.7981 10.0827C13.9873 9.68507 14.1265 9.26632 14.1797 8.82807C14.185 8.78632 14.1902 8.74458 14.1956 8.70157C14.2888 7.73247 14.078 6.77924 13.5938 5.93744C13.5712 5.89822 13.5487 5.85899 13.5254 5.81858C12.9132 4.81381 11.9605 4.11155 10.8204 3.82807C10.436 3.71897 10.436 3.71897 10.0782 3.78901ZM5.85942 15.5859C5.76621 15.7212 5.74178 15.7947 5.74467 15.9594C5.79085 16.1287 5.85651 16.2373 6.00612 16.3328C6.11888 16.377 6.21083 16.3771 6.33197 16.3773C6.38082 16.3776 6.42967 16.3779 6.48 16.3782C6.53403 16.3781 6.58806 16.378 6.6421 16.3779C6.69908 16.378 6.75607 16.3782 6.81305 16.3785C6.96777 16.379 7.12249 16.379 7.27721 16.3789C7.40641 16.3789 7.53561 16.3791 7.66482 16.3792C7.96968 16.3797 8.27455 16.3797 8.57941 16.3795C8.89379 16.3792 9.20815 16.3797 9.52253 16.3805C9.79254 16.3812 10.0625 16.3815 10.3326 16.3813C10.4938 16.3813 10.655 16.3814 10.8162 16.3819C10.9679 16.3824 11.1195 16.3823 11.2712 16.3818C11.3267 16.3817 11.3823 16.3818 11.4379 16.3822C11.5139 16.3826 11.59 16.3822 11.666 16.3817C11.7298 16.3818 11.7298 16.3818 11.7948 16.3818C11.9654 16.3608 12.0975 16.3009 12.2193 16.1791C12.2802 16.0669 12.2997 15.9875 12.3047 15.8593C12.2475 15.6816 12.1969 15.5618 12.0313 15.4687C11.9051 15.4266 11.8134 15.4244 11.6806 15.4239C11.6074 15.4235 11.6074 15.4235 11.5328 15.423C11.4786 15.4229 11.4244 15.4228 11.3702 15.4227C11.3133 15.4225 11.2563 15.4222 11.1993 15.4219C11.0121 15.4211 10.8249 15.4207 10.6377 15.4203C10.5732 15.4202 10.5088 15.42 10.4443 15.4198C10.1415 15.4191 9.83874 15.4185 9.53593 15.4182C9.18644 15.4178 8.83695 15.4168 8.48746 15.4152C8.21728 15.414 7.94711 15.4135 7.67694 15.4133C7.51558 15.4132 7.35424 15.4129 7.19289 15.4119C7.04107 15.411 6.88927 15.4108 6.73745 15.4112C6.6818 15.4113 6.62615 15.411 6.5705 15.4105C6.18035 15.3969 6.18035 15.3969 5.85942 15.5859ZM5.85942 17.1484C5.75726 17.3069 5.71484 17.4293 5.74223 17.6171C5.82192 17.76 5.87911 17.8386 6.01567 17.9296C6.16019 17.9682 6.29705 17.9738 6.44617 17.9742C6.49338 17.9744 6.54058 17.9746 6.58921 17.9749C6.64068 17.9749 6.69215 17.9749 6.74517 17.975C6.80018 17.9752 6.85518 17.9754 6.91018 17.9756C7.05933 17.9761 7.20848 17.9763 7.35763 17.9765C7.45088 17.9766 7.54414 17.9768 7.63739 17.977C7.92936 17.9775 8.22134 17.9779 8.51331 17.978C8.84999 17.9782 9.18665 17.9789 9.52332 17.98C9.78384 17.9809 10.0444 17.9813 10.3049 17.9813C10.4604 17.9813 10.6158 17.9816 10.7713 17.9823C10.9176 17.9829 11.0638 17.983 11.2101 17.9827C11.2891 17.9826 11.3681 17.9832 11.4472 17.9837C11.7498 17.9823 11.9691 17.9738 12.2046 17.7685C12.2899 17.6116 12.3022 17.4794 12.2657 17.3046C12.1982 17.1849 12.1171 17.0936 11.9922 17.0312C11.9145 17.0273 11.8366 17.0259 11.7587 17.0257C11.6841 17.0254 11.6841 17.0254 11.6079 17.025C11.5524 17.025 11.4969 17.0249 11.4414 17.0249C11.3832 17.0247 11.325 17.0245 11.2668 17.0243C11.1085 17.0238 10.9501 17.0235 10.7918 17.0234C10.6929 17.0233 10.594 17.0231 10.4951 17.0229C10.1858 17.0224 9.87644 17.022 9.56711 17.0219C9.20985 17.0217 8.8526 17.021 8.49535 17.0199C8.21934 17.019 7.94333 17.0186 7.66731 17.0186C7.5024 17.0185 7.3375 17.0183 7.17259 17.0176C7.01744 17.017 6.8623 17.0169 6.70715 17.0172C6.65023 17.0173 6.5933 17.0171 6.53638 17.0167C6.45862 17.0162 6.38086 17.0165 6.3031 17.0168C6.2596 17.0168 6.2161 17.0167 6.17127 17.0167C6.03847 17.0332 5.96615 17.0688 5.85942 17.1484ZM7.14848 18.5937C7.1949 18.883 7.1949 18.883 7.32914 19.0966C7.34657 19.1175 7.36399 19.1383 7.38194 19.1598C7.6703 19.3747 7.99793 19.3532 8.34126 19.3514C8.39621 19.3515 8.45116 19.3516 8.50611 19.3518C8.62079 19.352 8.73547 19.3517 8.85015 19.3512C8.99655 19.3505 9.14293 19.3509 9.28934 19.3516C9.40264 19.352 9.51594 19.3519 9.62925 19.3516C9.68321 19.3515 9.73717 19.3516 9.79113 19.3519C10.2589 19.3542 10.2589 19.3542 10.6543 19.1284C10.8065 18.9467 10.8594 18.8331 10.8594 18.5937C9.63481 18.5937 8.4102 18.5937 7.14848 18.5937Z" fill="#827700"/>
<path d="M11.2099 4.51736C11.2879 4.55239 11.3628 4.59065 11.438 4.63147C11.4652 4.64578 11.4924 4.66009 11.5204 4.67484C11.6001 4.71729 11.679 4.76081 11.7578 4.80481C11.7968 4.82631 11.8358 4.84781 11.8759 4.86996C12.7389 5.38246 13.3159 6.25207 13.5648 7.21341C13.7631 8.10594 13.7631 8.10594 13.6084 8.40344C13.4936 8.49405 13.4274 8.51574 13.2812 8.51574C13.1434 8.45308 13.0927 8.40865 13.0078 8.28137C12.9935 8.17272 12.9825 8.06574 12.9736 7.95666C12.894 7.15716 12.588 6.41275 11.9922 5.85949C11.9688 5.83633 11.9454 5.81317 11.9212 5.7893C11.5916 5.47607 11.1902 5.26951 10.777 5.08618C10.6862 5.02844 10.6602 4.98379 10.625 4.88293C10.63 4.74058 10.6344 4.64632 10.7251 4.53381C10.882 4.46541 11.048 4.46476 11.2099 4.51736Z" fill="#827700"/>
<path d="M15.7355 7.87039C15.7804 7.8699 15.8252 7.8694 15.8714 7.8689C15.9195 7.86921 15.9675 7.86953 16.0171 7.86985C16.0667 7.86971 16.1163 7.86956 16.1675 7.8694C16.2723 7.8693 16.3772 7.8695 16.482 7.87024C16.6162 7.87113 16.7504 7.87061 16.8846 7.86968C17.0129 7.86898 17.1412 7.86947 17.2695 7.86985C17.3176 7.86954 17.3658 7.86922 17.4154 7.8689C17.4601 7.86939 17.5048 7.86988 17.5509 7.87039C17.5902 7.87051 17.6295 7.87064 17.67 7.87077C17.8023 7.89613 17.848 7.9416 17.9297 8.04686C17.9634 8.1813 17.9817 8.27681 17.942 8.41063C17.8785 8.49222 17.8304 8.51608 17.7344 8.55467C17.6324 8.56512 17.6324 8.56512 17.5154 8.56602C17.4715 8.56652 17.4275 8.56701 17.3823 8.56753C17.335 8.56762 17.2877 8.5677 17.239 8.56779C17.1659 8.56818 17.1659 8.56818 17.0913 8.56858C16.9882 8.56898 16.8852 8.56919 16.7821 8.56915C16.6503 8.56914 16.5185 8.57021 16.3867 8.57155C16.2607 8.57263 16.1346 8.57258 16.0085 8.57267C15.9613 8.57324 15.9141 8.5738 15.8655 8.57438C15.8214 8.57414 15.7774 8.5739 15.732 8.57365C15.6933 8.57376 15.6547 8.57387 15.6148 8.57398C15.4778 8.54925 15.4117 8.49418 15.3126 8.39842C15.2866 8.31175 15.2866 8.31175 15.2881 8.22264C15.2876 8.19323 15.2871 8.16382 15.2866 8.13353C15.3501 7.92134 15.5345 7.87102 15.7355 7.87039Z" fill="#827700"/>
<path d="M15.5077 2.34372C15.6029 2.42429 15.6029 2.42429 15.664 2.53903C15.6713 2.75768 15.6308 2.86298 15.4849 3.02623C15.4232 3.08953 15.3606 3.15206 15.2974 3.21393C15.2643 3.24721 15.2312 3.28049 15.1971 3.31477C15.1271 3.3848 15.0567 3.45448 14.9861 3.52384C14.8781 3.63005 14.7716 3.73754 14.6651 3.84526C14.5968 3.91322 14.5285 3.9811 14.46 4.04889C14.4282 4.08103 14.3965 4.11317 14.3637 4.14629C14.113 4.38983 14.113 4.38983 13.9492 4.41747C13.8038 4.41334 13.7416 4.39334 13.6327 4.29684C13.5701 4.17169 13.5424 4.10297 13.5831 3.96727C13.6368 3.85886 13.6941 3.7911 13.7796 3.70576C13.8097 3.6754 13.8398 3.64504 13.8708 3.61376C13.9196 3.56547 13.9196 3.56547 13.9695 3.5162C14.0029 3.48276 14.0363 3.44931 14.0708 3.41485C14.1414 3.34432 14.2121 3.27394 14.283 3.20368C14.3918 3.09587 14.5 2.98755 14.6081 2.87915C14.6768 2.81071 14.7455 2.7423 14.8142 2.67392C14.8467 2.64141 14.8791 2.6089 14.9126 2.57541C14.9428 2.54554 14.9731 2.51567 15.0042 2.4849C15.0308 2.45851 15.0574 2.43212 15.0847 2.40494C15.2243 2.28532 15.3383 2.29532 15.5077 2.34372Z" fill="#827700"/>
<path d="M14.0234 12.0312C14.0933 12.0829 14.0933 12.0829 14.1682 12.1507C14.1957 12.1756 14.2232 12.2005 14.2515 12.2261C14.4745 12.4335 14.6916 12.6468 14.9081 12.861C14.968 12.92 15.0281 12.9788 15.0885 13.0373C15.1763 13.1225 15.2633 13.2085 15.3502 13.2946C15.3772 13.3205 15.4042 13.3465 15.4321 13.3732C15.5557 13.4974 15.6185 13.5694 15.6649 13.7421C15.6639 13.8866 15.636 13.9501 15.5469 14.0624C15.4195 14.1261 15.3368 14.1197 15.1953 14.1015C15.1231 14.0504 15.1231 14.0504 15.049 13.9824C15.0218 13.9575 14.9945 13.9326 14.9664 13.9069C14.8334 13.7814 14.7017 13.6548 14.5717 13.5262C14.5436 13.4985 14.5155 13.4707 14.4866 13.4421C14.4279 13.3839 14.3692 13.3257 14.3106 13.2674C14.2507 13.2079 14.1906 13.1486 14.1303 13.0894C14.0427 13.0035 13.9556 12.917 13.8686 12.8304C13.828 12.7909 13.828 12.7909 13.7867 12.7506C13.7619 12.7257 13.7371 12.7008 13.7116 12.6751C13.6897 12.6535 13.6678 12.6319 13.6453 12.6096C13.5808 12.5213 13.5665 12.4516 13.5547 12.3437C13.585 12.2279 13.6181 12.1636 13.7012 12.0776C13.8257 12.0118 13.8836 12.0043 14.0234 12.0312Z" fill="#827700"/>
<path d="M9.74385 0.0220642C9.77361 0.0213089 9.80337 0.0205536 9.83403 0.0197754C9.95691 0.0468215 9.99964 0.0983508 10.0783 0.195404C10.0979 0.300637 10.0979 0.300637 10.0979 0.422226C10.0983 0.467851 10.0987 0.513477 10.099 0.560485C10.0986 0.6096 10.0982 0.658716 10.0977 0.70932C10.0978 0.759883 10.0978 0.810447 10.0979 0.862542C10.0979 0.969462 10.0974 1.07636 10.0965 1.18328C10.0954 1.32015 10.0955 1.45699 10.096 1.59387C10.0964 1.72464 10.0958 1.8554 10.0953 1.98618C10.0954 2.03529 10.0955 2.08441 10.0956 2.13501C10.0949 2.20345 10.0949 2.20345 10.0941 2.27327C10.0939 2.31339 10.0937 2.35352 10.0935 2.39486C10.076 2.51642 10.0473 2.56969 9.96113 2.65634C9.80466 2.69981 9.72335 2.71246 9.57539 2.64169C9.49238 2.57822 9.49238 2.57822 9.45332 2.53915C9.44904 2.46548 9.4475 2.39164 9.44703 2.31784C9.44665 2.27052 9.44628 2.2232 9.44589 2.17444C9.44572 2.12288 9.44556 2.07133 9.44539 2.01822C9.44516 1.96513 9.44494 1.91205 9.44471 1.85896C9.4443 1.7475 9.44407 1.63605 9.44394 1.5246C9.44372 1.38172 9.44278 1.23886 9.44167 1.09598C9.44094 0.986269 9.44074 0.876558 9.44068 0.766841C9.4405 0.688531 9.43978 0.610222 9.43904 0.531914C9.43916 0.484343 9.43928 0.436772 9.4394 0.38776C9.43925 0.345808 9.43911 0.303855 9.43896 0.260632C9.45332 0.156342 9.45332 0.156342 9.50761 0.0843427C9.58978 0.0253077 9.64325 0.0222339 9.74385 0.0220642Z" fill="#827700"/>
</svg>
