<svg width="20" height="20" viewBox="0 0 20 20" fill="none" xmlns="http://www.w3.org/2000/svg">
<g clip-path="url(#clip0_82_13561)">
<path d="M9.9855 -0.0123029C10.0253 -0.0122187 10.065 -0.0121345 10.106 -0.0120478C10.6767 -0.0101075 11.2365 -0.000306856 11.797 0.117092C11.8351 0.124852 11.8732 0.132613 11.9124 0.140609C13.8023 0.535946 15.5206 1.39206 16.9142 2.73428C16.9528 2.77132 16.9528 2.77132 16.9923 2.8091C17.3629 3.16631 17.7043 3.52949 18.008 3.94522C18.0415 3.99018 18.075 4.03514 18.1085 4.0801C18.3444 4.40007 18.5537 4.73264 18.7501 5.07803C18.7644 5.10271 18.7786 5.12739 18.7933 5.15282C19.6373 6.62736 20.0188 8.29793 20.0124 9.98526C20.0123 10.025 20.0122 10.0648 20.0121 10.1057C20.0102 10.6764 20.0004 11.2363 19.883 11.7968C19.8713 11.8539 19.8713 11.8539 19.8594 11.9122C19.4641 13.8021 18.608 15.5204 17.2658 16.914C17.2411 16.9397 17.2164 16.9655 17.1909 16.992C16.8337 17.3626 16.4706 17.7041 16.0548 18.0077C16.0099 18.0412 15.9649 18.0748 15.9199 18.1083C15.6 18.3441 15.2679 18.5544 14.922 18.7499C14.8944 18.7656 14.8668 18.7813 14.8383 18.7975C13.9346 19.3063 12.9513 19.6481 11.9362 19.8559C11.9081 19.8616 11.88 19.8674 11.8511 19.8733C11.2778 19.9823 10.7104 20.0135 10.128 20.0122C10.0132 20.0121 9.89837 20.013 9.78355 20.014C9.26116 20.0158 8.75741 19.9687 8.24234 19.8827C8.17571 19.8717 8.17571 19.8717 8.10774 19.8604C6.41761 19.5569 4.8141 18.7761 3.51577 17.6562C3.48667 17.6314 3.45756 17.6066 3.42758 17.5811C2.90004 17.1197 2.40506 16.6216 1.99234 16.0546C1.95888 16.0097 1.92541 15.9648 1.89193 15.9199C1.65599 15.5999 1.44571 15.2677 1.25015 14.9218C1.23444 14.8942 1.21873 14.8665 1.20254 14.8381C0.693735 13.9343 0.351984 12.9511 0.144191 11.9359C0.138435 11.9079 0.132679 11.8798 0.126749 11.8508C0.0105822 11.2397 -0.0144222 10.6352 -0.0120587 10.0146C-0.0119746 9.97479 -0.0118904 9.93503 -0.0118036 9.89406C-0.00986337 9.32339 -6.27153e-05 8.76355 0.117336 8.20303C0.125097 8.16495 0.132857 8.12687 0.140853 8.08764C0.53619 6.19772 1.3923 4.47942 2.73452 3.08584C2.75922 3.06009 2.78391 3.03433 2.80935 3.00779C3.16655 2.63716 3.52973 2.29576 3.94546 1.99209C3.99042 1.95857 4.03539 1.92506 4.08035 1.89154C4.40026 1.65569 4.73239 1.44543 5.07827 1.2499C5.1059 1.23419 5.13352 1.21848 5.16199 1.2023C6.06571 0.693491 7.04896 0.351739 8.06411 0.143947C8.0922 0.138191 8.12028 0.132435 8.14921 0.126504C8.76039 0.0103381 9.36482 -0.0146663 9.9855 -0.0123029Z" fill="#F8BE28"/>
<path d="M7.10374 4.36509C7.12925 4.36497 7.15476 4.36484 7.18104 4.36472C7.26575 4.36441 7.35044 4.36465 7.43515 4.3649C7.49619 4.36479 7.55724 4.36465 7.61828 4.36448C7.78358 4.36413 7.94887 4.36427 8.11416 4.36451C8.28749 4.36471 8.46083 4.36453 8.63417 4.36441C8.9253 4.36426 9.21643 4.36445 9.50756 4.36482C9.84357 4.36525 10.1796 4.36511 10.5156 4.36468C10.8046 4.36433 11.0936 4.36428 11.3825 4.36448C11.5549 4.3646 11.7273 4.36462 11.8997 4.36436C12.0618 4.36413 12.224 4.36429 12.3862 4.36474C12.4455 4.36485 12.5048 4.36482 12.5641 4.36464C13.1387 4.36312 13.7105 4.44394 14.1431 4.86329C14.1825 4.9079 14.2208 4.95345 14.2578 5.00001C14.2757 5.02121 14.2935 5.04241 14.3118 5.06425C14.574 5.39944 14.6543 5.77714 14.6542 6.19384C14.6543 6.22747 14.6545 6.26109 14.6546 6.29574C14.6551 6.40839 14.6552 6.52104 14.6554 6.63369C14.6556 6.71448 14.6559 6.79528 14.6561 6.87607C14.657 7.14142 14.6574 7.40677 14.6578 7.67213C14.6579 7.76359 14.6581 7.85506 14.6582 7.94652C14.659 8.37636 14.6595 8.8062 14.6599 9.23604C14.6603 9.73159 14.6613 10.2271 14.6629 10.7227C14.664 11.1061 14.6646 11.4895 14.6647 11.8729C14.6648 12.1017 14.6652 12.3305 14.6662 12.5593C14.6671 12.7747 14.6672 12.9902 14.6668 13.2056C14.6668 13.2844 14.6671 13.3632 14.6676 13.442C14.6716 14.0554 14.626 14.5474 14.2188 15.0391C14.1992 15.0639 14.1797 15.0887 14.1596 15.1143C13.9283 15.3777 13.5477 15.5713 13.2031 15.625C13.1162 15.6287 13.0291 15.6303 12.942 15.6305C12.9034 15.6307 12.9034 15.6307 12.8641 15.6308C12.7781 15.6312 12.6922 15.6312 12.6063 15.6313C12.5445 15.6315 12.4828 15.6317 12.421 15.6319C12.2535 15.6324 12.0859 15.6327 11.9184 15.6328C11.8136 15.6329 11.7088 15.6331 11.604 15.6333C11.2758 15.6338 10.9476 15.6342 10.6194 15.6343C10.2411 15.6345 9.86286 15.6352 9.48461 15.6363C9.19184 15.6372 8.89907 15.6376 8.6063 15.6376C8.43163 15.6377 8.25696 15.6379 8.08229 15.6386C7.91784 15.6392 7.7534 15.6393 7.58895 15.639C7.52883 15.6389 7.46871 15.6391 7.40859 15.6395C6.79255 15.6432 6.32022 15.5138 5.86214 15.0868C5.39525 14.5856 5.36755 13.9851 5.37042 13.3389C5.37021 13.2584 5.36993 13.178 5.36959 13.0975C5.36888 12.8802 5.36916 12.6628 5.36965 12.4455C5.37005 12.2173 5.36968 11.9892 5.36944 11.761C5.36915 11.3779 5.36953 10.9948 5.37027 10.6117C5.37112 10.1698 5.37085 9.72781 5.36999 9.28585C5.36928 8.90542 5.36918 8.525 5.36959 8.14458C5.36983 7.9178 5.36986 7.69101 5.36935 7.46423C5.36889 7.25091 5.36921 7.03761 5.37011 6.82429C5.37032 6.74633 5.37026 6.66837 5.36991 6.59041C5.3673 5.94196 5.43475 5.38492 5.89235 4.88175C6.22668 4.56867 6.64278 4.36539 7.10374 4.36509Z" fill="#FEFEFD"/>
<path d="M7.29964 5.7364C7.34854 5.73612 7.39744 5.73584 7.44782 5.73555C7.50233 5.73544 7.55683 5.73533 7.61133 5.73523C7.6685 5.73499 7.72566 5.73473 7.78283 5.73445C7.97095 5.73363 8.15906 5.73323 8.34717 5.73284C8.41196 5.73268 8.47674 5.73252 8.54152 5.73235C8.84601 5.73161 9.1505 5.73105 9.45499 5.73073C9.80619 5.73035 10.1574 5.72932 10.5086 5.72774C10.7801 5.72656 11.0517 5.72598 11.3233 5.72585C11.4854 5.72576 11.6475 5.72542 11.8096 5.72443C11.9623 5.72352 12.115 5.72336 12.2678 5.72376C12.3236 5.72378 12.3795 5.72353 12.4353 5.72299C12.7877 5.71979 13.0871 5.73493 13.3653 5.96935C13.3827 5.99186 13.4 6.01436 13.4178 6.03756C13.436 6.06016 13.4541 6.08277 13.4728 6.10607C13.5783 6.26858 13.5622 6.44498 13.5638 6.63127C13.5642 6.66505 13.5645 6.69882 13.5648 6.73362C13.5653 6.80517 13.5658 6.87672 13.5661 6.94827C13.5665 7.02112 13.5673 7.09397 13.5685 7.16681C13.5701 7.27232 13.5708 7.3778 13.5712 7.48333C13.5719 7.51552 13.5725 7.54772 13.5732 7.58089C13.5723 7.8287 13.5146 8.03805 13.3431 8.22375C13.1491 8.39497 12.9779 8.44713 12.7233 8.4479C12.6738 8.44824 12.6244 8.44857 12.5735 8.44891C12.5189 8.44889 12.4644 8.44885 12.4099 8.44881C12.3523 8.44904 12.2947 8.44931 12.237 8.4496C12.0807 8.45029 11.9244 8.45047 11.768 8.45052C11.6703 8.45058 11.5725 8.45075 11.4748 8.45095C11.1335 8.45168 10.7922 8.452 10.451 8.45193C10.1332 8.45189 9.81551 8.45271 9.49779 8.45395C9.22469 8.45497 8.9516 8.45539 8.6785 8.45534C8.51553 8.45532 8.35257 8.45554 8.1896 8.45637C8.03624 8.45712 7.8829 8.45713 7.72954 8.45656C7.67342 8.45648 7.6173 8.45666 7.56118 8.45713C7.25096 8.45958 7.02109 8.45325 6.75767 8.28121C6.67725 8.20171 6.67725 8.20171 6.62339 8.12252C6.59567 8.08316 6.59567 8.08316 6.56739 8.04302C6.42356 7.80066 6.47079 7.46872 6.46841 7.19442C6.46757 7.12183 6.46624 7.04925 6.4644 6.97668C6.4462 6.24938 6.4462 6.24938 6.65363 5.99592C6.75946 5.9007 6.86257 5.84096 6.99204 5.78121C7.09794 5.72826 7.18103 5.73686 7.29964 5.7364Z" fill="#E4941E"/>
<path d="M6.99115 12.2801C7.03556 12.2799 7.03556 12.2799 7.08086 12.2798C7.14324 12.2798 7.20563 12.2803 7.268 12.2813C7.36319 12.2826 7.45824 12.2821 7.55343 12.2813C7.61422 12.2816 7.675 12.282 7.73578 12.2825C7.76406 12.2823 7.79235 12.2821 7.82149 12.2819C8.01112 12.2863 8.10921 12.3261 8.24237 12.4609C8.30127 12.5787 8.28941 12.701 8.29074 12.8303C8.29105 12.8592 8.29137 12.8881 8.29169 12.9179C8.29223 12.9791 8.29265 13.0404 8.29296 13.1016C8.29363 13.195 8.29535 13.2883 8.29707 13.3817C8.29747 13.4412 8.2978 13.5007 8.29806 13.5603C8.29875 13.5881 8.29943 13.6159 8.30014 13.6445C8.29952 13.786 8.28495 13.8617 8.20715 13.9815C8.0639 14.1229 7.93737 14.1083 7.74585 14.1094C7.71598 14.1097 7.68612 14.1099 7.65535 14.1101C7.59211 14.1105 7.52886 14.1107 7.46562 14.1109C7.36899 14.1113 7.2724 14.1125 7.17578 14.1137C7.11434 14.114 7.0529 14.1142 6.99145 14.1143C6.94817 14.115 6.94817 14.115 6.90402 14.1158C6.78092 14.1152 6.69368 14.1091 6.58471 14.0494C6.41392 13.8674 6.47263 13.5216 6.47088 13.2849C6.47023 13.2207 6.46917 13.1565 6.46768 13.0924C6.46553 12.9995 6.46468 12.9068 6.46411 12.814C6.46322 12.7854 6.46234 12.7569 6.46143 12.7275C6.46203 12.5818 6.48098 12.5051 6.56404 12.3842C6.70821 12.2851 6.82201 12.277 6.99115 12.2801Z" fill="#E89D21"/>
<path d="M12.3033 12.2801C12.3477 12.2799 12.3477 12.2799 12.393 12.2798C12.4554 12.2798 12.5177 12.2803 12.5801 12.2813C12.6753 12.2826 12.7704 12.2821 12.8655 12.2813C12.9263 12.2816 12.9871 12.282 13.0479 12.2825C13.0762 12.2823 13.1045 12.2821 13.1336 12.2819C13.2656 12.285 13.3568 12.3034 13.4747 12.3638C13.5853 12.4984 13.5826 12.6186 13.5804 12.7854C13.5806 12.8168 13.5808 12.8482 13.581 12.8806C13.5811 12.9469 13.5808 13.0131 13.5799 13.0794C13.5789 13.1806 13.5799 13.2817 13.5812 13.3829C13.5811 13.4474 13.5808 13.5119 13.5804 13.5764C13.5808 13.6066 13.5812 13.6367 13.5816 13.6677C13.5784 13.8163 13.5591 13.8994 13.4747 14.0228C13.3308 14.1208 13.2163 14.1298 13.0479 14.1274C13.0183 14.1276 12.9887 14.1278 12.9582 14.128C12.8958 14.1281 12.8334 14.1278 12.771 14.127C12.6758 14.1259 12.5808 14.1269 12.4856 14.1282C12.4248 14.1281 12.364 14.1278 12.3033 14.1274C12.2608 14.128 12.2608 14.128 12.2175 14.1286C12.0736 14.1253 11.9959 14.1042 11.8765 14.0222C11.7759 13.876 11.7684 13.7581 11.7707 13.5864C11.7705 13.5559 11.7704 13.5254 11.7702 13.494C11.77 13.4298 11.7704 13.3656 11.7712 13.3014C11.7723 13.2033 11.7712 13.1055 11.77 13.0074C11.7701 12.9449 11.7703 12.8823 11.7707 12.8198C11.7703 12.7906 11.7699 12.7615 11.7695 12.7315C11.7728 12.5851 11.7931 12.5052 11.8765 12.3838C12.0205 12.2851 12.1344 12.277 12.3033 12.2801Z" fill="#F0A522"/>
<path d="M9.64701 12.2801C9.69142 12.2799 9.69142 12.2799 9.73673 12.2798C9.79911 12.2798 9.86149 12.2803 9.92386 12.2813C10.0191 12.2826 10.1141 12.2821 10.2093 12.2813C10.2701 12.2816 10.3309 12.282 10.3916 12.2825C10.4199 12.2823 10.4482 12.2821 10.4774 12.2819C10.609 12.285 10.7007 12.3035 10.8184 12.3632C10.9306 12.5004 10.9263 12.6256 10.9242 12.7953C10.9244 12.8277 10.9245 12.8601 10.9247 12.8934C10.9249 12.9617 10.9245 13.03 10.9237 13.0983C10.9226 13.2027 10.9237 13.307 10.9249 13.4115C10.9248 13.4779 10.9246 13.5443 10.9242 13.6108C10.9246 13.6419 10.925 13.6731 10.9254 13.7052C10.9223 13.8497 10.911 13.9297 10.8184 14.0429C10.6742 14.116 10.5499 14.1247 10.3916 14.1236C10.362 14.1239 10.3324 14.1241 10.3019 14.1244C10.2395 14.1246 10.1772 14.1245 10.1148 14.124C10.0196 14.1235 9.92454 14.1248 9.82935 14.1263C9.76857 14.1263 9.70779 14.1263 9.64701 14.1261C9.61873 14.1266 9.59044 14.1271 9.5613 14.1276C9.41715 14.125 9.33985 14.1043 9.22024 14.0223C9.11966 13.876 9.11215 13.7581 9.11448 13.5864C9.11429 13.5559 9.11411 13.5254 9.11391 13.494C9.11378 13.4298 9.11414 13.3656 9.11496 13.3014C9.116 13.2033 9.11497 13.1055 9.11372 13.0074C9.11385 12.9449 9.1141 12.8823 9.11448 12.8198C9.11408 12.7906 9.11369 12.7615 9.11328 12.7315C9.11656 12.5851 9.13681 12.5052 9.22024 12.3838C9.36423 12.2851 9.47817 12.277 9.64701 12.2801Z" fill="#ECA121"/>
<path d="M6.96533 9.62633C7.01242 9.62596 7.01242 9.62596 7.06047 9.62559C7.12676 9.62531 7.19305 9.62544 7.25934 9.62593C7.36054 9.62648 7.4616 9.62515 7.56279 9.62365C7.62731 9.62362 7.69183 9.62369 7.75634 9.62388C7.80152 9.62311 7.80152 9.62311 7.84761 9.62231C7.9968 9.62488 8.07909 9.64364 8.2029 9.72872C8.29964 9.8705 8.30847 9.98054 8.30459 10.1465C8.30459 10.1752 8.3046 10.204 8.3046 10.2336C8.30439 10.2941 8.3037 10.3547 8.30257 10.4152C8.30094 10.5076 8.30097 10.5998 8.30124 10.6922C8.30083 10.7512 8.30032 10.8102 8.29971 10.8692C8.2997 10.8966 8.29969 10.924 8.29969 10.9523C8.29561 11.1223 8.26822 11.2317 8.16421 11.3672C8.04176 11.4284 7.91081 11.4135 7.77633 11.4142C7.73024 11.4145 7.73024 11.4145 7.68321 11.4149C7.61813 11.4152 7.55304 11.4155 7.48796 11.4156C7.38851 11.416 7.28908 11.4172 7.18963 11.4185C7.12641 11.4187 7.06319 11.4189 6.99997 11.4191C6.97026 11.4196 6.94055 11.42 6.90994 11.4205C6.78495 11.42 6.69498 11.4145 6.58415 11.3542C6.45574 11.2161 6.47699 11.0441 6.47522 10.8669C6.4749 10.8371 6.47459 10.8072 6.47426 10.7765C6.47372 10.7135 6.4733 10.6505 6.47299 10.5875C6.47232 10.4912 6.47061 10.395 6.46888 10.2987C6.46849 10.2374 6.46816 10.1762 6.46789 10.1149C6.46721 10.0862 6.46652 10.0574 6.46582 10.0278C6.46636 9.90116 6.47674 9.81741 6.5434 9.70857C6.68081 9.62373 6.80856 9.62532 6.96533 9.62633Z" fill="#E5961E"/>
<path d="M12.2793 9.62767C12.3108 9.62752 12.3423 9.62737 12.3747 9.62721C12.4412 9.62711 12.5076 9.6274 12.5741 9.62805C12.6757 9.62889 12.7772 9.62806 12.8788 9.62706C12.9434 9.62716 13.0081 9.62736 13.0727 9.62767C13.1182 9.62719 13.1182 9.62719 13.1646 9.62671C13.2944 9.62896 13.384 9.63951 13.4958 9.70747C13.5796 9.84526 13.578 9.97392 13.577 10.1306C13.5774 10.1778 13.5774 10.1778 13.5778 10.226C13.578 10.2925 13.5779 10.3589 13.5774 10.4254C13.5769 10.527 13.5782 10.6285 13.5797 10.7301C13.5797 10.7948 13.5797 10.8594 13.5795 10.9241C13.58 10.9544 13.5805 10.9847 13.581 11.0159C13.5786 11.1583 13.5667 11.2355 13.4758 11.3472C13.3283 11.4221 13.2002 11.4287 13.0384 11.427C13.0078 11.4271 12.9773 11.4273 12.9458 11.4274C12.8814 11.4275 12.817 11.4273 12.7526 11.4266C12.6542 11.4258 12.5559 11.4266 12.4574 11.4276C12.3947 11.4275 12.332 11.4273 12.2694 11.427C12.24 11.4273 12.2107 11.4276 12.1804 11.4279C12.0529 11.4257 11.9664 11.4142 11.8568 11.3472C11.7722 11.2094 11.7747 11.081 11.7763 10.9241C11.7762 10.8926 11.7761 10.8611 11.7759 10.8286C11.7758 10.7622 11.7761 10.6957 11.7767 10.6293C11.7776 10.5277 11.7767 10.4261 11.7757 10.3245C11.7758 10.2599 11.776 10.1952 11.7763 10.1306C11.776 10.1003 11.7757 10.07 11.7754 10.0387C11.7776 9.90894 11.7882 9.81929 11.8562 9.70747C11.9941 9.62368 12.1226 9.62603 12.2793 9.62767Z" fill="#ECA01F"/>
<path d="M9.62303 9.62767C9.65452 9.62752 9.68601 9.62737 9.71845 9.62721C9.7849 9.62711 9.85136 9.6274 9.91781 9.62805C10.0194 9.62889 10.1209 9.62806 10.2225 9.62706C10.2872 9.62716 10.3518 9.62736 10.4165 9.62767C10.462 9.62719 10.462 9.62719 10.5084 9.62671C10.6381 9.62896 10.7278 9.63954 10.8396 9.70747C10.9234 9.84539 10.9211 9.9739 10.9194 10.1306C10.9196 10.1621 10.9197 10.1936 10.9199 10.226C10.92 10.2925 10.9197 10.3589 10.919 10.4254C10.9182 10.527 10.919 10.6285 10.92 10.7301C10.9199 10.7948 10.9197 10.8594 10.9194 10.9241C10.9197 10.9544 10.92 10.9847 10.9204 11.0159C10.9181 11.1457 10.9076 11.2353 10.8396 11.3471C10.7018 11.4309 10.5732 11.4294 10.4165 11.4284C10.3693 11.4287 10.3693 11.4287 10.3211 11.4291C10.2546 11.4294 10.1882 11.4292 10.1217 11.4287C10.0201 11.4282 9.91859 11.4295 9.81697 11.431C9.75232 11.4311 9.68767 11.431 9.62303 11.4308C9.59271 11.4313 9.56239 11.4318 9.53116 11.4324C9.38878 11.4299 9.31154 11.418 9.1999 11.3271C9.12497 11.1797 9.11835 11.0515 9.1201 10.8897C9.11995 10.8592 9.1198 10.8286 9.11965 10.7971C9.11954 10.7327 9.11983 10.6683 9.12048 10.604C9.12132 10.5055 9.12049 10.4072 9.11949 10.3087C9.11959 10.2461 9.11979 10.1834 9.1201 10.1207C9.11978 10.0913 9.11947 10.062 9.11914 10.0318C9.12142 9.90421 9.13287 9.81772 9.1999 9.70809C9.33772 9.62348 9.46607 9.62603 9.62303 9.62767Z" fill="#E89B1E"/>
</g>
<defs>
<clipPath id="clip0_82_13561">
<rect width="20" height="20" fill="white"/>
</clipPath>
</defs>
</svg>
