<svg width="20" height="20" viewBox="0 0 20 20" fill="none" xmlns="http://www.w3.org/2000/svg">
<g clip-path="url(#clip0_82_13391)">
<path d="M19.336 -0.000117812C19.3377 1.74025 19.3391 3.48061 19.3399 5.22098C19.34 5.42666 19.3401 5.63235 19.3402 5.83804C19.3403 5.89946 19.3403 5.89946 19.3403 5.96212C19.3407 6.62424 19.3413 7.28635 19.342 7.94847C19.3427 8.62838 19.3431 9.30829 19.3433 9.9882C19.3434 10.4074 19.3438 10.8266 19.3444 11.2458C19.3448 11.5336 19.3449 11.8215 19.3448 12.1093C19.3448 12.2752 19.3448 12.441 19.3453 12.6068C19.3457 12.7591 19.3457 12.9114 19.3454 13.0637C19.3454 13.1183 19.3455 13.1729 19.3457 13.2276C19.3502 14.2725 19.139 15.1466 18.4766 15.9764C18.4513 16.0097 18.4259 16.0429 18.3998 16.0772C17.8754 16.7012 17.0107 17.0953 16.211 17.1874C15.1556 17.2456 14.2033 16.9844 13.3978 16.2798C12.6892 15.6327 12.3167 14.7382 12.2583 13.7867C12.2377 12.8166 12.5823 11.9284 13.236 11.2181C13.8295 10.6038 14.6809 10.1749 15.5419 10.1482C16.5227 10.1344 17.3044 10.3685 18.086 10.9764C18.0988 9.1202 18.1117 7.26395 18.125 5.35145C16.3483 5.79841 16.3483 5.79841 14.5717 6.24607C14.5453 6.25274 14.5188 6.2594 14.4916 6.26627C13.7018 6.46553 12.9123 6.66579 12.1235 6.86902C12.0958 6.87615 12.0681 6.88328 12.0396 6.89063C11.8947 6.92796 11.7498 6.96531 11.605 7.00272C10.7737 7.21737 9.94141 7.42786 9.10835 7.63554C8.95678 7.67334 8.80522 7.71118 8.65366 7.74903C8.36027 7.82228 8.06687 7.89548 7.77346 7.96863C7.77333 8.01322 7.7732 8.05781 7.77307 8.10376C7.7699 9.19013 7.76629 10.2765 7.76223 11.3629C7.76184 11.4676 7.76145 11.5723 7.76106 11.677C7.76096 11.703 7.76087 11.729 7.76077 11.7559C7.75922 12.1763 7.75794 12.5968 7.75676 13.0172C7.75554 13.4492 7.75402 13.8812 7.75225 14.3131C7.75127 14.5555 7.75042 14.7979 7.74989 15.0403C7.74939 15.2688 7.74852 15.4973 7.74739 15.7258C7.74704 15.8093 7.74681 15.8929 7.74673 15.9764C7.74546 17.0848 7.56547 18.0644 6.7969 18.9061C6.7583 18.9488 6.7583 18.9488 6.71892 18.9923C6.1977 19.5408 5.37638 19.9631 4.61542 20.0062C3.42139 20.0233 2.51037 19.7798 1.626 18.9347C0.974418 18.2525 0.661105 17.3403 0.664084 16.4061C0.694639 15.5647 0.99468 14.7673 1.56252 14.1405C1.59087 14.1085 1.61922 14.0766 1.64843 14.0436C2.27096 13.3799 3.13538 13.0041 4.04238 12.9624C4.97356 12.9351 5.74609 13.2352 6.4844 13.7889C6.49729 10.2956 6.51018 6.80223 6.52346 3.20301C8.23915 2.76249 9.95478 2.32289 11.6728 1.89153C12.1777 1.76473 12.6826 1.63764 13.1874 1.5105C13.2136 1.50392 13.2397 1.49733 13.2667 1.49055C14.1538 1.26716 15.0403 1.04164 15.9262 0.813333C16.0682 0.776726 16.2102 0.740149 16.3523 0.70357C16.3793 0.696612 16.4063 0.689654 16.4342 0.682486C16.5137 0.662011 16.5932 0.641539 16.6727 0.621068C16.698 0.614544 16.7234 0.608021 16.7495 0.6013C17.2486 0.472805 17.7479 0.345062 18.2477 0.219137C18.3287 0.198684 18.4098 0.178155 18.4908 0.157539C18.5982 0.130244 18.7056 0.103241 18.813 0.0763287C18.8438 0.0684375 18.8746 0.0605463 18.9064 0.0524159C19.0535 0.015933 19.1848 -0.00345846 19.336 -0.000117812Z" fill="#363636"/>
</g>
<defs>
<clipPath id="clip0_82_13391">
<rect width="20" height="20" fill="white"/>
</clipPath>
</defs>
</svg>
