<svg width="30" height="30" viewBox="0 0 30 30" fill="none" xmlns="http://www.w3.org/2000/svg">
<path d="M3.79414 16.5148C3.86147 16.5144 3.92881 16.514 3.99819 16.5136C4.10823 16.5133 4.10823 16.5133 4.22049 16.5131C4.29896 16.5127 4.37743 16.5123 4.45591 16.5119C4.71317 16.5107 4.97043 16.5101 5.22769 16.5095C5.31657 16.5093 5.40544 16.509 5.49432 16.5088C5.9122 16.5077 6.33008 16.5068 6.74796 16.5063C7.22869 16.5058 7.7094 16.5042 8.19013 16.5019C8.56271 16.5001 8.93528 16.4992 9.30786 16.499C9.52989 16.4989 9.7519 16.4984 9.97393 16.4969C10.1832 16.4955 10.3925 16.4953 10.6018 16.4959C10.714 16.4959 10.8262 16.4948 10.9383 16.4937C11.71 16.4982 12.3256 16.6818 12.8847 17.2156C13.3057 17.6561 13.4826 18.1907 13.4852 18.7941C13.4858 18.8951 13.4858 18.8951 13.4865 18.9982C13.4866 19.0716 13.4868 19.1449 13.487 19.2205C13.4873 19.299 13.4877 19.3774 13.4881 19.4559C13.4894 19.7132 13.49 19.9704 13.4906 20.2277C13.4908 20.3166 13.491 20.4054 13.4913 20.4943C13.4924 20.9122 13.4932 21.3301 13.4937 21.748C13.4943 22.2287 13.4958 22.7094 13.4982 23.1901C13.5 23.5627 13.5008 23.9353 13.501 24.3079C13.5012 24.5299 13.5017 24.7519 13.5032 24.9739C13.5045 25.1832 13.5048 25.3925 13.5042 25.6018C13.5041 25.714 13.5052 25.8262 13.5064 25.9383C13.5018 26.71 13.3182 27.3256 12.7845 27.8847C12.3439 28.3057 11.8093 28.4826 11.2059 28.4852C11.1049 28.4858 11.1049 28.4858 11.0019 28.4865C10.9285 28.4866 10.8551 28.4868 10.7796 28.487C10.7011 28.4873 10.6226 28.4877 10.5441 28.4881C10.2869 28.4894 10.0296 28.49 9.77237 28.4906C9.68349 28.4908 9.59461 28.491 9.50573 28.4913C9.08785 28.4924 8.66998 28.4932 8.2521 28.4937C7.77137 28.4943 7.29065 28.4958 6.80992 28.4982C6.43735 28.5 6.06478 28.5008 5.6922 28.501C5.47016 28.5012 5.24815 28.5017 5.02612 28.5032C4.81681 28.5045 4.60753 28.5048 4.39821 28.5042C4.28604 28.5041 4.17388 28.5052 4.06172 28.5064C3.29005 28.5018 2.67441 28.3182 2.11535 27.7845C1.69437 27.3439 1.51743 26.8093 1.51484 26.2059C1.51442 26.1386 1.514 26.0712 1.51357 26.0019C1.51341 25.9285 1.51326 25.8551 1.51309 25.7796C1.51273 25.7011 1.51234 25.6226 1.51193 25.5441C1.5107 25.2869 1.51009 25.0296 1.5095 24.7724C1.50927 24.6835 1.50902 24.5946 1.50878 24.5057C1.50766 24.0879 1.50683 23.67 1.50634 23.2521C1.50577 22.7714 1.50423 22.2906 1.50186 21.8099C1.50008 21.4373 1.49922 21.0648 1.49903 20.6922C1.49889 20.4702 1.49838 20.2481 1.49689 20.0261C1.49552 19.8168 1.49529 19.6075 1.49588 19.3982C1.49593 19.286 1.49481 19.1739 1.49365 19.0617C1.49823 18.29 1.68185 17.6744 2.2156 17.1154C2.65612 16.6944 3.19075 16.5174 3.79414 16.5148ZM3.45706 18.6914C3.42208 18.8411 3.42208 18.8411 3.4273 19.0072C3.42664 19.0713 3.42597 19.1354 3.42529 19.2014C3.42577 19.2714 3.42624 19.3414 3.42673 19.4136C3.42632 19.4875 3.42591 19.5615 3.42549 19.6377C3.42442 19.8403 3.42483 20.0429 3.42558 20.2456C3.42617 20.4577 3.42562 20.6699 3.42525 20.882C3.42482 21.2382 3.42539 21.5944 3.4265 21.9507C3.42778 22.3624 3.42736 22.7742 3.42607 23.186C3.42501 23.5396 3.42486 23.8932 3.42547 24.2468C3.42584 24.458 3.42589 24.6692 3.42511 24.8803C3.42431 25.1157 3.42542 25.3511 3.42673 25.5865C3.42626 25.6565 3.42578 25.7265 3.42529 25.7987C3.42595 25.8627 3.42662 25.9268 3.4273 25.9928C3.42738 26.0485 3.42747 26.1041 3.42756 26.1615C3.46679 26.3572 3.53166 26.4255 3.69143 26.543C3.84112 26.578 3.84112 26.578 4.00722 26.5728C4.07129 26.5734 4.13537 26.5741 4.20139 26.5748C4.2714 26.5743 4.34142 26.5738 4.41356 26.5733C4.48751 26.5737 4.56146 26.5741 4.63765 26.5746C4.84032 26.5756 5.04295 26.5752 5.24561 26.5745C5.45774 26.5739 5.66986 26.5744 5.88199 26.5748C6.23821 26.5752 6.59443 26.5747 6.95065 26.5736C7.36245 26.5723 7.77421 26.5727 8.186 26.574C8.53961 26.575 8.89321 26.5752 9.24683 26.5746C9.458 26.5742 9.66916 26.5742 9.88033 26.5749C10.1157 26.5757 10.3511 26.5746 10.5865 26.5733C10.6565 26.5738 10.7265 26.5743 10.7987 26.5748C10.8627 26.5741 10.9268 26.5734 10.9928 26.5728C11.0485 26.5727 11.1041 26.5726 11.1615 26.5725C11.3572 26.5333 11.4255 26.4684 11.543 26.3086C11.578 26.1589 11.578 26.1589 11.5728 25.9928C11.5734 25.9288 11.5741 25.8647 11.5748 25.7987C11.5743 25.7287 11.5738 25.6586 11.5733 25.5865C11.5737 25.5125 11.5741 25.4386 11.5746 25.3624C11.5756 25.1597 11.5752 24.9571 11.5745 24.7544C11.5739 24.5423 11.5744 24.3302 11.5748 24.1181C11.5752 23.7618 11.5747 23.4056 11.5736 23.0494C11.5723 22.6376 11.5727 22.2258 11.574 21.8141C11.575 21.4604 11.5752 21.1068 11.5746 20.7532C11.5742 20.5421 11.5742 20.3309 11.5749 20.1197C11.5757 19.8843 11.5746 19.649 11.5733 19.4136C11.5738 19.3435 11.5743 19.2735 11.5748 19.2014C11.5741 19.1373 11.5734 19.0732 11.5728 19.0072C11.5727 18.9516 11.5726 18.8959 11.5725 18.8386C11.5333 18.6429 11.4684 18.5745 11.3086 18.4571C11.1589 18.4221 11.1589 18.4221 10.9928 18.4273C10.8967 18.4263 10.8967 18.4263 10.7987 18.4253C10.6936 18.426 10.6936 18.426 10.5865 18.4267C10.5125 18.4263 10.4386 18.4259 10.3624 18.4255C10.1597 18.4244 9.9571 18.4248 9.75444 18.4256C9.54232 18.4262 9.33019 18.4256 9.11806 18.4253C8.76184 18.4248 8.40562 18.4254 8.0494 18.4265C7.63761 18.4278 7.22584 18.4274 6.81405 18.4261C6.46044 18.425 6.10684 18.4249 5.75323 18.4255C5.54205 18.4258 5.33089 18.4259 5.11972 18.4251C4.88432 18.4243 4.64896 18.4254 4.41356 18.4267C4.30853 18.426 4.30853 18.426 4.20139 18.4253C4.13731 18.426 4.07324 18.4266 4.00722 18.4273C3.95157 18.4274 3.89592 18.4275 3.83858 18.4276C3.64288 18.4668 3.57453 18.5317 3.45706 18.6914Z" fill="#F79831"/>
<path d="M18.7941 1.51484C18.8615 1.51442 18.9288 1.514 18.9982 1.51357C19.1082 1.51333 19.1082 1.51333 19.2205 1.51309C19.299 1.51273 19.3774 1.51234 19.4559 1.51193C19.7132 1.5107 19.9704 1.51009 20.2277 1.5095C20.3166 1.50927 20.4054 1.50902 20.4943 1.50878C20.9122 1.50766 21.3301 1.50683 21.748 1.50634C22.2287 1.50577 22.7094 1.50423 23.1901 1.50186C23.5627 1.50008 23.9353 1.49922 24.3079 1.49903C24.5299 1.49889 24.7519 1.49838 24.9739 1.49689C25.1832 1.49552 25.3925 1.49529 25.6018 1.49588C25.714 1.49593 25.8262 1.49481 25.9383 1.49365C26.71 1.49823 27.3256 1.68185 27.8847 2.2156C28.3057 2.65612 28.4826 3.19075 28.4852 3.79414C28.4858 3.89514 28.4858 3.89514 28.4865 3.99819C28.4866 4.07155 28.4868 4.14491 28.487 4.22049C28.4873 4.29896 28.4877 4.37743 28.4881 4.45591C28.4894 4.71317 28.49 4.97043 28.4906 5.22769C28.4908 5.31657 28.491 5.40544 28.4913 5.49432C28.4924 5.9122 28.4932 6.33008 28.4937 6.74796C28.4943 7.22869 28.4958 7.7094 28.4982 8.19013C28.5 8.56271 28.5008 8.93528 28.501 9.30786C28.5012 9.52989 28.5017 9.7519 28.5032 9.97393C28.5045 10.1832 28.5048 10.3925 28.5042 10.6018C28.5041 10.714 28.5052 10.8262 28.5064 10.9383C28.5018 11.71 28.3182 12.3256 27.7845 12.8847C27.3439 13.3057 26.8093 13.4826 26.2059 13.4852C26.1049 13.4858 26.1049 13.4858 26.0019 13.4865C25.9285 13.4866 25.8551 13.4868 25.7796 13.487C25.7011 13.4873 25.6226 13.4877 25.5441 13.4881C25.2869 13.4894 25.0296 13.49 24.7724 13.4906C24.6835 13.4908 24.5946 13.491 24.5057 13.4913C24.0879 13.4924 23.67 13.4932 23.2521 13.4937C22.7714 13.4943 22.2906 13.4958 21.8099 13.4982C21.4373 13.5 21.0648 13.5008 20.6922 13.501C20.4702 13.5012 20.2481 13.5017 20.0261 13.5032C19.8168 13.5045 19.6075 13.5048 19.3982 13.5042C19.286 13.5041 19.1739 13.5052 19.0617 13.5064C18.29 13.5018 17.6744 13.3182 17.1154 12.7845C16.6944 12.3439 16.5174 11.8093 16.5148 11.2059C16.5144 11.1386 16.514 11.0712 16.5136 11.0019C16.5134 10.9285 16.5133 10.8551 16.5131 10.7796C16.5127 10.7011 16.5123 10.6226 16.5119 10.5441C16.5107 10.2869 16.5101 10.0296 16.5095 9.77237C16.5093 9.68349 16.509 9.59461 16.5088 9.50573C16.5077 9.08785 16.5068 8.66998 16.5063 8.2521C16.5058 7.77137 16.5042 7.29065 16.5019 6.80992C16.5001 6.43735 16.4992 6.06478 16.499 5.6922C16.4989 5.47016 16.4984 5.24815 16.4969 5.02612C16.4955 4.81681 16.4953 4.60753 16.4959 4.39821C16.4959 4.28604 16.4948 4.17388 16.4937 4.06172C16.4982 3.29005 16.6818 2.67441 17.2156 2.11535C17.6561 1.69437 18.1907 1.51743 18.7941 1.51484ZM18.4571 3.69143C18.4221 3.84112 18.4221 3.84112 18.4273 4.00722C18.4266 4.07129 18.426 4.13537 18.4253 4.20139C18.4258 4.2714 18.4262 4.34142 18.4267 4.41356C18.4263 4.48751 18.4259 4.56146 18.4255 4.63765C18.4244 4.84032 18.4248 5.04295 18.4256 5.24561C18.4262 5.45774 18.4256 5.66986 18.4253 5.88199C18.4248 6.23821 18.4254 6.59443 18.4265 6.95065C18.4278 7.36245 18.4274 7.77421 18.4261 8.186C18.425 8.53961 18.4249 8.89321 18.4255 9.24683C18.4258 9.458 18.4259 9.66916 18.4251 9.88033C18.4243 10.1157 18.4254 10.3511 18.4267 10.5865C18.4263 10.6565 18.4258 10.7265 18.4253 10.7987C18.426 10.8627 18.4266 10.9268 18.4273 10.9928C18.4274 11.0485 18.4275 11.1041 18.4276 11.1615C18.4668 11.3572 18.5317 11.4255 18.6914 11.543C18.8411 11.578 18.8411 11.578 19.0072 11.5728C19.0713 11.5734 19.1354 11.5741 19.2014 11.5748C19.2714 11.5743 19.3414 11.5738 19.4136 11.5733C19.4875 11.5737 19.5615 11.5741 19.6377 11.5746C19.8403 11.5756 20.0429 11.5752 20.2456 11.5745C20.4577 11.5739 20.6699 11.5744 20.882 11.5748C21.2382 11.5752 21.5944 11.5747 21.9507 11.5736C22.3624 11.5723 22.7742 11.5727 23.186 11.574C23.5396 11.575 23.8932 11.5752 24.2468 11.5746C24.458 11.5742 24.6692 11.5742 24.8803 11.5749C25.1157 11.5757 25.3511 11.5746 25.5865 11.5733C25.6565 11.5738 25.7265 11.5743 25.7987 11.5748C25.8627 11.5741 25.9268 11.5734 25.9928 11.5728C26.0485 11.5727 26.1041 11.5726 26.1615 11.5725C26.3572 11.5333 26.4255 11.4684 26.543 11.3086C26.578 11.1589 26.578 11.1589 26.5728 10.9928C26.5734 10.9288 26.5741 10.8647 26.5748 10.7987C26.5743 10.7287 26.5738 10.6586 26.5733 10.5865C26.5737 10.5125 26.5741 10.4386 26.5746 10.3624C26.5756 10.1597 26.5752 9.9571 26.5745 9.75444C26.5739 9.54232 26.5744 9.33019 26.5748 9.11806C26.5752 8.76184 26.5747 8.40562 26.5736 8.0494C26.5723 7.63761 26.5727 7.22584 26.574 6.81405C26.575 6.46044 26.5752 6.10684 26.5746 5.75323C26.5742 5.54205 26.5742 5.33089 26.5749 5.11972C26.5757 4.88432 26.5746 4.64896 26.5733 4.41356C26.5738 4.34354 26.5743 4.27352 26.5748 4.20139C26.5741 4.13731 26.5734 4.07324 26.5728 4.00722C26.5727 3.95157 26.5726 3.89592 26.5725 3.83858C26.5333 3.64288 26.4684 3.57453 26.3086 3.45706C26.1589 3.42208 26.1589 3.42208 25.9928 3.4273C25.8967 3.4263 25.8967 3.4263 25.7987 3.42529C25.6936 3.42601 25.6936 3.42601 25.5865 3.42673C25.5125 3.42632 25.4386 3.42591 25.3624 3.42549C25.1597 3.42442 24.9571 3.42483 24.7544 3.42558C24.5423 3.42617 24.3302 3.42562 24.1181 3.42525C23.7618 3.42482 23.4056 3.42539 23.0494 3.4265C22.6376 3.42778 22.2258 3.42736 21.8141 3.42607C21.4604 3.42501 21.1068 3.42486 20.7532 3.42547C20.5421 3.42584 20.3309 3.42589 20.1197 3.42511C19.8843 3.42431 19.649 3.42542 19.4136 3.42673C19.3085 3.42602 19.3085 3.42602 19.2014 3.42529C19.1373 3.42595 19.0732 3.42662 19.0072 3.4273C18.9516 3.42738 18.8959 3.42747 18.8386 3.42756C18.6429 3.46679 18.5745 3.53166 18.4571 3.69143Z" fill="#F79831"/>
<path d="M3.79414 1.51484C3.86147 1.51442 3.92881 1.514 3.99819 1.51357C4.10823 1.51333 4.10823 1.51333 4.22049 1.51309C4.29896 1.51273 4.37743 1.51234 4.45591 1.51193C4.71317 1.5107 4.97043 1.51009 5.22769 1.5095C5.31657 1.50927 5.40544 1.50902 5.49432 1.50878C5.9122 1.50766 6.33008 1.50683 6.74796 1.50634C7.22869 1.50577 7.7094 1.50423 8.19013 1.50186C8.56271 1.50008 8.93528 1.49922 9.30786 1.49903C9.52989 1.49889 9.7519 1.49838 9.97393 1.49689C10.1832 1.49552 10.3925 1.49529 10.6018 1.49588C10.714 1.49593 10.8262 1.49481 10.9383 1.49365C11.71 1.49823 12.3256 1.68185 12.8847 2.2156C13.3057 2.65612 13.4826 3.19075 13.4852 3.79414C13.4858 3.89514 13.4858 3.89514 13.4865 3.99819C13.4866 4.07155 13.4868 4.14491 13.487 4.22049C13.4873 4.29896 13.4877 4.37743 13.4881 4.45591C13.4894 4.71317 13.49 4.97043 13.4906 5.22769C13.4908 5.31657 13.491 5.40544 13.4913 5.49432C13.4924 5.9122 13.4932 6.33008 13.4937 6.74796C13.4943 7.22869 13.4958 7.7094 13.4982 8.19013C13.5 8.56271 13.5008 8.93528 13.501 9.30786C13.5012 9.52989 13.5017 9.7519 13.5032 9.97393C13.5045 10.1832 13.5048 10.3925 13.5042 10.6018C13.5041 10.714 13.5052 10.8262 13.5064 10.9383C13.5018 11.71 13.3182 12.3256 12.7845 12.8847C12.3439 13.3057 11.8093 13.4826 11.2059 13.4852C11.1049 13.4858 11.1049 13.4858 11.0019 13.4865C10.9285 13.4866 10.8551 13.4868 10.7796 13.487C10.7011 13.4873 10.6226 13.4877 10.5441 13.4881C10.2869 13.4894 10.0296 13.49 9.77237 13.4906C9.68349 13.4908 9.59461 13.491 9.50573 13.4913C9.08785 13.4924 8.66998 13.4932 8.2521 13.4937C7.77137 13.4943 7.29065 13.4958 6.80992 13.4982C6.43735 13.5 6.06478 13.5008 5.6922 13.501C5.47016 13.5012 5.24815 13.5017 5.02612 13.5032C4.81681 13.5045 4.60753 13.5048 4.39821 13.5042C4.28604 13.5041 4.17388 13.5052 4.06172 13.5064C3.29005 13.5018 2.67441 13.3182 2.11535 12.7845C1.69437 12.3439 1.51743 11.8093 1.51484 11.2059C1.51442 11.1386 1.514 11.0712 1.51357 11.0019C1.51341 10.9285 1.51326 10.8551 1.51309 10.7796C1.51273 10.7011 1.51234 10.6226 1.51193 10.5441C1.5107 10.2869 1.51009 10.0296 1.5095 9.77237C1.50927 9.68349 1.50902 9.59461 1.50878 9.50573C1.50766 9.08785 1.50683 8.66998 1.50634 8.2521C1.50577 7.77137 1.50423 7.29065 1.50186 6.80992C1.50008 6.43735 1.49922 6.06478 1.49903 5.6922C1.49889 5.47016 1.49838 5.24815 1.49689 5.02612C1.49552 4.81681 1.49529 4.60753 1.49588 4.39821C1.49593 4.28604 1.49481 4.17388 1.49365 4.06172C1.49823 3.29005 1.68185 2.67441 2.2156 2.11535C2.65612 1.69437 3.19075 1.51743 3.79414 1.51484ZM3.45706 3.69143C3.42208 3.84112 3.42208 3.84112 3.4273 4.00722C3.42664 4.07129 3.42597 4.13537 3.42529 4.20139C3.42577 4.2714 3.42624 4.34142 3.42673 4.41356C3.42632 4.48751 3.42591 4.56146 3.42549 4.63765C3.42442 4.84032 3.42483 5.04295 3.42558 5.24561C3.42617 5.45774 3.42562 5.66986 3.42525 5.88199C3.42482 6.23821 3.42539 6.59443 3.4265 6.95065C3.42778 7.36245 3.42736 7.77421 3.42607 8.186C3.42501 8.53961 3.42486 8.89321 3.42547 9.24683C3.42584 9.458 3.42589 9.66916 3.42511 9.88033C3.42431 10.1157 3.42542 10.3511 3.42673 10.5865C3.42626 10.6565 3.42578 10.7265 3.42529 10.7987C3.42595 10.8627 3.42662 10.9268 3.4273 10.9928C3.42738 11.0485 3.42747 11.1041 3.42756 11.1615C3.46679 11.3572 3.53166 11.4255 3.69143 11.543C3.84112 11.578 3.84112 11.578 4.00722 11.5728C4.07129 11.5734 4.13537 11.5741 4.20139 11.5748C4.2714 11.5743 4.34142 11.5738 4.41356 11.5733C4.48751 11.5737 4.56146 11.5741 4.63765 11.5746C4.84032 11.5756 5.04295 11.5752 5.24561 11.5745C5.45774 11.5739 5.66986 11.5744 5.88199 11.5748C6.23821 11.5752 6.59443 11.5747 6.95065 11.5736C7.36245 11.5723 7.77421 11.5727 8.186 11.574C8.53961 11.575 8.89321 11.5752 9.24683 11.5746C9.458 11.5742 9.66916 11.5742 9.88033 11.5749C10.1157 11.5757 10.3511 11.5746 10.5865 11.5733C10.6565 11.5738 10.7265 11.5743 10.7987 11.5748C10.8627 11.5741 10.9268 11.5734 10.9928 11.5728C11.0485 11.5727 11.1041 11.5726 11.1615 11.5725C11.3572 11.5333 11.4255 11.4684 11.543 11.3086C11.578 11.1589 11.578 11.1589 11.5728 10.9928C11.5734 10.9288 11.5741 10.8647 11.5748 10.7987C11.5743 10.7287 11.5738 10.6586 11.5733 10.5865C11.5737 10.5125 11.5741 10.4386 11.5746 10.3624C11.5756 10.1597 11.5752 9.9571 11.5745 9.75444C11.5739 9.54232 11.5744 9.33019 11.5748 9.11806C11.5752 8.76184 11.5747 8.40562 11.5736 8.0494C11.5723 7.63761 11.5727 7.22584 11.574 6.81405C11.575 6.46044 11.5752 6.10684 11.5746 5.75323C11.5742 5.54205 11.5742 5.33089 11.5749 5.11972C11.5757 4.88432 11.5746 4.64896 11.5733 4.41356C11.5738 4.34354 11.5743 4.27352 11.5748 4.20139C11.5741 4.13731 11.5734 4.07324 11.5728 4.00722C11.5727 3.95157 11.5726 3.89592 11.5725 3.83858C11.5333 3.64288 11.4684 3.57453 11.3086 3.45706C11.1589 3.42208 11.1589 3.42208 10.9928 3.4273C10.8967 3.4263 10.8967 3.4263 10.7987 3.42529C10.6936 3.42601 10.6936 3.42601 10.5865 3.42673C10.5125 3.42632 10.4386 3.42591 10.3624 3.42549C10.1597 3.42442 9.9571 3.42483 9.75444 3.42558C9.54232 3.42617 9.33019 3.42562 9.11806 3.42525C8.76184 3.42482 8.40562 3.42539 8.0494 3.4265C7.63761 3.42778 7.22584 3.42736 6.81405 3.42607C6.46044 3.42501 6.10684 3.42486 5.75323 3.42547C5.54205 3.42584 5.33089 3.42589 5.11972 3.42511C4.88432 3.42431 4.64896 3.42542 4.41356 3.42673C4.30853 3.42602 4.30853 3.42602 4.20139 3.42529C4.13731 3.42595 4.07324 3.42662 4.00722 3.4273C3.95157 3.42738 3.89592 3.42747 3.83858 3.42756C3.64288 3.46679 3.57453 3.53166 3.45706 3.69143Z" fill="#F79831"/>
<path d="M23.6134 16.1718C23.9761 16.4211 24.2936 16.7174 24.6038 17.028C24.6468 17.0705 24.6897 17.1131 24.7339 17.1569C24.8743 17.2962 25.0142 17.4358 25.154 17.5755C25.2522 17.6734 25.3505 17.7712 25.4487 17.8691C25.654 18.0736 25.8589 18.2784 26.0638 18.4833C26.3254 18.7449 26.5878 19.0057 26.8505 19.2663C27.0534 19.468 27.2558 19.6701 27.458 19.8724C27.5545 19.9688 27.6512 20.065 27.7481 20.161C27.8838 20.2955 28.0188 20.4308 28.1535 20.5663C28.1931 20.6052 28.2326 20.6441 28.2734 20.6841C28.827 21.2451 29.0882 21.8165 29.0839 22.6092C29.0616 23.4706 28.5547 24.0218 27.972 24.6036C27.9295 24.6466 27.8869 24.6895 27.8431 24.7337C27.7039 24.8741 27.5642 25.014 27.4245 25.1538C27.3266 25.252 27.2288 25.3503 27.131 25.4485C26.9264 25.6538 26.7217 25.8587 26.5167 26.0636C26.2551 26.3252 25.9943 26.5876 25.7337 26.8503C25.532 27.0532 25.3299 27.2556 25.1276 27.4578C25.0312 27.5543 24.935 27.651 24.8391 27.7479C24.7045 27.8836 24.5692 28.0186 24.4337 28.1533C24.3949 28.1929 24.356 28.2324 24.3159 28.2732C23.7549 28.8268 23.1835 29.088 22.3908 29.0837C21.5295 29.0614 20.9783 28.5545 20.3964 27.9718C20.3535 27.9293 20.3105 27.8867 20.2663 27.8429C20.126 27.7037 19.9861 27.564 19.8462 27.4243C19.748 27.3264 19.6497 27.2286 19.5515 27.1308C19.3463 26.9262 19.1413 26.7215 18.9364 26.5165C18.6748 26.2549 18.4124 25.9941 18.1498 25.7335C17.9468 25.5318 17.7444 25.3297 17.5422 25.1274C17.4457 25.031 17.349 24.9348 17.2521 24.8389C17.1164 24.7043 16.9815 24.569 16.8467 24.4335C16.8071 24.3947 16.7676 24.3558 16.7268 24.3157C16.1732 23.7547 15.912 23.1833 15.9163 22.3906C15.9386 21.5293 16.4456 20.9781 17.0282 20.3962C17.0707 20.3533 17.1133 20.3103 17.1571 20.2661C17.2964 20.1258 17.436 19.9859 17.5757 19.846C17.6736 19.7478 17.7714 19.6495 17.8693 19.5513C18.0738 19.3461 18.2786 19.1411 18.4835 18.9362C18.7451 18.6746 19.0059 18.4122 19.2665 18.1496C19.4682 17.9466 19.6703 17.7442 19.8726 17.542C19.969 17.4455 20.0652 17.3488 20.1612 17.2519C20.2957 17.1162 20.431 16.9813 20.5665 16.8465C20.6054 16.8069 20.6443 16.7674 20.6843 16.7266C21.4775 15.9439 22.5909 15.6425 23.6134 16.1718ZM21.8756 18.2742C21.8322 18.3171 21.7887 18.3599 21.7439 18.4041C21.6003 18.5461 21.4581 18.6894 21.3159 18.8328C21.2166 18.9318 21.1173 19.0308 21.0179 19.1298C20.8097 19.3374 20.6023 19.5456 20.3952 19.7543C20.1296 20.0219 19.8625 20.2879 19.5948 20.5534C19.3894 20.7576 19.1848 20.9625 18.9805 21.1678C18.8823 21.2662 18.7839 21.3644 18.6852 21.4623C18.5474 21.5992 18.4108 21.7371 18.2744 21.8754C18.2128 21.936 18.2128 21.936 18.1499 21.9978C17.9894 22.1626 17.8848 22.2767 17.8208 22.4999C17.8992 22.7732 18.0748 22.9282 18.2744 23.1244C18.3173 23.1679 18.3601 23.2114 18.4043 23.2562C18.5463 23.3997 18.6896 23.542 18.833 23.6841C18.932 23.7834 19.031 23.8828 19.13 23.9822C19.3376 24.1903 19.5458 24.3978 19.7545 24.6048C20.0221 24.8704 20.2881 25.1375 20.5536 25.4052C20.7578 25.6106 20.9627 25.8152 21.168 26.0195C21.2664 26.1177 21.3646 26.2161 21.4625 26.3149C21.5994 26.4526 21.7373 26.5893 21.8756 26.7256C21.916 26.7667 21.9564 26.8078 21.998 26.8501C22.1628 27.0106 22.2769 27.1152 22.5001 27.1792C22.7734 27.1009 22.9284 26.9252 23.1246 26.7256C23.1898 26.6613 23.1898 26.6613 23.2564 26.5957C23.3999 26.4537 23.5422 26.3104 23.6843 26.1671C23.7836 26.068 23.883 25.969 23.9824 25.8701C24.1905 25.6625 24.398 25.4542 24.605 25.2455C24.8706 24.9779 25.1377 24.712 25.4054 24.4464C25.6108 24.2423 25.8154 24.0373 26.0197 23.832C26.1179 23.7336 26.2163 23.6355 26.3151 23.5376C26.4528 23.4007 26.5895 23.2627 26.7258 23.1244C26.7669 23.084 26.808 23.0436 26.8503 23.002C27.0108 22.8373 27.1154 22.7231 27.1794 22.4999C27.1011 22.2267 26.9254 22.0716 26.7258 21.8754C26.6615 21.8102 26.6615 21.8102 26.5959 21.7437C26.4539 21.6001 26.3106 21.4579 26.1673 21.3157C26.0682 21.2164 25.9692 21.1171 25.8703 21.0177C25.6627 20.8095 25.4544 20.6021 25.2457 20.395C24.9781 20.1294 24.7122 19.8623 24.4466 19.5946C24.2425 19.3892 24.0375 19.1846 23.8322 18.9803C23.7338 18.8821 23.6357 18.7837 23.5378 18.685C23.4009 18.5472 23.2629 18.4106 23.1246 18.2742C23.064 18.2126 23.064 18.2126 23.0022 18.1497C22.8375 17.9892 22.7233 17.8846 22.5001 17.8206C22.2269 17.899 22.0718 18.0746 21.8756 18.2742Z" fill="#F79831"/>
</svg>
