<svg width="20" height="20" viewBox="0 0 20 20" fill="none" xmlns="http://www.w3.org/2000/svg">
<g clip-path="url(#clip0_82_13382)">
<path d="M4.89358 0.926082C4.92837 0.92582 4.96316 0.925558 4.999 0.925287C5.11318 0.92455 5.22735 0.924393 5.34153 0.924309C5.4215 0.924057 5.50147 0.923794 5.58145 0.923521C5.7488 0.923054 5.91616 0.922908 6.08352 0.922954C6.29708 0.922962 6.51062 0.921896 6.72417 0.92055C6.88929 0.919678 7.0544 0.919523 7.21952 0.919565C7.29821 0.919473 7.3769 0.91913 7.45559 0.918523C8.03842 0.914446 8.503 0.944728 8.9455 1.36712C9.12184 1.55199 9.22447 1.72348 9.30683 1.96526C9.37072 2.13493 9.37072 2.13493 9.50947 2.24236C9.58339 2.26618 9.6579 2.28824 9.73286 2.30859C10.0546 2.41023 10.2933 2.69168 10.4689 2.96868C10.6274 3.29068 10.6463 3.58936 10.6421 3.94341C10.6424 4.02098 10.6427 4.09855 10.643 4.17612C10.6435 4.33805 10.6427 4.49998 10.6418 4.66192C10.6411 4.7961 10.6408 4.93026 10.6415 5.06444C10.6419 5.16457 10.6415 5.2647 10.6402 5.36482C10.6418 5.65163 10.6671 5.8004 10.8596 6.01556C10.9976 6.33168 10.9937 6.76822 10.8742 7.09222C10.7097 7.43503 10.4615 7.63501 10.1174 7.78557C9.96941 7.81948 9.83931 7.81766 9.68769 7.81243C9.6895 7.84229 9.69132 7.87215 9.69318 7.90292C9.71734 8.61983 9.43271 9.35321 8.9455 9.88274C8.59218 10.2547 8.59218 10.2547 8.47675 10.3124C8.46386 10.5316 8.45097 10.7507 8.43769 10.9765C8.54248 10.9983 8.64726 11.0201 8.75523 11.0426C9.14695 11.1248 9.53765 11.2111 9.92776 11.3007C10.0009 11.3174 10.0741 11.334 10.1473 11.3503C10.7054 11.4752 11.2144 11.6037 11.6799 11.9531C11.7118 11.9768 11.7436 12.0005 11.7765 12.0249C12.1736 12.3643 12.401 12.8541 12.5002 13.3593C12.5002 13.4109 12.5002 13.4624 12.5002 13.5156C12.5241 13.5174 12.5481 13.5193 12.5728 13.5212C12.8071 13.5416 13.0292 13.5795 13.257 13.6376C13.308 13.6501 13.308 13.6501 13.36 13.6628C13.5275 13.7056 13.687 13.753 13.8456 13.8223C14.36 14.0427 14.8445 14.0539 15.3969 14.0487C15.7553 14.0468 16.016 14.0477 16.2987 14.2954C16.4738 14.5069 16.5575 14.6525 16.5837 14.9282C16.5889 14.9812 16.5889 14.9812 16.5941 15.0353C16.5979 15.0758 16.5979 15.0758 16.6018 15.1171C16.625 15.1084 16.6482 15.0997 16.6721 15.0907C16.9136 15 17.155 14.9094 17.3964 14.8189C17.4865 14.785 17.5767 14.7512 17.6668 14.7173C17.7963 14.6687 17.9257 14.6202 18.0552 14.5716C18.1158 14.5488 18.1158 14.5488 18.1776 14.5256C18.2151 14.5115 18.2527 14.4975 18.2913 14.483C18.3409 14.4644 18.3409 14.4644 18.3915 14.4454C18.6674 14.3438 18.9989 14.312 19.2751 14.4335C19.4742 14.5512 19.6153 14.7436 19.6877 14.9609C19.7182 15.354 19.6978 15.6216 19.4435 15.9252C19.1788 16.1478 18.8636 16.3004 18.5598 16.4623C18.4919 16.4987 18.4241 16.535 18.3563 16.5714C18.2863 16.6088 18.2163 16.6463 18.1463 16.6837C17.9725 16.7767 17.799 16.8702 17.6255 16.9637C17.5419 17.0087 17.4583 17.0537 17.3747 17.0987C17.1786 17.2042 16.9826 17.3098 16.787 17.4162C16.7183 17.4535 16.6496 17.4907 16.5809 17.5279C16.4952 17.5744 16.4095 17.621 16.324 17.6677C15.6076 18.0556 14.9002 18.2874 14.0805 18.0707C13.9423 18.0288 13.8072 17.9805 13.6721 17.9296C13.6368 17.9167 13.6015 17.9037 13.5651 17.8903C12.9311 17.6568 12.9311 17.6568 12.7736 17.5781C12.7764 17.6085 12.7793 17.6389 12.7822 17.6702C12.8062 17.9599 12.8198 18.2493 12.8249 18.54C12.8266 18.5906 12.8266 18.5906 12.8284 18.6423C12.8287 18.6743 12.829 18.7063 12.8293 18.7392C12.8302 18.7819 12.8302 18.7819 12.831 18.8254C12.8044 18.9426 12.7482 18.9867 12.6564 19.0624C12.5591 19.082 12.5591 19.082 12.4473 19.0821C12.4046 19.0825 12.362 19.0829 12.318 19.0833C12.2712 19.083 12.2243 19.0826 12.176 19.0823C12.1013 19.0826 12.1013 19.0826 12.0251 19.083C11.8868 19.0837 11.7485 19.0833 11.6102 19.0829C11.4611 19.0825 11.312 19.083 11.1629 19.0835C10.8707 19.0842 10.5786 19.084 10.2864 19.0836C10.049 19.0832 9.81163 19.0832 9.57423 19.0833C9.54047 19.0834 9.50671 19.0834 9.47193 19.0834C9.40336 19.0835 9.33478 19.0835 9.26621 19.0836C8.62284 19.084 7.97948 19.0835 7.33612 19.0827C6.78381 19.082 6.23151 19.0821 5.67921 19.0828C5.03818 19.0836 4.39715 19.084 3.75613 19.0835C3.6878 19.0834 3.61947 19.0834 3.55115 19.0833C3.51753 19.0833 3.48391 19.0833 3.44927 19.0833C3.2121 19.0831 2.97493 19.0834 2.73776 19.0837C2.44882 19.0842 2.15988 19.084 1.87093 19.0832C1.72344 19.0828 1.57597 19.0826 1.42848 19.0832C1.26876 19.0837 1.10908 19.0831 0.949364 19.0823C0.879075 19.0828 0.879075 19.0828 0.807366 19.0833C0.764697 19.0829 0.722029 19.0825 0.678067 19.0821C0.641189 19.0821 0.60431 19.082 0.566314 19.082C0.43804 19.0562 0.391485 19.009 0.312691 18.9062C0.299183 18.7884 0.295351 18.6864 0.299358 18.569C0.29997 18.5348 0.300582 18.5005 0.301213 18.4652C0.311475 18.0142 0.340919 17.5638 0.369759 17.1136C0.375718 17.0181 0.381661 16.9226 0.387589 16.8272C0.399979 16.6285 0.412538 16.4298 0.425224 16.2311C0.44137 15.9781 0.457124 15.7251 0.472756 15.4721C0.484944 15.2754 0.497323 15.0788 0.50976 14.8821C0.515638 14.7889 0.521462 14.6956 0.527228 14.6024C0.631751 12.9189 0.631751 12.9189 1.09394 12.3046C1.11151 12.2806 1.12909 12.2566 1.14719 12.2318C1.56471 11.7014 2.20845 11.534 2.83466 11.3891C2.8987 11.3739 2.96272 11.3588 3.02674 11.3436C3.18581 11.3059 3.345 11.2687 3.50423 11.2317C3.6151 11.2059 3.72589 11.1799 3.83669 11.1537C4.03454 11.1072 4.23247 11.0609 4.43058 11.0154C4.47999 11.004 4.47999 11.004 4.5304 10.9924C4.60957 10.9765 4.60957 10.9765 4.68769 10.9765C4.70958 10.5799 4.70958 10.5799 4.58607 10.2171C4.50601 10.1505 4.42416 10.0945 4.33613 10.039C3.84344 9.62948 3.53645 8.94493 3.43769 8.32024C3.42932 8.15038 3.43029 7.9823 3.43769 7.81243C3.39338 7.81565 3.34907 7.81888 3.30341 7.8222C2.98338 7.82107 2.68811 7.63788 2.46113 7.42181C2.25737 7.16323 2.1723 6.89912 2.17304 6.56976C2.17309 6.5285 2.17309 6.5285 2.17315 6.4864C2.17888 6.23388 2.2315 6.02093 2.40449 5.83237C2.48142 5.70979 2.47565 5.62207 2.47554 5.47785C2.47569 5.45159 2.47583 5.42533 2.47598 5.39828C2.47623 5.34135 2.47622 5.28442 2.47598 5.22749C2.47562 5.13692 2.47602 5.04637 2.47663 4.9558C2.47819 4.69832 2.47824 4.44083 2.47815 4.18335C2.47815 4.02562 2.47891 3.86791 2.48008 3.71019C2.4805 3.6218 2.48003 3.53345 2.47954 3.44506C2.48141 2.72709 2.74047 2.09913 3.24665 1.58822C3.70074 1.17034 4.2781 0.925405 4.89358 0.926082ZM3.58417 2.2387C3.17194 2.72074 3.11824 3.27315 3.12138 3.88192C3.12143 3.92304 3.12149 3.96416 3.12154 4.00653C3.12176 4.13665 3.12225 4.26678 3.12275 4.3969C3.12295 4.48563 3.12312 4.57436 3.12328 4.66309C3.12371 4.87954 3.12436 5.09598 3.12519 5.31243C3.22832 5.31243 3.33144 5.31243 3.43769 5.31243C3.44897 5.27456 3.46025 5.2367 3.47187 5.19768C3.51582 5.07806 3.51582 5.07806 3.59394 5.03899C3.67083 5.0347 3.74786 5.03288 3.82486 5.03221C3.89766 5.03142 3.89766 5.03142 3.97193 5.03062C4.011 5.03032 4.011 5.03032 4.05086 5.03002C4.13272 5.02937 4.21456 5.02847 4.29641 5.02748C4.52919 5.02472 4.76197 5.02239 4.99475 5.02037C5.13719 5.01911 5.27962 5.0175 5.42205 5.01567C5.47596 5.01505 5.52987 5.01457 5.58378 5.01423C6.21828 5.0102 6.75912 4.93709 7.26582 4.53118C7.34168 4.4537 7.41179 4.37421 7.48035 4.29024C7.49979 4.26663 7.51923 4.24301 7.53925 4.21868C7.55466 4.19627 7.57007 4.17387 7.58594 4.15078C7.70226 4.06946 7.83324 4.08527 7.96894 4.10149C8.10035 4.15749 8.10035 4.15749 8.22941 4.23577C8.2529 4.24977 8.2764 4.26377 8.30061 4.27819C8.37519 4.32283 8.44915 4.36838 8.52314 4.41399C8.57196 4.4434 8.62081 4.47275 8.6697 4.50204C8.76655 4.56018 8.86291 4.61903 8.95899 4.67843C9.05442 4.73725 9.15075 4.79384 9.24833 4.84902C9.27166 4.86252 9.29499 4.87601 9.31903 4.88991C9.38284 4.92676 9.44701 4.96299 9.51119 4.99917C9.62943 5.09399 9.65378 5.16696 9.68769 5.31243C9.77792 5.31243 9.86816 5.31243 9.96113 5.31243C9.96511 5.06226 9.96783 4.81209 9.96971 4.56189C9.97049 4.47687 9.97156 4.39185 9.97291 4.30684C9.97482 4.18427 9.9757 4.06172 9.97639 3.93914C9.9776 3.8826 9.9776 3.8826 9.97883 3.82492C9.97892 3.53953 9.91786 3.33199 9.72813 3.11547C9.68998 3.0839 9.68998 3.0839 9.65107 3.05169C9.62574 3.03004 9.60041 3.00838 9.57432 2.98608C9.41372 2.87542 9.23827 2.83342 9.05048 2.78802C9.00874 2.77785 8.967 2.76767 8.92399 2.75719C8.89242 2.74964 8.86084 2.74209 8.82831 2.73431C8.81885 2.69473 8.80938 2.65515 8.79963 2.61437C8.78643 2.56157 8.7732 2.50878 8.75996 2.45599C8.75381 2.43 8.74767 2.40402 8.74134 2.37725C8.66298 2.06985 8.49628 1.86401 8.24238 1.67962C8.01975 1.56559 7.78233 1.55752 7.53596 1.55676C7.50931 1.55663 7.48266 1.55649 7.4552 1.55636C7.36761 1.55599 7.28002 1.55591 7.19242 1.55587C7.13091 1.55574 7.06941 1.55561 7.0079 1.55548C6.87903 1.55524 6.75015 1.55517 6.62127 1.55519C6.45747 1.5552 6.29367 1.55467 6.12987 1.55399C6.00275 1.55355 5.87563 1.55348 5.74851 1.5535C5.6882 1.55345 5.62789 1.55328 5.56758 1.55298C4.77401 1.54934 4.14753 1.64159 3.58417 2.2387ZM7.79972 4.89251C7.78064 4.91507 7.76155 4.93763 7.74189 4.96087C7.4009 5.31707 6.86195 5.56566 6.36913 5.59205C6.32654 5.59266 6.28395 5.59326 6.24007 5.59389C6.1916 5.59467 6.14313 5.59545 6.09318 5.59625C6.04069 5.59691 5.9882 5.59757 5.93571 5.59823C5.88169 5.59903 5.82767 5.59985 5.77365 5.60069C5.63192 5.60284 5.49019 5.60477 5.34846 5.60666C5.20366 5.60863 5.05886 5.6108 4.91405 5.61295C4.63027 5.61715 4.34648 5.62111 4.06269 5.62493C4.06069 5.92502 4.05933 6.22511 4.0584 6.5252C4.05801 6.62703 4.05748 6.72885 4.0568 6.83068C4.04992 7.88537 4.04522 8.78776 4.82243 9.59099C5.32947 10.0686 5.91091 10.2919 6.60175 10.3124C7.3334 10.2904 7.93379 9.98529 8.43281 9.4555C8.66853 9.17765 8.82621 8.90267 8.93818 8.55706C8.95032 8.52004 8.95032 8.52004 8.96271 8.48227C9.006 8.33833 9.0303 8.19944 9.04291 8.04964C9.04612 8.01168 9.04933 7.97372 9.05264 7.93462C9.05596 7.8943 9.05927 7.85397 9.06269 7.81243C9.06627 7.77195 9.06985 7.73147 9.07354 7.68976C9.10262 7.3518 9.12247 7.01377 9.13349 6.67474C9.13436 6.64853 9.13522 6.62232 9.13611 6.59532C9.17808 5.93403 9.17808 5.93403 8.95706 5.3353C8.70008 5.06431 8.32799 4.92068 7.96894 4.84368C7.8541 4.83032 7.8541 4.83032 7.79972 4.89251ZM3.008 6.13274C2.85424 6.30269 2.8268 6.44203 2.8368 6.66405C2.86838 6.86193 2.9719 6.96293 3.12275 7.08489C3.24856 7.16363 3.24856 7.16363 3.43769 7.14837C3.43769 6.76165 3.43769 6.37493 3.43769 5.97649C3.22074 5.97649 3.17177 6.00033 3.008 6.13274ZM9.68769 5.97649C9.68769 6.36321 9.68769 6.74993 9.68769 7.14837C9.97904 7.10675 10.0077 7.10178 10.1955 6.91399C10.3024 6.73997 10.2987 6.56558 10.2736 6.36712C10.1824 6.17766 10.0682 6.07475 9.883 5.97649C9.81855 5.97649 9.7541 5.97649 9.68769 5.97649ZM5.31269 10.7031C5.31269 10.8062 5.31269 10.9093 5.31269 11.0156C5.41777 11.06 5.52295 11.1034 5.62916 11.1451C5.74206 11.1912 5.84522 11.2463 5.95081 11.3071C6.25622 11.4711 6.48665 11.5618 6.83063 11.4605C7.08779 11.368 7.33434 11.2555 7.57832 11.1327C7.60522 11.1195 7.63212 11.1062 7.65984 11.0926C7.71097 11.0673 7.76188 11.0415 7.81269 11.0156C7.81269 10.9124 7.81269 10.8093 7.81269 10.7031C7.7709 10.7172 7.7291 10.7313 7.68604 10.7458C6.96083 10.9726 6.18966 10.9963 5.46894 10.7421C5.41703 10.7284 5.36502 10.7151 5.31269 10.7031ZM4.56074 11.6796C4.51708 11.6908 4.51708 11.6908 4.47254 11.7022C4.40099 11.7205 4.32949 11.7391 4.258 11.7577C4.42291 11.9914 4.60683 12.199 4.80286 12.4064C4.9574 12.5706 4.9574 12.5706 5.00019 12.6562C5.16184 12.5872 5.29092 12.4789 5.42744 12.3705C5.45118 12.352 5.47492 12.3335 5.49938 12.3145C5.64224 12.2018 5.77263 12.0843 5.89863 11.9531C5.75884 11.894 5.6188 11.8356 5.47871 11.7773C5.43903 11.7605 5.39935 11.7437 5.35847 11.7265C5.3202 11.7106 5.28193 11.6947 5.2425 11.6784C5.20731 11.6637 5.17213 11.6489 5.13588 11.6338C4.93603 11.567 4.75669 11.6284 4.56074 11.6796ZM7.88288 11.6784C7.84461 11.6943 7.80634 11.7101 7.76691 11.7265C7.7074 11.7516 7.7074 11.7516 7.64667 11.7773C7.60639 11.794 7.56611 11.8108 7.5246 11.8281C7.42522 11.8695 7.32594 11.9112 7.22675 11.9531C7.38769 12.1209 7.56144 12.268 7.74189 12.4145C7.77016 12.4378 7.79844 12.4612 7.82757 12.4852C7.85463 12.5072 7.8817 12.5293 7.90958 12.552C7.93411 12.572 7.95865 12.592 7.98392 12.6127C8.04501 12.6636 8.04501 12.6636 8.12519 12.6562C8.18389 12.5997 8.18389 12.5997 8.24482 12.5243C8.38303 12.3612 8.52636 12.2036 8.67145 12.0466C8.74874 11.9548 8.80873 11.8622 8.86738 11.7577C8.76652 11.7315 8.66561 11.7055 8.56464 11.6796C8.53614 11.6722 8.50764 11.6647 8.47828 11.657C8.24969 11.5988 8.10045 11.5873 7.88288 11.6784ZM2.88593 12.058C2.84333 12.0676 2.80073 12.0771 2.75684 12.087C2.23881 12.2093 1.79048 12.4353 1.48701 12.8906C1.32993 13.1791 1.27089 13.4635 1.2505 13.7888C1.24759 13.8295 1.24468 13.8702 1.24169 13.9121C1.233 14.0365 1.22482 14.1609 1.21688 14.2853C1.21061 14.3829 1.2042 14.4806 1.19777 14.5782C1.16306 15.1061 1.12991 15.6341 1.09712 16.1621C1.08629 16.3358 1.07534 16.5094 1.06438 16.683C1.05379 16.8512 1.04329 17.0194 1.03282 17.1876C1.02783 17.2675 1.02282 17.3474 1.01777 17.4273C1.01076 17.5384 1.00388 17.6496 0.997028 17.7607C0.99496 17.7931 0.992891 17.8255 0.990759 17.8589C0.9889 17.8895 0.987041 17.9201 0.985125 17.9516C0.983498 17.9777 0.981872 18.0038 0.980195 18.0306C0.975249 18.1662 0.976753 18.3018 0.976753 18.4374C1.47949 18.4374 1.98222 18.4374 2.50019 18.4374C2.50019 17.3031 2.50019 16.1687 2.50019 14.9999C2.70644 14.9999 2.91269 14.9999 3.12519 14.9999C3.12519 16.1343 3.12519 17.2687 3.12519 18.4374C3.66539 18.4386 3.66539 18.4386 4.2165 18.4399C4.33035 18.4402 4.44419 18.4406 4.56149 18.4409C4.65111 18.4411 4.74074 18.4412 4.83036 18.4412C4.87739 18.4414 4.92442 18.4416 4.97288 18.4418C5.01729 18.4419 5.0617 18.4419 5.10745 18.4419C5.14622 18.4419 5.185 18.442 5.22495 18.4421C5.31153 18.4473 5.31153 18.4473 5.35175 18.3984C5.36217 18.3424 5.3703 18.2859 5.37747 18.2294C5.38219 18.1929 5.3869 18.1565 5.39175 18.1189C5.39679 18.0786 5.40182 18.0382 5.40701 17.9967C5.41241 17.9544 5.41781 17.9122 5.42338 17.8687C5.44129 17.7282 5.45895 17.5877 5.47657 17.4471C5.48886 17.3498 5.50116 17.2524 5.51347 17.155C5.53926 16.9504 5.56492 16.7458 5.5905 16.5412C5.62002 16.3051 5.64993 16.069 5.68003 15.8329C5.70899 15.6057 5.73754 15.3784 5.76594 15.1511C5.77807 15.0545 5.79031 14.9579 5.80267 14.8613C5.81995 14.7261 5.83677 14.5907 5.85348 14.4554C5.85867 14.4155 5.86387 14.3757 5.86922 14.3346C5.91233 13.9953 5.91233 13.9953 5.81927 13.6723C5.79503 13.6425 5.79503 13.6425 5.7703 13.6121C5.74405 13.5791 5.74405 13.5791 5.71728 13.5454C5.69897 13.5235 5.68067 13.5015 5.66181 13.4789C5.63413 13.4445 5.63413 13.4445 5.60589 13.4093C5.56072 13.3532 5.5149 13.2976 5.46894 13.2421C5.37084 13.263 5.32052 13.2742 5.24433 13.3422C5.13911 13.4094 5.04925 13.4157 4.92588 13.4216C4.79735 13.3852 4.73806 13.3008 4.64863 13.2031C4.60564 13.1576 4.5626 13.1122 4.51954 13.0668C4.473 13.017 4.42651 12.9673 4.38007 12.9174C4.35575 12.8913 4.33142 12.8652 4.30635 12.8384C4.11504 12.6326 3.92742 12.4243 3.74821 12.2079C3.72066 12.1753 3.69312 12.1428 3.66474 12.1093C3.64002 12.0795 3.61529 12.0497 3.58982 12.019C3.41704 11.8651 3.09003 12.0097 2.88593 12.058ZM9.54596 12.0019C9.52561 12.0244 9.50526 12.047 9.48429 12.0702C9.46151 12.0951 9.43874 12.1199 9.41527 12.1455C9.39157 12.1722 9.36787 12.199 9.34345 12.2265C9.30665 12.267 9.30665 12.267 9.26911 12.3083C9.19983 12.3848 9.13114 12.4618 9.06269 12.539C9.03489 12.5703 9.0071 12.6015 8.97846 12.6337C8.93665 12.6814 8.89503 12.7292 8.85364 12.7772C8.77215 12.8712 8.68924 12.9639 8.60615 13.0566C8.5778 13.0882 8.54945 13.1198 8.52024 13.1524C8.493 13.182 8.46576 13.2116 8.43769 13.2421C8.39857 13.2859 8.39857 13.2859 8.35865 13.3306C8.25864 13.4184 8.17592 13.42 8.04539 13.4144C7.9302 13.3902 7.86123 13.3176 7.77363 13.2421C7.69796 13.2366 7.69796 13.2366 7.61738 13.2812C7.53999 13.3612 7.47587 13.4368 7.40986 13.5253C7.38248 13.5578 7.38248 13.5578 7.35455 13.5909C7.0592 13.9871 7.32186 14.814 7.37934 15.2728C7.39058 15.363 7.40182 15.4533 7.41305 15.5435C7.43648 15.7316 7.46 15.9197 7.48358 16.1077C7.51385 16.3493 7.54387 16.5908 7.57381 16.8324C7.59688 17.0183 7.62011 17.2041 7.64338 17.3899C7.65452 17.4791 7.66561 17.5682 7.67665 17.6574C7.692 17.7813 7.70757 17.9052 7.7232 18.0291C7.72774 18.0661 7.73229 18.1032 7.73697 18.1413C7.74338 18.1916 7.74338 18.1916 7.74991 18.2429C7.75357 18.2721 7.75723 18.3014 7.761 18.3315C7.76732 18.3994 7.76732 18.3994 7.81269 18.4374C7.88102 18.4411 7.9495 18.442 8.01793 18.4419C8.08362 18.4419 8.08362 18.4419 8.15063 18.4419C8.19828 18.4417 8.24593 18.4415 8.29502 18.4412C8.34352 18.4412 8.39202 18.4411 8.44199 18.4411C8.57113 18.4409 8.70027 18.4405 8.82941 18.4401C8.96111 18.4397 9.09281 18.4395 9.22451 18.4393C9.48307 18.4389 9.74163 18.4382 10.0002 18.4374C10.0002 18.2312 10.0002 18.0249 10.0002 17.8124C9.94515 17.811 9.89012 17.8095 9.83341 17.808C9.76124 17.8054 9.68906 17.8028 9.61689 17.8002C9.56247 17.7989 9.56247 17.7989 9.50695 17.7976C9.47208 17.7962 9.43721 17.7948 9.40128 17.7934C9.35311 17.7918 9.35311 17.7918 9.30396 17.7903C9.19767 17.7691 9.16798 17.7411 9.10175 17.6562C9.08701 17.5689 9.08701 17.5689 9.08687 17.4649C9.08638 17.4058 9.08638 17.4058 9.08587 17.3454C9.08611 17.3022 9.08634 17.259 9.08659 17.2144C9.08638 17.1689 9.08618 17.1233 9.08597 17.0764C9.08545 16.9254 9.08579 16.7745 9.08619 16.6235C9.08611 16.5188 9.086 16.4142 9.08585 16.3095C9.08564 16.09 9.08592 15.8705 9.08647 15.6511C9.08711 15.3972 9.08691 15.1434 9.08626 14.8896C9.08573 14.6717 9.08565 14.4539 9.08596 14.236C9.08614 14.1059 9.08612 13.9757 9.08578 13.8456C9.08548 13.7005 9.08593 13.5555 9.08659 13.4104C9.08635 13.3672 9.08611 13.324 9.08587 13.2794C9.0862 13.24 9.08653 13.2006 9.08687 13.1599C9.08692 13.1256 9.08696 13.0913 9.08701 13.056C9.10492 12.9499 9.13361 12.9152 9.21894 12.8515C9.31529 12.8366 9.31529 12.8366 9.43119 12.8363C9.4746 12.836 9.51801 12.8356 9.56273 12.8352C9.60961 12.8354 9.65648 12.8357 9.70478 12.8359C9.75289 12.8358 9.801 12.8357 9.85057 12.8356C9.97845 12.8355 10.1063 12.836 10.2342 12.8366C10.3126 12.8368 10.391 12.8366 10.4694 12.8362C10.6198 12.8355 10.7702 12.8356 10.9206 12.8359C10.9909 12.8356 10.9909 12.8356 11.0626 12.8352C11.1278 12.8358 11.1278 12.8358 11.1942 12.8363C11.2516 12.8365 11.2516 12.8365 11.3101 12.8366C11.4064 12.8515 11.4064 12.8515 11.477 12.9039C11.5475 13.0019 11.5441 13.0914 11.5505 13.2104C11.5531 13.2528 11.5556 13.2953 11.5583 13.339C11.5605 13.3877 11.5605 13.3877 11.5627 13.4374C11.64 13.4374 11.7174 13.4374 11.7971 13.4374C11.7826 13.1118 11.6172 12.8211 11.3967 12.5854C11.0205 12.2457 10.5995 12.1415 10.1174 12.0312C10.0858 12.0237 10.0541 12.0161 10.0216 12.0084C9.97541 11.9976 9.97541 11.9976 9.92832 11.9866C9.88709 11.9769 9.88709 11.9769 9.84502 11.9671C9.68627 11.9376 9.68627 11.9376 9.54596 12.0019ZM6.26972 12.5146C6.24651 12.5344 6.2233 12.5543 6.19938 12.5747C6.1096 12.6517 6.02135 12.7288 5.93769 12.8124C6.00762 12.9178 6.07982 13.0214 6.15253 13.1249C6.17227 13.1547 6.19201 13.1845 6.21235 13.2153C6.32295 13.3712 6.32295 13.3712 6.48312 13.4679C6.57627 13.478 6.6317 13.4722 6.71894 13.4374C6.82371 13.3463 6.89649 13.2402 6.97285 13.1249C6.99379 13.0951 7.01474 13.0653 7.03632 13.0346C7.08775 12.9611 7.13811 12.8871 7.18769 12.8124C7.06089 12.6824 6.93131 12.5624 6.78974 12.4487C6.73936 12.4078 6.73936 12.4078 6.68796 12.3661C6.50637 12.2366 6.41134 12.3917 6.26972 12.5146ZM9.68769 13.4374C9.68769 14.6749 9.68769 15.9124 9.68769 17.1874C10.1002 17.1874 10.5127 17.1874 10.9377 17.1874C10.9377 15.9499 10.9377 14.7124 10.9377 13.4374C10.5252 13.4374 10.1127 13.4374 9.68769 13.4374ZM6.52363 14.1015C6.45722 14.6264 6.39099 15.1514 6.325 15.6764C6.29435 15.9202 6.26363 16.1639 6.23278 16.4077C6.20299 16.643 6.17338 16.8782 6.14388 17.1136C6.1326 17.2033 6.12126 17.293 6.10986 17.3827C6.09389 17.5085 6.07814 17.6342 6.06243 17.76C6.05768 17.797 6.05293 17.834 6.04804 17.8722C6.04377 17.9067 6.0395 17.9413 6.03509 17.9769C6.03135 18.0066 6.0276 18.0363 6.02375 18.0669C6.01369 18.19 6.01582 18.3139 6.01582 18.4374C6.37675 18.4374 6.73769 18.4374 7.10957 18.4374C7.08299 17.9463 7.02624 17.4618 6.96415 16.974C6.95368 16.8907 6.94323 16.8075 6.93279 16.7242C6.90552 16.5071 6.87804 16.29 6.85053 16.0729C6.82238 15.8506 6.79444 15.6282 6.76647 15.4059C6.71175 14.9711 6.65682 14.5363 6.60175 14.1015C6.57597 14.1015 6.55019 14.1015 6.52363 14.1015ZM11.5627 14.1015C11.5627 14.9136 11.5627 15.7257 11.5627 16.5624C11.8205 16.614 12.0783 16.6656 12.3439 16.7187C12.4853 16.7614 12.6177 16.8034 12.7541 16.8566C12.7874 16.869 12.8208 16.8814 12.8551 16.8942C12.9584 16.9328 13.0613 16.9722 13.1643 17.0116C13.2339 17.0379 13.3035 17.0641 13.3731 17.0902C13.4071 17.103 13.441 17.1157 13.4759 17.1288C13.5092 17.1413 13.5425 17.1538 13.5768 17.1667C13.6094 17.1789 13.642 17.1911 13.6755 17.2037C14.2055 17.4141 14.2055 17.4141 14.7658 17.4804C14.7933 17.481 14.8208 17.4816 14.8491 17.4822C15.3075 17.4789 15.7079 17.2524 16.0988 17.0361C16.1467 17.01 16.1945 16.9839 16.2424 16.9579C16.3405 16.9045 16.4385 16.8509 16.5364 16.7972C16.713 16.7004 16.8903 16.6051 17.0676 16.5099C17.1923 16.4429 17.3169 16.3757 17.4414 16.3085C17.5956 16.2254 17.75 16.1427 17.9046 16.0604C17.9746 16.0232 18.0445 15.9859 18.1144 15.9486C18.2021 15.9018 18.2898 15.8552 18.3777 15.8087C18.7497 15.6346 18.7497 15.6346 19.0236 15.3515C19.0334 15.2343 19.0334 15.2343 19.0236 15.1171C18.9553 15.0312 18.9553 15.0312 18.8726 15.0358C18.6558 15.0621 18.4665 15.1139 18.264 15.1946C18.2339 15.2063 18.2037 15.2179 18.1726 15.2298C18.0769 15.2667 17.9814 15.3042 17.8859 15.3417C17.1232 15.6388 16.4336 15.9072 15.6041 15.9145C15.5504 15.9153 15.4967 15.916 15.4429 15.9168C15.3028 15.9188 15.1627 15.9204 15.0226 15.9218C14.879 15.9234 14.7355 15.9254 14.592 15.9274C14.3114 15.9311 14.0308 15.9344 13.7502 15.9374C13.7502 15.7312 13.7502 15.5249 13.7502 15.3124C13.8335 15.3133 13.8335 15.3133 13.9186 15.3143C14.1252 15.3164 14.3318 15.3178 14.5384 15.3189C14.6277 15.3195 14.7171 15.3203 14.8064 15.3213C14.935 15.3227 15.0636 15.3234 15.1921 15.3239C15.2519 15.3248 15.2519 15.3248 15.3128 15.3257C15.5239 15.3258 15.6787 15.3179 15.8596 15.1952C15.915 15.0843 15.9109 15.0056 15.8986 14.8827C15.8114 14.7715 15.76 14.7324 15.6252 14.6874C15.5295 14.6851 15.4347 14.6849 15.3391 14.6861C14.6825 14.6872 14.1231 14.6576 13.5042 14.4169C13.2604 14.3229 13.0126 14.2702 12.7565 14.2211C12.7165 14.2134 12.6765 14.2056 12.6352 14.1976C12.2717 14.1299 11.9355 14.1015 11.5627 14.1015ZM11.5627 17.2265C11.5612 17.2561 11.5598 17.2858 11.5583 17.3164C11.5557 17.3552 11.5531 17.394 11.5505 17.434C11.5482 17.4725 11.546 17.5111 11.5436 17.5507C11.5208 17.671 11.5014 17.6998 11.4064 17.7734C11.3214 17.7903 11.3214 17.7903 11.2241 17.7934C11.1892 17.7947 11.1544 17.7961 11.1184 17.7976C11.0822 17.7984 11.0459 17.7993 11.0085 17.8002C10.9534 17.8022 10.9534 17.8022 10.8972 17.8043C10.8065 17.8075 10.7159 17.81 10.6252 17.8124C10.6252 18.0187 10.6252 18.2249 10.6252 18.4374C11.1279 18.4374 11.6307 18.4374 12.1486 18.4374C12.143 18.2868 12.1373 18.1361 12.1315 17.9809C12.1299 17.9337 12.1282 17.8866 12.1264 17.838C12.1242 17.7816 12.1242 17.7816 12.1219 17.7241C12.1198 17.6667 12.1198 17.6667 12.1176 17.6082C12.1099 17.504 12.0933 17.4064 12.0705 17.3046C12.0152 17.2914 11.9599 17.2784 11.9045 17.2656C11.8737 17.2583 11.8429 17.2511 11.8111 17.2436C11.709 17.2217 11.709 17.2217 11.5627 17.2265Z" fill="#FF7700"/>
<path d="M17.2193 8.09814C17.2749 8.14497 17.3293 8.1931 17.3829 8.24218C17.4182 8.27436 17.4535 8.30653 17.4899 8.33969C17.8509 8.68411 18.1029 9.06552 18.2813 9.53124C18.2967 9.57138 18.3122 9.61151 18.328 9.65286C18.5833 10.441 18.49 11.3103 18.1324 12.0459C18.0102 12.2834 17.8763 12.4974 17.6954 12.6953C17.6641 12.7302 17.6329 12.765 17.6006 12.8009C17.077 13.3556 16.344 13.7353 15.5731 13.7669C15.4887 13.7679 15.4043 13.7679 15.3199 13.7671C15.2754 13.7667 15.2308 13.7664 15.185 13.766C14.4702 13.7514 13.775 13.4948 13.2423 13.0078C13.2074 12.9765 13.1726 12.9453 13.1367 12.913C12.582 12.3895 12.2023 11.6564 12.1706 10.8855C12.1697 10.8011 12.1697 10.7167 12.1705 10.6323C12.1708 10.5878 12.1712 10.5433 12.1716 10.4974C12.1865 9.76774 12.4517 9.10679 12.9298 8.55468C12.9531 8.52371 12.9764 8.49275 13.0004 8.46084C13.3207 8.08114 13.7602 7.83025 14.2188 7.65624C14.2622 7.63933 14.3056 7.62241 14.3504 7.60497C15.3117 7.29106 16.4139 7.5009 17.2193 8.09814ZM13.5255 8.87451C12.9653 9.47664 12.8175 10.1521 12.8445 10.9512C12.8596 11.1697 12.9207 11.3615 13.0079 11.5625C13.022 11.5967 13.0362 11.6309 13.0508 11.6661C13.3256 12.2707 13.847 12.7281 14.4557 12.9785C15.1207 13.2017 15.8248 13.1564 16.4548 12.8492C17.0617 12.5253 17.5103 11.9697 17.7153 11.3178C17.8585 10.7899 17.8352 10.1897 17.6173 9.68749C17.596 9.63621 17.596 9.63621 17.5744 9.58389C17.2996 8.97927 16.7781 8.52193 16.1695 8.27148C15.2156 7.95125 14.2591 8.2068 13.5255 8.87451Z" fill="#FF7700"/>
<path d="M14.9999 8.75C15.2062 8.75 15.4124 8.75 15.6249 8.75C15.6249 8.86602 15.6249 8.98203 15.6249 9.10156C15.6507 9.10881 15.6765 9.11606 15.7031 9.12354C15.9124 9.22382 16.1096 9.37616 16.2109 9.58984C16.2499 9.72656 16.2499 9.72656 16.2499 10C16.0308 10 15.8116 10 15.5859 10C15.5601 9.93555 15.5343 9.87109 15.5077 9.80469C15.3984 9.75003 15.3161 9.75576 15.1952 9.76562C15.1171 9.80469 15.1171 9.80469 15.0781 9.88281C15.0576 10.0404 15.0576 10.0404 15.1222 10.1796C15.2236 10.2556 15.3177 10.2675 15.4418 10.2905C15.7719 10.3619 15.9804 10.5039 16.1718 10.7812C16.2977 11.0331 16.2939 11.3491 16.2258 11.619C16.1337 11.827 15.9682 11.9834 15.7812 12.1094C15.7038 12.1287 15.7038 12.1287 15.6249 12.1484C15.6249 12.2645 15.6249 12.3805 15.6249 12.5C15.4187 12.5 15.2124 12.5 14.9999 12.5C14.9999 12.384 14.9999 12.268 14.9999 12.1484C14.9613 12.1376 14.9613 12.1376 14.9218 12.1265C14.7125 12.0262 14.5153 11.8738 14.414 11.6602C14.3749 11.5234 14.3749 11.5234 14.3749 11.25C14.5941 11.25 14.8132 11.25 15.039 11.25C15.0648 11.3145 15.0906 11.3789 15.1171 11.4453C15.2264 11.5 15.3087 11.4942 15.4296 11.4844C15.5077 11.4453 15.5077 11.4453 15.5468 11.3672C15.5673 11.2096 15.5673 11.2096 15.5027 11.0704C15.4012 10.9944 15.3072 10.9825 15.183 10.9595C14.8529 10.8881 14.6445 10.7461 14.4531 10.4688C14.3272 10.2169 14.3309 9.90094 14.399 9.63104C14.4912 9.42305 14.6567 9.26662 14.8437 9.14062C14.8952 9.12773 14.9468 9.11484 14.9999 9.10156C14.9999 8.98555 14.9999 8.86953 14.9999 8.75Z" fill="#FF7700"/>
</g>
<defs>
<clipPath id="clip0_82_13382">
<rect width="20" height="20" fill="white"/>
</clipPath>
</defs>
</svg>
