<svg width="30" height="30" viewBox="0 0 30 30" fill="none" xmlns="http://www.w3.org/2000/svg">
<g clip-path="url(#clip0_82_14136)">
<path d="M17.3109 -0.0145286C17.3633 -0.0145682 17.4156 -0.0146077 17.4696 -0.0146484C18.222 -0.0137452 18.9519 0.00340688 19.6876 0.175901C19.7327 0.185956 19.7777 0.196011 19.8241 0.206371C20.8892 0.44842 21.8903 0.832265 22.8517 1.34778C22.8888 1.36723 22.926 1.38667 22.9643 1.40671C25.3685 2.66764 27.4051 4.51958 28.2457 7.15461C28.4305 7.76688 28.551 8.39272 28.6525 9.02356C28.663 9.0875 28.663 9.0875 28.6738 9.15273C29.0747 11.7084 28.6779 14.1893 27.1483 16.3003C26.9937 16.511 26.836 16.7193 26.6783 16.9278C25.0467 19.1198 24.362 21.3778 24.7596 24.1188C24.9382 25.2398 25.1782 26.3903 25.6642 27.422C25.6967 27.4919 25.7293 27.5619 25.7628 27.6339C25.9484 28.0225 26.1607 28.3859 26.3959 28.7463C26.5765 29.0329 26.7132 29.3009 26.6603 29.6486C26.5342 29.8441 26.4725 29.926 26.2501 30.0001C26.0793 30.0063 25.9098 30.009 25.7389 30.0091C25.6861 30.0094 25.6332 30.0097 25.5788 30.0099C25.4009 30.0107 25.223 30.0111 25.0452 30.0114C24.918 30.0119 24.7907 30.0124 24.6635 30.0129C24.2452 30.0144 23.8269 30.0153 23.4085 30.0161C23.2647 30.0165 23.1208 30.0168 22.977 30.0171C22.3789 30.0184 21.7808 30.0195 21.1827 30.0201C20.3246 30.0211 19.4664 30.023 18.6083 30.0263C18.0054 30.0286 17.4025 30.0298 16.7996 30.0301C16.4392 30.0303 16.0788 30.031 15.7184 30.0329C15.3796 30.0346 15.0408 30.035 14.702 30.0343C14.5775 30.0343 14.4529 30.0348 14.3284 30.0358C14.1587 30.0372 13.9892 30.0367 13.8195 30.0357C13.7699 30.0366 13.7203 30.0374 13.6692 30.0382C13.4352 30.035 13.3271 30.0253 13.1551 29.8601C13.0706 29.7141 13.0111 29.5838 12.9617 29.4229C12.9443 29.3687 12.9269 29.3145 12.909 29.2587C12.8909 29.2012 12.8728 29.1438 12.8541 29.0846C12.5631 28.2091 12.1875 27.3371 11.5431 26.6603C11.4907 26.6034 11.4907 26.6034 11.4373 26.5454C11.2997 26.4059 11.2997 26.4059 11.1329 26.3087C10.7499 26.3227 10.3999 26.4719 10.0416 26.598C9.36005 26.8321 8.67218 27.0306 7.97618 27.2169C7.92835 27.2298 7.88051 27.2426 7.83123 27.2558C7.6942 27.2925 7.55712 27.3289 7.42 27.3652C7.37911 27.3761 7.33822 27.3869 7.29609 27.3981C6.66062 27.5646 6.05857 27.6179 5.46581 27.2792C4.8814 26.8789 4.6007 26.3192 4.46949 25.6294C4.4158 25.1636 4.44205 24.7228 4.54319 24.2666C4.57984 24.0972 4.59842 23.9612 4.57042 23.7892C4.37337 23.5264 4.11328 23.3932 3.82656 23.2399C3.66542 23.1263 3.59818 23.0301 3.51573 22.8517C3.49651 22.7073 3.49651 22.7073 3.50109 22.5624C3.5026 22.5118 3.50411 22.4613 3.50566 22.4093C3.51743 22.2415 3.53969 22.0787 3.57433 21.9142C3.54185 21.8908 3.50937 21.8675 3.47591 21.8435C3.43346 21.8124 3.39101 21.7814 3.34728 21.7494C3.30513 21.7188 3.26299 21.6882 3.21956 21.6567C3.08698 21.5473 3.00327 21.4456 2.96047 21.2765C2.93214 20.8486 3.09345 20.5338 3.29037 20.1654C3.42881 19.8998 3.50124 19.7022 3.45714 19.3947C3.38517 19.3 3.38517 19.3 3.27037 19.2518C3.22792 19.2288 3.18548 19.2058 3.14174 19.182C3.06583 19.1423 3.06583 19.1423 2.98839 19.1017C1.80455 18.4167 1.80455 18.4167 1.64073 17.8126C1.60441 17.1407 1.96132 16.6666 2.3649 16.1679C3.06082 15.2994 3.62885 14.3348 4.16027 13.3595C4.18145 13.3208 4.20264 13.2822 4.22447 13.2423C4.46988 12.8277 4.46988 12.8277 4.51183 12.3634C4.4347 12.2509 4.4347 12.2509 4.32506 12.1583C4.28752 12.1232 4.24998 12.0881 4.21131 12.0519C4.17513 12.0193 4.13895 11.9868 4.10167 11.9532C3.74222 11.6195 3.45694 11.2444 3.43151 10.7411C3.4364 10.2115 3.67613 9.72621 3.8914 9.25125C4.11121 8.75889 4.26223 8.27688 4.39098 7.75281C4.8587 5.92542 5.60442 4.36519 6.91417 2.9884C6.95904 2.93696 6.95904 2.93696 7.00481 2.88449C8.99765 0.696468 12.7777 0.380672 15.5275 0.0587136C15.5819 0.0520668 15.6364 0.0454201 15.6925 0.038572C16.2298 -0.0194739 16.7711 -0.0141625 17.3109 -0.0145286ZM7.30602 4.13464C6.31103 5.2958 5.73144 6.70412 5.38501 8.17875C5.22999 8.82969 5.00098 9.42231 4.72098 10.031C4.6932 10.0929 4.66542 10.1548 4.6368 10.2185C4.61135 10.2734 4.58591 10.3283 4.55969 10.3849C4.50143 10.5822 4.51444 10.7016 4.57042 10.8986C4.63956 11.0027 4.63956 11.0027 4.73453 11.081C4.76756 11.1115 4.80058 11.1421 4.83461 11.1735C4.86949 11.2048 4.90436 11.2362 4.9403 11.2684C5.23416 11.547 5.46219 11.7855 5.56652 12.1876C5.58464 12.2541 5.60277 12.3206 5.62145 12.389C5.63093 12.9298 5.34841 13.4173 5.10143 13.8832C5.06775 13.9472 5.03406 14.0112 4.99936 14.0772C4.38661 15.2266 3.6462 16.2955 2.85038 17.3251C2.74494 17.4599 2.74494 17.4599 2.69542 17.6368C2.99226 17.8545 3.28797 18.0559 3.61461 18.2264C3.96819 18.4155 4.34406 18.6255 4.48619 19.0252C4.59399 19.5931 4.54304 20.1144 4.27745 20.6251C4.24581 20.6885 4.21416 20.7519 4.18155 20.8172C4.15519 20.8698 4.12883 20.9224 4.10167 20.9767C4.16942 21.0297 4.16942 21.0297 4.23854 21.0838C4.29731 21.1306 4.35607 21.1775 4.41661 21.2257C4.47507 21.2719 4.53354 21.3182 4.59377 21.3658C4.73158 21.4908 4.80468 21.5648 4.86339 21.7384C4.84574 22.009 4.75219 22.2031 4.62902 22.4415C4.67282 22.4713 4.71663 22.501 4.76177 22.5317C5.21913 22.8514 5.51359 23.1051 5.62511 23.672C5.65317 24.052 5.61526 24.3955 5.53493 24.7663C5.44199 25.2349 5.53806 25.646 5.7423 26.0743C5.91416 26.2994 6.06191 26.4077 6.34092 26.4639C6.57172 26.4853 6.72682 26.4624 6.94988 26.4037C6.9866 26.3942 7.02333 26.3846 7.06117 26.3748C7.18334 26.3427 7.3051 26.3093 7.42687 26.2758C7.46979 26.2642 7.51271 26.2526 7.55693 26.2406C8.74387 25.9191 9.90977 25.5305 11.0743 25.1368C11.1304 25.1179 11.1866 25.099 11.2444 25.0795C11.5854 24.9645 11.9261 24.8486 12.2664 24.7314C12.3729 24.6948 12.4794 24.6583 12.586 24.622C14.2649 24.0988 14.2649 24.0988 15.4689 22.9103C15.5197 22.7279 15.5591 22.5484 15.5899 22.3616C15.6446 22.2072 15.6446 22.2072 15.7849 22.0977C15.9805 22.0127 16.0862 22.0326 16.2892 22.09C16.465 22.2072 16.465 22.2072 16.5235 22.3829C16.5661 22.9889 16.3816 23.4973 15.9962 23.965C15.0609 24.9791 13.5646 25.3559 12.3048 25.7814C12.3883 26.0016 12.4749 26.1498 12.6307 26.327C13.256 27.0908 13.6362 28.0177 13.9454 28.9454C17.6579 28.9454 21.3704 28.9454 25.1954 28.9454C25.1116 28.7359 25.0234 28.5431 24.9191 28.3441C24.2111 26.9837 23.8844 25.4745 23.672 23.965C23.6659 23.9241 23.6597 23.8832 23.6534 23.8411C23.507 22.7396 23.5141 21.4669 23.7892 20.3907C23.8071 20.3181 23.8071 20.3181 23.8254 20.2439C24.2094 18.7158 24.9167 17.4925 25.8606 16.2416C27.0222 14.6985 27.7279 13.227 27.7296 11.2538C27.7296 11.2122 27.7297 11.1707 27.7297 11.1279C27.7286 10.3575 27.6726 9.60754 27.5392 8.84778C27.5291 8.79048 27.5191 8.73318 27.5087 8.67414C27.2303 7.14868 26.6692 5.82971 25.6056 4.68762C25.5557 4.63301 25.5059 4.5784 25.4545 4.52214C25.0216 4.06785 24.5347 3.70122 24.0235 3.33996C23.9879 3.31467 23.9523 3.28938 23.9155 3.26332C21.9605 1.88821 19.8281 1.02649 17.4171 1.03283C17.3448 1.03291 17.3448 1.03291 17.271 1.03299C13.9556 1.04449 9.65541 1.57208 7.30602 4.13464Z" fill="#F79831"/>
<path d="M21.5624 2.92978C21.5982 2.94712 21.634 2.96447 21.6709 2.98234C23.5454 3.90341 25.4326 5.31591 26.1913 7.32431C26.9436 9.53669 27.1409 12.1048 26.1023 14.2462C25.7465 14.9092 25.2232 15.4319 24.6305 15.8866C23.8128 16.534 23.0362 17.5252 22.8514 18.5743C22.8281 18.79 22.8143 19.006 22.8002 19.2225C22.721 20.2471 22.5092 21.1283 21.7382 21.8556C21.4917 22.0237 21.3364 22.0744 21.035 22.0313C20.8814 21.9148 20.7647 21.8196 20.7115 21.6285C20.6953 21.5026 20.6864 21.378 20.6798 21.2513C20.6474 20.8824 20.6179 20.5783 20.3905 20.2735C20.3606 20.2333 20.3307 20.193 20.2999 20.1515C20.0418 19.8367 19.7407 19.5958 19.4198 19.3496C18.6166 18.7318 17.8944 18.048 17.7137 17.0028C17.6442 16.3038 17.6669 15.6269 17.8382 14.9454C17.8738 14.7503 17.8845 14.6571 17.8124 14.4727C17.7007 14.3274 17.574 14.201 17.4425 14.0736C17.4054 14.0374 17.3683 14.0012 17.3301 13.9638C16.376 13.0525 15.3565 12.8008 14.0633 12.8154C13.0968 12.8431 12.131 12.9998 11.1746 13.1342C9.80776 13.3261 8.5543 13.487 7.3241 12.7149C6.67538 12.2115 6.32009 11.4467 6.17649 10.6493C6.07724 9.75138 6.16534 8.89947 6.3866 8.02744C6.39757 7.98363 6.40854 7.93982 6.41985 7.89468C6.82412 6.31946 7.63243 4.83918 8.96473 3.86728C9.01178 3.83201 9.05884 3.79673 9.10732 3.76039C12.1931 1.61813 18.2494 1.31418 21.5624 2.92978ZM16.7577 3.04697C16.7492 3.15936 16.7408 3.27175 16.7321 3.38754C16.7174 3.58196 16.7023 3.74057 16.6405 3.92587C16.5576 3.93898 16.4746 3.95097 16.3915 3.96249C16.3221 3.97269 16.3221 3.97269 16.2514 3.98309C16.0923 3.98467 16.0121 3.95169 15.8788 3.86728C15.7277 3.66059 15.7278 3.41164 15.703 3.16415C15.5687 3.17239 15.4344 3.18101 15.3002 3.18979C15.2254 3.19455 15.1506 3.19931 15.0736 3.20421C14.8896 3.21056 14.8896 3.21056 14.7655 3.28134C14.7564 3.39192 14.7564 3.39192 14.7472 3.50473C14.7267 3.69504 14.7117 3.74418 14.5861 3.90024C14.3845 3.99888 14.2683 4.00567 14.0507 3.96593C13.9452 3.92587 13.9452 3.92587 13.8317 3.78671C13.7878 3.67825 13.7478 3.56813 13.7108 3.45712C13.2937 3.49623 12.8901 3.5686 12.4804 3.65488C12.4201 3.66711 12.3598 3.67935 12.2977 3.69196C11.938 3.76701 11.5961 3.86114 11.2499 3.98447C11.2467 4.14439 11.2444 4.30426 11.2426 4.4642C11.2411 4.53178 11.2411 4.53178 11.2396 4.60073C11.237 4.9015 11.2567 5.12728 11.4437 5.37515C11.5714 5.47066 11.684 5.49049 11.8395 5.52255C11.9963 5.56604 11.9963 5.56604 12.1288 5.62509C12.2434 5.84615 12.2661 5.95978 12.202 6.20004C12.1288 6.32822 12.1288 6.32822 12.0116 6.4454C11.6391 6.4947 11.2751 6.48614 10.9462 6.2932C10.5703 6.003 10.3377 5.6758 10.2753 5.2028C10.2653 5.1129 10.2557 5.02295 10.2465 4.93295C10.2414 4.88677 10.2363 4.84058 10.2311 4.79299C10.2188 4.67977 10.2069 4.5665 10.1952 4.45322C9.29645 4.7079 8.65535 5.55708 8.20301 6.32822C8.20301 6.36689 8.20301 6.40556 8.20301 6.4454C8.31744 6.44869 8.31744 6.44869 8.43418 6.45204C8.53535 6.45589 8.63651 6.45978 8.73768 6.46371C8.8129 6.4657 8.8129 6.4657 8.88965 6.46772C9.18617 6.48027 9.41673 6.50488 9.66785 6.67978C9.75921 6.8784 9.74699 7.08689 9.67884 7.29135C9.60926 7.3829 9.60926 7.3829 9.49207 7.4415C9.35597 7.45059 9.21963 7.45616 9.08329 7.46004C9.04314 7.46126 9.00298 7.46247 8.96162 7.46373C8.83326 7.46756 8.70491 7.47101 8.57654 7.47446C8.48957 7.47699 8.40259 7.47954 8.31562 7.48212C8.10231 7.4884 7.88899 7.49434 7.67566 7.50009C7.55595 7.80724 7.45411 8.11026 7.37537 8.43027C7.36027 8.49088 7.36027 8.49088 7.34487 8.55272C7.26994 8.86407 7.22231 9.17194 7.20691 9.49228C7.67705 9.52452 7.67705 9.52452 8.08582 9.3165C8.22769 9.17462 8.23397 9.09378 8.26893 8.89902C8.27874 8.84569 8.28856 8.79237 8.29868 8.73743C8.30578 8.69649 8.31288 8.65555 8.32019 8.61337C8.48194 8.55946 8.5917 8.54349 8.75965 8.54013C8.80497 8.53862 8.85029 8.53711 8.89698 8.53555C9.02332 8.55478 9.02332 8.55478 9.12632 8.62436C9.27614 8.84296 9.22438 9.12195 9.1991 9.37509C9.09643 9.73142 8.89601 10.0161 8.61316 10.254C8.18987 10.486 7.74097 10.5304 7.26551 10.547C7.38929 11.1659 7.6441 11.5671 8.14441 11.9532C8.30589 11.8725 8.34882 11.7557 8.43738 11.6017C8.49598 11.5431 8.49598 11.5431 8.71936 11.5247C8.89281 11.5282 8.95581 11.5376 9.10755 11.631C9.23639 11.8371 9.24158 12.0045 9.25769 12.2462C9.61562 12.253 9.95019 12.2317 10.3032 12.1755C10.404 12.1603 10.5048 12.1451 10.6056 12.1301C10.6581 12.1221 10.7106 12.1141 10.7647 12.1059C12.0753 11.9085 13.3844 11.7962 14.7069 11.7188C14.7139 11.6822 14.7209 11.6456 14.728 11.6079C14.7378 11.56 14.7475 11.5122 14.7575 11.463C14.7669 11.4155 14.7763 11.368 14.7859 11.319C14.8241 11.1915 14.8241 11.1915 14.9523 11.067C15.1681 10.9999 15.3095 11.0179 15.5272 11.0743C15.6629 11.1744 15.6986 11.2287 15.733 11.3954C15.7364 11.4478 15.7398 11.5001 15.7433 11.554C15.7471 11.6068 15.751 11.6596 15.755 11.714C15.7582 11.7744 15.7582 11.7744 15.7616 11.836C15.8244 11.859 15.8873 11.882 15.952 11.9056C16.0449 11.9409 16.1376 11.9763 16.2304 12.0118C16.2855 12.0324 16.3406 12.0531 16.3974 12.0743C17.1744 12.3785 17.7581 12.8845 18.3361 13.4767C18.76 13.9057 19.2363 14.269 19.746 14.5899C19.7546 14.5199 19.7546 14.5199 19.7634 14.4485C19.8361 13.9332 19.9696 13.5946 20.3846 13.2663C20.826 12.9703 21.36 12.9801 21.8728 12.985C21.9917 12.9859 22.1105 12.985 22.2295 12.9839C22.343 12.9842 22.343 12.9842 22.4589 12.9846C22.5273 12.9848 22.5957 12.985 22.6661 12.9852C22.8869 13.0123 23.0445 13.0838 23.203 13.2423C23.2377 13.6656 23.2377 13.6656 23.1091 13.8341C22.9225 13.982 22.8078 13.9746 22.5715 13.9749C22.4943 13.976 22.4171 13.9771 22.3375 13.9782C22.2561 13.9784 22.1748 13.9784 22.0934 13.9784C21.9341 13.9786 21.775 13.9802 21.6157 13.9823C21.5098 13.9823 21.5098 13.9823 21.4017 13.9824C21.1366 14.0124 20.9867 14.1109 20.8007 14.297C20.7922 14.4482 20.7897 14.5928 20.7933 14.7437C20.7939 14.7851 20.7944 14.8265 20.7949 14.8692C20.7963 14.9714 20.7984 15.0736 20.8007 15.1759C21.7849 15.4907 22.8869 15.5622 23.8366 15.0807C24.6024 14.6186 25.1159 13.9577 25.4296 13.1251C25.4296 13.0864 25.4296 13.0477 25.4296 13.0079C25.3639 13.0057 25.2983 13.0035 25.2307 13.0013C25.1444 12.9974 25.0581 12.9935 24.9718 12.9896C24.9069 12.9876 24.9069 12.9876 24.8408 12.9856C24.5214 12.9697 24.5214 12.9697 24.3772 12.8694C24.2831 12.7213 24.2681 12.596 24.2577 12.422C24.3013 12.2476 24.3261 12.159 24.481 12.0637C24.6161 12.0091 24.7179 11.9938 24.8629 11.9875C24.9331 11.9841 24.9331 11.9841 25.0048 11.9807C25.0773 11.978 25.0773 11.978 25.1512 11.9752C25.2005 11.9729 25.2497 11.9707 25.3005 11.9683C25.4216 11.9628 25.5428 11.958 25.6639 11.9532C25.7519 11.7773 25.728 11.6139 25.7262 11.4185C25.7254 11.3059 25.7254 11.3059 25.7246 11.191C25.7239 11.1332 25.7232 11.0753 25.7225 11.0157C25.6883 11.0149 25.654 11.014 25.6187 11.0131C25.4628 11.0088 25.3071 11.0031 25.1512 10.9974C25.0704 10.9954 25.0704 10.9954 24.9878 10.9934C24.9357 10.9913 24.8836 10.9892 24.8299 10.9871C24.782 10.9856 24.7342 10.984 24.6848 10.9825C24.5203 10.9514 24.438 10.895 24.3163 10.7813C24.2421 10.5588 24.2477 10.4564 24.3309 10.2357C24.4335 10.0782 24.4335 10.0782 24.6093 10.0196C24.6917 10.0111 24.7744 10.0052 24.8571 10.0011C24.9042 9.99863 24.9512 9.99617 24.9996 9.99364C25.0484 9.99134 25.0973 9.98904 25.1476 9.98666C25.1971 9.98413 25.2466 9.9816 25.2976 9.979C25.4197 9.97279 25.5418 9.96688 25.6639 9.96103C25.4985 8.64212 25.2553 7.37752 24.3749 6.32822C24.3362 6.30888 24.2975 6.28954 24.2577 6.26962C24.2569 6.30935 24.256 6.34908 24.2552 6.39001C24.2311 6.85904 24.1377 7.26991 23.7949 7.61064C23.4482 7.88497 23.1207 7.99642 22.6789 7.98303C22.5585 7.96884 22.5585 7.96884 22.412 7.90659C22.2788 7.73452 22.2692 7.59803 22.2655 7.3829C22.3131 7.22177 22.3131 7.22177 22.4413 7.08994C22.5891 7.03702 22.7346 6.99831 22.8881 6.96519C23.0634 6.90089 23.1061 6.83796 23.203 6.67978C23.3054 6.22138 23.3229 5.66984 23.203 5.21494C22.9928 4.90761 22.6624 4.76001 22.3241 4.629C22.3048 4.629 22.2854 4.629 22.2655 4.629C22.264 4.6618 22.2626 4.69461 22.2611 4.7284C22.2543 4.87717 22.2471 5.02591 22.2399 5.17465C22.2364 5.25209 22.2364 5.25209 22.2329 5.33109C22.2304 5.38075 22.228 5.43042 22.2255 5.48158C22.2233 5.5273 22.2212 5.57302 22.2189 5.62013C22.2069 5.74228 22.2069 5.74228 22.1483 5.91806C22.0557 5.93273 21.9629 5.94586 21.87 5.95834C21.8183 5.96582 21.7667 5.9733 21.7134 5.981C21.5265 5.97562 21.4599 5.9307 21.328 5.80087C21.2635 5.60739 21.2573 5.45278 21.2509 5.24904C21.2472 5.13886 21.2472 5.13886 21.2434 5.02645C21.2411 4.94967 21.2388 4.8729 21.2365 4.79379C21.2339 4.71555 21.2314 4.63731 21.2288 4.55907C21.2226 4.36754 21.2166 4.17601 21.2108 3.98447C20.7451 3.72954 20.292 3.52885 19.7826 3.37656C19.7339 3.36189 19.6852 3.34723 19.635 3.33212C19.3331 3.24525 19.07 3.20417 18.7499 3.16415C18.7499 3.58954 18.7499 4.01494 18.7499 4.45322C18.8514 4.46047 18.9529 4.46772 19.0575 4.47519C19.2739 4.49065 19.4465 4.50568 19.6288 4.629C19.7179 4.84377 19.7626 4.97674 19.702 5.20395C19.6288 5.33212 19.6288 5.33212 19.5116 5.44931C19.26 5.47624 19.0065 5.46829 18.7535 5.46762C18.6829 5.46856 18.6122 5.46951 18.5394 5.47048C18.438 5.47054 18.438 5.47054 18.3345 5.4706C18.2723 5.47077 18.2101 5.47095 18.1461 5.47113C17.9882 5.44931 17.9882 5.44931 17.8823 5.37474C17.7177 5.13647 17.7417 4.86063 17.7352 4.58047C17.734 4.53659 17.7328 4.4927 17.7316 4.44748C17.7277 4.3078 17.7243 4.16811 17.7208 4.02841C17.7183 3.9335 17.7157 3.83859 17.7132 3.74368C17.7069 3.51145 17.701 3.27921 17.6952 3.04697C17.3858 3.04697 17.0764 3.04697 16.7577 3.04697ZM18.8671 15.3517C18.7675 15.656 18.7272 15.9254 18.7279 16.2452C18.7281 16.3105 18.7281 16.3105 18.7282 16.3771C18.7413 16.9688 18.9437 17.4738 19.3619 17.9C19.7544 18.2491 20.1574 18.5809 20.5713 18.9041C20.9407 19.2071 21.2889 19.6094 21.5038 20.0392C21.5425 20.0392 21.5811 20.0392 21.621 20.0392C21.6831 19.7138 21.7357 19.3896 21.7617 19.0593C21.8357 18.1226 22.0484 17.387 22.5585 16.5821C22.5778 16.5435 22.5971 16.5048 22.6171 16.4649C22.5632 16.4615 22.5632 16.4615 22.5082 16.4579C21.3486 16.3794 20.4162 16.2073 19.3944 15.6446C19.3363 15.6131 19.2782 15.5816 19.2184 15.5492C19.1006 15.4845 18.9835 15.4189 18.8671 15.3517Z" fill="#F79831"/>
<path d="M15.26 4.95472C15.3345 4.95355 15.409 4.95238 15.4858 4.95117C15.993 4.95143 16.3556 5.01753 16.7736 5.30674C17.1788 5.71505 17.3042 6.13321 17.3108 6.69788C17.3114 6.73783 17.312 6.77779 17.3126 6.81895C17.3081 7.07386 17.2649 7.23861 17.1094 7.44129C16.9192 7.53638 16.729 7.53138 16.5234 7.49989C16.3513 7.40467 16.3513 7.40467 16.2305 7.20692C16.206 6.99806 16.1975 6.79463 16.1973 6.58436C16.1653 6.33561 16.1369 6.24902 15.9375 6.09364C15.7121 6.05175 15.4923 6.05546 15.2637 6.06068C15.2024 6.06003 15.1412 6.05939 15.078 6.05873C14.7422 6.05006 14.7422 6.05006 14.4552 6.2009C14.3159 6.37842 14.3261 6.51141 14.3225 6.7345C14.3172 7.02515 14.2984 7.20585 14.1211 7.44129C13.9863 7.50867 13.8976 7.51346 13.7475 7.5182C13.7024 7.52039 13.6572 7.52258 13.6107 7.52483C13.4766 7.49989 13.4766 7.49989 13.3445 7.4168C13.1891 7.18698 13.2047 6.97315 13.2092 6.70155C13.2098 6.64882 13.2104 6.59609 13.211 6.54176C13.2275 6.02603 13.3508 5.66648 13.7292 5.30628C14.1754 4.92984 14.7078 4.95165 15.26 4.95472Z" fill="#F79831"/>
<path d="M11.8946 7.47441C11.9728 7.47152 11.9728 7.47152 12.0526 7.46858C12.3197 7.46638 12.442 7.47121 12.6616 7.63532C12.8088 7.84272 12.8136 7.95373 12.7735 8.20317C12.6105 8.47102 12.6105 8.47102 12.4378 8.53185C12.2002 8.57273 11.9591 8.57503 11.7186 8.5854C11.5321 8.61507 11.4764 8.63932 11.3673 8.78911C11.2569 9.06017 11.2781 9.38407 11.3563 9.66069C11.4233 9.80275 11.4233 9.80275 11.6017 9.90239C11.808 9.92013 12.0131 9.92456 12.2201 9.9294C12.4526 9.96577 12.5491 10.032 12.7149 10.1954C12.8069 10.3793 12.7942 10.5199 12.7735 10.7227C12.6559 10.8852 12.5624 10.9964 12.3615 11.0437C12.2205 11.0553 12.0837 11.0563 11.9422 11.0523C11.8925 11.0514 11.8427 11.0505 11.7915 11.0495C11.259 11.0283 10.9122 10.8802 10.547 10.4883C10.1707 10.0167 10.1661 9.48976 10.1954 8.9063C10.2599 8.3703 10.4934 8.05862 10.8928 7.70604C11.2103 7.47663 11.5154 7.47689 11.8946 7.47441Z" fill="#F79831"/>
<path d="M21.0938 6.56251C21.2474 6.70554 21.2683 6.78823 21.2988 6.9983C21.2611 7.26741 21.1882 7.33313 20.9766 7.50001C20.8098 7.53524 20.6682 7.55646 20.5005 7.56593C20.1967 7.57766 20.1967 7.57766 19.9237 7.69548C19.8197 7.8633 19.8428 8.01236 19.8633 8.20314C19.9706 8.35641 20.0338 8.37715 20.2148 8.43751C20.3393 8.44342 20.4638 8.44817 20.5884 8.45216C20.8403 8.47069 20.955 8.48226 21.1707 8.62062C21.297 8.83583 21.3091 8.95332 21.2695 9.19923C21.1443 9.39783 21.0834 9.47613 20.8594 9.55079C20.2594 9.59455 19.6806 9.55196 19.1915 9.17153C18.8561 8.83784 18.7406 8.48135 18.7317 8.01637C18.7312 7.5146 18.8423 7.23217 19.1785 6.86647C19.6587 6.41596 20.4955 6.27469 21.0938 6.56251Z" fill="#F79831"/>
<path d="M15.4689 6.97255C15.6243 7.06926 15.6788 7.10827 15.7618 7.26551C15.8064 7.53326 15.8026 7.79667 15.7984 8.06752C15.7996 8.13954 15.8007 8.21155 15.8019 8.28576C15.7991 8.79687 15.7188 9.21588 15.3677 9.60381C14.9965 9.96194 14.5529 10.0504 14.0516 10.0487C13.983 10.0512 13.983 10.0512 13.913 10.0538C13.6643 10.0546 13.5632 10.0405 13.3586 9.88598C13.1841 9.64656 13.2008 9.54793 13.2423 9.2577C13.3519 9.11525 13.4346 9.04438 13.5939 8.96473C13.8012 8.95304 14.0084 8.94607 14.216 8.93979C14.4116 8.91808 14.4116 8.91808 14.5554 8.82649C14.7059 8.57643 14.6813 8.31722 14.6815 8.0309C14.6847 7.32055 14.6847 7.32055 14.8829 7.08973C15.1027 6.94323 15.2086 6.94114 15.4689 6.97255Z" fill="#F79831"/>
<path d="M22.9101 8.96477C23.106 9.03549 23.1414 9.0773 23.2617 9.25774C23.2911 9.52167 23.2861 9.78703 23.2873 10.0524C23.2892 10.125 23.2912 10.1975 23.2932 10.2723C23.2962 10.7881 23.2246 11.2065 22.8658 11.596C22.4854 11.9558 22.0922 12.0425 21.5844 12.0409C21.5356 12.0426 21.4869 12.0443 21.4366 12.046C21.1799 12.0468 21.0678 12.036 20.8564 11.8782C20.6846 11.6383 20.7008 11.5392 20.7422 11.2499C20.8517 11.1075 20.9344 11.0366 21.0937 10.957C21.301 10.9453 21.5083 10.9383 21.7158 10.932C21.9115 10.9103 21.9115 10.9103 22.0552 10.8187C22.2058 10.5687 22.1812 10.3094 22.1814 10.0231C22.1846 9.31277 22.1846 9.31277 22.3828 9.08195C22.5872 8.9457 22.67 8.94516 22.9101 8.96477Z" fill="#F79831"/>
<path d="M17.5195 9.02334C17.6919 9.15347 17.7476 9.22199 17.7855 9.43693C17.7872 9.50226 17.7888 9.5676 17.7905 9.63491C17.7981 9.88614 17.8063 10.0896 17.9297 10.3124C18.1247 10.4615 18.3324 10.4431 18.5706 10.4479C18.9582 10.4717 18.9582 10.4717 19.1821 10.6127C19.3038 10.828 19.3165 10.9474 19.2773 11.1913C19.1521 11.3899 19.0912 11.4682 18.8672 11.5429C18.2111 11.5867 17.6789 11.5402 17.1558 11.1215C16.7802 10.7426 16.6916 10.3052 16.6809 9.78872C16.683 9.45323 16.6944 9.26255 16.9336 9.02334C17.1566 8.94901 17.2913 8.9713 17.5195 9.02334Z" fill="#F79831"/>
</g>
<defs>
<clipPath id="clip0_82_14136">
<rect width="30" height="30" fill="white"/>
</clipPath>
</defs>
</svg>
