<svg width="20" height="20" viewBox="0 0 20 20" fill="none" xmlns="http://www.w3.org/2000/svg">
<g clip-path="url(#clip0_82_13401)">
<path d="M7.00439 0.266143C7.11489 0.34026 7.136 0.35231 7.27539 0.344268C7.32373 0.333794 7.37207 0.323321 7.42187 0.31253C7.83857 0.283568 8.19165 0.329747 8.52249 0.598174C8.65523 0.720963 8.78578 0.852834 8.86719 1.01565C8.90425 1.00921 8.94131 1.00276 8.97949 0.996124C9.42795 0.934765 9.81683 0.990277 10.1912 1.25796C10.3824 1.42113 10.5317 1.60468 10.6006 1.84817C10.6324 1.94727 10.6485 1.98257 10.7381 2.03815C10.7988 2.0633 10.8601 2.08738 10.9216 2.11047C11.2728 2.25244 11.4833 2.53969 11.6278 2.87952C11.7027 3.08587 11.6847 3.28241 11.6717 3.49818C11.665 3.68964 11.665 3.68964 11.7526 3.85821C11.7801 3.88697 11.8076 3.91572 11.8359 3.94534C12.038 4.3199 12.0713 4.66286 11.9778 5.0751C11.9531 5.15628 11.9531 5.15628 11.9089 5.23013C11.8375 5.40365 11.927 5.60046 11.9751 5.77396C12.0619 6.11879 12.083 6.4945 11.8985 6.81308C11.8675 6.86308 11.8675 6.86308 11.8359 6.91409C11.7251 7.10419 11.698 7.25869 11.6821 7.47317C11.6437 7.94378 11.454 8.31893 11.102 8.64154C10.8213 8.86722 10.8213 8.86722 10.625 8.86722C10.6315 8.90216 10.6381 8.93711 10.6448 8.97311C10.7275 9.46388 10.6761 9.80974 10.3979 10.2222C10.3125 10.3125 10.3125 10.3125 10.2446 10.3458C10.1534 10.3923 10.1026 10.4263 10.0391 10.5078C10.0128 10.6379 9.99899 10.7629 9.98828 10.8948C9.95823 11.2345 9.82555 11.4564 9.57031 11.6797C9.50565 11.7323 9.44062 11.7845 9.375 11.836C9.34922 11.8617 9.32344 11.8875 9.29687 11.9141C9.33746 11.9358 9.37804 11.9576 9.41986 11.98C9.74255 12.1556 10.0359 12.3342 10.3125 12.5782C10.3117 12.5556 10.3109 12.533 10.31 12.5097C10.2932 11.9762 10.2829 11.5184 10.6371 11.0852C10.9153 10.7922 11.2163 10.6614 11.6204 10.6489C11.7193 10.6481 11.8183 10.648 11.9173 10.6483C11.9721 10.6481 12.0269 10.6478 12.0818 10.6475C12.2298 10.6468 12.3778 10.6468 12.5258 10.6471C12.6498 10.6472 12.7737 10.6469 12.8977 10.6467C13.1903 10.6462 13.4829 10.6462 13.7755 10.6467C14.0766 10.6471 14.3776 10.6466 14.6786 10.6455C14.9379 10.6447 15.1972 10.6444 15.4564 10.6446C15.6109 10.6448 15.7654 10.6447 15.9199 10.644C16.0653 10.6434 16.2106 10.6435 16.3559 10.6443C16.4341 10.6445 16.5123 10.6439 16.5905 10.6433C17.0467 10.647 17.3558 10.7584 17.6874 11.0738C17.9175 11.3361 18.0128 11.6193 18.0125 11.963C18.0126 12.0382 18.0126 12.0382 18.0127 12.115C18.0125 12.1705 18.0124 12.226 18.0122 12.2816C18.0122 12.3401 18.0122 12.3986 18.0123 12.4571C18.0123 12.6159 18.012 12.7748 18.0118 12.9336C18.0115 13.0996 18.0115 13.2656 18.0115 13.4316C18.0113 13.7459 18.011 14.0602 18.0106 14.3745C18.0102 14.7323 18.01 15.0902 18.0098 15.448C18.0094 16.1841 18.0087 16.9202 18.0078 17.6563C18.0527 17.6557 18.0977 17.6551 18.1439 17.6544C18.3112 17.6523 18.4785 17.651 18.6458 17.6498C18.7181 17.6493 18.7904 17.6485 18.8627 17.6474C18.9668 17.646 19.071 17.6454 19.1751 17.6448C19.2072 17.6442 19.2393 17.6436 19.2724 17.643C19.4931 17.6429 19.6621 17.6768 19.8299 17.8334C20.013 18.0729 20.0094 18.2201 20.0122 18.5157C20.0133 18.5549 20.0145 18.5941 20.0156 18.6345C20.019 19.0337 19.913 19.3321 19.6371 19.6219C19.2797 19.9729 18.9132 20.0233 18.4257 20.0202C18.3704 20.0205 18.3151 20.0207 18.2598 20.0211C18.1107 20.0218 17.9617 20.0215 17.8126 20.021C17.656 20.0206 17.4994 20.021 17.3428 20.0212C17.08 20.0215 16.8171 20.0211 16.5543 20.0204C16.2511 20.0196 15.9479 20.0198 15.6447 20.0207C15.3836 20.0214 15.1224 20.0215 14.8613 20.0211C14.7057 20.0208 14.5501 20.0208 14.3945 20.0213C14.2482 20.0218 14.1019 20.0215 13.9556 20.0206C13.8768 20.0203 13.798 20.0207 13.7192 20.0212C13.265 20.017 12.9473 19.8837 12.6172 19.5703C12.3286 19.2315 12.2869 18.7952 12.2914 18.367C12.2914 18.3231 12.2913 18.2793 12.2913 18.234C12.2914 18.0905 12.2923 17.947 12.2932 17.8035C12.2935 17.7034 12.2936 17.6033 12.2937 17.5032C12.2941 17.2676 12.2951 17.0321 12.2962 16.7965C12.2976 16.528 12.2982 16.2595 12.2988 15.991C12.3 15.4393 12.3022 14.8877 12.3047 14.336C12.034 14.336 11.7633 14.336 11.4844 14.336C11.5339 14.5165 11.5339 14.5165 11.5837 14.697C11.5899 14.7201 11.5962 14.7432 11.6026 14.767C11.609 14.7901 11.6153 14.8133 11.6218 14.8371C11.6756 15.0799 11.6858 15.317 11.6866 15.5644C11.6869 15.6004 11.6871 15.6364 11.6874 15.6735C11.6881 15.7919 11.6886 15.9102 11.689 16.0286C11.6892 16.0693 11.6893 16.1099 11.6895 16.1518C11.6903 16.3667 11.6908 16.5817 11.6912 16.7967C11.6916 17.018 11.693 17.2393 11.6945 17.4606C11.6956 17.6315 11.6959 17.8024 11.696 17.9732C11.6962 18.0548 11.6967 18.1364 11.6974 18.2179C11.6984 18.3323 11.6983 18.4467 11.698 18.5611C11.6988 18.6109 11.6988 18.6109 11.6996 18.6618C11.6963 19.0401 11.5464 19.3727 11.2891 19.6485C10.984 19.9276 10.6802 20.0179 10.2744 20.0152C10.2363 20.0154 10.1981 20.0156 10.1588 20.0158C10.0316 20.0164 9.90439 20.0161 9.77715 20.0158C9.6857 20.016 9.59424 20.0163 9.50279 20.0166C9.25478 20.0173 9.00677 20.0173 8.75875 20.0171C8.52537 20.0169 8.29199 20.0172 8.05861 20.0175C7.56816 20.018 7.07771 20.0178 6.58726 20.0174C6.13903 20.017 5.6908 20.0175 5.24257 20.0184C4.78177 20.0194 4.32097 20.0198 3.86017 20.0195C3.60168 20.0194 3.3432 20.0195 3.08472 20.0201C2.84165 20.0207 2.5986 20.0206 2.35553 20.0198C2.26642 20.0197 2.17731 20.0198 2.0882 20.0202C1.96636 20.0208 1.84456 20.0203 1.72273 20.0196C1.68764 20.02 1.65255 20.0204 1.6164 20.0207C1.24789 20.0165 0.930404 19.8623 0.664061 19.6094C0.399952 19.2927 0.294242 18.9551 0.297335 18.547C0.297129 18.513 0.296924 18.4789 0.296712 18.4439C0.2962 18.3323 0.296537 18.2207 0.296934 18.1092C0.296855 18.0307 0.296741 17.9522 0.296594 17.8737C0.296422 17.7094 0.296671 17.5451 0.29722 17.3808C0.297884 17.1721 0.297506 16.9633 0.296802 16.7546C0.296374 16.5924 0.296515 16.4303 0.296817 16.2681C0.296894 16.1913 0.296802 16.1144 0.296526 16.0375C0.29296 14.7651 0.639117 13.662 1.53229 12.7259C1.82083 12.4365 2.14374 12.23 2.49512 12.0267C2.61616 11.9604 2.61616 11.9604 2.69531 11.875C2.64697 11.8472 2.64697 11.8472 2.59765 11.8189C2.29795 11.6165 2.07706 11.3295 1.99219 10.9766C1.98755 10.8961 1.98433 10.8155 1.98242 10.7349C1.97567 10.6 1.97145 10.531 1.88705 10.4242C1.80736 10.3567 1.7255 10.2952 1.64062 10.2344C1.36182 9.94786 1.31297 9.62208 1.31672 9.23964C1.32019 9.1108 1.3283 8.99052 1.36719 8.86722C1.33848 8.86324 1.30978 8.85926 1.28021 8.85516C0.984268 8.78139 0.716089 8.48697 0.546873 8.24222C0.380357 7.9507 0.333329 7.67255 0.304974 7.34466C0.285666 7.15021 0.249122 7.01641 0.125731 6.86481C-0.0149364 6.66418 -0.0149303 6.43902 -0.0146503 6.20364C-0.0148139 6.17066 -0.0149776 6.13769 -0.0151462 6.10371C-0.0124117 5.91124 0.00870892 5.76181 0.0878888 5.58353C0.150608 5.44597 0.150608 5.44597 0.131834 5.30139C0.10181 5.23894 0.0714812 5.17664 0.0408917 5.11447C-0.0799893 4.77618 -0.0395278 4.34939 0.10681 4.02652C0.156248 3.94534 0.156248 3.94534 0.239866 3.85715C0.336626 3.71445 0.323496 3.59748 0.312498 3.43265C0.299754 3.01988 0.39295 2.70531 0.661772 2.3833C0.85584 2.19365 1.09104 2.04581 1.36719 2.03128C1.3688 2.00066 1.37041 1.97005 1.37207 1.93851C1.45962 1.57578 1.68108 1.32776 1.99219 1.13284C2.35035 0.939103 2.73303 0.947486 3.125 1.01565C3.13829 0.995815 3.15159 0.975976 3.16528 0.955535C3.40546 0.614428 3.69111 0.408046 4.10156 0.31253C4.31145 0.293902 4.50682 0.297204 4.71191 0.34671C4.89348 0.353434 4.98423 0.274659 5.13397 0.178558C5.67441 -0.151622 6.49293 -0.0819613 7.00439 0.266143ZM5.2124 1.00589C5.09976 1.09718 5.02468 1.15217 4.87793 1.15726C4.71991 1.13177 4.5992 1.0794 4.45312 1.01565C4.23771 0.984322 4.11074 1.03308 3.93707 1.15344C3.74042 1.31531 3.68415 1.51232 3.62915 1.75113C3.59375 1.83597 3.59375 1.83597 3.52142 1.88693C3.38624 1.93068 3.25925 1.91219 3.125 1.87503C3.08713 1.84925 3.04927 1.82347 3.01025 1.7969C2.85343 1.69449 2.72538 1.6674 2.53906 1.67972C2.34903 1.72842 2.22467 1.81858 2.11426 1.98001C2.034 2.12287 1.99823 2.2612 1.97479 2.42267C1.94734 2.52067 1.91739 2.55635 1.83594 2.61722C1.73874 2.6488 1.73874 2.6488 1.62842 2.67337C1.42142 2.72689 1.25107 2.77695 1.1232 2.96054C1.02599 3.13477 0.992774 3.27476 1.01562 3.47659C1.02851 3.50801 1.0414 3.53943 1.05469 3.57181C1.10909 3.71123 1.12349 3.8369 1.09375 3.9844C1.00586 4.08939 1.00586 4.08939 0.898436 4.17972C0.721987 4.39048 0.689893 4.50192 0.691679 4.77481C0.707277 4.92206 0.764577 5.00569 0.859373 5.11722C0.955796 5.26185 0.968897 5.37914 0.937498 5.5469C0.894202 5.62555 0.846153 5.69119 0.788725 5.76007C0.667294 5.91733 0.683536 6.12092 0.683745 6.3103C0.705462 6.46164 0.747131 6.53121 0.837401 6.65286C0.967488 6.83082 0.999013 6.97346 1.00342 7.18997C1.01065 7.50094 1.03997 7.74493 1.25488 7.98236C1.44186 8.1592 1.44186 8.1592 1.67969 8.24222C1.67787 8.21618 1.67606 8.19015 1.67419 8.16333C1.66277 7.87175 1.7204 7.64951 1.83594 7.38284C1.81519 7.362 1.79444 7.34115 1.77307 7.31967C1.74548 7.29057 1.71788 7.26146 1.68945 7.23147C1.66226 7.20338 1.63507 7.17528 1.60705 7.14633C1.35802 6.80368 1.34465 6.47099 1.35254 6.05716C1.35259 6.00587 1.35264 5.95459 1.35269 5.90175C1.35618 5.52435 1.35618 5.52435 1.44531 5.39065C1.56199 5.35031 1.67409 5.34047 1.79687 5.35159C1.90185 5.43948 1.90185 5.43948 1.99219 5.5469C2.12164 5.62954 2.19457 5.66473 2.34863 5.66165C2.48492 5.61721 2.53282 5.58514 2.61719 5.46878C2.65161 5.37881 2.68043 5.28896 2.7066 5.19626C2.73437 5.11722 2.73437 5.11722 2.8125 5.03909C2.88608 5.02078 2.96025 5.00483 3.03467 4.99026C3.25642 4.93782 3.40938 4.86546 3.55469 4.68753C3.64186 4.54224 3.65794 4.39758 3.68133 4.23205C3.71948 4.11426 3.75831 4.08092 3.86719 4.02347C3.96545 4.01614 3.96545 4.01614 4.07226 4.02347C4.2749 4.0275 4.43688 4.01976 4.60937 3.90628C4.69821 3.81871 4.77824 3.72812 4.85687 3.63132C4.94814 3.52377 4.98701 3.51713 5.12939 3.50101C5.31389 3.51977 5.34885 3.57308 5.46875 3.71097C5.51519 3.75411 5.56243 3.79642 5.61035 3.83792C5.64373 3.86723 5.64373 3.86723 5.67779 3.89712C5.82001 4.00362 5.96198 3.99841 6.13281 3.9844C6.36641 3.90814 6.47332 3.80447 6.60156 3.59378C6.72651 3.50215 6.8401 3.49703 6.99219 3.51565C7.116 3.59417 7.18931 3.67431 7.27783 3.79153C7.40622 3.93187 7.50941 3.98836 7.69531 4.02347C7.76938 4.02347 7.84347 4.02177 7.91748 4.01858C8.06719 4.01527 8.11308 4.01617 8.24463 4.09671C8.31788 4.21486 8.3354 4.27596 8.35693 4.40921C8.39142 4.61956 8.46157 4.75269 8.63281 4.88284C8.74712 4.93642 8.86217 4.96942 8.98437 5.00003C9.21052 5.06993 9.21052 5.06993 9.29687 5.15628C9.32865 5.24397 9.3539 5.33264 9.37973 5.42224C9.41729 5.51591 9.45303 5.56211 9.53125 5.62503C9.67332 5.66923 9.74476 5.67176 9.88525 5.62015C10.0047 5.551 10.0047 5.551 10.0952 5.44192C10.1953 5.35159 10.1953 5.35159 10.3345 5.32962C10.4881 5.35475 10.5334 5.38458 10.625 5.50784C10.7558 5.90034 10.7059 6.51856 10.5441 6.89395C10.4506 7.07388 10.3441 7.20738 10.1953 7.34378C10.1824 7.36956 10.1695 7.39534 10.1562 7.4219C10.1871 7.49348 10.1871 7.49348 10.2319 7.57327C10.3369 7.7944 10.3271 8.00204 10.3125 8.24222C10.5737 8.18487 10.7225 8.03119 10.871 7.81787C10.9929 7.59039 10.9873 7.36757 10.9933 7.11616C11.0028 6.90274 11.0467 6.7853 11.1938 6.6254C11.3284 6.47474 11.3356 6.29128 11.3281 6.09866C11.3092 5.94039 11.263 5.84606 11.1694 5.7178C11.0695 5.57994 11.0184 5.48584 11.031 5.3139C11.0707 5.18072 11.1532 5.07869 11.2338 4.96707C11.3137 4.84524 11.3308 4.75443 11.3281 4.6094C11.2799 4.391 11.1908 4.24535 11.0156 4.10159C10.9898 4.10159 10.9641 4.10159 10.9375 4.10159C10.8603 3.86989 10.8892 3.69509 10.9766 3.47659C11.0029 3.24666 10.9748 3.11068 10.8415 2.92026C10.6763 2.73203 10.4761 2.67778 10.235 2.64026C10.1361 2.61132 10.1 2.58327 10.0391 2.50003C10.0088 2.39429 10.0088 2.39429 9.98535 2.27298C9.93517 2.05881 9.89155 1.94315 9.72656 1.7969C9.54226 1.68703 9.40014 1.66247 9.1925 1.69284C9.08993 1.7221 9.01186 1.76593 8.9209 1.82132C8.79282 1.89879 8.7554 1.91409 8.59863 1.91409C8.4759 1.87482 8.43708 1.85554 8.35937 1.75784C8.34045 1.68048 8.34045 1.68048 8.33008 1.59427C8.28741 1.37482 8.17224 1.2403 8.00781 1.09378C7.85422 1.00163 7.71611 1.00039 7.53906 1.01565C7.49475 1.03499 7.45044 1.05433 7.40478 1.07425C7.24639 1.14094 7.11972 1.18087 6.95312 1.13284C6.84827 1.0606 6.7539 0.98056 6.65726 0.897704C6.41591 0.700661 6.17255 0.681248 5.86624 0.689727C5.59515 0.71907 5.41775 0.833422 5.2124 1.00589ZM5.11719 4.37503C5.0761 4.40403 5.03501 4.43304 4.99267 4.46292C4.847 4.55692 4.7142 4.59488 4.5459 4.63382C4.39604 4.67612 4.3187 4.69877 4.2218 4.82226C4.18388 4.89698 4.14761 4.97255 4.113 5.04886C3.98644 5.31805 3.80179 5.4295 3.53271 5.53958C3.29565 5.64025 3.21441 5.73766 3.10074 5.96332C2.98716 6.15605 2.79113 6.23962 2.58301 6.3013C2.40047 6.34021 2.21691 6.335 2.03125 6.32815C2.04002 6.54301 2.08921 6.65906 2.23694 6.81628C2.3828 6.94276 2.5359 6.98729 2.72461 7.00931C2.92255 7.05363 3.02927 7.20975 3.15559 7.35635C3.38407 7.61904 3.65395 7.81508 3.98437 7.92972C4.02305 7.92972 4.06172 7.92972 4.10156 7.92972C4.11531 7.89296 4.12905 7.8562 4.14322 7.81833C4.27531 7.47949 4.39509 7.26529 4.71973 7.0883C4.93215 6.99874 5.15593 7.01301 5.38284 7.01297C5.43095 7.01267 5.47906 7.01237 5.52862 7.01207C5.63017 7.01165 5.73172 7.01153 5.83327 7.01171C5.98785 7.01175 6.14235 7.01012 6.29692 7.00839C6.39587 7.00819 6.49483 7.00808 6.59378 7.00809C6.63961 7.00745 6.68544 7.00681 6.73266 7.00615C7.08947 7.00912 7.37532 7.09092 7.63183 7.34866C7.76572 7.5202 7.82737 7.72396 7.89062 7.92972C8.24657 7.88529 8.58447 7.68481 8.82812 7.4219C8.86811 7.36176 8.90798 7.30153 8.94775 7.24124C9.09869 7.03598 9.27732 7.00122 9.51935 6.95117C9.70965 6.89651 9.8114 6.81027 9.91455 6.6431C9.96039 6.52486 9.96493 6.45254 9.96094 6.32815C9.92544 6.33019 9.92544 6.33019 9.88922 6.33227C9.55421 6.3431 9.23956 6.28744 8.96744 6.08035C8.89166 6.00023 8.84781 5.91531 8.79638 5.8179C8.68728 5.62088 8.59103 5.57699 8.38241 5.50891C8.10723 5.39975 7.94048 5.19519 7.82226 4.93167C7.75424 4.79411 7.72021 4.73856 7.58041 4.67136C7.49276 4.64637 7.40446 4.62356 7.31567 4.603C7.13683 4.55744 6.99101 4.4728 6.83594 4.37503C6.817 4.38822 6.79807 4.40142 6.77856 4.41501C6.43633 4.64272 6.0843 4.70899 5.67657 4.62756C5.47091 4.57036 5.29744 4.48867 5.11719 4.37503ZM4.84375 7.89065C4.79601 7.97472 4.79601 7.97472 4.76761 8.06216C4.75057 8.10854 4.75057 8.10854 4.7332 8.15585C4.72215 8.18758 4.71109 8.2193 4.69971 8.25198C4.67701 8.31575 4.65408 8.37944 4.63089 8.44302C4.61618 8.48504 4.61618 8.48504 4.60118 8.5279C4.57031 8.59378 4.57031 8.59378 4.49219 8.63284C3.89315 8.70051 3.33748 8.44497 2.87597 8.08353C2.7432 7.97337 2.61796 7.86024 2.5 7.7344C2.42333 7.79774 2.38468 7.84711 2.34619 7.93948C2.34316 8.07259 2.39689 8.1337 2.46536 8.24374C2.51972 8.36397 2.51351 8.46287 2.49267 8.59134C2.44487 8.71269 2.36599 8.75361 2.25738 8.8193C2.13743 8.90154 2.07703 9.00412 2.03125 9.14065C1.99728 9.36181 2.02034 9.53871 2.14844 9.72659C2.26319 9.83624 2.36365 9.91289 2.50732 9.9805C2.63858 10.0505 2.68088 10.096 2.73437 10.2344C2.72217 10.3614 2.72217 10.3614 2.69531 10.5078C2.67711 10.694 2.67486 10.8207 2.76367 10.9888C2.80718 11.0408 2.80718 11.0408 2.85156 11.0938C2.87346 11.1205 2.89537 11.1472 2.91794 11.1747C3.03595 11.2736 3.13271 11.2858 3.28369 11.3111C3.53548 11.3536 3.53548 11.3536 3.62594 11.4177C3.68178 11.4988 3.70947 11.5765 3.74023 11.67C3.84547 11.9424 4.00822 12.1105 4.26758 12.2437C4.50108 12.3376 4.76157 12.3451 5 12.2657C5.12175 12.2449 5.23024 12.2403 5.35156 12.2657C5.43163 12.3271 5.49291 12.3948 5.55969 12.4703C5.67972 12.5968 5.81061 12.6483 5.98282 12.6639C6.21281 12.6568 6.33402 12.5686 6.49505 12.4099C6.57504 12.3315 6.64128 12.2702 6.75537 12.2567C6.78196 12.2572 6.80854 12.2578 6.83594 12.2583C6.86252 12.2586 6.88911 12.2588 6.9165 12.2591C6.99219 12.2657 6.99219 12.2657 7.10937 12.3047C7.43245 12.3319 7.67656 12.2917 7.9541 12.1265C8.15207 11.9233 8.27514 11.6594 8.39844 11.4063C8.46646 11.3383 8.56705 11.3477 8.65967 11.3355C8.85581 11.3034 8.99103 11.2712 9.14062 11.1328C9.30004 10.908 9.3146 10.7494 9.29931 10.4785C9.29597 10.4129 9.29315 10.3471 9.29092 10.2814C9.28931 10.2527 9.28771 10.2239 9.28605 10.1943C9.30014 10.094 9.33646 10.0627 9.41406 10C9.46363 9.97462 9.51418 9.95106 9.56543 9.92923C9.75279 9.83986 9.86712 9.7189 9.96094 9.53128C9.99075 9.26393 9.9684 9.08263 9.80469 8.86722C9.72776 8.81337 9.64974 8.76104 9.57031 8.71097C9.4868 8.60567 9.49206 8.55704 9.49951 8.42044C9.53125 8.28128 9.53125 8.28128 9.59472 8.18362C9.67065 8.04559 9.65149 7.96136 9.60937 7.81253C9.53156 7.76435 9.53156 7.76435 9.45312 7.7344C9.43792 7.75379 9.42271 7.77318 9.40704 7.79315C9.05285 8.22324 8.5233 8.54482 7.96875 8.63284C7.55839 8.65231 7.55839 8.65231 7.38281 8.59378C7.35122 8.51825 7.35122 8.51825 7.32666 8.42044C7.28644 8.27466 7.24324 8.13233 7.18994 7.99075C7.17831 7.95938 7.16668 7.92801 7.15469 7.89569C7.09992 7.79518 7.05002 7.75582 6.95312 7.69534C6.86176 7.67727 6.86176 7.67727 6.76278 7.67894C6.7251 7.67832 6.68742 7.6777 6.6486 7.67706C6.60815 7.67705 6.5677 7.67704 6.52603 7.67703C6.48423 7.67673 6.44243 7.67644 6.39936 7.67613C6.31101 7.67571 6.22265 7.6756 6.13429 7.67577C5.99916 7.67581 5.86411 7.67419 5.72899 7.67245C5.64311 7.67225 5.55722 7.67215 5.47134 7.67215C5.43097 7.67151 5.3906 7.67087 5.34901 7.67021C5.11346 7.67247 4.98828 7.68569 4.84375 7.89065ZM11.1182 11.6431C11.0389 11.7864 11.0107 11.8886 11.0112 12.0497C11.0112 12.0849 11.0112 12.1201 11.0112 12.1563C11.0114 12.1942 11.0116 12.232 11.0118 12.271C11.0119 12.3098 11.0119 12.3487 11.012 12.3887C11.0122 12.5129 11.0127 12.6371 11.0132 12.7613C11.0134 12.8454 11.0136 12.9296 11.0137 13.0137C11.0141 13.2201 11.0149 13.4265 11.0156 13.6328C11.441 13.6328 11.8664 13.6328 12.3047 13.6328C12.3101 13.3833 12.3147 13.134 12.3176 12.8844C12.3187 12.7997 12.3203 12.7149 12.3224 12.6302C12.3252 12.5079 12.3265 12.3857 12.3276 12.2634C12.3294 12.2071 12.3294 12.2071 12.3312 12.1498C12.3314 11.8716 12.2541 11.6939 12.0703 11.4844C11.911 11.3676 11.7652 11.3462 11.572 11.3536C11.3692 11.3851 11.2441 11.4806 11.1182 11.6431ZM12.8516 11.3672C12.8598 11.3875 12.8681 11.4078 12.8767 11.4287C12.9953 11.7612 12.9851 12.092 12.9838 12.4397C12.9839 12.5082 12.9842 12.5767 12.9844 12.6452C12.9849 12.792 12.985 12.9389 12.9848 13.0857C12.9845 13.318 12.9851 13.5503 12.9859 13.7826C12.9875 14.3174 12.9879 14.8522 12.9884 15.387C12.9888 15.8777 12.9894 16.3684 12.991 16.8591C12.9918 17.0899 12.9919 17.3207 12.9916 17.5515C12.9916 17.6951 12.992 17.8387 12.9925 17.9823C12.9927 18.0487 12.9927 18.1152 12.9924 18.1817C12.9921 18.2726 12.9925 18.3634 12.993 18.4543C12.9931 18.5051 12.9931 18.5559 12.9931 18.6083C13.0202 18.8691 13.1186 19.0466 13.3203 19.2188C13.4876 19.3173 13.6382 19.3229 13.8281 19.2969C14.0171 19.2286 14.1469 19.1117 14.2578 18.9453C14.3013 18.815 14.3052 18.7065 14.3115 18.5694C14.3505 18.005 14.3505 18.005 14.5703 17.8125C14.7368 17.7016 14.8514 17.69 15.0475 17.6873C15.0975 17.6865 15.1476 17.6858 15.1991 17.685C15.2538 17.6843 15.3084 17.6836 15.363 17.683C15.4189 17.6822 15.4748 17.6814 15.5307 17.6805C15.6776 17.6784 15.8246 17.6764 15.9716 17.6746C16.1217 17.6726 16.2717 17.6704 16.4217 17.6683C16.7161 17.6641 17.0104 17.6601 17.3047 17.6563C17.3074 16.9015 17.3095 16.1466 17.3108 15.3918C17.3114 15.0413 17.3122 14.6908 17.3135 14.3404C17.3147 14.0349 17.3155 13.7294 17.3157 13.4239C17.3159 13.2621 17.3162 13.1004 17.3171 12.9386C17.3179 12.7864 17.3181 12.6341 17.3179 12.4818C17.318 12.4259 17.3182 12.3701 17.3187 12.3143C17.3192 12.2379 17.319 12.1615 17.3188 12.0851C17.3189 12.0424 17.319 11.9997 17.3191 11.9557C17.2993 11.791 17.2412 11.6591 17.1275 11.5374C16.9389 11.393 16.9389 11.393 16.7129 11.3625C16.6789 11.3625 16.6449 11.3624 16.6099 11.3624C16.5726 11.3625 16.5353 11.3626 16.4968 11.3628C16.4575 11.3628 16.4183 11.3628 16.3778 11.3628C16.2476 11.3628 16.1174 11.3631 15.9872 11.3634C15.8971 11.3635 15.8071 11.3635 15.717 11.3636C15.4795 11.3637 15.242 11.3641 15.0045 11.3645C14.7623 11.3649 14.5201 11.3651 14.278 11.3653C13.8025 11.3657 13.327 11.3664 12.8516 11.3672ZM3.35937 12.4219C3.28439 12.4517 3.20955 12.4819 3.13476 12.5122C3.09307 12.529 3.05138 12.5458 3.00842 12.563C2.9037 12.6112 2.82272 12.6613 2.73437 12.7344C2.79915 12.8936 2.91149 13.0088 3.02734 13.1324C3.05897 13.1662 3.05897 13.1662 3.09123 13.2007C4.52799 14.7215 6.56325 15.3928 8.59375 15.625C8.60664 15.625 8.61953 15.625 8.63281 15.625C8.63709 15.5926 8.64137 15.5601 8.64578 15.5266C8.65197 15.4842 8.65817 15.4417 8.66455 15.398C8.67339 15.3348 8.67339 15.3348 8.6824 15.2703C8.71206 15.1518 8.72739 15.1062 8.82812 15.0391C8.91235 15.0235 8.91235 15.0235 9.0039 15.0244C9.04922 15.024 9.04922 15.024 9.09546 15.0235C9.20127 15.0431 9.23048 15.0727 9.29687 15.1563C9.3119 15.2354 9.3119 15.2354 9.31245 15.3276C9.31294 15.3626 9.31343 15.3976 9.31393 15.4336C9.31388 15.4719 9.31382 15.5102 9.31376 15.5497C9.31436 15.6103 9.31436 15.6103 9.31497 15.6721C9.31615 15.8059 9.31651 15.9397 9.31686 16.0735C9.31752 16.1662 9.31823 16.2588 9.31899 16.3515C9.32085 16.5956 9.32201 16.8397 9.32303 17.0838C9.32419 17.3328 9.32601 17.5818 9.32777 17.8308C9.33114 18.3195 9.33379 18.8082 9.33594 19.2969C9.5041 19.3008 9.67224 19.3036 9.84043 19.3055C9.89756 19.3063 9.9547 19.3073 10.0118 19.3087C10.0943 19.3106 10.1766 19.3115 10.2591 19.3122C10.3086 19.313 10.3581 19.3138 10.4091 19.3146C10.6161 19.288 10.7342 19.1928 10.8716 19.0406C10.9921 18.8665 10.9828 18.7029 10.9835 18.4991C10.9839 18.4486 10.9839 18.4486 10.9843 18.3972C10.985 18.2856 10.9855 18.174 10.9859 18.0625C10.986 18.0242 10.9862 17.9859 10.9864 17.9465C10.9872 17.7433 10.9877 17.5402 10.9881 17.3371C10.9885 17.1288 10.9899 16.9206 10.9914 16.7124C10.9924 16.551 10.9928 16.3897 10.9929 16.2283C10.9931 16.1517 10.9935 16.0751 10.9943 15.9984C10.9996 15.407 11 14.6101 10.564 14.1529C10.5325 14.1231 10.5011 14.0932 10.4687 14.0625C10.4015 13.9436 10.3506 13.8256 10.3015 13.6981C10.04 13.0906 9.32392 12.7124 8.75 12.461C8.66641 12.4269 8.66641 12.4269 8.59375 12.4219C8.5473 12.4657 8.50131 12.5101 8.45825 12.5573C8.22389 12.7922 7.90773 12.9666 7.57149 12.9695C7.47439 12.9673 7.37734 12.9645 7.28027 12.9615C6.98877 12.9463 6.98877 12.9463 6.73828 13.0786C6.71648 13.0999 6.69467 13.1212 6.67221 13.1432C6.47642 13.3094 6.15814 13.3417 5.9082 13.3315C5.63567 13.2969 5.40866 13.2055 5.18326 13.0503C5.04745 12.9631 4.93206 12.9679 4.77539 12.9733C4.18748 12.9918 3.81005 12.7862 3.35937 12.4219ZM1.99158 13.2735C1.78136 13.5098 1.60569 13.7511 1.44531 14.0235C1.41638 14.0652 1.41638 14.0652 1.38687 14.1077C1.33623 14.1872 1.3076 14.2436 1.28906 14.336C1.31774 14.4195 1.31774 14.4195 1.36993 14.5012C1.39746 14.5475 1.39746 14.5475 1.42555 14.5947C1.51456 14.7352 1.60724 14.8722 1.7041 15.0074C1.7245 15.036 1.74489 15.0646 1.76591 15.0941C1.96326 15.369 2.1681 15.6369 2.38281 15.8985C2.40114 15.9209 2.41947 15.9433 2.43835 15.9664C2.93325 16.5664 3.48207 17.1452 4.10156 17.6172C4.14296 17.6507 4.18425 17.6843 4.22546 17.7181C4.96478 18.3191 5.8038 18.8058 6.67969 19.1797C6.72674 19.2004 6.7738 19.2211 6.82228 19.2423C7.00934 19.3114 7.18407 19.3118 7.38159 19.3083C7.43555 19.3081 7.43555 19.3081 7.4906 19.3078C7.60442 19.3072 7.71822 19.3057 7.83203 19.3042C7.90965 19.3036 7.98726 19.3031 8.06488 19.3026C8.25421 19.3014 8.44348 19.2991 8.63281 19.2969C8.63281 18.9746 8.63281 18.6524 8.63281 18.3203C8.55955 18.3066 8.48628 18.2928 8.4108 18.2787C7.04425 18.0173 5.60757 17.6591 4.41406 16.9141C4.33986 16.7966 4.33494 16.7354 4.34326 16.5967C4.37684 16.4779 4.39811 16.4426 4.49219 16.3672C4.82419 16.3193 5.04997 16.4505 5.33935 16.6016C5.43378 16.6491 5.52857 16.6959 5.62347 16.7424C5.64703 16.754 5.67058 16.7656 5.69485 16.7775C6.6016 17.2197 7.63726 17.4775 8.63281 17.6172C8.63281 17.1918 8.63281 16.7664 8.63281 16.3282C8.28971 16.2709 8.28971 16.2709 7.94617 16.2165C5.80069 15.8837 3.68319 15.0299 2.26562 13.3203C2.23984 13.2817 2.21406 13.243 2.1875 13.2032C2.06728 13.1901 2.06728 13.1901 1.99158 13.2735ZM1.05469 15.3516C0.97561 15.4307 1.00908 15.5935 1.00871 15.7021C1.00845 15.7347 1.0082 15.7674 1.00793 15.801C1.00716 15.9097 1.0067 16.0183 1.00632 16.1269C1.00616 16.164 1.006 16.201 1.00583 16.2392C1.00502 16.4356 1.00446 16.632 1.00409 16.8284C1.00366 17.031 1.00232 17.2336 1.00077 17.4361C0.999743 17.5921 0.999418 17.748 0.999278 17.9039C0.999088 17.9786 0.998634 18.0532 0.997909 18.1279C0.996954 18.2327 0.996994 18.3375 0.997265 18.4423C0.996765 18.4729 0.996264 18.5035 0.995749 18.535C0.997791 18.7531 1.05105 18.919 1.17187 19.1016C1.35989 19.2804 1.49808 19.3018 1.75216 19.3007C1.77801 19.3007 1.80386 19.3006 1.83048 19.3006C1.91287 19.3003 1.99525 19.2998 2.07763 19.2993C2.13356 19.2992 2.18948 19.299 2.24541 19.2988C2.38235 19.2984 2.5193 19.2977 2.65625 19.2969C2.6652 19.0085 2.67133 18.7202 2.67556 18.4317C2.67732 18.3337 2.67972 18.2356 2.68277 18.1376C2.68706 17.9963 2.68903 17.8552 2.69058 17.7138C2.69239 17.6703 2.69421 17.6269 2.69608 17.5821C2.69624 17.3339 2.66443 17.2076 2.48626 17.0291C2.42617 16.9772 2.36567 16.9258 2.30469 16.875C1.90998 16.4597 1.55645 15.9941 1.22417 15.5282C1.18154 15.4687 1.13777 15.4101 1.09375 15.3516C1.08086 15.3516 1.06797 15.3516 1.05469 15.3516ZM3.35937 17.9297C3.35937 18.3809 3.35937 18.8321 3.35937 19.2969C4.0039 19.2969 4.64844 19.2969 5.3125 19.2969C5.21536 19.224 5.126 19.1587 5.0235 19.0966C4.99862 19.0813 4.97374 19.0661 4.94811 19.0504C4.92173 19.0343 4.89534 19.0181 4.86816 19.0015C4.41644 18.7215 3.99389 18.4127 3.58237 18.0765C3.48207 17.9761 3.48207 17.9761 3.35937 17.9297ZM15 18.3594C14.9871 18.5528 14.9742 18.7461 14.9609 18.9453C14.9379 19.0632 14.9134 19.1808 14.8828 19.2969C15.3983 19.3005 15.9137 19.3033 16.4292 19.305C16.6685 19.3058 16.9079 19.3069 17.1472 19.3087C17.3782 19.3104 17.6092 19.3113 17.8402 19.3117C17.9283 19.312 18.0164 19.3126 18.1045 19.3134C18.228 19.3146 18.3514 19.3147 18.4748 19.3146C18.5112 19.3152 18.5477 19.3158 18.5852 19.3163C18.8034 19.315 18.9289 19.2871 19.1016 19.1407C19.3528 18.8555 19.2969 18.826 19.2969 18.3594C17.8789 18.3594 16.4609 18.3594 15 18.3594Z" fill="#90009D"/>
<path d="M14.1491 15.969C14.1992 15.9684 14.2493 15.9678 14.3009 15.9671C14.3556 15.9667 14.4104 15.9663 14.4651 15.9659C14.4927 15.9657 14.5203 15.9655 14.5488 15.9652C14.6949 15.9642 14.8411 15.9634 14.9873 15.9629C15.108 15.9624 15.2287 15.9613 15.3495 15.9597C15.4955 15.9577 15.6415 15.9568 15.7876 15.9565C15.8431 15.9562 15.8986 15.9556 15.9541 15.9547C16.4427 15.9469 16.4427 15.9469 16.5968 16.0705C16.7113 16.2101 16.7113 16.2101 16.7068 16.3281C16.7069 16.3531 16.7071 16.3781 16.7072 16.4038C16.6638 16.5318 16.5871 16.5937 16.4846 16.6797C16.3631 16.7042 16.3631 16.7042 16.2253 16.7043C16.2 16.7046 16.1748 16.7049 16.1488 16.7052C16.0658 16.7058 15.9829 16.7051 15.8999 16.7042C15.842 16.7043 15.784 16.7044 15.7261 16.7045C15.6049 16.7046 15.4836 16.7041 15.3624 16.703C15.2073 16.7017 15.0522 16.7019 14.8971 16.7026C14.7775 16.703 14.6579 16.7027 14.5384 16.7021C14.4812 16.7019 14.424 16.7019 14.3668 16.7022C14.2867 16.7024 14.2068 16.7016 14.1267 16.7005C14.0813 16.7003 14.0358 16.7 13.9889 16.6998C13.8414 16.6754 13.7765 16.6291 13.6721 16.5234C13.6177 16.3506 13.6174 16.2801 13.7014 16.1182C13.8362 15.9608 13.9518 15.9713 14.1491 15.969Z" fill="#90009D"/>
<path d="M14.1264 12.6355C14.1516 12.6352 14.1769 12.6348 14.2029 12.6345C14.2859 12.6336 14.3688 12.6339 14.4518 12.6342C14.5097 12.634 14.5676 12.6338 14.6256 12.6335C14.7468 12.6331 14.868 12.6333 14.9893 12.6338C15.1444 12.6345 15.2995 12.6336 15.4546 12.6322C15.5742 12.6313 15.6937 12.6314 15.8133 12.6317C15.8705 12.6318 15.9277 12.6315 15.9849 12.6309C16.0649 12.6302 16.1449 12.6308 16.2249 12.6317C16.2931 12.6317 16.2931 12.6317 16.3627 12.6318C16.5216 12.6639 16.5802 12.7261 16.6796 12.8517C16.7066 13.0197 16.6997 13.0942 16.6063 13.2374C16.4728 13.3709 16.3914 13.3646 16.2063 13.3658C16.1561 13.3661 16.106 13.3665 16.0542 13.3669C15.9992 13.3671 15.9441 13.3673 15.889 13.3674C15.8327 13.3676 15.7763 13.3679 15.72 13.3681C15.6017 13.3685 15.4835 13.3687 15.3652 13.3689C15.2139 13.3691 15.0626 13.37 14.9113 13.3711C14.7948 13.3718 14.6784 13.372 14.5619 13.3721C14.5062 13.3722 14.4504 13.3725 14.3946 13.3731C14.3165 13.3737 14.2383 13.3736 14.1601 13.3734C14.0935 13.3736 14.0935 13.3736 14.0255 13.3738C13.8914 13.3577 13.8185 13.3225 13.7108 13.2423C13.6432 13.1286 13.6324 13.0597 13.6351 12.9273C13.7131 12.683 13.8884 12.6368 14.1264 12.6355Z" fill="#90009D"/>
<path d="M14.2267 14.2869C14.2738 14.2866 14.3209 14.2864 14.3693 14.2861C14.4196 14.2863 14.4699 14.2864 14.5218 14.2866C14.5744 14.2866 14.627 14.2865 14.6796 14.2864C14.7896 14.2863 14.8995 14.2864 15.0095 14.2868C15.1501 14.2872 15.2907 14.287 15.4314 14.2865C15.5399 14.2862 15.6485 14.2863 15.757 14.2865C15.834 14.2866 15.9109 14.2864 15.9879 14.2861C16.0348 14.2864 16.0818 14.2866 16.1301 14.2869C16.1919 14.287 16.1919 14.287 16.2549 14.2871C16.408 14.3006 16.5204 14.3358 16.6334 14.441C16.7007 14.5721 16.7002 14.6595 16.6798 14.8048C16.58 14.9317 16.5215 14.9928 16.3612 15.0247C16.3149 15.0247 16.2687 15.0247 16.221 15.0248C16.1953 15.025 16.1696 15.0253 16.1431 15.0256C16.0587 15.0263 15.9743 15.0255 15.8899 15.0247C15.831 15.0247 15.7721 15.0248 15.7132 15.025C15.5899 15.0251 15.4667 15.0245 15.3435 15.0234C15.1856 15.0221 15.0278 15.0223 14.87 15.0231C14.7484 15.0235 14.6269 15.0231 14.5053 15.0225C14.4471 15.0223 14.3889 15.0224 14.3307 15.0226C14.2494 15.0228 14.1681 15.022 14.0867 15.021C14.0405 15.0207 13.9942 15.0205 13.9466 15.0202C13.8041 14.996 13.7589 14.9572 13.672 14.8439C13.6248 14.6991 13.627 14.6278 13.6744 14.4825C13.8091 14.2914 14.0056 14.2872 14.2267 14.2869Z" fill="#90009D"/>
<path d="M5.99116 8.3032C6.05778 8.30127 6.05778 8.30127 6.12574 8.2993C6.45142 8.2972 6.45142 8.2972 6.61112 8.40924C6.70718 8.55835 6.70718 8.55835 6.70649 8.67185C6.70745 8.69682 6.70841 8.7218 6.70939 8.74753C6.65887 8.88434 6.57231 8.96021 6.44526 9.02341C6.29397 9.05059 6.14692 9.04895 5.9936 9.04538C5.95344 9.04581 5.91329 9.04624 5.87191 9.04668C5.69258 9.04494 5.57924 9.04306 5.42369 8.94879C5.30555 8.81518 5.30186 8.73118 5.31245 8.55466C5.42377 8.24638 5.71568 8.30459 5.99116 8.3032Z" fill="#90009D"/>
</g>
<defs>
<clipPath id="clip0_82_13401">
<rect width="20" height="20" fill="white"/>
</clipPath>
</defs>
</svg>
