<svg width="30" height="30" viewBox="0 0 30 30" fill="none" xmlns="http://www.w3.org/2000/svg">
<g clip-path="url(#clip0_82_14655)">
<path d="M12.3895 -0.0170779C12.451 -0.0174715 12.5126 -0.0178651 12.5761 -0.0182706C12.7796 -0.0193834 12.9831 -0.0196127 13.1866 -0.0197387C13.3282 -0.0201153 13.4699 -0.0205095 13.6115 -0.0209206C13.9085 -0.0216223 14.2055 -0.0218394 14.5024 -0.02177C14.8825 -0.0217581 15.2625 -0.0233575 15.6426 -0.0253761C15.9352 -0.0266807 16.2278 -0.0269167 16.5204 -0.0268548C16.6605 -0.0269929 16.8006 -0.0275102 16.9407 -0.0284172C17.1369 -0.0295685 17.333 -0.0292273 17.5292 -0.028522C17.5868 -0.0291806 17.6444 -0.0298391 17.7037 -0.0305176C18.1288 -0.0266449 18.4416 0.0667085 18.7642 0.349448C18.7958 0.387591 18.8274 0.425734 18.8599 0.465033C18.8924 0.503025 18.9248 0.541017 18.9583 0.580161C19.2208 0.961092 19.1997 1.36936 19.1602 1.81635C19.0604 2.21185 18.7793 2.46259 18.4571 2.69526C18.23 2.8167 18.143 2.81245 17.8711 2.81245C17.8711 4.97807 17.8711 7.14369 17.8711 9.37494C18.0451 9.41362 18.2192 9.45229 18.3985 9.49213C18.5513 9.5495 18.6972 9.60787 18.8452 9.67524C18.8853 9.69328 18.9255 9.71131 18.9668 9.7299C20.058 10.2278 21.03 10.8525 21.8888 11.6952C21.968 11.7727 22.0486 11.8489 22.1292 11.9249C22.5206 12.3011 22.9574 12.7506 23.2031 13.2421C23.3065 13.2898 23.4119 13.333 23.5181 13.374C25.0207 13.986 26.1475 15.088 26.7957 16.5724C27.4237 18.0834 27.3835 19.7616 26.7774 21.2695C26.7312 21.3618 26.6839 21.4535 26.6345 21.5441C26.5225 21.723 26.5225 21.723 26.5833 21.8542C26.6656 21.981 26.7531 22.0792 26.8606 22.1854C26.922 22.2465 26.922 22.2465 26.9845 22.3087C27.0509 22.3739 27.0509 22.3739 27.1186 22.4404C27.1643 22.4858 27.21 22.5312 27.2571 22.5779C27.4033 22.7231 27.5499 22.8679 27.6966 23.0126C27.8421 23.1566 27.9876 23.3006 28.1329 23.4448C28.2233 23.5345 28.3138 23.624 28.4045 23.7133C28.6449 23.9515 28.8742 24.1953 29.0941 24.4527C29.1988 24.5726 29.3119 24.6808 29.4287 24.7888C29.6941 25.0531 29.8271 25.3054 29.8535 25.6823C29.833 26.2072 29.4944 26.6652 29.1211 27.0117C28.6733 27.3579 28.2879 27.5449 27.7149 27.4804C27.3674 27.4039 27.1606 27.1639 26.9319 26.9073C26.6713 26.6202 26.4048 26.3409 26.1299 26.0675C26.095 26.0329 26.0602 25.9982 26.0242 25.9625C25.9177 25.8568 25.8111 25.7512 25.7044 25.6457C24.8635 24.8141 24.8635 24.8141 24.5677 24.4636C24.4706 24.3495 24.3659 24.2443 24.2578 24.1406C23.9753 24.2523 23.6961 24.3715 23.4167 24.4908C23.2617 24.5507 23.2617 24.5507 23.1446 24.5507C23.1239 24.6127 23.1239 24.6127 23.1029 24.6759C22.4985 26.0184 20.8346 27.1226 19.5703 27.7734C19.5127 27.8037 19.5127 27.8037 19.454 27.8347C18.4272 28.371 17.3184 28.6829 16.1719 28.8281C16.1161 28.8357 16.0603 28.8433 16.0028 28.8512C13.5738 29.1302 10.9239 28.4188 8.9755 26.9303C8.75054 26.7498 8.53514 26.5595 8.32033 26.3671C8.26882 26.3227 8.21731 26.2783 8.16423 26.2325C7.93708 26.0357 7.74514 25.8418 7.55861 25.6054C7.55776 25.6514 7.5569 25.6974 7.55602 25.7449C7.55161 25.9572 7.54596 26.1695 7.5403 26.3818C7.53898 26.4541 7.53766 26.5265 7.5363 26.601C7.50744 27.5977 7.24601 28.4227 6.54535 29.1517C5.72916 29.8984 4.84421 30.0485 3.77986 30.0107C3.47143 29.9881 3.20682 29.8976 2.92971 29.7656C2.88393 29.745 2.83816 29.7245 2.791 29.7033C2.03452 29.3264 1.44564 28.6286 1.17189 27.832C1.0508 27.4351 1.03845 27.0707 1.04061 26.6573C1.04051 26.5871 1.04041 26.5168 1.04031 26.4444C1.04015 26.2504 1.04051 26.0564 1.0411 25.8623C1.04161 25.6527 1.04144 25.4431 1.04135 25.2335C1.04129 24.8707 1.04166 24.5079 1.04232 24.1451C1.04327 23.6205 1.04357 23.0959 1.04372 22.5714C1.04398 21.7202 1.04476 20.8691 1.04586 20.018C1.04694 19.1913 1.04777 18.3647 1.04827 17.538C1.0483 17.487 1.04833 17.4361 1.04836 17.3835C1.04851 17.1278 1.04866 16.872 1.04881 16.6162C1.05002 14.4954 1.05209 12.3746 1.05471 10.2539C1.01007 10.237 0.965428 10.2202 0.919436 10.2028C0.605658 10.0712 0.419668 9.89566 0.271014 9.59467C0.116376 9.20452 0.119955 8.82108 0.282229 8.43287C0.458826 8.14612 0.74722 7.92482 1.05471 7.79291C1.18289 7.77768 1.18289 7.77768 1.32442 7.77685C1.3783 7.77627 1.43218 7.77568 1.48769 7.77508C1.54638 7.77504 1.60507 7.775 1.66553 7.77496C1.72768 7.77447 1.78983 7.77399 1.85386 7.77348C2.05958 7.77207 2.2653 7.77156 2.47103 7.77117C2.61407 7.77064 2.75712 7.77011 2.90017 7.76957C3.20024 7.7686 3.5003 7.76815 3.80037 7.76798C4.18445 7.76766 4.5685 7.76546 4.95257 7.76278C5.24814 7.76104 5.5437 7.76061 5.83928 7.76055C5.98085 7.76031 6.12241 7.75958 6.26398 7.75836C6.4623 7.75678 6.66054 7.75706 6.85886 7.75779C6.94619 7.75649 6.94619 7.75649 7.03527 7.75516C7.46627 7.75968 7.74183 7.87621 8.05802 8.16834C8.29803 8.42893 8.36202 8.69824 8.4009 9.04169C8.36044 9.43951 8.24094 9.78351 7.93581 10.0524C7.80473 10.1555 7.7203 10.2 7.55861 10.2539C7.55861 10.8919 7.55861 11.53 7.55861 12.1874C7.69396 12.0473 7.82931 11.9071 7.96877 11.7626C9.04719 10.674 10.4855 9.68019 12.0117 9.37494C12.0117 7.20932 12.0117 5.0437 12.0117 2.81245C11.8764 2.79311 11.741 2.77377 11.6016 2.75385C11.2122 2.54724 10.9324 2.24944 10.7813 1.83466C10.6729 1.41473 10.7467 1.00649 10.9387 0.622504C11.3816 0.119845 11.7248 -0.0176873 12.3895 -0.0170779ZM11.836 1.05463C11.6985 1.26078 11.6848 1.33927 11.7188 1.58198C11.8362 1.74409 11.9303 1.85659 12.1314 1.90192C12.2811 1.91274 12.4282 1.91385 12.5782 1.91192C12.6633 1.91255 12.6633 1.91255 12.7501 1.91319C12.9374 1.91418 13.1245 1.91305 13.3118 1.9118C13.442 1.91184 13.5723 1.91199 13.7025 1.91222C13.9754 1.91239 14.2483 1.91153 14.5211 1.90992C14.8709 1.90792 15.2206 1.90828 15.5703 1.90937C15.8393 1.90999 16.1082 1.90947 16.3771 1.90859C16.5061 1.90829 16.635 1.90831 16.764 1.90868C16.9442 1.909 17.1244 1.90781 17.3046 1.9062C17.3579 1.90658 17.4112 1.90697 17.4661 1.90736C17.7077 1.9037 17.8387 1.89467 18.0491 1.76656C18.1981 1.60327 18.2272 1.50971 18.2227 1.28901C18.1189 1.12804 18.0432 1.02349 17.8711 0.937445C17.69 0.931348 17.5102 0.928844 17.329 0.928934C17.2728 0.928737 17.2166 0.92854 17.1587 0.928337C16.9721 0.927779 16.7856 0.927666 16.599 0.927603C16.4697 0.927415 16.3403 0.927218 16.211 0.927012C15.9396 0.926661 15.6682 0.926553 15.3968 0.926588C15.0487 0.926594 14.7006 0.925794 14.3525 0.924784C14.0853 0.924134 13.8181 0.924014 13.5509 0.924045C13.4225 0.923976 13.2942 0.923716 13.1658 0.923264C12.9864 0.922691 12.807 0.922858 12.6276 0.923212C12.5744 0.922882 12.5211 0.922553 12.4663 0.922214C12.4174 0.92246 12.3684 0.922705 12.3179 0.922959C12.2543 0.922911 12.2543 0.922911 12.1894 0.922862C12.0476 0.940234 11.9568 0.978541 11.836 1.05463ZM13.0078 2.87104C13.0063 3.37589 13.0048 3.88074 13.0033 4.40089C13.0016 4.76085 12.9998 5.12082 12.9978 5.48078C12.9952 5.94737 12.9929 6.41394 12.992 6.88053C12.9912 7.2499 12.9896 7.61924 12.9871 7.9886C12.9857 8.18419 12.9849 8.37975 12.9849 8.57535C12.9847 8.79367 12.9832 9.01193 12.9812 9.23023C12.9817 9.32759 12.9817 9.32759 12.9821 9.42692C12.9809 9.51614 12.9809 9.51614 12.9796 9.60717C12.9793 9.68462 12.9793 9.68462 12.979 9.76364C12.9395 9.94787 12.8579 10.018 12.7149 10.1367C12.5822 10.197 12.5822 10.197 12.4363 10.2415C12.3548 10.2675 12.3548 10.2675 12.2716 10.2941C12.1847 10.3213 12.1847 10.3213 12.096 10.3491C9.81308 11.1057 7.97329 12.75 6.87763 14.8821C6.55564 15.5295 6.32995 16.1749 6.16335 16.8786C6.1512 16.9291 6.13906 16.9796 6.12654 17.0316C6.0236 17.4961 6.00925 17.9083 5.97658 18.3984C9.07033 18.3984 12.1641 18.3984 15.3516 18.3984C15.4289 18.0117 15.5063 17.6249 15.586 17.2265C16.1162 15.6117 17.0632 14.4033 18.5896 13.6118C19.59 13.1303 20.5855 12.999 21.6797 12.9492C20.5426 11.5788 19.0334 10.6513 17.3168 10.1907C17.1568 10.1326 17.0957 10.0936 16.9922 9.96088C16.9697 9.82853 16.9697 9.82853 16.9688 9.67059C16.9681 9.61069 16.9674 9.55079 16.9666 9.48908C16.9667 9.42342 16.9668 9.35775 16.9669 9.2901C16.966 9.18634 16.966 9.18634 16.9651 9.08047C16.9636 8.89078 16.9629 8.70111 16.9625 8.51141C16.962 8.31317 16.9605 8.11494 16.959 7.9167C16.9565 7.54131 16.9548 7.16592 16.9534 6.79053C16.9517 6.32124 16.9488 5.85196 16.9459 5.38267C16.9406 4.54546 16.9372 3.70826 16.9336 2.87104C15.6381 2.87104 14.3426 2.87104 13.0078 2.87104ZM1.17189 8.90619C1.13771 9.05268 1.13771 9.05268 1.17189 9.19916C1.27573 9.31679 1.36282 9.36872 1.51885 9.39109C1.66493 9.39792 1.81003 9.39868 1.95627 9.39769C2.03977 9.39815 2.03977 9.39815 2.12495 9.39862C2.30898 9.3994 2.49299 9.39888 2.67702 9.39829C2.80486 9.39841 2.93271 9.39858 3.06055 9.3988C3.32851 9.39906 3.59645 9.39868 3.8644 9.39786C4.20804 9.39686 4.55165 9.39744 4.89528 9.39849C5.15928 9.39912 5.42327 9.39892 5.68727 9.39847C5.81398 9.39835 5.9407 9.39849 6.06741 9.3989C6.24444 9.39935 6.42143 9.39867 6.59845 9.39769C6.65094 9.39805 6.70342 9.3984 6.75749 9.39877C7.03936 9.39608 7.03936 9.39608 7.29842 9.29479C7.39557 9.20152 7.39557 9.20152 7.40847 9.05268C7.37822 8.87988 7.34266 8.83754 7.20705 8.73041C7.09232 8.70416 7.09232 8.70416 6.96465 8.70809C6.91536 8.7076 6.86607 8.7071 6.81529 8.70659C6.76141 8.70695 6.70752 8.7073 6.65201 8.70767C6.59512 8.70736 6.53822 8.70705 6.47961 8.70674C6.29117 8.70596 6.10276 8.70647 5.91432 8.70707C5.78363 8.70695 5.65293 8.70678 5.52224 8.70656C5.24817 8.7063 4.97411 8.70668 4.70005 8.7075C4.34833 8.7085 3.99663 8.70792 3.64491 8.70687C3.37498 8.70623 3.10506 8.70644 2.83514 8.70689C2.70543 8.70701 2.57572 8.70686 2.44602 8.70646C2.2649 8.70601 2.08383 8.70669 1.90271 8.70767C1.84883 8.70731 1.79495 8.70696 1.73944 8.70659C1.69015 8.70709 1.64086 8.70758 1.59007 8.70809C1.54726 8.70816 1.50444 8.70823 1.46032 8.70829C1.31437 8.73695 1.26219 8.79002 1.17189 8.90619ZM1.99221 10.3124C1.99221 14.3923 1.99221 18.4722 1.99221 22.6757C3.22971 22.6757 4.46721 22.6757 5.74221 22.6757C5.60685 22.2503 5.4715 21.8249 5.33205 21.3867C5.24486 20.9759 5.16127 20.5704 5.09767 20.1562C5.08876 20.0985 5.07985 20.0408 5.07067 19.9813C5.05214 19.8241 5.04389 19.67 5.03908 19.5117C5.03757 19.4685 5.03606 19.4253 5.0345 19.3808C4.98825 17.8771 5.21691 16.4299 5.78981 15.0366C5.81267 14.9809 5.83552 14.9253 5.85906 14.8679C5.96287 14.6254 6.05929 14.4023 6.21619 14.1888C6.71576 13.4838 6.61392 12.7052 6.59181 11.8725C6.58215 11.3577 6.57248 10.8429 6.56252 10.3124C5.05431 10.3124 3.54611 10.3124 1.99221 10.3124ZM17.8711 15.2343C17.831 15.2689 17.7909 15.3035 17.7496 15.3391C16.8619 16.1589 16.3393 17.4168 16.2687 18.6108C16.2222 20.0492 16.7439 21.3157 17.6855 22.3878C18.5198 23.2766 19.7572 23.8528 20.9766 23.9062C21.0228 23.9092 21.069 23.9122 21.1167 23.9153C22.5006 23.9651 23.7393 23.3879 24.7577 22.4858C25.6541 21.6419 26.2114 20.4479 26.2665 19.2155C26.3037 17.7876 25.8956 16.5301 24.9089 15.4808C24.8293 15.398 24.7486 15.3162 24.668 15.2343C24.6295 15.195 24.5909 15.1558 24.5513 15.1153C23.9954 14.5905 23.2805 14.282 22.5586 14.0624C22.5138 14.0487 22.469 14.035 22.4229 14.0208C20.7947 13.5944 19.101 14.1445 17.8711 15.2343ZM5.97658 19.3945C6.01425 19.9595 6.05115 20.4523 6.18532 20.9912C6.20079 21.0539 6.21625 21.1166 6.23218 21.1813C6.848 23.5689 8.40761 25.4761 10.4974 26.7362C12.5052 27.9122 14.9771 28.2219 17.2248 27.6413C18.7258 27.2306 20.7274 26.3394 21.6094 24.9732C21.6442 24.9091 21.6442 24.9091 21.6797 24.8437C21.6095 24.8415 21.5394 24.8393 21.4671 24.8371C19.8482 24.7761 18.4575 24.3264 17.2266 23.2617C17.1865 23.2275 17.1464 23.1934 17.105 23.1582C16.0418 22.1767 15.5818 20.7758 15.3516 19.3945C12.2578 19.3945 9.16408 19.3945 5.97658 19.3945ZM25.8985 22.6171C25.8166 22.7074 25.7348 22.7977 25.6531 22.8881C25.6075 22.9384 25.562 22.9887 25.5151 23.0406C25.4132 23.1555 25.3137 23.2709 25.2156 23.389C25.1703 23.4437 25.1249 23.4983 25.0781 23.5546C25.5452 24.0748 26.0312 24.5721 26.5283 25.0634C27.3413 25.8671 27.3413 25.8671 27.6353 26.2161C27.7978 26.4181 27.7978 26.4181 28.0289 26.5104C28.2392 26.475 28.3342 26.3851 28.4912 26.2426C28.5423 26.1978 28.5933 26.1529 28.646 26.1067C28.7948 25.9264 28.8391 25.8398 28.8281 25.6054C28.7249 25.4584 28.6291 25.3491 28.5022 25.2246C28.465 25.1864 28.4278 25.1483 28.3894 25.109C28.2731 24.9906 28.1557 24.8733 28.0379 24.7563C27.9002 24.6191 27.7633 24.4811 27.6262 24.3433C27.1789 23.8934 26.7297 23.4454 26.2798 22.9981C26.1525 22.8713 26.0254 22.7443 25.8985 22.6171ZM1.99221 23.6718C1.98948 24.0982 1.9874 24.5245 1.98613 24.9509C1.98553 25.1489 1.9847 25.3469 1.98336 25.5449C1.98194 25.7732 1.98128 26.0014 1.98076 26.2296C1.98016 26.2999 1.97955 26.3702 1.97893 26.4427C1.97883 27.1989 2.11714 27.8417 2.64772 28.4069C3.13078 28.8619 3.72925 29.096 4.39272 29.0805C4.97322 29.0214 5.43849 28.8192 5.85939 28.4179C5.8924 28.3872 5.92541 28.3566 5.95941 28.325C6.62803 27.631 6.57924 26.6634 6.58625 25.7692C6.58752 25.6481 6.58951 25.527 6.59226 25.406C6.59621 25.2297 6.5978 25.0536 6.59891 24.8773C6.60136 24.7973 6.60136 24.7973 6.60385 24.7156C6.60276 24.3692 6.54195 24.0754 6.34693 23.7844C6.04629 23.5355 5.62382 23.602 5.25377 23.6146C5.15969 23.6157 5.06561 23.6165 4.97152 23.6171C4.72464 23.6193 4.47796 23.6251 4.23116 23.6316C3.97903 23.6376 3.72686 23.6403 3.47467 23.6432C2.98042 23.6495 2.48634 23.6595 1.99221 23.6718Z" fill="#F79831"/>
<path d="M23.8499 15.3595C24.7903 16.1017 25.4545 17.1351 25.6055 18.3398C25.6938 19.606 25.4027 20.8051 24.5572 21.7833C23.6649 22.7268 22.6193 23.195 21.3281 23.2616C20.1701 23.2842 19.0765 22.8452 18.2345 22.0557C17.3924 21.221 16.9345 20.1077 16.9189 18.9257C16.9297 17.7182 17.3733 16.6612 18.1968 15.782C19.7248 14.3127 22.1194 14.1428 23.8499 15.3595ZM18.5701 16.8404C17.9823 17.6228 17.8557 18.5037 17.9297 19.453C17.9806 19.7212 18.0596 19.963 18.1641 20.2148C18.1832 20.2649 18.2024 20.3151 18.2222 20.3667C18.5844 21.2022 19.3219 21.7525 20.1453 22.0824C21.021 22.411 21.9499 22.3216 22.793 21.9433C23.6858 21.4705 24.2403 20.693 24.5508 19.746C24.7894 18.9086 24.6159 17.9758 24.2221 17.2217C23.7321 16.4002 22.9823 15.8629 22.0649 15.6044C20.7155 15.2923 19.4549 15.8103 18.5701 16.8404Z" fill="#F79831"/>
<path d="M16.0718 23.9925C16.4341 24.28 16.6695 24.6814 16.7578 25.1367C16.8147 25.7122 16.7044 26.2263 16.3366 26.6821C16.0224 27.0119 15.6374 27.2225 15.1826 27.26C14.5578 27.2743 14.0997 27.1523 13.6381 26.7187C13.2517 26.2791 13.1612 25.8477 13.1675 25.2766C13.2083 24.7716 13.4433 24.3508 13.8281 24.0234C14.551 23.5757 15.3371 23.5206 16.0718 23.9925ZM14.3994 24.8474C14.2185 25.0092 14.1626 25.1772 14.1245 25.4137C14.1188 25.6349 14.182 25.7705 14.2968 25.957C14.4763 26.1446 14.6003 26.236 14.8498 26.3086C15.1033 26.3086 15.2486 26.2574 15.4687 26.1328C15.7177 25.8642 15.7828 25.6895 15.7782 25.3313C15.7526 25.1203 15.6659 25.0011 15.5273 24.8437C15.1218 24.5422 14.8158 24.5831 14.3994 24.8474Z" fill="#F79831"/>
<path d="M13.9161 20.1305C14.296 20.3656 14.5734 20.6629 14.7071 21.0937C14.8041 21.5371 14.7634 21.9276 14.5533 22.3315C14.2482 22.7008 13.9408 22.9995 13.448 23.0469C12.9305 23.0522 12.5659 23.0391 12.1768 22.6723C11.7832 22.2562 11.6889 21.9117 11.7012 21.3427C11.7473 20.8445 11.9734 20.5714 12.3448 20.2516C12.7656 19.9557 13.4447 19.9148 13.9161 20.1305ZM12.8687 21.0937C12.6854 21.3032 12.6417 21.4019 12.6563 21.6796C12.7981 21.9188 12.887 22.0122 13.1544 22.0934C13.3839 22.0893 13.477 22.0593 13.6524 21.914C13.7755 21.7573 13.7695 21.6771 13.7623 21.4745C13.7053 21.2464 13.6694 21.167 13.4767 21.0351C13.2096 20.951 13.112 20.9495 12.8687 21.0937Z" fill="#F79831"/>
<path d="M10.3156 21.2235C10.5912 21.4764 10.768 21.7907 10.7951 22.1655C10.8051 22.688 10.7967 23.0551 10.4261 23.4482C10.0101 23.8418 9.66556 23.9361 9.09657 23.9238C8.60105 23.878 8.3264 23.6529 8.00549 23.2859C7.73606 22.8866 7.75084 22.4369 7.79285 21.9726C7.89089 21.6057 8.14435 21.3263 8.43739 21.0937C9.06618 20.7568 9.74056 20.804 10.3156 21.2235ZM8.84754 22.0312C8.72717 22.1844 8.73035 22.2693 8.73035 22.467C8.80673 22.7391 8.89887 22.8255 9.14051 22.9687C9.4182 22.9833 9.51691 22.9396 9.72645 22.7563C9.86103 22.5664 9.86103 22.5664 9.8473 22.3461C9.77887 22.1288 9.73801 22.0422 9.55067 21.914C9.25438 21.8332 9.08746 21.8324 8.84754 22.0312Z" fill="#F79831"/>
<path d="M11.6792 14.4027C11.9954 14.6282 12.2402 14.9204 12.3363 15.3008C12.4007 15.7305 12.3414 16.1145 12.0996 16.4796C11.8367 16.7964 11.5255 16.9629 11.118 17.0181C10.6617 17.0345 10.3179 16.9791 9.97791 16.6654C9.64876 16.309 9.51146 15.9446 9.52678 15.4597C9.58881 15.0296 9.80777 14.6816 10.1523 14.421C10.5955 14.1355 11.227 14.135 11.6792 14.4027ZM10.6824 15.2674C10.5288 15.4031 10.5288 15.4031 10.5103 15.6153C10.5301 15.8255 10.5301 15.8255 10.6714 15.9669C10.8353 16.0689 10.8353 16.0689 11.023 16.0548C11.192 16.0072 11.192 16.0072 11.305 15.901C11.3973 15.6947 11.371 15.566 11.3086 15.3517C11.0867 15.1706 10.9386 15.1185 10.6824 15.2674Z" fill="#F79831"/>
</g>
<defs>
<clipPath id="clip0_82_14655">
<rect width="30" height="30" fill="white"/>
</clipPath>
</defs>
</svg>
