<svg width="20" height="20" viewBox="0 0 20 20" fill="none" xmlns="http://www.w3.org/2000/svg">
<g clip-path="url(#clip0_82_13587)">
<path d="M11.5408 -0.00968575C11.5757 -0.00971211 11.6106 -0.00973847 11.6465 -0.00976562C12.1482 -0.00916348 12.6347 0.00227125 13.1252 0.117267C13.1553 0.123971 13.1853 0.130674 13.2163 0.137581C13.9263 0.298947 14.5937 0.554843 15.2346 0.898517C15.2594 0.911484 15.2842 0.92445 15.3097 0.937809C16.9125 1.77843 18.2702 3.01305 18.8306 4.76974C18.9539 5.17792 19.0342 5.59515 19.1018 6.01571C19.1088 6.05833 19.1088 6.05833 19.116 6.10182C19.3833 7.8056 19.1188 9.45953 18.099 10.8669C17.9959 11.0073 17.8908 11.1462 17.7857 11.2852C16.698 12.7465 16.2415 14.2519 16.5066 16.0792C16.6256 16.8265 16.7856 17.5935 17.1096 18.2813C17.1313 18.328 17.153 18.3746 17.1754 18.4226C17.2991 18.6817 17.4406 18.9239 17.5974 19.1642C17.7178 19.3552 17.8089 19.5339 17.7737 19.7657C17.6897 19.8961 17.6485 19.9507 17.5002 20.0001C17.3863 20.0042 17.2734 20.006 17.1595 20.0061C17.1242 20.0063 17.089 20.0064 17.0527 20.0066C16.9341 20.0071 16.8155 20.0074 16.6969 20.0076C16.6121 20.0079 16.5273 20.0082 16.4425 20.0086C16.1636 20.0096 15.8847 20.0102 15.6059 20.0108C15.51 20.011 15.4141 20.0112 15.3182 20.0114C14.9194 20.0122 14.5207 20.013 14.122 20.0134C13.5499 20.014 12.9778 20.0153 12.4057 20.0176C12.0037 20.0191 11.6018 20.0198 11.1999 20.02C10.9596 20.0202 10.7194 20.0207 10.4791 20.0219C10.2532 20.0231 10.0274 20.0233 9.8015 20.0229C9.71848 20.0229 9.63546 20.0232 9.55244 20.0239C9.43932 20.0248 9.32627 20.0245 9.21316 20.0238C9.18011 20.0244 9.14705 20.0249 9.11299 20.0255C8.95696 20.0233 8.88488 20.0168 8.7702 19.9067C8.71387 19.8094 8.67422 19.7226 8.64129 19.6153C8.62971 19.5791 8.61813 19.543 8.60619 19.5058C8.59411 19.4675 8.58202 19.4292 8.56957 19.3897C8.37557 18.8061 8.12517 18.2247 7.69555 17.7735C7.66065 17.7356 7.66065 17.7356 7.62505 17.6969C7.53329 17.6039 7.53329 17.6039 7.42211 17.5391C7.16679 17.5485 6.93344 17.648 6.69457 17.732C6.2402 17.8881 5.78162 18.0204 5.31762 18.1446C5.28573 18.1532 5.25384 18.1617 5.22098 18.1705C5.12963 18.195 5.03825 18.2193 4.94683 18.2435C4.91957 18.2507 4.89231 18.2579 4.86422 18.2654C4.44057 18.3764 4.03921 18.4119 3.64403 18.1861C3.25443 17.9193 3.0673 17.5461 2.97982 17.0863C2.94403 16.7758 2.96153 16.4819 3.02895 16.1778C3.05339 16.0648 3.06578 15.9741 3.04711 15.8595C2.91574 15.6843 2.74235 15.5955 2.5512 15.4932C2.44378 15.4175 2.39895 15.3534 2.34399 15.2345C2.33117 15.1382 2.33117 15.1382 2.33422 15.0416C2.33523 15.0079 2.33623 14.9742 2.33727 14.9395C2.34512 14.8277 2.35996 14.7191 2.38305 14.6095C2.3614 14.5939 2.33974 14.5783 2.31744 14.5623C2.28914 14.5416 2.26084 14.5209 2.23168 14.4996C2.20358 14.4792 2.17549 14.4588 2.14654 14.4378C2.05815 14.3648 2.00234 14.2971 1.97381 14.1843C1.95492 13.8991 2.06247 13.6892 2.19374 13.4436C2.28604 13.2665 2.33432 13.1348 2.30492 12.9298C2.25694 12.8666 2.25694 12.8666 2.18041 12.8346C2.15211 12.8192 2.12381 12.8038 2.09466 12.788C2.04405 12.7615 2.04405 12.7615 1.99242 12.7345C1.2032 12.2778 1.2032 12.2778 1.09399 11.8751C1.06977 11.4271 1.30771 11.1111 1.57676 10.7786C2.04071 10.1996 2.41939 9.55654 2.77367 8.90633C2.7878 8.88056 2.80192 8.85478 2.81647 8.82822C2.98008 8.5518 2.98008 8.5518 3.00805 8.24227C2.95663 8.16728 2.95663 8.16728 2.88354 8.10555C2.85851 8.08213 2.83348 8.05872 2.8077 8.0346C2.78358 8.01289 2.75946 7.99119 2.73461 7.96883C2.49498 7.74631 2.30479 7.49624 2.28783 7.16072C2.29109 6.80765 2.45092 6.48414 2.59443 6.1675C2.74097 5.83926 2.84165 5.51792 2.92748 5.16854C3.2393 3.95028 3.73644 2.91012 4.60961 1.99227C4.63952 1.95798 4.63952 1.95798 4.67004 1.92299C5.9986 0.464312 8.51862 0.253781 10.3518 0.0391424C10.3881 0.0347112 10.4244 0.0302801 10.4618 0.0257146C10.82 -0.0129826 11.1809 -0.00944168 11.5408 -0.00968575ZM4.87084 2.75643C4.20752 3.53053 3.82112 4.46942 3.59017 5.4525C3.48682 5.88646 3.33415 6.28154 3.14749 6.68734C3.12896 6.7286 3.11044 6.76986 3.09136 6.81237C3.0744 6.84896 3.05744 6.88556 3.03996 6.92327C3.00112 7.0548 3.00979 7.13439 3.04711 7.26571C3.0932 7.33515 3.0932 7.33515 3.15652 7.38732C3.17853 7.40768 3.20055 7.42804 3.22324 7.44902C3.24649 7.4699 3.26974 7.49078 3.29369 7.51229C3.4896 7.69798 3.64163 7.85698 3.71117 8.12508C3.72326 8.16939 3.73534 8.2137 3.74779 8.25936C3.75412 8.61984 3.56577 8.94487 3.40111 9.25545C3.37866 9.29813 3.35621 9.3408 3.33307 9.38477C2.92457 10.151 2.43096 10.8637 1.90041 11.5501C1.83012 11.6399 1.83012 11.6399 1.79711 11.7579C1.995 11.903 2.19215 12.0373 2.4099 12.151C2.64562 12.277 2.8962 12.417 2.99096 12.6835C3.06282 13.0621 3.02885 13.4096 2.8518 13.7501C2.8307 13.7923 2.8096 13.8346 2.78786 13.8781C2.77029 13.9132 2.75272 13.9483 2.73461 13.9845C2.77978 14.0198 2.77978 14.0198 2.82586 14.0559C2.86503 14.0871 2.90421 14.1183 2.94457 14.1505C2.98355 14.1813 3.02252 14.2121 3.06267 14.2439C3.15455 14.3272 3.20328 14.3765 3.24242 14.4923C3.23066 14.6727 3.16829 14.8021 3.08617 14.961C3.11538 14.9809 3.14458 15.0007 3.17467 15.0211C3.47958 15.2343 3.67589 15.4034 3.75024 15.7813C3.76895 16.0347 3.74367 16.2636 3.69012 16.5109C3.62815 16.8233 3.6922 17.0974 3.82836 17.3829C3.94294 17.5329 4.04144 17.6051 4.22745 17.6426C4.38131 17.6569 4.48471 17.6416 4.63341 17.6025C4.6579 17.5961 4.68238 17.5898 4.70761 17.5832C4.78905 17.5618 4.87023 17.5396 4.95141 17.5172C4.98002 17.5094 5.00864 17.5017 5.03812 17.4937C5.82941 17.2794 6.60668 17.0204 7.38305 16.7579C7.42046 16.7453 7.45787 16.7327 7.49642 16.7197C7.72376 16.643 7.95089 16.5657 8.17775 16.4876C8.24875 16.4632 8.31979 16.4389 8.39086 16.4147C9.51012 16.0659 9.51012 16.0659 10.3127 15.2735C10.3466 15.1519 10.3729 15.0323 10.3935 14.9078C10.4299 14.8048 10.4299 14.8048 10.5235 14.7318C10.6538 14.6752 10.7243 14.6884 10.8596 14.7266C10.9768 14.8048 10.9768 14.8048 11.0159 14.922C11.0442 15.3259 10.9212 15.6648 10.6643 15.9766C10.0408 16.6528 9.04324 16.904 8.20336 17.1876C8.25905 17.3344 8.31679 17.4332 8.42065 17.5513C8.83753 18.0605 9.09095 18.6785 9.29711 19.297C11.7721 19.297 14.2471 19.297 16.7971 19.297C16.7412 19.1573 16.6824 19.0287 16.6129 18.8961C16.1409 17.9891 15.9231 16.983 15.7815 15.9766C15.7774 15.9494 15.7733 15.9221 15.7691 15.894C15.6715 15.1597 15.6762 14.3113 15.8596 13.5938C15.8716 13.5454 15.8716 13.5454 15.8838 13.4959C16.1398 12.4772 16.6113 11.6616 17.2406 10.8277C18.015 9.79897 18.4854 8.81802 18.4866 7.50252C18.4866 7.47482 18.4866 7.44712 18.4866 7.41858C18.4859 6.90503 18.4486 6.40503 18.3596 5.89852C18.3529 5.86032 18.3462 5.82212 18.3393 5.78276C18.1537 4.76579 17.7796 3.88647 17.0705 3.12508C17.0373 3.08867 17.0041 3.05227 16.9698 3.01476C16.6812 2.7119 16.3566 2.46748 16.0159 2.22664C15.9921 2.20978 15.9683 2.19292 15.9439 2.17554C14.6405 1.25881 13.2189 0.684327 11.6116 0.688556C11.5634 0.688608 11.5634 0.688608 11.5142 0.68866C9.30392 0.696327 6.4371 1.04805 4.87084 2.75643Z" fill="#FF0D0D"/>
<path d="M14.3751 1.95302C14.399 1.96459 14.4228 1.97615 14.4474 1.98806C15.6971 2.60211 16.9552 3.54378 17.461 4.88271C17.9625 6.35763 18.0941 8.06972 17.4017 9.49727C17.1645 9.93928 16.8156 10.2878 16.4205 10.5909C15.8753 11.0225 15.3577 11.6833 15.2345 12.3827C15.2189 12.5265 15.2097 12.6705 15.2003 12.8148C15.1475 13.4979 15.0063 14.0854 14.4923 14.5702C14.328 14.6823 14.2244 14.7161 14.0235 14.6874C13.9211 14.6097 13.8433 14.5463 13.8078 14.4188C13.797 14.3349 13.7911 14.2519 13.7867 14.1674C13.7651 13.9214 13.7454 13.7187 13.5938 13.5155C13.5739 13.4887 13.554 13.4618 13.5334 13.4342C13.3614 13.2243 13.1606 13.0637 12.9467 12.8996C12.4113 12.4877 11.9298 12.0318 11.8093 11.335C11.7629 10.869 11.7781 10.4178 11.8923 9.96343C11.916 9.83338 11.9232 9.77125 11.8751 9.64834C11.8006 9.55146 11.7161 9.46717 11.6285 9.38222C11.6038 9.35808 11.579 9.33394 11.5536 9.30907C10.9175 8.70153 10.2378 8.53369 9.37569 8.54345C8.73136 8.5619 8.0875 8.66635 7.44988 8.756C6.53867 8.88391 5.70303 8.99117 4.8829 8.47646C4.45042 8.14086 4.21355 7.63099 4.11782 7.09936C4.05166 6.50076 4.11039 5.93282 4.2579 5.35146C4.26521 5.32226 4.27252 5.29305 4.28006 5.26296C4.54958 4.21281 5.08845 3.22596 5.97665 2.57802C6.00802 2.55451 6.03939 2.53099 6.07171 2.50676C8.12892 1.07859 12.1664 0.875957 14.3751 1.95302ZM11.172 2.03115C11.1663 2.10607 11.1607 2.181 11.1549 2.2582C11.1451 2.38781 11.135 2.49355 11.0938 2.61709C11.0386 2.62582 10.9832 2.63381 10.9278 2.6415C10.8816 2.6483 10.8816 2.6483 10.8344 2.65523C10.7284 2.65629 10.6749 2.6343 10.586 2.57802C10.4853 2.44023 10.4853 2.27426 10.4688 2.10927C10.3793 2.11477 10.2898 2.12051 10.2003 2.12636C10.1504 2.12954 10.1006 2.13271 10.0492 2.13598C9.92653 2.14021 9.92653 2.14021 9.84383 2.1874C9.83779 2.26112 9.83779 2.26112 9.83163 2.33632C9.81794 2.4632 9.80795 2.49595 9.72421 2.6C9.58982 2.66576 9.51235 2.67029 9.3673 2.64379C9.29696 2.61709 9.29696 2.61709 9.22128 2.52431C9.19201 2.452 9.16538 2.37859 9.14071 2.30459C8.86263 2.33066 8.59359 2.37891 8.3204 2.43642C8.28021 2.44458 8.24003 2.45274 8.19863 2.46114C7.95883 2.51118 7.73087 2.57393 7.50008 2.65615C7.49797 2.76277 7.49642 2.86934 7.4952 2.97597C7.49422 3.02103 7.49422 3.02103 7.49322 3.06699C7.4915 3.2675 7.50464 3.41802 7.62933 3.58327C7.71442 3.64694 7.78948 3.66016 7.89315 3.68154C7.99767 3.71053 7.99767 3.71053 8.08602 3.7499C8.16244 3.89727 8.17756 3.97302 8.13485 4.1332C8.08602 4.21865 8.08602 4.21865 8.0079 4.29677C7.75953 4.32963 7.51686 4.32393 7.2976 4.1953C7.04701 4.00184 6.89197 3.7837 6.85036 3.46837C6.84368 3.40844 6.83727 3.34847 6.83114 3.28847C6.82776 3.25768 6.82439 3.22689 6.82092 3.19516C6.81268 3.11969 6.80479 3.04417 6.79696 2.96865C6.1978 3.13844 5.77039 3.70455 5.46883 4.21865C5.46883 4.24443 5.46883 4.27021 5.46883 4.29677C5.54512 4.29896 5.54512 4.29896 5.62295 4.3012C5.69039 4.30376 5.75784 4.30636 5.82528 4.30898C5.87543 4.3103 5.87543 4.3103 5.9266 4.31165C6.12428 4.32001 6.27798 4.33642 6.4454 4.45302C6.5063 4.58543 6.49816 4.72443 6.45272 4.86074C6.40633 4.92177 6.40633 4.92177 6.32821 4.96084C6.23748 4.9669 6.14658 4.97061 6.05569 4.9732C6.02892 4.97401 6.00215 4.97482 5.97457 4.97566C5.88901 4.97821 5.80343 4.98051 5.71786 4.98281C5.65987 4.9845 5.60189 4.9862 5.54391 4.98792C5.4017 4.9921 5.25949 4.99606 5.11727 4.9999C5.03746 5.20466 4.96957 5.40668 4.91708 5.62002C4.90701 5.66042 4.90701 5.66042 4.89674 5.70165C4.84679 5.90922 4.81504 6.11446 4.80477 6.32802C5.1182 6.34952 5.1182 6.34952 5.39071 6.21084C5.48529 6.11625 5.48948 6.06235 5.51278 5.93252C5.51933 5.89697 5.52587 5.86142 5.53262 5.82479C5.53735 5.7975 5.54208 5.7702 5.54696 5.74209C5.65479 5.70614 5.72796 5.6955 5.83993 5.69326C5.87014 5.69225 5.90035 5.69124 5.93148 5.69021C6.01571 5.70302 6.01571 5.70302 6.08437 5.74941C6.18425 5.89515 6.14975 6.08114 6.1329 6.2499C6.06445 6.48745 5.93084 6.67726 5.74227 6.83584C5.46008 6.99049 5.16081 7.02008 4.84383 7.03115C4.92636 7.44377 5.09623 7.71125 5.42977 7.96865C5.53742 7.91482 5.56605 7.83695 5.62508 7.73427C5.66415 7.69521 5.66415 7.69521 5.81307 7.683C5.9287 7.68528 5.9707 7.69155 6.07186 7.7538C6.15776 7.89124 6.16122 8.00282 6.17196 8.16396C6.41058 8.16852 6.63362 8.15431 6.86898 8.11681C6.93618 8.10669 7.00337 8.0966 7.07058 8.08654C7.10558 8.08123 7.14058 8.07592 7.17665 8.07046C8.05034 7.93885 8.9231 7.86395 9.80477 7.8124C9.80942 7.78798 9.81407 7.76357 9.81886 7.73841C9.82534 7.70653 9.83182 7.67465 9.83849 7.64181C9.84475 7.61014 9.85101 7.57847 9.85746 7.54585C9.8829 7.46084 9.8829 7.46084 9.96835 7.37783C10.1122 7.33307 10.2065 7.34508 10.3516 7.38271C10.4421 7.44943 10.4659 7.48565 10.4888 7.59679C10.4911 7.63169 10.4934 7.66658 10.4957 7.70254C10.4983 7.73773 10.5008 7.77293 10.5035 7.80919C10.5057 7.84945 10.5057 7.84945 10.5079 7.89052C10.5498 7.90583 10.5917 7.92114 10.6349 7.93691C10.6967 7.96042 10.7586 7.98403 10.8204 8.00771C10.8572 8.02146 10.8939 8.0352 10.9318 8.04937C11.4498 8.25214 11.8389 8.58952 12.2242 8.98427C12.5068 9.2703 12.8244 9.51252 13.1641 9.72646C13.1699 9.67978 13.1699 9.67978 13.1757 9.63216C13.2242 9.28864 13.3132 9.06291 13.5899 8.84401C13.8842 8.64667 14.2402 8.65324 14.582 8.6565C14.6613 8.65713 14.7405 8.6565 14.8198 8.65575C14.8955 8.65598 14.8955 8.65598 14.9728 8.65621C15.0184 8.65634 15.0639 8.65647 15.1109 8.65661C15.2581 8.67467 15.3632 8.72239 15.4688 8.82802C15.492 9.11022 15.492 9.11022 15.4062 9.22256C15.2818 9.32116 15.2054 9.31621 15.0478 9.31646C14.9964 9.31719 14.9449 9.31792 14.8918 9.31867C14.8376 9.31877 14.7833 9.31879 14.7291 9.31875C14.6229 9.31893 14.5168 9.31994 14.4106 9.32134C14.34 9.32138 14.34 9.32138 14.268 9.32143C14.0913 9.34144 13.9913 9.40714 13.8673 9.53115C13.8616 9.63196 13.86 9.72839 13.8624 9.829C13.8627 9.85659 13.8631 9.88419 13.8635 9.91262C13.8644 9.98078 13.8658 10.0489 13.8673 10.1171C14.5234 10.327 15.2581 10.3746 15.8912 10.0536C16.4018 9.74559 16.7441 9.30495 16.9532 8.7499C16.9532 8.72412 16.9532 8.69834 16.9532 8.67177C16.9095 8.67031 16.8657 8.66885 16.8206 8.66735C16.7631 8.66478 16.7056 8.66219 16.648 8.65957C16.6048 8.65824 16.6048 8.65824 16.5607 8.6569C16.3478 8.6463 16.3478 8.6463 16.2516 8.57946C16.1889 8.48068 16.1789 8.39718 16.172 8.28115C16.201 8.16491 16.2176 8.10585 16.3208 8.04229C16.4109 8.00588 16.4787 7.99568 16.5754 7.99154C16.6222 7.98927 16.6222 7.98927 16.67 7.98696C16.7183 7.98515 16.7183 7.98515 16.7677 7.9833C16.8005 7.98179 16.8333 7.98028 16.8671 7.97872C16.9479 7.97505 17.0287 7.97181 17.1095 7.96865C17.1681 7.85134 17.1521 7.74245 17.151 7.6122C17.1504 7.53713 17.1504 7.53713 17.1499 7.46053C17.1494 7.42196 17.149 7.38339 17.1485 7.34365C17.1257 7.34308 17.1028 7.34251 17.0793 7.34192C16.9754 7.33901 16.8715 7.33523 16.7677 7.33144C16.7137 7.33012 16.7137 7.33012 16.6587 7.32877C16.624 7.32739 16.5892 7.326 16.5534 7.32457C16.5215 7.32355 16.4896 7.32253 16.4567 7.32148C16.347 7.30076 16.2922 7.26317 16.211 7.1874C16.1616 7.03905 16.1653 6.97076 16.2208 6.82363C16.2891 6.71865 16.2891 6.71865 16.4063 6.67959C16.4613 6.67392 16.5164 6.66997 16.5716 6.66723C16.6029 6.66559 16.6343 6.66395 16.6666 6.66227C16.6991 6.66073 16.7317 6.6592 16.7652 6.65761C16.7982 6.65593 16.8312 6.65424 16.8652 6.6525C16.9466 6.64836 17.028 6.64442 17.1095 6.64052C16.9992 5.76125 16.837 4.91819 16.2501 4.21865C16.2243 4.20576 16.1985 4.19287 16.172 4.17959C16.1714 4.20607 16.1709 4.23256 16.1703 4.25985C16.1543 4.57253 16.092 4.84645 15.8634 5.0736C15.6323 5.25648 15.4139 5.33078 15.1194 5.32186C15.0391 5.3124 15.0391 5.3124 14.9415 5.27089C14.8527 5.15619 14.8463 5.06519 14.8438 4.92177C14.8756 4.81435 14.8756 4.81435 14.961 4.72646C15.0596 4.69118 15.1566 4.66537 15.2589 4.6433C15.3758 4.60043 15.4042 4.55848 15.4688 4.45302C15.5371 4.14743 15.5488 3.77973 15.4688 3.47646C15.3287 3.27158 15.1084 3.17317 14.8829 3.08584C14.87 3.08584 14.8571 3.08584 14.8438 3.08584C14.8429 3.10771 14.8419 3.12957 14.8409 3.15211C14.8363 3.25128 14.8315 3.35044 14.8267 3.44961C14.8244 3.50123 14.8244 3.50123 14.8221 3.5539C14.8205 3.58701 14.8188 3.62011 14.8171 3.65423C14.8157 3.68471 14.8143 3.71519 14.8128 3.74659C14.8048 3.82802 14.8048 3.82802 14.7657 3.94521C14.704 3.95499 14.6421 3.96374 14.5802 3.97207C14.5457 3.97705 14.5113 3.98204 14.4758 3.98717C14.3512 3.98358 14.3068 3.95363 14.2188 3.86709C14.1758 3.7381 14.1717 3.63502 14.1674 3.4992C14.165 3.42574 14.165 3.42574 14.1625 3.3508C14.1609 3.29962 14.1594 3.24843 14.1578 3.1957C14.1561 3.14354 14.1544 3.09138 14.1527 3.03922C14.1485 2.91153 14.1446 2.78384 14.1407 2.65615C13.8302 2.4862 13.5282 2.3524 13.1886 2.25087C13.1561 2.2411 13.1236 2.23132 13.0902 2.22125C12.8889 2.16334 12.7135 2.13595 12.5001 2.10927C12.5001 2.39287 12.5001 2.67646 12.5001 2.96865C12.5678 2.97348 12.6354 2.97832 12.7052 2.9833C12.8494 2.9936 12.9645 3.00362 13.086 3.08584C13.1455 3.22902 13.1752 3.31766 13.1348 3.46914C13.086 3.55459 13.086 3.55459 13.0079 3.63271C12.8401 3.65067 12.6711 3.64537 12.5025 3.64492C12.4554 3.64555 12.4083 3.64618 12.3598 3.64683C12.2921 3.64686 12.2921 3.64686 12.2231 3.6469C12.1817 3.64702 12.1403 3.64713 12.0976 3.64725C11.9923 3.63271 11.9923 3.63271 11.9217 3.583C11.812 3.42415 11.828 3.24026 11.8237 3.05349C11.8229 3.02423 11.822 2.99497 11.8212 2.96483C11.8187 2.8717 11.8163 2.77858 11.814 2.68545C11.8124 2.62217 11.8107 2.5589 11.8089 2.49563C11.8047 2.3408 11.8009 2.18598 11.797 2.03115C11.5907 2.03115 11.3845 2.03115 11.172 2.03115ZM12.5782 10.2343C12.5118 10.4372 12.485 10.6168 12.4854 10.83C12.4855 10.8735 12.4855 10.8735 12.4856 10.9179C12.4943 11.3124 12.6293 11.649 12.9081 11.9332C13.1698 12.1659 13.4384 12.3871 13.7144 12.6026C13.9606 12.8045 14.1928 13.0728 14.336 13.3593C14.3618 13.3593 14.3876 13.3593 14.4141 13.3593C14.4556 13.1424 14.4906 12.9263 14.508 12.706C14.5573 12.0816 14.6991 11.5912 15.0391 11.0546C15.052 11.0288 15.0649 11.003 15.0782 10.9765C15.0423 10.9741 15.0423 10.9741 15.0057 10.9718C14.2326 10.9194 13.611 10.8047 12.9298 10.4296C12.891 10.4086 12.8523 10.3876 12.8124 10.366C12.7339 10.3228 12.6558 10.2791 12.5782 10.2343Z" fill="#FF0D0D"/>
<path d="M10.1732 3.30315C10.2228 3.30237 10.2725 3.30159 10.3237 3.30078C10.6618 3.30096 10.9036 3.34502 11.1822 3.53783C11.4524 3.81004 11.5359 4.08881 11.5404 4.46526C11.5408 4.49189 11.5412 4.51852 11.5416 4.54597C11.5386 4.71591 11.5098 4.82574 11.4061 4.96086C11.2793 5.02425 11.1525 5.02092 11.0155 4.99992C10.9007 4.93645 10.9007 4.93645 10.8201 4.80461C10.8039 4.66537 10.7982 4.52975 10.798 4.38957C10.7767 4.22374 10.7577 4.16601 10.6248 4.06242C10.4746 4.0345 10.328 4.03697 10.1756 4.04045C10.1348 4.04002 10.0939 4.0396 10.0519 4.03915C9.82796 4.03337 9.82796 4.03337 9.63661 4.13393C9.54379 4.25228 9.55055 4.34094 9.54817 4.48967C9.54465 4.68343 9.53212 4.8039 9.41389 4.96086C9.32406 5.00578 9.26488 5.00897 9.16487 5.01213C9.13476 5.01359 9.10465 5.01505 9.07362 5.01656C8.98421 4.99992 8.98421 4.99992 8.89616 4.94453C8.79255 4.79132 8.80295 4.64877 8.80598 4.4677C8.80638 4.43254 8.80678 4.39739 8.80719 4.36117C8.81819 4.01736 8.90038 3.77765 9.15266 3.53752C9.45007 3.28656 9.80507 3.3011 10.1732 3.30315Z" fill="#FF0D0D"/>
<path d="M7.92959 4.98286C7.98171 4.98093 7.98171 4.98093 8.03488 4.97897C8.21296 4.97751 8.29449 4.98073 8.44091 5.09013C8.53905 5.2284 8.54225 5.30241 8.51553 5.4687C8.40684 5.64726 8.40684 5.64726 8.29168 5.68782C8.13331 5.71508 7.9726 5.71661 7.81225 5.72352C7.68792 5.7433 7.65074 5.75947 7.57803 5.85932C7.50441 6.04003 7.51859 6.25597 7.5707 6.44038C7.61535 6.53509 7.61535 6.53509 7.73428 6.60151C7.87184 6.61334 8.00856 6.61629 8.14657 6.61952C8.30156 6.64377 8.3659 6.68789 8.47647 6.79682C8.53777 6.91943 8.52928 7.01317 8.51553 7.14839C8.43707 7.25672 8.37478 7.33084 8.24087 7.3624C8.14684 7.37011 8.05563 7.37077 7.96133 7.36811C7.92816 7.36751 7.89499 7.36691 7.86081 7.36628C7.50587 7.35213 7.2746 7.2534 7.03115 6.99214C6.78031 6.6777 6.77725 6.32643 6.79678 5.93745C6.83974 5.58012 6.99543 5.37233 7.26171 5.13728C7.47338 4.98434 7.67677 4.98451 7.92959 4.98286Z" fill="#FF0D0D"/>
<path d="M14.0625 4.37493C14.1649 4.47028 14.1788 4.52541 14.1992 4.66545C14.174 4.84486 14.1254 4.88867 13.9844 4.99993C13.8732 5.02341 13.7788 5.03756 13.667 5.04387C13.4645 5.05169 13.4645 5.05169 13.2825 5.13024C13.2131 5.24212 13.2286 5.34149 13.2422 5.46868C13.3137 5.57086 13.3558 5.58469 13.4766 5.62493C13.5595 5.62887 13.6426 5.63203 13.7256 5.63469C13.8935 5.64705 13.97 5.65476 14.1138 5.747C14.198 5.89047 14.206 5.9688 14.1797 6.13274C14.0962 6.26514 14.0556 6.31734 13.9063 6.36711C13.5062 6.39629 13.1204 6.36789 12.7943 6.11427C12.5707 5.89181 12.4937 5.65415 12.4878 5.34416C12.4874 5.00965 12.5615 4.82137 12.7856 4.57756C13.1058 4.27723 13.6637 4.18304 14.0625 4.37493Z" fill="#FF0D0D"/>
<path d="M10.3127 4.64853C10.4164 4.713 10.4527 4.73901 10.508 4.84384C10.5378 5.02234 10.5353 5.19794 10.5325 5.37851C10.5332 5.42652 10.534 5.47453 10.5347 5.524C10.5329 5.86475 10.4794 6.14408 10.2453 6.40271C9.99783 6.64145 9.7021 6.70043 9.36791 6.69931C9.32217 6.70097 9.32217 6.70097 9.27551 6.70267C9.10971 6.70323 9.04228 6.69383 8.90587 6.59082C8.78954 6.4312 8.80071 6.36545 8.82835 6.17196C8.90141 6.077 8.95653 6.02975 9.06273 5.97665C9.20095 5.96886 9.33909 5.96421 9.47746 5.96002C9.60791 5.94555 9.60791 5.94555 9.70375 5.88449C9.80412 5.71779 9.7877 5.54497 9.78783 5.35409C9.78999 4.88053 9.78999 4.88053 9.9221 4.72665C10.0686 4.62898 10.1392 4.62759 10.3127 4.64853Z" fill="#FF0D0D"/>
<path d="M15.2736 5.97659C15.4041 6.02374 15.4278 6.05161 15.508 6.17191C15.5275 6.34786 15.5242 6.52477 15.525 6.70169C15.5263 6.75006 15.5276 6.79842 15.5289 6.84825C15.5309 7.19217 15.4832 7.47107 15.244 7.73075C14.9904 7.9706 14.7283 8.02843 14.3898 8.02737C14.3573 8.02848 14.3247 8.02959 14.2912 8.03073C14.1201 8.03128 14.0454 8.0241 13.9044 7.91888C13.7899 7.75896 13.8007 7.69288 13.8283 7.50003C13.9013 7.40506 13.9564 7.35782 14.0626 7.30472C14.2009 7.29692 14.339 7.29227 14.4774 7.28809C14.6078 7.27361 14.6078 7.27361 14.7037 7.21255C14.804 7.04585 14.7876 6.87304 14.7877 6.68216C14.7899 6.2086 14.7899 6.2086 14.922 6.05472C15.0583 5.96388 15.1135 5.96352 15.2736 5.97659Z" fill="#FF0D0D"/>
<path d="M11.6797 6.01572C11.7946 6.10247 11.8317 6.14816 11.857 6.29145C11.8581 6.335 11.8592 6.37856 11.8604 6.42344C11.8654 6.59093 11.8709 6.72659 11.9531 6.8751C12.0832 6.9745 12.2216 6.96221 12.3804 6.96543C12.6388 6.98129 12.6388 6.98129 12.7881 7.07529C12.8692 7.21883 12.8777 7.29844 12.8516 7.46103C12.7681 7.59343 12.7274 7.64564 12.5781 7.69541C12.1408 7.72464 11.7859 7.6936 11.4372 7.41449C11.1868 7.16186 11.1277 6.87032 11.1206 6.52598C11.122 6.30232 11.1296 6.17519 11.2891 6.01572C11.4377 5.96617 11.5276 5.98103 11.6797 6.01572Z" fill="#FF0D0D"/>
</g>
<defs>
<clipPath id="clip0_82_13587">
<rect width="20" height="20" fill="white"/>
</clipPath>
</defs>
</svg>
