<svg width="30" height="30" viewBox="0 0 30 30" fill="none" xmlns="http://www.w3.org/2000/svg">
<g clip-path="url(#clip0_82_14120)">
<path d="M27.6563 1.69917C28.7964 2.69935 29.5395 4.04852 29.7071 5.56636C29.7935 7.26558 29.4355 8.82602 28.3008 10.1367C28.2478 10.2024 28.2478 10.2024 28.1937 10.2694C27.3268 11.3112 25.9546 12.028 24.6094 12.1875C24.5161 12.1898 24.4228 12.1906 24.3295 12.1897C24.2829 12.1894 24.2363 12.1891 24.1883 12.1887C24.1532 12.1883 24.1182 12.1879 24.0821 12.1875C24.0822 12.262 24.0824 12.3365 24.0826 12.4133C24.0864 14.1847 24.0893 15.9561 24.091 17.7275C24.0913 17.9458 24.0915 18.164 24.0917 18.3823C24.0918 18.4257 24.0918 18.4692 24.0919 18.5139C24.0926 19.2165 24.094 19.9191 24.0956 20.6217C24.0973 21.3431 24.0983 22.0645 24.0986 22.786C24.0988 23.2308 24.0996 23.6756 24.101 24.1204C24.1021 24.4621 24.1022 24.8037 24.102 25.1454C24.102 25.2851 24.1023 25.4249 24.103 25.5646C24.1087 26.7921 23.9985 27.765 23.1045 28.6983C22.3296 29.4392 21.484 29.7355 20.4175 29.7297C20.347 29.73 20.2764 29.7303 20.2037 29.7307C20.0099 29.7313 19.8161 29.7313 19.6223 29.7308C19.4125 29.7305 19.2027 29.7313 18.9929 29.7319C18.5826 29.7329 18.1723 29.7329 17.7621 29.7326C17.4283 29.7324 17.0946 29.7325 16.7609 29.7328C16.7133 29.7328 16.6656 29.7329 16.6166 29.7329C16.5198 29.733 16.423 29.7331 16.3263 29.7332C15.4201 29.734 14.514 29.7337 13.6079 29.733C12.7804 29.7324 11.953 29.7332 11.1255 29.7346C10.2742 29.736 9.42291 29.7366 8.5716 29.7362C8.09433 29.736 7.61707 29.7361 7.1398 29.7371C6.73347 29.738 6.32716 29.738 5.92083 29.737C5.71388 29.7365 5.50694 29.7364 5.29998 29.7373C3.97792 29.7419 2.89034 29.6733 1.87664 28.72C1.19227 27.9922 0.919184 27.1583 0.921868 26.1781C0.921602 26.1067 0.921337 26.0353 0.921063 25.9618C0.920451 25.7645 0.920361 25.5673 0.9205 25.3701C0.920524 25.157 0.919876 24.9439 0.919321 24.7308C0.91835 24.3137 0.918026 23.8965 0.917961 23.4794C0.917905 23.1401 0.917663 22.8008 0.917292 22.4616C0.91626 21.4987 0.91572 20.5358 0.915808 19.573C0.915812 19.5211 0.915817 19.4693 0.915822 19.4158C0.915827 19.3639 0.915831 19.312 0.915836 19.2585C0.915884 18.4173 0.914764 17.5761 0.913111 16.7349C0.911426 15.8702 0.910618 15.0056 0.910719 14.1409C0.910758 13.6558 0.91044 13.1708 0.909176 12.6857C0.908106 12.2726 0.907855 11.8596 0.908648 11.4465C0.909029 11.236 0.909044 11.0255 0.908022 10.815C0.906923 10.5862 0.907663 10.3574 0.908564 10.1285C0.907961 10.0629 0.907359 9.99725 0.906738 9.92963C0.914968 8.97901 1.28113 8.1586 1.94027 7.48622C2.61516 6.83964 3.39534 6.55248 4.31914 6.55541C4.37681 6.55536 4.43449 6.55531 4.49391 6.55526C4.68734 6.55516 4.88076 6.55548 5.07419 6.5558C5.21278 6.55582 5.35137 6.55581 5.48996 6.55578C5.86643 6.55576 6.2429 6.5561 6.61937 6.55651C6.97288 6.55687 7.32638 6.5569 7.67989 6.55696C8.38002 6.55709 9.08015 6.55748 9.78029 6.55803C10.4604 6.55857 11.1404 6.55899 11.8205 6.55924C11.8624 6.55925 11.9043 6.55927 11.9475 6.55928C12.1579 6.55936 12.3682 6.55943 12.5786 6.55951C14.3232 6.56011 16.0679 6.56115 17.8125 6.56245C17.8121 6.52962 17.8116 6.49679 17.8111 6.46296C17.8092 6.31142 17.808 6.15988 17.8068 6.00833C17.806 5.9567 17.8053 5.90508 17.8045 5.85188C17.7961 4.40118 18.5177 2.99985 19.5179 1.97887C20.3202 1.19431 21.2999 0.684295 22.3829 0.410111C22.4381 0.39576 22.4934 0.381409 22.5504 0.366623C24.3528 -0.0136636 26.2658 0.517291 27.6563 1.69917ZM20.7422 3.51558C20.081 4.28984 19.7092 5.21904 19.7242 6.23653C19.7248 6.2957 19.7254 6.35487 19.7261 6.41584C19.7493 7.49914 20.18 8.39648 20.9402 9.16415C21.7322 9.90908 22.7033 10.2925 23.7891 10.3125C24.9303 10.2577 25.9001 9.81414 26.7188 9.02339C27.5377 8.10521 27.8543 7.03034 27.7859 5.81907C27.709 4.9778 27.3314 4.20244 26.7774 3.57417C26.7389 3.53021 26.7005 3.48625 26.6609 3.44096C26.0031 2.73631 25.0476 2.25663 24.0752 2.21256C22.7995 2.18256 21.6337 2.5753 20.7422 3.51558ZM3.17417 9.02591C2.80729 9.52904 2.79507 10.0974 2.79766 10.7022C2.79747 10.7685 2.79729 10.8349 2.7971 10.9033C2.79664 11.1244 2.797 11.3455 2.79737 11.5666C2.79728 11.7257 2.79701 11.8847 2.79675 12.0437C2.79623 12.4301 2.79634 12.8165 2.79668 13.2028C2.79695 13.517 2.79698 13.8311 2.79686 14.1453C2.79684 14.1901 2.79682 14.2349 2.7968 14.281C2.79676 14.3721 2.79673 14.4631 2.79669 14.5541C2.79635 15.4066 2.79674 16.259 2.79737 17.1115C2.79789 17.8422 2.7978 18.5729 2.79726 19.3035C2.79663 20.1531 2.79638 21.0026 2.79674 21.8521C2.79678 21.9428 2.79682 22.0335 2.79686 22.1241C2.79687 22.1688 2.79689 22.2134 2.79691 22.2593C2.79701 22.5729 2.79684 22.8865 2.79657 23.2001C2.79624 23.5825 2.79633 23.9649 2.79695 24.3474C2.79726 24.5423 2.79732 24.7372 2.79699 24.9322C2.79667 25.1439 2.79707 25.3556 2.79766 25.5673C2.79739 25.6283 2.79713 25.6894 2.79686 25.7523C2.80015 26.3691 2.86827 26.885 3.28129 27.3632C3.71156 27.7597 4.16032 27.7907 4.7242 27.7895C4.79324 27.7898 4.86228 27.7901 4.9334 27.7904C5.12455 27.7911 5.31569 27.7913 5.50684 27.7913C5.71318 27.7914 5.91952 27.7922 6.12587 27.7928C6.57682 27.7942 7.02778 27.7946 7.47874 27.7949C7.76046 27.7951 8.04218 27.7955 8.32389 27.7959C9.1043 27.7971 9.88471 27.798 10.6651 27.7982C10.715 27.7982 10.765 27.7982 10.8164 27.7982C10.9176 27.7983 11.0188 27.7983 11.1199 27.7983C11.1953 27.7983 11.1953 27.7983 11.2722 27.7983C11.3476 27.7983 11.3476 27.7983 11.4245 27.7984C12.2393 27.7986 13.0541 27.8001 13.8689 27.8023C14.7059 27.8046 15.543 27.8057 16.3801 27.8057C16.8498 27.8058 17.3196 27.8063 17.7894 27.8079C18.1894 27.8094 18.5894 27.8098 18.9894 27.8089C19.1934 27.8085 19.3973 27.8086 19.6012 27.8099C19.8227 27.8111 20.0441 27.8105 20.2656 27.8094C20.3296 27.8102 20.3935 27.811 20.4594 27.8118C20.9383 27.8065 21.3288 27.6936 21.6885 27.3656C22.0962 26.9432 22.1749 26.5009 22.1696 25.9349C22.1698 25.8752 22.1699 25.8154 22.1701 25.7539C22.1704 25.5545 22.1694 25.3552 22.1684 25.1558C22.1684 25.0126 22.1684 24.8693 22.1685 24.7261C22.1685 24.4181 22.1681 24.1102 22.1671 23.8022C22.1656 23.357 22.1652 22.9118 22.165 22.4665C22.1646 21.7441 22.1634 21.0216 22.1617 20.2991C22.1601 19.5975 22.1589 18.8959 22.1581 18.1943C22.1581 18.1511 22.158 18.1078 22.158 18.0632C22.1578 17.846 22.1575 17.6289 22.1573 17.4118C22.1555 15.6117 22.1524 13.8117 22.1485 12.0117C22.1006 11.9918 22.0527 11.9719 22.0033 11.9515C21.9403 11.9253 21.8773 11.8991 21.8123 11.8721C21.7188 11.8332 21.7188 11.8332 21.6233 11.7936C20.1992 11.1942 19.1284 10.2884 18.4408 8.8808C18.4196 8.83792 18.3984 8.79504 18.3766 8.75086C18.3251 8.64649 18.2739 8.54199 18.2227 8.43745C16.4626 8.43478 14.7025 8.43271 12.9424 8.43147C12.7344 8.43132 12.5265 8.43117 12.3186 8.43102C12.2565 8.43097 12.2565 8.43097 12.1932 8.43092C11.5235 8.43041 10.8537 8.42949 10.184 8.42841C9.49653 8.42732 8.80906 8.42667 8.12158 8.42643C7.73555 8.42628 7.34952 8.42592 6.9635 8.42506C6.60006 8.42427 6.23663 8.42402 5.87319 8.4242C5.7399 8.42417 5.60661 8.42393 5.47333 8.42348C5.29108 8.4229 5.10884 8.42304 4.92658 8.42336C4.87409 8.42302 4.82159 8.42268 4.7675 8.42233C4.14063 8.42529 3.60686 8.54237 3.17417 9.02591Z" fill="#F79831"/>
<path d="M11.2502 11.7188C11.4778 11.9591 11.5865 12.1705 11.6237 12.4988C11.5964 12.7677 11.5239 12.9634 11.3674 13.1837C11.0782 13.4138 10.8525 13.4784 10.4883 13.5085C9.39349 13.6037 8.39911 14.0652 7.67962 14.9085C6.795 16.0525 6.51836 17.4132 6.6984 18.8382C6.74569 19.0916 6.82202 19.3302 6.91424 19.5704C6.93614 19.6275 6.95805 19.6847 6.98061 19.7436C7.34322 20.6021 7.87845 21.3021 8.67205 21.7969C8.71072 21.7969 8.74939 21.7969 8.78924 21.7969C8.7718 21.761 8.75435 21.725 8.73638 21.6879C8.65663 21.522 8.57828 21.3556 8.49993 21.189C8.47248 21.1324 8.44502 21.0759 8.41673 21.0176C8.23713 20.6325 8.05415 20.2108 8.18789 19.7842C8.31649 19.491 8.50113 19.3043 8.78924 19.1602C8.92725 19.1463 8.92725 19.1463 9.09319 19.1419C9.1742 19.1386 9.1742 19.1386 9.25684 19.1353C9.48658 19.1677 9.66104 19.2559 9.84393 19.3946C9.93825 19.5291 10.0068 19.6421 10.076 19.7878C10.0953 19.8262 10.1147 19.8646 10.1346 19.9042C10.1955 20.0266 10.2544 20.1498 10.3127 20.2735C10.341 20.3333 10.341 20.3333 10.37 20.3942C10.5034 20.6771 10.6318 20.9621 10.7595 21.2476C10.8151 21.3714 10.8709 21.4951 10.9266 21.6188C10.9629 21.6993 10.9991 21.7799 11.0351 21.8605C11.12 22.0497 11.2058 22.2383 11.2945 22.4257C11.3261 22.4926 11.3577 22.5595 11.3903 22.6285C11.4182 22.6869 11.4462 22.7453 11.475 22.8055C11.5975 23.099 11.6545 23.3778 11.5624 23.6868C11.343 24.1751 10.8932 24.3656 10.4409 24.6058C10.3149 24.6733 10.1889 24.7408 10.063 24.8083C9.99813 24.843 9.9333 24.8776 9.8665 24.9133C9.48389 25.1183 9.10286 25.3263 8.72153 25.5336C8.56855 25.6166 8.41527 25.699 8.26189 25.7813C8.19664 25.8168 8.13138 25.8523 8.06414 25.8889C7.81439 25.9996 7.59187 26.0008 7.32439 25.9571C7.07131 25.8572 6.90289 25.7261 6.73846 25.5103C6.63147 25.1492 6.61079 24.8087 6.77874 24.4666C7.05141 24.1645 7.35825 23.9935 7.71533 23.8049C7.84555 23.7422 7.84555 23.7422 7.91033 23.6719C7.87128 23.6484 7.83223 23.625 7.792 23.6007C6.2278 22.636 5.2268 21.2329 4.80486 19.4532C4.79447 19.4125 4.78408 19.3718 4.77338 19.3299C4.67794 18.9191 4.6678 18.5159 4.66918 18.0953C4.66936 17.9786 4.66794 17.8619 4.6665 17.7452C4.66577 16.2505 5.19582 14.7995 6.15252 13.6524C6.19769 13.5976 6.24286 13.5429 6.28939 13.4865C7.25954 12.364 9.74488 10.7971 11.2502 11.7188Z" fill="#F79831"/>
<path d="M17.9262 10.4003C18.1779 10.6058 18.3021 10.8137 18.3622 11.1337C18.3811 11.4424 18.301 11.7122 18.1057 11.9531C17.9211 12.0924 17.7248 12.1985 17.5197 12.3046C17.439 12.3507 17.3584 12.397 17.278 12.4438C17.2224 12.4752 17.1669 12.5066 17.1096 12.539C17.2896 12.689 17.4755 12.8226 17.6699 12.9528C19.0554 13.9225 19.9339 15.3925 20.2627 17.0434C20.5723 18.8206 20.2112 20.7092 19.1713 22.1923C18.1673 23.4946 16.873 24.4251 15.2199 24.6862C14.1472 24.8109 14.1472 24.8109 13.7111 24.4921C13.4391 24.2061 13.3972 23.9667 13.4017 23.5842C13.4343 23.2939 13.5953 23.1363 13.8064 22.9504C14.0142 22.8027 14.1584 22.7806 14.4123 22.7581C15.5662 22.6537 16.5525 22.2124 17.322 21.3244C18.1759 20.2301 18.4791 18.9293 18.3243 17.5559C18.1953 16.7277 17.8284 15.9313 17.2854 15.2929C17.2492 15.2433 17.2492 15.2433 17.2123 15.1927C16.9363 14.8306 16.5485 14.6017 16.1721 14.3554C16.1874 14.3894 16.2028 14.4233 16.2186 14.4583C16.2886 14.6132 16.3585 14.7681 16.4284 14.923C16.4526 14.9765 16.4768 15.0299 16.5017 15.085C16.5251 15.1369 16.5485 15.1888 16.5726 15.2423C16.5941 15.2899 16.6156 15.3374 16.6377 15.3865C16.8021 15.7616 16.8657 16.0528 16.8166 16.4648C16.6886 16.7256 16.5272 16.886 16.2893 17.0507C15.9782 17.1544 15.699 17.1502 15.3994 17.0214C14.8913 16.7243 14.6925 16.008 14.4619 15.4907C14.3841 15.3171 14.3063 15.1435 14.2284 14.97C14.2093 14.9272 14.1901 14.8844 14.1704 14.8404C14.0559 14.5851 13.9379 14.3317 13.8164 14.0796C13.789 14.0221 13.7616 13.9645 13.7334 13.9052C13.6838 13.8015 13.6333 13.6981 13.5819 13.5953C13.4116 13.2351 13.3364 12.8742 13.4522 12.4827C13.7282 11.9069 14.5601 11.6264 15.0991 11.3452C15.2605 11.2607 15.4219 11.176 15.5832 11.0911C15.6225 11.0704 15.6618 11.0498 15.7023 11.0285C16.0439 10.8479 16.3786 10.6565 16.7122 10.4615C17.0728 10.2614 17.5468 10.2135 17.9262 10.4003Z" fill="#F79831"/>
<path d="M24.2102 3.49353C24.4918 3.64688 24.626 3.8584 24.7266 4.16004C24.733 4.29139 24.7359 4.42293 24.7369 4.55444C24.7375 4.61422 24.7375 4.61422 24.7381 4.6752C24.7393 4.80705 24.74 4.9389 24.7405 5.07076C24.7408 5.11591 24.741 5.16106 24.7413 5.20758C24.7425 5.4467 24.7433 5.68583 24.7439 5.92496C24.7445 6.17117 24.7465 6.41735 24.7489 6.66355C24.7504 6.85352 24.7509 7.04348 24.7511 7.23345C24.7514 7.32415 24.7521 7.41486 24.7531 7.50556C24.7631 8.3903 24.7631 8.3903 24.4922 8.78894C24.2062 9.061 23.9668 9.10285 23.5842 9.09839C23.2939 9.06578 23.1364 8.90479 22.9505 8.69373C22.819 8.50876 22.7857 8.41595 22.7863 8.19279C22.7863 8.14236 22.7863 8.09192 22.7863 8.03996C22.7866 7.98545 22.787 7.93095 22.7873 7.87479C22.7873 7.81903 22.7874 7.76327 22.7875 7.70583C22.7878 7.52731 22.7886 7.3488 22.7893 7.17029C22.7896 7.04944 22.7899 6.92859 22.7901 6.80774C22.7908 6.51111 22.7918 6.21448 22.793 5.91785C22.735 5.94685 22.735 5.94685 22.6758 5.97644C22.3601 5.98972 22.1027 5.95916 21.8555 5.75305C21.6693 5.579 21.5749 5.42429 21.5408 5.16963C21.5395 5.1108 21.5382 5.05196 21.5369 4.99134C21.5345 4.93295 21.5322 4.87456 21.5298 4.81441C21.5746 4.56026 21.6721 4.3945 21.8555 4.21863C22.0697 4.07588 22.2948 3.96209 22.5257 3.84876C22.5857 3.81805 22.6457 3.78735 22.7075 3.75572C23.687 3.26057 23.687 3.26057 24.2102 3.49353Z" fill="#F79831"/>
</g>
<defs>
<clipPath id="clip0_82_14120">
<rect width="30" height="30" fill="white"/>
</clipPath>
</defs>
</svg>
