<svg width="20" height="20" viewBox="0 0 20 20" fill="none" xmlns="http://www.w3.org/2000/svg">
<g clip-path="url(#clip0_82_13431)">
<path d="M8.32504 3.54936C8.37416 3.54911 8.37416 3.54911 8.42427 3.54886C8.46007 3.54888 8.49587 3.5489 8.53275 3.54891C8.58945 3.54872 8.58945 3.54872 8.6473 3.54852C8.77255 3.54814 8.89779 3.54807 9.02303 3.54803C9.10998 3.5479 9.19692 3.54777 9.28386 3.54763C9.46624 3.5474 9.64862 3.54733 9.831 3.54735C10.0648 3.54735 10.2985 3.54682 10.5323 3.54615C10.7119 3.54571 10.8915 3.54563 11.0712 3.54565C11.1573 3.54561 11.2435 3.54544 11.3297 3.54513C11.4503 3.54475 11.5708 3.54486 11.6913 3.5451C11.727 3.54488 11.7626 3.54466 11.7993 3.54443C12.1162 3.54601 12.1162 3.54601 12.2655 3.63271C12.3614 3.7765 12.3541 3.8839 12.3525 4.05007C12.3525 4.08057 12.3525 4.11106 12.3526 4.14248C12.3525 4.24331 12.3519 4.34412 12.3513 4.44494C12.3511 4.51483 12.351 4.58473 12.3509 4.65463C12.3506 4.83861 12.3499 5.02259 12.349 5.20658C12.3482 5.39431 12.3479 5.58205 12.3475 5.76978C12.3466 6.13816 12.3453 6.50653 12.3437 6.8749C12.3937 6.87455 12.4438 6.87421 12.4953 6.87385C12.9667 6.87068 13.438 6.86834 13.9093 6.8668C14.1517 6.86599 14.394 6.86488 14.6363 6.86311C14.8701 6.86142 15.1038 6.86048 15.3376 6.86008C15.4269 6.85979 15.5162 6.85922 15.6054 6.85838C15.7303 6.85725 15.8551 6.85709 15.98 6.85716C16.0171 6.8566 16.0541 6.85604 16.0923 6.85546C16.3431 6.85704 16.3431 6.85704 16.467 6.94925C16.5525 7.07346 16.5674 7.14197 16.5681 7.29137C16.5684 7.34809 16.5684 7.34809 16.5688 7.40595C16.5689 7.46741 16.5689 7.46741 16.569 7.53011C16.5691 7.57212 16.5692 7.61412 16.5694 7.6574C16.5696 7.74638 16.5696 7.83537 16.5696 7.92436C16.5697 8.06059 16.5704 8.1968 16.5712 8.33303C16.5713 8.41939 16.5714 8.50576 16.5714 8.59212C16.5717 8.63294 16.572 8.67376 16.5723 8.71581C16.5721 8.75387 16.572 8.79192 16.5719 8.83113C16.5719 8.86455 16.572 8.89798 16.5721 8.93241C16.5611 9.03595 16.5449 9.09464 16.4843 9.17959C16.4198 9.20537 16.3554 9.23115 16.289 9.25771C16.2761 9.43818 16.2632 9.61865 16.2499 9.80459C16.3013 9.80912 16.3526 9.81365 16.4055 9.81832C17.0909 9.89563 18.0628 10.286 18.5155 10.8202C18.5645 10.9671 18.5712 11.0378 18.5277 11.184C18.4628 11.2674 18.4197 11.2905 18.3202 11.328C18.2259 11.3316 18.1314 11.331 18.037 11.328C17.0835 11.3137 16.1857 11.5768 15.4687 12.2265C15.4362 12.2553 15.4038 12.2841 15.3704 12.3137C14.7194 12.9248 14.3517 13.7968 14.2888 14.6819C14.2778 15.3643 14.4181 15.9807 14.7411 16.5819C14.8112 16.7329 14.8239 16.8276 14.8046 16.9921C14.7788 17.0308 14.753 17.0694 14.7265 17.1093C14.7909 17.1866 14.8554 17.264 14.9218 17.3437C14.9476 17.3308 14.9733 17.3179 14.9999 17.3046C15.1508 17.2859 15.2152 17.2914 15.3419 17.3791C15.3781 17.4125 15.4143 17.4459 15.4516 17.4804C16.1982 18.1391 17.0337 18.3705 18.0122 18.3802C18.0547 18.3809 18.0973 18.3817 18.1411 18.3825C18.1985 18.3829 18.1985 18.3829 18.257 18.3833C18.3755 18.4007 18.4288 18.4344 18.5155 18.5155C18.5593 18.6197 18.5665 18.7159 18.5546 18.828C18.4899 18.9195 18.4476 18.9596 18.3593 19.0233C18.333 19.0437 18.3068 19.064 18.2798 19.085C17.7562 19.4731 17.1862 19.7072 16.5624 19.8827C16.5354 19.8903 16.5083 19.8979 16.4805 19.9058C15.1798 20.2493 13.769 19.934 12.6171 19.2968C12.5376 19.2464 12.4602 19.1941 12.3827 19.1405C12.3682 19.2142 12.3682 19.2142 12.3534 19.2895C12.3342 19.3872 12.3154 19.441 12.2487 19.5156C12.0915 19.6012 11.937 19.5872 11.7608 19.5866C11.7214 19.5869 11.6821 19.5873 11.6416 19.5876C11.5115 19.5885 11.3814 19.5886 11.2513 19.5885C11.1609 19.5888 11.0705 19.5891 10.9801 19.5894C10.7906 19.59 10.6011 19.59 10.4116 19.5898C10.1687 19.5896 9.92576 19.5907 9.68284 19.5923C9.49615 19.5933 9.30947 19.5934 9.12277 19.5933C9.03321 19.5934 8.94364 19.5938 8.85407 19.5944C8.72885 19.5953 8.60368 19.5949 8.47846 19.5942C8.44142 19.5948 8.40438 19.5953 8.36621 19.5958C8.20503 19.5938 8.1076 19.5824 7.96522 19.5027C7.8462 19.2991 7.86337 19.0999 7.86525 18.8682C7.86491 18.8166 7.86457 18.7651 7.86422 18.712C7.86333 18.5709 7.86367 18.4299 7.86429 18.2888C7.86478 18.141 7.86433 17.9933 7.86402 17.8455C7.86366 17.5974 7.86413 17.3493 7.86506 17.1012C7.86613 16.8144 7.86578 16.5278 7.86471 16.241C7.86382 15.9947 7.86369 15.7484 7.86421 15.5021C7.86451 15.355 7.86455 15.208 7.86391 15.0609C7.86324 14.897 7.86416 14.7331 7.86525 14.5691C7.86466 14.4961 7.86466 14.4961 7.86405 14.4217C7.86857 14.0557 7.86857 14.0557 7.98244 13.9331C8.08584 13.8671 8.08584 13.8671 8.20303 13.8671C8.20303 13.7511 8.20303 13.6351 8.20303 13.5155C8.14743 13.501 8.14743 13.501 8.09072 13.4862C7.96865 13.4374 7.96865 13.4374 7.92251 13.3685C7.88571 13.268 7.88112 13.1911 7.88166 13.0841C7.88166 13.045 7.88167 13.0059 7.88167 12.9657C7.88208 12.9237 7.88248 12.8818 7.8829 12.8386C7.88301 12.7955 7.88312 12.7524 7.88323 12.7079C7.88367 12.5702 7.88465 12.4325 7.88564 12.2948C7.88603 12.2014 7.88639 12.1081 7.88671 12.0147C7.88757 11.7858 7.88888 11.5569 7.89053 11.328C7.84047 11.3284 7.79041 11.3287 7.73883 11.3291C7.26751 11.3322 6.79618 11.3346 6.32485 11.3361C6.08252 11.3369 5.8402 11.338 5.59787 11.3398C5.3641 11.3415 5.13033 11.3424 4.89655 11.3428C4.80728 11.3431 4.718 11.3437 4.62873 11.3445C4.50387 11.3457 4.37904 11.3458 4.25417 11.3458C4.19857 11.3466 4.19857 11.3466 4.14186 11.3475C3.8919 11.3459 3.8919 11.3459 3.76721 11.2561C3.6858 11.1343 3.66688 11.0365 3.66655 10.8935C3.66639 10.8608 3.66622 10.828 3.66605 10.7943C3.66607 10.7585 3.66608 10.7227 3.6661 10.6858C3.66597 10.648 3.66584 10.6102 3.6657 10.5712C3.66533 10.446 3.66526 10.3208 3.66521 10.1955C3.66509 10.1086 3.66496 10.0216 3.66482 9.93469C3.66459 9.75231 3.66451 9.56993 3.66454 9.38755C3.66454 9.15378 3.66401 8.92001 3.66334 8.68624C3.6629 8.50663 3.66282 8.32701 3.66284 8.14739C3.6628 8.0612 3.66262 7.97502 3.66232 7.88883C3.66194 7.76829 3.66205 7.64777 3.66229 7.52723C3.66207 7.49159 3.66185 7.45595 3.66162 7.41923C3.6632 7.10233 3.6632 7.10233 3.7499 6.95303C3.87129 6.8721 3.89655 6.86517 4.03393 6.86551C4.06794 6.8654 4.10196 6.86529 4.137 6.86518C4.1928 6.8656 4.1928 6.8656 4.24973 6.86603C4.30862 6.86601 4.30862 6.86601 4.3687 6.866C4.49869 6.86605 4.62867 6.86666 4.75866 6.86727C4.8487 6.86742 4.93874 6.86753 5.02878 6.86761C5.26593 6.8679 5.50309 6.86867 5.74025 6.86954C5.98218 6.87033 6.22411 6.87069 6.46604 6.87109C6.94087 6.87192 7.4157 6.87326 7.89053 6.8749C7.89018 6.83667 7.88983 6.79845 7.88947 6.75906C7.88631 6.39869 7.88396 6.03833 7.88243 5.67795C7.88161 5.49268 7.88051 5.30742 7.87874 5.12215C7.87704 4.94334 7.87611 4.76453 7.8757 4.58571C7.87541 4.51751 7.87485 4.44931 7.874 4.38112C7.87287 4.28554 7.87271 4.19 7.87279 4.09442C7.87223 4.06626 7.87166 4.03811 7.87108 4.0091C7.87222 3.87014 7.88777 3.79334 7.96243 3.67466C8.07834 3.56333 8.17064 3.54972 8.32504 3.54936ZM12.0312 18.8671C12.0312 18.8929 12.0312 18.9187 12.0312 18.9452C12.0569 18.9323 12.0827 18.9194 12.1093 18.9062C12.0835 18.8933 12.0577 18.8804 12.0312 18.8671Z" fill="#B86F51"/>
<path d="M17.1875 10.703C17.1875 10.7159 17.1875 10.7288 17.1875 10.7421C17.1411 10.753 17.0948 10.764 17.0471 10.7752C15.8375 11.0705 14.8868 11.7091 14.2257 12.7749C13.6878 13.6703 13.5277 14.8376 13.7793 15.8537C13.969 16.5515 13.969 16.5515 14.375 17.1093C14.4592 17.1161 14.4592 17.1161 14.5483 17.1044C14.6817 17.1011 14.7152 17.1015 14.8291 17.1801C14.889 17.3191 14.8808 17.3729 14.8608 17.5195C14.8344 17.6909 14.8344 17.6909 14.917 17.8393C14.9774 17.884 14.9774 17.884 15.039 17.9296C15.0895 17.9784 15.1399 18.0273 15.1904 18.0761C15.7032 18.5261 16.3385 18.8036 17.0065 18.9202C17.0404 18.9285 17.0744 18.9367 17.1093 18.9452C17.1222 18.971 17.1351 18.9968 17.1484 19.0234C16.8005 19.1553 16.4597 19.2644 16.0937 19.3359C16.0532 19.3439 16.0128 19.352 15.971 19.3603C14.8409 19.5607 13.6639 19.2679 12.7209 18.6239C12.6048 18.5392 12.4933 18.4512 12.3828 18.3593C12.3288 18.3149 12.3288 18.3149 12.2737 18.2696C11.4323 17.5433 10.9283 16.5217 10.7812 15.4296C10.774 15.3865 10.7667 15.3434 10.7592 15.299C10.7374 15.1165 10.7365 14.937 10.7373 14.7533C10.7371 14.718 10.737 14.6826 10.7368 14.6461C10.7369 14.6124 10.7369 14.5786 10.737 14.5438C10.737 14.5133 10.7371 14.4827 10.7371 14.4512C10.7422 14.3749 10.7422 14.3749 10.7812 14.2968C10.7918 14.2237 10.8014 14.1504 10.8105 14.0771C10.9881 12.9073 11.683 11.8511 12.6303 11.1521C13.9579 10.2077 15.6981 10.0442 17.1875 10.703Z" fill="#EDD672"/>
<path d="M15.2 9.71679C15.2692 9.71723 15.2692 9.71723 15.3397 9.71768C16.4571 9.73132 17.5602 10.0079 18.4373 10.7422C18.5413 10.8569 18.5553 10.8771 18.5496 11.0376C18.5168 11.1665 18.5034 11.2134 18.3983 11.2891C18.2806 11.3479 18.1728 11.3286 18.0418 11.3257C17.0854 11.3176 16.1889 11.5739 15.4686 12.2266C15.4362 12.2554 15.4037 12.2842 15.3703 12.3138C14.7193 12.9249 14.3517 13.7969 14.2888 14.682C14.2777 15.3644 14.418 15.9808 14.7411 16.582C14.8113 16.7334 14.8272 16.8273 14.8045 16.9922C14.756 17.0831 14.7128 17.1008 14.6168 17.133C14.4608 17.1675 14.4608 17.1675 14.3748 17.1484C14.0177 16.7869 13.8727 16.261 13.7498 15.7812C13.7366 15.7391 13.7233 15.697 13.7097 15.6536C13.6465 15.4109 13.6545 15.1664 13.6546 14.917C13.6546 14.8892 13.6546 14.8614 13.6546 14.8327C13.6583 13.7012 14.0566 12.7526 14.8283 11.9282C15.471 11.2929 16.2098 10.9498 17.0702 10.7031C16.5658 10.4879 16.0565 10.3734 15.5077 10.3516C15.4811 10.3503 15.4545 10.349 15.4271 10.3477C14.2399 10.2965 13.1143 10.7259 12.2349 11.5222C11.4759 12.2292 10.9625 13.1658 10.8342 14.2001C10.8202 14.2969 10.8202 14.2969 10.7811 14.375C10.7151 15.6304 11.0346 16.7925 11.8358 17.7734C11.8737 17.8203 11.8737 17.8203 11.9124 17.8682C12.6237 18.7087 13.7288 19.2464 14.8157 19.3639C15.5814 19.4226 16.3564 19.3152 17.0702 19.0234C17.083 19.0105 17.0959 18.9977 17.1092 18.9844C17.0765 18.9786 17.0439 18.9729 17.0102 18.967C16.1872 18.8084 15.4887 18.4265 14.8827 17.8516C14.791 17.7141 14.7819 17.6618 14.8045 17.5C14.8875 17.3877 14.8875 17.3877 14.9998 17.3047C15.1516 17.2825 15.2144 17.291 15.3418 17.3791C15.378 17.4126 15.4142 17.446 15.4515 17.4805C16.1981 18.1392 17.0336 18.3706 18.0121 18.3802C18.0547 18.381 18.0972 18.3818 18.141 18.3826C18.1793 18.3828 18.2175 18.3831 18.2569 18.3834C18.3754 18.4008 18.4288 18.4345 18.5155 18.5156C18.5593 18.6198 18.5665 18.716 18.5545 18.8281C18.4898 18.9196 18.4475 18.9597 18.3592 19.0234C18.333 19.0438 18.3067 19.0641 18.2797 19.0851C17.7561 19.4732 17.1861 19.7073 16.5623 19.8828C16.5353 19.8904 16.5083 19.898 16.4804 19.9059C15.1798 20.2494 13.769 19.9341 12.617 19.2969C12.5375 19.2465 12.4601 19.1942 12.3827 19.1406C12.3682 19.2143 12.3682 19.2143 12.3534 19.2895C12.3341 19.3873 12.3153 19.4411 12.2486 19.5157C12.0914 19.6013 11.937 19.5873 11.7607 19.5867C11.7214 19.587 11.682 19.5874 11.6415 19.5877C11.5114 19.5886 11.3813 19.5887 11.2512 19.5886C11.1608 19.5889 11.0704 19.5892 10.98 19.5895C10.7905 19.59 10.601 19.5901 10.4115 19.5899C10.1686 19.5896 9.9257 19.5908 9.68278 19.5924C9.49609 19.5934 9.3094 19.5935 9.12271 19.5934C9.03314 19.5935 8.94358 19.5938 8.85401 19.5945C8.72878 19.5954 8.60362 19.595 8.4784 19.5943C8.44136 19.5949 8.40432 19.5954 8.36615 19.5959C8.20497 19.5938 8.10754 19.5825 7.96516 19.5028C7.84614 19.2991 7.86331 19.1 7.86519 18.8682C7.86485 18.8167 7.86451 18.7652 7.86416 18.7121C7.86327 18.571 7.86361 18.43 7.86423 18.2889C7.86472 18.1411 7.86427 17.9934 7.86396 17.8456C7.8636 17.5975 7.86407 17.3494 7.865 17.1012C7.86606 16.8145 7.86572 16.5278 7.86465 16.2411C7.86376 15.9948 7.86363 15.7485 7.86414 15.5022C7.86445 15.3551 7.86449 15.2081 7.86384 15.061C7.86317 14.8971 7.8641 14.7332 7.86519 14.5692C7.8648 14.5206 7.8644 14.4719 7.86399 14.4218C7.8685 14.0558 7.8685 14.0558 7.98085 13.9332C8.08578 13.8672 8.08578 13.8672 8.22738 13.8672C8.40458 13.9197 8.40458 13.9197 8.4764 14.0234C8.51522 14.1399 8.52029 14.2156 8.52016 14.3371C8.52022 14.3777 8.52027 14.4183 8.52032 14.4601C8.52018 14.5046 8.52004 14.5491 8.5199 14.595C8.51991 14.6419 8.51991 14.6887 8.51992 14.737C8.51989 14.8656 8.5197 14.9942 8.51943 15.1227C8.51918 15.2571 8.51916 15.3914 8.51911 15.5258C8.51899 15.7802 8.51867 16.0346 8.51828 16.289C8.5178 16.607 8.51758 16.9251 8.51737 17.2431C8.51699 17.8105 8.51621 18.3779 8.51546 18.9453C10.275 18.926 10.275 18.926 12.0702 18.9062C11.8252 18.6613 11.5803 18.4164 11.328 18.1641C11.1722 17.9575 11.0289 17.76 10.8983 17.5391C10.8827 17.5132 10.8671 17.4874 10.8511 17.4608C10.5137 16.8927 10.2624 16.2463 10.1952 15.5859C10.1909 15.5515 10.1867 15.517 10.1823 15.4816C10.0749 14.503 10.2181 13.5882 10.6248 12.6953C10.642 12.6573 10.6592 12.6193 10.6769 12.5801C10.9412 12.023 11.3177 11.5612 11.7577 11.1328C11.7757 11.113 11.7937 11.0932 11.8123 11.0728C12.342 10.5057 13.0997 10.1514 13.828 9.92187C13.865 9.90948 13.902 9.8971 13.9401 9.88433C14.3536 9.75068 14.7673 9.71314 15.2 9.71679Z" fill="#020101"/>
<path d="M3.68632 -0.0169983C3.73149 -0.0193398 3.73149 -0.0193398 3.77757 -0.0217285C3.93938 0.0177578 4.00938 0.172829 4.09277 0.308681C4.1159 0.349751 4.13902 0.390821 4.16285 0.433136C4.18193 0.466803 4.18193 0.466803 4.20139 0.50115C4.24225 0.573305 4.28289 0.645583 4.32353 0.717865C4.37933 0.816595 4.43525 0.915252 4.49122 1.01389C4.50484 1.03792 4.51847 1.06195 4.5325 1.0867C4.66513 1.32008 4.80361 1.54951 4.94487 1.77774C4.9998 1.87509 4.9998 1.87509 4.9998 1.95322C5.04112 1.9527 5.04112 1.9527 5.08327 1.95217C5.34306 1.94903 5.60283 1.94665 5.86262 1.94512C5.99619 1.94431 6.12973 1.9432 6.26328 1.94143C6.41687 1.9394 6.57044 1.93865 6.72404 1.93796C6.77194 1.93715 6.81983 1.93634 6.86918 1.93551C6.91375 1.9355 6.95831 1.93549 7.00423 1.93548C7.04344 1.93513 7.08265 1.93478 7.12304 1.93443C7.25573 1.95856 7.30117 2.00378 7.38261 2.10947C7.44368 2.42397 7.27626 2.64173 7.1165 2.90292C7.0898 2.94785 7.06317 2.99282 7.03663 3.03784C6.91283 3.24716 6.7862 3.45472 6.65934 3.6622C6.63909 3.69587 6.61884 3.72954 6.59797 3.76423C6.56038 3.82665 6.52216 3.88868 6.48321 3.95026C6.38543 4.10392 6.38543 4.10392 6.38484 4.27835C6.40473 4.31028 6.42462 4.3422 6.44511 4.37509C6.46988 4.42165 6.49448 4.4683 6.51896 4.51501C6.54956 4.57017 6.58029 4.62525 6.61113 4.68027C6.636 4.7252 6.636 4.7252 6.66138 4.77104C6.76508 4.95693 6.87253 5.14003 6.98313 5.3219C7.00805 5.36327 7.03296 5.40465 7.05863 5.44728C7.10782 5.52871 7.15757 5.60981 7.20793 5.69052C7.34152 5.91256 7.43041 6.06732 7.38261 6.32822C7.32732 6.41365 7.32732 6.41365 7.22636 6.48447C7.09634 6.50826 6.96758 6.50648 6.8357 6.50579C6.77623 6.5064 6.77623 6.5064 6.71556 6.50701C6.58451 6.50817 6.45348 6.50822 6.32243 6.50827C6.23157 6.50886 6.14071 6.50951 6.04985 6.51023C5.81071 6.51194 5.57156 6.51272 5.33241 6.5133C5.08838 6.51407 4.84435 6.51571 4.60032 6.51727C4.1215 6.52022 3.64269 6.52218 3.16386 6.52353C3.18642 6.55938 3.20898 6.59523 3.23222 6.63217C3.26155 6.68057 3.29085 6.72899 3.32011 6.77744C3.33501 6.8009 3.34992 6.82437 3.36528 6.84854C3.47663 7.03546 3.49547 7.16577 3.47636 7.3829C3.42006 7.49846 3.38658 7.52906 3.2664 7.57333C3.14362 7.57918 3.07836 7.55432 2.96855 7.50009C2.91056 7.43616 2.91056 7.43616 2.86113 7.35605C2.84189 7.32523 2.82265 7.29442 2.80284 7.26266C2.78018 7.225 2.75752 7.18734 2.73417 7.14853C2.70317 7.09826 2.67214 7.04801 2.64109 6.99777C2.60859 6.9447 2.57614 6.8916 2.54374 6.83847C2.52789 6.81258 2.51204 6.78669 2.49572 6.76001C2.38261 6.57174 2.38261 6.57174 2.38261 6.48447C2.35506 6.48481 2.32751 6.48516 2.29913 6.48552C2.03935 6.48865 1.77958 6.49103 1.51978 6.49256C1.38622 6.49338 1.25268 6.49448 1.11912 6.49625C0.965541 6.49828 0.811963 6.49904 0.658367 6.49973C0.586521 6.50094 0.586521 6.50094 0.513224 6.50217C0.468659 6.50218 0.424093 6.50219 0.378177 6.5022C0.319365 6.50273 0.319366 6.50273 0.259366 6.50326C0.126735 6.47914 0.0813513 6.43371 -0.000202816 6.32822C-0.0624812 6.02949 0.0951806 5.81088 0.244703 5.56254C0.288322 5.49008 0.331058 5.41717 0.373618 5.34408C0.498073 5.13116 0.625265 4.92006 0.756023 4.71094C0.774584 4.68082 0.793146 4.65071 0.81227 4.61968C0.84578 4.56568 0.88001 4.51211 0.915077 4.4591C0.96646 4.38051 0.96646 4.38051 1.01542 4.2579C0.974575 4.09653 0.908205 3.96158 0.823772 3.81891C0.80132 3.78074 0.778869 3.74257 0.755737 3.70325C0.731863 3.66312 0.707988 3.62298 0.683391 3.58163C0.659064 3.54014 0.634736 3.49865 0.609672 3.4559C0.497672 3.2652 0.384512 3.07545 0.267436 2.88782C0.249284 2.8583 0.231131 2.82878 0.212428 2.79837C0.179201 2.74454 0.145413 2.69104 0.110957 2.63798C-0.0018737 2.4542 -0.0291853 2.32527 -0.000202816 2.10947C0.0807162 2.00289 0.126398 1.95861 0.259366 1.93443C0.318177 1.93495 0.318177 1.93495 0.378177 1.93548C0.422743 1.93549 0.467308 1.9355 0.513224 1.93551C0.58507 1.93672 0.58507 1.93672 0.658367 1.93796C0.707566 1.93818 0.756766 1.9384 0.807457 1.93863C0.937965 1.93935 1.06843 1.94076 1.19893 1.94249C1.3322 1.94409 1.46548 1.9448 1.59877 1.94559C1.86006 1.94731 2.12133 1.94993 2.38261 1.95322C2.39451 1.92289 2.40641 1.89257 2.41867 1.86133C2.46034 1.75886 2.50858 1.66601 2.56297 1.56976C2.59338 1.51585 2.59338 1.51585 2.62441 1.46084C2.64613 1.42272 2.66785 1.38459 2.69023 1.34531C2.71257 1.30595 2.73492 1.26658 2.75795 1.22603C2.91252 0.954931 3.06973 0.685477 3.22978 0.417572C3.24949 0.384486 3.26919 0.351401 3.2895 0.317312C3.30781 0.286902 3.32612 0.256491 3.34498 0.225159C3.36898 0.185255 3.36898 0.185255 3.39346 0.144545C3.47996 0.0136717 3.53318 -0.0126738 3.68632 -0.0169983ZM3.67167 0.937592C3.57425 1.08883 3.48611 1.2459 3.39579 1.40146C3.36989 1.44552 3.34398 1.48958 3.31729 1.53497C3.29279 1.57702 3.26829 1.61906 3.24305 1.66238C3.20906 1.72068 3.20906 1.72068 3.17438 1.78016C3.11877 1.86878 3.11877 1.86878 3.1248 1.95322C3.49863 1.95322 3.87245 1.95322 4.25761 1.95322C4.20052 1.8105 4.14514 1.69086 4.06932 1.55939C4.04842 1.52301 4.02752 1.48663 4.00599 1.44914C3.98429 1.41165 3.96259 1.37417 3.94023 1.33554C3.91822 1.2973 3.89622 1.25905 3.87355 1.21965C3.81939 1.12556 3.76512 1.03155 3.71073 0.937592C3.69784 0.937592 3.68495 0.937592 3.67167 0.937592ZM0.859172 2.57822C1.05906 2.94483 1.05906 2.94483 1.26445 3.3082C1.27829 3.33234 1.29214 3.35649 1.30641 3.38136C1.33958 3.43919 1.37281 3.49699 1.40605 3.55478C1.50707 3.46302 1.56999 3.36648 1.63722 3.24808C1.65799 3.21162 1.67876 3.17516 1.70016 3.1376C1.72154 3.09964 1.74291 3.06167 1.76493 3.02255C1.79768 2.96515 1.79768 2.96515 1.83108 2.90659C1.93745 2.7508 1.93745 2.7508 1.99198 2.57822C1.61816 2.57822 1.24433 2.57822 0.859172 2.57822ZM2.42385 2.88025C2.34569 3.04802 2.2824 3.21593 2.22897 3.39311C2.16574 3.57913 2.06159 3.73186 1.95292 3.89413C1.8904 3.98942 1.84353 4.07472 1.79667 4.17978C1.8437 4.33816 1.92898 4.47693 2.01091 4.61969C2.02411 4.64276 2.03732 4.66584 2.05092 4.68961C2.07884 4.73833 2.10681 4.78702 2.13485 4.83567C2.17697 4.90879 2.21893 4.98201 2.26084 5.05525C2.35735 5.22548 2.35735 5.22548 2.45845 5.39296C2.4998 5.46884 2.4998 5.46884 2.53181 5.57131C2.58325 5.70361 2.62295 5.76962 2.73417 5.85947C3.00672 5.93481 3.30637 5.90465 3.58592 5.89761C3.67053 5.89688 3.75515 5.89633 3.83977 5.89594C4.06214 5.89445 4.2844 5.89061 4.50673 5.88629C4.73374 5.88229 4.96076 5.88051 5.18779 5.87854C5.63298 5.87435 6.0781 5.86769 6.52323 5.85947C6.48614 5.78458 6.44896 5.70973 6.41175 5.6349C6.39106 5.59321 6.37036 5.55152 6.34904 5.50857C6.2782 5.36984 6.20102 5.23927 6.11796 5.10751C6.09107 5.06461 6.06418 5.02171 6.03648 4.97751C6.01664 4.94629 5.9968 4.91507 5.97636 4.8829C5.84701 5.0014 5.76291 5.12394 5.67607 5.27597C5.65255 5.31671 5.62904 5.35744 5.60481 5.39941C5.54344 5.50659 5.54344 5.50659 5.50761 5.62509C5.22983 5.63898 5.22983 5.63898 5.09745 5.58603C5.0246 5.48889 5.01628 5.41156 5.01834 5.29155C5.05433 5.12293 5.15561 4.99291 5.24939 4.85055C5.48237 4.51531 5.48237 4.51531 5.58978 4.13156C5.54989 3.96863 5.44282 3.84496 5.33828 3.71856C5.20065 3.53731 5.09692 3.33265 4.98515 3.13486C4.93784 3.05356 4.89035 2.97238 4.84263 2.89133C4.82212 2.85639 4.80161 2.82146 4.78047 2.78547C4.70503 2.63621 4.70503 2.63621 4.56985 2.55782C4.52158 2.55396 4.52158 2.55396 4.47234 2.55004C4.43577 2.54706 4.39921 2.54408 4.36154 2.54102C3.28271 2.4029 3.28271 2.4029 2.42385 2.88025ZM5.39042 2.57822C5.58163 2.96335 5.58163 2.96335 5.7957 3.33017C5.82259 3.37307 5.84947 3.41597 5.87718 3.46017C5.89702 3.49139 5.91686 3.52261 5.9373 3.55478C6.09097 3.37768 6.20238 3.18129 6.31816 2.97861C6.33795 2.94442 6.35774 2.91023 6.37812 2.875C6.47489 2.73453 6.47489 2.73453 6.52323 2.57822C6.14941 2.57822 5.77558 2.57822 5.39042 2.57822ZM1.40605 4.8829C1.34402 4.98697 1.28224 5.09117 1.2205 5.1954C1.20318 5.22446 1.18586 5.25351 1.16801 5.28345C1.15089 5.3124 1.13377 5.34135 1.11613 5.37119C1.09281 5.41046 1.09281 5.41046 1.06902 5.45053C0.99459 5.58445 0.92769 5.72243 0.859172 5.85947C1.233 5.85947 1.60683 5.85947 1.99198 5.85947C1.91001 5.65453 1.80945 5.47363 1.69902 5.28329C1.67953 5.2491 1.66004 5.21491 1.63996 5.17969C1.62118 5.14721 1.6024 5.11473 1.58305 5.08127C1.56595 5.05162 1.54886 5.02198 1.53125 4.99143C1.48851 4.91617 1.48851 4.91617 1.40605 4.8829Z" fill="black"/>
<path d="M9.70408 4.86828C9.75256 4.86775 9.75256 4.86775 9.80201 4.86721C9.87037 4.86664 9.93874 4.8663 10.0071 4.86615C10.1115 4.86569 10.2157 4.86377 10.3201 4.86179C10.3866 4.86142 10.453 4.86114 10.5195 4.86095C10.5661 4.85981 10.5661 4.85981 10.6137 4.85864C10.6431 4.85888 10.6724 4.85912 10.7026 4.85936C10.7282 4.85916 10.7538 4.85897 10.7801 4.85876C10.9126 4.89901 10.9707 4.96993 11.0545 5.07809C11.0729 5.1881 11.0794 5.27401 11.0767 5.38354C11.0767 5.42873 11.0767 5.42873 11.0767 5.47483C11.0766 5.57399 11.0751 5.67307 11.0736 5.77221C11.0732 5.84112 11.0729 5.91003 11.0727 5.97893C11.072 6.15998 11.0701 6.34099 11.0679 6.52202C11.0659 6.70688 11.065 6.89174 11.064 7.07661C11.0619 7.43909 11.0586 7.80156 11.0545 8.16402C11.1035 8.16376 11.1525 8.1635 11.2029 8.16324C11.6645 8.16086 12.126 8.1591 12.5876 8.15795C12.8249 8.15734 13.0622 8.15651 13.2994 8.15518C13.5284 8.15391 13.7574 8.15321 13.9863 8.15291C14.0737 8.15269 14.1611 8.15227 14.2485 8.15163C14.3708 8.15078 14.4931 8.15067 14.6155 8.15072C14.6516 8.1503 14.6878 8.14988 14.7251 8.14944C14.9327 8.15044 15.0798 8.16591 15.2342 8.32027C15.2462 8.46073 15.245 8.60173 15.2464 8.74264C15.2475 8.78214 15.2486 8.82164 15.2498 8.86234C15.2523 9.15268 15.2523 9.15268 15.164 9.28402C15.0385 9.35965 14.9478 9.35415 14.8045 9.3359C14.7023 9.26437 14.6885 9.22224 14.6482 9.10152C14.6432 8.99707 14.6465 8.89367 14.6482 8.78902C14.5987 8.78946 14.5493 8.78989 14.4983 8.79034C14.0321 8.7943 13.566 8.79723 13.0999 8.79914C12.8602 8.80016 12.6206 8.80155 12.3809 8.80376C12.1497 8.80588 11.9184 8.80705 11.6872 8.80756C11.5989 8.80792 11.5107 8.80862 11.4224 8.80967C11.2988 8.81109 11.1753 8.81129 11.0518 8.8112C11.0152 8.8119 10.9787 8.8126 10.941 8.81333C10.7724 8.81199 10.6868 8.8042 10.5433 8.7093C10.45 8.56501 10.4423 8.45112 10.4464 8.28467C10.4463 8.23891 10.4463 8.23891 10.4463 8.19222C10.4464 8.0918 10.4479 7.99145 10.4495 7.89105C10.4498 7.82126 10.4501 7.75148 10.4503 7.68169C10.4511 7.49834 10.453 7.31501 10.4551 7.13167C10.4571 6.94446 10.458 6.75724 10.459 6.57002C10.4611 6.2029 10.4645 5.83581 10.4685 5.46871C10.2494 5.46871 10.0303 5.46871 9.80448 5.46871C9.8051 5.55999 9.80571 5.65126 9.80634 5.74531C9.80828 6.047 9.80958 6.34869 9.81055 6.65038C9.81116 6.83329 9.81199 7.01619 9.81332 7.19909C9.8146 7.37562 9.8153 7.55215 9.8156 7.72869C9.81582 7.79602 9.81624 7.86334 9.81687 7.93067C9.81772 8.02503 9.81784 8.11936 9.81779 8.21372C9.81821 8.24151 9.81863 8.2693 9.81906 8.29793C9.818 8.46827 9.79503 8.57741 9.68729 8.7109C9.57548 8.77895 9.49256 8.79874 9.36248 8.79842C9.31236 8.79858 9.31236 8.79858 9.26123 8.79875C9.2249 8.79846 9.18857 8.79818 9.15114 8.79789C9.11263 8.79791 9.07413 8.79792 9.03446 8.79793C8.90722 8.79787 8.77999 8.79727 8.65275 8.79665C8.56452 8.79651 8.47629 8.7964 8.38805 8.79632C8.15584 8.79602 7.92363 8.79525 7.69142 8.79439C7.45446 8.79359 7.2175 8.79323 6.98054 8.79284C6.5156 8.792 6.05067 8.79067 5.58573 8.78902C5.58573 8.99527 5.58573 9.20152 5.58573 9.41402C5.63473 9.41376 5.68372 9.4135 5.7342 9.41324C6.19574 9.41086 6.65728 9.4091 7.11883 9.40795C7.35612 9.40734 7.5934 9.40651 7.83069 9.40518C8.05965 9.40391 8.28861 9.40321 8.51758 9.40291C8.60496 9.40269 8.69235 9.40227 8.77974 9.40163C8.90207 9.40078 9.02437 9.40067 9.1467 9.40072C9.18289 9.4003 9.21908 9.39988 9.25637 9.39944C9.44459 9.40035 9.5752 9.40592 9.72636 9.53121C9.82485 9.67895 9.81514 9.79544 9.81388 9.9665C9.81394 9.9993 9.81401 10.0321 9.81408 10.0659C9.81421 10.1762 9.81378 10.2865 9.81335 10.3968C9.81333 10.4757 9.81334 10.5546 9.81339 10.6335C9.81341 10.8481 9.81295 11.0627 9.8124 11.2773C9.81192 11.5014 9.81187 11.7255 9.81178 11.9497C9.81153 12.3742 9.81089 12.7988 9.81011 13.2234C9.80924 13.7067 9.80881 14.19 9.80841 14.6733C9.8076 15.6676 9.80622 16.6619 9.80448 17.6562C9.84733 17.6549 9.89018 17.6535 9.93433 17.6521C9.99115 17.651 10.048 17.6499 10.1048 17.6489C10.1329 17.6479 10.1611 17.6469 10.1901 17.6459C10.3701 17.6434 10.4808 17.6641 10.6248 17.7734C10.6639 17.8125 10.6639 17.8125 10.6736 17.9638C10.6718 18.1133 10.6718 18.1133 10.6126 18.2006C10.4102 18.3281 10.1566 18.2916 9.92655 18.2934C9.88028 18.2946 9.834 18.2957 9.78632 18.2969C9.74166 18.2972 9.697 18.2975 9.65098 18.2978C9.58981 18.2987 9.58981 18.2987 9.5274 18.2996C9.38461 18.2765 9.32045 18.2258 9.21854 18.125C9.16984 17.9789 9.17422 17.8433 9.17478 17.6912C9.17475 17.6585 9.17472 17.6259 9.17468 17.5922C9.17462 17.4825 9.17483 17.3727 9.17505 17.263C9.17506 17.1844 9.17505 17.1059 9.17503 17.0274C9.17502 16.8138 9.17525 16.6003 9.17552 16.3868C9.17576 16.1637 9.17579 15.9407 9.17583 15.7177C9.17596 15.2952 9.17628 14.8727 9.17667 14.4502C9.1771 13.9693 9.17732 13.4883 9.17752 13.0074C9.17792 12.0179 9.17861 11.0285 9.17948 10.039C9.13 10.0395 9.08052 10.0399 9.02953 10.0403C8.56339 10.0443 8.09726 10.0472 7.63111 10.0491C7.39145 10.0502 7.1518 10.0515 6.91215 10.0538C6.68091 10.0559 6.44968 10.057 6.21843 10.0576C6.13016 10.0579 6.0419 10.0586 5.95365 10.0597C5.83009 10.0611 5.70659 10.0613 5.58303 10.0612C5.5282 10.0623 5.5282 10.0623 5.47226 10.0633C5.29374 10.0619 5.21958 10.0582 5.07476 9.94489C5.002 9.84668 4.97525 9.80749 4.97452 9.68838C4.97391 9.6593 4.97329 9.63023 4.97266 9.60028C4.97305 9.56943 4.97345 9.53858 4.97385 9.5068C4.97367 9.47459 4.97348 9.44238 4.97329 9.4092C4.97316 9.3413 4.97351 9.2734 4.97433 9.20551C4.97538 9.10182 4.97434 8.9983 4.97309 8.89462C4.97322 8.82849 4.97347 8.76237 4.97385 8.69625C4.97346 8.6654 4.97306 8.63456 4.97266 8.60277C4.97327 8.5737 4.97389 8.54463 4.97452 8.51467C4.97468 8.48932 4.97483 8.46398 4.97499 8.43786C5.01768 8.30271 5.08188 8.24809 5.19511 8.16402C5.3246 8.13639 5.45107 8.13932 5.58303 8.14185C5.62192 8.14182 5.66081 8.14179 5.70088 8.14177C5.8292 8.1419 5.95746 8.14342 6.08576 8.14495C6.17481 8.14532 6.26387 8.14559 6.35292 8.14579C6.58713 8.14653 6.82132 8.14845 7.05552 8.15061C7.29458 8.15261 7.53364 8.1535 7.7727 8.15449C8.24164 8.15658 8.71056 8.15991 9.17948 8.16402C9.17931 8.1262 9.17913 8.08838 9.17896 8.04941C9.17737 7.69305 9.1762 7.33669 9.17543 6.98033C9.17503 6.79712 9.17447 6.61391 9.17359 6.4307C9.17274 6.25392 9.17227 6.07713 9.17207 5.90034C9.17193 5.83287 9.17164 5.76541 9.17122 5.69794C9.17066 5.60348 9.17058 5.50904 9.17061 5.41458C9.17033 5.38665 9.17005 5.35872 9.16976 5.32995C9.17035 5.18808 9.17395 5.07848 9.25761 4.9609C9.40691 4.86137 9.53081 4.86944 9.70408 4.86828Z" fill="#080605"/>
<path d="M8.32504 3.54936C8.37416 3.54911 8.37416 3.54911 8.42427 3.54886C8.46007 3.54888 8.49587 3.5489 8.53275 3.54891C8.58945 3.54872 8.58945 3.54872 8.6473 3.54852C8.77255 3.54814 8.89779 3.54807 9.02303 3.54803C9.10998 3.5479 9.19692 3.54777 9.28386 3.54763C9.46624 3.5474 9.64862 3.54733 9.831 3.54735C10.0648 3.54735 10.2985 3.54682 10.5323 3.54615C10.7119 3.54571 10.8915 3.54563 11.0712 3.54565C11.1573 3.54561 11.2435 3.54544 11.3297 3.54513C11.4503 3.54475 11.5708 3.54486 11.6913 3.5451C11.727 3.54488 11.7626 3.54466 11.7993 3.54443C12.1162 3.54601 12.1162 3.54601 12.2655 3.63271C12.3614 3.7765 12.3541 3.8839 12.3525 4.05007C12.3525 4.08057 12.3525 4.11106 12.3526 4.14248C12.3525 4.24331 12.3519 4.34412 12.3513 4.44494C12.3511 4.51483 12.351 4.58473 12.3509 4.65463C12.3506 4.83861 12.3499 5.02259 12.349 5.20658C12.3482 5.39431 12.3479 5.58205 12.3475 5.76978C12.3466 6.13816 12.3453 6.50653 12.3437 6.8749C12.3937 6.87455 12.4438 6.87421 12.4953 6.87385C12.9667 6.87068 13.438 6.86834 13.9093 6.8668C14.1517 6.86599 14.394 6.86488 14.6363 6.86311C14.8701 6.86142 15.1038 6.86048 15.3376 6.86008C15.4269 6.85979 15.5162 6.85922 15.6054 6.85838C15.7303 6.85725 15.8551 6.85709 15.98 6.85716C16.0171 6.8566 16.0541 6.85604 16.0923 6.85546C16.3431 6.85704 16.3431 6.85704 16.467 6.94925C16.5525 7.07346 16.5674 7.14197 16.5681 7.29137C16.5684 7.34809 16.5684 7.34809 16.5688 7.40595C16.5689 7.46741 16.5689 7.46741 16.569 7.53011C16.5691 7.57212 16.5692 7.61412 16.5694 7.6574C16.5696 7.74638 16.5696 7.83537 16.5696 7.92436C16.5697 8.06059 16.5704 8.1968 16.5712 8.33303C16.5713 8.41939 16.5714 8.50576 16.5714 8.59212C16.5717 8.63294 16.572 8.67376 16.5723 8.71581C16.5721 8.75387 16.572 8.79192 16.5719 8.83113C16.5719 8.86455 16.572 8.89798 16.5721 8.93241C16.5614 9.03314 16.5395 9.09491 16.4843 9.17959C16.3577 9.24148 16.2838 9.2648 16.1449 9.23574C16.0285 9.16336 15.9954 9.10915 15.9374 8.98428C15.9219 8.86943 15.9237 8.75621 15.926 8.64049C15.9261 8.60782 15.9263 8.57515 15.9265 8.54149C15.9271 8.43761 15.9286 8.33376 15.9301 8.22988C15.9307 8.15926 15.9312 8.08864 15.9317 8.01801C15.933 7.8453 15.935 7.6726 15.9374 7.4999C15.8632 7.50042 15.8632 7.50042 15.7875 7.50095C15.3213 7.50412 14.8552 7.50646 14.389 7.508C14.1494 7.50881 13.9097 7.50992 13.6701 7.51169C13.4388 7.51338 13.2076 7.51432 12.9763 7.51472C12.8881 7.51501 12.7998 7.51558 12.7116 7.51642C12.588 7.51755 12.4645 7.51771 12.341 7.51764C12.3044 7.5182 12.2678 7.51876 12.2302 7.51934C12.0741 7.51835 11.9739 7.51028 11.8325 7.43993C11.7302 7.30826 11.7317 7.19546 11.7355 7.03546C11.7355 7.00408 11.7355 6.9727 11.7355 6.94037C11.7356 6.83897 11.7371 6.73764 11.7386 6.63625C11.7389 6.57358 11.7391 6.51091 11.7392 6.44825C11.7403 6.21611 11.743 5.98398 11.7455 5.75185C11.7515 4.97358 11.7515 4.97358 11.7577 4.17959C10.6878 4.17959 9.61787 4.17959 8.51553 4.17959C8.52016 5.17353 8.52016 5.17353 8.52608 6.16746C8.52661 6.35998 8.52661 6.35998 8.52671 6.45019C8.52689 6.51301 8.5273 6.57583 8.5279 6.63864C8.52876 6.73397 8.52887 6.82927 8.52883 6.9246C8.52946 6.96636 8.52946 6.96636 8.53011 7.00896C8.52904 7.17925 8.50603 7.28834 8.39834 7.42178C8.28653 7.48983 8.20361 7.50962 8.07352 7.5093C8.0234 7.50946 8.0234 7.50946 7.97227 7.50962C7.93594 7.50934 7.89961 7.50906 7.86218 7.50877C7.82368 7.50878 7.78517 7.50879 7.7455 7.5088C7.61826 7.50875 7.49103 7.50814 7.36379 7.50753C7.27556 7.50738 7.18733 7.50727 7.0991 7.50719C6.86688 7.5069 6.63467 7.50613 6.40246 7.50526C6.12384 7.50433 5.84522 7.50397 5.56659 7.50351C5.14332 7.50275 4.72005 7.50126 4.29678 7.4999C4.29678 8.55693 4.29678 9.61396 4.29678 10.703C4.72058 10.701 4.72058 10.701 5.15295 10.6989C5.33186 10.6983 5.51076 10.6977 5.68967 10.6973C5.9737 10.6966 6.25771 10.6958 6.54173 10.6942C6.7707 10.6929 6.99965 10.6922 7.22862 10.6919C7.31601 10.6917 7.4034 10.6913 7.49078 10.6906C7.61311 10.6898 7.73542 10.6897 7.85775 10.6897C7.89394 10.6893 7.93013 10.6889 7.96741 10.6884C8.15442 10.6893 8.28914 10.6927 8.4374 10.8202C8.52416 10.9429 8.52558 11.0513 8.52625 11.1991C8.52663 11.2438 8.527 11.2885 8.52738 11.3346C8.52735 11.3827 8.52731 11.4309 8.52727 11.4805C8.52744 11.5301 8.52761 11.5797 8.52778 11.6308C8.52801 11.7357 8.52806 11.8406 8.52786 11.9455C8.52763 12.0797 8.52829 12.2138 8.5292 12.3479C8.52991 12.4763 8.52977 12.6046 8.52972 12.7329C8.53008 12.781 8.53044 12.829 8.53081 12.8785C8.53056 12.9234 8.53032 12.9682 8.53007 13.0144C8.53009 13.0538 8.53012 13.0931 8.53014 13.1336C8.51284 13.262 8.47649 13.3346 8.39834 13.4374C8.26536 13.493 8.17603 13.5293 8.03457 13.4911C7.95493 13.4262 7.92926 13.3762 7.89053 13.2812C7.88113 13.1882 7.88113 13.1882 7.88166 13.0841C7.88166 13.045 7.88167 13.0059 7.88167 12.9657C7.88208 12.9237 7.88248 12.8818 7.8829 12.8386C7.88301 12.7955 7.88312 12.7524 7.88323 12.7079C7.88367 12.5702 7.88465 12.4325 7.88564 12.2948C7.88603 12.2014 7.88639 12.1081 7.88671 12.0147C7.88757 11.7858 7.88888 11.5569 7.89053 11.328C7.84047 11.3284 7.79041 11.3287 7.73883 11.3291C7.26751 11.3322 6.79618 11.3346 6.32485 11.3361C6.08252 11.3369 5.8402 11.338 5.59787 11.3398C5.3641 11.3415 5.13033 11.3424 4.89655 11.3428C4.80728 11.3431 4.718 11.3437 4.62873 11.3445C4.50387 11.3457 4.37904 11.3458 4.25417 11.3458C4.19857 11.3466 4.19857 11.3466 4.14186 11.3475C3.8919 11.3459 3.8919 11.3459 3.76721 11.2561C3.6858 11.1343 3.66688 11.0365 3.66655 10.8935C3.66639 10.8608 3.66622 10.828 3.66605 10.7943C3.66607 10.7585 3.66608 10.7227 3.6661 10.6858C3.66597 10.648 3.66584 10.6102 3.6657 10.5712C3.66533 10.446 3.66526 10.3208 3.66521 10.1955C3.66509 10.1086 3.66496 10.0216 3.66482 9.93469C3.66459 9.75231 3.66451 9.56993 3.66454 9.38755C3.66454 9.15378 3.66401 8.92001 3.66334 8.68624C3.6629 8.50663 3.66282 8.32701 3.66284 8.14739C3.6628 8.0612 3.66262 7.97502 3.66232 7.88883C3.66194 7.76829 3.66205 7.64777 3.66229 7.52723C3.66207 7.49159 3.66185 7.45595 3.66162 7.41923C3.6632 7.10233 3.6632 7.10233 3.7499 6.95303C3.87129 6.8721 3.89655 6.86517 4.03393 6.86551C4.06794 6.8654 4.10196 6.86529 4.137 6.86518C4.1928 6.8656 4.1928 6.8656 4.24973 6.86603C4.30862 6.86601 4.30862 6.86601 4.3687 6.866C4.49869 6.86605 4.62867 6.86666 4.75866 6.86727C4.8487 6.86742 4.93874 6.86753 5.02878 6.86761C5.26593 6.8679 5.50309 6.86867 5.74025 6.86954C5.98218 6.87033 6.22411 6.87069 6.46604 6.87109C6.94087 6.87192 7.4157 6.87326 7.89053 6.8749C7.89018 6.83667 7.88983 6.79845 7.88947 6.75906C7.88631 6.39869 7.88396 6.03833 7.88243 5.67795C7.88161 5.49268 7.88051 5.30742 7.87874 5.12215C7.87704 4.94334 7.87611 4.76453 7.8757 4.58571C7.87541 4.51751 7.87485 4.44931 7.874 4.38112C7.87287 4.28554 7.87271 4.19 7.87279 4.09442C7.87223 4.06626 7.87166 4.03811 7.87108 4.0091C7.87222 3.87014 7.88777 3.79334 7.96243 3.67466C8.07834 3.56333 8.17064 3.54972 8.32504 3.54936Z" fill="#020100"/>
<path d="M9.80469 5.46875C10.0238 5.46875 10.243 5.46875 10.4687 5.46875C10.4691 5.5626 10.4695 5.65644 10.4699 5.75314C10.4712 6.0631 10.4733 6.37305 10.4759 6.683C10.4775 6.87094 10.4787 7.05887 10.4793 7.24682C10.4799 7.42817 10.4813 7.60951 10.4831 7.79086C10.4837 7.86007 10.484 7.92928 10.4841 7.99849C10.4841 8.0954 10.4852 8.19225 10.4865 8.28915C10.4863 8.31781 10.4861 8.34647 10.4859 8.37599C10.4884 8.49838 10.5016 8.58308 10.5633 8.68958C10.7198 8.78344 10.8682 8.77228 11.0476 8.77132C11.0864 8.77173 11.1253 8.77213 11.1654 8.77255C11.2939 8.7737 11.4224 8.77376 11.5509 8.7738C11.64 8.77439 11.7291 8.77504 11.8182 8.77576C12.0527 8.77747 12.2873 8.77825 12.5218 8.77884C12.7611 8.7796 13.0004 8.78124 13.2397 8.78281C13.7093 8.78575 14.1789 8.78771 14.6484 8.78906C14.6548 8.83415 14.6548 8.83415 14.6612 8.88014C14.6674 8.91927 14.6735 8.9584 14.6799 8.99872C14.6857 9.03764 14.6915 9.07655 14.6976 9.11665C14.7392 9.26336 14.837 9.29417 14.9609 9.375C14.9719 9.45906 14.9719 9.45906 14.968 9.55536C14.9664 9.60331 14.9664 9.60331 14.9649 9.65223C14.9636 9.67676 14.9623 9.70129 14.9609 9.72656C14.9256 9.73182 14.9256 9.73182 14.8896 9.73719C13.7558 9.90999 12.8021 10.2738 11.9141 11.0156C11.8767 11.0458 11.8767 11.0458 11.8385 11.0765C11.4866 11.3658 11.2317 11.7361 10.9766 12.1094C10.9548 12.141 10.933 12.1727 10.9105 12.2054C10.223 13.275 10.0913 14.5489 10.2734 15.7812C10.2799 15.8352 10.2799 15.8352 10.2864 15.8902C10.3419 16.2845 10.4905 16.7231 10.6918 17.0674C10.7653 17.2425 10.7547 17.4051 10.7495 17.5928C10.749 17.629 10.7485 17.6652 10.7479 17.7025C10.7465 17.7913 10.7446 17.88 10.7422 17.9688C10.7196 17.9381 10.6971 17.9075 10.6738 17.876C10.5462 17.7271 10.4747 17.7001 10.2777 17.6791C10.221 17.676 10.1642 17.6733 10.1074 17.6709C10.0783 17.6694 10.0492 17.6679 10.0192 17.6663C9.94773 17.6627 9.87621 17.6594 9.80469 17.6562C9.80459 17.6151 9.8045 17.574 9.8044 17.5316C9.80211 16.5318 9.79915 15.5319 9.79548 14.5321C9.79372 14.0486 9.79218 13.565 9.79115 13.0815C9.79026 12.6602 9.78896 12.2388 9.78716 11.8175C9.78622 11.5943 9.78549 11.3712 9.78525 11.148C9.78501 10.938 9.78424 10.7281 9.78304 10.5182C9.78269 10.441 9.78255 10.3638 9.78262 10.2867C9.78268 10.1815 9.78203 10.0764 9.7812 9.97123C9.78139 9.94053 9.78158 9.90983 9.78177 9.8782C9.78014 9.75338 9.77367 9.66321 9.71338 9.55258C9.60751 9.45413 9.50543 9.44815 9.36738 9.44694C9.33402 9.44656 9.30066 9.44618 9.26629 9.44579C9.22982 9.44556 9.19335 9.44534 9.15578 9.4451C9.09803 9.44452 9.09803 9.44452 9.03912 9.44393C8.91167 9.4427 8.78422 9.44173 8.65677 9.44077C8.56848 9.43996 8.48019 9.43914 8.39191 9.43831C8.15937 9.43615 7.92684 9.43422 7.69431 9.43233C7.45709 9.43037 7.21987 9.4282 6.98265 9.42604C6.51708 9.42184 6.05151 9.41788 5.58594 9.41406C5.58594 9.20781 5.58594 9.00156 5.58594 8.78906C5.63493 8.78883 5.68392 8.7886 5.7344 8.78837C6.19595 8.78613 6.65749 8.78329 7.11903 8.77985C7.35632 8.77811 7.5936 8.77657 7.8309 8.77553C8.05986 8.77451 8.28882 8.77294 8.51778 8.77097C8.60517 8.77032 8.69256 8.76987 8.77994 8.76962C8.90228 8.76925 9.02458 8.76815 9.14691 8.76689C9.1831 8.76695 9.21929 8.767 9.25657 8.76706C9.44292 8.76433 9.57827 8.75925 9.72656 8.63281C9.77283 8.49401 9.77249 8.36716 9.77364 8.22263C9.77403 8.19289 9.77442 8.16316 9.77482 8.13252C9.77605 8.03424 9.77702 7.93596 9.77798 7.83768C9.77879 7.76953 9.77961 7.70139 9.78044 7.63324C9.7826 7.45389 9.78453 7.27452 9.78641 7.09516C9.78838 6.91214 9.79055 6.72912 9.79271 6.5461C9.79691 6.18698 9.80085 5.82787 9.80469 5.46875Z" fill="#DFCDC3"/>
<path d="M17.8516 12.6172C18.0678 12.7852 18.1575 13.0198 18.2691 13.2641C18.288 13.3048 18.307 13.3455 18.3265 13.3874C18.3617 13.4627 18.3966 13.5382 18.4314 13.6138C18.4463 13.6458 18.4612 13.6779 18.4766 13.7109C18.4856 13.7398 18.4946 13.7688 18.5038 13.7986C18.5538 13.8808 18.5538 13.8808 18.6794 13.9004C18.7325 13.9075 18.7856 13.9139 18.8388 13.9197C18.881 13.9253 18.881 13.9253 18.9241 13.931C19.0141 13.943 19.1042 13.954 19.1944 13.9648C19.3128 13.9791 19.431 13.9943 19.5493 14.01C19.5764 14.013 19.6036 14.0159 19.6315 14.019C19.7516 14.035 19.8379 14.0587 19.9403 14.1243C20.0102 14.2348 20.0248 14.3235 20.0177 14.454C19.9868 14.5891 19.9039 14.6538 19.8021 14.7432C19.761 14.7811 19.7199 14.8191 19.6788 14.8571C19.6137 14.9153 19.5483 14.9732 19.4825 15.0306C19.2204 15.2468 19.2204 15.2468 19.0802 15.542C19.0895 15.6533 19.1106 15.7519 19.1407 15.8594C19.1509 15.918 19.1608 15.9768 19.1701 16.0356C19.1857 16.1174 19.2018 16.1992 19.2181 16.2809C19.2537 16.4693 19.2682 16.644 19.2578 16.8359C19.1842 16.9423 19.1302 16.9806 19.0113 17.0288C18.7929 17.0339 18.6104 16.9021 18.4316 16.7891C18.0618 16.5412 18.0618 16.5412 17.6405 16.4499C17.4667 16.5006 17.3252 16.5992 17.1811 16.7064C17.0647 16.7898 16.9392 16.8524 16.8115 16.9165C16.7692 16.9395 16.7268 16.9625 16.6831 16.9862C16.5431 17.0385 16.4703 17.0335 16.3282 16.9922C16.2329 16.9189 16.2329 16.9189 16.1719 16.7969C16.1549 16.5055 16.2365 16.1991 16.2884 15.9129C16.2961 15.8697 16.2961 15.8697 16.3039 15.8256C16.3086 15.8001 16.3132 15.7746 16.318 15.7484C16.3214 15.7205 16.3247 15.6927 16.3282 15.664C16.3327 15.6263 16.3373 15.5886 16.342 15.5498C16.3228 15.383 16.2542 15.3334 16.1316 15.2212C16.0907 15.1825 16.0497 15.1437 16.0088 15.105C15.9439 15.045 15.8789 14.9853 15.8136 14.9258C15.7505 14.8679 15.6883 14.809 15.6262 14.75C15.5886 14.7155 15.551 14.681 15.5122 14.6455C15.3973 14.4863 15.4017 14.412 15.4297 14.2187C15.4905 14.1223 15.4905 14.1223 15.586 14.0625C15.7134 14.0442 15.7134 14.0442 15.864 14.0429C16.4336 14.0398 16.4336 14.0398 16.9342 13.8148C17.1552 13.554 17.2695 13.2099 17.37 12.8885C17.4672 12.6731 17.6163 12.573 17.8516 12.6172Z" fill="#010100"/>
<path d="M17.6953 13.6328C17.7796 13.7115 17.8382 13.7852 17.8923 13.8869C17.906 13.9126 17.9197 13.9383 17.9339 13.9648C17.9478 13.9914 17.9617 14.018 17.9761 14.0454C17.9905 14.0722 18.0048 14.0989 18.0196 14.1265C18.125 14.3257 18.125 14.3257 18.125 14.4141C18.5891 14.4914 18.5891 14.4914 19.0625 14.5703C18.8007 14.8757 18.8007 14.8757 18.6597 14.9927C18.5512 15.0805 18.5512 15.0805 18.4766 15.1953C18.4728 15.2652 18.4715 15.3353 18.4717 15.4053C18.4716 15.4426 18.4715 15.48 18.4714 15.5185C18.4726 15.6205 18.4726 15.6205 18.4963 15.6982C18.5178 15.7904 18.5195 15.8722 18.5181 15.9668C18.5177 15.998 18.5174 16.0292 18.517 16.0614C18.5165 16.085 18.5161 16.1085 18.5156 16.1328C18.4709 16.1103 18.4261 16.0877 18.38 16.0645C18.3202 16.0351 18.2605 16.0058 18.2007 15.9766C18.1566 15.9542 18.1566 15.9542 18.1116 15.9314C17.9272 15.842 17.787 15.7899 17.5781 15.8203C17.4706 15.8633 17.3726 15.9179 17.2729 15.9766C16.9998 16.1328 16.9998 16.1328 16.9141 16.1328C16.9196 16.0579 16.9253 15.9831 16.9312 15.9082C16.9343 15.8665 16.9375 15.8248 16.9408 15.7819C16.9509 15.6856 16.9663 15.6006 16.9922 15.5078C17.0249 15.3812 17.0249 15.3812 16.9922 15.2344C16.8536 15.0415 16.6857 14.8759 16.5015 14.7266C16.47 14.7008 16.4386 14.675 16.4062 14.6484C16.4062 14.6227 16.4062 14.5969 16.4062 14.5703C16.4384 14.5659 16.4384 14.5659 16.4713 14.5614C16.5693 14.5477 16.6672 14.5334 16.7651 14.519C16.7989 14.5144 16.8327 14.5098 16.8674 14.5051C17.126 14.4695 17.126 14.4695 17.3438 14.3359C17.4096 14.2279 17.4599 14.1152 17.5098 13.999C17.5368 13.9383 17.5638 13.8775 17.5909 13.8168C17.6026 13.79 17.6142 13.7631 17.6262 13.7354C17.6562 13.6719 17.6562 13.6719 17.6953 13.6328Z" fill="#EBD471"/>
<path d="M10.9278 9.40772C10.9984 9.40716 10.9984 9.40716 11.0705 9.40658C11.1216 9.40642 11.1727 9.40625 11.2253 9.40608C11.2782 9.40585 11.331 9.40563 11.3839 9.4054C11.4948 9.40499 11.6056 9.40477 11.7165 9.40463C11.8584 9.40442 12.0002 9.40348 12.1421 9.40236C12.2513 9.40164 12.3605 9.40143 12.4697 9.40137C12.5474 9.4012 12.6251 9.40047 12.7027 9.39973C12.7739 9.39991 12.7739 9.39991 12.8465 9.40009C12.909 9.39988 12.909 9.39988 12.9727 9.39966C13.1029 9.41613 13.1763 9.45389 13.2815 9.5312C13.3363 9.64093 13.3302 9.72214 13.3205 9.8437C13.251 9.9662 13.222 9.99374 13.0861 10.039C13.0196 10.0424 12.953 10.0436 12.8864 10.0434C12.8457 10.0434 12.8051 10.0434 12.7632 10.0434C12.7193 10.0432 12.6755 10.043 12.6304 10.0428C12.563 10.0427 12.563 10.0427 12.4942 10.0427C12.3506 10.0424 12.2069 10.042 12.0632 10.0415C11.9659 10.0413 11.8685 10.0411 11.7712 10.0409C11.5324 10.0405 11.2937 10.0398 11.0549 10.039C11.0557 10.0855 11.0565 10.132 11.0574 10.18C11.0602 10.3526 11.062 10.5253 11.0635 10.698C11.0643 10.7727 11.0653 10.8474 11.0667 10.9222C11.0686 11.0296 11.0695 11.137 11.0701 11.2445C11.071 11.2778 11.0718 11.3112 11.0726 11.3456C11.0727 11.5777 11.0727 11.5777 10.9808 11.7007C10.842 11.7971 10.7523 11.7762 10.5861 11.7578C10.5189 11.7104 10.5189 11.7104 10.469 11.6406C10.4538 11.5504 10.4538 11.5504 10.4532 11.4433C10.4527 11.4031 10.4522 11.363 10.4517 11.3216C10.4518 11.2783 10.4519 11.2349 10.452 11.1903C10.4518 11.1457 10.4516 11.1012 10.4514 11.0553C10.4511 10.961 10.4512 10.8667 10.4515 10.7725C10.4519 10.6281 10.4507 10.4838 10.4495 10.3394C10.4494 10.2479 10.4495 10.1563 10.4496 10.0648C10.4491 10.0215 10.4487 9.97829 10.4482 9.93372C10.4486 9.89344 10.449 9.85316 10.4494 9.81167C10.4494 9.77628 10.4494 9.7409 10.4494 9.70444C10.4751 9.57964 10.5286 9.53332 10.6252 9.45308C10.7298 9.40079 10.8107 9.40847 10.9278 9.40772Z" fill="#060504"/>
<path d="M13.3203 9.72656C13.7715 9.72656 14.2227 9.72656 14.6875 9.72656C14.6875 9.73945 14.6875 9.75234 14.6875 9.76562C14.6505 9.77137 14.6136 9.77711 14.5755 9.78302C13.5737 9.94865 12.6932 10.3648 11.9141 11.0156C11.8891 11.0357 11.8642 11.0558 11.8385 11.0765C11.4344 11.4086 11.1289 11.8567 10.8569 12.2998C10.832 12.3401 10.807 12.3804 10.7812 12.4219C10.7684 12.4219 10.7555 12.4219 10.7422 12.4219C10.7422 12.2156 10.7422 12.0094 10.7422 11.7969C10.7035 11.784 10.6648 11.7711 10.625 11.7578C10.799 11.7385 10.799 11.7385 10.9766 11.7188C11.0112 11.615 11.0213 11.5515 11.0236 11.4448C11.0244 11.4136 11.0252 11.3823 11.026 11.3501C11.0267 11.3165 11.0273 11.2829 11.028 11.2483C11.0292 11.1965 11.0292 11.1965 11.0304 11.1437C11.033 11.0335 11.0353 10.9232 11.0376 10.813C11.0393 10.7382 11.041 10.6635 11.0427 10.5888C11.0469 10.4055 11.0508 10.2223 11.0547 10.0391C11.0798 10.0387 11.1049 10.0384 11.1308 10.0381C11.3918 10.0347 11.6529 10.0309 11.9139 10.0267C12.0114 10.0252 12.1089 10.0238 12.2063 10.0226C12.3463 10.0208 12.4863 10.0185 12.6263 10.0162C12.67 10.0157 12.7136 10.0153 12.7585 10.0148C12.7992 10.014 12.8398 10.0133 12.8817 10.0125C12.9175 10.0119 12.9532 10.0114 12.99 10.0109C13.0955 9.99892 13.1559 9.9839 13.2422 9.92188C13.268 9.85742 13.2938 9.79297 13.3203 9.72656Z" fill="#B76F51"/>
</g>
<defs>
<clipPath id="clip0_82_13431">
<rect width="20" height="20" fill="white"/>
</clipPath>
</defs>
</svg>
