<svg width="30" height="30" viewBox="0 0 30 30" fill="none" xmlns="http://www.w3.org/2000/svg">
<g clip-path="url(#clip0_82_14146)">
<path d="M23.0009 8.54518C23.0647 8.54462 23.1285 8.54405 23.1942 8.54347C23.2969 8.5431 23.2969 8.5431 23.4016 8.54272C23.4726 8.54239 23.5436 8.54205 23.6168 8.54171C23.7671 8.54115 23.9173 8.54077 24.0676 8.54055C24.2962 8.53998 24.5248 8.53816 24.7535 8.53631C24.8997 8.53593 25.046 8.53562 25.1923 8.5354C25.2941 8.53431 25.2941 8.53431 25.3979 8.5332C25.9925 8.53482 26.4754 8.613 26.9128 9.03367C27.3761 9.53449 27.3804 10.0208 27.3774 10.6701C27.3774 10.7485 27.3775 10.8269 27.3777 10.9054C27.3779 11.1202 27.3775 11.3351 27.3769 11.5499C27.3764 11.7819 27.3765 12.0138 27.3766 12.2457C27.3767 12.6474 27.3763 13.049 27.3757 13.4506C27.3747 14.0313 27.3744 14.612 27.3743 15.1927C27.374 16.1349 27.3732 17.077 27.3721 18.0192C27.371 18.9343 27.3702 19.8495 27.3697 20.7646C27.3697 20.821 27.3697 20.8775 27.3696 20.9356C27.3695 21.2187 27.3693 21.5017 27.3692 21.7848C27.368 24.1326 27.3659 26.4803 27.3633 28.8281C27.4302 28.8258 27.4302 28.8258 27.4985 28.8234C27.7012 28.8173 27.9039 28.8135 28.1067 28.8097C28.1769 28.8073 28.2471 28.8048 28.3194 28.8023C28.9007 28.7942 28.9007 28.7942 29.0783 28.9631C29.2065 29.1628 29.2383 29.2938 29.2383 29.5312C29.1495 29.7664 29.0973 29.8595 28.8867 29.9999C28.7331 30.0114 28.5858 30.016 28.4322 30.0152C28.3852 30.0154 28.3381 30.0156 28.2897 30.0158C28.1309 30.0165 27.972 30.0162 27.8132 30.016C27.6987 30.0163 27.5842 30.0166 27.4697 30.0169C27.154 30.0178 26.8383 30.0179 26.5226 30.0178C26.1825 30.0179 25.8424 30.0187 25.5024 30.0194C24.7583 30.0207 24.0143 30.0212 23.2703 30.0215C22.806 30.0217 22.3418 30.022 21.8775 30.0225C20.5929 30.0236 19.3084 30.0246 18.0238 30.0247C17.9827 30.0247 17.9416 30.0247 17.8993 30.0248C17.7327 30.0248 17.5662 30.0248 17.3996 30.0248C17.2742 30.0248 17.1488 30.0249 17.0235 30.0249C16.9613 30.0249 16.9613 30.0249 16.8979 30.0249C15.5959 30.0251 14.2939 30.0263 12.9918 30.0285C11.5298 30.0309 10.0677 30.0322 8.60567 30.0323C7.83125 30.0323 7.05683 30.0328 6.28241 30.0345C5.62312 30.0359 4.96385 30.0364 4.30456 30.0355C3.96797 30.0351 3.6314 30.0351 3.29482 30.0364C2.98695 30.0376 2.67911 30.0375 2.37125 30.0363C2.25962 30.0361 2.14799 30.0364 2.03637 30.0372C1.88507 30.0382 1.73388 30.0375 1.58259 30.0363C1.53885 30.037 1.49511 30.0378 1.45005 30.0385C1.22229 30.0347 1.12194 30.0068 0.941128 29.8638C0.788799 29.6661 0.761719 29.5456 0.761719 29.2968C0.850498 29.0615 0.902667 28.9685 1.11328 28.8281C1.27846 28.8148 1.27846 28.8148 1.47652 28.8166C1.54733 28.817 1.61814 28.8174 1.69109 28.8178C1.76508 28.8187 1.83906 28.8197 1.91528 28.8207C1.98995 28.8213 2.06461 28.8218 2.14153 28.8223C2.32614 28.8237 2.51072 28.8256 2.69531 28.8281C2.69492 28.7611 2.69453 28.6941 2.69413 28.6251C2.69056 27.9924 2.68793 27.3597 2.68621 26.7269C2.68529 26.4017 2.68405 26.0764 2.68205 25.7512C2.68013 25.437 2.67909 25.1228 2.67863 24.8086C2.67831 24.6891 2.67768 24.5695 2.67673 24.45C2.67544 24.2818 2.67528 24.1137 2.67536 23.9456C2.67472 23.8967 2.67409 23.8479 2.67344 23.7976C2.67635 23.2356 2.82219 22.731 3.22266 22.3242C3.71989 21.9119 4.29619 21.8961 4.91821 21.8984C4.98384 21.8983 5.04948 21.8982 5.1171 21.8981C5.25517 21.898 5.39325 21.8982 5.53133 21.8987C5.74155 21.8993 5.95174 21.8987 6.16196 21.898C6.29669 21.8981 6.43143 21.8982 6.56616 21.8984C6.62843 21.8982 6.6907 21.898 6.75486 21.8977C7.3791 21.9016 7.89339 21.9825 8.36288 22.418C8.73501 22.8194 8.8156 23.2425 8.80902 23.7726C8.80904 23.8276 8.80907 23.8825 8.8091 23.9391C8.80897 24.1192 8.80761 24.2992 8.80623 24.4793C8.8059 24.6047 8.80565 24.7302 8.80548 24.8556C8.80481 25.1847 8.80308 25.5137 8.80113 25.8428C8.79901 26.2382 8.79821 26.6336 8.79718 27.029C8.79548 27.6287 8.79212 28.2284 8.78906 28.8281C9.85254 28.8281 10.916 28.8281 12.0117 28.8281C12.0102 28.5099 12.0087 28.1917 12.0071 27.8638C12.0022 26.8126 11.999 25.7613 11.9965 24.7101C11.995 24.0727 11.993 23.4353 11.9896 22.7979C11.9867 22.2423 11.9848 21.6866 11.9842 21.1309C11.9838 20.8368 11.9829 20.5427 11.9807 20.2486C11.9787 19.9715 11.9781 19.6944 11.9786 19.4173C11.9785 19.3159 11.9779 19.2145 11.9768 19.113C11.9704 18.5055 11.9841 17.981 12.4205 17.5122C12.9394 17.0164 13.5109 16.983 14.1985 16.9802C14.2626 16.9799 14.3268 16.9796 14.3929 16.9792C14.5285 16.9787 14.6642 16.9783 14.7998 16.978C15.0054 16.9775 15.211 16.9757 15.4166 16.9738C15.5489 16.9734 15.6812 16.9731 15.8134 16.9729C15.8741 16.9722 15.9347 16.9714 15.9972 16.9707C16.5252 16.9723 17.1209 17.0241 17.547 17.3677C17.9291 17.7644 18.0562 18.1129 18.0539 18.6534C18.054 18.7187 18.054 18.7187 18.0541 18.7852C18.0542 18.9311 18.0538 19.0769 18.0535 19.2227C18.0535 19.3273 18.0535 19.4318 18.0536 19.5363C18.0536 19.8202 18.0532 20.104 18.0528 20.3879C18.0525 20.6845 18.0524 20.9811 18.0523 21.2778C18.0522 21.8395 18.0517 22.4012 18.0511 22.963C18.0504 23.6025 18.0501 24.2419 18.0498 24.8814C18.0492 26.197 18.0481 27.5125 18.0469 28.8281C19.1104 28.8281 20.1738 28.8281 21.2695 28.8281C21.2689 28.4755 21.2689 28.4755 21.2683 28.1157C21.2648 25.9596 21.2622 23.8034 21.2606 21.6473C21.2603 21.3646 21.2601 21.082 21.2599 20.7993C21.2598 20.743 21.2598 20.6868 21.2597 20.6288C21.259 19.7179 21.2576 18.8071 21.256 17.8962C21.2543 16.9615 21.2533 16.0267 21.253 15.0919C21.2528 14.5152 21.252 13.9385 21.2506 13.3618C21.2496 12.9662 21.2494 12.5706 21.2496 12.175C21.2497 11.9469 21.2495 11.7187 21.2486 11.4906C21.2477 11.2814 21.2477 11.0723 21.2483 10.8631C21.2484 10.7522 21.2476 10.6413 21.2468 10.5303C21.2501 9.89985 21.3414 9.42223 21.7859 8.95974C22.1458 8.64482 22.5293 8.54856 23.0009 8.54518ZM22.5623 9.96845C22.4179 10.2224 22.4614 10.5417 22.4648 10.8251C22.4645 10.9019 22.4643 10.9787 22.464 11.0579C22.4634 11.271 22.4645 11.4841 22.466 11.6972C22.4673 11.9271 22.4668 12.157 22.4666 12.3868C22.4665 12.785 22.4674 13.1832 22.469 13.5815C22.4714 14.1572 22.4722 14.733 22.4725 15.3087C22.4732 16.2428 22.4751 17.1769 22.4779 18.111C22.4806 19.0184 22.4827 19.9259 22.4839 20.8333C22.484 20.8892 22.4841 20.9451 22.4841 21.0028C22.4845 21.2833 22.4849 21.5639 22.4853 21.8445C22.4883 24.1724 22.4937 26.5002 22.5 28.8281C23.6988 28.8281 24.8977 28.8281 26.1328 28.8281C26.1393 26.4359 26.1447 24.0438 26.1478 21.6517C26.1481 21.3695 26.1485 21.0873 26.1489 20.805C26.149 20.7208 26.149 20.7208 26.1491 20.6348C26.1504 19.7242 26.1527 18.8137 26.1554 17.9032C26.1582 16.9693 26.1598 16.0355 26.1604 15.1016C26.1608 14.5251 26.1621 13.9486 26.1644 13.3721C26.166 12.9771 26.1664 12.5821 26.1661 12.1871C26.1659 11.9589 26.1662 11.7308 26.1677 11.5027C26.1694 11.2557 26.1688 11.0087 26.168 10.7617C26.1693 10.6529 26.1693 10.6529 26.1706 10.542C26.1776 10.1672 26.1776 10.1672 25.9934 9.85777C25.826 9.77856 25.7162 9.75511 25.5315 9.75383C25.4415 9.75244 25.4415 9.75244 25.3496 9.75102C25.2854 9.75131 25.2212 9.7516 25.155 9.7519C25.0885 9.75154 25.022 9.75118 24.9535 9.7508C24.813 9.75039 24.6725 9.75057 24.5321 9.75132C24.3172 9.75213 24.1024 9.75013 23.8875 9.7479C23.7509 9.74784 23.6143 9.74795 23.4778 9.74824C23.4136 9.74746 23.3494 9.74669 23.2832 9.74589C23.2232 9.74662 23.1631 9.74735 23.1013 9.74811C23.0224 9.7482 23.0224 9.7482 22.9419 9.74828C22.7783 9.78871 22.6786 9.84585 22.5623 9.96845ZM13.2422 18.457C13.2365 18.5905 13.235 18.7241 13.2351 18.8577C13.2351 18.9001 13.235 18.9425 13.235 18.9862C13.2349 19.1294 13.2352 19.2725 13.2355 19.4157C13.2356 19.5178 13.2355 19.62 13.2355 19.7222C13.2355 20.0005 13.2358 20.2788 13.2362 20.5571C13.2366 20.8476 13.2366 21.1382 13.2367 21.4287C13.2369 21.9792 13.2374 22.5298 13.238 23.0803C13.2386 23.7069 13.2389 24.3335 13.2392 24.9601C13.2399 26.2494 13.2409 27.5387 13.2422 28.8281C14.441 28.8281 15.6398 28.8281 16.875 28.8281C16.8776 27.5038 16.8798 26.1796 16.8811 24.8553C16.8817 24.2405 16.8825 23.6256 16.8838 23.0108C16.885 22.4749 16.8858 21.939 16.886 21.4032C16.8862 21.1194 16.8865 20.8356 16.8874 20.5519C16.8882 20.2848 16.8884 20.0177 16.8883 19.7507C16.8883 19.6526 16.8885 19.5546 16.889 19.4565C16.8896 19.3227 16.8894 19.1889 16.8891 19.055C16.8892 18.9801 16.8893 18.9052 16.8894 18.828C16.8753 18.6373 16.847 18.5081 16.7578 18.3398C16.5629 18.2306 16.3937 18.2077 16.1727 18.2065C16.1162 18.2059 16.0596 18.2054 16.0014 18.2048C15.9109 18.2049 15.9109 18.2049 15.8185 18.205C15.7559 18.2047 15.6932 18.2045 15.6287 18.2042C15.4965 18.2039 15.3644 18.2038 15.2322 18.2041C15.03 18.2043 14.8279 18.2029 14.6258 18.2014C14.4972 18.2013 14.3687 18.2012 14.2401 18.2013C14.1797 18.2008 14.1194 18.2002 14.0572 18.1997C13.727 18.2018 13.4881 18.2111 13.2422 18.457ZM3.98438 23.3202C3.908 23.5494 3.91811 23.7667 3.91913 24.0054C3.91912 24.0575 3.91911 24.1095 3.9191 24.1631C3.91915 24.3353 3.9196 24.5074 3.92006 24.6796C3.92017 24.7989 3.92025 24.9182 3.92031 25.0375C3.92053 25.3516 3.92111 25.6657 3.92176 25.9798C3.92246 26.3566 3.92273 26.7335 3.92307 27.1103C3.92364 27.6829 3.92476 28.2555 3.92578 28.8281C5.12461 28.8281 6.32344 28.8281 7.55859 28.8281C7.56371 27.8757 7.56371 27.8757 7.56718 26.9233C7.56823 26.5349 7.56947 26.1466 7.57185 25.7582C7.57376 25.4452 7.57482 25.1321 7.57527 24.8191C7.5756 24.6996 7.57623 24.5801 7.57718 24.4605C7.57845 24.2933 7.57863 24.1261 7.57855 23.9589C7.57918 23.9093 7.57981 23.8598 7.58046 23.8087C7.57943 23.6128 7.57384 23.4659 7.48044 23.2913C7.30955 23.1368 7.14256 23.1368 6.92279 23.135C6.86509 23.1345 6.8074 23.1339 6.74795 23.1333C6.6857 23.1331 6.62344 23.1328 6.5593 23.1326C6.49521 23.1322 6.43113 23.1319 6.3651 23.1316C6.22946 23.131 6.09381 23.1306 5.95817 23.1304C5.75074 23.1298 5.54334 23.128 5.33592 23.1262C5.20416 23.1258 5.0724 23.1255 4.94064 23.1252C4.87862 23.1245 4.8166 23.1238 4.7527 23.123C4.33652 23.1176 4.33652 23.1176 3.98438 23.3202Z" fill="#F79831"/>
<path d="M23.2621 -0.0380276C23.3022 -0.038541 23.3424 -0.0390544 23.3837 -0.0395833C23.5158 -0.0408679 23.6478 -0.0400209 23.7799 -0.039029C23.8721 -0.0392264 23.9642 -0.0395109 24.0564 -0.0398783C24.2493 -0.0403097 24.4421 -0.0396844 24.635 -0.0383137C24.8819 -0.0366445 25.1287 -0.0376059 25.3756 -0.0393603C25.5658 -0.0404205 25.756 -0.0400814 25.9462 -0.0393229C26.0372 -0.0391279 26.1283 -0.0393659 26.2193 -0.0400493C26.3466 -0.040796 26.4739 -0.0396562 26.6012 -0.0380276C26.6736 -0.0377945 26.746 -0.0375614 26.8205 -0.0373213C27.0635 0.0099543 27.1498 0.104376 27.3047 0.29285C27.3851 0.453585 27.3716 0.583018 27.3727 0.76293C27.3733 0.837053 27.3739 0.911177 27.3744 0.987546C27.3747 1.06886 27.375 1.15018 27.3752 1.23149C27.3755 1.3147 27.3759 1.39791 27.3762 1.48111C27.3768 1.65573 27.3772 1.83034 27.3774 2.00496C27.3777 2.22839 27.3791 2.4518 27.3808 2.67523C27.3819 2.84719 27.3822 3.01915 27.3823 3.19112C27.3824 3.27347 27.3829 3.35582 27.3837 3.43816C27.3847 3.55357 27.3845 3.66899 27.3842 3.7844C27.3844 3.85001 27.3846 3.91563 27.3848 3.98323C27.3604 4.18412 27.3082 4.29183 27.1875 4.45301C26.953 4.60936 26.7602 4.61906 26.4844 4.57019C26.3229 4.44237 26.2245 4.34333 26.1328 4.16004C26.1237 4.01056 26.1177 3.86243 26.1143 3.7128C26.1131 3.66875 26.1119 3.6247 26.1106 3.57931C26.1068 3.43842 26.1033 3.29752 26.0999 3.15662C26.0973 3.06117 26.0948 2.96573 26.0922 2.87029C26.0859 2.63615 26.08 2.402 26.0742 2.16785C26.0426 2.1995 26.011 2.23116 25.9785 2.26377C25.2104 3.03312 24.4422 3.80231 23.6738 4.57131C23.3022 4.9432 22.9307 5.31514 22.5593 5.68721C22.2357 6.01141 21.9119 6.33552 21.5881 6.6595C21.4165 6.83113 21.245 7.00281 21.0737 7.17461C20.9125 7.33618 20.7512 7.49762 20.5898 7.65895C20.5304 7.7183 20.4711 7.77771 20.4119 7.83717C20.3313 7.91811 20.2504 7.99885 20.1696 8.07958C20.1243 8.1249 20.079 8.17021 20.0324 8.2169C19.8419 8.39494 19.68 8.41052 19.426 8.40523C19.249 8.37374 19.1832 8.32092 19.0528 8.19921C19.0124 8.16186 18.972 8.12451 18.9304 8.08603C18.8902 8.04729 18.85 8.00855 18.8086 7.96863C18.7719 7.9333 18.7352 7.89797 18.6973 7.86157C18.5857 7.75243 18.4754 7.64207 18.3655 7.53124C18.3258 7.4915 18.2862 7.45176 18.2453 7.41082C18.1205 7.28562 17.9958 7.16021 17.8711 7.03479C17.7858 6.94914 17.7004 6.8635 17.615 6.77787C17.4072 6.56948 17.1997 6.3609 16.9922 6.15223C16.8239 6.22852 16.7037 6.30915 16.5738 6.44015C16.5387 6.47525 16.5037 6.51035 16.4675 6.54651C16.4295 6.58511 16.3916 6.62372 16.3524 6.66349C16.2912 6.72495 16.2912 6.72495 16.2288 6.78765C16.0919 6.92535 15.9554 7.06345 15.8189 7.20155C15.7209 7.30021 15.623 7.39885 15.5249 7.49745C15.3137 7.71002 15.1027 7.92274 14.8918 8.13559C14.5584 8.47204 14.2243 8.80786 13.8901 9.14357C13.7757 9.25846 13.6614 9.37335 13.547 9.48825C13.5185 9.51696 13.4899 9.54568 13.4604 9.57526C13.1352 9.90202 12.8101 10.2289 12.4851 10.5558C12.4405 10.6007 12.4405 10.6007 12.3951 10.6464C11.9136 11.1307 11.4327 11.6156 10.9519 12.1007C10.4582 12.5987 9.96365 13.096 9.46845 13.5926C9.19048 13.8714 8.91291 14.1506 8.63627 14.4308C8.37609 14.6942 8.11498 14.9566 7.85312 15.2184C7.75715 15.3146 7.66153 15.4113 7.56629 15.5083C7.43628 15.6406 7.30506 15.7716 7.17347 15.9023C7.11728 15.9604 7.11728 15.9604 7.05995 16.0197C6.8024 16.2719 6.63271 16.3462 6.26955 16.3475C6.05462 16.2568 5.9102 16.1447 5.8008 15.9374C5.76456 15.6578 5.79665 15.5027 5.9579 15.2735C6.11047 15.0803 6.28525 14.9093 6.45956 14.736C6.50239 14.693 6.54521 14.6499 6.58933 14.6056C6.73258 14.4617 6.87625 14.3183 7.01992 14.1748C7.12284 14.0716 7.22573 13.9685 7.3286 13.8652C7.57886 13.6143 7.82939 13.3636 8.08007 13.113C8.28379 12.9094 8.48741 12.7057 8.69096 12.5019C8.71995 12.4729 8.74894 12.4439 8.77881 12.414C8.83771 12.355 8.89661 12.296 8.95551 12.237C9.50747 11.6844 10.0598 11.1322 10.6123 10.5801C11.1177 10.075 11.6227 9.56938 12.1274 9.06353C12.6458 8.54395 13.1646 8.0247 13.6837 7.5058C13.9751 7.21454 14.2663 6.92315 14.5573 6.63141C14.8306 6.35726 15.1045 6.08356 15.3786 5.81017C15.4793 5.70965 15.5798 5.60898 15.6802 5.50815C15.8169 5.37079 15.9542 5.23397 16.0916 5.09728C16.1314 5.05705 16.1712 5.01683 16.2122 4.97538C16.4631 4.72741 16.6441 4.57344 17.0105 4.56653C17.467 4.69806 17.8098 5.14507 18.1384 5.47634C18.1781 5.51607 18.2178 5.55581 18.2586 5.59675C18.3835 5.72196 18.5082 5.84736 18.6328 5.97278C18.7182 6.05843 18.8036 6.14407 18.8889 6.2297C19.0967 6.4381 19.3043 6.64667 19.5117 6.85535C19.843 6.57972 20.1486 6.28508 20.4525 5.97979C20.504 5.9283 20.5555 5.87682 20.6086 5.82377C20.7486 5.68371 20.8885 5.54353 21.0283 5.40328C21.1749 5.25632 21.3217 5.10952 21.4684 4.9627C21.7458 4.68518 22.023 4.4075 22.3001 4.12977C22.6159 3.81337 22.9318 3.49714 23.2477 3.18093C23.8971 2.53092 24.5463 1.88071 25.1953 1.23035C25.1259 1.23011 25.0564 1.22987 24.9848 1.22962C24.7265 1.22834 24.4683 1.22516 24.2101 1.22141C24.0984 1.22005 23.9867 1.21921 23.875 1.21889C23.7143 1.21835 23.5536 1.21594 23.3929 1.21318C23.3183 1.21353 23.3183 1.21353 23.2421 1.21388C22.9855 1.20758 22.882 1.19565 22.6737 1.03184C22.5487 0.865573 22.5188 0.791101 22.522 0.585818C22.5212 0.537479 22.5205 0.489139 22.5197 0.439334C22.622 0.0541349 22.8969 -0.0368515 23.2621 -0.0380276Z" fill="#F79831"/>
<path d="M4.62891 17.1679C4.7943 17.2414 4.8904 17.3017 4.99878 17.4462C5.05829 17.641 5.06355 17.7853 5.03906 17.9882C4.89564 18.2229 4.80902 18.3203 4.54468 18.402C4.30127 18.3978 4.1832 18.3627 3.98438 18.2226C3.84429 18.0238 3.8092 17.9057 3.80493 17.6623C3.93257 17.2493 4.21274 17.1074 4.62891 17.1679Z" fill="#F79831"/>
</g>
<defs>
<clipPath id="clip0_82_14146">
<rect width="30" height="30" fill="white"/>
</clipPath>
</defs>
</svg>
