<svg width="20" height="20" viewBox="0 0 20 20" fill="none" xmlns="http://www.w3.org/2000/svg">
<g clip-path="url(#clip0_82_13375)">
<path d="M15.334 5.69695C15.3765 5.69657 15.419 5.6962 15.4628 5.69581C15.5312 5.69556 15.5312 5.69556 15.601 5.69531C15.6484 5.69509 15.6957 5.69486 15.7445 5.69463C15.8447 5.69427 15.9449 5.69401 16.0451 5.69386C16.1975 5.69348 16.3499 5.69227 16.5023 5.69104C16.5998 5.69078 16.6974 5.69058 16.7949 5.69043C16.8627 5.6897 16.8627 5.6897 16.9319 5.68896C17.3283 5.69004 17.6503 5.74216 17.9419 6.02261C18.2507 6.35649 18.2536 6.68067 18.2516 7.11356C18.2516 7.16584 18.2517 7.21812 18.2518 7.2704C18.252 7.41364 18.2516 7.55687 18.2513 7.70011C18.2509 7.85474 18.251 8.00936 18.2511 8.16398C18.2511 8.43174 18.2509 8.69949 18.2504 8.96724C18.2498 9.35437 18.2496 9.7415 18.2495 10.1286C18.2493 10.7567 18.2488 11.3848 18.2481 12.013C18.2474 12.6231 18.2468 13.2331 18.2465 13.8432C18.2465 13.8809 18.2464 13.9185 18.2464 13.9572C18.2463 14.1459 18.2462 14.3347 18.2461 14.5234C18.2453 16.0885 18.2439 17.6537 18.2422 19.2189C18.2868 19.2173 18.2868 19.2173 18.3323 19.2158C18.4675 19.2117 18.6026 19.2092 18.7378 19.2067C18.7846 19.205 18.8314 19.2034 18.8796 19.2017C19.2671 19.1963 19.2671 19.1963 19.3855 19.3089C19.471 19.442 19.4922 19.5293 19.4922 19.6876C19.433 19.8445 19.3982 19.9065 19.2578 20.0001C19.1554 20.0078 19.0572 20.0108 18.9548 20.0103C18.9234 20.0104 18.8921 20.0106 18.8598 20.0107C18.7539 20.0111 18.648 20.011 18.5421 20.0108C18.4658 20.011 18.3894 20.0112 18.3131 20.0114C18.1026 20.012 17.8922 20.0121 17.6817 20.012C17.455 20.0121 17.2283 20.0126 17.0016 20.0131C16.5056 20.014 16.0095 20.0143 15.5135 20.0145C15.204 20.0146 14.8945 20.0149 14.585 20.0151C13.7286 20.0159 12.8723 20.0165 12.0159 20.0167C11.9885 20.0167 11.9611 20.0167 11.9329 20.0167C11.8218 20.0167 11.7108 20.0167 11.5997 20.0167C11.5161 20.0167 11.4326 20.0167 11.349 20.0167C11.3075 20.0167 11.3075 20.0167 11.2653 20.0168C10.3973 20.0169 9.52923 20.0177 8.66121 20.0191C7.68651 20.0207 6.71181 20.0217 5.73711 20.0217C5.22083 20.0217 4.70455 20.022 4.18827 20.0232C3.74875 20.0241 3.30923 20.0244 2.86971 20.0238C2.64532 20.0235 2.42094 20.0236 2.19655 20.0245C1.9913 20.0253 1.78608 20.0252 1.58083 20.0243C1.50641 20.0242 1.43199 20.0244 1.35758 20.025C1.25671 20.0257 1.15592 20.0252 1.05506 20.0244C1.0259 20.0249 0.99674 20.0254 0.966698 20.0259C0.814861 20.0233 0.747963 20.0047 0.627419 19.9093C0.525866 19.7775 0.507812 19.6972 0.507812 19.5314C0.566999 19.3745 0.601778 19.3125 0.742188 19.2189C0.852308 19.21 0.852308 19.21 0.984344 19.2112C1.03155 19.2115 1.07876 19.2117 1.1274 19.212C1.17672 19.2127 1.22604 19.2133 1.27686 19.214C1.32663 19.2143 1.37641 19.2147 1.42769 19.2151C1.55076 19.216 1.67381 19.2173 1.79688 19.2189C1.79661 19.1742 1.79636 19.1296 1.79609 19.0836C1.79371 18.6618 1.79195 18.24 1.7908 17.8181C1.79019 17.6013 1.78937 17.3845 1.78803 17.1676C1.78676 16.9582 1.78606 16.7487 1.78576 16.5392C1.78554 16.4595 1.78512 16.3798 1.78448 16.3001C1.78363 16.188 1.78352 16.076 1.78357 15.9639C1.78315 15.9313 1.78273 15.8988 1.78229 15.8652C1.78423 15.4906 1.88146 15.1541 2.14844 14.8829C2.47992 14.6081 2.86413 14.5975 3.27881 14.5991C3.32256 14.599 3.36632 14.599 3.4114 14.5989C3.50345 14.5988 3.5955 14.599 3.68755 14.5993C3.8277 14.5997 3.96783 14.5993 4.10797 14.5988C4.19779 14.5989 4.28762 14.599 4.37744 14.5991C4.41896 14.599 4.46047 14.5988 4.50324 14.5986C4.9194 14.6012 5.26226 14.6552 5.57526 14.9455C5.82334 15.2131 5.87707 15.4951 5.87268 15.8486C5.8727 15.8852 5.87271 15.9218 5.87273 15.9596C5.87265 16.0796 5.87174 16.1996 5.87082 16.3197C5.8706 16.4033 5.87043 16.487 5.87032 16.5706C5.86987 16.79 5.86872 17.0093 5.86742 17.2287C5.86601 17.4923 5.86547 17.7559 5.86479 18.0195C5.86366 18.4193 5.86141 18.8191 5.85938 19.2189C6.56836 19.2189 7.27734 19.2189 8.00781 19.2189C8.00679 19.0067 8.00577 18.7946 8.00471 18.576C8.00148 17.8752 7.99931 17.1744 7.99769 16.4735C7.99669 16.0486 7.99532 15.6237 7.99308 15.1988C7.99113 14.8283 7.98987 14.4579 7.98944 14.0875C7.98918 13.8914 7.98859 13.6953 7.98716 13.4992C7.98583 13.3145 7.98543 13.1298 7.98572 12.945C7.98567 12.8774 7.98528 12.8098 7.98453 12.7422C7.98025 12.3372 7.9894 11.9875 8.28034 11.675C8.62627 11.3444 9.00729 11.3222 9.46564 11.3203C9.50841 11.3201 9.55119 11.3199 9.59526 11.3196C9.68568 11.3193 9.7761 11.319 9.86652 11.3189C10.0036 11.3185 10.1406 11.3173 10.2777 11.316C10.3659 11.3158 10.4541 11.3156 10.5423 11.3154C10.5827 11.3149 10.6231 11.3145 10.6648 11.314C11.0168 11.315 11.4139 11.3496 11.698 11.5786C11.9527 11.8431 12.0375 12.0754 12.0359 12.4358C12.036 12.4793 12.036 12.4793 12.036 12.5237C12.0361 12.6209 12.0359 12.7181 12.0357 12.8153C12.0357 12.885 12.0357 12.9547 12.0357 13.0244C12.0357 13.2136 12.0355 13.4029 12.0352 13.5921C12.035 13.7898 12.0349 13.9876 12.0349 14.1853C12.0348 14.5598 12.0345 14.9343 12.0341 15.3088C12.0336 15.7351 12.0334 16.1615 12.0332 16.5878C12.0328 17.4648 12.0321 18.3418 12.0312 19.2189C12.7402 19.2189 13.4492 19.2189 14.1797 19.2189C14.1793 18.9838 14.1793 18.9838 14.1789 18.744C14.1766 17.3065 14.1748 15.8691 14.1737 14.4317C14.1736 14.2432 14.1734 14.0548 14.1733 13.8664C14.1732 13.8289 14.1732 13.7913 14.1732 13.7527C14.1726 13.1455 14.1717 12.5382 14.1706 11.931C14.1695 11.3078 14.1689 10.6846 14.1687 10.0614C14.1685 9.67696 14.168 9.29249 14.167 8.90803C14.1664 8.6443 14.1662 8.38058 14.1664 8.11685C14.1665 7.96475 14.1663 7.81265 14.1657 7.66055C14.1651 7.52111 14.1651 7.38169 14.1655 7.24226C14.1656 7.1683 14.1651 7.09434 14.1646 7.02037C14.1668 6.60006 14.2276 6.28165 14.5239 5.97332C14.7639 5.76337 15.0195 5.6992 15.334 5.69695ZM15.0416 6.64579C14.9453 6.81511 14.9743 7.02797 14.9765 7.2169C14.9763 7.26812 14.9762 7.31933 14.976 7.37209C14.9756 7.51418 14.9764 7.65624 14.9773 7.79833C14.9782 7.95156 14.9779 8.1048 14.9777 8.25804C14.9776 8.52352 14.9783 8.78899 14.9793 9.05447C14.9809 9.4383 14.9814 9.82213 14.9817 10.206C14.9821 10.8287 14.9834 11.4514 14.9853 12.0742C14.9871 12.6791 14.9884 13.2841 14.9893 13.889C14.9893 13.9263 14.9894 13.9636 14.9894 14.002C14.9897 14.1891 14.9899 14.3761 14.9902 14.5632C14.9922 16.1151 14.9958 17.667 15 19.2189C15.7992 19.2189 16.5984 19.2189 17.4219 19.2189C17.4262 17.6241 17.4298 16.0294 17.4318 14.4346C17.4321 14.2465 17.4323 14.0583 17.4326 13.8702C17.4327 13.814 17.4327 13.814 17.4328 13.7567C17.4336 13.1497 17.4352 12.5426 17.4369 11.9356C17.4388 11.3131 17.4399 10.6905 17.4403 10.0679C17.4405 9.68358 17.4414 9.29923 17.443 8.91489C17.444 8.65154 17.4443 8.38821 17.444 8.12487C17.4439 7.97279 17.4441 7.82072 17.4452 7.66865C17.4463 7.50396 17.4459 7.33932 17.4454 7.17463C17.4462 7.10213 17.4462 7.10213 17.4471 7.02816C17.4517 6.77828 17.4517 6.77828 17.329 6.57201C17.2174 6.5192 17.1441 6.50357 17.021 6.50272C16.961 6.50179 16.961 6.50179 16.8997 6.50084C16.8569 6.50104 16.8141 6.50123 16.77 6.50143C16.7257 6.50119 16.6813 6.50095 16.6356 6.5007C16.542 6.50042 16.4484 6.50054 16.3547 6.50104C16.2114 6.50158 16.0683 6.50025 15.925 6.49876C15.8339 6.49872 15.7429 6.4988 15.6519 6.49899C15.609 6.49847 15.5662 6.49795 15.5221 6.49742C15.4821 6.49791 15.4421 6.4984 15.4008 6.4989C15.3483 6.49896 15.3483 6.49896 15.2946 6.49902C15.1855 6.52597 15.119 6.56406 15.0416 6.64579ZM8.82812 12.3048C8.82433 12.3938 8.82336 12.4829 8.82343 12.572C8.82339 12.6003 8.82336 12.6285 8.82333 12.6576C8.82326 12.7531 8.82348 12.8485 8.82369 12.9439C8.8237 13.0121 8.8237 13.0802 8.82367 13.1483C8.82366 13.3338 8.82389 13.5194 8.82416 13.7049C8.82441 13.8986 8.82443 14.0923 8.82448 14.2859C8.8246 14.653 8.82492 15.02 8.82531 15.387C8.82575 15.8048 8.82596 16.2225 8.82616 16.6402C8.82657 17.4998 8.82728 18.3593 8.82812 19.2189C9.62734 19.2189 10.4266 19.2189 11.25 19.2189C11.2518 18.336 11.2532 17.4532 11.254 16.5704C11.2545 16.1605 11.255 15.7506 11.2559 15.3407C11.2567 14.9834 11.2572 14.6262 11.2574 14.269C11.2575 14.0798 11.2577 13.8906 11.2583 13.7014C11.2588 13.5234 11.259 13.3453 11.2588 13.1673C11.2589 13.1019 11.259 13.0366 11.2593 12.9712C11.2597 12.882 11.2596 12.7927 11.2594 12.7035C11.2595 12.6536 11.2595 12.6036 11.2596 12.5522C11.2502 12.425 11.2314 12.3389 11.1719 12.2267C11.0419 12.1539 10.9291 12.1386 10.7818 12.1378C10.7441 12.1375 10.7064 12.1371 10.6676 12.1367C10.6072 12.1368 10.6072 12.1368 10.5457 12.1368C10.5039 12.1366 10.4622 12.1365 10.4192 12.1363C10.331 12.1361 10.2429 12.1361 10.1548 12.1362C10.02 12.1363 9.88528 12.1354 9.75052 12.1344C9.66481 12.1344 9.57911 12.1343 9.49341 12.1344C9.45316 12.134 9.41291 12.1336 9.37145 12.1333C9.1513 12.1347 8.99205 12.1409 8.82812 12.3048ZM2.65625 15.547C2.60534 15.6997 2.61207 15.8446 2.61275 16.0038C2.61275 16.0385 2.61274 16.0732 2.61274 16.1089C2.61276 16.2237 2.61307 16.3384 2.61337 16.4532C2.61345 16.5327 2.6135 16.6123 2.61354 16.6918C2.61369 16.9012 2.61407 17.1106 2.61451 17.32C2.61497 17.5713 2.61515 17.8225 2.61538 18.0737C2.61576 18.4554 2.61651 18.8371 2.61719 19.2189C3.41641 19.2189 4.21563 19.2189 5.03906 19.2189C5.04247 18.584 5.04247 18.584 5.04478 17.949C5.04549 17.6901 5.04632 17.4312 5.0479 17.1723C5.04918 16.9636 5.04988 16.7549 5.05018 16.5462C5.0504 16.4665 5.05082 16.3869 5.05145 16.3072C5.0523 16.1957 5.05242 16.0842 5.05237 15.9728C5.05279 15.9397 5.05321 15.9067 5.05364 15.8726C5.05295 15.742 5.04923 15.6441 4.98696 15.5277C4.87303 15.4247 4.76171 15.4247 4.61519 15.4235C4.57673 15.4231 4.53826 15.4228 4.49864 15.4224C4.45713 15.4222 4.41563 15.422 4.37286 15.4219C4.33014 15.4216 4.28742 15.4214 4.2434 15.4212C4.15297 15.4208 4.06254 15.4206 3.97211 15.4204C3.83383 15.42 3.69556 15.4188 3.55728 15.4176C3.46944 15.4173 3.3816 15.4171 3.29376 15.417C3.25242 15.4165 3.21107 15.416 3.16847 15.4155C2.89101 15.4119 2.89101 15.4119 2.65625 15.547Z" fill="#2D2D2D"/>
<path d="M15.5082 -0.0253517C15.535 -0.025694 15.5617 -0.0260362 15.5893 -0.0263889C15.6774 -0.0272453 15.7654 -0.0266806 15.8534 -0.0260193C15.9149 -0.026151 15.9763 -0.0263406 16.0377 -0.0265856C16.1663 -0.0268731 16.2949 -0.0264562 16.4235 -0.0255425C16.5881 -0.0244296 16.7526 -0.0250706 16.9172 -0.0262402C17.044 -0.026947 17.1708 -0.0267209 17.2976 -0.0262153C17.3583 -0.0260852 17.419 -0.0262439 17.4797 -0.0266995C17.5646 -0.0271973 17.6494 -0.0264375 17.7343 -0.0253517C17.7826 -0.0251963 17.8308 -0.025041 17.8805 -0.0248809C18.0425 0.0066362 18.1 0.069584 18.2033 0.195233C18.2569 0.30239 18.2479 0.388678 18.2487 0.50862C18.249 0.558036 18.2494 0.607451 18.2498 0.658364C18.25 0.712575 18.2501 0.766785 18.2503 0.820996C18.2505 0.876467 18.2507 0.931938 18.251 0.987409C18.2514 1.10382 18.2516 1.22023 18.2517 1.33664C18.252 1.48559 18.2529 1.63453 18.254 1.78349C18.2547 1.89813 18.2549 2.01277 18.255 2.12741C18.2551 2.18231 18.2554 2.23721 18.2559 2.29211C18.2566 2.36905 18.2565 2.44599 18.2563 2.52293C18.2564 2.56668 18.2566 2.61042 18.2567 2.65549C18.2404 2.78941 18.2056 2.86122 18.1252 2.96867C17.9688 3.0729 17.8403 3.07937 17.6564 3.0468C17.5488 2.96158 17.4831 2.89555 17.422 2.77336C17.4159 2.67371 17.412 2.57495 17.4097 2.4752C17.4089 2.44583 17.4081 2.41646 17.4072 2.38621C17.4047 2.29228 17.4024 2.19835 17.4001 2.10441C17.3984 2.04078 17.3967 1.97715 17.395 1.91353C17.3908 1.75743 17.3868 1.60134 17.383 1.44523C17.3619 1.46634 17.3409 1.48744 17.3191 1.50918C16.8071 2.02208 16.295 2.53487 15.7827 3.04754C15.535 3.29547 15.2873 3.54343 15.0397 3.79147C14.8239 4.00761 14.6081 4.22368 14.3922 4.43966C14.2779 4.55408 14.1635 4.66854 14.0493 4.78307C13.9418 4.89079 13.8343 4.99841 13.7267 5.10597C13.6871 5.14554 13.6476 5.18514 13.6081 5.22478C13.5543 5.27874 13.5004 5.33257 13.4465 5.38639C13.4164 5.4166 13.3862 5.44681 13.3551 5.47793C13.2281 5.59663 13.1202 5.60701 12.9508 5.60349C12.8328 5.58249 12.789 5.54728 12.702 5.46614C12.6751 5.44124 12.6482 5.41634 12.6205 5.39069C12.5937 5.36486 12.5668 5.33903 12.5392 5.31242C12.5148 5.28887 12.4903 5.26532 12.465 5.24105C12.3906 5.16829 12.3171 5.09471 12.2438 5.02083C12.2174 4.99433 12.191 4.96784 12.1637 4.94055C12.0805 4.85708 11.9973 4.77347 11.9142 4.68986C11.8573 4.63276 11.8004 4.57567 11.7435 4.51858C11.605 4.37965 11.4666 4.2406 11.3283 4.10148C11.2161 4.15235 11.1359 4.2061 11.0494 4.29343C11.026 4.31683 11.0026 4.34023 10.9785 4.36434C10.9532 4.39007 10.9279 4.41581 10.9018 4.44233C10.861 4.4833 10.861 4.4833 10.8194 4.5251C10.7281 4.6169 10.6371 4.70897 10.5461 4.80103C10.4808 4.86681 10.4155 4.93256 10.3501 4.9983C10.2093 5.14001 10.0686 5.28183 9.92803 5.42373C9.70574 5.64803 9.48302 5.87191 9.26023 6.09571C9.18399 6.17231 9.10776 6.2489 9.03152 6.3255C9.01247 6.34464 8.99342 6.36378 8.97379 6.38351C8.75698 6.60135 8.54025 6.81927 8.32356 7.03723C8.29385 7.06711 8.29385 7.06711 8.26354 7.0976C7.94255 7.42049 7.62194 7.74374 7.30142 8.0671C6.97227 8.39915 6.6426 8.73067 6.31247 9.06174C6.12715 9.24762 5.9421 9.43374 5.75768 9.6205C5.58423 9.79611 5.41015 9.97108 5.23558 10.1456C5.1716 10.2098 5.10785 10.2742 5.04435 10.3388C4.95768 10.4271 4.8702 10.5144 4.78248 10.6015C4.74502 10.6403 4.74502 10.6403 4.7068 10.6798C4.53509 10.8479 4.42197 10.8975 4.17986 10.8984C4.03658 10.8379 3.9403 10.7631 3.86736 10.6249C3.8432 10.4385 3.8646 10.3351 3.97209 10.1823C4.07381 10.0536 4.19033 9.93956 4.30654 9.824C4.33509 9.7953 4.36363 9.7666 4.39305 9.73703C4.48855 9.64113 4.58433 9.54551 4.68011 9.44988C4.74872 9.3811 4.81731 9.3123 4.88589 9.24349C5.05273 9.07618 5.21976 8.90906 5.38688 8.74203C5.52269 8.60629 5.65844 8.47047 5.79413 8.33461C5.81346 8.31526 5.83279 8.29591 5.85271 8.27597C5.89197 8.23665 5.93124 8.19734 5.97051 8.15803C6.33847 7.78963 6.7067 7.42149 7.075 7.05343C7.41196 6.71667 7.7486 6.37959 8.08509 6.04236C8.43072 5.69597 8.77657 5.3498 9.12265 5.00387C9.3169 4.80969 9.51106 4.61543 9.705 4.42094C9.88726 4.23817 10.0698 4.05571 10.2526 3.87345C10.3197 3.80644 10.3867 3.73932 10.4536 3.6721C10.5448 3.58053 10.6363 3.48931 10.7279 3.39819C10.7544 3.37137 10.781 3.34455 10.8083 3.31692C10.9755 3.15161 11.0963 3.04896 11.3405 3.04435C11.6448 3.13204 11.8734 3.43005 12.0925 3.65089C12.1189 3.67738 12.1453 3.70387 12.1726 3.73117C12.2558 3.81464 12.3389 3.89824 12.422 3.98185C12.479 4.03896 12.5359 4.09605 12.5928 4.15313C12.7313 4.29206 12.8697 4.43111 13.008 4.57023C13.2288 4.38648 13.4326 4.19006 13.6352 3.98653C13.6695 3.9522 13.7038 3.91788 13.7392 3.88251C13.8326 3.78914 13.9258 3.69568 14.0191 3.60219C14.1168 3.50421 14.2146 3.40635 14.3125 3.30847C14.4974 3.12345 14.6822 2.93833 14.8669 2.75318C15.0774 2.54225 15.288 2.33143 15.4986 2.12062C15.9316 1.68728 16.3644 1.2538 16.797 0.820233C16.7507 0.820073 16.7044 0.819912 16.6567 0.819747C16.4845 0.818895 16.3124 0.816773 16.1402 0.814273C16.0658 0.813368 15.9913 0.812805 15.9169 0.812594C15.8097 0.812231 15.7026 0.810629 15.5954 0.808789C15.5457 0.80902 15.5457 0.80902 15.4949 0.809255C15.3238 0.805056 15.2548 0.797101 15.116 0.687892C15.0326 0.577049 15.0127 0.527401 15.0148 0.390546C15.0143 0.358319 15.0138 0.326092 15.0133 0.292889C15.0815 0.0360899 15.2648 -0.0245677 15.5082 -0.0253517Z" fill="#2D2D2D"/>
<path d="M3.08594 11.4454C3.1962 11.4944 3.26027 11.5346 3.33252 11.631C3.37219 11.7608 3.3757 11.857 3.35938 11.9923C3.26376 12.1488 3.20601 12.2137 3.02979 12.2682C2.86751 12.2653 2.7888 12.2419 2.65625 12.1485C2.56286 12.016 2.53947 11.9373 2.53662 11.775C2.62171 11.4997 2.80849 11.4051 3.08594 11.4454Z" fill="#2D2D2D"/>
</g>
<defs>
<clipPath id="clip0_82_13375">
<rect width="20" height="20" fill="white"/>
</clipPath>
</defs>
</svg>
