<svg width="30" height="30" viewBox="0 0 30 30" fill="none" xmlns="http://www.w3.org/2000/svg">
<path d="M6.20364 0.906636C6.26439 0.906147 6.32515 0.905657 6.38774 0.905153C6.58952 0.903816 6.79126 0.904134 6.99305 0.904465C7.13843 0.903859 7.28382 0.903156 7.4292 0.902365C7.78196 0.900738 8.13471 0.900217 8.48747 0.900289C8.77425 0.900338 9.06102 0.899993 9.3478 0.899373C10.2505 0.897462 11.1531 0.896931 12.0558 0.897445C12.7672 0.897796 13.4786 0.896012 14.19 0.893248C14.9216 0.890429 15.6531 0.889137 16.3846 0.889458C16.7949 0.889609 17.2052 0.889144 17.6155 0.887052C18.0011 0.885101 18.3866 0.885283 18.7722 0.886902C18.9136 0.887163 19.0551 0.886725 19.1965 0.885534C19.3897 0.884017 19.5827 0.885033 19.7759 0.886681C19.8318 0.885646 19.8877 0.884611 19.9452 0.883545C20.3147 0.890352 20.4986 0.982442 20.7607 1.24264C20.8096 1.29467 20.8096 1.29467 20.8595 1.34774C20.9059 1.39176 20.9524 1.43579 21.0003 1.48115C21.0391 1.51994 21.0779 1.55873 21.1179 1.5987C21.1633 1.64396 21.2087 1.68921 21.2555 1.73584C21.3276 1.80814 21.3276 1.80814 21.4012 1.8819C21.4532 1.93378 21.5052 1.98566 21.5587 2.03911C21.6999 2.18002 21.8408 2.32105 21.9818 2.46216C22.1297 2.61022 22.2777 2.75814 22.4258 2.90609C22.6739 3.15406 22.9218 3.40216 23.1697 3.65033C23.4564 3.93732 23.7432 4.22409 24.0302 4.51076C24.2771 4.75738 24.5239 5.00411 24.7706 5.25093C24.9177 5.39816 25.0649 5.54536 25.2122 5.69244C25.3759 5.85597 25.5394 6.01972 25.7028 6.18351C25.7517 6.2323 25.8006 6.2811 25.851 6.33137C25.9174 6.39802 25.9174 6.39802 25.9852 6.46601C26.0238 6.50469 26.0625 6.54337 26.1023 6.58322C26.2672 6.76172 26.2576 6.89172 26.258 7.12894C26.2582 7.20001 26.2585 7.27108 26.2588 7.3443C26.2587 7.42388 26.2587 7.50346 26.2587 7.58304C26.2589 7.66703 26.2591 7.75102 26.2594 7.83501C26.26 8.06666 26.2602 8.2983 26.2603 8.52995C26.2606 8.77947 26.2611 9.029 26.2616 9.27852C26.2628 9.88167 26.2634 10.4848 26.2639 11.088C26.2642 11.3719 26.2645 11.6559 26.2648 11.9399C26.2658 12.8839 26.2666 13.8279 26.267 14.7719C26.2672 15.017 26.2673 15.2621 26.2674 15.5072C26.2674 15.5682 26.2674 15.6291 26.2675 15.6918C26.268 16.6782 26.2694 17.6646 26.2713 18.651C26.2733 19.6636 26.2743 20.6762 26.2745 21.6888C26.2747 22.2574 26.2752 22.8259 26.2767 23.3945C26.2779 23.8789 26.2784 24.3632 26.2778 24.8476C26.2776 25.0946 26.2777 25.3416 26.2788 25.5887C26.2799 25.8151 26.2798 26.0415 26.2789 26.268C26.2787 26.3496 26.279 26.4313 26.2797 26.5129C26.2858 27.2696 26.1369 27.8615 25.6056 28.4181C25.0308 28.9667 24.4205 29.0981 23.6442 29.0923C23.5285 29.0929 23.5285 29.0929 23.4105 29.0935C23.1981 29.0944 22.9857 29.094 22.7732 29.0932C22.5435 29.0927 22.3137 29.0935 22.084 29.0942C21.6346 29.0952 21.1852 29.095 20.7358 29.0943C20.3704 29.0938 20.005 29.0937 19.6397 29.0939C19.5876 29.094 19.5355 29.094 19.4818 29.0941C19.376 29.0941 19.2702 29.0942 19.1643 29.0943C18.1729 29.0949 17.1816 29.0942 16.1902 29.0929C15.3403 29.0919 14.4905 29.0921 13.6406 29.0931C12.6527 29.0944 11.6648 29.0949 10.6768 29.0942C10.5714 29.0941 10.466 29.094 10.3605 29.0939C10.2827 29.0939 10.2827 29.0939 10.2033 29.0938C9.83858 29.0936 9.47383 29.094 9.10907 29.0945C8.66429 29.0952 8.21951 29.095 7.77473 29.0938C7.54799 29.0931 7.32126 29.0929 7.09451 29.0937C6.84831 29.0945 6.60214 29.0935 6.35594 29.0923C6.2493 29.0931 6.2493 29.0931 6.1405 29.0939C5.44792 29.0876 4.89958 28.9001 4.39462 28.4181C3.78295 27.7773 3.71539 27.0888 3.72033 26.2432C3.72006 26.1421 3.71969 26.0409 3.71922 25.9398C3.71825 25.6633 3.71873 25.3867 3.71945 25.1102C3.71999 24.8114 3.71916 24.5126 3.71852 24.2139C3.71748 23.6291 3.7177 23.0444 3.71838 22.4596C3.71891 21.9843 3.71898 21.509 3.71873 21.0336C3.71869 20.9659 3.71866 20.8982 3.71862 20.8285C3.71855 20.6909 3.71847 20.5534 3.71839 20.4158C3.71772 19.1267 3.71849 17.8376 3.71975 16.5484C3.7208 15.4427 3.72062 14.3371 3.71954 13.2314C3.71828 11.9468 3.71779 10.6622 3.71851 9.37762C3.71858 9.24059 3.71866 9.10356 3.71873 8.96653C3.71877 8.89911 3.7188 8.83169 3.71884 8.76223C3.71904 8.28758 3.7187 7.81294 3.71815 7.33829C3.71749 6.75969 3.71767 6.18111 3.71892 5.60252C3.71953 5.30742 3.71978 5.01233 3.719 4.71724C3.7183 4.44689 3.71869 4.17656 3.71993 3.90621C3.72019 3.80863 3.72006 3.71104 3.71949 3.61346C3.71519 2.81673 3.82516 2.17864 4.39462 1.58211C4.9153 1.08506 5.49327 0.901478 6.20364 0.906636ZM5.02451 2.42806C4.71502 2.80785 4.68033 3.20986 4.68006 3.68915C4.67995 3.72897 4.67985 3.76879 4.67974 3.80981C4.67947 3.94316 4.67962 4.07649 4.67976 4.20984C4.67965 4.30644 4.67951 4.40304 4.67936 4.49965C4.679 4.76506 4.679 5.03047 4.67907 5.29588C4.67909 5.58215 4.67876 5.86841 4.67848 6.15468C4.678 6.7155 4.67784 7.27633 4.6778 7.83716C4.67778 8.29299 4.67766 8.74883 4.67747 9.20467C4.67695 10.4969 4.67668 11.7891 4.67673 13.0813C4.67673 13.151 4.67673 13.2207 4.67673 13.2925C4.67674 13.3622 4.67674 13.432 4.67674 13.5038C4.67677 14.6345 4.67621 15.7651 4.67538 16.8957C4.67454 18.0565 4.67413 19.2173 4.67418 20.3781C4.6742 21.0298 4.67404 21.6815 4.67341 22.3333C4.67288 22.8882 4.67275 23.4431 4.67315 23.9979C4.67334 24.281 4.67334 24.5641 4.67283 24.8472C4.67237 25.1065 4.67246 25.3657 4.67297 25.625C4.67306 25.7187 4.67295 25.8123 4.67262 25.906C4.65314 26.8081 4.65314 26.8081 5.03916 27.5977C5.44803 28.0037 5.837 28.1322 6.41381 28.1326C6.47624 28.1328 6.53866 28.133 6.60297 28.1332C6.70486 28.1331 6.70486 28.1331 6.8088 28.1329C6.88147 28.133 6.95414 28.1332 7.029 28.1333C7.23028 28.1336 7.43156 28.1337 7.63284 28.1336C7.85008 28.1336 8.06733 28.1339 8.28458 28.1342C8.71005 28.1347 9.13552 28.1348 9.56099 28.1349C9.90688 28.1349 10.2528 28.135 10.5987 28.1352C11.5796 28.1357 12.5606 28.136 13.5415 28.1359C13.6208 28.1359 13.6208 28.1359 13.7017 28.1359C13.7811 28.1359 13.7811 28.1359 13.8621 28.1359C14.7199 28.1359 15.5778 28.1365 16.4356 28.1373C17.3167 28.1381 18.1978 28.1385 19.0789 28.1385C19.5734 28.1385 20.068 28.1386 20.5625 28.1393C20.9836 28.1398 21.4047 28.1399 21.8258 28.1395C22.0405 28.1393 22.2552 28.1393 22.47 28.1398C22.703 28.1404 22.936 28.14 23.1691 28.1396C23.2704 28.14 23.2704 28.14 23.3737 28.1405C23.9503 28.138 24.4546 28.1066 24.8807 27.6774C25.2349 27.2847 25.32 26.9002 25.3198 26.3754C25.3199 26.3078 25.32 26.2401 25.3202 26.1704C25.3199 26.0598 25.3199 26.0598 25.3196 25.9469C25.3197 25.8674 25.3197 25.7878 25.3198 25.7082C25.3199 25.4899 25.3197 25.2715 25.3194 25.0532C25.3191 24.8176 25.3192 24.5821 25.3193 24.3465C25.3193 23.9385 25.3191 23.5305 25.3188 23.1224C25.3183 22.5325 25.3182 21.9425 25.3181 21.3526C25.318 20.3955 25.3176 19.4383 25.317 18.4812C25.3165 17.5514 25.3161 16.6217 25.3158 15.6919C25.3158 15.6346 25.3158 15.5773 25.3158 15.5182C25.3157 15.2307 25.3156 14.9432 25.3155 14.6556C25.3149 12.2705 25.3139 9.88527 25.3126 7.50008C25.2663 7.49987 25.22 7.49965 25.1723 7.49943C24.7336 7.4972 24.2949 7.49386 23.8563 7.48931C23.6308 7.487 23.4053 7.48511 23.1798 7.4842C22.9617 7.48331 22.7437 7.48128 22.5256 7.4785C22.4429 7.47764 22.3602 7.47717 22.2775 7.47712C21.5147 7.4762 20.8885 7.34702 20.3321 6.79696C19.8003 6.17197 19.7198 5.60287 19.7162 4.79905C19.7152 4.71441 19.7142 4.62977 19.713 4.54514C19.7103 4.32408 19.7085 4.10302 19.707 3.88195C19.7052 3.65568 19.7025 3.42943 19.6998 3.20317C19.6948 2.76048 19.6909 2.31779 19.6876 1.87508C17.9648 1.87241 16.242 1.87033 14.5192 1.8691C14.3157 1.86895 14.1122 1.8688 13.9087 1.86864C13.8682 1.86861 13.8277 1.86858 13.7859 1.86855C13.1304 1.86804 12.4749 1.86712 11.8194 1.86604C11.1465 1.86494 10.4735 1.8643 9.80063 1.86406C9.42279 1.8639 9.04495 1.86354 8.66711 1.86269C8.31136 1.86189 7.95563 1.86165 7.59988 1.86183C7.46943 1.86179 7.33898 1.86156 7.20853 1.86111C7.03012 1.86053 6.85173 1.86067 6.67333 1.86099C6.62197 1.86065 6.57062 1.86031 6.5177 1.85995C5.91156 1.86288 5.44434 1.9627 5.02451 2.42806ZM20.6251 2.6368C20.6222 2.98596 20.6201 3.33512 20.6187 3.68429C20.6181 3.80289 20.6173 3.92149 20.6163 4.04009C20.6148 4.21129 20.6142 4.38248 20.6136 4.55369C20.613 4.60608 20.6124 4.65847 20.6118 4.71244C20.6117 5.2029 20.6561 5.64537 20.9767 6.03524C21.4198 6.47518 21.8408 6.56927 22.4553 6.56922C22.5086 6.56892 22.5619 6.56861 22.6168 6.5683C22.6723 6.56822 22.7277 6.56814 22.7848 6.56805C22.9609 6.56773 23.137 6.56699 23.3131 6.56624C23.4329 6.56595 23.5526 6.56568 23.6724 6.56544C23.9652 6.5648 24.2581 6.56379 24.5509 6.56258C24.3238 6.29106 24.0883 6.03292 23.8376 5.78314C23.8034 5.74879 23.7691 5.71444 23.7338 5.67905C23.622 5.56699 23.51 5.45515 23.398 5.34333C23.3198 5.2651 23.2416 5.18687 23.1635 5.10862C23.0004 4.94547 22.8372 4.78242 22.674 4.61945C22.4643 4.41006 22.2548 4.20042 22.0454 3.99069C21.8844 3.82949 21.7233 3.66843 21.5621 3.50741C21.4848 3.4301 21.4075 3.35274 21.3302 3.27534C21.2228 3.16776 21.1152 3.06036 21.0075 2.95301C20.9754 2.92079 20.9433 2.88856 20.9102 2.85535C20.7882 2.70459 20.7882 2.70459 20.6251 2.6368Z" fill="#F79831"/>
<path d="M7.26825 17.7828C7.31614 17.7824 7.36403 17.782 7.41337 17.7817C7.57406 17.7807 7.7347 17.7815 7.89539 17.7822C8.01049 17.7819 8.1256 17.7815 8.24071 17.781C8.55353 17.7799 8.86633 17.7803 9.17916 17.781C9.50624 17.7816 9.83332 17.7811 10.1604 17.7807C10.7097 17.7803 11.259 17.7809 11.8083 17.782C12.4438 17.7832 13.0792 17.7828 13.7147 17.7815C14.2599 17.7805 14.8051 17.7803 15.3503 17.7809C15.676 17.7813 16.0018 17.7814 16.3276 17.7806C16.6339 17.7799 16.9401 17.7804 17.2464 17.7817C17.3589 17.782 17.4714 17.7819 17.584 17.7814C17.7373 17.7808 17.8906 17.7816 18.044 17.7828C18.0888 17.7822 18.1335 17.7817 18.1796 17.7812C18.3852 17.7842 18.4952 17.7969 18.6602 17.9242C18.7574 18.0572 18.7817 18.1185 18.7792 18.2813C18.7801 18.3393 18.7801 18.3393 18.781 18.3985C18.7341 18.5751 18.66 18.6384 18.5155 18.75C18.3507 18.773 18.2088 18.7817 18.044 18.7798C17.9961 18.7802 17.9482 18.7805 17.8989 18.7809C17.7382 18.7818 17.5776 18.7811 17.4169 18.7804C17.3018 18.7807 17.1867 18.7811 17.0715 18.7816C16.7587 18.7827 16.4459 18.7822 16.1331 18.7815C15.806 18.7809 15.4789 18.7815 15.1519 18.7818C14.6025 18.7823 14.0532 18.7817 13.5039 18.7806C12.8685 18.7793 12.233 18.7797 11.5976 18.781C11.0524 18.7821 10.5072 18.7822 9.962 18.7816C9.63621 18.7812 9.31043 18.7812 8.98463 18.782C8.67837 18.7826 8.37213 18.7822 8.06587 18.7808C7.95334 18.7805 7.84081 18.7806 7.72828 18.7811C7.57491 18.7818 7.42161 18.781 7.26825 18.7798C7.2235 18.7803 7.17874 18.7808 7.13263 18.7814C6.92706 18.7783 6.81703 18.7657 6.65204 18.6383C6.55483 18.5053 6.53054 18.444 6.53308 18.2813C6.53217 18.2233 6.53217 18.2233 6.53125 18.1641C6.6311 17.7882 6.93418 17.7789 7.26825 17.7828Z" fill="#F79831"/>
<path d="M11.9557 9.34526C12.0036 9.3449 12.0515 9.34453 12.1009 9.34415C12.2616 9.34322 12.4222 9.34396 12.5829 9.3447C12.698 9.34438 12.8131 9.34396 12.9282 9.34345C13.241 9.34238 13.5538 9.3428 13.8667 9.34354C14.1937 9.34413 14.5208 9.34359 14.8479 9.34322C15.3972 9.34279 15.9465 9.34335 16.4958 9.34447C17.1313 9.34574 17.7667 9.34533 18.4022 9.34404C18.9474 9.34298 19.4926 9.34283 20.0378 9.34344C20.3635 9.34381 20.6893 9.34385 21.0151 9.34308C21.3214 9.3424 21.6276 9.34287 21.9339 9.34423C22.0464 9.34454 22.1589 9.34445 22.2715 9.34393C22.4248 9.34329 22.5781 9.34409 22.7315 9.34526C22.7763 9.34474 22.821 9.34422 22.8671 9.34368C23.0727 9.34673 23.1827 9.35937 23.3477 9.48675C23.4449 9.61973 23.4692 9.68104 23.4667 9.84377C23.4676 9.90178 23.4676 9.90178 23.4685 9.96096C23.4216 10.1376 23.3475 10.2009 23.203 10.3125C23.0382 10.3355 22.8963 10.3442 22.7315 10.3423C22.6836 10.3427 22.6357 10.343 22.5864 10.3434C22.4257 10.3443 22.2651 10.3436 22.1044 10.3429C21.9893 10.3432 21.8742 10.3436 21.759 10.3441C21.4462 10.3452 21.1334 10.3447 20.8206 10.344C20.4935 10.3434 20.1664 10.344 19.8394 10.3443C19.29 10.3448 18.7407 10.3442 18.1914 10.3431C17.556 10.3418 16.9205 10.3422 16.2851 10.3435C15.7399 10.3446 15.1947 10.3447 14.6495 10.3441C14.3237 10.3437 13.9979 10.3437 13.6721 10.3445C13.3659 10.3451 13.0596 10.3447 12.7534 10.3433C12.6408 10.343 12.5283 10.3431 12.4158 10.3436C12.2624 10.3443 12.1091 10.3435 11.9557 10.3423C11.911 10.3428 11.8662 10.3433 11.8201 10.3439C11.6146 10.3408 11.5045 10.3282 11.3395 10.2008C11.2423 10.0678 11.218 10.0065 11.2206 9.84377C11.2197 9.78577 11.2197 9.78577 11.2188 9.72659C11.3186 9.35068 11.6217 9.34136 11.9557 9.34526Z" fill="#F79831"/>
<path d="M7.19707 12.1578C7.25742 12.1572 7.25742 12.1572 7.31898 12.1567C7.45377 12.1557 7.58848 12.1565 7.72327 12.1572C7.8199 12.1569 7.91654 12.1565 8.01317 12.156C8.27564 12.1549 8.53808 12.1553 8.80054 12.156C9.07507 12.1566 9.3496 12.1561 9.62413 12.1557C10.0852 12.1553 10.5462 12.1559 11.0073 12.157C11.5405 12.1582 12.0737 12.1578 12.6069 12.1565C13.0645 12.1555 13.5221 12.1553 13.9797 12.1559C14.2531 12.1563 14.5265 12.1564 14.7999 12.1556C15.0569 12.1549 15.3139 12.1554 15.5709 12.1567C15.6653 12.157 15.7597 12.1569 15.8541 12.1564C15.9828 12.1558 16.1115 12.1566 16.2402 12.1578C16.3483 12.1579 16.3483 12.1579 16.4586 12.158C16.6746 12.193 16.7434 12.2505 16.8749 12.4219C16.906 12.5391 16.906 12.5391 16.9042 12.6563C16.9051 12.7143 16.9051 12.7143 16.906 12.7735C16.8598 12.9472 16.7805 13.0135 16.6405 13.125C16.4586 13.1545 16.4586 13.1545 16.2402 13.1548C16.2 13.1552 16.1597 13.1555 16.1183 13.1559C15.9835 13.1568 15.8488 13.1561 15.714 13.1554C15.6174 13.1557 15.5207 13.1561 15.4241 13.1566C15.1616 13.1577 14.8992 13.1572 14.6367 13.1565C14.3622 13.1559 14.0877 13.1565 13.8131 13.1568C13.3521 13.1573 12.891 13.1567 12.43 13.1556C11.8968 13.1543 11.3636 13.1547 10.8304 13.156C10.3728 13.1571 9.91518 13.1572 9.45757 13.1566C9.18417 13.1562 8.91079 13.1562 8.63739 13.157C8.38037 13.1576 8.12338 13.1572 7.86636 13.1558C7.77198 13.1555 7.67759 13.1556 7.5832 13.1561C7.45446 13.1568 7.3258 13.156 7.19707 13.1548C7.08896 13.1547 7.08896 13.1547 6.97867 13.1545C6.76268 13.1195 6.69389 13.062 6.56238 12.8906C6.53125 12.7735 6.53125 12.7735 6.53308 12.6563C6.53217 12.5983 6.53217 12.5983 6.53125 12.5391C6.62327 12.1927 6.87834 12.1582 7.19707 12.1578Z" fill="#F79831"/>
<path d="M14.6615 14.9703C14.7364 14.9696 14.8113 14.9689 14.8885 14.9683C14.9714 14.9687 15.0543 14.9692 15.1372 14.9697C15.2246 14.9694 15.312 14.969 15.3994 14.9685C15.6367 14.9674 15.8739 14.9678 16.1112 14.9685C16.3595 14.9691 16.6077 14.9686 16.856 14.9682C17.2729 14.9678 17.6898 14.9684 18.1067 14.9695C18.5888 14.9707 19.0709 14.9703 19.553 14.969C19.9668 14.968 20.3806 14.9678 20.7944 14.9684C21.0416 14.9688 21.2888 14.9689 21.536 14.9681C21.7684 14.9674 22.0007 14.9679 22.2331 14.9692C22.3185 14.9695 22.4038 14.9694 22.4891 14.9689C22.6055 14.9683 22.7219 14.9692 22.8383 14.9703C22.936 14.9704 22.936 14.9704 23.0357 14.9705C23.2412 15.0068 23.3101 15.0724 23.4374 15.2344C23.4685 15.3516 23.4685 15.3516 23.4667 15.4688C23.4676 15.5268 23.4676 15.5268 23.4685 15.586C23.4227 15.7584 23.3408 15.826 23.203 15.9375C23.0357 15.967 23.0357 15.967 22.8383 15.9673C22.7634 15.9679 22.6884 15.9686 22.6112 15.9693C22.5283 15.9688 22.4454 15.9684 22.3625 15.9679C22.2751 15.9682 22.1877 15.9686 22.1004 15.9691C21.8631 15.9702 21.6258 15.9697 21.3885 15.969C21.1403 15.9684 20.892 15.969 20.6438 15.9693C20.2268 15.9698 19.8099 15.9692 19.393 15.9681C18.911 15.9668 18.4289 15.9672 17.9468 15.9685C17.533 15.9696 17.1192 15.9697 16.7053 15.9691C16.4582 15.9687 16.211 15.9687 15.9638 15.9695C15.7314 15.9701 15.499 15.9697 15.2666 15.9683C15.1813 15.968 15.096 15.9681 15.0107 15.9686C14.8943 15.9693 14.7779 15.9683 14.6615 15.9673C14.5637 15.9672 14.5637 15.9672 14.464 15.967C14.2585 15.9308 14.1896 15.8652 14.0624 15.7031C14.0312 15.586 14.0312 15.586 14.0331 15.4688C14.0322 15.4108 14.0322 15.4108 14.0312 15.3516C14.1184 15.0233 14.3554 14.9707 14.6615 14.9703Z" fill="#F79831"/>
<path d="M7.37903 23.4073C7.43812 23.4069 7.49722 23.4064 7.5581 23.406C7.75355 23.405 7.94896 23.4057 8.14441 23.4065C8.28014 23.4063 8.41586 23.4061 8.55159 23.4058C8.8361 23.4054 9.12059 23.4059 9.40509 23.407C9.77001 23.4084 10.1349 23.4076 10.4998 23.4062C10.7801 23.4054 11.0604 23.4056 11.3407 23.4062C11.4752 23.4064 11.6098 23.4062 11.7443 23.4056C11.9323 23.4051 12.1202 23.406 12.3082 23.4073C12.3919 23.4066 12.3919 23.4066 12.4772 23.4058C12.854 23.4107 12.854 23.4107 13.0421 23.5494C13.1315 23.6818 13.1566 23.748 13.1542 23.9063C13.1551 23.9644 13.1551 23.9644 13.156 24.0235C13.1078 24.2049 13.0427 24.2629 12.8905 24.3751C12.6968 24.4109 12.5048 24.4071 12.3082 24.4054C12.2491 24.4058 12.19 24.4062 12.1292 24.4067C11.9337 24.4077 11.7383 24.407 11.5428 24.4062C11.4071 24.4064 11.2714 24.4066 11.1357 24.4069C10.8512 24.4072 10.5667 24.4067 10.2822 24.4056C9.91724 24.4043 9.55236 24.4051 9.18744 24.4065C8.90715 24.4073 8.62688 24.4071 8.3466 24.4065C8.21203 24.4063 8.07747 24.4065 7.94291 24.407C7.75492 24.4076 7.56701 24.4067 7.37903 24.4054C7.32326 24.4059 7.26749 24.4064 7.21003 24.4069C6.83326 24.402 6.83326 24.402 6.64512 24.2633C6.55575 24.1309 6.53061 24.0647 6.53308 23.9063C6.53217 23.8483 6.53217 23.8483 6.53125 23.7892C6.64463 23.3623 7.01642 23.4042 7.37903 23.4073Z" fill="#F79831"/>
<path d="M7.37903 14.9698C7.43812 14.9694 7.49722 14.9689 7.5581 14.9685C7.75355 14.9675 7.94896 14.9682 8.14441 14.969C8.28014 14.9688 8.41586 14.9686 8.55159 14.9683C8.8361 14.9679 9.12059 14.9684 9.40509 14.9695C9.77001 14.9709 10.1349 14.9701 10.4998 14.9687C10.7801 14.9679 11.0604 14.9681 11.3407 14.9687C11.4752 14.9689 11.6098 14.9687 11.7443 14.9681C11.9323 14.9676 12.1202 14.9685 12.3082 14.9698C12.3919 14.9691 12.3919 14.9691 12.4772 14.9683C12.854 14.9732 12.854 14.9732 13.0421 15.1119C13.1315 15.2443 13.1566 15.3105 13.1542 15.4688C13.1551 15.5269 13.1551 15.5269 13.156 15.586C13.1078 15.7674 13.0427 15.8254 12.8905 15.9376C12.6968 15.9734 12.5048 15.9696 12.3082 15.9679C12.2491 15.9683 12.19 15.9687 12.1292 15.9692C11.9337 15.9702 11.7383 15.9695 11.5428 15.9687C11.4071 15.9689 11.2714 15.9691 11.1357 15.9694C10.8512 15.9697 10.5667 15.9692 10.2822 15.9681C9.91724 15.9668 9.55236 15.9676 9.18744 15.969C8.90715 15.9698 8.62688 15.9696 8.3466 15.969C8.21203 15.9688 8.07747 15.969 7.94291 15.9695C7.75492 15.9701 7.56701 15.9692 7.37903 15.9679C7.32326 15.9684 7.26749 15.9689 7.21003 15.9694C6.83326 15.9645 6.83326 15.9645 6.64512 15.8258C6.55575 15.6934 6.53061 15.6272 6.53308 15.4688C6.53217 15.4108 6.53217 15.4108 6.53125 15.3517C6.64463 14.9248 7.01642 14.9667 7.37903 14.9698Z" fill="#F79831"/>
<path d="M7.37903 6.53227C7.43812 6.53186 7.49722 6.53145 7.5581 6.53102C7.75355 6.52999 7.94896 6.53067 8.14441 6.53147C8.28014 6.53131 8.41586 6.53108 8.55159 6.53079C8.8361 6.53044 9.12059 6.53094 9.40509 6.53204C9.77001 6.53337 10.1349 6.5326 10.4998 6.5312C10.7801 6.53035 11.0604 6.53062 11.3407 6.53123C11.4752 6.53139 11.6098 6.53119 11.7443 6.53065C11.9323 6.53006 12.1202 6.53096 12.3082 6.53227C12.3919 6.53156 12.3919 6.53156 12.4772 6.53083C12.854 6.53569 12.854 6.53569 13.0421 6.67435C13.1315 6.80679 13.1566 6.87303 13.1542 7.03134C13.1551 7.08935 13.1551 7.08935 13.156 7.14853C13.1078 7.32992 13.0427 7.38793 12.8905 7.50009C12.6968 7.53588 12.5048 7.53209 12.3082 7.53042C12.2491 7.53083 12.19 7.53124 12.1292 7.53167C11.9337 7.5327 11.7383 7.53201 11.5428 7.53122C11.4071 7.53138 11.2714 7.53161 11.1357 7.5319C10.8512 7.53225 10.5667 7.53174 10.2822 7.53065C9.91724 7.52931 9.55236 7.53008 9.18744 7.53149C8.90715 7.53233 8.62688 7.53206 8.3466 7.53146C8.21203 7.5313 8.07747 7.53149 7.94291 7.53204C7.75492 7.53263 7.56701 7.53173 7.37903 7.53042C7.32326 7.53089 7.26749 7.53137 7.21003 7.53186C6.83326 7.527 6.83326 7.527 6.64512 7.38834C6.55575 7.2559 6.53061 7.18966 6.53308 7.03134C6.53217 6.97334 6.53217 6.97334 6.53125 6.91416C6.64463 6.4873 7.01642 6.52918 7.37903 6.53227Z" fill="#F79831"/>
<path d="M14.793 23.4071C14.8429 23.4067 14.8929 23.4063 14.9443 23.4058C15.1094 23.4048 15.2743 23.4055 15.4393 23.4063C15.554 23.4061 15.6687 23.4059 15.7835 23.4056C16.0238 23.4053 16.2642 23.4058 16.5045 23.4068C16.8127 23.4082 17.1208 23.4074 17.429 23.406C17.6659 23.4052 17.9027 23.4054 18.1396 23.406C18.2532 23.4062 18.3668 23.406 18.4805 23.4055C18.6393 23.4049 18.798 23.4058 18.9568 23.4071C19.0038 23.4066 19.0508 23.4061 19.0992 23.4056C19.3102 23.4089 19.4292 23.4192 19.5993 23.5492C19.6947 23.682 19.7192 23.7444 19.7167 23.9062C19.7176 23.9642 19.7176 23.9642 19.7185 24.0233C19.6713 24.201 19.5992 24.2632 19.453 24.3749C19.2803 24.398 19.1295 24.407 18.9568 24.4052C18.8819 24.4058 18.8819 24.4058 18.8054 24.4065C18.6404 24.4075 18.4754 24.4068 18.3104 24.406C18.1957 24.4062 18.081 24.4064 17.9663 24.4067C17.7259 24.4071 17.4856 24.4066 17.2452 24.4055C16.937 24.4041 16.6289 24.4049 16.3207 24.4063C16.0839 24.4071 15.847 24.4069 15.6102 24.4063C15.4965 24.4061 15.3829 24.4063 15.2693 24.4068C15.1105 24.4074 14.9518 24.4065 14.793 24.4052C14.746 24.4057 14.699 24.4062 14.6505 24.4067C14.4396 24.4035 14.3206 24.3931 14.1505 24.2631C14.055 24.1303 14.0306 24.0679 14.0331 23.9062C14.0322 23.8481 14.0322 23.8481 14.0312 23.789C14.1339 23.4027 14.452 23.4036 14.793 23.4071Z" fill="#F79831"/>
<path d="M12.918 20.5946C12.9679 20.5942 13.0179 20.5938 13.0693 20.5933C13.2344 20.5923 13.3993 20.593 13.5643 20.5938C13.679 20.5936 13.7937 20.5934 13.9085 20.5931C14.1488 20.5928 14.3892 20.5933 14.6295 20.5943C14.9377 20.5957 15.2458 20.5949 15.554 20.5935C15.7909 20.5927 16.0277 20.5929 16.2646 20.5935C16.3782 20.5937 16.4918 20.5935 16.6055 20.593C16.7643 20.5924 16.923 20.5933 17.0818 20.5946C17.1288 20.5941 17.1758 20.5936 17.2242 20.5931C17.4352 20.5964 17.5542 20.6067 17.7243 20.7367C17.8197 20.8695 17.8442 20.9319 17.8417 21.0937C17.8426 21.1517 17.8426 21.1517 17.8435 21.2108C17.7963 21.3885 17.7242 21.4507 17.578 21.5624C17.4053 21.5855 17.2545 21.5945 17.0818 21.5927C17.0069 21.5933 17.0069 21.5933 16.9304 21.594C16.7654 21.595 16.6004 21.5943 16.4354 21.5935C16.3207 21.5937 16.206 21.5939 16.0913 21.5942C15.8509 21.5946 15.6106 21.5941 15.3702 21.593C15.062 21.5916 14.7539 21.5924 14.4457 21.5938C14.2089 21.5946 13.972 21.5944 13.7352 21.5938C13.6215 21.5936 13.5079 21.5938 13.3943 21.5943C13.2355 21.5949 13.0768 21.594 12.918 21.5927C12.871 21.5932 12.824 21.5937 12.7755 21.5942C12.5646 21.591 12.4456 21.5806 12.2755 21.4506C12.18 21.3178 12.1556 21.2554 12.1581 21.0937C12.1572 21.0356 12.1572 21.0356 12.1562 20.9765C12.2589 20.5902 12.577 20.5911 12.918 20.5946Z" fill="#F79831"/>
<path d="M18.543 12.1571C18.5929 12.1567 18.6429 12.1563 18.6943 12.1558C18.8594 12.1548 19.0243 12.1555 19.1893 12.1563C19.304 12.1561 19.4187 12.1559 19.5335 12.1556C19.7738 12.1553 20.0142 12.1558 20.2545 12.1568C20.5627 12.1582 20.8708 12.1574 21.179 12.156C21.4159 12.1552 21.6527 12.1554 21.8896 12.156C22.0032 12.1562 22.1168 12.156 22.2305 12.1555C22.3893 12.1549 22.548 12.1558 22.7068 12.1571C22.7538 12.1566 22.8008 12.1561 22.8492 12.1556C23.0602 12.1589 23.1792 12.1692 23.3493 12.2992C23.4447 12.432 23.4692 12.4944 23.4667 12.6562C23.4676 12.7142 23.4676 12.7142 23.4685 12.7733C23.4213 12.951 23.3492 13.0132 23.203 13.1249C23.0303 13.148 22.8795 13.157 22.7068 13.1552C22.6319 13.1558 22.6319 13.1558 22.5554 13.1565C22.3904 13.1575 22.2254 13.1568 22.0604 13.156C21.9457 13.1562 21.831 13.1564 21.7163 13.1567C21.4759 13.1571 21.2356 13.1566 20.9952 13.1555C20.687 13.1541 20.3789 13.1549 20.0707 13.1563C19.8339 13.1571 19.597 13.1569 19.3602 13.1563C19.2465 13.1561 19.1329 13.1563 19.0193 13.1568C18.8605 13.1574 18.7018 13.1565 18.543 13.1552C18.496 13.1557 18.449 13.1562 18.4005 13.1567C18.1896 13.1535 18.0706 13.1431 17.9005 13.0131C17.805 12.8803 17.7806 12.8179 17.7831 12.6562C17.7822 12.5981 17.7822 12.5981 17.7812 12.539C17.8839 12.1527 18.202 12.1536 18.543 12.1571Z" fill="#F79831"/>
<path d="M19.3944 20.5946C19.4352 20.5942 19.476 20.5938 19.5181 20.5933C19.6526 20.5923 19.7872 20.593 19.9218 20.5938C20.0154 20.5936 20.1091 20.5934 20.2028 20.5931C20.3991 20.5928 20.5953 20.5933 20.7915 20.5943C21.0429 20.5957 21.2943 20.5949 21.5457 20.5935C21.7392 20.5927 21.9326 20.5929 22.126 20.5935C22.2187 20.5937 22.3114 20.5935 22.4041 20.593C22.5337 20.5924 22.6632 20.5933 22.7928 20.5946C22.9034 20.5949 22.9034 20.5949 23.0162 20.5951C23.2355 20.6301 23.3045 20.685 23.4374 20.8593C23.4685 20.9765 23.4685 20.9765 23.4667 21.0937C23.4676 21.1517 23.4676 21.1517 23.4685 21.2108C23.4222 21.385 23.3436 21.4509 23.203 21.5624C23.0162 21.5922 23.0162 21.5922 22.7928 21.5927C22.752 21.5931 22.7112 21.5936 22.6692 21.594C22.5346 21.595 22.4001 21.5943 22.2655 21.5935C22.1718 21.5937 22.0781 21.5939 21.9844 21.5942C21.7882 21.5946 21.592 21.5941 21.3958 21.593C21.1443 21.5916 20.893 21.5924 20.6415 21.5938C20.4481 21.5946 20.2547 21.5944 20.0613 21.5938C19.9686 21.5936 19.8759 21.5938 19.7832 21.5943C19.6535 21.5949 19.524 21.594 19.3944 21.5927C19.3207 21.5925 19.247 21.5924 19.171 21.5922C18.9517 21.5572 18.8828 21.5023 18.7499 21.328C18.7188 21.2108 18.7188 21.2108 18.7206 21.0937C18.7197 21.0356 18.7197 21.0356 18.7188 20.9765C18.812 20.6255 19.0724 20.5954 19.3944 20.5946Z" fill="#F79831"/>
<path d="M7.20691 20.5946C7.24771 20.5942 7.28852 20.5938 7.33056 20.5933C7.46515 20.5923 7.59966 20.593 7.73425 20.5938C7.82794 20.5936 7.92163 20.5934 8.01532 20.5931C8.21156 20.5928 8.40777 20.5933 8.604 20.5943C8.85543 20.5957 9.1068 20.5949 9.35823 20.5935C9.55166 20.5927 9.74507 20.5929 9.9385 20.5935C10.0312 20.5937 10.1239 20.5935 10.2166 20.593C10.3462 20.5924 10.4757 20.5933 10.6053 20.5946C10.7159 20.5949 10.7159 20.5949 10.8287 20.5951C11.048 20.6301 11.117 20.685 11.2499 20.8593C11.281 20.9765 11.281 20.9765 11.2792 21.0937C11.2801 21.1517 11.2801 21.1517 11.281 21.2108C11.2347 21.385 11.1561 21.4509 11.0155 21.5624C10.8287 21.5922 10.8287 21.5922 10.6053 21.5927C10.5645 21.5931 10.5237 21.5936 10.4817 21.594C10.3471 21.595 10.2126 21.5943 10.078 21.5935C9.98431 21.5937 9.89062 21.5939 9.79694 21.5942C9.6007 21.5946 9.40449 21.5941 9.20825 21.593C8.95682 21.5916 8.70545 21.5924 8.45403 21.5938C8.2606 21.5946 8.06719 21.5944 7.87376 21.5938C7.78106 21.5936 7.68836 21.5938 7.59566 21.5943C7.46605 21.5949 7.33652 21.594 7.20691 21.5927C7.13319 21.5925 7.05947 21.5924 6.98352 21.5922C6.76422 21.5572 6.69529 21.5023 6.56238 21.328C6.53125 21.2108 6.53125 21.2108 6.53308 21.0937C6.53217 21.0356 6.53217 21.0356 6.53125 20.9765C6.62449 20.6255 6.88495 20.5954 7.20691 20.5946Z" fill="#F79831"/>
<path d="M20.2458 17.7823C20.3108 17.7815 20.3757 17.7808 20.4426 17.78C20.5124 17.7805 20.5822 17.781 20.6542 17.7815C20.7261 17.7812 20.7981 17.781 20.8722 17.7808C21.0243 17.7806 21.1764 17.7811 21.3285 17.782C21.5615 17.7833 21.7944 17.7821 22.0275 17.7806C22.1752 17.7807 22.3229 17.781 22.4706 17.7815C22.5404 17.781 22.6102 17.7805 22.6822 17.78C22.7796 17.7811 22.7796 17.7811 22.8789 17.7823C22.936 17.7825 22.993 17.7826 23.0518 17.7828C23.2453 17.8209 23.3153 17.8955 23.4374 18.047C23.4685 18.1642 23.4685 18.1642 23.4667 18.2813C23.4676 18.3394 23.4676 18.3394 23.4685 18.3985C23.4231 18.5696 23.3384 18.6384 23.203 18.7501C23.0518 18.7799 23.0518 18.7799 22.8789 18.7804C22.814 18.7812 22.7491 18.7819 22.6822 18.7827C22.6124 18.7822 22.5425 18.7817 22.4706 18.7812C22.3627 18.7816 22.3627 18.7816 22.2526 18.7819C22.1005 18.7821 21.9484 18.7816 21.7963 18.7807C21.5633 18.7794 21.3303 18.7806 21.0973 18.7821C20.9496 18.782 20.8019 18.7817 20.6542 18.7812C20.5843 18.7817 20.5145 18.7822 20.4426 18.7827C20.3452 18.7816 20.3452 18.7816 20.2458 18.7804C20.1888 18.7802 20.1317 18.78 20.0729 18.7799C19.8795 18.7418 19.8095 18.6672 19.6874 18.5157C19.6562 18.3985 19.6562 18.3985 19.6581 18.2813C19.6572 18.2233 19.6572 18.2233 19.6562 18.1642C19.7375 17.8585 19.9554 17.7832 20.2458 17.7823Z" fill="#F79831"/>
<path d="M7.12085 9.34477C7.18577 9.34403 7.25069 9.34329 7.31757 9.34253C7.3874 9.343 7.45723 9.34348 7.52917 9.34397C7.60112 9.34374 7.67306 9.34352 7.74718 9.34329C7.89928 9.34313 8.05137 9.34356 8.20346 9.34454C8.4365 9.34579 8.66943 9.34455 8.90247 9.34305C9.05017 9.34321 9.19788 9.34351 9.34558 9.34397C9.41541 9.34349 9.48524 9.34302 9.55718 9.34253C9.65456 9.34364 9.65456 9.34364 9.75391 9.34477C9.81097 9.34495 9.86803 9.34514 9.92683 9.34533C10.1203 9.38342 10.1903 9.45803 10.3124 9.60947C10.3435 9.72666 10.3435 9.72666 10.3417 9.84384C10.3426 9.90185 10.3426 9.90185 10.3435 9.96103C10.2981 10.1321 10.2134 10.2009 10.078 10.3126C9.92683 10.3424 9.92683 10.3424 9.75391 10.3429C9.68899 10.3437 9.62407 10.3444 9.55718 10.3452C9.48735 10.3447 9.41753 10.3442 9.34558 10.3437C9.23767 10.3441 9.23767 10.3441 9.12757 10.3444C8.97548 10.3446 8.82338 10.3441 8.6713 10.3432C8.43826 10.3419 8.20532 10.3431 7.97229 10.3446C7.82458 10.3445 7.67688 10.3442 7.52917 10.3437C7.45935 10.3442 7.38952 10.3447 7.31757 10.3452C7.2202 10.3441 7.2202 10.3441 7.12085 10.3429C7.06379 10.3427 7.00672 10.3425 6.94793 10.3424C6.75448 10.3043 6.6845 10.2297 6.56238 10.0782C6.53125 9.96103 6.53125 9.96103 6.53308 9.84384C6.53217 9.78584 6.53217 9.78584 6.53125 9.72666C6.61245 9.42095 6.83042 9.34572 7.12085 9.34477Z" fill="#F79831"/>
<path d="M21.3866 23.4065C21.4377 23.4062 21.4889 23.406 21.5415 23.4058C21.6495 23.4056 21.7575 23.4061 21.8654 23.407C22.0306 23.4083 22.1956 23.4071 22.3607 23.4056C22.4657 23.4057 22.5707 23.406 22.6757 23.4065C22.725 23.406 22.7743 23.4055 22.8251 23.405C23.1671 23.4105 23.1671 23.4105 23.3512 23.5494C23.4445 23.6821 23.4692 23.7459 23.4667 23.9063C23.4673 23.945 23.4679 23.9837 23.4685 24.0235C23.421 24.2025 23.3513 24.2632 23.203 24.3751C23.0274 24.4103 22.8543 24.4079 22.6757 24.4062C22.6245 24.4064 22.5734 24.4067 22.5207 24.4069C22.4127 24.4071 22.3048 24.4066 22.1968 24.4057C22.0317 24.4044 21.8667 24.4056 21.7015 24.4071C21.5966 24.407 21.4916 24.4067 21.3866 24.4062C21.3373 24.4067 21.288 24.4072 21.2371 24.4077C20.8952 24.4022 20.8952 24.4022 20.7111 24.2633C20.6178 24.1306 20.5931 24.0668 20.5956 23.9063C20.5947 23.8483 20.5947 23.8483 20.5938 23.7892C20.7016 23.3831 21.038 23.4031 21.3866 23.4065Z" fill="#F79831"/>
</svg>
