<svg width="30" height="30" viewBox="0 0 30 30" fill="none" xmlns="http://www.w3.org/2000/svg">
<g clip-path="url(#clip0_82_14266)">
<path d="M14.4142 17.285C14.4697 17.3249 14.5253 17.3648 14.5826 17.4059C14.7205 17.5316 14.8335 17.6603 14.9415 17.8124C14.9415 17.8511 14.9415 17.8897 14.9415 17.9296C14.9802 17.9296 15.0188 17.9296 15.0587 17.9296C15.0804 17.8806 15.0804 17.8806 15.1026 17.8307C15.4144 17.2539 15.9904 16.9892 16.5924 16.8003C17.5398 16.5565 18.5414 16.6654 19.4033 17.1248C19.6762 17.2908 19.9179 17.4833 20.1563 17.6952C20.1937 17.7277 20.231 17.7602 20.2694 17.7936C20.6406 18.1384 20.9938 18.5839 21.0353 19.1015C20.9413 19.3082 20.8746 19.3843 20.6837 19.5116C20.4381 19.5071 20.3165 19.4948 20.138 19.3212C20.0465 19.172 19.9845 19.0298 19.922 18.8671C19.8421 18.9181 19.8421 18.9181 19.7606 18.9701C18.2473 19.9174 18.2473 19.9174 17.461 19.8046C17.3145 19.713 17.3145 19.713 17.2267 19.5702C17.1873 19.3297 17.1953 19.2099 17.3255 19.0026C17.5369 18.8187 17.8119 18.771 18.076 18.6977C18.3472 18.6119 18.5895 18.4883 18.8403 18.3555C18.9845 18.2811 18.9845 18.2811 19.1603 18.2225C18.8215 17.8567 18.3335 17.717 17.8488 17.6801C17.2073 17.6603 16.6176 17.7284 16.1097 18.1493C15.5587 18.6943 15.5104 19.3594 15.5032 20.0994C15.502 20.1715 15.5009 20.2437 15.4997 20.3181C15.4963 20.5473 15.4935 20.7765 15.4908 21.0058C15.4886 21.1617 15.4863 21.3176 15.484 21.4736C15.4783 21.8547 15.4734 22.2359 15.4688 22.6171C16.222 22.4467 16.222 22.4467 16.9264 22.1373C16.9659 22.1165 17.0054 22.0957 17.0461 22.0743C17.1458 22.0216 17.2449 21.9679 17.3438 21.914C17.511 21.8304 17.6271 21.8372 17.8126 21.8554C17.9811 21.9433 17.9811 21.9433 18.1056 22.0897C18.1608 22.4063 18.1608 22.4063 18.1056 22.5585C17.4227 23.2121 16.3909 23.5162 15.4688 23.6132C15.5028 24.3822 15.5028 24.3822 15.879 25.0194C16.3448 25.3636 16.8725 25.4118 17.4349 25.347C17.8551 25.2702 18.1812 25.1339 18.5487 24.9208C18.7595 24.8069 18.9207 24.7523 19.1603 24.785C19.3491 24.8442 19.5293 24.9153 19.7119 24.9915C19.9345 25.0832 20.1587 25.163 20.3871 25.2392C20.4577 25.263 20.5283 25.2869 20.6011 25.3115C21.2711 25.511 21.9543 25.5002 22.5827 25.1824C23.0597 24.8957 23.3296 24.4799 23.4687 23.9451C23.6054 23.1683 23.4079 22.4451 22.9688 21.7968C22.9108 21.7581 22.8528 21.7194 22.7931 21.6796C22.367 22.1221 21.9901 22.5821 21.6338 23.0826C21.504 23.2616 21.504 23.2616 21.3868 23.3788C21.1312 23.4126 21.0156 23.4056 20.8009 23.2579C20.6837 23.0858 20.6837 23.0858 20.6935 22.8904C20.8494 22.2039 21.5424 21.5239 22.0313 21.035C21.9982 21.0104 21.965 20.9857 21.9309 20.9602C21.8879 20.9281 21.8449 20.896 21.8006 20.8629C21.7578 20.831 21.715 20.799 21.6709 20.7661C21.5626 20.6835 21.5626 20.6835 21.504 20.6249C21.4885 20.4199 21.4815 20.2651 21.5663 20.0756C21.7448 19.9258 21.8567 19.9181 22.0899 19.9218C23.0181 20.2424 23.7618 21.0646 24.1993 21.914C24.5768 22.8326 24.6223 23.8085 24.241 24.734C23.8815 25.502 23.3669 25.9703 22.5697 26.2719C21.5787 26.6167 20.4571 26.4274 19.5228 25.9972C19.428 25.9504 19.428 25.9504 19.3312 25.9027C19.083 25.8113 18.9507 25.8625 18.7142 25.964C18.6359 26.0022 18.6359 26.0022 18.556 26.0412C17.7498 26.4126 16.8155 26.4767 15.9653 26.2021C15.6833 26.0868 15.4561 25.9291 15.2242 25.7326C15.1056 25.6428 15.1056 25.6428 14.8829 25.664C14.7646 25.7457 14.7646 25.7457 14.6485 25.8544C14.0689 26.3215 13.3453 26.4031 12.6204 26.3522C12.1014 26.2892 11.6307 26.157 11.1695 25.9093C10.9259 25.7991 10.7625 25.8835 10.5179 25.9748C10.4622 25.997 10.4622 25.997 10.4054 26.0196C9.40375 26.4186 8.37237 26.605 7.32431 26.2499C6.56929 25.9225 6.05689 25.4278 5.72534 24.6713C5.39485 23.7975 5.41885 22.8629 5.76815 21.9977C5.98715 21.5272 6.25019 21.1616 6.62119 20.8007C6.66077 20.7599 6.70034 20.7191 6.74112 20.6771C7.22299 20.2097 8.04689 19.6874 8.73056 19.6874C8.74265 19.6149 8.75473 19.5424 8.76718 19.4677C8.97035 18.5641 9.62239 17.7581 10.3785 17.2448C11.584 16.5101 13.2457 16.4346 14.4142 17.285ZM10.8399 18.1054C11.2371 18.5876 11.8594 18.7746 12.4444 18.9282C12.5978 18.9843 12.5978 18.9843 12.7149 19.16C12.7462 19.5097 12.7462 19.5097 12.6563 19.6837C12.3932 19.8235 12.1491 19.7657 11.8731 19.6965C11.3924 19.5486 10.9774 19.3495 10.5483 19.088C10.3937 18.9974 10.2463 18.928 10.0782 18.8671C9.76045 19.4663 9.76045 19.4663 9.5392 20.1053C9.4716 20.263 9.39166 20.3411 9.25791 20.4491C9.11507 20.5057 8.97977 20.5529 8.8331 20.5956C8.5075 20.6966 8.20913 20.8118 7.91025 20.9765C7.95496 21.0272 7.99968 21.078 8.04575 21.1303C9.22605 22.5124 9.22605 22.5124 9.27187 22.9158C9.26157 23.0272 9.26157 23.0272 9.19931 23.203C8.97039 23.3556 8.88472 23.3736 8.61338 23.3202C8.43087 23.1442 8.29046 22.941 8.14463 22.7343C8.07805 22.6459 8.01094 22.558 7.94321 22.4706C7.91058 22.4284 7.87795 22.3862 7.84433 22.3427C7.64226 22.093 7.4246 21.8572 7.20713 21.621C6.74407 22.0159 6.4861 22.5872 6.43076 23.1856C6.40432 23.8169 6.55262 24.42 6.96977 24.9059C7.47376 25.382 8.02258 25.519 8.69806 25.5065C9.30908 25.4528 9.86733 25.2351 10.417 24.9766C10.7726 24.8364 11.0734 24.8123 11.4259 24.9608C11.5385 25.0188 11.6508 25.0775 11.7628 25.1366C12.3369 25.4283 12.9008 25.4927 13.5353 25.371C13.9917 25.2121 14.2442 25.0118 14.4581 24.5763C14.5692 24.2634 14.5461 23.9406 14.5313 23.6132C14.4745 23.6003 14.4177 23.5875 14.3592 23.5743C12.5456 23.1509 12.5456 23.1509 11.9532 22.5585C11.9133 22.1389 11.9133 22.1389 12.0484 21.9725C12.2293 21.8964 12.3427 21.8964 12.5392 21.914C12.6932 21.9823 12.8355 22.0526 12.9823 22.1337C13.4714 22.3911 13.9677 22.6261 14.5313 22.6171C14.5373 22.1637 14.5414 21.7104 14.5442 21.257C14.5454 21.1031 14.547 20.9491 14.549 20.7952C14.5519 20.5728 14.5532 20.3504 14.5542 20.128C14.5554 20.0601 14.5567 19.9923 14.5579 19.9224C14.5581 19.2162 14.412 18.6158 13.9081 18.107C13.7174 17.9434 13.5377 17.8359 13.3009 17.7538C13.1975 17.7175 13.1975 17.7175 13.0921 17.6806C12.2849 17.5061 11.528 17.6675 10.8399 18.1054Z" fill="#F79831"/>
<path d="M19.0085 3.5659C19.0844 3.56557 19.1603 3.56524 19.2385 3.56489C19.3222 3.56482 19.4059 3.56475 19.4896 3.56469C19.578 3.56442 19.6665 3.56413 19.755 3.56381C19.9951 3.56304 20.2352 3.56266 20.4752 3.5624C20.6255 3.56223 20.7757 3.56199 20.9259 3.56173C21.3964 3.56093 21.867 3.56036 22.3376 3.56014C22.8796 3.55987 23.4216 3.55885 23.9637 3.55715C24.3834 3.55588 24.8031 3.55529 25.2228 3.55521C25.4731 3.55515 25.7234 3.55481 25.9737 3.55376C26.2095 3.55279 26.4452 3.55267 26.681 3.55318C26.7671 3.55322 26.8532 3.55297 26.9393 3.55239C27.8752 3.54643 28.5893 3.72273 29.2777 4.36996C29.8109 4.92378 30.0368 5.5715 30.0304 6.33273C30.0308 6.39408 30.0312 6.45544 30.0316 6.51865C30.0326 6.71941 30.0319 6.92012 30.0312 7.12089C30.0313 7.26161 30.0315 7.40234 30.0318 7.54307C30.0322 7.83719 30.0317 8.1313 30.0306 8.42543C30.0292 8.80114 30.03 9.17681 30.0314 9.55251C30.0323 9.84286 30.032 10.1332 30.0314 10.4236C30.0312 10.562 30.0314 10.7005 30.032 10.839C30.0326 11.033 30.0317 11.227 30.0304 11.421C30.0308 11.4774 30.0313 11.5338 30.0318 11.5919C30.0226 12.3396 29.6979 12.9439 29.2017 13.4875C28.5595 14.1038 27.7929 14.1978 26.9458 14.191C26.8664 14.1908 26.7869 14.1907 26.7074 14.1905C26.4998 14.1901 26.2921 14.189 26.0844 14.1876C25.8719 14.1864 25.6594 14.1859 25.4469 14.1853C25.031 14.1841 24.6151 14.1821 24.1992 14.1796C24.1872 14.2752 24.1872 14.2752 24.175 14.3728C24.0782 14.9842 23.649 15.5664 23.1656 15.9397C22.9295 16.1016 22.7395 16.2187 22.4561 16.2707C22.2087 16.2183 22.0629 16.1424 21.8555 15.996C21.7493 15.8281 21.7225 15.6938 21.7161 15.4968C21.7141 15.4466 21.7121 15.3963 21.71 15.3445C21.7085 15.2924 21.7069 15.2403 21.7053 15.1867C21.7018 15.0838 21.6981 14.9808 21.6941 14.8779C21.6927 14.8325 21.6913 14.787 21.6899 14.7402C21.6771 14.5516 21.6495 14.3664 21.6211 14.1796C21.5846 14.1801 21.5482 14.1806 21.5106 14.1812C21.1275 14.1864 20.7443 14.1899 20.3612 14.1925C20.2186 14.1936 20.076 14.1952 19.9335 14.1973C18.0577 14.2234 18.0577 14.2234 17.2852 13.5937C17.2449 13.5613 17.2047 13.529 17.1632 13.4957C16.7476 13.1238 16.3749 12.5098 16.3398 11.9434C16.3396 11.8974 16.3393 11.8514 16.3391 11.8039C16.3386 11.7508 16.3382 11.6977 16.3378 11.6429C16.3376 11.5851 16.3375 11.5272 16.3373 11.4676C16.3369 11.4063 16.3365 11.345 16.3361 11.2818C16.335 11.0789 16.3343 10.8759 16.3337 10.6729C16.3335 10.6035 16.3332 10.534 16.333 10.4625C16.3318 10.0947 16.3309 9.72699 16.3304 9.35925C16.3297 8.98032 16.3277 8.6014 16.3254 8.22248C16.3239 7.93037 16.3234 7.63826 16.3232 7.34615C16.3229 7.20653 16.3222 7.0669 16.3211 6.92729C16.3197 6.73125 16.3197 6.53528 16.3201 6.33924C16.3194 6.28221 16.3186 6.22517 16.3179 6.16641C16.3234 5.43256 16.6324 4.81931 17.1314 4.29191C17.6549 3.79595 18.2915 3.5678 19.0085 3.5659ZM17.5468 5.2642C17.1105 5.88489 17.2093 6.72846 17.211 7.45048C17.2109 7.56493 17.2108 7.67938 17.2107 7.79384C17.2105 8.03279 17.2108 8.27173 17.2113 8.51069C17.212 8.81545 17.2116 9.12019 17.2109 9.42495C17.2105 9.66102 17.2106 9.89708 17.2109 10.1331C17.211 10.2455 17.2109 10.3578 17.2106 10.4701C17.1821 11.6917 17.1821 11.6917 17.7567 12.7244C18.2719 13.2129 18.7228 13.2676 19.4117 13.2659C19.5228 13.2669 19.5228 13.2669 19.6362 13.2678C19.9118 13.2702 20.1875 13.271 20.4631 13.2717C20.734 13.2725 21.0049 13.2746 21.2757 13.2769C21.3471 13.2767 21.4184 13.2765 21.492 13.2764C21.5917 13.2772 21.5917 13.2772 21.6935 13.2782C21.7518 13.2783 21.8101 13.2784 21.8702 13.2785C22.0611 13.3048 22.1701 13.362 22.3242 13.4765C22.5003 13.7927 22.5494 14.1135 22.5989 14.4689C22.6065 14.5202 22.6141 14.5714 22.6219 14.6242C22.6404 14.7494 22.6582 14.8746 22.6758 14.9999C22.7145 14.9999 22.7532 14.9999 22.793 14.9999C23.1255 14.5971 23.2831 14.1577 23.4178 13.6632C23.512 13.4386 23.572 13.4024 23.7891 13.3007C23.9698 13.2789 23.9698 13.2789 24.1744 13.2791C24.2897 13.2785 24.2897 13.2785 24.4073 13.2779C24.4685 13.2781 24.4685 13.2781 24.531 13.2784C24.6596 13.279 24.7883 13.2784 24.9169 13.2774C25.2826 13.2751 25.6482 13.275 26.0139 13.2752C26.238 13.2752 26.4621 13.274 26.6862 13.2723C26.8122 13.2716 26.9381 13.2723 27.0641 13.2731C27.6991 13.2713 28.1399 13.1476 28.6061 12.7093C29.2318 12.0426 29.1388 11.1586 29.1367 10.3033C29.1368 10.1888 29.1369 10.0744 29.137 9.9599C29.1372 9.72095 29.1369 9.482 29.1364 9.24305C29.1357 8.93829 29.1361 8.63354 29.1368 8.32878C29.1372 8.09272 29.1371 7.85666 29.1368 7.62059C29.1367 7.50828 29.1368 7.39597 29.1371 7.28366C29.156 6.04399 29.156 6.04399 28.5588 4.99503C28.0465 4.51066 27.4502 4.47716 26.7761 4.48131C26.6887 4.48099 26.6012 4.48057 26.5137 4.48006C26.2778 4.479 26.0419 4.47941 25.8059 4.48015C25.558 4.48075 25.3102 4.48019 25.0623 4.47983C24.6462 4.4794 24.2302 4.47996 23.8141 4.48108C23.3342 4.48235 22.8543 4.48194 22.3744 4.48065C21.9611 4.47958 21.5479 4.47944 21.1346 4.48005C20.8883 4.48041 20.642 4.48047 20.3957 4.47969C20.1641 4.47901 19.9325 4.47949 19.7009 4.48084C19.6163 4.48114 19.5317 4.48106 19.4471 4.48054C18.6458 4.47607 18.0693 4.63669 17.5468 5.2642Z" fill="#F79831"/>
<path d="M2.74134 3.56024C2.78459 3.55976 2.82784 3.55929 2.8724 3.5588C2.96345 3.558 3.05451 3.55737 3.14556 3.5569C3.23859 3.55623 3.33161 3.55502 3.42463 3.5533C3.55943 3.5508 3.69417 3.54985 3.82899 3.54925C3.89116 3.54771 3.89116 3.54771 3.95459 3.54614C4.15492 3.54702 4.25883 3.55986 4.41938 3.68402C4.52828 3.83088 4.56143 3.919 4.57034 4.10154C4.508 4.32494 4.47511 4.37987 4.27737 4.5117C4.08921 4.52666 4.08921 4.52666 3.85783 4.52772C3.77295 4.52891 3.68808 4.53013 3.6032 4.53138C3.47028 4.5327 3.33737 4.53367 3.20444 4.53402C2.49595 4.53712 1.92167 4.59807 1.38797 5.10702C0.811418 5.73562 0.920016 6.65469 0.921963 7.45054C0.921884 7.565 0.92177 7.67945 0.921623 7.7939C0.921451 8.03285 0.921699 8.2718 0.922249 8.51075C0.922916 8.81551 0.922532 9.12026 0.92183 9.42502C0.921405 9.66109 0.921542 9.89715 0.921845 10.1332C0.921923 10.2455 0.921829 10.3578 0.921555 10.4701C0.891439 11.6824 0.891439 11.6824 1.45457 12.7114C1.93916 13.1674 2.40989 13.2088 3.05104 13.2058C3.17967 13.2053 3.30825 13.2059 3.43688 13.2068C3.80222 13.2092 4.16756 13.2092 4.53292 13.2091C4.75724 13.2091 4.98153 13.2102 5.20585 13.212C5.33212 13.2126 5.45834 13.2119 5.58461 13.2112C5.66167 13.2118 5.73872 13.2124 5.81812 13.213C5.88566 13.213 5.95321 13.213 6.0228 13.2129C6.2548 13.249 6.38159 13.3291 6.56253 13.4765C6.64859 13.6732 6.64859 13.6732 6.70901 13.8977C6.80697 14.2363 6.92546 14.5026 7.14045 14.7869C7.20706 14.8828 7.20706 14.8828 7.20706 15C7.24573 15 7.2844 15 7.32424 15C7.31941 14.9323 7.31458 14.8646 7.3096 14.7949C7.3096 14.5148 7.36199 14.2566 7.42678 13.9856C7.43598 13.9449 7.44518 13.9043 7.45465 13.8624C7.51775 13.6129 7.58807 13.4591 7.79299 13.3008C7.97493 13.2401 8.10156 13.2345 8.29233 13.2339C8.35865 13.2334 8.42498 13.233 8.49331 13.2326C8.56509 13.2324 8.63686 13.2321 8.71081 13.2319C8.86271 13.2305 9.01461 13.2291 9.16651 13.2276C9.40605 13.2255 9.64557 13.2238 9.88512 13.2231C10.1163 13.2224 10.3474 13.2198 10.5785 13.2172C10.6496 13.2173 10.7206 13.2174 10.7938 13.2176C11.3874 13.2091 11.8211 13.0667 12.2583 12.6592C12.6922 12.1629 12.7237 11.5912 12.7234 10.9627C12.7236 10.9128 12.7238 10.8629 12.724 10.8115C12.7245 10.6478 12.7246 10.4842 12.7247 10.3205C12.7249 10.2058 12.7251 10.0911 12.7253 9.97638C12.7257 9.73638 12.7258 9.49638 12.7257 9.25638C12.7257 8.95023 12.7265 8.6441 12.7275 8.33795C12.7282 8.10114 12.7283 7.86432 12.7283 7.6275C12.7283 7.5147 12.7286 7.4019 12.7291 7.2891C12.7449 5.99908 12.7449 5.99908 12.085 4.93284C11.5024 4.54068 10.9587 4.5371 10.2772 4.54003C10.1033 4.54078 9.92947 4.54011 9.75558 4.53909C9.44954 4.53754 9.14352 4.5372 8.83748 4.53728C8.34647 4.53742 7.85547 4.53659 7.36447 4.53403C7.19321 4.53345 7.02198 4.53396 6.85073 4.53454C6.74601 4.53418 6.64129 4.53377 6.53658 4.53331C6.48903 4.53377 6.44148 4.53422 6.39249 4.53469C6.20185 4.53296 6.06017 4.52494 5.89009 4.43482C5.74634 4.27558 5.74583 4.13552 5.74221 3.92576C5.82106 3.75305 5.86441 3.65958 6.03518 3.5742C6.19983 3.56781 6.36304 3.56498 6.52772 3.56476C6.6042 3.56432 6.6042 3.56432 6.68223 3.56388C6.8516 3.56302 7.02097 3.56262 7.19035 3.5623C7.30818 3.56196 7.42602 3.56162 7.54385 3.56129C7.79147 3.56067 8.03909 3.56033 8.28671 3.56012C8.60272 3.5598 8.91871 3.5584 9.23472 3.55673C9.47847 3.55563 9.72223 3.55533 9.96598 3.55524C10.0824 3.55506 10.1988 3.5546 10.3152 3.55382C11.4883 3.54659 11.4883 3.54659 12.0117 3.74998C12.0541 3.76636 12.0964 3.78274 12.1401 3.79962C12.7419 4.04967 13.2198 4.59955 13.4832 5.18367C13.6355 5.57651 13.6862 5.91335 13.6827 6.3328C13.6831 6.39415 13.6835 6.4555 13.6839 6.51871C13.685 6.71948 13.6843 6.92019 13.6835 7.12095C13.6837 7.26168 13.6839 7.40241 13.6842 7.54313C13.6845 7.83726 13.684 8.13137 13.6829 8.42549C13.6816 8.8012 13.6824 9.17687 13.6838 9.55258C13.6846 9.84293 13.6843 10.1333 13.6837 10.4236C13.6836 10.5621 13.6838 10.7006 13.6843 10.8391C13.6849 11.0331 13.684 11.227 13.6827 11.4211C13.6832 11.4775 13.6836 11.5339 13.6841 11.592C13.6749 12.3397 13.3503 12.944 12.854 13.4875C12.2503 14.0669 11.5157 14.1987 10.7135 14.1911C10.6466 14.1909 10.5796 14.1908 10.5106 14.1906C10.2981 14.19 10.0856 14.1885 9.87307 14.187C9.72842 14.1864 9.58377 14.1859 9.43911 14.1854C9.08571 14.1841 8.73232 14.1821 8.37893 14.1797C8.34344 14.4126 8.31336 14.6403 8.30798 14.8759C8.30632 14.9262 8.30466 14.9764 8.30294 15.0281C8.29988 15.1319 8.29729 15.2356 8.29516 15.3394C8.28491 15.6227 8.27261 15.8265 8.08596 16.0547C7.82771 16.2249 7.63007 16.2806 7.32424 16.2305C6.52373 15.8402 6.13252 15.2101 5.80081 14.414C5.80081 14.3367 5.80081 14.2594 5.80081 14.1797C5.75772 14.1802 5.71463 14.1807 5.67024 14.1812C5.2609 14.186 4.85157 14.1895 4.44221 14.1918C4.23184 14.193 4.02149 14.1947 3.81112 14.1973C3.60748 14.1999 3.40387 14.2013 3.20021 14.2019C3.08608 14.2025 2.97195 14.2044 2.85784 14.2062C2.13989 14.2064 1.50084 14.053 0.937527 13.5937C0.897269 13.5614 0.857011 13.5291 0.815533 13.4958C0.399933 13.1239 0.0272925 12.5098 -0.00783776 11.9435C-0.00808816 11.8975 -0.00833861 11.8514 -0.0085966 11.804C-0.00901586 11.7509 -0.00943511 11.6977 -0.00986707 11.643C-0.0100246 11.5851 -0.0101822 11.5273 -0.0103445 11.4676C-0.0107295 11.4063 -0.0111146 11.345 -0.0115113 11.2819C-0.0126667 11.0789 -0.0133508 10.8759 -0.0139351 10.673C-0.0141739 10.6035 -0.0144126 10.5341 -0.0146586 10.4625C-0.0158807 10.0948 -0.0167188 9.72706 -0.0172682 9.35932C-0.0179155 8.98038 -0.0199301 8.60147 -0.0222587 8.22254C-0.0237944 7.93043 -0.0242815 7.63833 -0.0244916 7.34622C-0.0247762 7.20659 -0.0254553 7.06697 -0.0265448 6.92735C-0.0279792 6.73132 -0.0279164 6.53534 -0.0275106 6.33931C-0.0282612 6.28227 -0.0290118 6.22524 -0.0297852 6.16647C-0.0242851 5.43263 0.284732 4.81937 0.783718 4.29197C1.33546 3.76927 1.99137 3.56809 2.74134 3.56024Z" fill="#F79831"/>
<path d="M25.957 7.08985C26.1072 7.2107 26.1072 7.2107 26.1914 7.38282C26.1974 7.67073 26.1298 7.81913 25.9364 8.02162C25.8538 8.10135 25.7703 8.18014 25.686 8.25806C25.6033 8.33657 25.5208 8.41523 25.4384 8.49404C25.397 8.53353 25.3556 8.57301 25.313 8.6137C25.2059 8.71995 25.1069 8.82868 25.009 8.94333C24.7211 9.2787 24.4111 9.59282 24.1008 9.90728C24.0293 9.98005 23.9582 10.0532 23.8875 10.1267C23.7841 10.234 23.6796 10.34 23.5748 10.4459C23.5436 10.4788 23.5124 10.5116 23.4803 10.5454C23.2647 10.7599 23.1087 10.835 22.793 10.8398C22.4749 10.6839 22.2549 10.4213 22.0203 10.1624C21.9431 10.0784 21.8658 9.99458 21.7884 9.91082C21.7504 9.8697 21.7125 9.82858 21.6734 9.78622C21.4664 9.56547 21.2503 9.35428 21.0338 9.14292C20.8939 8.99857 20.8633 8.94147 20.8411 8.74146C20.8642 8.50508 20.9151 8.4175 21.0938 8.26172C21.2842 8.21778 21.2842 8.21778 21.5039 8.26172C21.8594 8.51752 22.1637 8.85559 22.4707 9.16626C22.5133 9.20913 22.5559 9.25199 22.5998 9.29615C22.7034 9.40043 22.8068 9.50484 22.9102 9.60938C23.186 9.37889 23.4481 9.13951 23.7012 8.88428C23.7347 8.85066 23.7682 8.81704 23.8027 8.7824C23.9676 8.6158 24.1283 8.44806 24.2798 8.26905C24.4929 8.02279 24.7201 7.79277 24.95 7.56226C24.9893 7.52265 25.0286 7.48305 25.0692 7.44224C25.1063 7.40518 25.1435 7.36812 25.1818 7.32994C25.2154 7.29641 25.249 7.26288 25.2836 7.22833C25.478 7.0508 25.7064 7.04684 25.957 7.08985Z" fill="#F79831"/>
<path d="M3.84769 8.4737C3.9024 8.4732 3.95711 8.47271 4.01347 8.4722C4.07308 8.47255 4.13268 8.47291 4.1941 8.47328C4.25719 8.47297 4.32028 8.47266 4.38529 8.47234C4.59405 8.47157 4.80279 8.47208 5.01155 8.47268C5.15647 8.47256 5.30139 8.47239 5.44632 8.47217C5.75013 8.47191 6.05393 8.47228 6.35775 8.4731C6.74749 8.47411 7.13721 8.47353 7.52696 8.47248C7.82624 8.47184 8.12552 8.47204 8.4248 8.4725C8.56852 8.47262 8.71224 8.47247 8.85596 8.47206C9.0567 8.47162 9.25741 8.4723 9.45815 8.47328C9.51776 8.47292 9.57736 8.47256 9.63877 8.4722C9.72084 8.47294 9.72084 8.47294 9.80456 8.4737C9.852 8.47377 9.89944 8.47383 9.94832 8.4739C10.1127 8.50193 10.1923 8.55736 10.3125 8.6718C10.371 8.86956 10.371 8.86956 10.371 9.08196C10.2488 9.28278 10.185 9.3588 9.96089 9.43352C9.8753 9.43907 9.78948 9.44142 9.70371 9.44175C9.62485 9.44225 9.62485 9.44225 9.5444 9.44276C9.4581 9.44286 9.4581 9.44286 9.37006 9.44296C9.30935 9.44325 9.24865 9.44354 9.1861 9.44384C8.98492 9.4447 8.78374 9.4451 8.58256 9.44542C8.44295 9.44576 8.30334 9.4461 8.16373 9.44644C7.87085 9.44705 7.57797 9.44739 7.28509 9.4476C6.9096 9.44792 6.53413 9.44933 6.15865 9.45099C5.87022 9.45209 5.5818 9.45239 5.29337 9.45248C5.15493 9.45266 5.01649 9.45313 4.87805 9.4539C4.68448 9.4549 4.49093 9.45479 4.29735 9.45441C4.21141 9.45522 4.21141 9.45522 4.12373 9.45604C3.83574 9.45427 3.62862 9.45151 3.39839 9.25774C3.2812 9.08196 3.2812 9.08196 3.28853 8.87688C3.33979 8.6718 3.33979 8.6718 3.44309 8.57249C3.59263 8.48525 3.67582 8.47394 3.84769 8.4737Z" fill="#F79831"/>
<path d="M4.08652 10.3475C4.13819 10.3471 4.18985 10.3467 4.24308 10.3463C4.4138 10.3452 4.58448 10.3455 4.7552 10.3458C4.87385 10.3455 4.9925 10.3452 5.11115 10.3449C5.35979 10.3443 5.60842 10.3445 5.85707 10.3451C6.17588 10.3457 6.49465 10.3446 6.81346 10.3428C7.05846 10.3418 7.30345 10.3418 7.54845 10.3421C7.666 10.3421 7.78356 10.3418 7.90111 10.341C8.06538 10.3402 8.22958 10.3408 8.39385 10.3418C8.4425 10.3412 8.49114 10.3407 8.54127 10.3401C8.75203 10.3428 8.88023 10.3525 9.05358 10.4774C9.18144 10.6658 9.17232 10.7935 9.14058 11.0157C9.03118 11.1543 8.94601 11.2302 8.78901 11.3087C8.62967 11.3151 8.4718 11.3179 8.31241 11.3181C8.23851 11.3186 8.23851 11.3186 8.16312 11.319C7.99966 11.3199 7.83621 11.3203 7.67276 11.3206C7.55934 11.3209 7.44591 11.3213 7.33249 11.3216C7.09443 11.3222 6.85637 11.3226 6.61831 11.3228C6.3133 11.3231 6.00831 11.3245 5.7033 11.3262C5.46891 11.3273 5.23452 11.3276 5.00013 11.3277C4.88769 11.3278 4.77525 11.3283 4.66282 11.3291C4.50543 11.3301 4.34809 11.33 4.19071 11.3296C4.14428 11.3301 4.09785 11.3307 4.05001 11.3312C3.78311 11.3292 3.60918 11.3007 3.39839 11.1329C3.2812 10.9571 3.2812 10.9571 3.28853 10.7521C3.33979 10.547 3.33979 10.547 3.42816 10.4478C3.64217 10.3356 3.85055 10.3462 4.08652 10.3475Z" fill="#F79831"/>
<path d="M3.95743 6.59648C4.01435 6.59574 4.01435 6.59574 4.07243 6.59498C4.19749 6.59361 4.32251 6.59355 4.44758 6.59362C4.5347 6.5932 4.62182 6.59275 4.70894 6.59227C4.89138 6.59148 5.07381 6.59139 5.25625 6.59173C5.48995 6.59208 5.72358 6.59028 5.95727 6.58792C6.13713 6.5864 6.31697 6.58623 6.49683 6.58645C6.58299 6.58635 6.66914 6.58578 6.7553 6.58474C6.87581 6.58344 6.99618 6.584 7.11669 6.58504C7.1852 6.58492 7.25372 6.5848 7.32431 6.58467C7.49995 6.62109 7.49995 6.62109 7.63926 6.75861C7.7555 6.94868 7.77162 7.04654 7.73433 7.26562C7.62493 7.40054 7.53766 7.48114 7.38276 7.55859C7.26705 7.56484 7.15113 7.56731 7.03525 7.56803C6.9623 7.56859 6.88935 7.56915 6.81419 7.56973C6.73417 7.57002 6.65415 7.57027 6.57412 7.57049C6.49223 7.57083 6.41034 7.57116 6.32845 7.5715C6.15659 7.57212 5.98473 7.57246 5.81288 7.57266C5.59299 7.57298 5.37313 7.57439 5.15325 7.57606C4.984 7.57715 4.81475 7.57746 4.6455 7.57755C4.56446 7.57772 4.48342 7.57819 4.40238 7.57896C4.2888 7.57997 4.17521 7.57974 4.06162 7.57947C3.96476 7.57979 3.96476 7.57979 3.86594 7.58012C3.66641 7.55551 3.55867 7.50249 3.39839 7.3828C3.2812 7.20702 3.2812 7.20702 3.28853 7.00195C3.33979 6.79687 3.33979 6.79687 3.43623 6.6977C3.61797 6.59676 3.74983 6.59798 3.95743 6.59648Z" fill="#F79831"/>
</g>
<defs>
<clipPath id="clip0_82_14266">
<rect width="30" height="30" fill="white"/>
</clipPath>
</defs>
</svg>
