<svg width="19" height="20" viewBox="0 0 19 20" fill="none" xmlns="http://www.w3.org/2000/svg">
<path d="M8.18901 -0.0062978C8.23593 -0.00649174 8.28285 -0.00668568 8.3312 -0.0068855C8.45922 -0.00735623 8.58725 -0.00764927 8.71528 -0.00782342C8.79564 -0.00793855 8.876 -0.00809902 8.95636 -0.0082728C9.20885 -0.00880626 9.46134 -0.00918413 9.71384 -0.00933537C10.0033 -0.00950979 10.2927 -0.0101927 10.5822 -0.0113276C10.8072 -0.0121785 11.0322 -0.0125664 11.2572 -0.0126182C11.3909 -0.0126587 11.5247 -0.01288 11.6585 -0.0135877C12.2303 -0.0161632 12.7781 -0.0063375 13.3379 0.117184C13.3749 0.125131 13.412 0.133078 13.4502 0.141266C13.5309 0.159299 13.61 0.179871 13.6894 0.202633C13.7179 0.210728 13.7464 0.218822 13.7758 0.227162C14.881 0.556858 15.9718 1.24834 16.6973 2.14843C16.7273 2.18529 16.7574 2.22215 16.7883 2.26013C17.5773 3.24502 18.145 4.52129 18.1481 5.79869C18.1482 5.83998 18.1482 5.83998 18.1484 5.88211C18.1487 5.97342 18.1488 6.06474 18.1489 6.15606C18.149 6.22193 18.1492 6.2878 18.1494 6.35367C18.15 6.53205 18.1502 6.71044 18.1504 6.88883C18.1505 7.00059 18.1507 7.11236 18.1508 7.22413C18.1514 7.57473 18.1517 7.92534 18.1519 8.27594C18.1521 8.67893 18.1528 9.08192 18.1539 9.48491C18.1547 9.79749 18.1551 10.1101 18.1552 10.4227C18.1552 10.6088 18.1554 10.795 18.1561 10.9811C18.1568 11.1567 18.1569 11.3322 18.1565 11.5077C18.1565 11.5715 18.1567 11.6353 18.1571 11.6992C18.1603 12.2626 18.0956 12.8159 17.9399 13.3594C17.9318 13.3879 17.9237 13.4164 17.9154 13.4457C17.6519 14.3292 17.1676 15.1377 16.5427 15.8104C16.5163 15.8394 16.49 15.8685 16.4629 15.8984C16.4358 15.9254 16.4088 15.9524 16.3809 15.9803C16.2795 16.1352 16.2853 16.2536 16.2878 16.4349C16.2876 16.4858 16.2876 16.4858 16.2873 16.5378C16.2871 16.6113 16.2872 16.6848 16.2876 16.7583C16.2883 16.8747 16.288 16.9911 16.2875 17.1076C16.2863 17.3967 16.2868 17.6858 16.2873 17.975C16.2876 18.2194 16.2873 18.4638 16.2862 18.7082C16.2859 18.8227 16.2865 18.9373 16.2872 19.0518C16.287 19.1223 16.2867 19.1927 16.2864 19.2631C16.2869 19.2949 16.2873 19.3266 16.2877 19.3593C16.2855 19.5651 16.2459 19.6795 16.1113 19.8437C15.9621 19.9855 15.8425 20.0121 15.6426 20.0195C15.4427 20.0121 15.323 19.9855 15.1738 19.8437C14.999 19.6367 14.9951 19.4724 14.9973 19.2136C14.9969 19.1546 14.9969 19.1546 14.9965 19.0945C14.9958 18.965 14.9963 18.8356 14.9968 18.7061C14.9967 18.6159 14.9966 18.5257 14.9964 18.4355C14.9961 18.2466 14.9965 18.0578 14.9972 17.8689C14.9981 17.6269 14.9976 17.385 14.9966 17.143C14.9961 16.9568 14.9963 16.7707 14.9967 16.5845C14.9968 16.4953 14.9966 16.4061 14.9963 16.3168C14.9959 16.1921 14.9965 16.0674 14.9973 15.9427C14.997 15.9059 14.9967 15.8691 14.9964 15.8312C14.9998 15.566 15.057 15.4414 15.2356 15.2444C15.2552 15.2262 15.2748 15.208 15.295 15.1892C15.3171 15.1681 15.3393 15.147 15.3622 15.1253C15.3854 15.1033 15.4087 15.0813 15.4326 15.0586C16.4066 14.107 16.832 12.8208 16.8557 11.4772C16.8592 11.1416 16.859 10.8059 16.8587 10.4702C16.8586 10.3228 16.8587 10.1753 16.8588 10.0279C16.8589 9.78047 16.8588 9.53304 16.8586 9.28562C16.8584 9.00124 16.8585 8.71687 16.8587 8.4325C16.8588 8.18652 16.8589 7.94055 16.8588 7.69458C16.8587 7.54846 16.8587 7.40235 16.8588 7.25623C16.8789 6.23058 16.8789 6.23058 16.7485 5.21728C16.7383 5.17115 16.7383 5.17115 16.728 5.12409C16.5165 4.20895 16.0921 3.45612 15.4473 2.77343C15.4205 2.74413 15.3937 2.71482 15.3661 2.68463C14.4809 1.75023 13.2276 1.34265 11.9707 1.28906C11.6993 1.28196 11.4277 1.2826 11.1562 1.2825C11.0784 1.28237 11.0006 1.28224 10.9229 1.2821C10.7606 1.28187 10.5984 1.2818 10.4361 1.28182C10.2306 1.28182 10.0251 1.28129 9.81966 1.28062C9.65918 1.28018 9.49871 1.2801 9.33823 1.28013C9.26259 1.28008 9.18695 1.27991 9.11131 1.2796C7.49592 1.27366 6.0746 1.60638 4.89305 2.76367C4.21826 3.44513 3.80468 4.28553 3.59911 5.21728C3.59288 5.24486 3.58665 5.27244 3.58022 5.30086C3.49477 5.72133 3.49118 6.14955 3.49762 6.57679C3.50036 6.76007 3.50137 6.94335 3.50239 7.12664C3.50339 7.22045 3.50522 7.31424 3.50792 7.40801C3.52698 8.11434 3.40559 8.57784 3.00948 9.16494C2.92759 9.28716 2.85479 9.41298 2.78154 9.54055C2.73432 9.61969 2.68702 9.69879 2.63964 9.77783C2.40351 10.174 2.17103 10.5721 1.94155 10.9721C1.83383 11.1598 1.72565 11.347 1.61424 11.5324C1.59591 11.563 1.57757 11.5937 1.55868 11.6252C1.52543 11.6805 1.49194 11.7357 1.45817 11.7906C1.37807 11.9239 1.33257 12.0349 1.30663 12.1875C1.32813 12.1872 1.34963 12.1868 1.37178 12.1864C1.59611 12.183 1.82043 12.1806 2.04477 12.1789C2.12843 12.1781 2.21209 12.1771 2.29574 12.1757C2.41618 12.1738 2.53658 12.1729 2.65703 12.1722C2.69427 12.1714 2.73151 12.1706 2.76988 12.1698C2.99194 12.1697 3.12725 12.1885 3.29881 12.3437C3.47766 12.5437 3.47751 12.7182 3.47612 12.9735C3.47658 13.0116 3.47704 13.0498 3.47752 13.0891C3.47889 13.2109 3.47925 13.3328 3.47948 13.4546C3.47294 14.7466 3.47294 14.7466 4.08006 15.8594C4.44469 16.2142 4.89576 16.4459 5.40178 16.5005C5.42924 16.5036 5.45669 16.5066 5.48498 16.5097C5.53992 16.5155 5.59493 16.5206 5.65 16.525C5.84328 16.5445 5.96259 16.5945 6.11131 16.7187C6.24643 16.8903 6.28719 17.0023 6.28778 17.2198C6.28806 17.2454 6.28833 17.271 6.28861 17.2973C6.2893 17.3812 6.28885 17.465 6.28832 17.5488C6.28842 17.6075 6.28857 17.6661 6.28877 17.7248C6.289 17.8475 6.28867 17.9701 6.28794 18.0928C6.28705 18.2496 6.28756 18.4064 6.28849 18.5633C6.28906 18.6843 6.28888 18.8054 6.28847 18.9264C6.28837 18.9842 6.2885 19.042 6.28886 19.0998C6.28926 19.1808 6.28865 19.2617 6.28778 19.3426C6.28766 19.3886 6.28753 19.4346 6.28741 19.4819C6.25652 19.6803 6.15663 19.8007 6.01366 19.9365C5.8119 20.0302 5.62693 20.0294 5.40819 20C5.21434 19.91 5.1168 19.7969 5.01756 19.6094C4.99659 19.4676 4.99934 19.3279 5.00231 19.1849C5.00253 19.1445 5.00275 19.104 5.00298 19.0624C5.00385 18.9338 5.00581 18.8053 5.0078 18.6768C5.00858 18.5894 5.0093 18.502 5.00994 18.4146C5.01165 18.2009 5.01427 17.9872 5.01756 17.7734C4.98844 17.7685 4.95932 17.7635 4.92932 17.7584C4.89092 17.7516 4.85251 17.7449 4.81294 17.738C4.77496 17.7314 4.73698 17.7248 4.69785 17.718C4.54749 17.687 4.41426 17.635 4.27538 17.5708C4.2487 17.5587 4.22202 17.5465 4.19453 17.5341C3.32534 17.1296 2.70214 16.4394 2.36132 15.5469C2.20484 15.0738 2.1853 14.6348 2.1953 14.1406C2.19609 14.072 2.1968 14.0033 2.19744 13.9346C2.19913 13.7689 2.20181 13.6032 2.20507 13.4375C2.16924 13.4383 2.13342 13.4391 2.09652 13.44C1.96183 13.4427 1.82717 13.4446 1.69247 13.4461C1.6345 13.4469 1.57654 13.4479 1.51859 13.4493C1.07491 13.4595 0.690645 13.4308 0.350817 13.1134C0.0971759 12.8313 0.00355203 12.5346 0.00291659 12.1606C0.00195986 12.1318 0.00100313 12.1029 1.7416e-05 12.0731C-0.00233076 11.618 0.233182 11.241 0.457018 10.8594C0.484785 10.8115 0.512527 10.7635 0.540245 10.7156C0.754451 10.3459 0.97249 9.97849 1.19104 9.61139C1.46872 9.14471 1.73981 8.67431 2.00975 8.20312C2.05157 8.14534 2.05157 8.14534 2.09424 8.0864C2.2138 7.87535 2.18721 7.63343 2.18569 7.39791C2.18597 7.34569 2.18635 7.29347 2.1868 7.24124C2.18805 7.07603 2.18804 6.91082 2.18798 6.7456C2.18879 5.17118 2.18879 5.17118 2.42967 4.40918C2.4397 4.37681 2.44973 4.34445 2.46007 4.3111C2.80846 3.21929 3.45537 2.16915 4.3535 1.44531C4.39036 1.41525 4.42722 1.38519 4.4652 1.35421C5.52234 0.507411 6.82914 -0.00494193 8.18901 -0.0062978Z" fill="#694AE1"/>
</svg>
