<svg width="23" height="29" viewBox="0 0 23 29" fill="none" xmlns="http://www.w3.org/2000/svg">
<path d="M2.48586 0.0230915C2.54662 0.0226019 2.60737 0.0221122 2.66997 0.0216078C2.87175 0.0202708 3.07349 0.0205892 3.27527 0.0209198C3.42066 0.020314 3.56604 0.0196114 3.71143 0.0188197C4.06419 0.017193 4.41693 0.016672 4.7697 0.016744C5.05647 0.0167929 5.34325 0.0164479 5.63003 0.0158285C6.5327 0.0139166 7.43537 0.0133864 8.33806 0.0139001C9.04947 0.014251 9.76086 0.0124671 10.4723 0.00970347C11.2038 0.00688394 11.9353 0.00559171 12.6669 0.00591309C13.0771 0.0060639 13.4874 0.00559885 13.8977 0.00350661C14.2833 0.00155571 14.6688 0.00173832 15.0544 0.00335685C15.1958 0.00361824 15.3373 0.00317996 15.4787 0.00198904C15.6719 0.000472452 15.8649 0.00148826 16.0581 0.0031359C16.114 0.00210106 16.1699 0.00106621 16.2274 0C16.597 0.00680754 16.7808 0.0988968 17.0429 0.359099C17.0918 0.41112 17.0918 0.41112 17.1417 0.464192C17.1882 0.508219 17.2346 0.552246 17.2825 0.597606C17.3213 0.636396 17.3601 0.675186 17.4001 0.715152C17.4455 0.760411 17.4909 0.80567 17.5377 0.8523C17.6099 0.9246 17.6099 0.9246 17.6834 0.99836C17.7354 1.05024 17.7874 1.10212 17.841 1.15557C17.9821 1.29647 18.1231 1.43751 18.264 1.57861C18.4119 1.72668 18.56 1.8746 18.708 2.02254C18.9561 2.27052 19.204 2.51862 19.4519 2.76679C19.7386 3.05377 20.0255 3.34055 20.3125 3.62722C20.5593 3.87383 20.8061 4.12056 21.0528 4.36739C21.1999 4.51462 21.3471 4.66181 21.4944 4.8089C21.6581 4.97242 21.8216 5.13618 21.9851 5.29996C22.034 5.34876 22.0829 5.39755 22.1333 5.44782C22.1997 5.51447 22.1997 5.51447 22.2674 5.58247C22.3061 5.62115 22.3447 5.65983 22.3846 5.69968C22.5494 5.87817 22.5398 6.00818 22.5402 6.24539C22.5404 6.31646 22.5407 6.38753 22.541 6.46075C22.541 6.54033 22.541 6.61992 22.5409 6.6995C22.5411 6.78349 22.5414 6.86748 22.5416 6.95147C22.5422 7.18311 22.5424 7.41476 22.5426 7.6464C22.5428 7.89593 22.5433 8.14545 22.5439 8.39498C22.545 8.99813 22.5456 9.60127 22.5461 10.2044C22.5464 10.4884 22.5467 10.7724 22.547 11.0564C22.548 12.0004 22.5489 12.9444 22.5493 13.8884C22.5494 14.1335 22.5495 14.3786 22.5496 14.6237C22.5496 14.6846 22.5497 14.7455 22.5497 14.8083C22.5502 15.7947 22.5517 16.7811 22.5536 17.7675C22.5555 18.7801 22.5566 19.7927 22.5568 20.8052C22.5569 21.3738 22.5574 21.9424 22.5589 22.511C22.5602 22.9953 22.5606 23.4797 22.5601 23.964C22.5598 24.2111 22.5599 24.4581 22.561 24.7051C22.5621 24.9316 22.562 25.158 22.5611 25.3845C22.561 25.4661 22.5612 25.5477 22.5619 25.6294C22.568 26.3861 22.4191 26.9779 21.8878 27.5345C21.313 28.0832 20.7027 28.2145 19.9265 28.2088C19.8108 28.2093 19.8108 28.2093 19.6927 28.2099C19.4803 28.2109 19.2679 28.2104 19.0555 28.2097C18.8257 28.2091 18.596 28.21 18.3662 28.2106C17.9168 28.2116 17.4674 28.2114 17.018 28.2107C16.6527 28.2102 16.2873 28.2101 15.9219 28.2104C15.8698 28.2104 15.8177 28.2105 15.764 28.2105C15.6582 28.2106 15.5524 28.2107 15.4465 28.2107C14.4552 28.2114 13.4638 28.2106 12.4724 28.2094C11.6226 28.2083 10.7727 28.2085 9.92288 28.2096C8.93493 28.2108 7.94699 28.2113 6.95905 28.2106C6.85362 28.2105 6.74818 28.2105 6.64275 28.2104C6.56494 28.2103 6.56494 28.2103 6.48556 28.2103C6.12081 28.2101 5.75605 28.2104 5.3913 28.211C4.94651 28.2116 4.50174 28.2115 4.05696 28.2102C3.83021 28.2096 3.60348 28.2094 3.37674 28.2101C3.13053 28.211 2.88437 28.21 2.63817 28.2088C2.53153 28.2096 2.53153 28.2096 2.42273 28.2104C1.73014 28.204 1.18181 28.0166 0.67685 27.5345C0.0651793 26.8938 -0.00238447 26.2053 0.00255711 25.3596C0.00228672 25.2585 0.00191423 25.1574 0.00144913 25.0563C0.00047422 24.7797 0.000952704 24.5032 0.00168025 24.2266C0.00221173 23.9279 0.00139149 23.6291 0.000747513 23.3303C-0.000293599 22.7456 -7.00548e-05 22.1608 0.000609826 21.5761C0.00113955 21.1007 0.00121076 20.6254 0.000955831 20.1501C0.000919917 20.0824 0.00088398 20.0147 0.000846978 19.9449C0.000772041 19.8074 0.000696017 19.6698 0.00061899 19.5323C-4.90288e-05 18.2432 0.000718581 16.954 0.00197842 15.6649C0.00302552 14.5592 0.00284372 13.4535 0.00176318 12.3479C0.000508366 11.0633 1.53735e-05 9.77867 0.000734772 8.49408C0.000809431 8.35705 0.000883139 8.22002 0.000955831 8.08298C0.000991989 8.01557 0.0010281 7.94815 0.00106535 7.87869C0.00126755 7.40404 0.000926546 6.92939 0.000374686 6.45474C-0.000283252 5.87615 -0.000103541 5.29756 0.00114359 4.71897C0.00175873 4.42387 0.00200217 4.12879 0.00122584 3.83369C0.000525379 3.56334 0.000914704 3.29301 0.00215813 3.02266C0.00241906 2.92508 0.00228871 2.8275 0.00171847 2.72992C-0.00257884 1.93318 0.107385 1.2951 0.67685 0.698567C1.19753 0.201512 1.7755 0.0179328 2.48586 0.0230915ZM1.30673 1.54451C0.997243 1.92431 0.962561 2.32632 0.962282 2.8056C0.962179 2.84542 0.962076 2.88524 0.961971 2.92627C0.961698 3.05961 0.961842 3.19295 0.961984 3.32629C0.961875 3.4229 0.96174 3.5195 0.961582 3.6161C0.961223 3.88151 0.961231 4.14692 0.9613 4.41234C0.961312 4.6986 0.960989 4.98487 0.960711 5.27113C0.960224 5.83196 0.960063 6.39278 0.960031 6.95361C0.960003 7.40945 0.959882 7.86528 0.959697 8.32112C0.959181 9.61335 0.95891 10.9056 0.958954 12.1978C0.958957 12.2675 0.958959 12.3371 0.958961 12.4089C0.958964 12.4787 0.958966 12.5484 0.958969 12.6203C0.958992 13.7509 0.958432 14.8816 0.957606 16.0122C0.956764 17.173 0.956359 18.3337 0.95641 19.4945C0.956429 20.1463 0.956268 20.798 0.955638 21.4497C0.955105 22.0046 0.954977 22.5595 0.955375 23.1144C0.955566 23.3975 0.955569 23.6806 0.955061 23.9637C0.954601 24.2229 0.954683 24.4822 0.955195 24.7414C0.955285 24.8351 0.955178 24.9288 0.954852 25.0225C0.935371 25.9246 0.935371 25.9246 1.32138 26.7142C1.73026 27.1201 2.11923 27.2486 2.69604 27.2491C2.75846 27.2493 2.82088 27.2495 2.8852 27.2496C2.98708 27.2495 2.98708 27.2495 3.09103 27.2494C3.1637 27.2495 3.23636 27.2496 3.31123 27.2498C3.51251 27.2501 3.71379 27.2501 3.91507 27.2501C4.13231 27.25 4.34956 27.2504 4.5668 27.2506C4.99227 27.2511 5.41774 27.2513 5.84321 27.2513C6.1891 27.2514 6.53499 27.2515 6.88088 27.2517C7.86183 27.2522 8.84278 27.2524 9.82374 27.2524C9.90304 27.2524 9.90304 27.2524 9.98394 27.2524C10.0633 27.2524 10.0633 27.2524 10.1443 27.2524C11.0022 27.2524 11.86 27.2529 12.7178 27.2537C13.5989 27.2546 14.48 27.255 15.3611 27.2549C15.8557 27.2549 16.3502 27.2551 16.8448 27.2557C17.2658 27.2563 17.6869 27.2564 18.108 27.256C18.3227 27.2558 18.5375 27.2558 18.7522 27.2563C18.9852 27.2568 19.2183 27.2565 19.4513 27.256C19.5526 27.2565 19.5526 27.2565 19.6559 27.2569C20.2326 27.2545 20.7368 27.223 21.1629 26.7938C21.5172 26.4012 21.6022 26.0167 21.602 25.4919C21.6021 25.4242 21.6023 25.3566 21.6024 25.2869C21.6021 25.1763 21.6021 25.1763 21.6019 25.0634C21.6019 24.9838 21.6019 24.9042 21.602 24.8247C21.6021 24.6063 21.6019 24.388 21.6016 24.1697C21.6014 23.9341 21.6015 23.6985 21.6015 23.463C21.6015 23.0549 21.6013 22.6469 21.601 22.2389C21.6005 21.6489 21.6004 21.059 21.6003 20.4691C21.6002 19.5119 21.5998 18.5548 21.5992 17.5976C21.5987 16.6679 21.5983 15.7381 21.598 14.8084C21.598 14.751 21.598 14.6937 21.598 14.6347C21.5979 14.3472 21.5978 14.0596 21.5978 13.7721C21.5972 11.3869 21.5961 9.00172 21.5948 6.61654C21.5485 6.61632 21.5023 6.61611 21.4546 6.61589C21.0159 6.61366 20.5772 6.61032 20.1385 6.60576C19.913 6.60346 19.6875 6.60157 19.4621 6.60066C19.244 6.59976 19.0259 6.59773 18.8078 6.59496C18.7251 6.59409 18.6424 6.59362 18.5597 6.59357C17.797 6.59265 17.1707 6.46348 16.6144 5.91341C16.0825 5.28842 16.002 4.71933 15.9984 3.9155C15.9974 3.83086 15.9964 3.74623 15.9952 3.66159C15.9925 3.44053 15.9907 3.21947 15.9892 2.9984C15.9874 2.77213 15.9847 2.54588 15.9821 2.31962C15.977 1.87693 15.9731 1.43424 15.9698 0.991536C14.247 0.988861 12.5242 0.986788 10.8015 0.985552C10.5979 0.985405 10.3944 0.985254 10.1909 0.985099C10.1504 0.985068 10.1099 0.985038 10.0681 0.985006C9.41262 0.984496 8.7571 0.983572 8.10159 0.982495C7.42868 0.981398 6.75577 0.980757 6.08285 0.98051C5.70501 0.980357 5.32717 0.979999 4.94933 0.979146C4.59359 0.97835 4.23785 0.978105 3.88211 0.978281C3.75166 0.978249 3.62121 0.978017 3.49075 0.977567C3.31235 0.976982 3.13396 0.977125 2.95556 0.977444C2.9042 0.977103 2.85284 0.976761 2.79993 0.976409C2.19379 0.979331 1.72657 1.07916 1.30673 1.54451ZM16.9073 1.75326C16.9044 2.10242 16.9023 2.45157 16.9009 2.80075C16.9003 2.91935 16.8995 3.03795 16.8985 3.15654C16.897 3.32774 16.8964 3.49893 16.8959 3.67014C16.8953 3.72253 16.8947 3.77492 16.894 3.8289C16.894 4.31935 16.9383 4.76183 17.2589 5.15169C17.702 5.59163 18.123 5.68573 18.7375 5.68567C18.7908 5.68537 18.8441 5.68507 18.8991 5.68476C18.9545 5.68468 19.0099 5.68459 19.067 5.68451C19.2431 5.68418 19.4192 5.68345 19.5953 5.6827C19.7151 5.6824 19.8349 5.68214 19.9547 5.6819C20.2475 5.68125 20.5403 5.68024 20.8331 5.67904C20.606 5.40752 20.3706 5.14937 20.1198 4.89959C20.0856 4.86524 20.0513 4.83089 20.0161 4.7955C19.9043 4.68345 19.7922 4.57161 19.6802 4.45978C19.602 4.38156 19.5239 4.30332 19.4457 4.22508C19.2826 4.06192 19.1194 3.89887 18.9562 3.7359C18.7465 3.52652 18.537 3.31687 18.3277 3.10715C18.1667 2.94594 18.0055 2.78488 17.8444 2.62386C17.767 2.54655 17.6897 2.4692 17.6124 2.3918C17.505 2.28421 17.3974 2.17682 17.2897 2.06947C17.2576 2.03724 17.2255 2.00501 17.1924 1.9718C17.0704 1.82105 17.0704 1.82105 16.9073 1.75326Z" fill="#F79831"/>
</svg>
