<svg width="21" height="27" viewBox="0 0 21 27" fill="none" xmlns="http://www.w3.org/2000/svg">
<path d="M6.72815 0.0140004C6.77762 0.0137349 6.82709 0.0134694 6.87806 0.0131959C7.04412 0.0124531 7.21017 0.0125501 7.37623 0.0126468C7.4952 0.0122962 7.61417 0.0118975 7.73313 0.0114541C8.05663 0.0104174 8.38013 0.0101441 8.70363 0.0100695C8.90587 0.00998619 9.1081 0.00973606 9.31034 0.00942524C10.0163 0.00834036 10.7222 0.00786259 11.4281 0.00795472C12.0854 0.00802502 12.7427 0.00679067 13.3999 0.00493789C13.9646 0.00340299 14.5293 0.00277704 15.094 0.00285184C15.4311 0.00288166 15.7682 0.00255092 16.1053 0.00130754C16.4227 0.00016871 16.7401 0.000166714 17.0575 0.00101652C17.1736 0.00113857 17.2897 0.000865223 17.4058 0.000153966C18.4267 -0.00569137 19.1669 0.152608 19.9383 0.868293C20.5686 1.53428 20.6827 2.2634 20.6788 3.14946C20.679 3.23937 20.6794 3.32928 20.6797 3.41919C20.6806 3.66503 20.6803 3.91086 20.6799 4.1567C20.6796 4.42232 20.6804 4.68793 20.681 4.95355C20.682 5.47344 20.682 5.99332 20.6817 6.51321C20.6815 6.93588 20.6816 7.35855 20.6819 7.78122C20.6819 7.84144 20.682 7.90165 20.682 7.96368C20.6821 8.08601 20.6822 8.20834 20.6823 8.33067C20.6831 9.47725 20.6828 10.6238 20.6821 11.7704C20.6815 12.8187 20.6823 13.867 20.6837 14.9152C20.6851 15.9924 20.6857 17.0695 20.6853 18.1467C20.6851 18.7511 20.6852 19.3556 20.6862 19.96C20.6871 20.4745 20.6871 20.9891 20.6861 21.5036C20.6856 21.7659 20.6855 22.0283 20.6864 22.2906C20.6872 22.5311 20.6869 22.7716 20.6858 23.0121C20.6856 23.0988 20.6857 23.1854 20.6863 23.2721C20.6925 24.2038 20.4524 24.8775 19.8174 25.5619C19.2247 26.1229 18.5478 26.307 17.7498 26.3024C17.6838 26.3027 17.6177 26.303 17.5497 26.3033C17.3297 26.3042 17.1097 26.3038 16.8896 26.3033C16.7313 26.3037 16.5731 26.3041 16.4148 26.3046C16.0303 26.3056 15.6457 26.3056 15.2612 26.3053C14.9485 26.3051 14.6358 26.3052 14.323 26.3055C14.2784 26.3055 14.2338 26.3056 14.1879 26.3056C14.0973 26.3057 14.0066 26.3058 13.916 26.3059C13.0672 26.3067 12.2184 26.3064 11.3696 26.3057C10.5941 26.3051 9.81863 26.3059 9.04315 26.3073C8.24568 26.3087 7.44821 26.3093 6.65073 26.3089C6.20349 26.3087 5.75627 26.3088 5.30903 26.3098C4.9283 26.3107 4.54758 26.3107 4.16686 26.3097C3.97285 26.3092 3.77888 26.3092 3.58487 26.31C3.37396 26.3107 3.1631 26.3101 2.95219 26.309C2.89172 26.3096 2.83124 26.3102 2.76893 26.3107C1.96058 26.3026 1.33377 25.9837 0.748846 25.441C0.16594 24.8251 0.00404071 24.1345 0.00835732 23.3088C0.00804176 23.2358 0.00772623 23.1628 0.00740111 23.0876C0.00671121 22.8865 0.00680152 22.6854 0.00723526 22.4843C0.00751353 22.2669 0.00677843 22.0495 0.00617936 21.832C0.00517411 21.4067 0.00512264 20.9814 0.00543013 20.5561C0.00566727 20.2105 0.00558209 19.8648 0.0052692 19.5192C0.00522535 19.47 0.00518116 19.4207 0.00513598 19.37C0.00504625 19.2699 0.00495651 19.1698 0.00486597 19.0697C0.00406252 18.1324 0.00437971 17.1951 0.00505239 16.2578C0.00563493 15.4002 0.00487515 14.5427 0.00347435 13.6851C0.00204606 12.8041 0.00148174 11.923 0.00187173 11.042C0.00207647 10.5476 0.00194483 10.0531 0.000919551 9.55867C5.80433e-05 9.138 1.8525e-05 8.71734 0.00104114 8.29668C0.00154072 8.08207 0.0016633 7.86748 0.000768453 7.65288C-0.000189352 7.4203 0.000666947 7.18775 0.00170544 6.95517C0.000861248 6.85335 0.000861244 6.85335 0 6.74946C0.00472863 6.23646 0.148855 5.99114 0.510051 5.62956C0.5825 5.55662 0.5825 5.55662 0.656412 5.4822C0.735136 5.40383 0.735136 5.40383 0.815451 5.32388C0.871702 5.26747 0.927928 5.21103 0.984131 5.15457C1.13615 5.00202 1.28854 4.84984 1.44101 4.69774C1.60076 4.53829 1.76022 4.37855 1.91973 4.21885C2.18747 3.9509 2.45546 3.6832 2.72358 3.41563C3.03347 3.10638 3.34294 2.79671 3.65219 2.48681C3.918 2.22047 4.18404 1.95435 4.45028 1.68842C4.60917 1.52971 4.76798 1.37093 4.92659 1.21193C5.07561 1.06257 5.22491 0.913507 5.37444 0.764658C5.45538 0.683947 5.53603 0.602947 5.61667 0.521939C5.68912 0.449986 5.68912 0.449986 5.76303 0.37658C5.80486 0.334799 5.84668 0.293019 5.88977 0.249973C6.15538 0.0176014 6.3837 0.0126491 6.72815 0.0140004ZM7.53107 1.90467C7.53086 1.94568 7.53064 1.9867 7.53042 2.02896C7.52819 2.4185 7.52484 2.80802 7.5203 3.19754C7.518 3.39773 7.5161 3.5979 7.51519 3.79809C7.51412 4.02909 7.51119 4.26005 7.50818 4.49103C7.50811 4.56174 7.50804 4.63245 7.50797 4.7053C7.49438 5.50494 7.25617 6.13928 6.70481 6.7224C6.05612 7.33556 5.38743 7.48722 4.52105 7.49534C4.4462 7.49647 4.37134 7.49761 4.29422 7.49878C4.09647 7.50168 3.89872 7.5041 3.70096 7.50628C3.49866 7.50864 3.29637 7.51163 3.09408 7.51456C2.69809 7.52018 2.30208 7.52517 1.90607 7.52967C1.90205 9.55103 1.89895 11.5724 1.8971 13.5938C1.89688 13.8325 1.89665 14.0712 1.89642 14.3099C1.89637 14.3575 1.89632 14.405 1.89628 14.4539C1.89551 15.2231 1.89413 15.9923 1.89251 16.7615C1.89087 17.551 1.88989 18.3404 1.88953 19.1298C1.88929 19.6168 1.88853 20.1038 1.8871 20.5908C1.88617 20.9249 1.88589 21.259 1.88612 21.5931C1.88623 21.7858 1.88597 21.9785 1.88512 22.1711C1.88424 22.3803 1.88445 22.5895 1.88493 22.7987C1.88442 22.8592 1.88391 22.9197 1.88338 22.982C1.88575 23.3641 1.90735 23.7772 2.15656 24.0876C2.53147 24.4306 2.9817 24.4218 3.45881 24.4199C3.55065 24.4203 3.55065 24.4203 3.64436 24.4206C3.84915 24.4212 4.05393 24.421 4.25872 24.4208C4.40571 24.421 4.55269 24.4213 4.69968 24.4217C5.05727 24.4224 5.41485 24.4225 5.77244 24.4224C6.06319 24.4223 6.35394 24.4224 6.64468 24.4226C6.70682 24.4227 6.70682 24.4227 6.77021 24.4227C6.85436 24.4228 6.93852 24.4229 7.02268 24.423C7.81147 24.4236 8.60026 24.4235 9.38905 24.4231C10.1101 24.4228 10.8311 24.4235 11.5522 24.4246C12.2932 24.4257 13.0342 24.4262 13.7751 24.426C14.1909 24.4259 14.6067 24.426 15.0224 24.4268C15.4134 24.4276 15.8044 24.4275 16.1954 24.4267C16.3388 24.4266 16.4822 24.4267 16.6256 24.4272C16.8216 24.4278 17.0175 24.4273 17.2135 24.4266C17.27 24.427 17.3266 24.4275 17.3848 24.4279C17.7576 24.4249 18.1618 24.3965 18.4641 24.1542C18.8549 23.7262 18.7979 23.179 18.7963 22.6384C18.7965 22.5533 18.7968 22.4683 18.797 22.3832C18.7976 22.15 18.7975 21.9168 18.7973 21.6836C18.7971 21.4319 18.7976 21.1802 18.7981 20.9285C18.7988 20.4355 18.7989 19.9426 18.7988 19.4496C18.7987 19.0489 18.7988 18.6482 18.799 18.2475C18.7991 18.162 18.7991 18.162 18.7991 18.0747C18.7992 17.9588 18.7993 17.843 18.7994 17.7271C18.8 16.6406 18.7999 15.554 18.7995 14.4675C18.7992 13.4736 18.7999 12.4798 18.801 11.4859C18.8021 10.4652 18.8026 9.44458 18.8024 8.42391C18.8023 7.85096 18.8024 7.27801 18.8032 6.70505C18.8039 6.21729 18.804 5.72953 18.8033 5.24177C18.803 4.99297 18.8029 4.74418 18.8036 4.49538C18.8042 4.26746 18.8041 4.03955 18.8032 3.81163C18.8031 3.72934 18.8032 3.64705 18.8037 3.56476C18.8194 2.85337 18.8194 2.85337 18.5306 2.22246C18.2093 1.92599 17.8219 1.88998 17.4027 1.89058C17.3603 1.89048 17.3178 1.89038 17.2741 1.89027C17.1328 1.89008 16.9916 1.89072 16.8504 1.89137C16.7487 1.8914 16.647 1.89138 16.5454 1.89131C16.2701 1.89128 15.9949 1.89197 15.7196 1.89279C15.4317 1.89352 15.1437 1.89359 14.8558 1.89373C14.3109 1.89409 13.7659 1.89505 13.221 1.89623C12.6005 1.89754 11.98 1.89818 11.3595 1.89877C10.0834 1.9 8.80721 1.90206 7.53107 1.90467Z" fill="#F79831"/>
</svg>
