<svg width="30" height="30" viewBox="0 0 30 30" fill="none" xmlns="http://www.w3.org/2000/svg">
<path d="M5.64092 5.26492C5.69582 5.2647 5.75072 5.26449 5.80728 5.26427C5.99137 5.26362 6.17546 5.26339 6.35955 5.26317C6.49152 5.2628 6.62348 5.26241 6.75545 5.262C7.18906 5.26077 7.62267 5.26016 8.05628 5.25958C8.20574 5.25934 8.35519 5.2591 8.50465 5.25886C9.12662 5.25787 9.7486 5.25701 10.3706 5.25659C10.5319 5.25647 10.6931 5.25636 10.8544 5.25625C10.8945 5.25622 10.9346 5.25619 10.9759 5.25616C11.6241 5.25568 12.2724 5.25419 12.9206 5.25229C13.5873 5.25034 14.254 5.24931 14.9207 5.24911C15.2946 5.24897 15.6684 5.24845 16.0423 5.24697C16.3944 5.2456 16.7466 5.24536 17.0987 5.24596C17.2274 5.24599 17.3561 5.24562 17.4848 5.24481C18.8048 5.23699 19.9052 5.47414 20.9181 6.38682C20.9552 6.41923 20.9924 6.45163 21.0307 6.48501C21.7865 7.18568 22.191 8.24649 22.2657 9.25792C22.2719 9.46432 22.2714 9.67035 22.2694 9.87681C22.2691 9.93033 22.2689 9.98384 22.2686 10.039C22.2679 10.1693 22.2669 10.2995 22.2657 10.4298C22.3339 10.3712 22.3339 10.3712 22.4035 10.3115C22.7723 9.99623 23.1457 9.68893 23.5286 9.39095C23.7954 9.18294 24.0582 8.97029 24.3202 8.75621C24.4377 8.66074 24.5553 8.56538 24.673 8.47011C24.7459 8.41093 24.8187 8.35158 24.8914 8.29204C25.5635 7.74272 26.0648 7.47528 26.9532 7.5587C27.4281 7.63929 27.8265 7.90317 28.115 8.28723C28.3864 8.71995 28.4944 9.11901 28.4923 9.6306C28.4926 9.67835 28.4929 9.7261 28.4931 9.7753C28.4939 9.93447 28.4938 10.0936 28.4937 10.2528C28.494 10.3673 28.4944 10.4817 28.4949 10.5962C28.4959 10.9066 28.4962 11.217 28.4963 11.5274C28.4963 11.7216 28.4966 11.9157 28.4969 12.1098C28.498 12.7876 28.4985 13.4653 28.4984 14.1431C28.4983 14.7739 28.4995 15.4048 28.5014 16.0357C28.5029 16.5781 28.5036 17.1204 28.5035 17.6628C28.5034 17.9864 28.5038 18.31 28.505 18.6336C28.5062 18.9381 28.5062 19.2427 28.5053 19.5472C28.5052 19.6586 28.5055 19.77 28.5062 19.8814C28.5106 20.6191 28.4813 21.269 27.9942 21.8682C27.5793 22.2876 27.1365 22.4434 26.5541 22.4635C25.7532 22.4441 25.3134 22.0404 24.7268 21.5436C24.5542 21.3992 24.3771 21.2611 24.1993 21.1232C23.8189 20.8262 23.4445 20.5222 23.0705 20.2172C22.8037 19.9998 22.535 19.7847 22.2657 19.5704C22.2671 19.6462 22.2684 19.7219 22.2698 19.8C22.287 21.1492 22.0787 22.4041 21.1173 23.4227C20.2083 24.3428 19.1277 24.746 17.8534 24.758C17.6726 24.7584 17.4917 24.7577 17.3109 24.757C17.1795 24.7573 17.0481 24.7577 16.9168 24.7582C16.5623 24.7593 16.2078 24.7589 15.8534 24.7582C15.4809 24.7576 15.1085 24.7581 14.7361 24.7585C14.0709 24.7589 13.4056 24.7582 12.7404 24.757C12.1391 24.756 11.5379 24.7561 10.9366 24.7572C10.2359 24.7585 9.53517 24.7589 8.83445 24.7583C8.46443 24.7579 8.09442 24.7578 7.72441 24.7586C7.37634 24.7593 7.0283 24.7588 6.68023 24.7575C6.55316 24.7572 6.42609 24.7572 6.29903 24.7578C4.86171 24.7631 3.70419 24.4765 2.63956 23.4438C1.92736 22.6819 1.51467 21.6973 1.51491 20.656C1.51469 20.6061 1.51448 20.5562 1.51426 20.5049C1.51361 20.3378 1.51339 20.1707 1.51316 20.0036C1.51279 19.8838 1.51241 19.7639 1.512 19.6441C1.51076 19.2504 1.51016 18.8567 1.50957 18.4631C1.50933 18.3273 1.50909 18.1916 1.50885 18.0559C1.50773 17.4178 1.5069 16.7797 1.50641 16.1417C1.50584 15.4064 1.5043 14.6712 1.50193 13.936C1.50016 13.367 1.49929 12.7979 1.4991 12.2289C1.49896 11.8894 1.49844 11.55 1.49696 11.2105C1.49559 10.8907 1.49535 10.5709 1.49595 10.251C1.49598 10.1343 1.49562 10.0175 1.49481 9.90067C1.48571 8.50869 1.82606 7.39703 2.82152 6.37446C3.59035 5.64874 4.59102 5.2647 5.64092 5.26492ZM4.05474 7.93956C3.54748 8.51619 3.44763 9.27474 3.44929 10.0163C3.44916 10.0607 3.44903 10.1051 3.44889 10.1508C3.44852 10.2984 3.44857 10.4459 3.44862 10.5934C3.44844 10.6997 3.44824 10.806 3.44802 10.9123C3.4475 11.2002 3.44736 11.4881 3.44733 11.776C3.44729 11.9561 3.44716 12.1362 3.447 12.3164C3.44646 12.9456 3.44622 13.5747 3.44627 14.2039C3.4463 14.7892 3.44569 15.3744 3.44476 15.9597C3.44399 16.4632 3.44368 16.9667 3.44372 17.4702C3.44373 17.7705 3.44357 18.0707 3.44295 18.371C3.44238 18.6536 3.44238 18.9362 3.4428 19.2188C3.44286 19.322 3.44273 19.4253 3.44237 19.5285C3.43918 20.5193 3.46955 21.4411 4.18955 22.1955C4.78051 22.7153 5.55462 22.8022 6.3114 22.8013C6.36067 22.8015 6.40993 22.8017 6.4607 22.8018C6.62467 22.8023 6.78864 22.8024 6.95261 22.8025C7.07065 22.8028 7.1887 22.8031 7.30674 22.8034C7.62673 22.8042 7.94672 22.8045 8.26671 22.8048C8.46699 22.805 8.66726 22.8052 8.86754 22.8055C9.49518 22.8063 10.1228 22.8068 10.7505 22.8071C11.4731 22.8073 12.1956 22.8084 12.9182 22.8101C13.478 22.8113 14.0378 22.8119 14.5976 22.812C14.9313 22.8121 15.265 22.8124 15.5988 22.8134C15.9131 22.8144 16.2274 22.8145 16.5418 22.814C16.6565 22.814 16.7712 22.8142 16.8859 22.8148C18.2054 22.8302 18.2054 22.8302 19.3946 22.3243C19.4575 22.2796 19.5203 22.2349 19.5851 22.1888C20.1358 21.6506 20.2883 20.8998 20.3033 20.1524C20.3055 19.953 20.3048 19.7538 20.3039 19.5544C20.3042 19.4437 20.3046 19.333 20.3051 19.2223C20.3062 18.9243 20.3058 18.6262 20.305 18.3282C20.3044 18.0147 20.305 17.7012 20.3053 17.3877C20.3058 16.8615 20.3052 16.3353 20.3041 15.8091C20.3028 15.2027 20.3032 14.5963 20.3045 13.9899C20.3056 13.4671 20.3057 12.9444 20.3051 12.4216C20.3048 12.1103 20.3047 11.799 20.3055 11.4877C20.3062 11.1949 20.3057 10.9021 20.3043 10.6093C20.304 10.5026 20.3041 10.3958 20.3046 10.289C20.3085 9.41826 20.2641 8.51927 19.629 7.85167C18.8061 7.15601 17.7672 7.18966 16.7477 7.19197C16.6293 7.19181 16.5108 7.1916 16.3923 7.19135C16.0724 7.19082 15.7524 7.19102 15.4325 7.19139C15.0966 7.19169 14.7608 7.19142 14.4249 7.19123C13.8611 7.19102 13.2972 7.1913 12.7333 7.19186C12.0827 7.1925 11.4321 7.19229 10.7815 7.19164C10.2215 7.19111 9.6615 7.19104 9.10151 7.19134C8.76766 7.19153 8.43381 7.19155 8.09995 7.19116C7.78599 7.19082 7.47204 7.19106 7.15808 7.19174C7.04329 7.19189 6.9285 7.19185 6.81371 7.19159C5.79315 7.18949 4.83423 7.19555 4.05474 7.93956ZM26.1292 9.82554C26.0928 9.85432 26.0564 9.8831 26.0188 9.91275C25.7022 10.1635 25.389 10.4183 25.0761 10.6736C24.7921 10.905 24.5051 11.1322 24.2164 11.3576C23.9166 11.5921 23.6213 11.832 23.3274 12.0739C23.2918 12.103 23.2562 12.1322 23.2195 12.1622C23.1662 12.2071 23.1662 12.2071 23.1118 12.2528C22.9688 12.3634 22.9688 12.3634 22.7815 12.4786C22.4898 12.6635 22.253 12.8211 22.1336 13.1549C22.1035 13.3986 22.0963 13.632 22.0998 13.877C22.0988 13.9663 22.0977 14.0556 22.0963 14.1449C22.0944 14.3314 22.0953 14.5176 22.0982 14.7041C22.1015 14.9412 22.0971 15.1774 22.0908 15.4144C22.0297 16.4366 22.0297 16.4366 22.4089 17.3381C22.5973 17.509 22.7988 17.6344 23.0254 17.7484C23.2204 17.8534 23.3847 17.9942 23.5548 18.1349C23.6218 18.1875 23.6889 18.24 23.7562 18.2923C23.9842 18.4715 24.209 18.6546 24.4337 18.838C24.8593 19.1851 25.2892 19.5262 25.7228 19.8634C25.7586 19.8913 25.7944 19.9193 25.8313 19.9481C25.9378 20.0311 26.0445 20.1139 26.1512 20.1966C26.1839 20.2221 26.2166 20.2476 26.2503 20.2738C26.3824 20.3964 26.3824 20.3964 26.5431 20.4493C26.5431 16.8528 26.5431 13.2564 26.5431 9.55089C26.4023 9.55089 26.2398 9.73774 26.1292 9.82554Z" fill="#F79831"/>
</svg>
