<svg width="30" height="30" viewBox="0 0 30 30" fill="none" xmlns="http://www.w3.org/2000/svg">
<path d="M2.78074 2.8561C2.84521 2.85579 2.84521 2.85579 2.91099 2.85548C3.05511 2.85493 3.19921 2.85522 3.34333 2.8555C3.44766 2.85528 3.552 2.85501 3.65634 2.8547C3.94313 2.85398 4.22991 2.854 4.51671 2.85414C4.82598 2.85416 5.13525 2.85351 5.44452 2.85296C6.05047 2.85198 6.65641 2.85166 7.26236 2.8516C7.75484 2.85154 8.24733 2.8513 8.73981 2.85093C10.1358 2.8499 11.5318 2.84936 12.9278 2.84944C13.0407 2.84945 13.0407 2.84945 13.1559 2.84946C13.2312 2.84946 13.3066 2.84947 13.3842 2.84947C14.6058 2.84952 15.8274 2.8484 17.0489 2.84675C18.3029 2.84506 19.5569 2.84425 20.8109 2.84435C21.5151 2.84439 22.2192 2.84407 22.9234 2.84281C23.5228 2.84174 24.1223 2.84149 24.7218 2.84228C25.0277 2.84267 25.3336 2.84267 25.6394 2.84166C25.9195 2.84074 26.1996 2.8409 26.4797 2.84192C26.5809 2.8421 26.6822 2.84189 26.7834 2.84124C27.7509 2.83542 27.7509 2.83542 28.1835 3.10555C28.2215 3.1277 28.2595 3.14986 28.2987 3.17268C28.7278 3.43234 29.0016 3.91685 29.121 4.39461C29.1469 4.68007 29.1453 4.96512 29.1441 5.2515C29.1444 5.33889 29.1447 5.42629 29.1452 5.51368C29.1461 5.75311 29.146 5.99252 29.1457 6.23195C29.1455 6.49045 29.1464 6.74896 29.1471 7.00747C29.1483 7.51366 29.1486 8.01985 29.1485 8.52605C29.1484 8.93761 29.1486 9.34916 29.1491 9.76072C29.1492 9.87933 29.1493 9.99795 29.1494 10.1166C29.1495 10.2051 29.1495 10.2051 29.1496 10.2955C29.1507 11.4118 29.1507 12.5282 29.1503 13.6445C29.1499 14.6651 29.1512 15.6858 29.1531 16.7064C29.1551 17.7549 29.156 18.8035 29.1557 19.852C29.1556 20.4405 29.1559 21.0289 29.1573 21.6174C29.1586 22.1184 29.1588 22.6194 29.1577 23.1204C29.1571 23.3759 29.1571 23.6314 29.1583 23.8868C29.1594 24.1211 29.1591 24.3552 29.1578 24.5895C29.1575 24.6738 29.1578 24.7582 29.1586 24.8426C29.164 25.4576 29.0723 26.0101 28.6889 26.5101C28.2581 26.9306 27.816 27.1508 27.2046 27.1513C27.1399 27.1517 27.1399 27.1517 27.0739 27.1521C26.9301 27.1528 26.7862 27.1522 26.6424 27.1517C26.5379 27.1519 26.4335 27.1523 26.329 27.1527C26.0425 27.1535 25.756 27.1533 25.4695 27.1528C25.1603 27.1525 24.8511 27.1533 24.5419 27.1539C23.9364 27.1549 23.3308 27.1549 22.7253 27.1546C22.2331 27.1544 21.741 27.1545 21.2488 27.1548C21.1438 27.1549 21.1438 27.1549 21.0366 27.1549C20.8943 27.155 20.7521 27.1551 20.6098 27.1552C19.2755 27.156 17.9412 27.1557 16.6069 27.155C15.3861 27.1544 14.1653 27.1552 12.9445 27.1566C11.691 27.158 10.4376 27.1586 9.18409 27.1582C8.48034 27.158 7.77659 27.1581 7.07284 27.1591C6.47378 27.16 5.87473 27.16 5.27567 27.159C4.97003 27.1585 4.6644 27.1584 4.35876 27.1593C4.0789 27.1601 3.79906 27.1598 3.51921 27.1587C3.41803 27.1585 3.31686 27.1586 3.21569 27.1593C2.24903 27.1647 2.24903 27.1647 1.81629 26.8946C1.75927 26.8614 1.75927 26.8614 1.70109 26.8275C1.27202 26.5678 0.998172 26.0833 0.878793 25.6055C0.852917 25.3201 0.85452 25.035 0.855683 24.7487C0.855396 24.6613 0.855033 24.5739 0.854601 24.4865C0.853642 24.2471 0.853776 24.0076 0.854096 23.7682C0.854253 23.5097 0.853401 23.2512 0.852684 22.9927C0.851451 22.4865 0.851185 21.9803 0.851289 21.4741C0.851366 21.0626 0.851143 20.651 0.850707 20.2394C0.850584 20.1208 0.850462 20.0022 0.850339 19.8836C0.850278 19.8246 0.850216 19.7655 0.850153 19.7047C0.849046 18.5883 0.849107 17.472 0.849507 16.3557C0.849834 15.335 0.848614 14.3144 0.846673 13.2938C0.844695 12.2452 0.843808 11.1967 0.844079 10.1481C0.84421 9.55969 0.843905 8.97125 0.842445 8.3828C0.841212 7.88177 0.841004 7.38075 0.84211 6.87971C0.842646 6.62424 0.842717 6.36879 0.841504 6.11332C0.840404 5.8791 0.840675 5.64491 0.842004 5.41069C0.842249 5.32631 0.842007 5.24192 0.841208 5.15755C0.835802 4.54454 0.928987 3.99656 1.3036 3.49373C1.74232 3.07495 2.16718 2.85676 2.78074 2.8561ZM2.16786 3.98445C1.66462 4.63368 1.66462 4.63368 1.81629 6.15242C10.5175 6.15242 19.2186 6.15242 28.1835 6.15242C28.3352 4.63368 28.3352 4.63368 27.8319 3.98445C27.3311 3.69051 26.8127 3.71703 26.2496 3.72032C26.1485 3.72005 26.0474 3.71967 25.9463 3.71921C25.6695 3.71823 25.3927 3.71871 25.1159 3.71944C24.817 3.71997 24.5181 3.71915 24.2191 3.71851C23.634 3.71747 23.0488 3.71769 22.4636 3.71837C21.988 3.7189 21.5124 3.71897 21.0367 3.71872C20.969 3.71868 20.9013 3.71864 20.8315 3.71861C20.6939 3.71853 20.5563 3.71846 20.4187 3.71838C19.1289 3.71771 17.8391 3.71848 16.5493 3.71974C15.4429 3.72079 14.3364 3.7206 13.23 3.71952C11.9448 3.71827 10.6595 3.71778 9.3743 3.7185C9.23722 3.71857 9.10014 3.71864 8.96306 3.71872C8.89561 3.71875 8.82817 3.71879 8.75868 3.71883C8.28368 3.71903 7.80869 3.71869 7.33369 3.71813C6.75473 3.71748 6.17577 3.71766 5.59682 3.7189C5.30149 3.71952 5.00617 3.71976 4.71085 3.71899C4.44035 3.71829 4.16988 3.71867 3.89939 3.71992C3.80169 3.72018 3.70398 3.72005 3.60628 3.71948C3.08703 3.71668 2.62828 3.71424 2.16786 3.98445ZM1.81629 7.08992C1.81025 10.116 1.80421 13.1421 1.79798 16.2598C1.79532 17.2161 1.79265 18.1724 1.7899 19.1576C1.78892 20.0132 1.78892 20.0132 1.78833 20.8687C1.78806 21.2504 1.78698 21.6321 1.78536 22.0139C1.7835 22.4541 1.78265 22.8942 1.78306 23.3344C1.78323 23.5596 1.78295 23.7848 1.78137 24.01C1.77968 24.2512 1.78026 24.4923 1.78106 24.7335C1.78021 24.8037 1.77936 24.8739 1.77848 24.9462C1.78211 25.3514 1.82675 25.6518 2.10926 25.9571C2.44486 26.2145 2.75172 26.2574 3.16383 26.2578C3.20531 26.2579 3.24679 26.258 3.28953 26.2581C3.42923 26.2585 3.56894 26.2584 3.70864 26.2583C3.80954 26.2585 3.91043 26.2586 4.01132 26.2588C4.28914 26.2593 4.56695 26.2594 4.84477 26.2595C5.14417 26.2596 5.44358 26.26 5.74299 26.2604C6.39793 26.2612 7.05287 26.2616 7.70781 26.2618C8.11663 26.262 8.52545 26.2622 8.93427 26.2625C10.0658 26.2632 11.1974 26.2638 12.3289 26.264C12.4376 26.264 12.4376 26.264 12.5484 26.264C12.6573 26.2641 12.6573 26.2641 12.7685 26.2641C12.9156 26.2641 13.0628 26.2641 13.2099 26.2642C13.2829 26.2642 13.3559 26.2642 13.4311 26.2642C14.6141 26.2644 15.797 26.2654 16.98 26.2668C18.1941 26.2682 19.4081 26.2689 20.6222 26.269C21.304 26.2691 21.9859 26.2694 22.6677 26.2705C23.2483 26.2714 23.8288 26.2717 24.4094 26.2712C24.7057 26.2709 25.0019 26.271 25.2982 26.2718C25.5694 26.2726 25.8406 26.2725 26.1118 26.2718C26.2099 26.2717 26.308 26.2719 26.4061 26.2724C27.195 26.29 27.195 26.29 27.8795 25.9351C28.0919 25.6803 28.2055 25.5015 28.2051 25.165C28.2056 25.0679 28.2056 25.0679 28.2062 24.9689C28.2054 24.8629 28.2054 24.8629 28.2046 24.7547C28.2048 24.6419 28.2048 24.6419 28.2051 24.5268C28.2055 24.3177 28.2048 24.1087 28.2039 23.8997C28.2031 23.671 28.2034 23.4422 28.2035 23.2134C28.2036 22.7693 28.2028 22.3252 28.2017 21.881C28.2004 21.3674 28.2002 20.8537 28.2001 20.34C28.1992 18.9836 28.1967 17.6272 28.1945 16.2708C28.1908 13.2411 28.1872 10.2114 28.1835 7.08992C19.4823 7.08992 10.7811 7.08992 1.81629 7.08992Z" fill="#F79831"/>
<path d="M8.77449 8.95393C8.82736 8.9531 8.88023 8.95227 8.93471 8.95142C9.0946 8.96606 9.18448 8.99114 9.31648 9.08211C9.47387 9.30458 9.45165 9.55506 9.45235 9.81642C9.45294 9.86674 9.45353 9.91707 9.45414 9.96892C9.45594 10.135 9.45694 10.3012 9.45793 10.4673C9.45903 10.5826 9.46018 10.6978 9.46137 10.8131C9.46438 11.1163 9.4667 11.4196 9.46888 11.7228C9.47122 12.0323 9.47422 12.3418 9.47716 12.6513C9.48283 13.2584 9.48777 13.8656 9.49226 14.4727C9.54096 14.4882 9.58966 14.5037 9.63984 14.5197C10.1026 14.667 10.5654 14.8144 11.0281 14.9618C11.2659 15.0375 11.5038 15.1133 11.7416 15.1889C11.9718 15.2622 12.2021 15.3356 12.4323 15.4089C12.5194 15.4367 12.6065 15.4644 12.6936 15.4921C12.735 15.5053 12.7765 15.5185 12.8192 15.5321C12.8601 15.545 12.9009 15.558 12.9429 15.5714C13.0622 15.6095 13.1813 15.6482 13.3004 15.6869C13.4611 15.7389 13.6225 15.7874 13.7849 15.8339C13.8251 15.846 13.8653 15.858 13.9068 15.8705C14.0172 15.9036 14.128 15.9355 14.2388 15.9673C14.4608 16.078 14.51 16.1749 14.5899 16.4063C14.439 17.614 13.5153 18.6947 12.6234 19.4608C11.5569 20.2794 10.2903 20.7092 8.95027 20.702C8.88596 20.7016 8.82165 20.7013 8.75539 20.701C7.15386 20.6771 5.79108 20.0047 4.65851 18.9005C3.61734 17.8015 3.07977 16.3719 3.08723 14.8682C3.08757 14.7984 3.0879 14.7286 3.08824 14.6567C3.10984 13.0878 3.71209 11.7703 4.80476 10.6641C4.83815 10.6265 4.87153 10.5889 4.90593 10.5502C5.83342 9.52754 7.42053 8.96372 8.77449 8.95393ZM5.74226 11.0743C5.70306 11.1046 5.66386 11.1349 5.62347 11.1661C4.701 11.8949 4.16931 13.1256 4.02473 14.264C3.86865 15.7013 4.34162 16.9786 5.22636 18.0916C5.98374 18.9779 7.16201 19.5976 8.32039 19.7462C9.74709 19.8265 11.0674 19.5384 12.1657 18.5799C12.6348 18.1566 13.009 17.7179 13.2851 17.149C13.3129 17.0924 13.3129 17.0924 13.3414 17.0346C13.3867 16.9425 13.4317 16.8502 13.4766 16.7579C13.1789 16.6574 12.881 16.5574 12.5831 16.4576C12.5372 16.4422 12.4914 16.4268 12.4441 16.411C11.8515 16.2125 11.2576 16.0189 10.6614 15.8316C10.5737 15.804 10.5737 15.804 10.4842 15.7758C10.1963 15.6853 9.9081 15.5953 9.61969 15.506C9.51374 15.4728 9.40778 15.4396 9.30183 15.4063C9.25334 15.3915 9.20485 15.3767 9.15488 15.3615C9.11002 15.3473 9.06516 15.3331 9.01894 15.3186C8.98002 15.3065 8.9411 15.2944 8.901 15.282C8.75346 15.2193 8.66522 15.1782 8.55476 15.0587C8.53071 14.8871 8.52171 14.7372 8.52278 14.5654C8.52187 14.4899 8.52187 14.4899 8.52094 14.4129C8.51921 14.2465 8.51913 14.08 8.51906 13.9136C8.51818 13.7982 8.5172 13.6829 8.51612 13.5675C8.51356 13.2638 8.51239 12.9601 8.51151 12.6564C8.51036 12.3465 8.5079 12.0366 8.50555 11.7267C8.50114 11.1186 8.49819 10.5105 8.49617 9.90242C7.50053 9.90242 6.46491 10.4235 5.74226 11.0743Z" fill="#F79831"/>
<path d="M23.7891 15.8203C24.8139 15.8203 25.8387 15.8203 26.8945 15.8203C26.8945 18.9334 26.8945 22.0465 26.8945 25.2539C25.8697 25.2539 24.8449 25.2539 23.7891 25.2539C23.7891 22.1408 23.7891 19.0277 23.7891 15.8203ZM24.7266 16.7578C24.7266 19.2521 24.7266 21.7465 24.7266 24.3164C25.152 24.3164 25.5773 24.3164 26.0156 24.3164C26.0156 21.8221 26.0156 19.3277 26.0156 16.7578C25.5902 16.7578 25.1648 16.7578 24.7266 16.7578Z" fill="#F79831"/>
<path d="M10.8764 7.76358C10.9419 7.76471 10.9419 7.76471 11.0088 7.76586C12.5643 7.82059 13.9618 8.58173 15.0326 9.68276C16.098 10.8811 16.5894 12.4002 16.5318 13.9924C16.5172 14.2134 16.4844 14.4302 16.4464 14.6483C16.4361 14.7082 16.4361 14.7082 16.4256 14.7693C16.3708 15.0558 16.2886 15.3181 16.1718 15.5858C15.9517 15.7326 15.8475 15.7209 15.5858 15.703C15.4336 15.6661 15.2899 15.6262 15.1417 15.5777C15.0993 15.5643 15.0569 15.551 15.0133 15.5372C14.8741 15.4933 14.7353 15.4485 14.5964 15.4037C14.4988 15.3726 14.4013 15.3417 14.3037 15.3108C14.0471 15.2293 13.7907 15.1471 13.5344 15.0648C13.2755 14.9818 13.0165 14.8996 12.7574 14.8173C11.7979 14.5119 11.7979 14.5119 11.3647 14.3714C11.2171 14.3236 11.0693 14.2775 10.9209 14.2324C10.8584 14.213 10.7959 14.1936 10.7315 14.1736C10.6783 14.1575 10.625 14.1415 10.5701 14.1249C10.3914 14.0454 10.3076 13.9905 10.1952 13.828C10.1607 13.643 10.1632 13.4605 10.1649 13.2727C10.1645 13.2164 10.1641 13.1602 10.1636 13.1022C10.1626 12.9163 10.1633 12.7304 10.1641 12.5445C10.1639 12.4153 10.1637 12.2861 10.1634 12.157C10.1631 11.8863 10.1636 11.6156 10.1647 11.3449C10.166 10.9977 10.1652 10.6505 10.1638 10.3033C10.163 10.0366 10.1632 9.76993 10.1639 9.50322C10.164 9.3752 10.1638 9.24717 10.1633 9.11915C10.1627 8.94029 10.1636 8.76149 10.1649 8.58264C10.1644 8.52961 10.1639 8.47657 10.1635 8.42194C10.1683 8.06523 10.1683 8.06523 10.3016 7.8773C10.4873 7.75481 10.6612 7.75792 10.8764 7.76358ZM11.1327 8.73038C11.1327 10.2386 11.1327 11.7468 11.1327 13.3007C12.6187 13.7807 12.6187 13.7807 14.1061 14.2563C14.2094 14.2891 14.3127 14.3221 14.416 14.3551C14.5701 14.4043 14.7242 14.4534 14.8784 14.5023C14.9246 14.5171 14.9709 14.532 15.0185 14.5472C15.2392 14.6218 15.2392 14.6218 15.4687 14.6483C15.8048 13.4929 15.5265 12.229 14.9631 11.1913C14.8641 11.0298 14.7595 10.876 14.6483 10.7226C14.6106 10.6697 14.5728 10.6168 14.5339 10.5623C13.77 9.56079 12.6577 8.94391 11.4257 8.73038C11.329 8.73038 11.2323 8.73038 11.1327 8.73038Z" fill="#F79831"/>
<path d="M19.7461 18.0469C20.7709 18.0469 21.7957 18.0469 22.8516 18.0469C22.8516 20.4252 22.8516 22.8035 22.8516 25.2539C21.8268 25.2539 20.802 25.2539 19.7461 25.2539C19.7461 22.8756 19.7461 20.4973 19.7461 18.0469ZM20.6836 18.9258C20.6836 20.7047 20.6836 22.4836 20.6836 24.3164C21.109 24.3164 21.5344 24.3164 21.9727 24.3164C21.9727 22.5375 21.9727 20.7586 21.9727 18.9258C21.5473 18.9258 21.1219 18.9258 20.6836 18.9258Z" fill="#F79831"/>
<path d="M15.7031 19.5117C16.7279 19.5117 17.7527 19.5117 18.8086 19.5117C18.8086 21.4066 18.8086 23.3016 18.8086 25.2539C17.7838 25.2539 16.759 25.2539 15.7031 25.2539C15.7031 23.359 15.7031 21.4641 15.7031 19.5117ZM16.6406 20.4492C16.6406 21.7254 16.6406 23.0016 16.6406 24.3164C17.066 24.3164 17.4914 24.3164 17.9297 24.3164C17.9297 23.0402 17.9297 21.7641 17.9297 20.4492C17.5043 20.4492 17.0789 20.4492 16.6406 20.4492Z" fill="#F79831"/>
<path d="M3.51562 24.3164C5.87461 24.3164 8.23359 24.3164 10.6641 24.3164C10.6641 24.6258 10.6641 24.9352 10.6641 25.2539C8.30508 25.2539 5.94609 25.2539 3.51562 25.2539C3.51562 24.9445 3.51562 24.6352 3.51562 24.3164Z" fill="#F79831"/>
<path d="M3.51562 21.8555C5.87461 21.8555 8.23359 21.8555 10.6641 21.8555C10.6641 22.1648 10.6641 22.4742 10.6641 22.793C8.30508 22.793 5.94609 22.793 3.51562 22.793C3.51562 22.4836 3.51562 22.1742 3.51562 21.8555Z" fill="#F79831"/>
<path d="M19.3359 12.8906C21.6949 12.8906 24.0539 12.8906 26.4844 12.8906C26.4844 13.2 26.4844 13.5094 26.4844 13.8281C24.1254 13.8281 21.7664 13.8281 19.3359 13.8281C19.3359 13.5188 19.3359 13.2094 19.3359 12.8906Z" fill="#F79831"/>
<path d="M19.3359 10.1953C21.6949 10.1953 24.0539 10.1953 26.4844 10.1953C26.4844 10.5047 26.4844 10.8141 26.4844 11.1328C24.1254 11.1328 21.7664 11.1328 19.3359 11.1328C19.3359 10.8234 19.3359 10.5141 19.3359 10.1953Z" fill="#F79831"/>
<path d="M19.3359 7.73438C21.6949 7.73438 24.0539 7.73438 26.4844 7.73438C26.4844 8.04375 26.4844 8.35312 26.4844 8.67188C24.1254 8.67188 21.7664 8.67188 19.3359 8.67188C19.3359 8.3625 19.3359 8.05312 19.3359 7.73438Z" fill="#F79831"/>
<path d="M3.51562 4.27734C4.23105 4.27734 4.94648 4.27734 5.68359 4.27734C5.68359 4.58672 5.68359 4.89609 5.68359 5.21484C4.96816 5.21484 4.25273 5.21484 3.51562 5.21484C3.51562 4.90547 3.51562 4.59609 3.51562 4.27734Z" fill="#F79831"/>
</svg>
