<svg width="164" height="95" viewBox="0 0 164 95" fill="none" xmlns="http://www.w3.org/2000/svg">
<mask id="path-1-inside-1_87_14819" fill="white">
<path d="M30.5673 0.0625594C31.0761 0.0616109 31.5848 0.0604434 32.0935 0.0590765C33.4879 0.0559789 34.8823 0.0560397 36.2767 0.0566385C37.782 0.0567422 39.2873 0.0539407 40.7926 0.051536C43.7406 0.047325 46.6885 0.0459278 49.6365 0.0456448C52.0333 0.0454036 54.4302 0.0443604 56.8271 0.0427527C63.6257 0.0382857 70.4244 0.0359446 77.2231 0.0363252C77.7727 0.0363556 77.7727 0.0363556 78.3334 0.0363866C78.7002 0.0364074 79.0671 0.0364281 79.4451 0.0364495C85.3889 0.0366556 91.3327 0.0318018 97.2765 0.024648C103.383 0.0173568 109.489 0.0138573 115.595 0.0142954C119.022 0.0144637 122.449 0.0130758 125.876 0.00760986C128.794 0.00298532 131.712 0.00189147 134.63 0.00533168C136.117 0.00698557 137.605 0.00702658 139.093 0.00261584C140.457 -0.00138658 141.821 -0.000635742 143.185 0.00377464C143.677 0.0045507 144.168 0.00364216 144.659 0.000801683C150.185 -0.0290032 154.597 1.14257 158.678 4.13746C162.229 7.08879 163.988 10.6647 163.954 14.719C163.957 15.0987 163.957 15.0987 163.96 15.4862C163.964 16.3263 163.962 17.1664 163.96 18.0066C163.961 18.6123 163.964 19.218 163.966 19.8236C163.971 21.293 163.972 22.7624 163.97 24.2319C163.969 25.4269 163.97 26.622 163.971 27.817C163.971 27.9876 163.972 28.1582 163.972 28.334C163.972 28.6806 163.973 29.0273 163.973 29.3739C163.978 32.6184 163.976 35.8629 163.972 39.1074C163.969 42.0711 163.973 45.0347 163.981 47.9983C163.989 51.0474 163.992 54.0965 163.99 57.1456C163.989 58.855 163.989 60.5645 163.995 62.2739C164 63.8813 163.999 65.4886 163.993 67.0959C163.991 67.6846 163.992 68.2733 163.996 68.8619C164 69.6679 163.996 70.4736 163.991 71.2796C163.994 71.5104 163.997 71.7411 164 71.9789C163.96 74.7818 162.566 77.4342 160.099 79.4543C154.992 83.079 149.151 83.3809 142.597 83.3444C142.102 83.3426 141.607 83.341 141.112 83.3395C140.04 83.336 138.968 83.3317 137.896 83.3268C136.151 83.3188 134.406 83.3128 132.661 83.3071C132.21 83.3056 132.21 83.3056 131.749 83.3041C131.13 83.302 130.511 83.3 129.891 83.298C128.934 83.2948 127.976 83.2915 127.018 83.2881C122.349 83.2718 117.681 83.2619 113.012 83.2559C112.504 83.2553 112.504 83.2553 111.986 83.2546C108.844 83.2505 105.703 83.2469 102.561 83.2436C100.408 83.2413 98.2556 83.2388 96.103 83.2361C95.7455 83.2357 95.388 83.2352 95.0197 83.2347C89.2407 83.2271 83.4619 83.2058 77.683 83.1797C71.7358 83.1532 65.7889 83.1423 59.8417 83.1454C56.1818 83.1468 52.5227 83.1363 48.863 83.1098C46.3477 83.0928 43.8327 83.091 41.3173 83.1006C39.8712 83.1057 38.4263 83.1047 36.9803 83.0852C29.5098 82.9902 24.4285 83.8507 18.1706 87.1765C17.0176 87.7808 15.824 88.3026 14.6016 88.812C13.9075 89.1149 13.2134 89.4177 12.5193 89.7207C12.3344 89.8013 12.1495 89.8819 11.959 89.965C9.90001 90.8636 7.84599 91.7684 5.80341 92.6903C5.46121 92.8447 5.11901 92.9992 4.76644 93.1583C4.12374 93.4492 3.48176 93.7411 2.84061 94.0341C2.41765 94.2258 2.41765 94.2258 1.98613 94.4213C1.74022 94.5337 1.49431 94.646 1.24094 94.7617C0.639962 95 0.639962 95 0 95C0.203041 93.3453 0.836409 91.8477 1.49866 90.2755C1.61846 89.987 1.73826 89.6985 1.86169 89.4013C2.24598 88.4768 2.6328 87.5529 3.01982 86.6292C3.26894 86.0317 3.51789 85.4342 3.76665 84.8367C3.88346 84.557 4.00027 84.2774 4.12062 83.9892C4.37485 83.3765 4.62641 82.7631 4.87447 82.1488C5.49349 80.6258 6.13484 79.1369 6.92019 77.6614C10.021 71.5375 9.70606 65.3437 9.62636 58.8373C9.61036 57.2193 9.61392 55.6013 9.61553 53.9832C9.6159 51.2734 9.60616 48.5638 9.58724 45.8541C9.5679 43.076 9.55172 40.298 9.54194 37.5199C9.54133 37.3481 9.54072 37.1762 9.54009 36.9991C9.53016 34.127 9.52551 31.2549 9.52306 28.3828C9.52078 26.4644 9.51094 24.5462 9.4947 22.628C9.48568 21.4355 9.48182 20.2431 9.47915 19.0507C9.47678 18.5006 9.47219 17.9506 9.46516 17.4006C9.41491 13.3604 9.7855 10.137 12.7992 6.72561C12.9832 6.51438 13.1672 6.30314 13.3567 6.08551C17.6781 1.46568 23.6441 0.050329 30.5673 0.0625594ZM23.5986 10.8318C23.3396 11.0132 23.0805 11.1947 22.8137 11.3817C21.0724 12.971 20.609 14.4401 20.6341 16.5112C20.6319 16.7481 20.6296 16.9849 20.6274 17.2289C20.6215 18.0184 20.6248 18.8076 20.6281 19.5971C20.6258 20.1647 20.623 20.7324 20.6197 21.3C20.6125 22.8387 20.6135 24.3773 20.6163 25.916C20.6179 27.2008 20.6156 28.4856 20.6133 29.7703C20.6075 32.9737 20.6096 36.1771 20.6152 39.3805C20.62 42.1613 20.6153 44.9421 20.606 47.7229C20.5966 50.5808 20.5933 53.4387 20.5962 56.2966C20.5978 57.9001 20.597 59.5036 20.5905 61.1071C20.5846 62.6141 20.5865 64.121 20.5944 65.628C20.596 66.1812 20.5949 66.7344 20.5908 67.2876C20.5857 68.0425 20.5905 68.7969 20.5978 69.5517C20.594 69.771 20.5902 69.9902 20.5863 70.216C20.6092 71.3879 20.7547 72.255 21.8568 73.1328C24.3811 74.5578 27.7047 74.3074 30.6572 74.2963C31.1679 74.2972 31.6785 74.2984 32.1891 74.2999C33.5858 74.3031 34.9825 74.3016 36.3792 74.2992C37.8879 74.2975 39.3966 74.3001 40.9054 74.3022C43.8582 74.3056 46.8109 74.3049 49.7637 74.3027C52.1633 74.3009 54.5629 74.3007 56.9625 74.3015C57.3043 74.3017 57.646 74.3018 57.998 74.3019C58.6922 74.3021 59.3864 74.3024 60.0806 74.3026C66.5868 74.3048 73.093 74.3023 79.5992 74.2982C85.182 74.2948 90.7648 74.2954 96.3477 74.2989C102.832 74.303 109.317 74.3046 115.802 74.3023C116.493 74.302 117.184 74.3018 117.876 74.3015C118.216 74.3014 118.556 74.3013 118.906 74.3012C121.304 74.3005 123.701 74.3016 126.098 74.3034C129.019 74.3056 131.939 74.305 134.86 74.3009C136.35 74.2989 137.84 74.2981 139.33 74.3007C140.694 74.3029 142.058 74.3017 143.422 74.2976C143.916 74.2968 144.409 74.2972 144.903 74.2991C145.574 74.3014 146.245 74.299 146.916 74.2955C147.288 74.2954 147.661 74.2952 148.045 74.2951C149.645 74.1519 150.893 73.7571 152.121 72.904C152.843 71.8648 152.809 70.9875 152.794 69.8184C152.796 69.5806 152.798 69.3429 152.8 69.098C152.805 68.3009 152.801 67.5041 152.797 66.707C152.798 66.1357 152.801 65.5645 152.803 64.9932C152.809 63.4408 152.807 61.8884 152.803 60.336C152.8 58.7114 152.803 57.0868 152.805 55.4622C152.807 52.5577 152.803 49.6533 152.797 46.7489C152.791 44.1183 152.792 41.4878 152.798 38.8572C152.805 35.8006 152.807 32.744 152.803 29.6874C152.801 28.0701 152.801 26.4528 152.805 24.8355C152.809 23.3139 152.807 21.7924 152.799 20.2709C152.797 19.7131 152.798 19.1553 152.801 18.5975C152.804 17.8346 152.8 17.0719 152.794 16.309C152.796 16.0896 152.799 15.8701 152.802 15.6439C152.769 13.591 151.895 11.7655 150.071 10.2769C148.263 9.20186 147.088 8.97719 144.862 8.97523C144.446 8.97425 144.031 8.97328 143.603 8.97228C143.14 8.97247 142.678 8.9727 142.216 8.97294C141.725 8.97229 141.235 8.97152 140.745 8.97066C139.396 8.96861 138.046 8.96816 136.697 8.96797C135.242 8.9675 133.788 8.96559 132.333 8.96388C129.152 8.96043 125.971 8.9589 122.79 8.95779C120.804 8.95709 118.818 8.95601 116.832 8.95487C111.334 8.95178 105.836 8.94916 100.339 8.9483C99.811 8.94822 99.811 8.94822 99.2725 8.94814C98.9197 8.94808 98.567 8.94802 98.2035 8.94797C97.4887 8.94785 96.7738 8.94774 96.059 8.94763C95.5271 8.94754 95.5271 8.94754 94.9845 8.94746C89.2382 8.94646 83.4918 8.94203 77.7455 8.93612C71.8473 8.93011 65.9491 8.92695 60.0509 8.92665C56.7387 8.92642 53.4265 8.92496 50.1143 8.92035C47.294 8.91645 44.4738 8.91515 41.6535 8.91724C40.2145 8.91824 38.7755 8.918 37.3365 8.91444C36.0188 8.91121 34.7011 8.91151 33.3834 8.91459C32.9071 8.91509 32.4308 8.9143 31.9544 8.91209C28.6373 8.89768 26.1497 8.98881 23.5986 10.8318Z"/>
</mask>
<path d="M30.5673 0.0625594C31.0761 0.0616109 31.5848 0.0604434 32.0935 0.0590765C33.4879 0.0559789 34.8823 0.0560397 36.2767 0.0566385C37.782 0.0567422 39.2873 0.0539407 40.7926 0.051536C43.7406 0.047325 46.6885 0.0459278 49.6365 0.0456448C52.0333 0.0454036 54.4302 0.0443604 56.8271 0.0427527C63.6257 0.0382857 70.4244 0.0359446 77.2231 0.0363252C77.7727 0.0363556 77.7727 0.0363556 78.3334 0.0363866C78.7002 0.0364074 79.0671 0.0364281 79.4451 0.0364495C85.3889 0.0366556 91.3327 0.0318018 97.2765 0.024648C103.383 0.0173568 109.489 0.0138573 115.595 0.0142954C119.022 0.0144637 122.449 0.0130758 125.876 0.00760986C128.794 0.00298532 131.712 0.00189147 134.63 0.00533168C136.117 0.00698557 137.605 0.00702658 139.093 0.00261584C140.457 -0.00138658 141.821 -0.000635742 143.185 0.00377464C143.677 0.0045507 144.168 0.00364216 144.659 0.000801683C150.185 -0.0290032 154.597 1.14257 158.678 4.13746C162.229 7.08879 163.988 10.6647 163.954 14.719C163.957 15.0987 163.957 15.0987 163.96 15.4862C163.964 16.3263 163.962 17.1664 163.96 18.0066C163.961 18.6123 163.964 19.218 163.966 19.8236C163.971 21.293 163.972 22.7624 163.97 24.2319C163.969 25.4269 163.97 26.622 163.971 27.817C163.971 27.9876 163.972 28.1582 163.972 28.334C163.972 28.6806 163.973 29.0273 163.973 29.3739C163.978 32.6184 163.976 35.8629 163.972 39.1074C163.969 42.0711 163.973 45.0347 163.981 47.9983C163.989 51.0474 163.992 54.0965 163.99 57.1456C163.989 58.855 163.989 60.5645 163.995 62.2739C164 63.8813 163.999 65.4886 163.993 67.0959C163.991 67.6846 163.992 68.2733 163.996 68.8619C164 69.6679 163.996 70.4736 163.991 71.2796C163.994 71.5104 163.997 71.7411 164 71.9789C163.96 74.7818 162.566 77.4342 160.099 79.4543C154.992 83.079 149.151 83.3809 142.597 83.3444C142.102 83.3426 141.607 83.341 141.112 83.3395C140.04 83.336 138.968 83.3317 137.896 83.3268C136.151 83.3188 134.406 83.3128 132.661 83.3071C132.21 83.3056 132.21 83.3056 131.749 83.3041C131.13 83.302 130.511 83.3 129.891 83.298C128.934 83.2948 127.976 83.2915 127.018 83.2881C122.349 83.2718 117.681 83.2619 113.012 83.2559C112.504 83.2553 112.504 83.2553 111.986 83.2546C108.844 83.2505 105.703 83.2469 102.561 83.2436C100.408 83.2413 98.2556 83.2388 96.103 83.2361C95.7455 83.2357 95.388 83.2352 95.0197 83.2347C89.2407 83.2271 83.4619 83.2058 77.683 83.1797C71.7358 83.1532 65.7889 83.1423 59.8417 83.1454C56.1818 83.1468 52.5227 83.1363 48.863 83.1098C46.3477 83.0928 43.8327 83.091 41.3173 83.1006C39.8712 83.1057 38.4263 83.1047 36.9803 83.0852C29.5098 82.9902 24.4285 83.8507 18.1706 87.1765C17.0176 87.7808 15.824 88.3026 14.6016 88.812C13.9075 89.1149 13.2134 89.4177 12.5193 89.7207C12.3344 89.8013 12.1495 89.8819 11.959 89.965C9.90001 90.8636 7.84599 91.7684 5.80341 92.6903C5.46121 92.8447 5.11901 92.9992 4.76644 93.1583C4.12374 93.4492 3.48176 93.7411 2.84061 94.0341C2.41765 94.2258 2.41765 94.2258 1.98613 94.4213C1.74022 94.5337 1.49431 94.646 1.24094 94.7617C0.639962 95 0.639962 95 0 95C0.203041 93.3453 0.836409 91.8477 1.49866 90.2755C1.61846 89.987 1.73826 89.6985 1.86169 89.4013C2.24598 88.4768 2.6328 87.5529 3.01982 86.6292C3.26894 86.0317 3.51789 85.4342 3.76665 84.8367C3.88346 84.557 4.00027 84.2774 4.12062 83.9892C4.37485 83.3765 4.62641 82.7631 4.87447 82.1488C5.49349 80.6258 6.13484 79.1369 6.92019 77.6614C10.021 71.5375 9.70606 65.3437 9.62636 58.8373C9.61036 57.2193 9.61392 55.6013 9.61553 53.9832C9.6159 51.2734 9.60616 48.5638 9.58724 45.8541C9.5679 43.076 9.55172 40.298 9.54194 37.5199C9.54133 37.3481 9.54072 37.1762 9.54009 36.9991C9.53016 34.127 9.52551 31.2549 9.52306 28.3828C9.52078 26.4644 9.51094 24.5462 9.4947 22.628C9.48568 21.4355 9.48182 20.2431 9.47915 19.0507C9.47678 18.5006 9.47219 17.9506 9.46516 17.4006C9.41491 13.3604 9.7855 10.137 12.7992 6.72561C12.9832 6.51438 13.1672 6.30314 13.3567 6.08551C17.6781 1.46568 23.6441 0.050329 30.5673 0.0625594ZM23.5986 10.8318C23.3396 11.0132 23.0805 11.1947 22.8137 11.3817C21.0724 12.971 20.609 14.4401 20.6341 16.5112C20.6319 16.7481 20.6296 16.9849 20.6274 17.2289C20.6215 18.0184 20.6248 18.8076 20.6281 19.5971C20.6258 20.1647 20.623 20.7324 20.6197 21.3C20.6125 22.8387 20.6135 24.3773 20.6163 25.916C20.6179 27.2008 20.6156 28.4856 20.6133 29.7703C20.6075 32.9737 20.6096 36.1771 20.6152 39.3805C20.62 42.1613 20.6153 44.9421 20.606 47.7229C20.5966 50.5808 20.5933 53.4387 20.5962 56.2966C20.5978 57.9001 20.597 59.5036 20.5905 61.1071C20.5846 62.6141 20.5865 64.121 20.5944 65.628C20.596 66.1812 20.5949 66.7344 20.5908 67.2876C20.5857 68.0425 20.5905 68.7969 20.5978 69.5517C20.594 69.771 20.5902 69.9902 20.5863 70.216C20.6092 71.3879 20.7547 72.255 21.8568 73.1328C24.3811 74.5578 27.7047 74.3074 30.6572 74.2963C31.1679 74.2972 31.6785 74.2984 32.1891 74.2999C33.5858 74.3031 34.9825 74.3016 36.3792 74.2992C37.8879 74.2975 39.3966 74.3001 40.9054 74.3022C43.8582 74.3056 46.8109 74.3049 49.7637 74.3027C52.1633 74.3009 54.5629 74.3007 56.9625 74.3015C57.3043 74.3017 57.646 74.3018 57.998 74.3019C58.6922 74.3021 59.3864 74.3024 60.0806 74.3026C66.5868 74.3048 73.093 74.3023 79.5992 74.2982C85.182 74.2948 90.7648 74.2954 96.3477 74.2989C102.832 74.303 109.317 74.3046 115.802 74.3023C116.493 74.302 117.184 74.3018 117.876 74.3015C118.216 74.3014 118.556 74.3013 118.906 74.3012C121.304 74.3005 123.701 74.3016 126.098 74.3034C129.019 74.3056 131.939 74.305 134.86 74.3009C136.35 74.2989 137.84 74.2981 139.33 74.3007C140.694 74.3029 142.058 74.3017 143.422 74.2976C143.916 74.2968 144.409 74.2972 144.903 74.2991C145.574 74.3014 146.245 74.299 146.916 74.2955C147.288 74.2954 147.661 74.2952 148.045 74.2951C149.645 74.1519 150.893 73.7571 152.121 72.904C152.843 71.8648 152.809 70.9875 152.794 69.8184C152.796 69.5806 152.798 69.3429 152.8 69.098C152.805 68.3009 152.801 67.5041 152.797 66.707C152.798 66.1357 152.801 65.5645 152.803 64.9932C152.809 63.4408 152.807 61.8884 152.803 60.336C152.8 58.7114 152.803 57.0868 152.805 55.4622C152.807 52.5577 152.803 49.6533 152.797 46.7489C152.791 44.1183 152.792 41.4878 152.798 38.8572C152.805 35.8006 152.807 32.744 152.803 29.6874C152.801 28.0701 152.801 26.4528 152.805 24.8355C152.809 23.3139 152.807 21.7924 152.799 20.2709C152.797 19.7131 152.798 19.1553 152.801 18.5975C152.804 17.8346 152.8 17.0719 152.794 16.309C152.796 16.0896 152.799 15.8701 152.802 15.6439C152.769 13.591 151.895 11.7655 150.071 10.2769C148.263 9.20186 147.088 8.97719 144.862 8.97523C144.446 8.97425 144.031 8.97328 143.603 8.97228C143.14 8.97247 142.678 8.9727 142.216 8.97294C141.725 8.97229 141.235 8.97152 140.745 8.97066C139.396 8.96861 138.046 8.96816 136.697 8.96797C135.242 8.9675 133.788 8.96559 132.333 8.96388C129.152 8.96043 125.971 8.9589 122.79 8.95779C120.804 8.95709 118.818 8.95601 116.832 8.95487C111.334 8.95178 105.836 8.94916 100.339 8.9483C99.811 8.94822 99.811 8.94822 99.2725 8.94814C98.9197 8.94808 98.567 8.94802 98.2035 8.94797C97.4887 8.94785 96.7738 8.94774 96.059 8.94763C95.5271 8.94754 95.5271 8.94754 94.9845 8.94746C89.2382 8.94646 83.4918 8.94203 77.7455 8.93612C71.8473 8.93011 65.9491 8.92695 60.0509 8.92665C56.7387 8.92642 53.4265 8.92496 50.1143 8.92035C47.294 8.91645 44.4738 8.91515 41.6535 8.91724C40.2145 8.91824 38.7755 8.918 37.3365 8.91444C36.0188 8.91121 34.7011 8.91151 33.3834 8.91459C32.9071 8.91509 32.4308 8.9143 31.9544 8.91209C28.6373 8.89768 26.1497 8.98881 23.5986 10.8318Z" stroke="#034B3B" stroke-width="4" mask="url(#path-1-inside-1_87_14819)"/>
<path opacity="0.8" d="M28.6133 19.0469L31.1973 24.0439L33.7881 19.0469H35.2852L31.8535 25.2812V29H30.5342V25.2812L27.1025 19.0469H28.6133ZM35.5859 25.3838V25.2266C35.5859 24.6934 35.6634 24.1989 35.8184 23.7432C35.9733 23.2829 36.1966 22.8841 36.4883 22.5469C36.7799 22.2051 37.1331 21.9408 37.5479 21.7539C37.9626 21.5625 38.4274 21.4668 38.9424 21.4668C39.4619 21.4668 39.929 21.5625 40.3438 21.7539C40.763 21.9408 41.1185 22.2051 41.4102 22.5469C41.7064 22.8841 41.932 23.2829 42.0869 23.7432C42.2419 24.1989 42.3193 24.6934 42.3193 25.2266V25.3838C42.3193 25.917 42.2419 26.4115 42.0869 26.8672C41.932 27.3229 41.7064 27.7217 41.4102 28.0635C41.1185 28.4007 40.7653 28.665 40.3506 28.8564C39.9404 29.0433 39.4756 29.1367 38.9561 29.1367C38.4365 29.1367 37.9694 29.0433 37.5547 28.8564C37.14 28.665 36.7845 28.4007 36.4883 28.0635C36.1966 27.7217 35.9733 27.3229 35.8184 26.8672C35.6634 26.4115 35.5859 25.917 35.5859 25.3838ZM36.8506 25.2266V25.3838C36.8506 25.7529 36.8939 26.1016 36.9805 26.4297C37.0671 26.7533 37.1969 27.0404 37.3701 27.291C37.5479 27.5417 37.7689 27.7399 38.0332 27.8857C38.2975 28.027 38.6051 28.0977 38.9561 28.0977C39.3024 28.0977 39.6055 28.027 39.8652 27.8857C40.1296 27.7399 40.3483 27.5417 40.5215 27.291C40.6947 27.0404 40.8245 26.7533 40.9111 26.4297C41.0023 26.1016 41.0479 25.7529 41.0479 25.3838V25.2266C41.0479 24.862 41.0023 24.5179 40.9111 24.1943C40.8245 23.8662 40.6924 23.5768 40.5146 23.3262C40.3415 23.071 40.1227 22.8704 39.8584 22.7246C39.5986 22.5788 39.2933 22.5059 38.9424 22.5059C38.596 22.5059 38.2907 22.5788 38.0264 22.7246C37.7666 22.8704 37.5479 23.071 37.3701 23.3262C37.1969 23.5768 37.0671 23.8662 36.9805 24.1943C36.8939 24.5179 36.8506 24.862 36.8506 25.2266ZM48.4307 27.291V21.6035H49.7021V29H48.4922L48.4307 27.291ZM48.6699 25.7324L49.1963 25.7188C49.1963 26.2109 49.1439 26.6667 49.0391 27.0859C48.9388 27.5007 48.7747 27.8607 48.5469 28.166C48.319 28.4714 48.0205 28.7106 47.6514 28.8838C47.2822 29.0524 46.8333 29.1367 46.3047 29.1367C45.9447 29.1367 45.6143 29.0843 45.3135 28.9795C45.0173 28.8747 44.762 28.7129 44.5479 28.4941C44.3337 28.2754 44.1673 27.9906 44.0488 27.6396C43.9349 27.2887 43.8779 26.8672 43.8779 26.375V21.6035H45.1426V26.3887C45.1426 26.7214 45.179 26.9971 45.252 27.2158C45.3294 27.43 45.432 27.6009 45.5596 27.7285C45.6917 27.8516 45.8376 27.9382 45.9971 27.9883C46.1611 28.0384 46.3298 28.0635 46.5029 28.0635C47.0407 28.0635 47.4668 27.9609 47.7812 27.7559C48.0957 27.5462 48.3213 27.266 48.458 26.915C48.5993 26.5596 48.6699 26.1654 48.6699 25.7324ZM52.9902 18.5V19.375C52.9902 19.6484 52.9424 19.9378 52.8467 20.2432C52.7555 20.5439 52.6211 20.8356 52.4434 21.1182C52.2656 21.3962 52.0514 21.64 51.8008 21.8496L51.0762 21.3506C51.2904 21.0498 51.4521 20.7422 51.5615 20.4277C51.6755 20.1087 51.7324 19.7646 51.7324 19.3955V18.5H52.9902ZM55.0889 18.5V19.375C55.0889 19.6484 55.041 19.9378 54.9453 20.2432C54.8542 20.5439 54.7197 20.8356 54.542 21.1182C54.3643 21.3962 54.1501 21.64 53.8994 21.8496L53.1748 21.3506C53.389 21.0498 53.5508 20.7422 53.6602 20.4277C53.7741 20.1087 53.8311 19.7646 53.8311 19.3955V18.5H55.0889ZM58.0078 18.5V29H56.7363V18.5H58.0078ZM61.4121 18.5V29H60.1406V18.5H61.4121ZM66.9082 18.5H68.1797V27.5645L68.0703 29H66.9082V18.5ZM73.1768 25.2402V25.3838C73.1768 25.9215 73.113 26.4206 72.9854 26.8809C72.8577 27.3366 72.6709 27.7331 72.4248 28.0703C72.1787 28.4076 71.8779 28.6696 71.5225 28.8564C71.167 29.0433 70.7591 29.1367 70.2988 29.1367C69.8294 29.1367 69.417 29.057 69.0615 28.8975C68.7106 28.7334 68.4144 28.4987 68.1729 28.1934C67.9313 27.888 67.7376 27.5189 67.5918 27.0859C67.4505 26.653 67.3525 26.1654 67.2979 25.623V24.9941C67.3525 24.4473 67.4505 23.9574 67.5918 23.5244C67.7376 23.0915 67.9313 22.7223 68.1729 22.417C68.4144 22.1071 68.7106 21.8724 69.0615 21.7129C69.4124 21.5488 69.8203 21.4668 70.2852 21.4668C70.75 21.4668 71.1624 21.5579 71.5225 21.7402C71.8825 21.918 72.1833 22.1732 72.4248 22.5059C72.6709 22.8385 72.8577 23.2373 72.9854 23.7021C73.113 24.1624 73.1768 24.6751 73.1768 25.2402ZM71.9053 25.3838V25.2402C71.9053 24.8711 71.8711 24.5247 71.8027 24.2012C71.7344 23.873 71.625 23.5859 71.4746 23.3398C71.3242 23.0892 71.126 22.8932 70.8799 22.752C70.6338 22.6061 70.3307 22.5332 69.9707 22.5332C69.6517 22.5332 69.3737 22.5879 69.1367 22.6973C68.9043 22.8066 68.7061 22.9548 68.542 23.1416C68.3779 23.3239 68.2435 23.5335 68.1387 23.7705C68.0384 24.0029 67.9632 24.2445 67.9131 24.4951V26.1426C67.986 26.4616 68.1045 26.7692 68.2686 27.0654C68.4372 27.3571 68.6605 27.5964 68.9385 27.7832C69.221 27.9701 69.5697 28.0635 69.9844 28.0635C70.3262 28.0635 70.6178 27.9951 70.8594 27.8584C71.1055 27.7171 71.3037 27.5234 71.4541 27.2773C71.609 27.0312 71.723 26.7464 71.7959 26.4229C71.8688 26.0993 71.9053 25.7529 71.9053 25.3838ZM77.8457 29.1367C77.3307 29.1367 76.8636 29.0501 76.4443 28.877C76.0296 28.6992 75.6719 28.4508 75.3711 28.1318C75.0749 27.8128 74.847 27.4346 74.6875 26.9971C74.528 26.5596 74.4482 26.0811 74.4482 25.5615V25.2744C74.4482 24.6729 74.5371 24.1374 74.7148 23.668C74.8926 23.194 75.1341 22.793 75.4395 22.4648C75.7448 22.1367 76.0911 21.8883 76.4785 21.7197C76.8659 21.5511 77.2669 21.4668 77.6816 21.4668C78.2103 21.4668 78.666 21.5579 79.0488 21.7402C79.4362 21.9225 79.7529 22.1777 79.999 22.5059C80.2451 22.8294 80.4274 23.2122 80.5459 23.6543C80.6644 24.0918 80.7236 24.5703 80.7236 25.0898V25.6572H75.2002V24.625H79.459V24.5293C79.4408 24.2012 79.3724 23.8822 79.2539 23.5723C79.14 23.2624 78.9577 23.0072 78.707 22.8066C78.4564 22.6061 78.1146 22.5059 77.6816 22.5059C77.3945 22.5059 77.1302 22.5674 76.8887 22.6904C76.6471 22.8089 76.4398 22.9867 76.2666 23.2236C76.0934 23.4606 75.959 23.75 75.8633 24.0918C75.7676 24.4336 75.7197 24.8278 75.7197 25.2744V25.5615C75.7197 25.9124 75.7676 26.2428 75.8633 26.5527C75.9635 26.8581 76.1071 27.127 76.2939 27.3594C76.4854 27.5918 76.7155 27.7741 76.9844 27.9062C77.2578 28.0384 77.5677 28.1045 77.9141 28.1045C78.3607 28.1045 78.7389 28.0133 79.0488 27.8311C79.3587 27.6488 79.6299 27.4049 79.8623 27.0996L80.6279 27.708C80.4684 27.9495 80.2656 28.1797 80.0195 28.3984C79.7734 28.6172 79.4704 28.7949 79.1104 28.9316C78.7549 29.0684 78.3333 29.1367 77.8457 29.1367ZM89.6924 18.9922V29H88.4277V20.5713L85.8779 21.501V20.3594L89.4941 18.9922H89.6924ZM99.9326 27.9609V29H93.418V28.0908L96.6787 24.4609C97.0798 24.0143 97.3896 23.6361 97.6084 23.3262C97.8317 23.0117 97.9867 22.7314 98.0732 22.4854C98.1644 22.2347 98.21 21.9795 98.21 21.7197C98.21 21.3916 98.1416 21.0954 98.0049 20.8311C97.8727 20.5622 97.6768 20.348 97.417 20.1885C97.1572 20.029 96.8428 19.9492 96.4736 19.9492C96.0316 19.9492 95.6624 20.0358 95.3662 20.209C95.0745 20.3776 94.8558 20.6146 94.71 20.9199C94.5641 21.2253 94.4912 21.5762 94.4912 21.9727H93.2266C93.2266 21.4121 93.3496 20.8994 93.5957 20.4346C93.8418 19.9697 94.2064 19.6006 94.6895 19.3271C95.1725 19.0492 95.7673 18.9102 96.4736 18.9102C97.1025 18.9102 97.6403 19.0218 98.0869 19.2451C98.5335 19.4639 98.8753 19.7738 99.1123 20.1748C99.3538 20.5713 99.4746 21.0361 99.4746 21.5693C99.4746 21.861 99.4245 22.1572 99.3242 22.458C99.2285 22.7542 99.0941 23.0505 98.9209 23.3467C98.7523 23.6429 98.554 23.9346 98.3262 24.2217C98.1029 24.5088 97.8636 24.7913 97.6084 25.0693L94.9424 27.9609H99.9326ZM102.277 21.6035L103.897 24.2969L105.538 21.6035H107.021L104.602 25.2539L107.097 29H105.634L103.925 26.2246L102.216 29H100.746L103.234 25.2539L100.821 21.6035H102.277ZM113.099 23.0732V29H111.827V21.6035H113.03L113.099 23.0732ZM112.839 25.0215L112.251 25.001C112.256 24.4951 112.322 24.028 112.449 23.5996C112.577 23.1667 112.766 22.7907 113.017 22.4717C113.267 22.1527 113.579 21.9066 113.953 21.7334C114.327 21.5557 114.76 21.4668 115.252 21.4668C115.598 21.4668 115.917 21.5169 116.209 21.6172C116.501 21.7129 116.754 21.8656 116.968 22.0752C117.182 22.2848 117.348 22.5537 117.467 22.8818C117.585 23.21 117.645 23.6064 117.645 24.0713V29H116.38V24.1328C116.38 23.7454 116.314 23.4355 116.182 23.2031C116.054 22.9707 115.872 22.8021 115.635 22.6973C115.398 22.5879 115.12 22.5332 114.801 22.5332C114.427 22.5332 114.115 22.5993 113.864 22.7314C113.614 22.8636 113.413 23.0459 113.263 23.2783C113.112 23.5107 113.003 23.7773 112.935 24.0781C112.871 24.3743 112.839 24.6888 112.839 25.0215ZM117.631 24.3242L116.783 24.584C116.788 24.1784 116.854 23.7887 116.981 23.415C117.114 23.0413 117.303 22.7087 117.549 22.417C117.799 22.1253 118.107 21.8952 118.472 21.7266C118.836 21.5534 119.253 21.4668 119.723 21.4668C120.119 21.4668 120.47 21.5192 120.775 21.624C121.085 21.7288 121.345 21.8906 121.555 22.1094C121.769 22.3236 121.931 22.5993 122.04 22.9365C122.149 23.2738 122.204 23.6748 122.204 24.1396V29H120.933V24.126C120.933 23.7113 120.867 23.39 120.734 23.1621C120.607 22.9297 120.424 22.7679 120.188 22.6768C119.955 22.5811 119.677 22.5332 119.354 22.5332C119.076 22.5332 118.829 22.5811 118.615 22.6768C118.401 22.7725 118.221 22.9046 118.075 23.0732C117.929 23.2373 117.818 23.4264 117.74 23.6406C117.667 23.8548 117.631 24.0827 117.631 24.3242ZM123.783 25.3838V25.2266C123.783 24.6934 123.861 24.1989 124.016 23.7432C124.171 23.2829 124.394 22.8841 124.686 22.5469C124.977 22.2051 125.33 21.9408 125.745 21.7539C126.16 21.5625 126.625 21.4668 127.14 21.4668C127.659 21.4668 128.126 21.5625 128.541 21.7539C128.96 21.9408 129.316 22.2051 129.607 22.5469C129.904 22.8841 130.129 23.2829 130.284 23.7432C130.439 24.1989 130.517 24.6934 130.517 25.2266V25.3838C130.517 25.917 130.439 26.4115 130.284 26.8672C130.129 27.3229 129.904 27.7217 129.607 28.0635C129.316 28.4007 128.963 28.665 128.548 28.8564C128.138 29.0433 127.673 29.1367 127.153 29.1367C126.634 29.1367 126.167 29.0433 125.752 28.8564C125.337 28.665 124.982 28.4007 124.686 28.0635C124.394 27.7217 124.171 27.3229 124.016 26.8672C123.861 26.4115 123.783 25.917 123.783 25.3838ZM125.048 25.2266V25.3838C125.048 25.7529 125.091 26.1016 125.178 26.4297C125.264 26.7533 125.394 27.0404 125.567 27.291C125.745 27.5417 125.966 27.7399 126.23 27.8857C126.495 28.027 126.802 28.0977 127.153 28.0977C127.5 28.0977 127.803 28.027 128.062 27.8857C128.327 27.7399 128.546 27.5417 128.719 27.291C128.892 27.0404 129.022 26.7533 129.108 26.4297C129.2 26.1016 129.245 25.7529 129.245 25.3838V25.2266C129.245 24.862 129.2 24.5179 129.108 24.1943C129.022 23.8662 128.89 23.5768 128.712 23.3262C128.539 23.071 128.32 22.8704 128.056 22.7246C127.796 22.5788 127.491 22.5059 127.14 22.5059C126.793 22.5059 126.488 22.5788 126.224 22.7246C125.964 22.8704 125.745 23.071 125.567 23.3262C125.394 23.5768 125.264 23.8662 125.178 24.1943C125.091 24.5179 125.048 24.862 125.048 25.2266ZM133.367 22.7656V29H132.103V21.6035H133.333L133.367 22.7656ZM135.678 21.5625L135.671 22.7383C135.566 22.7155 135.466 22.7018 135.37 22.6973C135.279 22.6882 135.174 22.6836 135.056 22.6836C134.764 22.6836 134.507 22.7292 134.283 22.8203C134.06 22.9115 133.871 23.0391 133.716 23.2031C133.561 23.3672 133.438 23.5632 133.347 23.791C133.26 24.0143 133.203 24.2604 133.176 24.5293L132.82 24.7344C132.82 24.2878 132.864 23.8685 132.95 23.4766C133.041 23.0846 133.18 22.7383 133.367 22.4375C133.554 22.1322 133.791 21.8952 134.078 21.7266C134.37 21.5534 134.716 21.4668 135.117 21.4668C135.208 21.4668 135.313 21.4782 135.432 21.501C135.55 21.5192 135.632 21.5397 135.678 21.5625ZM139.779 29.1367C139.264 29.1367 138.797 29.0501 138.378 28.877C137.963 28.6992 137.605 28.4508 137.305 28.1318C137.008 27.8128 136.781 27.4346 136.621 26.9971C136.462 26.5596 136.382 26.0811 136.382 25.5615V25.2744C136.382 24.6729 136.471 24.1374 136.648 23.668C136.826 23.194 137.068 22.793 137.373 22.4648C137.678 22.1367 138.025 21.8883 138.412 21.7197C138.799 21.5511 139.201 21.4668 139.615 21.4668C140.144 21.4668 140.6 21.5579 140.982 21.7402C141.37 21.9225 141.687 22.1777 141.933 22.5059C142.179 22.8294 142.361 23.2122 142.479 23.6543C142.598 24.0918 142.657 24.5703 142.657 25.0898V25.6572H137.134V24.625H141.393V24.5293C141.374 24.2012 141.306 23.8822 141.188 23.5723C141.074 23.2624 140.891 23.0072 140.641 22.8066C140.39 22.6061 140.048 22.5059 139.615 22.5059C139.328 22.5059 139.064 22.5674 138.822 22.6904C138.581 22.8089 138.373 22.9867 138.2 23.2236C138.027 23.4606 137.893 23.75 137.797 24.0918C137.701 24.4336 137.653 24.8278 137.653 25.2744V25.5615C137.653 25.9124 137.701 26.2428 137.797 26.5527C137.897 26.8581 138.041 27.127 138.228 27.3594C138.419 27.5918 138.649 27.7741 138.918 27.9062C139.191 28.0384 139.501 28.1045 139.848 28.1045C140.294 28.1045 140.673 28.0133 140.982 27.8311C141.292 27.6488 141.563 27.4049 141.796 27.0996L142.562 27.708C142.402 27.9495 142.199 28.1797 141.953 28.3984C141.707 28.6172 141.404 28.7949 141.044 28.9316C140.688 29.0684 140.267 29.1367 139.779 29.1367ZM29.3379 34.5V45H28.0664V34.5H29.3379ZM32.7422 37.6035V45H31.4707V37.6035H32.7422ZM31.375 35.6416C31.375 35.4365 31.4365 35.2633 31.5596 35.1221C31.6872 34.9808 31.874 34.9102 32.1201 34.9102C32.3617 34.9102 32.5462 34.9808 32.6738 35.1221C32.806 35.2633 32.8721 35.4365 32.8721 35.6416C32.8721 35.8376 32.806 36.0062 32.6738 36.1475C32.5462 36.2842 32.3617 36.3525 32.1201 36.3525C31.874 36.3525 31.6872 36.2842 31.5596 36.1475C31.4365 36.0062 31.375 35.8376 31.375 35.6416ZM36.0439 34.5V45H34.7725V34.5H36.0439ZM40.5625 37.6035L37.3359 41.0557L35.5312 42.9287L35.4287 41.582L36.7207 40.0371L39.0176 37.6035H40.5625ZM39.4072 45L36.7686 41.4727L37.4248 40.3447L40.8975 45H39.4072ZM44.8008 45.1367C44.2858 45.1367 43.8187 45.0501 43.3994 44.877C42.9847 44.6992 42.627 44.4508 42.3262 44.1318C42.0299 43.8128 41.8021 43.4346 41.6426 42.9971C41.4831 42.5596 41.4033 42.0811 41.4033 41.5615V41.2744C41.4033 40.6729 41.4922 40.1374 41.6699 39.668C41.8477 39.194 42.0892 38.793 42.3945 38.4648C42.6999 38.1367 43.0462 37.8883 43.4336 37.7197C43.821 37.5511 44.222 37.4668 44.6367 37.4668C45.1654 37.4668 45.6211 37.5579 46.0039 37.7402C46.3913 37.9225 46.708 38.1777 46.9541 38.5059C47.2002 38.8294 47.3825 39.2122 47.501 39.6543C47.6195 40.0918 47.6787 40.5703 47.6787 41.0898V41.6572H42.1553V40.625H46.4141V40.5293C46.3958 40.2012 46.3275 39.8822 46.209 39.5723C46.0951 39.2624 45.9128 39.0072 45.6621 38.8066C45.4115 38.6061 45.0697 38.5059 44.6367 38.5059C44.3496 38.5059 44.0853 38.5674 43.8438 38.6904C43.6022 38.8089 43.3949 38.9867 43.2217 39.2236C43.0485 39.4606 42.9141 39.75 42.8184 40.0918C42.7227 40.4336 42.6748 40.8278 42.6748 41.2744V41.5615C42.6748 41.9124 42.7227 42.2428 42.8184 42.5527C42.9186 42.8581 43.0622 43.127 43.249 43.3594C43.4404 43.5918 43.6706 43.7741 43.9395 43.9062C44.2129 44.0384 44.5228 44.1045 44.8691 44.1045C45.3158 44.1045 45.694 44.0133 46.0039 43.8311C46.3138 43.6488 46.585 43.4049 46.8174 43.0996L47.583 43.708C47.4235 43.9495 47.2207 44.1797 46.9746 44.3984C46.7285 44.6172 46.4255 44.7949 46.0654 44.9316C45.71 45.0684 45.2884 45.1367 44.8008 45.1367ZM50.5293 34.5V45H49.2578V34.5H50.5293ZM54.6377 44.2344L56.6953 37.6035H58.0488L55.082 46.1416C55.0137 46.3239 54.9225 46.5199 54.8086 46.7295C54.6992 46.9437 54.5579 47.1465 54.3848 47.3379C54.2116 47.5293 54.002 47.6842 53.7559 47.8027C53.5143 47.9258 53.2249 47.9873 52.8877 47.9873C52.7874 47.9873 52.6598 47.9736 52.5049 47.9463C52.3499 47.9189 52.2406 47.8962 52.1768 47.8779L52.1699 46.8525C52.2064 46.8571 52.2633 46.8617 52.3408 46.8662C52.4229 46.8753 52.4798 46.8799 52.5117 46.8799C52.7988 46.8799 53.0426 46.8411 53.2432 46.7637C53.4437 46.6908 53.6123 46.5654 53.749 46.3877C53.8903 46.2145 54.0111 45.9753 54.1113 45.6699L54.6377 44.2344ZM53.127 37.6035L55.0479 43.3457L55.376 44.6787L54.4668 45.1436L51.7461 37.6035H53.127ZM65.7598 37.6035V38.5742H61.7607V37.6035H65.7598ZM63.1143 35.8057H64.3789V43.168C64.3789 43.4186 64.4176 43.6077 64.4951 43.7354C64.5726 43.863 64.6729 43.9473 64.7959 43.9883C64.9189 44.0293 65.0511 44.0498 65.1924 44.0498C65.2972 44.0498 65.4066 44.0407 65.5205 44.0225C65.639 43.9997 65.7279 43.9814 65.7871 43.9678L65.7939 45C65.6937 45.0319 65.5615 45.0615 65.3975 45.0889C65.238 45.1208 65.0443 45.1367 64.8164 45.1367C64.5065 45.1367 64.2217 45.0752 63.9619 44.9521C63.7021 44.8291 63.4948 44.624 63.3398 44.3369C63.1895 44.0452 63.1143 43.6533 63.1143 43.1611V35.8057ZM66.7715 41.3838V41.2266C66.7715 40.6934 66.849 40.1989 67.0039 39.7432C67.1589 39.2829 67.3822 38.8841 67.6738 38.5469C67.9655 38.2051 68.3187 37.9408 68.7334 37.7539C69.1481 37.5625 69.613 37.4668 70.1279 37.4668C70.6475 37.4668 71.1146 37.5625 71.5293 37.7539C71.9486 37.9408 72.304 38.2051 72.5957 38.5469C72.8919 38.8841 73.1175 39.2829 73.2725 39.7432C73.4274 40.1989 73.5049 40.6934 73.5049 41.2266V41.3838C73.5049 41.917 73.4274 42.4115 73.2725 42.8672C73.1175 43.3229 72.8919 43.7217 72.5957 44.0635C72.304 44.4007 71.9508 44.665 71.5361 44.8564C71.126 45.0433 70.6611 45.1367 70.1416 45.1367C69.6221 45.1367 69.1549 45.0433 68.7402 44.8564C68.3255 44.665 67.9701 44.4007 67.6738 44.0635C67.3822 43.7217 67.1589 43.3229 67.0039 42.8672C66.849 42.4115 66.7715 41.917 66.7715 41.3838ZM68.0361 41.2266V41.3838C68.0361 41.7529 68.0794 42.1016 68.166 42.4297C68.2526 42.7533 68.3825 43.0404 68.5557 43.291C68.7334 43.5417 68.9544 43.7399 69.2188 43.8857C69.4831 44.027 69.7907 44.0977 70.1416 44.0977C70.488 44.0977 70.791 44.027 71.0508 43.8857C71.3151 43.7399 71.5339 43.5417 71.707 43.291C71.8802 43.0404 72.0101 42.7533 72.0967 42.4297C72.1878 42.1016 72.2334 41.7529 72.2334 41.3838V41.2266C72.2334 40.862 72.1878 40.5179 72.0967 40.1943C72.0101 39.8662 71.8779 39.5768 71.7002 39.3262C71.527 39.071 71.3083 38.8704 71.0439 38.7246C70.7842 38.5788 70.4788 38.5059 70.1279 38.5059C69.7816 38.5059 69.4762 38.5788 69.2119 38.7246C68.9521 38.8704 68.7334 39.071 68.5557 39.3262C68.3825 39.5768 68.2526 39.8662 68.166 40.1943C68.0794 40.5179 68.0361 40.862 68.0361 41.2266ZM79.8281 38.7656V45H78.5635V37.6035H79.7939L79.8281 38.7656ZM82.1387 37.5625L82.1318 38.7383C82.027 38.7155 81.9268 38.7018 81.8311 38.6973C81.7399 38.6882 81.6351 38.6836 81.5166 38.6836C81.2249 38.6836 80.9674 38.7292 80.7441 38.8203C80.5208 38.9115 80.3317 39.0391 80.1768 39.2031C80.0218 39.3672 79.8988 39.5632 79.8076 39.791C79.721 40.0143 79.6641 40.2604 79.6367 40.5293L79.2812 40.7344C79.2812 40.2878 79.3245 39.8685 79.4111 39.4766C79.5023 39.0846 79.6413 38.7383 79.8281 38.4375C80.015 38.1322 80.252 37.8952 80.5391 37.7266C80.8307 37.5534 81.1771 37.4668 81.5781 37.4668C81.6693 37.4668 81.7741 37.4782 81.8926 37.501C82.0111 37.5192 82.0931 37.5397 82.1387 37.5625ZM86.2402 45.1367C85.7253 45.1367 85.2581 45.0501 84.8389 44.877C84.4242 44.6992 84.0664 44.4508 83.7656 44.1318C83.4694 43.8128 83.2415 43.4346 83.082 42.9971C82.9225 42.5596 82.8428 42.0811 82.8428 41.5615V41.2744C82.8428 40.6729 82.9316 40.1374 83.1094 39.668C83.2871 39.194 83.5286 38.793 83.834 38.4648C84.1393 38.1367 84.4857 37.8883 84.873 37.7197C85.2604 37.5511 85.6615 37.4668 86.0762 37.4668C86.6048 37.4668 87.0605 37.5579 87.4434 37.7402C87.8307 37.9225 88.1475 38.1777 88.3936 38.5059C88.6396 38.8294 88.8219 39.2122 88.9404 39.6543C89.0589 40.0918 89.1182 40.5703 89.1182 41.0898V41.6572H83.5947V40.625H87.8535V40.5293C87.8353 40.2012 87.7669 39.8822 87.6484 39.5723C87.5345 39.2624 87.3522 39.0072 87.1016 38.8066C86.8509 38.6061 86.5091 38.5059 86.0762 38.5059C85.7891 38.5059 85.5247 38.5674 85.2832 38.6904C85.0417 38.8089 84.8343 38.9867 84.6611 39.2236C84.488 39.4606 84.3535 39.75 84.2578 40.0918C84.1621 40.4336 84.1143 40.8278 84.1143 41.2744V41.5615C84.1143 41.9124 84.1621 42.2428 84.2578 42.5527C84.3581 42.8581 84.5016 43.127 84.6885 43.3594C84.8799 43.5918 85.11 43.7741 85.3789 43.9062C85.6523 44.0384 85.9622 44.1045 86.3086 44.1045C86.7552 44.1045 87.1335 44.0133 87.4434 43.8311C87.7533 43.6488 88.0244 43.4049 88.2568 43.0996L89.0225 43.708C88.863 43.9495 88.6602 44.1797 88.4141 44.3984C88.168 44.6172 87.8649 44.7949 87.5049 44.9316C87.1494 45.0684 86.7279 45.1367 86.2402 45.1367ZM94.9561 43.7354V39.9277C94.9561 39.6361 94.8968 39.3831 94.7783 39.1689C94.6644 38.9502 94.4912 38.7816 94.2588 38.6631C94.0264 38.5446 93.7393 38.4854 93.3975 38.4854C93.0785 38.4854 92.7982 38.54 92.5566 38.6494C92.3197 38.7588 92.1328 38.9023 91.9961 39.0801C91.8639 39.2578 91.7979 39.4492 91.7979 39.6543H90.5332C90.5332 39.39 90.6016 39.1279 90.7383 38.8682C90.875 38.6084 91.071 38.3737 91.3262 38.1641C91.5859 37.9499 91.8958 37.7812 92.2559 37.6582C92.6204 37.5306 93.026 37.4668 93.4727 37.4668C94.0104 37.4668 94.4844 37.5579 94.8945 37.7402C95.3092 37.9225 95.6328 38.1982 95.8652 38.5674C96.1022 38.932 96.2207 39.39 96.2207 39.9414V43.3867C96.2207 43.6328 96.2412 43.8949 96.2822 44.1729C96.3278 44.4508 96.3939 44.6901 96.4805 44.8906V45H95.1611C95.0973 44.8542 95.0472 44.6605 95.0107 44.4189C94.9743 44.1729 94.9561 43.945 94.9561 43.7354ZM95.1748 40.5156L95.1885 41.4043H93.9102C93.5501 41.4043 93.2288 41.4339 92.9463 41.4932C92.6637 41.5479 92.4268 41.6322 92.2354 41.7461C92.0439 41.86 91.8981 42.0036 91.7979 42.1768C91.6976 42.3454 91.6475 42.5436 91.6475 42.7715C91.6475 43.0039 91.6999 43.2158 91.8047 43.4072C91.9095 43.5986 92.0667 43.7513 92.2764 43.8652C92.4906 43.9746 92.7526 44.0293 93.0625 44.0293C93.4499 44.0293 93.7917 43.9473 94.0879 43.7832C94.3841 43.6191 94.6188 43.4186 94.792 43.1816C94.9697 42.9447 95.0654 42.7145 95.0791 42.4912L95.6191 43.0996C95.5872 43.291 95.5007 43.5029 95.3594 43.7354C95.2181 43.9678 95.029 44.1911 94.792 44.4053C94.5596 44.6149 94.2816 44.7904 93.958 44.9316C93.639 45.0684 93.279 45.1367 92.8779 45.1367C92.3766 45.1367 91.9368 45.0387 91.5586 44.8428C91.1849 44.6468 90.8932 44.3848 90.6836 44.0566C90.4785 43.724 90.376 43.3525 90.376 42.9424C90.376 42.5459 90.4535 42.1973 90.6084 41.8965C90.7633 41.5911 90.9867 41.3382 91.2783 41.1377C91.57 40.9326 91.9209 40.7777 92.3311 40.6729C92.7412 40.568 93.1992 40.5156 93.7051 40.5156H95.1748ZM101.17 44.0977C101.471 44.0977 101.749 44.0361 102.004 43.9131C102.259 43.79 102.469 43.6214 102.633 43.4072C102.797 43.1885 102.89 42.9401 102.913 42.6621H104.116C104.093 43.0996 103.945 43.5075 103.672 43.8857C103.403 44.2594 103.05 44.5625 102.612 44.7949C102.175 45.0228 101.694 45.1367 101.17 45.1367C100.614 45.1367 100.129 45.0387 99.7139 44.8428C99.3037 44.6468 98.9619 44.3779 98.6885 44.0361C98.4196 43.6943 98.2168 43.3024 98.0801 42.8604C97.9479 42.4137 97.8818 41.9421 97.8818 41.4453V41.1582C97.8818 40.6615 97.9479 40.1921 98.0801 39.75C98.2168 39.3034 98.4196 38.9092 98.6885 38.5674C98.9619 38.2256 99.3037 37.9567 99.7139 37.7607C100.129 37.5648 100.614 37.4668 101.17 37.4668C101.749 37.4668 102.255 37.5853 102.688 37.8223C103.12 38.0547 103.46 38.3737 103.706 38.7793C103.957 39.1803 104.093 39.6361 104.116 40.1465H102.913C102.89 39.8411 102.804 39.5654 102.653 39.3193C102.507 39.0732 102.307 38.8773 102.052 38.7314C101.801 38.5811 101.507 38.5059 101.17 38.5059C100.783 38.5059 100.457 38.5833 100.192 38.7383C99.9326 38.8887 99.7253 39.0938 99.5703 39.3535C99.4199 39.6087 99.3105 39.8936 99.2422 40.208C99.1784 40.5179 99.1465 40.8346 99.1465 41.1582V41.4453C99.1465 41.7689 99.1784 42.0879 99.2422 42.4023C99.306 42.7168 99.4131 43.0016 99.5635 43.2568C99.7184 43.512 99.9258 43.7171 100.186 43.8721C100.45 44.0225 100.778 44.0977 101.17 44.0977ZM106.803 34.5V45H105.538V34.5H106.803ZM106.502 41.0215L105.976 41.001C105.98 40.4951 106.055 40.028 106.201 39.5996C106.347 39.1667 106.552 38.7907 106.816 38.4717C107.081 38.1527 107.395 37.9066 107.76 37.7334C108.129 37.5557 108.537 37.4668 108.983 37.4668C109.348 37.4668 109.676 37.5169 109.968 37.6172C110.259 37.7129 110.508 37.8678 110.713 38.082C110.923 38.2962 111.082 38.5742 111.191 38.916C111.301 39.2533 111.355 39.6657 111.355 40.1533V45H110.084V40.1396C110.084 39.7523 110.027 39.4424 109.913 39.21C109.799 38.973 109.633 38.8021 109.414 38.6973C109.195 38.5879 108.926 38.5332 108.607 38.5332C108.293 38.5332 108.006 38.5993 107.746 38.7314C107.491 38.8636 107.27 39.0459 107.083 39.2783C106.901 39.5107 106.757 39.7773 106.652 40.0781C106.552 40.3743 106.502 40.6888 106.502 41.0215ZM121.028 43.0381C121.028 42.8558 120.987 42.6872 120.905 42.5322C120.828 42.3727 120.666 42.2292 120.42 42.1016C120.178 41.9694 119.814 41.8555 119.326 41.7598C118.916 41.6732 118.545 41.5706 118.212 41.4521C117.884 41.3337 117.604 41.1901 117.371 41.0215C117.143 40.8529 116.968 40.6546 116.845 40.4268C116.722 40.1989 116.66 39.9323 116.66 39.627C116.66 39.3353 116.724 39.0596 116.852 38.7998C116.984 38.54 117.168 38.3099 117.405 38.1094C117.647 37.9089 117.936 37.7516 118.273 37.6377C118.611 37.5238 118.987 37.4668 119.401 37.4668C119.994 37.4668 120.5 37.5716 120.919 37.7812C121.338 37.9909 121.66 38.2712 121.883 38.6221C122.106 38.9684 122.218 39.3535 122.218 39.7773H120.953C120.953 39.5723 120.892 39.374 120.769 39.1826C120.65 38.9867 120.475 38.8249 120.242 38.6973C120.014 38.5697 119.734 38.5059 119.401 38.5059C119.05 38.5059 118.766 38.5605 118.547 38.6699C118.333 38.7747 118.175 38.9092 118.075 39.0732C117.979 39.2373 117.932 39.4105 117.932 39.5928C117.932 39.7295 117.954 39.8525 118 39.9619C118.05 40.0667 118.137 40.1647 118.26 40.2559C118.383 40.3424 118.556 40.4245 118.779 40.502C119.003 40.5794 119.287 40.6569 119.634 40.7344C120.24 40.8711 120.739 41.0352 121.131 41.2266C121.523 41.418 121.814 41.6527 122.006 41.9307C122.197 42.2087 122.293 42.5459 122.293 42.9424C122.293 43.266 122.225 43.5622 122.088 43.8311C121.956 44.0999 121.762 44.3324 121.507 44.5283C121.256 44.7197 120.955 44.8701 120.604 44.9795C120.258 45.0843 119.868 45.1367 119.436 45.1367C118.784 45.1367 118.232 45.0205 117.781 44.7881C117.33 44.5557 116.988 44.2549 116.756 43.8857C116.523 43.5166 116.407 43.127 116.407 42.7168H117.679C117.697 43.0632 117.797 43.3389 117.979 43.5439C118.162 43.7445 118.385 43.888 118.649 43.9746C118.914 44.0566 119.176 44.0977 119.436 44.0977C119.782 44.0977 120.071 44.0521 120.304 43.9609C120.541 43.8698 120.721 43.7445 120.844 43.585C120.967 43.4255 121.028 43.2432 121.028 43.0381ZM127.023 45.1367C126.508 45.1367 126.041 45.0501 125.622 44.877C125.207 44.6992 124.85 44.4508 124.549 44.1318C124.253 43.8128 124.025 43.4346 123.865 42.9971C123.706 42.5596 123.626 42.0811 123.626 41.5615V41.2744C123.626 40.6729 123.715 40.1374 123.893 39.668C124.07 39.194 124.312 38.793 124.617 38.4648C124.923 38.1367 125.269 37.8883 125.656 37.7197C126.044 37.5511 126.445 37.4668 126.859 37.4668C127.388 37.4668 127.844 37.5579 128.227 37.7402C128.614 37.9225 128.931 38.1777 129.177 38.5059C129.423 38.8294 129.605 39.2122 129.724 39.6543C129.842 40.0918 129.901 40.5703 129.901 41.0898V41.6572H124.378V40.625H128.637V40.5293C128.618 40.2012 128.55 39.8822 128.432 39.5723C128.318 39.2624 128.135 39.0072 127.885 38.8066C127.634 38.6061 127.292 38.5059 126.859 38.5059C126.572 38.5059 126.308 38.5674 126.066 38.6904C125.825 38.8089 125.618 38.9867 125.444 39.2236C125.271 39.4606 125.137 39.75 125.041 40.0918C124.945 40.4336 124.897 40.8278 124.897 41.2744V41.5615C124.897 41.9124 124.945 42.2428 125.041 42.5527C125.141 42.8581 125.285 43.127 125.472 43.3594C125.663 43.5918 125.893 43.7741 126.162 43.9062C126.436 44.0384 126.745 44.1045 127.092 44.1045C127.538 44.1045 127.917 44.0133 128.227 43.8311C128.536 43.6488 128.808 43.4049 129.04 43.0996L129.806 43.708C129.646 43.9495 129.443 44.1797 129.197 44.3984C128.951 44.6172 128.648 44.7949 128.288 44.9316C127.933 45.0684 127.511 45.1367 127.023 45.1367ZM134.475 37.6035V38.5742H130.476V37.6035H134.475ZM131.829 35.8057H133.094V43.168C133.094 43.4186 133.132 43.6077 133.21 43.7354C133.287 43.863 133.388 43.9473 133.511 43.9883C133.634 44.0293 133.766 44.0498 133.907 44.0498C134.012 44.0498 134.121 44.0407 134.235 44.0225C134.354 43.9997 134.443 43.9814 134.502 43.9678L134.509 45C134.409 45.0319 134.276 45.0615 134.112 45.0889C133.953 45.1208 133.759 45.1367 133.531 45.1367C133.221 45.1367 132.937 45.0752 132.677 44.9521C132.417 44.8291 132.21 44.624 132.055 44.3369C131.904 44.0452 131.829 43.6533 131.829 43.1611V35.8057ZM32.7559 53.6035H33.9043V60.8428C33.9043 61.4945 33.7721 62.0505 33.5078 62.5107C33.2435 62.971 32.8743 63.3197 32.4004 63.5566C31.931 63.7982 31.3887 63.9189 30.7734 63.9189C30.5182 63.9189 30.2174 63.8779 29.8711 63.7959C29.5293 63.7184 29.1921 63.584 28.8594 63.3926C28.5312 63.2057 28.2555 62.9528 28.0322 62.6338L28.6953 61.8818C29.0052 62.2555 29.3288 62.5153 29.666 62.6611C30.0078 62.807 30.3451 62.8799 30.6777 62.8799C31.0788 62.8799 31.4251 62.8047 31.7168 62.6543C32.0085 62.5039 32.234 62.2806 32.3936 61.9844C32.5576 61.6927 32.6396 61.3327 32.6396 60.9043V55.2305L32.7559 53.6035ZM27.6631 57.3838V57.2402C27.6631 56.6751 27.7292 56.1624 27.8613 55.7021C27.998 55.2373 28.1917 54.8385 28.4424 54.5059C28.6976 54.1732 29.0052 53.918 29.3652 53.7402C29.7253 53.5579 30.1309 53.4668 30.582 53.4668C31.0469 53.4668 31.4525 53.5488 31.7988 53.7129C32.1497 53.8724 32.446 54.1071 32.6875 54.417C32.9336 54.7223 33.1273 55.0915 33.2686 55.5244C33.4098 55.9574 33.5078 56.4473 33.5625 56.9941V57.623C33.5124 58.1654 33.4144 58.653 33.2686 59.0859C33.1273 59.5189 32.9336 59.888 32.6875 60.1934C32.446 60.4987 32.1497 60.7334 31.7988 60.8975C31.4479 61.057 31.0378 61.1367 30.5684 61.1367C30.1263 61.1367 29.7253 61.0433 29.3652 60.8564C29.0098 60.6696 28.7044 60.4076 28.4492 60.0703C28.194 59.7331 27.998 59.3366 27.8613 58.8809C27.7292 58.4206 27.6631 57.9215 27.6631 57.3838ZM28.9277 57.2402V57.3838C28.9277 57.7529 28.9642 58.0993 29.0371 58.4229C29.1146 58.7464 29.2308 59.0312 29.3857 59.2773C29.5452 59.5234 29.748 59.7171 29.9941 59.8584C30.2402 59.9951 30.5342 60.0635 30.876 60.0635C31.2952 60.0635 31.6416 59.9746 31.915 59.7969C32.1885 59.6191 32.4049 59.3844 32.5645 59.0928C32.7285 58.8011 32.8561 58.4844 32.9473 58.1426V56.4951C32.8971 56.2445 32.8197 56.0029 32.7148 55.7705C32.6146 55.5335 32.4824 55.3239 32.3184 55.1416C32.1589 54.9548 31.9606 54.8066 31.7236 54.6973C31.4867 54.5879 31.2087 54.5332 30.8896 54.5332C30.5433 54.5332 30.2448 54.6061 29.9941 54.752C29.748 54.8932 29.5452 55.0892 29.3857 55.3398C29.2308 55.5859 29.1146 55.873 29.0371 56.2012C28.9642 56.5247 28.9277 56.8711 28.9277 57.2402ZM35.4902 57.3838V57.2266C35.4902 56.6934 35.5677 56.1989 35.7227 55.7432C35.8776 55.2829 36.1009 54.8841 36.3926 54.5469C36.6842 54.2051 37.0374 53.9408 37.4521 53.7539C37.8669 53.5625 38.3317 53.4668 38.8467 53.4668C39.3662 53.4668 39.8333 53.5625 40.248 53.7539C40.6673 53.9408 41.0228 54.2051 41.3145 54.5469C41.6107 54.8841 41.8363 55.2829 41.9912 55.7432C42.1462 56.1989 42.2236 56.6934 42.2236 57.2266V57.3838C42.2236 57.917 42.1462 58.4115 41.9912 58.8672C41.8363 59.3229 41.6107 59.7217 41.3145 60.0635C41.0228 60.4007 40.6696 60.665 40.2549 60.8564C39.8447 61.0433 39.3799 61.1367 38.8604 61.1367C38.3408 61.1367 37.8737 61.0433 37.459 60.8564C37.0443 60.665 36.6888 60.4007 36.3926 60.0635C36.1009 59.7217 35.8776 59.3229 35.7227 58.8672C35.5677 58.4115 35.4902 57.917 35.4902 57.3838ZM36.7549 57.2266V57.3838C36.7549 57.7529 36.7982 58.1016 36.8848 58.4297C36.9714 58.7533 37.1012 59.0404 37.2744 59.291C37.4521 59.5417 37.6732 59.7399 37.9375 59.8857C38.2018 60.027 38.5094 60.0977 38.8604 60.0977C39.2067 60.0977 39.5098 60.027 39.7695 59.8857C40.0339 59.7399 40.2526 59.5417 40.4258 59.291C40.599 59.0404 40.7288 58.7533 40.8154 58.4297C40.9066 58.1016 40.9521 57.7529 40.9521 57.3838V57.2266C40.9521 56.862 40.9066 56.5179 40.8154 56.1943C40.7288 55.8662 40.5967 55.5768 40.4189 55.3262C40.2458 55.071 40.027 54.8704 39.7627 54.7246C39.5029 54.5788 39.1976 54.5059 38.8467 54.5059C38.5003 54.5059 38.195 54.5788 37.9307 54.7246C37.6709 54.8704 37.4521 55.071 37.2744 55.3262C37.1012 55.5768 36.9714 55.8662 36.8848 56.1943C36.7982 56.5179 36.7549 56.862 36.7549 57.2266ZM48.1709 59.7354V55.9277C48.1709 55.6361 48.1117 55.3831 47.9932 55.1689C47.8792 54.9502 47.7061 54.7816 47.4736 54.6631C47.2412 54.5446 46.9541 54.4854 46.6123 54.4854C46.2933 54.4854 46.013 54.54 45.7715 54.6494C45.5345 54.7588 45.3477 54.9023 45.2109 55.0801C45.0788 55.2578 45.0127 55.4492 45.0127 55.6543H43.748C43.748 55.39 43.8164 55.1279 43.9531 54.8682C44.0898 54.6084 44.2858 54.3737 44.541 54.1641C44.8008 53.9499 45.1107 53.7812 45.4707 53.6582C45.8353 53.5306 46.2409 53.4668 46.6875 53.4668C47.2253 53.4668 47.6992 53.5579 48.1094 53.7402C48.5241 53.9225 48.8477 54.1982 49.0801 54.5674C49.3171 54.932 49.4355 55.39 49.4355 55.9414V59.3867C49.4355 59.6328 49.4561 59.8949 49.4971 60.1729C49.5426 60.4508 49.6087 60.6901 49.6953 60.8906V61H48.376C48.3122 60.8542 48.262 60.6605 48.2256 60.4189C48.1891 60.1729 48.1709 59.945 48.1709 59.7354ZM48.3896 56.5156L48.4033 57.4043H47.125C46.765 57.4043 46.4437 57.4339 46.1611 57.4932C45.8786 57.5479 45.6416 57.6322 45.4502 57.7461C45.2588 57.86 45.113 58.0036 45.0127 58.1768C44.9124 58.3454 44.8623 58.5436 44.8623 58.7715C44.8623 59.0039 44.9147 59.2158 45.0195 59.4072C45.1243 59.5986 45.2816 59.7513 45.4912 59.8652C45.7054 59.9746 45.9674 60.0293 46.2773 60.0293C46.6647 60.0293 47.0065 59.9473 47.3027 59.7832C47.599 59.6191 47.8337 59.4186 48.0068 59.1816C48.1846 58.9447 48.2803 58.7145 48.2939 58.4912L48.834 59.0996C48.8021 59.291 48.7155 59.5029 48.5742 59.7354C48.4329 59.9678 48.2438 60.1911 48.0068 60.4053C47.7744 60.6149 47.4964 60.7904 47.1729 60.9316C46.8538 61.0684 46.4938 61.1367 46.0928 61.1367C45.5915 61.1367 45.1517 61.0387 44.7734 60.8428C44.3997 60.6468 44.1081 60.3848 43.8984 60.0566C43.6934 59.724 43.5908 59.3525 43.5908 58.9424C43.5908 58.5459 43.6683 58.1973 43.8232 57.8965C43.9782 57.5911 44.2015 57.3382 44.4932 57.1377C44.7848 56.9326 45.1357 56.7777 45.5459 56.6729C45.9561 56.568 46.4141 56.5156 46.9199 56.5156H48.3896ZM52.7988 50.5V61H51.5273V50.5H52.7988ZM59.1357 59.0381C59.1357 58.8558 59.0947 58.6872 59.0127 58.5322C58.9352 58.3727 58.7734 58.2292 58.5273 58.1016C58.2858 57.9694 57.9212 57.8555 57.4336 57.7598C57.0234 57.6732 56.652 57.5706 56.3193 57.4521C55.9912 57.3337 55.7109 57.1901 55.4785 57.0215C55.2507 56.8529 55.0752 56.6546 54.9521 56.4268C54.8291 56.1989 54.7676 55.9323 54.7676 55.627C54.7676 55.3353 54.8314 55.0596 54.959 54.7998C55.0911 54.54 55.2757 54.3099 55.5127 54.1094C55.7542 53.9089 56.0436 53.7516 56.3809 53.6377C56.7181 53.5238 57.0941 53.4668 57.5088 53.4668C58.1012 53.4668 58.6071 53.5716 59.0264 53.7812C59.4456 53.9909 59.7669 54.2712 59.9902 54.6221C60.2135 54.9684 60.3252 55.3535 60.3252 55.7773H59.0605C59.0605 55.5723 58.999 55.374 58.876 55.1826C58.7575 54.9867 58.582 54.8249 58.3496 54.6973C58.1217 54.5697 57.8415 54.5059 57.5088 54.5059C57.1579 54.5059 56.873 54.5605 56.6543 54.6699C56.4401 54.7747 56.2829 54.9092 56.1826 55.0732C56.0869 55.2373 56.0391 55.4105 56.0391 55.5928C56.0391 55.7295 56.0618 55.8525 56.1074 55.9619C56.1576 56.0667 56.2441 56.1647 56.3672 56.2559C56.4902 56.3424 56.6634 56.4245 56.8867 56.502C57.11 56.5794 57.3949 56.6569 57.7412 56.7344C58.3473 56.8711 58.8464 57.0352 59.2383 57.2266C59.6302 57.418 59.9219 57.6527 60.1133 57.9307C60.3047 58.2087 60.4004 58.5459 60.4004 58.9424C60.4004 59.266 60.332 59.5622 60.1953 59.8311C60.0632 60.0999 59.8695 60.3324 59.6143 60.5283C59.3636 60.7197 59.0628 60.8701 58.7119 60.9795C58.3656 61.0843 57.9759 61.1367 57.543 61.1367C56.8913 61.1367 56.3398 61.0205 55.8887 60.7881C55.4375 60.5557 55.0957 60.2549 54.8633 59.8857C54.6309 59.5166 54.5146 59.127 54.5146 58.7168H55.7861C55.8044 59.0632 55.9046 59.3389 56.0869 59.5439C56.2692 59.7445 56.4925 59.888 56.7568 59.9746C57.0212 60.0566 57.2832 60.0977 57.543 60.0977C57.8893 60.0977 58.1787 60.0521 58.4111 59.9609C58.6481 59.8698 58.8281 59.7445 58.9512 59.585C59.0742 59.4255 59.1357 59.2432 59.1357 59.0381Z" fill="#0F172A"/>
</svg>
